<svg width="165" height="31" viewBox="0 0 165 31" fill="none" xmlns="http://www.w3.org/2000/svg">
<path d="M12.524 19.2396H10.292V22.1016H8.024V19.2396H1.112V17.6196L7.322 9.50156H9.824L3.974 17.2596H8.096V14.7216H10.292V17.2596H12.524V19.2396ZM25.0114 15.1016L27.5514 17.6616L26.1714 19.1216L23.5914 16.5216L21.0114 19.1216L19.6714 17.6616L22.1914 15.1016L19.6714 12.5416L21.0114 11.0816L23.5914 13.6816L26.1714 11.0816L27.5514 12.5416L25.0114 15.1016ZM40.5109 22.2816C39.5029 22.2816 38.6029 22.0296 37.8109 21.5256C37.0189 21.0096 36.3949 20.2656 35.9389 19.2936C35.4829 18.3096 35.2549 17.1456 35.2549 15.8016C35.2549 14.4576 35.4829 13.2996 35.9389 12.3276C36.3949 11.3436 37.0189 10.5996 37.8109 10.0956C38.6029 9.57956 39.5029 9.32156 40.5109 9.32156C41.5189 9.32156 42.4189 9.57956 43.2109 10.0956C44.0149 10.5996 44.6449 11.3436 45.1009 12.3276C45.5569 13.2996 45.7849 14.4576 45.7849 15.8016C45.7849 17.1456 45.5569 18.3096 45.1009 19.2936C44.6449 20.2656 44.0149 21.0096 43.2109 21.5256C42.4189 22.0296 41.5189 22.2816 40.5109 22.2816ZM40.5109 20.2476C41.4109 20.2476 42.1189 19.8756 42.6349 19.1316C43.1629 18.3876 43.4269 17.2776 43.4269 15.8016C43.4269 14.3256 43.1629 13.2156 42.6349 12.4716C42.1189 11.7276 41.4109 11.3556 40.5109 11.3556C39.6229 11.3556 38.9149 11.7276 38.3869 12.4716C37.8709 13.2156 37.6129 14.3256 37.6129 15.8016C37.6129 17.2776 37.8709 18.3876 38.3869 19.1316C38.9149 19.8756 39.6229 20.2476 40.5109 20.2476ZM48.5773 19.2396C48.9973 19.2396 49.3453 19.3776 49.6213 19.6536C49.8973 19.9296 50.0353 20.2896 50.0353 20.7336C50.0353 20.9256 50.0053 21.1296 49.9453 21.3456C49.8973 21.5496 49.7893 21.8616 49.6213 22.2816L48.7033 24.8196H47.2453L47.9653 22.0656C47.7013 21.9576 47.4913 21.7896 47.3353 21.5616C47.1913 21.3216 47.1193 21.0456 47.1193 20.7336C47.1193 20.2896 47.2573 19.9296 47.5333 19.6536C47.8093 19.3776 48.1573 19.2396 48.5773 19.2396ZM60.8804 9.50156V22.1016H58.5404V11.4636H55.8764V9.50156H60.8804ZM68.7439 14.7036C69.9079 14.8476 70.7959 15.2436 71.4079 15.8916C72.0199 16.5396 72.3259 17.3496 72.3259 18.3216C72.3259 19.0536 72.1399 19.7196 71.7679 20.3196C71.3959 20.9196 70.8319 21.3996 70.0759 21.7596C69.3319 22.1076 68.4199 22.2816 67.3399 22.2816C66.4399 22.2816 65.5699 22.1556 64.7299 21.9036C63.9019 21.6396 63.1939 21.2796 62.6059 20.8236L63.6139 19.0056C64.0699 19.3896 64.6219 19.6956 65.2699 19.9236C65.9299 20.1396 66.6079 20.2476 67.3039 20.2476C68.1319 20.2476 68.7799 20.0796 69.2479 19.7436C69.7279 19.3956 69.9679 18.9276 69.9679 18.3396C69.9679 17.7516 69.7399 17.2956 69.2839 16.9716C68.8399 16.6356 68.1559 16.4676 67.2319 16.4676H66.0799V14.8656L68.9419 11.4636H63.2179V9.50156H71.8039V11.0676L68.7439 14.7036Z" fill="#2F2F2F"/>
<path d="M85.1236 11.9096H95.8756V13.8056H85.1236V11.9096ZM85.1236 17.5976H95.8756V19.4936H85.1236V17.5976Z" fill="#2F2F2F"/>
<path d="M112.505 1.16522L159.351 1.0389L159.341 -0.961073L112.495 -0.834758L112.505 1.16522ZM163.372 5.02806L163.474 25.028L165.474 25.0226L165.372 5.02267L163.372 5.02806ZM159.495 29.0387L112.649 29.165L112.659 31.165L159.505 31.0387L159.495 29.0387ZM108.628 25.1759L108.526 5.17595L106.526 5.18134L106.628 25.1813L108.628 25.1759ZM112.649 29.165C110.44 29.171 108.64 27.385 108.628 25.1759L106.628 25.1813C106.646 28.4949 109.346 31.1739 112.659 31.165L112.649 29.165ZM163.474 25.028C163.486 27.2371 161.704 29.0328 159.495 29.0387L159.505 31.0387C162.819 31.0298 165.491 28.3363 165.474 25.0226L163.474 25.028ZM159.351 1.0389C161.56 1.03294 163.36 2.81895 163.372 5.02806L165.372 5.02267C165.354 1.70901 162.654 -0.970008 159.341 -0.961073L159.351 1.0389ZM112.495 -0.834758C109.181 -0.825823 106.509 1.86768 106.526 5.18134L108.526 5.17595C108.514 2.96684 110.296 1.17117 112.505 1.16522L112.495 -0.834758Z" fill="#2F2F2F"/>
<path d="M121.965 21.144C120.969 21.144 120.081 20.892 119.301 20.388C118.533 19.872 117.927 19.128 117.483 18.156C117.039 17.184 116.817 16.032 116.817 14.7C116.817 13.368 117.039 12.216 117.483 11.244C117.927 10.272 118.533 9.534 119.301 9.03C120.081 8.514 120.969 8.256 121.965 8.256C122.949 8.256 123.825 8.514 124.593 9.03C125.373 9.534 125.985 10.272 126.429 11.244C126.873 12.216 127.095 13.368 127.095 14.7C127.095 16.032 126.873 17.184 126.429 18.156C125.985 19.128 125.373 19.872 124.593 20.388C123.825 20.892 122.949 21.144 121.965 21.144ZM121.965 19.542C122.973 19.542 123.777 19.128 124.377 18.3C124.989 17.472 125.295 16.272 125.295 14.7C125.295 13.128 124.989 11.928 124.377 11.1C123.777 10.272 122.973 9.858 121.965 9.858C120.945 9.858 120.129 10.272 119.517 11.1C118.917 11.928 118.617 13.128 118.617 14.7C118.617 16.272 118.917 17.472 119.517 18.3C120.129 19.128 120.945 19.542 121.965 19.542ZM131.33 21.108C130.994 21.108 130.706 20.994 130.466 20.766C130.226 20.526 130.106 20.226 130.106 19.866C130.106 19.518 130.226 19.23 130.466 19.002C130.706 18.762 130.994 18.642 131.33 18.642C131.666 18.642 131.948 18.756 132.176 18.984C132.404 19.212 132.518 19.506 132.518 19.866C132.518 20.226 132.398 20.526 132.158 20.766C131.93 20.994 131.654 21.108 131.33 21.108ZM139.35 13.422C141.15 13.422 142.47 13.764 143.31 14.448C144.162 15.12 144.588 16.044 144.588 17.22C144.588 17.964 144.408 18.636 144.048 19.236C143.7 19.824 143.166 20.292 142.446 20.64C141.738 20.976 140.862 21.144 139.818 21.144C138.93 21.144 138.072 21.012 137.244 20.748C136.416 20.472 135.732 20.094 135.192 19.614L136.02 18.192C136.452 18.6 137.004 18.93 137.676 19.182C138.348 19.422 139.056 19.542 139.8 19.542C140.748 19.542 141.48 19.344 141.996 18.948C142.524 18.54 142.788 17.988 142.788 17.292C142.788 16.536 142.5 15.966 141.924 15.582C141.348 15.186 140.364 14.988 138.972 14.988H136.11L136.776 8.4H143.886V9.966H138.288L137.946 13.422H139.35ZM156.384 19.434V21H147.33V19.776L152.46 14.826C153.084 14.226 153.504 13.71 153.72 13.278C153.936 12.834 154.044 12.39 154.044 11.946C154.044 11.286 153.81 10.776 153.342 10.416C152.886 10.044 152.226 9.858 151.362 9.858C149.97 9.858 148.896 10.314 148.14 11.226L146.916 10.164C147.408 9.564 148.05 9.096 148.842 8.76C149.646 8.424 150.54 8.256 151.524 8.256C152.844 8.256 153.894 8.574 154.674 9.21C155.454 9.834 155.844 10.686 155.844 11.766C155.844 12.438 155.7 13.074 155.412 13.674C155.124 14.274 154.578 14.958 153.774 15.726L149.922 19.434H156.384Z" fill="#2F2F2F"/>
</svg>
