<svg width="421" height="40" viewBox="0 0 421 40" fill="none" xmlns="http://www.w3.org/2000/svg">
<path d="M263.624 16.808H274.376V18.704H263.624V16.808ZM263.624 22.496H274.376V24.392H263.624V22.496Z" fill="#2F2F2F"/>
<path d="M81.0624 27L78.0024 22.94L74.9024 27H72.7624L76.9424 21.58L72.9624 16.4H75.1024L78.0224 20.22L80.9224 16.4H83.0224L79.0224 21.58L83.2424 27H81.0624Z" fill="#2F2F2F"/>
<path d="M29.9477 23.9645L29.9535 25.5305L20.8996 25.5642L20.895 24.3403L26.0065 19.3712C26.6283 18.7689 27.0464 18.2513 27.2608 17.8185C27.4751 17.3737 27.5815 16.9293 27.5798 16.4853C27.5774 15.8253 27.3415 15.3162 26.8721 14.9579C26.4147 14.5876 25.7541 14.4041 24.8901 14.4073C23.4981 14.4125 22.4258 14.8725 21.6732 15.7873L20.4452 14.7299C20.935 14.128 21.5752 13.6576 22.366 13.3187C23.1687 12.9797 24.0621 12.8084 25.0461 12.8047C26.3661 12.7998 27.4173 13.1139 28.1996 13.747C28.9819 14.3681 29.3751 15.2186 29.3791 16.2986C29.3816 16.9706 29.24 17.6071 28.9542 18.2082C28.6685 18.8093 28.125 19.4953 27.3239 20.2663L23.4857 23.9886L29.9477 23.9645ZM36.1248 10.3515L37.6907 10.3456L31.8139 27.3236L30.2479 27.3295L36.1248 10.3515ZM41.5091 17.9095C43.309 17.9028 44.6303 18.2399 45.4728 18.9207C46.3273 19.5895 46.7568 20.512 46.7612 21.6879C46.7639 22.4319 46.5864 23.1046 46.2287 23.7059C45.8829 24.2952 45.3506 24.7652 44.6319 25.1159C43.9252 25.4545 43.0498 25.6258 42.0058 25.6297C41.1178 25.633 40.2593 25.5042 39.4303 25.2433C38.6013 24.9703 37.9159 24.5949 37.3741 24.1169L38.1968 22.6918C38.6304 23.0982 39.1836 23.4262 39.8565 23.6757C40.5294 23.9132 41.2378 24.0305 41.9818 24.0278C42.9298 24.0242 43.6611 23.8235 44.1756 23.4256C44.7021 23.0156 44.964 22.4626 44.9614 21.7666C44.9586 21.0106 44.6685 20.4417 44.0911 20.0599C43.5136 19.666 42.5289 19.4717 41.1369 19.4769L38.2749 19.4875L38.9164 12.8971L46.0263 12.8706L46.0322 14.4366L40.4342 14.4574L40.1051 17.9147L41.5091 17.9095Z" fill="#2F2F2F"/>
<path d="M5.00369 1.23236L62.456 1.01849L62.4485 -0.981499L4.99624 -0.767629L5.00369 1.23236ZM66.4708 5.00357L66.578 33.7853L68.578 33.7779L68.4708 4.99612L66.4708 5.00357ZM62.5929 37.8002L5.14061 38.0141L5.14805 40.014L62.6003 39.8002L62.5929 37.8002ZM1.12575 34.029L1.01861 5.24722L-0.98138 5.25466L-0.874238 34.0364L1.12575 34.029ZM5.14061 38.0141C2.93149 38.0223 1.13397 36.2381 1.12575 34.029L-0.874238 34.0364C-0.861903 37.3501 1.83437 40.0264 5.14805 40.014L5.14061 38.0141ZM66.578 33.7853C66.5862 35.9945 64.802 37.792 62.5929 37.8002L62.6003 39.8002C65.914 39.7878 68.5903 37.0916 68.578 33.7779L66.578 33.7853ZM62.456 1.01849C64.6651 1.01026 66.4626 2.79444 66.4708 5.00357L68.4708 4.99612C68.4585 1.68244 65.7622 -0.993835 62.4485 -0.981499L62.456 1.01849ZM4.99624 -0.767629C1.68256 -0.755294 -0.993716 1.94098 -0.98138 5.25466L1.01861 5.24722C1.01038 3.03809 2.79456 1.24058 5.00369 1.23236L4.99624 -0.767629Z" fill="#2F2F2F"/>
<path d="M118.329 18.2291C119.565 18.3445 120.509 18.7249 121.159 19.3705C121.81 20.0041 122.137 20.8189 122.14 21.8149C122.143 22.5349 121.965 23.1896 121.608 23.7789C121.25 24.3562 120.711 24.8202 119.993 25.1709C119.286 25.5095 118.417 25.6808 117.385 25.6846C116.485 25.688 115.62 25.5592 114.791 25.2983C113.962 25.0254 113.283 24.6499 112.753 24.1719L113.576 22.7468C114.009 23.1532 114.562 23.4811 115.235 23.7306C115.908 23.9681 116.623 24.0854 117.379 24.0826C118.315 24.0791 119.04 23.8784 119.554 23.4805C120.081 23.0826 120.343 22.5356 120.34 21.8396C120.338 21.1436 120.078 20.6046 119.56 20.2225C119.043 19.8404 118.262 19.6513 117.218 19.6552L116.21 19.6589L116.206 18.399L119.359 14.4992L113.293 14.5218L113.287 12.9558L121.603 12.9248L121.608 14.1488L118.329 18.2291ZM128.981 25.6415C127.985 25.6452 127.096 25.3965 126.315 24.8954C125.545 24.3822 124.936 23.6405 124.488 22.6702C124.041 21.6998 123.814 20.5486 123.809 19.2167C123.804 17.8847 124.022 16.7318 124.463 15.7582C124.903 14.7846 125.506 14.0443 126.272 13.5375C127.05 13.0186 127.937 12.7572 128.933 12.7535C129.917 12.7499 130.794 13.0046 131.564 13.5178C132.346 14.0188 132.961 14.7546 133.408 15.7249C133.856 16.6952 134.082 17.8464 134.087 19.1784C134.092 20.5104 133.875 21.6632 133.434 22.6369C132.994 23.6105 132.385 24.3568 131.607 24.8757C130.84 25.3825 129.965 25.6378 128.981 25.6415ZM128.975 24.0395C129.983 24.0357 130.786 23.6187 131.383 22.7885C131.992 21.9582 132.293 20.7571 132.287 19.1851C132.281 17.6131 131.971 16.4143 131.356 15.5885C130.753 14.7628 129.947 14.3518 128.939 14.3555C127.919 14.3593 127.105 14.7764 126.496 15.6066C125.899 16.4369 125.604 17.638 125.609 19.21C125.615 20.7819 125.92 21.9808 126.523 22.8066C127.138 23.6323 127.955 24.0433 128.975 24.0395Z" fill="#2F2F2F"/>
<path d="M95.0037 1.23236L152.456 1.01849L152.449 -0.981499L94.9962 -0.767629L95.0037 1.23236ZM156.471 5.00357L156.578 33.7853L158.578 33.7779L158.471 4.99612L156.471 5.00357ZM152.593 37.8002L95.1406 38.0141L95.1481 40.014L152.6 39.8002L152.593 37.8002ZM91.1257 34.029L91.0186 5.24722L89.0186 5.25466L89.1258 34.0364L91.1257 34.029ZM95.1406 38.0141C92.9315 38.0223 91.134 36.2381 91.1257 34.029L89.1258 34.0364C89.1381 37.3501 91.8344 40.0264 95.1481 40.014L95.1406 38.0141ZM156.578 33.7853C156.586 35.9945 154.802 37.792 152.593 37.8002L152.6 39.8002C155.914 39.7878 158.59 37.0916 158.578 33.7779L156.578 33.7853ZM152.456 1.01849C154.665 1.01026 156.463 2.79444 156.471 5.00357L158.471 4.99612C158.458 1.68244 155.762 -0.993835 152.449 -0.981499L152.456 1.01849ZM94.9962 -0.767629C91.6826 -0.755294 89.0063 1.94098 89.0186 5.25466L91.0186 5.24722C91.0104 3.03809 92.7946 1.24058 95.0037 1.23236L94.9962 -0.767629Z" fill="#2F2F2F"/>
<path d="M167.624 16.808H178.376V18.704H167.624V16.808ZM167.624 22.496H178.376V24.392H167.624V22.496Z" fill="#2F2F2F"/>
<path d="M208.379 17.9163C209.207 17.9132 209.946 18.0664 210.595 18.376C211.256 18.6855 211.774 19.1336 212.148 19.7202C212.522 20.2948 212.71 20.9601 212.713 21.7161C212.716 22.5081 212.521 23.2049 212.127 23.8063C211.745 24.4078 211.213 24.8778 210.53 25.2163C209.859 25.5428 209.104 25.7076 208.264 25.7107C206.572 25.717 205.262 25.1759 204.334 24.0874C203.418 22.9988 202.956 21.4525 202.949 19.4485C202.944 18.0445 203.185 16.8496 203.673 15.8638C204.174 14.8659 204.867 14.1133 205.753 13.606C206.651 13.0867 207.694 12.8248 208.882 12.8203C209.494 12.8181 210.07 12.8819 210.611 13.0119C211.151 13.1299 211.62 13.3082 212.017 13.5467L211.338 14.9532C210.737 14.5595 209.932 14.3644 208.924 14.3682C207.616 14.3731 206.591 14.7849 205.85 15.6036C205.109 16.4104 204.742 17.5878 204.748 19.1358C204.748 19.3278 204.755 19.4778 204.767 19.5857C205.125 19.0444 205.616 18.6345 206.239 18.3562C206.874 18.0659 207.587 17.9192 208.379 17.9163ZM208.187 24.253C209.015 24.2499 209.686 24.0254 210.2 23.5795C210.715 23.1336 210.97 22.5386 210.968 21.7946C210.965 21.0506 210.699 20.4636 210.169 20.0336C209.651 19.5915 208.954 19.3721 208.079 19.3754C207.515 19.3775 207.011 19.4874 206.568 19.705C206.137 19.9226 205.796 20.2179 205.545 20.5908C205.306 20.9637 205.188 21.3782 205.19 21.8342C205.191 22.2781 205.307 22.6857 205.536 23.0569C205.778 23.416 206.121 23.7087 206.565 23.935C207.022 24.1493 207.563 24.2553 208.187 24.253ZM219.229 25.6699C218.233 25.6736 217.344 25.4249 216.563 24.9238C215.793 24.4107 215.184 23.669 214.736 22.6986C214.289 21.7283 214.062 20.5771 214.057 19.2451C214.052 17.9131 214.27 16.7603 214.711 15.7867C215.151 14.813 215.754 14.0728 216.52 13.5659C217.298 13.047 218.185 12.7857 219.181 12.782C220.165 12.7783 221.042 13.0331 221.812 13.5462C222.594 14.0473 223.209 14.783 223.657 15.7534C224.104 16.7237 224.33 17.8749 224.335 19.2069C224.34 20.5389 224.123 21.6917 223.682 22.6653C223.242 23.639 222.633 24.3852 221.855 24.9041C221.088 25.411 220.213 25.6663 219.229 25.6699ZM219.223 24.0679C220.231 24.0642 221.034 23.6472 221.631 22.817C222.24 21.9867 222.541 20.7856 222.535 19.2136C222.53 17.6416 222.219 16.4427 221.604 15.617C221.001 14.7912 220.195 14.3802 219.187 14.384C218.167 14.3878 217.353 14.8048 216.744 15.6351C216.147 16.4653 215.852 17.6664 215.857 19.2384C215.863 20.8104 216.168 22.0093 216.771 22.835C217.386 23.6608 218.203 24.0717 219.223 24.0679ZM230.251 10.3288L231.817 10.323L225.94 27.3009L224.374 27.3068L230.251 10.3288ZM235.635 17.8868C237.435 17.8801 238.756 18.2172 239.599 18.898C240.453 19.5669 240.883 20.4893 240.887 21.6653C240.89 22.4093 240.712 23.0819 240.355 23.6833C240.009 24.2726 239.476 24.7425 238.758 25.0932C238.051 25.4318 237.176 25.6031 236.132 25.607C235.244 25.6103 234.385 25.4815 233.556 25.2206C232.727 24.9477 232.042 24.5722 231.5 24.0942L232.323 22.6692C232.756 23.0755 233.309 23.4035 233.982 23.653C234.655 23.8905 235.364 24.0078 236.108 24.0051C237.056 24.0015 237.787 23.8008 238.302 23.4029C238.828 22.9929 239.09 22.44 239.087 21.744C239.085 20.988 238.794 20.419 238.217 20.0372C237.64 19.6433 236.655 19.449 235.263 19.4542L232.401 19.4648L233.042 12.8744L240.152 12.8479L240.158 14.4139L234.56 14.4348L234.231 17.892L235.635 17.8868Z" fill="#2F2F2F"/>
<path d="M193.004 1.23236L250.456 1.01849L250.449 -0.981499L192.996 -0.767629L193.004 1.23236ZM254.471 5.00357L254.578 33.7853L256.578 33.7779L256.471 4.99612L254.471 5.00357ZM250.593 37.8002L193.141 38.0141L193.148 40.014L250.6 39.8002L250.593 37.8002ZM189.126 34.029L189.019 5.24722L187.019 5.25466L187.126 34.0364L189.126 34.029ZM193.141 38.0141C190.931 38.0223 189.134 36.2381 189.126 34.029L187.126 34.0364C187.138 37.3501 189.834 40.0264 193.148 40.014L193.141 38.0141ZM254.578 33.7853C254.586 35.9945 252.802 37.792 250.593 37.8002L250.6 39.8002C253.914 39.7878 256.59 37.0916 256.578 33.7779L254.578 33.7853ZM250.456 1.01849C252.665 1.01026 254.463 2.79444 254.471 5.00357L256.471 4.99612C256.458 1.68244 253.762 -0.993835 250.449 -0.981499L250.456 1.01849ZM192.996 -0.767629C189.683 -0.755294 187.006 1.94098 187.019 5.25466L189.019 5.24722C189.01 3.03809 190.795 1.24058 193.004 1.23236L192.996 -0.767629Z" fill="#2F2F2F"/>
<path d="M314.046 12.9301L314.092 25.53L312.31 25.5366L312.269 14.5027L309.425 14.5133L309.42 12.9473L314.046 12.9301ZM325.699 23.9208L325.704 25.4868L316.65 25.5205L316.646 24.2965L321.757 19.3274C322.379 18.7251 322.797 18.2075 323.012 17.7747C323.226 17.3299 323.332 16.8855 323.331 16.4415C323.328 15.7815 323.092 15.2724 322.623 14.9142C322.166 14.5439 321.505 14.3603 320.641 14.3635C319.249 14.3687 318.177 14.8287 317.424 15.7435L316.196 14.6861C316.686 14.0843 317.326 13.6139 318.117 13.2749C318.92 12.9359 319.813 12.7646 320.797 12.7609C322.117 12.756 323.168 13.0701 323.951 13.7032C324.733 14.3243 325.126 15.1748 325.13 16.2548C325.133 16.9268 324.991 17.5634 324.705 18.1644C324.419 18.7655 323.876 19.4515 323.075 20.2225L319.237 23.9448L325.699 23.9208Z" fill="#2F2F2F"/>
<path d="M289.004 1.23236L346.456 1.01849L346.449 -0.981499L288.996 -0.767629L289.004 1.23236ZM350.471 5.00357L350.578 33.7853L352.578 33.7779L352.471 4.99612L350.471 5.00357ZM346.593 37.8002L289.141 38.0141L289.148 40.014L346.6 39.8002L346.593 37.8002ZM285.126 34.029L285.019 5.24722L283.019 5.25466L283.126 34.0364L285.126 34.029ZM289.141 38.0141C286.931 38.0223 285.134 36.2381 285.126 34.029L283.126 34.0364C283.138 37.3501 285.834 40.0264 289.148 40.014L289.141 38.0141ZM350.578 33.7853C350.586 35.9945 348.802 37.792 346.593 37.8002L346.6 39.8002C349.914 39.7878 352.59 37.0916 352.578 33.7779L350.578 33.7853ZM346.456 1.01849C348.665 1.01026 350.463 2.79444 350.471 5.00357L352.471 4.99612C352.458 1.68244 349.762 -0.993835 346.449 -0.981499L346.456 1.01849ZM288.996 -0.767629C285.683 -0.755294 283.006 1.94098 283.019 5.25466L285.019 5.24722C285.01 3.03809 286.795 1.24058 289.004 1.23236L288.996 -0.767629Z" fill="#2F2F2F"/>
<path d="M382.041 27L382.021 17.72L377.421 25.4H376.261L371.661 17.84V27H369.181V13H371.321L376.881 22.28L382.341 13H384.481L384.501 27H382.041ZM388.042 16.32H390.542V27H388.042V16.32ZM389.302 14.56C388.849 14.56 388.469 14.42 388.162 14.14C387.856 13.8467 387.702 13.4867 387.702 13.06C387.702 12.6333 387.856 12.28 388.162 12C388.469 11.7067 388.849 11.56 389.302 11.56C389.756 11.56 390.136 11.7 390.442 11.98C390.749 12.2467 390.902 12.5867 390.902 13C390.902 13.44 390.749 13.8133 390.442 14.12C390.149 14.4133 389.769 14.56 389.302 14.56ZM393.824 12.16H396.324V27H393.824V12.16ZM409.645 21.72C409.645 21.8933 409.632 22.14 409.605 22.46H401.225C401.372 23.2467 401.752 23.8733 402.365 24.34C402.992 24.7933 403.765 25.02 404.685 25.02C405.858 25.02 406.825 24.6333 407.585 23.86L408.925 25.4C408.445 25.9733 407.838 26.4067 407.105 26.7C406.372 26.9933 405.545 27.14 404.625 27.14C403.452 27.14 402.418 26.9067 401.525 26.44C400.632 25.9733 399.938 25.3267 399.445 24.5C398.965 23.66 398.725 22.7133 398.725 21.66C398.725 20.62 398.958 19.6867 399.425 18.86C399.905 18.02 400.565 17.3667 401.405 16.9C402.245 16.4333 403.192 16.2 404.245 16.2C405.285 16.2 406.212 16.4333 407.025 16.9C407.852 17.3533 408.492 18 408.945 18.84C409.412 19.6667 409.645 20.6267 409.645 21.72ZM404.245 18.2C403.445 18.2 402.765 18.44 402.205 18.92C401.658 19.3867 401.325 20.0133 401.205 20.8H407.265C407.158 20.0267 406.832 19.4 406.285 18.92C405.738 18.44 405.058 18.2 404.245 18.2ZM415.346 27.14C414.48 27.14 413.633 27.0267 412.806 26.8C411.98 26.5733 411.32 26.2867 410.826 25.94L411.786 24.04C412.266 24.36 412.84 24.62 413.506 24.82C414.186 25.0067 414.853 25.1 415.506 25.1C417 25.1 417.746 24.7067 417.746 23.92C417.746 23.5467 417.553 23.2867 417.166 23.14C416.793 22.9933 416.186 22.8533 415.346 22.72C414.466 22.5867 413.746 22.4333 413.186 22.26C412.64 22.0867 412.16 21.7867 411.746 21.36C411.346 20.92 411.146 20.3133 411.146 19.54C411.146 18.5267 411.566 17.72 412.406 17.12C413.26 16.5067 414.406 16.2 415.846 16.2C416.58 16.2 417.313 16.2867 418.046 16.46C418.78 16.62 419.38 16.84 419.846 17.12L418.886 19.02C417.98 18.4867 416.96 18.22 415.826 18.22C415.093 18.22 414.533 18.3333 414.146 18.56C413.773 18.7733 413.586 19.06 413.586 19.42C413.586 19.82 413.786 20.1067 414.186 20.28C414.6 20.44 415.233 20.5933 416.086 20.74C416.94 20.8733 417.64 21.0267 418.186 21.2C418.733 21.3733 419.2 21.6667 419.586 22.08C419.986 22.4933 420.186 23.08 420.186 23.84C420.186 24.84 419.753 25.64 418.886 26.24C418.02 26.84 416.84 27.14 415.346 27.14Z" fill="#2F2F2F"/>
</svg>
