<svg width="640" height="226" viewBox="0 0 640 226" fill="none" xmlns="http://www.w3.org/2000/svg">
<g clip-path="url(#clip0_51_938)">
<path d="M33.7944 221.139L0 200.979L16.8972 196.43L33.7944 200.979V221.139Z" fill="#BFD638"/>
<path d="M16.8972 226L33.7944 221.139V200.979L16.8972 205.528V226Z" fill="#9FBC26"/>
<path d="M16.8972 226L0 221.139V200.979L16.8972 205.528V226Z" fill="#6A982D"/>
<path d="M1.21965 201.304L16.8972 205.528L33.7944 200.979V201.33L16.9861 205.775L16.8972 223.154L16.7574 205.736L1.21965 201.304Z" fill="#CFE54C"/>
</g>
<g clip-path="url(#clip1_51_938)">
<path d="M33.7944 199.313L0 179.153L16.8972 174.604L33.7944 179.153V199.313Z" fill="#BFD638"/>
<path d="M16.8972 204.174L33.7944 199.313V179.154L16.8972 183.703V204.174Z" fill="#9FBC26"/>
<path d="M16.8972 204.174L0 199.313V179.154L16.8972 183.703V204.174Z" fill="#6A982D"/>
<path d="M1.21965 179.479L16.8972 183.703L33.7944 179.154V179.505L16.9861 183.95L16.8972 201.328L16.7574 183.911L1.21965 179.479Z" fill="#CFE54C"/>
</g>
<g clip-path="url(#clip2_51_938)">
<path d="M33.7944 177.488L0 157.328L16.8972 152.779L33.7944 157.328V177.488Z" fill="#BFD638"/>
<path d="M16.8972 182.349L33.7944 177.488V157.328L16.8972 161.877V182.349Z" fill="#9FBC26"/>
<path d="M16.8972 182.349L0 177.488V157.328L16.8972 161.877V182.349Z" fill="#6A982D"/>
<path d="M1.21965 157.653L16.8972 161.877L33.7944 157.328V157.679L16.9861 162.124L16.8972 179.502L16.7574 162.085L1.21965 157.653Z" fill="#CFE54C"/>
</g>
<g clip-path="url(#clip3_51_938)">
<path d="M33.7944 155.662L0 135.503L16.8972 130.953L33.7944 135.503V155.662Z" fill="#BFD638"/>
<path d="M16.8972 160.524L33.7944 155.662V135.503L16.8972 140.052V160.524Z" fill="#9FBC26"/>
<path d="M16.8972 160.524L0 155.662V135.503L16.8972 140.052V160.524Z" fill="#6A982D"/>
<path d="M1.21965 135.828L16.8972 140.052L33.7944 135.503V135.854L16.9861 140.299L16.8972 157.677L16.7574 140.26L1.21965 135.828Z" fill="#CFE54C"/>
</g>
<g clip-path="url(#clip4_51_938)">
<path d="M33.7944 133.837L0 113.677L16.8972 109.128L33.7944 113.677V133.837Z" fill="#BFD638"/>
<path d="M16.8972 138.698L33.7944 133.837V113.677L16.8972 118.226V138.698Z" fill="#9FBC26"/>
<path d="M16.8972 138.698L0 133.837V113.677L16.8972 118.226V138.698Z" fill="#6A982D"/>
<path d="M1.21965 114.002L16.8972 118.226L33.7944 113.677V114.028L16.9861 118.473L16.8972 135.851L16.7574 118.434L1.21965 114.002Z" fill="#CFE54C"/>
</g>
<g clip-path="url(#clip5_51_938)">
<path d="M33.7944 112.011L0 91.8515L16.8972 87.3022L33.7944 91.8515V112.011Z" fill="#BFD638"/>
<path d="M16.8972 116.872L33.7944 112.011V91.8516L16.8972 96.4008V116.872Z" fill="#9FBC26"/>
<path d="M16.8972 116.872L0 112.011V91.8516L16.8972 96.4008V116.872Z" fill="#6A982D"/>
<path d="M1.21965 92.1765L16.8972 96.4008L33.7944 91.8516V92.2025L16.9861 96.6478L16.8972 114.026L16.7574 96.6088L1.21965 92.1765Z" fill="#CFE54C"/>
</g>
<g clip-path="url(#clip6_51_938)">
<path d="M33.7944 90.1855L0 70.0258L16.8972 65.4766L33.7944 70.0258V90.1855Z" fill="#BFD638"/>
<path d="M16.8972 95.0467L33.7944 90.1855V70.0259L16.8972 74.5751V95.0467Z" fill="#9FBC26"/>
<path d="M16.8972 95.0467L0 90.1855V70.0259L16.8972 74.5751V95.0467Z" fill="#6A982D"/>
<path d="M1.21965 70.3508L16.8972 74.5751L33.7944 70.0259V70.3768L16.9861 74.8221L16.8972 92.2002L16.7574 74.7831L1.21965 70.3508Z" fill="#CFE54C"/>
</g>
<g clip-path="url(#clip7_51_938)">
<path d="M33.7944 68.36L0 48.2004L16.8972 43.6511L33.7944 48.2004V68.36Z" fill="#BFD638"/>
<path d="M16.8972 73.2213L33.7944 68.3601V48.2004L16.8972 52.7497V73.2213Z" fill="#9FBC26"/>
<path d="M16.8972 73.2213L0 68.3601V48.2004L16.8972 52.7497V73.2213Z" fill="#6A982D"/>
<path d="M1.21965 48.5254L16.8972 52.7497L33.7944 48.2004V48.5514L16.9861 52.9966L16.8972 70.3748L16.7574 52.9576L1.21965 48.5254Z" fill="#CFE54C"/>
</g>
<g clip-path="url(#clip8_51_938)">
<path d="M33.7944 46.5343L0 26.3747L16.8972 21.8254L33.7944 26.3747V46.5343Z" fill="#BFD638"/>
<path d="M16.8972 51.3956L33.7944 46.5344V26.3748L16.8972 30.924V51.3956Z" fill="#9FBC26"/>
<path d="M16.8972 51.3956L0 46.5344V26.3748L16.8972 30.924V51.3956Z" fill="#6A982D"/>
<path d="M1.21965 26.6997L16.8972 30.924L33.7944 26.3748V26.7257L16.9861 31.171L16.8972 48.5491L16.7574 31.132L1.21965 26.6997Z" fill="#CFE54C"/>
</g>
<g clip-path="url(#clip9_51_938)">
<path d="M33.7944 24.7089L0 4.54925L16.8972 0L33.7944 4.54925V24.7089Z" fill="#BFD638"/>
<path d="M16.8972 29.5702L33.7944 24.709V4.54932L16.8972 9.09856V29.5702Z" fill="#9FBC26"/>
<path d="M16.8972 29.5702L0 24.709V4.54932L16.8972 9.09856V29.5702Z" fill="#6A982D"/>
<path d="M1.21965 4.87426L16.8972 9.09856L33.7944 4.54932V4.90026L16.9861 9.34552L16.8972 26.7236L16.7574 9.30653L1.21965 4.87426Z" fill="#CFE54C"/>
</g>
<g clip-path="url(#clip10_51_938)">
<path d="M84.7944 220.849L51 200.689L67.8972 196.14L84.7944 200.689V220.849Z" fill="#BFD638"/>
<path d="M67.8972 225.71L84.7944 220.849V200.689L67.8972 205.239V225.71Z" fill="#9FBC26"/>
<path d="M67.8972 225.71L51 220.849V200.689L67.8972 205.239V225.71Z" fill="#6A982D"/>
<path d="M52.2197 201.014L67.8972 205.239L84.7944 200.689V201.04L67.9861 205.486L67.8972 222.864L67.7574 205.447L52.2197 201.014Z" fill="#CFE54C"/>
</g>
<g clip-path="url(#clip11_51_938)">
<path d="M84.7944 171.279L51 151.12L67.8972 146.57L84.7944 151.12V171.279Z" fill="#BFD638"/>
<path d="M67.8972 176.14L84.7944 171.279V151.12L67.8972 155.669V176.14Z" fill="#9FBC26"/>
<path d="M67.8972 176.14L51 171.279V151.12L67.8972 155.669V176.14Z" fill="#6A982D"/>
<path d="M52.2197 151.445L67.8972 155.669L84.7944 151.12V151.471L67.9861 155.916L67.8972 173.294L67.7574 155.877L52.2197 151.445Z" fill="#CFE54C"/>
</g>
<g clip-path="url(#clip12_51_938)">
<path d="M84.7944 121.709L51 101.549L67.8972 97L84.7944 101.549V121.709Z" fill="#BFD638"/>
<path d="M67.8972 126.57L84.7944 121.709V101.549L67.8972 106.099V126.57Z" fill="#9FBC26"/>
<path d="M67.8972 126.57L51 121.709V101.549L67.8972 106.099V126.57Z" fill="#6A982D"/>
<path d="M52.2197 101.874L67.8972 106.099L84.7944 101.549V101.9L67.9861 106.346L67.8972 123.724L67.7574 106.307L52.2197 101.874Z" fill="#CFE54C"/>
</g>
<g clip-path="url(#clip13_51_938)">
<path d="M218.589 221.139L184.794 200.979L201.692 196.43L218.589 200.979V221.139Z" fill="#BFD638"/>
<path d="M201.692 226L218.589 221.139V200.979L201.692 205.528V226Z" fill="#9FBC26"/>
<path d="M201.692 226L184.794 221.139V200.979L201.692 205.528V226Z" fill="#6A982D"/>
<path d="M186.014 201.304L201.692 205.528L218.589 200.979V201.33L201.781 205.775L201.692 223.154L201.552 205.736L186.014 201.304Z" fill="#CFE54C"/>
</g>
<g clip-path="url(#clip14_51_938)">
<path d="M218.589 199.313L184.794 179.153L201.692 174.604L218.589 179.153V199.313Z" fill="#BFD638"/>
<path d="M201.692 204.174L218.589 199.313V179.154L201.692 183.703V204.174Z" fill="#9FBC26"/>
<path d="M201.692 204.174L184.794 199.313V179.154L201.692 183.703V204.174Z" fill="#6A982D"/>
<path d="M186.014 179.479L201.692 183.703L218.589 179.154V179.505L201.781 183.95L201.692 201.328L201.552 183.911L186.014 179.479Z" fill="#CFE54C"/>
</g>
<g clip-path="url(#clip15_51_938)">
<path d="M218.589 177.488L184.794 157.328L201.692 152.779L218.589 157.328V177.488Z" fill="#BFD638"/>
<path d="M201.692 182.349L218.589 177.488V157.328L201.692 161.877V182.349Z" fill="#9FBC26"/>
<path d="M201.692 182.349L184.794 177.488V157.328L201.692 161.877V182.349Z" fill="#6A982D"/>
<path d="M186.014 157.653L201.692 161.877L218.589 157.328V157.679L201.781 162.124L201.692 179.502L201.552 162.085L186.014 157.653Z" fill="#CFE54C"/>
</g>
<g clip-path="url(#clip16_51_938)">
<path d="M218.589 155.662L184.794 135.503L201.692 130.953L218.589 135.503V155.662Z" fill="#BFD638"/>
<path d="M201.692 160.524L218.589 155.662V135.503L201.692 140.052V160.524Z" fill="#9FBC26"/>
<path d="M201.692 160.524L184.794 155.662V135.503L201.692 140.052V160.524Z" fill="#6A982D"/>
<path d="M186.014 135.828L201.692 140.052L218.589 135.503V135.854L201.781 140.299L201.692 157.677L201.552 140.26L186.014 135.828Z" fill="#CFE54C"/>
</g>
<g clip-path="url(#clip17_51_938)">
<path d="M218.589 133.837L184.794 113.677L201.692 109.128L218.589 113.677V133.837Z" fill="#BFD638"/>
<path d="M201.692 138.698L218.589 133.837V113.677L201.692 118.226V138.698Z" fill="#9FBC26"/>
<path d="M201.692 138.698L184.794 133.837V113.677L201.692 118.226V138.698Z" fill="#6A982D"/>
<path d="M186.014 114.002L201.692 118.226L218.589 113.677V114.028L201.781 118.473L201.692 135.851L201.552 118.434L186.014 114.002Z" fill="#CFE54C"/>
</g>
<g clip-path="url(#clip18_51_938)">
<path d="M218.589 112.011L184.794 91.8515L201.692 87.3022L218.589 91.8515V112.011Z" fill="#BFD638"/>
<path d="M201.692 116.872L218.589 112.011V91.8516L201.692 96.4008V116.872Z" fill="#9FBC26"/>
<path d="M201.692 116.872L184.794 112.011V91.8516L201.692 96.4008V116.872Z" fill="#6A982D"/>
<path d="M186.014 92.1765L201.692 96.4008L218.589 91.8516V92.2025L201.781 96.6478L201.692 114.026L201.552 96.6088L186.014 92.1765Z" fill="#CFE54C"/>
</g>
<g clip-path="url(#clip19_51_938)">
<path d="M218.589 90.1855L184.794 70.0258L201.692 65.4766L218.589 70.0258V90.1855Z" fill="#BFD638"/>
<path d="M201.692 95.0467L218.589 90.1855V70.0259L201.692 74.5751V95.0467Z" fill="#9FBC26"/>
<path d="M201.692 95.0467L184.794 90.1855V70.0259L201.692 74.5751V95.0467Z" fill="#6A982D"/>
<path d="M186.014 70.3508L201.692 74.5751L218.589 70.0259V70.3768L201.781 74.8221L201.692 92.2002L201.552 74.7831L186.014 70.3508Z" fill="#CFE54C"/>
</g>
<g clip-path="url(#clip20_51_938)">
<path d="M218.589 68.36L184.794 48.2004L201.692 43.6511L218.589 48.2004V68.36Z" fill="#BFD638"/>
<path d="M201.692 73.2213L218.589 68.3601V48.2004L201.692 52.7497V73.2213Z" fill="#9FBC26"/>
<path d="M201.692 73.2213L184.794 68.3601V48.2004L201.692 52.7497V73.2213Z" fill="#6A982D"/>
<path d="M186.014 48.5254L201.692 52.7497L218.589 48.2004V48.5514L201.781 52.9966L201.692 70.3748L201.552 52.9576L186.014 48.5254Z" fill="#CFE54C"/>
</g>
<g clip-path="url(#clip21_51_938)">
<path d="M218.589 46.5343L184.794 26.3747L201.692 21.8254L218.589 26.3747V46.5343Z" fill="#BFD638"/>
<path d="M201.692 51.3956L218.589 46.5344V26.3748L201.692 30.924V51.3956Z" fill="#9FBC26"/>
<path d="M201.692 51.3956L184.794 46.5344V26.3748L201.692 30.924V51.3956Z" fill="#6A982D"/>
<path d="M186.014 26.6997L201.692 30.924L218.589 26.3748V26.7257L201.781 31.171L201.692 48.5491L201.552 31.132L186.014 26.6997Z" fill="#CFE54C"/>
</g>
<g clip-path="url(#clip22_51_938)">
<path d="M218.589 24.7089L184.794 4.54925L201.692 0L218.589 4.54925V24.7089Z" fill="#BFD638"/>
<path d="M201.692 29.5702L218.589 24.709V4.54932L201.692 9.09856V29.5702Z" fill="#9FBC26"/>
<path d="M201.692 29.5702L184.794 24.709V4.54932L201.692 9.09856V29.5702Z" fill="#6A982D"/>
<path d="M186.014 4.87426L201.692 9.09856L218.589 4.54932V4.90026L201.781 9.34552L201.692 26.7236L201.552 9.30653L186.014 4.87426Z" fill="#CFE54C"/>
</g>
<g clip-path="url(#clip23_51_938)">
<path d="M269.589 220.849L235.794 200.689L252.692 196.14L269.589 200.689V220.849Z" fill="#BFD638"/>
<path d="M252.692 225.71L269.589 220.849V200.689L252.692 205.239V225.71Z" fill="#9FBC26"/>
<path d="M252.692 225.71L235.794 220.849V200.689L252.692 205.239V225.71Z" fill="#6A982D"/>
<path d="M237.014 201.014L252.692 205.239L269.589 200.689V201.04L252.781 205.486L252.692 222.864L252.552 205.447L237.014 201.014Z" fill="#CFE54C"/>
</g>
<g clip-path="url(#clip24_51_938)">
<path d="M269.589 171.279L235.794 151.12L252.692 146.57L269.589 151.12V171.279Z" fill="#BFD638"/>
<path d="M252.692 176.14L269.589 171.279V151.12L252.692 155.669V176.14Z" fill="#9FBC26"/>
<path d="M252.692 176.14L235.794 171.279V151.12L252.692 155.669V176.14Z" fill="#6A982D"/>
<path d="M237.014 151.445L252.692 155.669L269.589 151.12V151.471L252.781 155.916L252.692 173.294L252.552 155.877L237.014 151.445Z" fill="#CFE54C"/>
</g>
<g clip-path="url(#clip25_51_938)">
<path d="M269.589 121.709L235.794 101.549L252.692 97L269.589 101.549V121.709Z" fill="#BFD638"/>
<path d="M252.692 126.57L269.589 121.709V101.549L252.692 106.099V126.57Z" fill="#9FBC26"/>
<path d="M252.692 126.57L235.794 121.709V101.549L252.692 106.099V126.57Z" fill="#6A982D"/>
<path d="M237.014 101.874L252.692 106.099L269.589 101.549V101.9L252.781 106.346L252.692 123.724L252.552 106.307L237.014 101.874Z" fill="#CFE54C"/>
</g>
<g clip-path="url(#clip26_51_938)">
<path d="M588.178 221.139L554.383 200.979L571.28 196.43L588.178 200.979V221.139Z" fill="#BFD638"/>
<path d="M571.28 226L588.178 221.139V200.979L571.28 205.528V226Z" fill="#9FBC26"/>
<path d="M571.28 226L554.383 221.139V200.979L571.28 205.528V226Z" fill="#6A982D"/>
<path d="M555.603 201.304L571.28 205.528L588.178 200.979V201.33L571.369 205.775L571.28 223.154L571.141 205.736L555.603 201.304Z" fill="#CFE54C"/>
</g>
<g clip-path="url(#clip27_51_938)">
<path d="M588.178 199.313L554.383 179.154L571.28 174.604L588.178 179.154V199.313Z" fill="#BFD638"/>
<path d="M571.28 204.175L588.178 199.313V179.154L571.28 183.703V204.175Z" fill="#9FBC26"/>
<path d="M571.28 204.175L554.383 199.313V179.154L571.28 183.703V204.175Z" fill="#6A982D"/>
<path d="M555.603 179.479L571.28 183.703L588.178 179.154V179.505L571.369 183.95L571.28 201.328L571.141 183.911L555.603 179.479Z" fill="#CFE54C"/>
</g>
<g clip-path="url(#clip28_51_938)">
<path d="M588.178 177.488L554.383 157.328L571.28 152.779L588.178 157.328V177.488Z" fill="#BFD638"/>
<path d="M571.28 182.349L588.178 177.488V157.328L571.28 161.877V182.349Z" fill="#9FBC26"/>
<path d="M571.28 182.349L554.383 177.488V157.328L571.28 161.877V182.349Z" fill="#6A982D"/>
<path d="M555.603 157.653L571.28 161.877L588.178 157.328V157.679L571.369 162.124L571.28 179.502L571.141 162.085L555.603 157.653Z" fill="#CFE54C"/>
</g>
<g clip-path="url(#clip29_51_938)">
<path d="M588.178 155.662L554.383 135.502L571.28 130.953L588.178 135.502V155.662Z" fill="#BFD638"/>
<path d="M571.28 160.523L588.178 155.662V135.502L571.28 140.052V160.523Z" fill="#9FBC26"/>
<path d="M571.28 160.523L554.383 155.662V135.502L571.28 140.052V160.523Z" fill="#6A982D"/>
<path d="M555.603 135.827L571.28 140.052L588.178 135.502V135.853L571.369 140.299L571.28 157.677L571.141 140.26L555.603 135.827Z" fill="#CFE54C"/>
</g>
<g clip-path="url(#clip30_51_938)">
<path d="M588.178 133.837L554.383 113.677L571.28 109.128L588.178 113.677V133.837Z" fill="#BFD638"/>
<path d="M571.28 138.698L588.178 133.837V113.677L571.28 118.226V138.698Z" fill="#9FBC26"/>
<path d="M571.28 138.698L554.383 133.837V113.677L571.28 118.226V138.698Z" fill="#6A982D"/>
<path d="M555.603 114.002L571.28 118.226L588.178 113.677V114.028L571.369 118.473L571.28 135.851L571.141 118.434L555.603 114.002Z" fill="#CFE54C"/>
</g>
<g clip-path="url(#clip31_51_938)">
<path d="M588.178 112.011L554.383 91.8515L571.28 87.3022L588.178 91.8515V112.011Z" fill="#BFD638"/>
<path d="M571.28 116.872L588.178 112.011V91.8516L571.28 96.4008V116.872Z" fill="#9FBC26"/>
<path d="M571.28 116.872L554.383 112.011V91.8516L571.28 96.4008V116.872Z" fill="#6A982D"/>
<path d="M555.603 92.1765L571.28 96.4008L588.178 91.8516V92.2025L571.369 96.6478L571.28 114.026L571.141 96.6088L555.603 92.1765Z" fill="#CFE54C"/>
</g>
<g clip-path="url(#clip32_51_938)">
<path d="M588.178 90.1855L554.383 70.0258L571.28 65.4766L588.178 70.0258V90.1855Z" fill="#BFD638"/>
<path d="M571.28 95.0467L588.178 90.1855V70.0259L571.28 74.5751V95.0467Z" fill="#9FBC26"/>
<path d="M571.28 95.0467L554.383 90.1855V70.0259L571.28 74.5751V95.0467Z" fill="#6A982D"/>
<path d="M555.603 70.3508L571.28 74.5751L588.178 70.0259V70.3768L571.369 74.8221L571.28 92.2002L571.141 74.7831L555.603 70.3508Z" fill="#CFE54C"/>
</g>
<g clip-path="url(#clip33_51_938)">
<path d="M588.178 68.36L554.383 48.2004L571.28 43.6511L588.178 48.2004V68.36Z" fill="#BFD638"/>
<path d="M571.28 73.2213L588.178 68.3601V48.2004L571.28 52.7497V73.2213Z" fill="#9FBC26"/>
<path d="M571.28 73.2213L554.383 68.3601V48.2004L571.28 52.7497V73.2213Z" fill="#6A982D"/>
<path d="M555.603 48.5254L571.28 52.7497L588.178 48.2004V48.5514L571.369 52.9966L571.28 70.3748L571.141 52.9576L555.603 48.5254Z" fill="#CFE54C"/>
</g>
<g clip-path="url(#clip34_51_938)">
<path d="M588.178 46.5346L554.383 26.3749L571.28 21.8257L588.178 26.3749V46.5346Z" fill="#BFD638"/>
<path d="M571.28 51.3958L588.178 46.5347V26.375L571.28 30.9242V51.3958Z" fill="#9FBC26"/>
<path d="M571.28 51.3958L554.383 46.5347V26.375L571.28 30.9242V51.3958Z" fill="#6A982D"/>
<path d="M555.603 26.6999L571.28 30.9242L588.178 26.375V26.7259L571.369 31.1712L571.28 48.5493L571.141 31.1322L555.603 26.6999Z" fill="#CFE54C"/>
</g>
<g clip-path="url(#clip35_51_938)">
<path d="M588.178 24.7089L554.383 4.54925L571.28 0L588.178 4.54925V24.7089Z" fill="#BFD638"/>
<path d="M571.28 29.5702L588.178 24.709V4.54932L571.28 9.09856V29.5702Z" fill="#9FBC26"/>
<path d="M571.28 29.5702L554.383 24.709V4.54932L571.28 9.09856V29.5702Z" fill="#6A982D"/>
<path d="M555.603 4.87426L571.28 9.09856L588.178 4.54932V4.90026L571.369 9.34552L571.28 26.7236L571.141 9.30653L555.603 4.87426Z" fill="#CFE54C"/>
</g>
<g clip-path="url(#clip36_51_938)">
<path d="M639.178 220.849L605.383 200.689L622.28 196.14L639.178 200.689V220.849Z" fill="#BFD638"/>
<path d="M622.28 225.71L639.178 220.849V200.689L622.28 205.239V225.71Z" fill="#9FBC26"/>
<path d="M622.28 225.71L605.383 220.849V200.689L622.28 205.239V225.71Z" fill="#6A982D"/>
<path d="M606.603 201.014L622.28 205.239L639.178 200.689V201.04L622.369 205.486L622.28 222.864L622.141 205.447L606.603 201.014Z" fill="#CFE54C"/>
</g>
<g clip-path="url(#clip37_51_938)">
<path d="M639.178 171.279L605.383 151.12L622.28 146.57L639.178 151.12V171.279Z" fill="#BFD638"/>
<path d="M622.28 176.14L639.178 171.279V151.12L622.28 155.669V176.14Z" fill="#9FBC26"/>
<path d="M622.28 176.14L605.383 171.279V151.12L622.28 155.669V176.14Z" fill="#6A982D"/>
<path d="M606.603 151.445L622.28 155.669L639.178 151.12V151.471L622.369 155.916L622.28 173.294L622.141 155.877L606.603 151.445Z" fill="#CFE54C"/>
</g>
<g clip-path="url(#clip38_51_938)">
<path d="M639.178 121.709L605.383 101.549L622.28 97L639.178 101.549V121.709Z" fill="#BFD638"/>
<path d="M622.28 126.57L639.178 121.709V101.549L622.28 106.099V126.57Z" fill="#9FBC26"/>
<path d="M622.28 126.57L605.383 121.709V101.549L622.28 106.099V126.57Z" fill="#6A982D"/>
<path d="M606.603 101.874L622.28 106.099L639.178 101.549V101.9L622.369 106.346L622.28 123.724L622.141 106.307L606.603 101.874Z" fill="#CFE54C"/>
</g>
<g clip-path="url(#clip39_51_938)">
<path d="M403.383 221.139L369.589 200.979L386.486 196.43L403.383 200.979V221.139Z" fill="#BFD638"/>
<path d="M386.486 226L403.383 221.139V200.979L386.486 205.528V226Z" fill="#9FBC26"/>
<path d="M386.486 226L369.589 221.139V200.979L386.486 205.528V226Z" fill="#6A982D"/>
<path d="M370.809 201.304L386.486 205.528L403.383 200.979V201.33L386.575 205.775L386.486 223.154L386.346 205.736L370.809 201.304Z" fill="#CFE54C"/>
</g>
<g clip-path="url(#clip40_51_938)">
<path d="M403.383 199.313L369.589 179.153L386.486 174.604L403.383 179.153V199.313Z" fill="#BFD638"/>
<path d="M386.486 204.174L403.383 199.313V179.154L386.486 183.703V204.174Z" fill="#9FBC26"/>
<path d="M386.486 204.174L369.589 199.313V179.154L386.486 183.703V204.174Z" fill="#6A982D"/>
<path d="M370.809 179.479L386.486 183.703L403.383 179.154V179.505L386.575 183.95L386.486 201.328L386.346 183.911L370.809 179.479Z" fill="#CFE54C"/>
</g>
<g clip-path="url(#clip41_51_938)">
<path d="M403.383 177.488L369.589 157.328L386.486 152.779L403.383 157.328V177.488Z" fill="#BFD638"/>
<path d="M386.486 182.349L403.383 177.488V157.328L386.486 161.877V182.349Z" fill="#9FBC26"/>
<path d="M386.486 182.349L369.589 177.488V157.328L386.486 161.877V182.349Z" fill="#6A982D"/>
<path d="M370.809 157.653L386.486 161.877L403.383 157.328V157.679L386.575 162.124L386.486 179.502L386.346 162.085L370.809 157.653Z" fill="#CFE54C"/>
</g>
<g clip-path="url(#clip42_51_938)">
<path d="M403.383 155.662L369.589 135.503L386.486 130.953L403.383 135.503V155.662Z" fill="#BFD638"/>
<path d="M386.486 160.524L403.383 155.662V135.503L386.486 140.052V160.524Z" fill="#9FBC26"/>
<path d="M386.486 160.524L369.589 155.662V135.503L386.486 140.052V160.524Z" fill="#6A982D"/>
<path d="M370.809 135.828L386.486 140.052L403.383 135.503V135.854L386.575 140.299L386.486 157.677L386.346 140.26L370.809 135.828Z" fill="#CFE54C"/>
</g>
<g clip-path="url(#clip43_51_938)">
<path d="M403.383 133.837L369.589 113.677L386.486 109.128L403.383 113.677V133.837Z" fill="#BFD638"/>
<path d="M386.486 138.698L403.383 133.837V113.677L386.486 118.226V138.698Z" fill="#9FBC26"/>
<path d="M386.486 138.698L369.589 133.837V113.677L386.486 118.226V138.698Z" fill="#6A982D"/>
<path d="M370.809 114.002L386.486 118.226L403.383 113.677V114.028L386.575 118.473L386.486 135.851L386.346 118.434L370.809 114.002Z" fill="#CFE54C"/>
</g>
<g clip-path="url(#clip44_51_938)">
<path d="M403.383 112.011L369.589 91.8515L386.486 87.3022L403.383 91.8515V112.011Z" fill="#BFD638"/>
<path d="M386.486 116.872L403.383 112.011V91.8516L386.486 96.4008V116.872Z" fill="#9FBC26"/>
<path d="M386.486 116.872L369.589 112.011V91.8516L386.486 96.4008V116.872Z" fill="#6A982D"/>
<path d="M370.809 92.1765L386.486 96.4008L403.383 91.8516V92.2025L386.575 96.6478L386.486 114.026L386.346 96.6088L370.809 92.1765Z" fill="#CFE54C"/>
</g>
<g clip-path="url(#clip45_51_938)">
<path d="M403.383 90.1855L369.589 70.0258L386.486 65.4766L403.383 70.0258V90.1855Z" fill="#BFD638"/>
<path d="M386.486 95.0467L403.383 90.1855V70.0259L386.486 74.5751V95.0467Z" fill="#9FBC26"/>
<path d="M386.486 95.0467L369.589 90.1855V70.0259L386.486 74.5751V95.0467Z" fill="#6A982D"/>
<path d="M370.809 70.3508L386.486 74.5751L403.383 70.0259V70.3768L386.575 74.8221L386.486 92.2002L386.346 74.7831L370.809 70.3508Z" fill="#CFE54C"/>
</g>
<g clip-path="url(#clip46_51_938)">
<path d="M403.383 68.36L369.589 48.2004L386.486 43.6511L403.383 48.2004V68.36Z" fill="#BFD638"/>
<path d="M386.486 73.2213L403.383 68.3601V48.2004L386.486 52.7497V73.2213Z" fill="#9FBC26"/>
<path d="M386.486 73.2213L369.589 68.3601V48.2004L386.486 52.7497V73.2213Z" fill="#6A982D"/>
<path d="M370.809 48.5254L386.486 52.7497L403.383 48.2004V48.5514L386.575 52.9966L386.486 70.3748L386.346 52.9576L370.809 48.5254Z" fill="#CFE54C"/>
</g>
<g clip-path="url(#clip47_51_938)">
<path d="M403.383 46.5343L369.589 26.3747L386.486 21.8254L403.383 26.3747V46.5343Z" fill="#BFD638"/>
<path d="M386.486 51.3956L403.383 46.5344V26.3748L386.486 30.924V51.3956Z" fill="#9FBC26"/>
<path d="M386.486 51.3956L369.589 46.5344V26.3748L386.486 30.924V51.3956Z" fill="#6A982D"/>
<path d="M370.809 26.6997L386.486 30.924L403.383 26.3748V26.7257L386.575 31.171L386.486 48.5491L386.346 31.132L370.809 26.6997Z" fill="#CFE54C"/>
</g>
<g clip-path="url(#clip48_51_938)">
<path d="M403.383 24.7089L369.589 4.54925L386.486 0L403.383 4.54925V24.7089Z" fill="#BFD638"/>
<path d="M386.486 29.5702L403.383 24.709V4.54932L386.486 9.09856V29.5702Z" fill="#9FBC26"/>
<path d="M386.486 29.5702L369.589 24.709V4.54932L386.486 9.09856V29.5702Z" fill="#6A982D"/>
<path d="M370.809 4.87426L386.486 9.09856L403.383 4.54932V4.90026L386.575 9.34552L386.486 26.7236L386.346 9.30653L370.809 4.87426Z" fill="#CFE54C"/>
</g>
<g clip-path="url(#clip49_51_938)">
<path d="M454.383 220.849L420.589 200.689L437.486 196.14L454.383 200.689V220.849Z" fill="#BFD638"/>
<path d="M437.486 225.71L454.383 220.849V200.689L437.486 205.239V225.71Z" fill="#9FBC26"/>
<path d="M437.486 225.71L420.589 220.849V200.689L437.486 205.239V225.71Z" fill="#6A982D"/>
<path d="M421.809 201.014L437.486 205.239L454.383 200.689V201.04L437.575 205.486L437.486 222.864L437.346 205.447L421.809 201.014Z" fill="#CFE54C"/>
</g>
<g clip-path="url(#clip50_51_938)">
<path d="M454.383 171.279L420.589 151.12L437.486 146.57L454.383 151.12V171.279Z" fill="#BFD638"/>
<path d="M437.486 176.14L454.383 171.279V151.12L437.486 155.669V176.14Z" fill="#9FBC26"/>
<path d="M437.486 176.14L420.589 171.279V151.12L437.486 155.669V176.14Z" fill="#6A982D"/>
<path d="M421.809 151.445L437.486 155.669L454.383 151.12V151.471L437.575 155.916L437.486 173.294L437.346 155.877L421.809 151.445Z" fill="#CFE54C"/>
</g>
<g clip-path="url(#clip51_51_938)">
<path d="M454.383 121.709L420.589 101.549L437.486 97L454.383 101.549V121.709Z" fill="#BFD638"/>
<path d="M437.486 126.57L454.383 121.709V101.549L437.486 106.099V126.57Z" fill="#9FBC26"/>
<path d="M437.486 126.57L420.589 121.709V101.549L437.486 106.099V126.57Z" fill="#6A982D"/>
<path d="M421.809 101.874L437.486 106.099L454.383 101.549V101.9L437.575 106.346L437.486 123.724L437.346 106.307L421.809 101.874Z" fill="#CFE54C"/>
</g>
<defs>
<clipPath id="clip0_51_938">
<rect width="33.7944" height="29.5701" fill="white" transform="translate(0 196.43)"/>
</clipPath>
<clipPath id="clip1_51_938">
<rect width="33.7944" height="29.5701" fill="white" transform="translate(0 174.604)"/>
</clipPath>
<clipPath id="clip2_51_938">
<rect width="33.7944" height="29.5701" fill="white" transform="translate(0 152.779)"/>
</clipPath>
<clipPath id="clip3_51_938">
<rect width="33.7944" height="29.5701" fill="white" transform="translate(0 130.953)"/>
</clipPath>
<clipPath id="clip4_51_938">
<rect width="33.7944" height="29.5701" fill="white" transform="translate(0 109.128)"/>
</clipPath>
<clipPath id="clip5_51_938">
<rect width="33.7944" height="29.5701" fill="white" transform="translate(0 87.3022)"/>
</clipPath>
<clipPath id="clip6_51_938">
<rect width="33.7944" height="29.5701" fill="white" transform="translate(0 65.4766)"/>
</clipPath>
<clipPath id="clip7_51_938">
<rect width="33.7944" height="29.5701" fill="white" transform="translate(0 43.6511)"/>
</clipPath>
<clipPath id="clip8_51_938">
<rect width="33.7944" height="29.5701" fill="white" transform="translate(0 21.8254)"/>
</clipPath>
<clipPath id="clip9_51_938">
<rect width="33.7944" height="29.5701" fill="white"/>
</clipPath>
<clipPath id="clip10_51_938">
<rect width="33.7944" height="29.5701" fill="white" transform="translate(51 196.14)"/>
</clipPath>
<clipPath id="clip11_51_938">
<rect width="33.7944" height="29.5701" fill="white" transform="translate(51 146.57)"/>
</clipPath>
<clipPath id="clip12_51_938">
<rect width="33.7944" height="29.5701" fill="white" transform="translate(51 97)"/>
</clipPath>
<clipPath id="clip13_51_938">
<rect width="33.7944" height="29.5701" fill="white" transform="translate(184.794 196.43)"/>
</clipPath>
<clipPath id="clip14_51_938">
<rect width="33.7944" height="29.5701" fill="white" transform="translate(184.794 174.604)"/>
</clipPath>
<clipPath id="clip15_51_938">
<rect width="33.7944" height="29.5701" fill="white" transform="translate(184.794 152.779)"/>
</clipPath>
<clipPath id="clip16_51_938">
<rect width="33.7944" height="29.5701" fill="white" transform="translate(184.794 130.953)"/>
</clipPath>
<clipPath id="clip17_51_938">
<rect width="33.7944" height="29.5701" fill="white" transform="translate(184.794 109.128)"/>
</clipPath>
<clipPath id="clip18_51_938">
<rect width="33.7944" height="29.5701" fill="white" transform="translate(184.794 87.3022)"/>
</clipPath>
<clipPath id="clip19_51_938">
<rect width="33.7944" height="29.5701" fill="white" transform="translate(184.794 65.4766)"/>
</clipPath>
<clipPath id="clip20_51_938">
<rect width="33.7944" height="29.5701" fill="white" transform="translate(184.794 43.6511)"/>
</clipPath>
<clipPath id="clip21_51_938">
<rect width="33.7944" height="29.5701" fill="white" transform="translate(184.794 21.8254)"/>
</clipPath>
<clipPath id="clip22_51_938">
<rect width="33.7944" height="29.5701" fill="white" transform="translate(184.794)"/>
</clipPath>
<clipPath id="clip23_51_938">
<rect width="33.7944" height="29.5701" fill="white" transform="translate(235.794 196.14)"/>
</clipPath>
<clipPath id="clip24_51_938">
<rect width="33.7944" height="29.5701" fill="white" transform="translate(235.794 146.57)"/>
</clipPath>
<clipPath id="clip25_51_938">
<rect width="33.7944" height="29.5701" fill="white" transform="translate(235.794 97)"/>
</clipPath>
<clipPath id="clip26_51_938">
<rect width="33.7944" height="29.5701" fill="white" transform="translate(554.383 196.43)"/>
</clipPath>
<clipPath id="clip27_51_938">
<rect width="33.7944" height="29.5701" fill="white" transform="translate(554.383 174.604)"/>
</clipPath>
<clipPath id="clip28_51_938">
<rect width="33.7944" height="29.5701" fill="white" transform="translate(554.383 152.779)"/>
</clipPath>
<clipPath id="clip29_51_938">
<rect width="33.7944" height="29.5701" fill="white" transform="translate(554.383 130.953)"/>
</clipPath>
<clipPath id="clip30_51_938">
<rect width="33.7944" height="29.5701" fill="white" transform="translate(554.383 109.128)"/>
</clipPath>
<clipPath id="clip31_51_938">
<rect width="33.7944" height="29.5701" fill="white" transform="translate(554.383 87.3022)"/>
</clipPath>
<clipPath id="clip32_51_938">
<rect width="33.7944" height="29.5701" fill="white" transform="translate(554.383 65.4766)"/>
</clipPath>
<clipPath id="clip33_51_938">
<rect width="33.7944" height="29.5701" fill="white" transform="translate(554.383 43.6511)"/>
</clipPath>
<clipPath id="clip34_51_938">
<rect width="33.7944" height="29.5701" fill="white" transform="translate(554.383 21.8257)"/>
</clipPath>
<clipPath id="clip35_51_938">
<rect width="33.7944" height="29.5701" fill="white" transform="translate(554.383)"/>
</clipPath>
<clipPath id="clip36_51_938">
<rect width="33.7944" height="29.5701" fill="white" transform="translate(605.383 196.14)"/>
</clipPath>
<clipPath id="clip37_51_938">
<rect width="33.7944" height="29.5701" fill="white" transform="translate(605.383 146.57)"/>
</clipPath>
<clipPath id="clip38_51_938">
<rect width="33.7944" height="29.5701" fill="white" transform="translate(605.383 97)"/>
</clipPath>
<clipPath id="clip39_51_938">
<rect width="33.7944" height="29.5701" fill="white" transform="translate(369.589 196.43)"/>
</clipPath>
<clipPath id="clip40_51_938">
<rect width="33.7944" height="29.5701" fill="white" transform="translate(369.589 174.604)"/>
</clipPath>
<clipPath id="clip41_51_938">
<rect width="33.7944" height="29.5701" fill="white" transform="translate(369.589 152.779)"/>
</clipPath>
<clipPath id="clip42_51_938">
<rect width="33.7944" height="29.5701" fill="white" transform="translate(369.589 130.953)"/>
</clipPath>
<clipPath id="clip43_51_938">
<rect width="33.7944" height="29.5701" fill="white" transform="translate(369.589 109.128)"/>
</clipPath>
<clipPath id="clip44_51_938">
<rect width="33.7944" height="29.5701" fill="white" transform="translate(369.589 87.3022)"/>
</clipPath>
<clipPath id="clip45_51_938">
<rect width="33.7944" height="29.5701" fill="white" transform="translate(369.589 65.4766)"/>
</clipPath>
<clipPath id="clip46_51_938">
<rect width="33.7944" height="29.5701" fill="white" transform="translate(369.589 43.6511)"/>
</clipPath>
<clipPath id="clip47_51_938">
<rect width="33.7944" height="29.5701" fill="white" transform="translate(369.589 21.8254)"/>
</clipPath>
<clipPath id="clip48_51_938">
<rect width="33.7944" height="29.5701" fill="white" transform="translate(369.589)"/>
</clipPath>
<clipPath id="clip49_51_938">
<rect width="33.7944" height="29.5701" fill="white" transform="translate(420.589 196.14)"/>
</clipPath>
<clipPath id="clip50_51_938">
<rect width="33.7944" height="29.5701" fill="white" transform="translate(420.589 146.57)"/>
</clipPath>
<clipPath id="clip51_51_938">
<rect width="33.7944" height="29.5701" fill="white" transform="translate(420.589 97)"/>
</clipPath>
</defs>
</svg>
