<svg width="231" height="71" viewBox="0 0 231 71" fill="none" xmlns="http://www.w3.org/2000/svg">
<path d="M5.00369 1.1347L36.1794 1.01865L36.1719 -0.981339L4.99624 -0.865285L5.00369 1.1347ZM40.1942 5.00373L40.2687 25.0036L42.2686 24.9961L42.1942 4.99628L40.1942 5.00373ZM36.2836 29.0185L5.10791 29.1345L5.11536 31.1345L36.291 31.0184L36.2836 29.0185ZM1.09306 25.1494L1.01861 5.14956L-0.98138 5.15701L-0.90693 25.1569L1.09306 25.1494ZM5.10791 29.1345C2.89879 29.1427 1.10128 27.3585 1.09306 25.1494L-0.90693 25.1569C-0.894594 28.4706 1.80167 31.1468 5.11536 31.1345L5.10791 29.1345ZM40.2687 25.0036C40.2769 27.2127 38.4927 29.0102 36.2836 29.0185L36.291 31.0184C39.6047 31.0061 42.281 28.3098 42.2686 24.9961L40.2687 25.0036ZM36.1794 1.01865C38.3885 1.01042 40.186 2.7946 40.1942 5.00373L42.1942 4.99628C42.1819 1.6826 39.4856 -0.993674 36.1719 -0.981339L36.1794 1.01865ZM4.99624 -0.865285C1.68256 -0.85295 -0.993716 1.84332 -0.98138 5.15701L1.01861 5.14956C1.01038 2.94044 2.79456 1.14292 5.00369 1.1347L4.99624 -0.865285Z" fill="#2F2F2F"/>
<line x1="7.64363" y1="34.6531" x2="33.6436" y2="34.6531" stroke="#2F2F2F" stroke-linecap="round"/>
<path d="M5.00369 41.2878L36.1794 41.1717L36.1719 39.1717L4.99624 39.2878L5.00369 41.2878ZM40.1942 45.1568L40.2687 65.1567L42.2686 65.1492L42.1942 45.1494L40.1942 45.1568ZM36.2836 69.1715L5.10791 69.2876L5.11536 71.2876L36.291 71.1715L36.2836 69.1715ZM1.09306 65.3025L1.01861 45.3026L-0.98138 45.3101L-0.90693 65.3099L1.09306 65.3025ZM5.10791 69.2876C2.89879 69.2958 1.10128 67.5116 1.09306 65.3025L-0.90693 65.3099C-0.894594 68.6236 1.80167 71.2999 5.11536 71.2876L5.10791 69.2876ZM40.2687 65.1567C40.2769 67.3658 38.4927 69.1633 36.2836 69.1715L36.291 71.1715C39.6047 71.1592 42.281 68.4629 42.2686 65.1492L40.2687 65.1567ZM36.1794 41.1717C38.3885 41.1635 40.186 42.9477 40.1942 45.1568L42.1942 45.1494C42.1819 41.8357 39.4856 39.1594 36.1719 39.1717L36.1794 41.1717ZM4.99624 39.2878C1.68256 39.3001 -0.993716 41.9964 -0.98138 45.3101L1.01861 45.3026C1.01038 43.0935 2.79456 41.296 5.00369 41.2878L4.99624 39.2878Z" fill="#2F2F2F"/>
<path d="M194.004 1.1347L225.179 1.01865L225.172 -0.981339L193.996 -0.865285L194.004 1.1347ZM229.194 5.00373L229.269 25.0036L231.269 24.9961L231.194 4.99628L229.194 5.00373ZM225.284 29.0185L194.108 29.1345L194.115 31.1345L225.291 31.0184L225.284 29.0185ZM190.093 25.1494L190.019 5.14956L188.019 5.15701L188.093 25.1569L190.093 25.1494ZM194.108 29.1345C191.899 29.1427 190.101 27.3585 190.093 25.1494L188.093 25.1569C188.105 28.4706 190.802 31.1468 194.115 31.1345L194.108 29.1345ZM229.269 25.0036C229.277 27.2127 227.493 29.0102 225.284 29.0185L225.291 31.0184C228.605 31.0061 231.281 28.3098 231.269 24.9961L229.269 25.0036ZM225.179 1.01865C227.388 1.01042 229.186 2.7946 229.194 5.00373L231.194 4.99628C231.182 1.6826 228.486 -0.993674 225.172 -0.981339L225.179 1.01865ZM193.996 -0.865285C190.683 -0.85295 188.006 1.84332 188.019 5.15701L190.019 5.14956C190.01 2.94044 191.795 1.14292 194.004 1.1347L193.996 -0.865285Z" fill="#2F2F2F"/>
<line x1="196.644" y1="34.6531" x2="222.644" y2="34.6531" stroke="#2F2F2F" stroke-linecap="round"/>
<path d="M194.004 41.2878L225.179 41.1717L225.172 39.1717L193.996 39.2878L194.004 41.2878ZM229.194 45.1568L229.269 65.1567L231.269 65.1492L231.194 45.1494L229.194 45.1568ZM225.284 69.1715L194.108 69.2876L194.115 71.2876L225.291 71.1715L225.284 69.1715ZM190.093 65.3025L190.019 45.3026L188.019 45.3101L188.093 65.3099L190.093 65.3025ZM194.108 69.2876C191.899 69.2958 190.101 67.5116 190.093 65.3025L188.093 65.3099C188.105 68.6236 190.802 71.2999 194.115 71.2876L194.108 69.2876ZM229.269 65.1567C229.277 67.3658 227.493 69.1633 225.284 69.1715L225.291 71.1715C228.605 71.1592 231.281 68.4629 231.269 65.1492L229.269 65.1567ZM225.179 41.1717C227.388 41.1635 229.186 42.9477 229.194 45.1568L231.194 45.1494C231.182 41.8357 228.486 39.1594 225.172 39.1717L225.179 41.1717ZM193.996 39.2878C190.683 39.3001 188.006 41.9964 188.019 45.3101L190.019 45.3026C190.01 43.0935 191.795 41.296 194.004 41.2878L193.996 39.2878Z" fill="#2F2F2F"/>
<path d="M88 30C88 27.2386 90.2386 25 93 25H137C139.761 25 142 27.2386 142 30V50C142 52.7614 139.761 55 137 55H93C90.2386 55 88 52.7614 88 50V30Z" fill="#F4F4F4"/>
<path d="M93 26H137V24H93V26ZM141 30V50H143V30H141ZM137 54H93V56H137V54ZM89 50V30H87V50H89ZM93 54C90.7909 54 89 52.2091 89 50H87C87 53.3137 89.6863 56 93 56V54ZM141 50C141 52.2091 139.209 54 137 54V56C140.314 56 143 53.3137 143 50H141ZM137 26C139.209 26 141 27.7909 141 30H143C143 26.6863 140.314 24 137 24V26ZM93 24C89.6863 24 87 26.6863 87 30H89C89 27.7909 90.7909 26 93 26V24Z" fill="#D0D0D0"/>
<path d="M22.776 15.394C23.496 15.67 24.048 16.066 24.432 16.582C24.816 17.098 25.008 17.716 25.008 18.436C25.008 19.192 24.804 19.852 24.396 20.416C23.988 20.968 23.406 21.394 22.65 21.694C21.894 21.994 21.006 22.144 19.986 22.144C18.978 22.144 18.096 21.994 17.34 21.694C16.596 21.394 16.02 20.968 15.612 20.416C15.204 19.852 15 19.192 15 18.436C15 17.716 15.186 17.098 15.558 16.582C15.942 16.066 16.494 15.67 17.214 15.394C16.638 15.118 16.2 14.752 15.9 14.296C15.6 13.84 15.45 13.3 15.45 12.676C15.45 11.98 15.636 11.374 16.008 10.858C16.392 10.342 16.926 9.946 17.61 9.67C18.294 9.394 19.086 9.256 19.986 9.256C20.898 9.256 21.696 9.394 22.38 9.67C23.076 9.946 23.61 10.342 23.982 10.858C24.366 11.374 24.558 11.98 24.558 12.676C24.558 13.288 24.402 13.828 24.09 14.296C23.79 14.752 23.352 15.118 22.776 15.394ZM19.986 10.714C19.134 10.714 18.462 10.9 17.97 11.272C17.478 11.632 17.232 12.124 17.232 12.748C17.232 13.372 17.472 13.864 17.952 14.224C18.444 14.584 19.122 14.764 19.986 14.764C20.862 14.764 21.546 14.584 22.038 14.224C22.542 13.864 22.794 13.372 22.794 12.748C22.794 12.124 22.536 11.632 22.02 11.272C21.516 10.9 20.838 10.714 19.986 10.714ZM19.986 20.686C20.982 20.686 21.768 20.482 22.344 20.074C22.92 19.654 23.208 19.09 23.208 18.382C23.208 17.686 22.92 17.14 22.344 16.744C21.768 16.336 20.982 16.132 19.986 16.132C18.99 16.132 18.21 16.336 17.646 16.744C17.082 17.14 16.8 17.686 16.8 18.382C16.8 19.09 17.082 19.654 17.646 20.074C18.21 20.482 18.99 20.686 19.986 20.686Z" fill="#2F2F2F"/>
<path d="M17.771 48.4V61H15.989V49.966H13.145V48.4H17.771ZM29.3831 59.434V61H20.3291V59.776L25.4591 54.826C26.0831 54.226 26.5031 53.71 26.7191 53.278C26.9351 52.834 27.0431 52.39 27.0431 51.946C27.0431 51.286 26.8091 50.776 26.3411 50.416C25.8851 50.044 25.2251 49.858 24.3611 49.858C22.9691 49.858 21.8951 50.314 21.1391 51.226L19.9151 50.164C20.4071 49.564 21.0491 49.096 21.8411 48.76C22.6451 48.424 23.5391 48.256 24.5231 48.256C25.8431 48.256 26.8931 48.574 27.6731 49.21C28.4531 49.834 28.8431 50.686 28.8431 51.766C28.8431 52.438 28.6991 53.074 28.4111 53.674C28.1231 54.274 27.5771 54.958 26.7731 55.726L22.9211 59.434H29.3831Z" fill="#2F2F2F"/>
<path d="M210.038 14.692C211.274 14.812 212.216 15.196 212.864 15.844C213.512 16.48 213.836 17.296 213.836 18.292C213.836 19.012 213.656 19.666 213.296 20.254C212.936 20.83 212.396 21.292 211.676 21.64C210.968 21.976 210.098 22.144 209.066 22.144C208.166 22.144 207.302 22.012 206.474 21.748C205.646 21.472 204.968 21.094 204.44 20.614L205.268 19.192C205.7 19.6 206.252 19.93 206.924 20.182C207.596 20.422 208.31 20.542 209.066 20.542C210.002 20.542 210.728 20.344 211.244 19.948C211.772 19.552 212.036 19.006 212.036 18.31C212.036 17.614 211.778 17.074 211.262 16.69C210.746 16.306 209.966 16.114 208.922 16.114H207.914V14.854L211.082 10.966H205.016V9.4H213.332V10.624L210.038 14.692Z" fill="#2F2F2F"/>
<path d="M215.305 57.904H212.911V61H211.165V57.904H204.163V56.644L210.607 48.4H212.551L206.377 56.356H211.219V53.62H212.911V56.356H215.305V57.904Z" fill="#2F2F2F"/>
<path d="M88 30C88 27.2386 90.2386 25 93 25H137C139.761 25 142 27.2386 142 30V50C142 52.7614 139.761 55 137 55H93C90.2386 55 88 52.7614 88 50V30Z" fill="#369CB7"/>
<path d="M121.932 36.63L111.582 40.5L121.932 44.37V47.49L108.102 42.12V38.88L121.932 33.51V36.63Z" fill="white"/>
<path d="M93 26H137V24H93V26ZM141 30V50H143V30H141ZM137 54H93V56H137V54ZM89 50V30H87V50H89ZM93 54C90.7909 54 89 52.2091 89 50H87C87 53.3137 89.6863 56 93 56V54ZM141 50C141 52.2091 139.209 54 137 54V56C140.314 56 143 53.3137 143 50H141ZM137 26C139.209 26 141 27.7909 141 30H143C143 26.6863 140.314 24 137 24V26ZM93 24C89.6863 24 87 26.6863 87 30H89C89 27.7909 90.7909 26 93 26V24Z" fill="#369CB7"/>
</svg>
