<svg width="412" height="45" viewBox="0 0 412 45" fill="none" xmlns="http://www.w3.org/2000/svg">
<path d="M5.148 15.9V28.5H2.808V17.862H0.144V15.9H5.148ZM9.06947 25.638C9.48947 25.638 9.83747 25.776 10.1135 26.052C10.3895 26.328 10.5275 26.688 10.5275 27.132C10.5275 27.324 10.4975 27.528 10.4375 27.744C10.3895 27.948 10.2815 28.26 10.1135 28.68L9.19547 31.218H7.73747L8.45747 28.464C8.19347 28.356 7.98347 28.188 7.82747 27.96C7.68347 27.72 7.61147 27.444 7.61147 27.132C7.61147 26.688 7.74947 26.328 8.02547 26.052C8.30147 25.776 8.64947 25.638 9.06947 25.638Z" fill="#2F2F2F"/>
<path d="M56.918 26.52V28.5H47.63V26.934L52.634 22.182C53.198 21.642 53.576 21.174 53.768 20.778C53.972 20.37 54.074 19.968 54.074 19.572C54.074 18.984 53.876 18.534 53.48 18.222C53.084 17.91 52.502 17.754 51.734 17.754C50.45 17.754 49.466 18.192 48.782 19.068L47.144 17.808C47.636 17.148 48.296 16.638 49.124 16.278C49.964 15.906 50.9 15.72 51.932 15.72C53.3 15.72 54.392 16.044 55.208 16.692C56.024 17.34 56.432 18.222 56.432 19.338C56.432 20.022 56.288 20.664 56 21.264C55.712 21.864 55.16 22.548 54.344 23.316L50.978 26.52H56.918ZM59.8663 25.638C60.2863 25.638 60.6343 25.776 60.9103 26.052C61.1863 26.328 61.3243 26.688 61.3243 27.132C61.3243 27.324 61.2943 27.528 61.2343 27.744C61.1863 27.948 61.0783 28.26 60.9103 28.68L59.9923 31.218H58.5343L59.2543 28.464C58.9903 28.356 58.7803 28.188 58.6243 27.96C58.4803 27.72 58.4083 27.444 58.4083 27.132C58.4083 26.688 58.5463 26.328 58.8223 26.052C59.0983 25.776 59.4463 25.638 59.8663 25.638Z" fill="#2F2F2F"/>
<path d="M110.024 25.638H107.792V28.5H105.524V25.638H98.612V24.018L104.822 15.9H107.324L101.474 23.658H105.596V21.12H107.792V23.658H110.024V25.638ZM112.782 25.638C113.202 25.638 113.55 25.776 113.826 26.052C114.102 26.328 114.24 26.688 114.24 27.132C114.24 27.324 114.21 27.528 114.15 27.744C114.102 27.948 113.994 28.26 113.826 28.68L112.908 31.218H111.45L112.17 28.464C111.906 28.356 111.696 28.188 111.54 27.96C111.396 27.72 111.324 27.444 111.324 27.132C111.324 26.688 111.462 26.328 111.738 26.052C112.014 25.776 112.362 25.638 112.782 25.638Z" fill="#2F2F2F"/>
<path d="M158.964 21.876C159.624 22.176 160.128 22.584 160.476 23.1C160.836 23.604 161.016 24.198 161.016 24.882C161.016 25.65 160.8 26.322 160.368 26.898C159.948 27.474 159.348 27.918 158.568 28.23C157.788 28.53 156.882 28.68 155.85 28.68C154.818 28.68 153.912 28.53 153.132 28.23C152.364 27.918 151.77 27.474 151.35 26.898C150.93 26.322 150.72 25.65 150.72 24.882C150.72 24.198 150.894 23.604 151.242 23.1C151.59 22.584 152.088 22.176 152.736 21.876C152.232 21.6 151.842 21.24 151.566 20.796C151.302 20.34 151.17 19.818 151.17 19.23C151.17 18.522 151.362 17.904 151.746 17.376C152.142 16.848 152.694 16.44 153.402 16.152C154.11 15.864 154.926 15.72 155.85 15.72C156.786 15.72 157.608 15.864 158.316 16.152C159.024 16.44 159.576 16.848 159.972 17.376C160.368 17.904 160.566 18.522 160.566 19.23C160.566 19.818 160.428 20.334 160.152 20.778C159.876 21.222 159.48 21.588 158.964 21.876ZM155.85 17.556C155.118 17.556 154.536 17.712 154.104 18.024C153.684 18.336 153.474 18.774 153.474 19.338C153.474 19.878 153.684 20.31 154.104 20.634C154.536 20.946 155.118 21.102 155.85 21.102C156.594 21.102 157.182 20.946 157.614 20.634C158.046 20.31 158.262 19.878 158.262 19.338C158.262 18.774 158.04 18.336 157.596 18.024C157.164 17.712 156.582 17.556 155.85 17.556ZM155.85 26.844C156.714 26.844 157.398 26.664 157.902 26.304C158.406 25.944 158.658 25.446 158.658 24.81C158.658 24.186 158.406 23.694 157.902 23.334C157.398 22.974 156.714 22.794 155.85 22.794C154.986 22.794 154.308 22.974 153.816 23.334C153.324 23.694 153.078 24.186 153.078 24.81C153.078 25.446 153.324 25.944 153.816 26.304C154.308 26.664 154.986 26.844 155.85 26.844ZM164.132 25.638C164.552 25.638 164.9 25.776 165.176 26.052C165.452 26.328 165.59 26.688 165.59 27.132C165.59 27.324 165.56 27.528 165.5 27.744C165.452 27.948 165.344 28.26 165.176 28.68L164.258 31.218H162.8L163.52 28.464C163.256 28.356 163.046 28.188 162.89 27.96C162.746 27.72 162.674 27.444 162.674 27.132C162.674 26.688 162.812 26.328 163.088 26.052C163.364 25.776 163.712 25.638 164.132 25.638Z" fill="#2F2F2F"/>
<path d="M202 5C202 2.23858 204.239 0 207 0H287C289.761 0 292 2.23858 292 5V40C292 42.7614 289.761 45 287 45H207C204.239 45 202 42.7614 202 40V5Z" fill="#369CB7" fill-opacity="0.3"/>
<path d="M207 1H287V-1H207V1ZM291 5V40H293V5H291ZM287 44H207V46H287V44ZM203 40V5H201V40H203ZM207 44C204.791 44 203 42.2091 203 40H201C201 43.3137 203.686 46 207 46V44ZM291 40C291 42.2091 289.209 44 287 44V46C290.314 46 293 43.3137 293 40H291ZM287 1C289.209 1 291 2.79086 291 5H293C293 1.68629 290.314 -1 287 -1V1ZM207 -1C203.686 -1 201 1.68629 201 5H203C203 2.79086 204.791 1 207 1V-1Z" fill="#369CB7"/>
<path d="M333.156 21.102C334.32 21.246 335.208 21.642 335.82 22.29C336.432 22.938 336.738 23.748 336.738 24.72C336.738 25.452 336.552 26.118 336.18 26.718C335.808 27.318 335.244 27.798 334.488 28.158C333.744 28.506 332.832 28.68 331.752 28.68C330.852 28.68 329.982 28.554 329.142 28.302C328.314 28.038 327.606 27.678 327.018 27.222L328.026 25.404C328.482 25.788 329.034 26.094 329.682 26.322C330.342 26.538 331.02 26.646 331.716 26.646C332.544 26.646 333.192 26.478 333.66 26.142C334.14 25.794 334.38 25.326 334.38 24.738C334.38 24.15 334.152 23.694 333.696 23.37C333.252 23.034 332.568 22.866 331.644 22.866H330.492V21.264L333.354 17.862H327.63V15.9H336.216V17.466L333.156 21.102ZM347.307 26.52V28.5H338.019V26.934L343.023 22.182C343.587 21.642 343.965 21.174 344.157 20.778C344.361 20.37 344.463 19.968 344.463 19.572C344.463 18.984 344.265 18.534 343.869 18.222C343.473 17.91 342.891 17.754 342.123 17.754C340.839 17.754 339.855 18.192 339.171 19.068L337.533 17.808C338.025 17.148 338.685 16.638 339.513 16.278C340.353 15.906 341.289 15.72 342.321 15.72C343.689 15.72 344.781 16.044 345.597 16.692C346.413 17.34 346.821 18.222 346.821 19.338C346.821 20.022 346.677 20.664 346.389 21.264C346.101 21.864 345.549 22.548 344.733 23.316L341.367 26.52H347.307ZM350.255 25.638C350.675 25.638 351.023 25.776 351.299 26.052C351.575 26.328 351.713 26.688 351.713 27.132C351.713 27.324 351.683 27.528 351.623 27.744C351.575 27.948 351.467 28.26 351.299 28.68L350.381 31.218H348.923L349.643 28.464C349.379 28.356 349.169 28.188 349.013 27.96C348.869 27.72 348.797 27.444 348.797 27.132C348.797 26.688 348.935 26.328 349.211 26.052C349.487 25.776 349.835 25.638 350.255 25.638Z" fill="#2F2F2F"/>
<path d="M394.516 20.724C395.344 20.724 396.088 20.886 396.748 21.21C397.408 21.522 397.924 21.972 398.296 22.56C398.668 23.148 398.854 23.826 398.854 24.594C398.854 25.41 398.65 26.13 398.242 26.754C397.834 27.366 397.282 27.84 396.586 28.176C395.89 28.512 395.11 28.68 394.246 28.68C392.518 28.68 391.174 28.14 390.214 27.06C389.266 25.98 388.792 24.432 388.792 22.416C388.792 21 389.05 19.794 389.566 18.798C390.082 17.79 390.802 17.028 391.726 16.512C392.662 15.984 393.742 15.72 394.966 15.72C395.614 15.72 396.22 15.792 396.784 15.936C397.36 16.068 397.858 16.266 398.278 16.53L397.414 18.294C396.79 17.886 395.992 17.682 395.02 17.682C393.808 17.682 392.86 18.054 392.176 18.798C391.492 19.542 391.15 20.616 391.15 22.02V22.038C391.522 21.606 391.996 21.282 392.572 21.066C393.148 20.838 393.796 20.724 394.516 20.724ZM394.12 26.844C394.852 26.844 395.446 26.652 395.902 26.268C396.358 25.872 396.586 25.35 396.586 24.702C396.586 24.042 396.358 23.52 395.902 23.136C395.446 22.752 394.834 22.56 394.066 22.56C393.31 22.56 392.692 22.764 392.212 23.172C391.744 23.58 391.51 24.096 391.51 24.72C391.51 25.332 391.738 25.842 392.194 26.25C392.662 26.646 393.304 26.844 394.12 26.844ZM411.309 25.638H409.077V28.5H406.809V25.638H399.897V24.018L406.107 15.9H408.609L402.759 23.658H406.881V21.12H409.077V23.658H411.309V25.638Z" fill="#2F2F2F"/>
<path d="M202 5C202 2.23858 204.239 0 207 0H287C289.761 0 292 2.23858 292 5V40C292 42.7614 289.761 45 287 45H207C204.239 45 202 42.7614 202 40V5Z" fill="#369CB7"/>
<path d="M242.884 15.9V28.5H241.102V17.466H238.258V15.9H242.884ZM251.076 20.85C251.904 20.85 252.642 21.006 253.29 21.318C253.95 21.63 254.466 22.08 254.838 22.668C255.21 23.244 255.396 23.91 255.396 24.666C255.396 25.458 255.198 26.154 254.802 26.754C254.418 27.354 253.884 27.822 253.2 28.158C252.528 28.482 251.772 28.644 250.932 28.644C249.24 28.644 247.932 28.098 247.008 27.006C246.096 25.914 245.64 24.366 245.64 22.362C245.64 20.958 245.886 19.764 246.378 18.78C246.882 17.784 247.578 17.034 248.466 16.53C249.366 16.014 250.41 15.756 251.598 15.756C252.21 15.756 252.786 15.822 253.326 15.954C253.866 16.074 254.334 16.254 254.73 16.494L254.046 17.898C253.446 17.502 252.642 17.304 251.634 17.304C250.326 17.304 249.3 17.712 248.556 18.528C247.812 19.332 247.44 20.508 247.44 22.056C247.44 22.248 247.446 22.398 247.458 22.506C247.818 21.966 248.31 21.558 248.934 21.282C249.57 20.994 250.284 20.85 251.076 20.85ZM250.86 27.186C251.688 27.186 252.36 26.964 252.876 26.52C253.392 26.076 253.65 25.482 253.65 24.738C253.65 23.994 253.386 23.406 252.858 22.974C252.342 22.53 251.646 22.308 250.77 22.308C250.206 22.308 249.702 22.416 249.258 22.632C248.826 22.848 248.484 23.142 248.232 23.514C247.992 23.886 247.872 24.3 247.872 24.756C247.872 25.2 247.986 25.608 248.214 25.98C248.454 26.34 248.796 26.634 249.24 26.862C249.696 27.078 250.236 27.186 250.86 27.186Z" fill="white"/>
<path d="M207 1H287V-1H207V1ZM291 5V40H293V5H291ZM287 44H207V46H287V44ZM203 40V5H201V40H203ZM207 44C204.791 44 203 42.2091 203 40H201C201 43.3137 203.686 46 207 46V44ZM291 40C291 42.2091 289.209 44 287 44V46C290.314 46 293 43.3137 293 40H291ZM287 1C289.209 1 291 2.79086 291 5H293C293 1.68629 290.314 -1 287 -1V1ZM207 -1C203.686 -1 201 1.68629 201 5H203C203 2.79086 204.791 1 207 1V-1Z" fill="#369CB7"/>
</svg>
