<svg width="314" height="125" viewBox="0 0 314 125" fill="none" xmlns="http://www.w3.org/2000/svg">
<rect x="59.6445" y="103.593" width="59.8575" height="20.9072" fill="white" stroke="#2F2F2F"/>
<rect x="59.6445" y="82.9746" width="59.8575" height="20.9072" fill="white" stroke="#2F2F2F"/>
<rect x="59.6445" y="62.3555" width="59.8575" height="20.9072" fill="#C6FFAB" stroke="#2F2F2F"/>
<rect x="59.6445" y="41.7373" width="59.8575" height="20.9072" fill="#C6FFAB" stroke="#2F2F2F"/>
<rect x="59.6445" y="21.1182" width="59.8575" height="20.9072" fill="#C6FFAB" stroke="#2F2F2F"/>
<rect x="59.6445" y="0.5" width="59.8575" height="20.9072" fill="#C6FFAB" stroke="#2F2F2F"/>
<rect x="0.5" y="103.593" width="59.8575" height="20.9072" fill="white" stroke="#2F2F2F"/>
<rect x="0.5" y="82.9746" width="59.8575" height="20.9072" fill="white" stroke="#2F2F2F"/>
<rect x="0.5" y="62.3555" width="59.8575" height="20.9072" fill="#C6FFAB" stroke="#2F2F2F"/>
<rect x="0.5" y="41.7373" width="59.8575" height="20.9072" fill="#C6FFAB" stroke="#2F2F2F"/>
<rect x="0.5" y="21.1182" width="59.8575" height="20.9072" fill="#C6FFAB" stroke="#2F2F2F"/>
<rect x="0.5" y="0.5" width="59.8575" height="20.9072" fill="#C6FFAB" stroke="#2F2F2F"/>
<rect x="194.5" y="93.2832" width="119" height="31.2165" fill="#ABE9FF" stroke="#2F2F2F"/>
<rect x="194.5" y="62.3555" width="119" height="31.2165" fill="#ABE9FF" stroke="#2F2F2F"/>
<rect x="194.5" y="31.4277" width="119" height="31.2165" fill="#ABE9FF" stroke="#2F2F2F"/>
<rect x="194.5" y="0.5" width="119" height="31.2165" fill="white" stroke="#2F2F2F"/>
</svg>
