<svg width="167" height="23" viewBox="0 0 167 23" fill="none" xmlns="http://www.w3.org/2000/svg">
<path d="M5.148 4.9V17.5H2.808V6.862H0.144V4.9H5.148ZM9.06947 14.638C9.48947 14.638 9.83747 14.776 10.1135 15.052C10.3895 15.328 10.5275 15.688 10.5275 16.132C10.5275 16.324 10.4975 16.528 10.4375 16.744C10.3895 16.948 10.2815 17.26 10.1135 17.68L9.19547 20.218H7.73747L8.45747 17.464C8.19347 17.356 7.98347 17.188 7.82747 16.96C7.68347 16.72 7.61147 16.444 7.61147 16.132C7.61147 15.688 7.74947 15.328 8.02547 15.052C8.30147 14.776 8.64947 14.638 9.06947 14.638Z" fill="#2F2F2F"/>
<path d="M56.918 15.52V17.5H47.63V15.934L52.634 11.182C53.198 10.642 53.576 10.174 53.768 9.778C53.972 9.37 54.074 8.968 54.074 8.572C54.074 7.984 53.876 7.534 53.48 7.222C53.084 6.91 52.502 6.754 51.734 6.754C50.45 6.754 49.466 7.192 48.782 8.068L47.144 6.808C47.636 6.148 48.296 5.638 49.124 5.278C49.964 4.906 50.9 4.72 51.932 4.72C53.3 4.72 54.392 5.044 55.208 5.692C56.024 6.34 56.432 7.222 56.432 8.338C56.432 9.022 56.288 9.664 56 10.264C55.712 10.864 55.16 11.548 54.344 12.316L50.978 15.52H56.918ZM59.8663 14.638C60.2863 14.638 60.6343 14.776 60.9103 15.052C61.1863 15.328 61.3243 15.688 61.3243 16.132C61.3243 16.324 61.2943 16.528 61.2343 16.744C61.1863 16.948 61.0783 17.26 60.9103 17.68L59.9923 20.218H58.5343L59.2543 17.464C58.9903 17.356 58.7803 17.188 58.6243 16.96C58.4803 16.72 58.4083 16.444 58.4083 16.132C58.4083 15.688 58.5463 15.328 58.8223 15.052C59.0983 14.776 59.4463 14.638 59.8663 14.638Z" fill="#2F2F2F"/>
<path d="M110.024 14.638H107.792V17.5H105.524V14.638H98.612V13.018L104.822 4.9H107.324L101.474 12.658H105.596V10.12H107.792V12.658H110.024V14.638ZM112.782 14.638C113.202 14.638 113.55 14.776 113.826 15.052C114.102 15.328 114.24 15.688 114.24 16.132C114.24 16.324 114.21 16.528 114.15 16.744C114.102 16.948 113.994 17.26 113.826 17.68L112.908 20.218H111.45L112.17 17.464C111.906 17.356 111.696 17.188 111.54 16.96C111.396 16.72 111.324 16.444 111.324 16.132C111.324 15.688 111.462 15.328 111.738 15.052C112.014 14.776 112.362 14.638 112.782 14.638Z" fill="#2F2F2F"/>
<path d="M158.964 10.876C159.624 11.176 160.128 11.584 160.476 12.1C160.836 12.604 161.016 13.198 161.016 13.882C161.016 14.65 160.8 15.322 160.368 15.898C159.948 16.474 159.348 16.918 158.568 17.23C157.788 17.53 156.882 17.68 155.85 17.68C154.818 17.68 153.912 17.53 153.132 17.23C152.364 16.918 151.77 16.474 151.35 15.898C150.93 15.322 150.72 14.65 150.72 13.882C150.72 13.198 150.894 12.604 151.242 12.1C151.59 11.584 152.088 11.176 152.736 10.876C152.232 10.6 151.842 10.24 151.566 9.796C151.302 9.34 151.17 8.818 151.17 8.23C151.17 7.522 151.362 6.904 151.746 6.376C152.142 5.848 152.694 5.44 153.402 5.152C154.11 4.864 154.926 4.72 155.85 4.72C156.786 4.72 157.608 4.864 158.316 5.152C159.024 5.44 159.576 5.848 159.972 6.376C160.368 6.904 160.566 7.522 160.566 8.23C160.566 8.818 160.428 9.334 160.152 9.778C159.876 10.222 159.48 10.588 158.964 10.876ZM155.85 6.556C155.118 6.556 154.536 6.712 154.104 7.024C153.684 7.336 153.474 7.774 153.474 8.338C153.474 8.878 153.684 9.31 154.104 9.634C154.536 9.946 155.118 10.102 155.85 10.102C156.594 10.102 157.182 9.946 157.614 9.634C158.046 9.31 158.262 8.878 158.262 8.338C158.262 7.774 158.04 7.336 157.596 7.024C157.164 6.712 156.582 6.556 155.85 6.556ZM155.85 15.844C156.714 15.844 157.398 15.664 157.902 15.304C158.406 14.944 158.658 14.446 158.658 13.81C158.658 13.186 158.406 12.694 157.902 12.334C157.398 11.974 156.714 11.794 155.85 11.794C154.986 11.794 154.308 11.974 153.816 12.334C153.324 12.694 153.078 13.186 153.078 13.81C153.078 14.446 153.324 14.944 153.816 15.304C154.308 15.664 154.986 15.844 155.85 15.844ZM164.132 14.638C164.552 14.638 164.9 14.776 165.176 15.052C165.452 15.328 165.59 15.688 165.59 16.132C165.59 16.324 165.56 16.528 165.5 16.744C165.452 16.948 165.344 17.26 165.176 17.68L164.258 20.218H162.8L163.52 17.464C163.256 17.356 163.046 17.188 162.89 16.96C162.746 16.72 162.674 16.444 162.674 16.132C162.674 15.688 162.812 15.328 163.088 15.052C163.364 14.776 163.712 14.638 164.132 14.638Z" fill="#2F2F2F"/>
</svg>
