<svg width="85" height="23" viewBox="0 0 85 23" fill="none" xmlns="http://www.w3.org/2000/svg">
<path d="M6.156 10.102C7.32 10.246 8.208 10.642 8.82 11.29C9.432 11.938 9.738 12.748 9.738 13.72C9.738 14.452 9.552 15.118 9.18 15.718C8.808 16.318 8.244 16.798 7.488 17.158C6.744 17.506 5.832 17.68 4.752 17.68C3.852 17.68 2.982 17.554 2.142 17.302C1.314 17.038 0.606 16.678 0.018 16.222L1.026 14.404C1.482 14.788 2.034 15.094 2.682 15.322C3.342 15.538 4.02 15.646 4.716 15.646C5.544 15.646 6.192 15.478 6.66 15.142C7.14 14.794 7.38 14.326 7.38 13.738C7.38 13.15 7.152 12.694 6.696 12.37C6.252 12.034 5.568 11.866 4.644 11.866H3.492V10.264L6.354 6.862H0.63V4.9H9.216V6.466L6.156 10.102ZM20.3067 15.52V17.5H11.0187V15.934L16.0227 11.182C16.5867 10.642 16.9647 10.174 17.1567 9.778C17.3607 9.37 17.4627 8.968 17.4627 8.572C17.4627 7.984 17.2647 7.534 16.8687 7.222C16.4727 6.91 15.8907 6.754 15.1227 6.754C13.8387 6.754 12.8547 7.192 12.1707 8.068L10.5327 6.808C11.0247 6.148 11.6847 5.638 12.5127 5.278C13.3527 4.906 14.2887 4.72 15.3207 4.72C16.6887 4.72 17.7807 5.044 18.5967 5.692C19.4127 6.34 19.8207 7.222 19.8207 8.338C19.8207 9.022 19.6767 9.664 19.3887 10.264C19.1007 10.864 18.5487 11.548 17.7327 12.316L14.3667 15.52H20.3067ZM23.255 14.638C23.675 14.638 24.023 14.776 24.299 15.052C24.575 15.328 24.713 15.688 24.713 16.132C24.713 16.324 24.683 16.528 24.623 16.744C24.575 16.948 24.467 17.26 24.299 17.68L23.381 20.218H21.923L22.643 17.464C22.379 17.356 22.169 17.188 22.013 16.96C21.869 16.72 21.797 16.444 21.797 16.132C21.797 15.688 21.935 15.328 22.211 15.052C22.487 14.776 22.835 14.638 23.255 14.638Z" fill="#2F2F2F"/>
<path d="M67.516 9.724C68.344 9.724 69.088 9.886 69.748 10.21C70.408 10.522 70.924 10.972 71.296 11.56C71.668 12.148 71.854 12.826 71.854 13.594C71.854 14.41 71.65 15.13 71.242 15.754C70.834 16.366 70.282 16.84 69.586 17.176C68.89 17.512 68.11 17.68 67.246 17.68C65.518 17.68 64.174 17.14 63.214 16.06C62.266 14.98 61.792 13.432 61.792 11.416C61.792 10 62.05 8.794 62.566 7.798C63.082 6.79 63.802 6.028 64.726 5.512C65.662 4.984 66.742 4.72 67.966 4.72C68.614 4.72 69.22 4.792 69.784 4.936C70.36 5.068 70.858 5.266 71.278 5.53L70.414 7.294C69.79 6.886 68.992 6.682 68.02 6.682C66.808 6.682 65.86 7.054 65.176 7.798C64.492 8.542 64.15 9.616 64.15 11.02V11.038C64.522 10.606 64.996 10.282 65.572 10.066C66.148 9.838 66.796 9.724 67.516 9.724ZM67.12 15.844C67.852 15.844 68.446 15.652 68.902 15.268C69.358 14.872 69.586 14.35 69.586 13.702C69.586 13.042 69.358 12.52 68.902 12.136C68.446 11.752 67.834 11.56 67.066 11.56C66.31 11.56 65.692 11.764 65.212 12.172C64.744 12.58 64.51 13.096 64.51 13.72C64.51 14.332 64.738 14.842 65.194 15.25C65.662 15.646 66.304 15.844 67.12 15.844ZM84.3092 14.638H82.0772V17.5H79.8092V14.638H72.8972V13.018L79.1072 4.9H81.6092L75.7592 12.658H79.8812V10.12H82.0772V12.658H84.3092V14.638Z" fill="#2F2F2F"/>
</svg>
