<svg width="461" height="77" viewBox="0 0 461 77" fill="none" xmlns="http://www.w3.org/2000/svg">
<path d="M384 6C384 3.23858 386.239 1 389 1H449C451.761 1 454 3.23858 454 6V41C454 43.7614 451.761 46 449 46H389C386.239 46 384 43.7614 384 41V6Z" fill="#369CB7"/>
<path d="M419.745 21.85C420.573 21.85 421.311 22.006 421.959 22.318C422.619 22.63 423.135 23.08 423.507 23.668C423.879 24.244 424.065 24.91 424.065 25.666C424.065 26.458 423.867 27.154 423.471 27.754C423.087 28.354 422.553 28.822 421.869 29.158C421.197 29.482 420.441 29.644 419.601 29.644C417.909 29.644 416.601 29.098 415.677 28.006C414.765 26.914 414.309 25.366 414.309 23.362C414.309 21.958 414.555 20.764 415.047 19.78C415.551 18.784 416.247 18.034 417.135 17.53C418.035 17.014 419.079 16.756 420.267 16.756C420.879 16.756 421.455 16.822 421.995 16.954C422.535 17.074 423.003 17.254 423.399 17.494L422.715 18.898C422.115 18.502 421.311 18.304 420.303 18.304C418.995 18.304 417.969 18.712 417.225 19.528C416.481 20.332 416.109 21.508 416.109 23.056C416.109 23.248 416.115 23.398 416.127 23.506C416.487 22.966 416.979 22.558 417.603 22.282C418.239 21.994 418.953 21.85 419.745 21.85ZM419.529 28.186C420.357 28.186 421.029 27.964 421.545 27.52C422.061 27.076 422.319 26.482 422.319 25.738C422.319 24.994 422.055 24.406 421.527 23.974C421.011 23.53 420.315 23.308 419.439 23.308C418.875 23.308 418.371 23.416 417.927 23.632C417.495 23.848 417.153 24.142 416.901 24.514C416.661 24.886 416.541 25.3 416.541 25.756C416.541 26.2 416.655 26.608 416.883 26.98C417.123 27.34 417.465 27.634 417.909 27.862C418.365 28.078 418.905 28.186 419.529 28.186Z" fill="white"/>
<path d="M389 2H449V0H389V2ZM453 6V41H455V6H453ZM449 45H389V47H449V45ZM385 41V6H383V41H385ZM389 45C386.791 45 385 43.2091 385 41H383C383 44.3137 385.686 47 389 47V45ZM453 41C453 43.2091 451.209 45 449 45V47C452.314 47 455 44.3137 455 41H453ZM449 2C451.209 2 453 3.79086 453 6H455C455 2.68629 452.314 0 449 0V2ZM389 0C385.686 0 383 2.68629 383 6H385C385 3.79086 386.791 2 389 2V0Z" fill="#369CB7"/>
<path d="M137 6C137 3.23858 139.239 1 142 1H202C204.761 1 207 3.23858 207 6V41C207 43.7614 204.761 46 202 46H142C139.239 46 137 43.7614 137 41V6Z" fill="white"/>
<path d="M174.776 22.894C175.496 23.17 176.048 23.566 176.432 24.082C176.816 24.598 177.008 25.216 177.008 25.936C177.008 26.692 176.804 27.352 176.396 27.916C175.988 28.468 175.406 28.894 174.65 29.194C173.894 29.494 173.006 29.644 171.986 29.644C170.978 29.644 170.096 29.494 169.34 29.194C168.596 28.894 168.02 28.468 167.612 27.916C167.204 27.352 167 26.692 167 25.936C167 25.216 167.186 24.598 167.558 24.082C167.942 23.566 168.494 23.17 169.214 22.894C168.638 22.618 168.2 22.252 167.9 21.796C167.6 21.34 167.45 20.8 167.45 20.176C167.45 19.48 167.636 18.874 168.008 18.358C168.392 17.842 168.926 17.446 169.61 17.17C170.294 16.894 171.086 16.756 171.986 16.756C172.898 16.756 173.696 16.894 174.38 17.17C175.076 17.446 175.61 17.842 175.982 18.358C176.366 18.874 176.558 19.48 176.558 20.176C176.558 20.788 176.402 21.328 176.09 21.796C175.79 22.252 175.352 22.618 174.776 22.894ZM171.986 18.214C171.134 18.214 170.462 18.4 169.97 18.772C169.478 19.132 169.232 19.624 169.232 20.248C169.232 20.872 169.472 21.364 169.952 21.724C170.444 22.084 171.122 22.264 171.986 22.264C172.862 22.264 173.546 22.084 174.038 21.724C174.542 21.364 174.794 20.872 174.794 20.248C174.794 19.624 174.536 19.132 174.02 18.772C173.516 18.4 172.838 18.214 171.986 18.214ZM171.986 28.186C172.982 28.186 173.768 27.982 174.344 27.574C174.92 27.154 175.208 26.59 175.208 25.882C175.208 25.186 174.92 24.64 174.344 24.244C173.768 23.836 172.982 23.632 171.986 23.632C170.99 23.632 170.21 23.836 169.646 24.244C169.082 24.64 168.8 25.186 168.8 25.882C168.8 26.59 169.082 27.154 169.646 27.574C170.21 27.982 170.99 28.186 171.986 28.186Z" fill="white"/>
<path d="M142 2H202V0H142V2ZM206 6V41H208V6H206ZM202 45H142V47H202V45ZM138 41V6H136V41H138ZM142 45C139.791 45 138 43.2091 138 41H136C136 44.3137 138.686 47 142 47V45ZM206 41C206 43.2091 204.209 45 202 45V47C205.314 47 208 44.3137 208 41H206ZM202 2C204.209 2 206 3.79086 206 6H208C208 2.68629 205.314 0 202 0V2ZM142 0C138.686 0 136 2.68629 136 6H138C138 3.79086 139.791 2 142 2V0Z" fill="#2F2F2F"/>
<path d="M262 6C262 3.23858 264.239 1 267 1H327C329.761 1 332 3.23858 332 6V41C332 43.7614 329.761 46 327 46H267C264.239 46 262 43.7614 262 41V6Z" fill="white"/>
<path d="M267 2H327V0H267V2ZM331 6V41H333V6H331ZM327 45H267V47H327V45ZM263 41V6H261V41H263ZM267 45C264.791 45 263 43.2091 263 41H261C261 44.3137 263.686 47 267 47V45ZM331 41C331 43.2091 329.209 45 327 45V47C330.314 47 333 44.3137 333 41H331ZM327 2C329.209 2 331 3.79086 331 6H333C333 2.68629 330.314 0 327 0V2ZM267 0C263.686 0 261 2.68629 261 6H263C263 3.79086 264.791 2 267 2V0Z" fill="#2F2F2F"/>
<path d="M13.2972 59.4V72H10.9572V66.6H4.44118V72H2.10118V59.4H4.44118V64.602H10.9572V59.4H13.2972ZM25.4934 67.248C25.4934 67.404 25.4814 67.626 25.4574 67.914H17.9154C18.0474 68.622 18.3894 69.186 18.9414 69.606C19.5054 70.014 20.2014 70.218 21.0294 70.218C22.0854 70.218 22.9554 69.87 23.6394 69.174L24.8454 70.56C24.4134 71.076 23.8674 71.466 23.2074 71.73C22.5474 71.994 21.8034 72.126 20.9754 72.126C19.9194 72.126 18.9894 71.916 18.1854 71.496C17.3814 71.076 16.7574 70.494 16.3134 69.75C15.8814 68.994 15.6654 68.142 15.6654 67.194C15.6654 66.258 15.8754 65.418 16.2954 64.674C16.7274 63.918 17.3214 63.33 18.0774 62.91C18.8334 62.49 19.6854 62.28 20.6334 62.28C21.5694 62.28 22.4034 62.49 23.1354 62.91C23.8794 63.318 24.4554 63.9 24.8634 64.656C25.2834 65.4 25.4934 66.264 25.4934 67.248ZM20.6334 64.08C19.9134 64.08 19.3014 64.296 18.7974 64.728C18.3054 65.148 18.0054 65.712 17.8974 66.42H23.3514C23.2554 65.724 22.9614 65.16 22.4694 64.728C21.9774 64.296 21.3654 64.08 20.6334 64.08ZM32.9827 62.28C33.9187 62.28 34.7527 62.484 35.4847 62.892C36.2287 63.3 36.8107 63.876 37.2307 64.62C37.6507 65.364 37.8607 66.222 37.8607 67.194C37.8607 68.166 37.6507 69.03 37.2307 69.786C36.8107 70.53 36.2287 71.106 35.4847 71.514C34.7527 71.922 33.9187 72.126 32.9827 72.126C31.6867 72.126 30.6607 71.694 29.9047 70.83V75.492H27.6547V62.388H29.7967V63.648C30.1687 63.192 30.6247 62.85 31.1647 62.622C31.7167 62.394 32.3227 62.28 32.9827 62.28ZM32.7307 70.2C33.5587 70.2 34.2367 69.924 34.7647 69.372C35.3047 68.82 35.5747 68.094 35.5747 67.194C35.5747 66.294 35.3047 65.568 34.7647 65.016C34.2367 64.464 33.5587 64.188 32.7307 64.188C32.1907 64.188 31.7047 64.314 31.2727 64.566C30.8407 64.806 30.4987 65.154 30.2467 65.61C29.9947 66.066 29.8687 66.594 29.8687 67.194C29.8687 67.794 29.9947 68.322 30.2467 68.778C30.4987 69.234 30.8407 69.588 31.2727 69.84C31.7047 70.08 32.1907 70.2 32.7307 70.2ZM45.7726 71.478C45.5086 71.694 45.1846 71.856 44.8006 71.964C44.4286 72.072 44.0326 72.126 43.6126 72.126C42.5566 72.126 41.7406 71.85 41.1646 71.298C40.5886 70.746 40.3006 69.942 40.3006 68.886V64.26H38.7166V62.46H40.3006V60.264H42.5506V62.46H45.1246V64.26H42.5506V68.832C42.5506 69.3 42.6646 69.66 42.8926 69.912C43.1206 70.152 43.4506 70.272 43.8826 70.272C44.3866 70.272 44.8066 70.14 45.1426 69.876L45.7726 71.478ZM51.2955 62.28C52.7115 62.28 53.7915 62.622 54.5355 63.306C55.2915 63.978 55.6695 64.998 55.6695 66.366V72H53.5455V70.83C53.2695 71.25 52.8735 71.574 52.3575 71.802C51.8535 72.018 51.2415 72.126 50.5215 72.126C49.8015 72.126 49.1715 72.006 48.6315 71.766C48.0915 71.514 47.6715 71.172 47.3715 70.74C47.0835 70.296 46.9395 69.798 46.9395 69.246C46.9395 68.382 47.2575 67.692 47.8935 67.176C48.5415 66.648 49.5555 66.384 50.9355 66.384H53.4195V66.24C53.4195 65.568 53.2155 65.052 52.8075 64.692C52.4115 64.332 51.8175 64.152 51.0255 64.152C50.4855 64.152 49.9515 64.236 49.4235 64.404C48.9075 64.572 48.4695 64.806 48.1095 65.106L47.2275 63.468C47.7315 63.084 48.3375 62.79 49.0455 62.586C49.7535 62.382 50.5035 62.28 51.2955 62.28ZM50.9895 70.488C51.5535 70.488 52.0515 70.362 52.4835 70.11C52.9275 69.846 53.2395 69.474 53.4195 68.994V67.878H51.0975C49.8015 67.878 49.1535 68.304 49.1535 69.156C49.1535 69.564 49.3155 69.888 49.6395 70.128C49.9635 70.368 50.4135 70.488 50.9895 70.488ZM68.1849 62.388V70.542C68.1849 73.926 66.4569 75.618 63.0009 75.618C62.0769 75.618 61.2009 75.498 60.3729 75.258C59.5449 75.03 58.8609 74.694 58.3209 74.25L59.3289 72.558C59.7489 72.906 60.2769 73.182 60.9129 73.386C61.5609 73.602 62.2149 73.71 62.8749 73.71C63.9309 73.71 64.7049 73.47 65.1969 72.99C65.6889 72.51 65.9349 71.778 65.9349 70.794V70.29C65.5509 70.71 65.0829 71.028 64.5309 71.244C63.9789 71.46 63.3729 71.568 62.7129 71.568C61.8009 71.568 60.9729 71.376 60.2289 70.992C59.4969 70.596 58.9149 70.044 58.4829 69.336C58.0629 68.628 57.8529 67.818 57.8529 66.906C57.8529 65.994 58.0629 65.19 58.4829 64.494C58.9149 63.786 59.4969 63.24 60.2289 62.856C60.9729 62.472 61.8009 62.28 62.7129 62.28C63.4089 62.28 64.0389 62.394 64.6029 62.622C65.1789 62.85 65.6589 63.198 66.0429 63.666V62.388H68.1849ZM63.0549 69.66C63.9069 69.66 64.6029 69.408 65.1429 68.904C65.6949 68.388 65.9709 67.722 65.9709 66.906C65.9709 66.102 65.6949 65.448 65.1429 64.944C64.6029 64.44 63.9069 64.188 63.0549 64.188C62.1909 64.188 61.4829 64.44 60.9309 64.944C60.3909 65.448 60.1209 66.102 60.1209 66.906C60.1209 67.722 60.3909 68.388 60.9309 68.904C61.4829 69.408 62.1909 69.66 63.0549 69.66ZM75.463 72.126C74.491 72.126 73.615 71.916 72.835 71.496C72.055 71.076 71.443 70.494 70.999 69.75C70.567 68.994 70.351 68.142 70.351 67.194C70.351 66.246 70.567 65.4 70.999 64.656C71.443 63.912 72.055 63.33 72.835 62.91C73.615 62.49 74.491 62.28 75.463 62.28C76.447 62.28 77.329 62.49 78.109 62.91C78.889 63.33 79.495 63.912 79.927 64.656C80.371 65.4 80.593 66.246 80.593 67.194C80.593 68.142 80.371 68.994 79.927 69.75C79.495 70.494 78.889 71.076 78.109 71.496C77.329 71.916 76.447 72.126 75.463 72.126ZM75.463 70.2C76.291 70.2 76.975 69.924 77.515 69.372C78.055 68.82 78.325 68.094 78.325 67.194C78.325 66.294 78.055 65.568 77.515 65.016C76.975 64.464 76.291 64.188 75.463 64.188C74.635 64.188 73.951 64.464 73.411 65.016C72.883 65.568 72.619 66.294 72.619 67.194C72.619 68.094 72.883 68.82 73.411 69.372C73.951 69.924 74.635 70.2 75.463 70.2ZM88.1986 62.28C89.4106 62.28 90.3826 62.634 91.1146 63.342C91.8466 64.05 92.2126 65.1 92.2126 66.492V72H89.9626V66.78C89.9626 65.94 89.7646 65.31 89.3686 64.89C88.9726 64.458 88.4086 64.242 87.6766 64.242C86.8486 64.242 86.1946 64.494 85.7146 64.998C85.2346 65.49 84.9946 66.204 84.9946 67.14V72H82.7446V62.388H84.8866V63.63C85.2586 63.186 85.7266 62.85 86.2906 62.622C86.8546 62.394 87.4906 62.28 88.1986 62.28Z" fill="#2F2F2F"/>
<path d="M266.918 59.4V72H264.992L258.044 63.468V72H255.722V59.4H257.648L264.596 67.932V59.4H266.918ZM274.399 72.126C273.427 72.126 272.551 71.916 271.771 71.496C270.991 71.076 270.379 70.494 269.935 69.75C269.503 68.994 269.287 68.142 269.287 67.194C269.287 66.246 269.503 65.4 269.935 64.656C270.379 63.912 270.991 63.33 271.771 62.91C272.551 62.49 273.427 62.28 274.399 62.28C275.383 62.28 276.265 62.49 277.045 62.91C277.825 63.33 278.431 63.912 278.863 64.656C279.307 65.4 279.529 66.246 279.529 67.194C279.529 68.142 279.307 68.994 278.863 69.75C278.431 70.494 277.825 71.076 277.045 71.496C276.265 71.916 275.383 72.126 274.399 72.126ZM274.399 70.2C275.227 70.2 275.911 69.924 276.451 69.372C276.991 68.82 277.261 68.094 277.261 67.194C277.261 66.294 276.991 65.568 276.451 65.016C275.911 64.464 275.227 64.188 274.399 64.188C273.571 64.188 272.887 64.464 272.347 65.016C271.819 65.568 271.555 66.294 271.555 67.194C271.555 68.094 271.819 68.82 272.347 69.372C272.887 69.924 273.571 70.2 274.399 70.2ZM287.134 62.28C288.346 62.28 289.318 62.634 290.05 63.342C290.782 64.05 291.148 65.1 291.148 66.492V72H288.898V66.78C288.898 65.94 288.7 65.31 288.304 64.89C287.908 64.458 287.344 64.242 286.612 64.242C285.784 64.242 285.13 64.494 284.65 64.998C284.17 65.49 283.93 66.204 283.93 67.14V72H281.68V62.388H283.822V63.63C284.194 63.186 284.662 62.85 285.226 62.622C285.79 62.394 286.426 62.28 287.134 62.28ZM297.674 62.28C299.09 62.28 300.17 62.622 300.914 63.306C301.67 63.978 302.048 64.998 302.048 66.366V72H299.924V70.83C299.648 71.25 299.252 71.574 298.736 71.802C298.232 72.018 297.62 72.126 296.9 72.126C296.18 72.126 295.55 72.006 295.01 71.766C294.47 71.514 294.05 71.172 293.75 70.74C293.462 70.296 293.318 69.798 293.318 69.246C293.318 68.382 293.636 67.692 294.272 67.176C294.92 66.648 295.934 66.384 297.314 66.384H299.798V66.24C299.798 65.568 299.594 65.052 299.186 64.692C298.79 64.332 298.196 64.152 297.404 64.152C296.864 64.152 296.33 64.236 295.802 64.404C295.286 64.572 294.848 64.806 294.488 65.106L293.606 63.468C294.11 63.084 294.716 62.79 295.424 62.586C296.132 62.382 296.882 62.28 297.674 62.28ZM297.368 70.488C297.932 70.488 298.43 70.362 298.862 70.11C299.306 69.846 299.618 69.474 299.798 68.994V67.878H297.476C296.18 67.878 295.532 68.304 295.532 69.156C295.532 69.564 295.694 69.888 296.018 70.128C296.342 70.368 296.792 70.488 297.368 70.488ZM314.564 62.388V70.542C314.564 73.926 312.836 75.618 309.38 75.618C308.456 75.618 307.58 75.498 306.752 75.258C305.924 75.03 305.24 74.694 304.7 74.25L305.708 72.558C306.128 72.906 306.656 73.182 307.292 73.386C307.94 73.602 308.594 73.71 309.254 73.71C310.31 73.71 311.084 73.47 311.576 72.99C312.068 72.51 312.314 71.778 312.314 70.794V70.29C311.93 70.71 311.462 71.028 310.91 71.244C310.358 71.46 309.752 71.568 309.092 71.568C308.18 71.568 307.352 71.376 306.608 70.992C305.876 70.596 305.294 70.044 304.862 69.336C304.442 68.628 304.232 67.818 304.232 66.906C304.232 65.994 304.442 65.19 304.862 64.494C305.294 63.786 305.876 63.24 306.608 62.856C307.352 62.472 308.18 62.28 309.092 62.28C309.788 62.28 310.418 62.394 310.982 62.622C311.558 62.85 312.038 63.198 312.422 63.666V62.388H314.564ZM309.434 69.66C310.286 69.66 310.982 69.408 311.522 68.904C312.074 68.388 312.35 67.722 312.35 66.906C312.35 66.102 312.074 65.448 311.522 64.944C310.982 64.44 310.286 64.188 309.434 64.188C308.57 64.188 307.862 64.44 307.31 64.944C306.77 65.448 306.5 66.102 306.5 66.906C306.5 67.722 306.77 68.388 307.31 68.904C307.862 69.408 308.57 69.66 309.434 69.66ZM321.842 72.126C320.87 72.126 319.994 71.916 319.214 71.496C318.434 71.076 317.822 70.494 317.378 69.75C316.946 68.994 316.73 68.142 316.73 67.194C316.73 66.246 316.946 65.4 317.378 64.656C317.822 63.912 318.434 63.33 319.214 62.91C319.994 62.49 320.87 62.28 321.842 62.28C322.826 62.28 323.708 62.49 324.488 62.91C325.268 63.33 325.874 63.912 326.306 64.656C326.75 65.4 326.972 66.246 326.972 67.194C326.972 68.142 326.75 68.994 326.306 69.75C325.874 70.494 325.268 71.076 324.488 71.496C323.708 71.916 322.826 72.126 321.842 72.126ZM321.842 70.2C322.67 70.2 323.354 69.924 323.894 69.372C324.434 68.82 324.704 68.094 324.704 67.194C324.704 66.294 324.434 65.568 323.894 65.016C323.354 64.464 322.67 64.188 321.842 64.188C321.014 64.188 320.33 64.464 319.79 65.016C319.262 65.568 318.998 66.294 318.998 67.194C318.998 68.094 319.262 68.82 319.79 69.372C320.33 69.924 321.014 70.2 321.842 70.2ZM334.577 62.28C335.789 62.28 336.761 62.634 337.493 63.342C338.225 64.05 338.591 65.1 338.591 66.492V72H336.341V66.78C336.341 65.94 336.143 65.31 335.747 64.89C335.351 64.458 334.787 64.242 334.055 64.242C333.227 64.242 332.573 64.494 332.093 64.998C331.613 65.49 331.373 66.204 331.373 67.14V72H329.123V62.388H331.265V63.63C331.637 63.186 332.105 62.85 332.669 62.622C333.233 62.394 333.869 62.28 334.577 62.28Z" fill="#2F2F2F"/>
<path d="M390.342 59.4V72H388.002V66.6H381.486V72H379.146V59.4H381.486V64.602H388.002V59.4H390.342ZM402.538 67.248C402.538 67.404 402.526 67.626 402.502 67.914H394.96C395.092 68.622 395.434 69.186 395.986 69.606C396.55 70.014 397.246 70.218 398.074 70.218C399.13 70.218 400 69.87 400.684 69.174L401.89 70.56C401.458 71.076 400.912 71.466 400.252 71.73C399.592 71.994 398.848 72.126 398.02 72.126C396.964 72.126 396.034 71.916 395.23 71.496C394.426 71.076 393.802 70.494 393.358 69.75C392.926 68.994 392.71 68.142 392.71 67.194C392.71 66.258 392.92 65.418 393.34 64.674C393.772 63.918 394.366 63.33 395.122 62.91C395.878 62.49 396.73 62.28 397.678 62.28C398.614 62.28 399.448 62.49 400.18 62.91C400.924 63.318 401.5 63.9 401.908 64.656C402.328 65.4 402.538 66.264 402.538 67.248ZM397.678 64.08C396.958 64.08 396.346 64.296 395.842 64.728C395.35 65.148 395.05 65.712 394.942 66.42H400.396C400.3 65.724 400.006 65.16 399.514 64.728C399.022 64.296 398.41 64.08 397.678 64.08ZM410.556 72L408.09 68.67L405.606 72H403.122L406.866 67.122L403.284 62.388H405.786L408.144 65.538L410.502 62.388H412.932L409.332 67.086L413.094 72H410.556ZM418.251 62.28C419.667 62.28 420.747 62.622 421.491 63.306C422.247 63.978 422.625 64.998 422.625 66.366V72H420.501V70.83C420.225 71.25 419.829 71.574 419.313 71.802C418.809 72.018 418.197 72.126 417.477 72.126C416.757 72.126 416.127 72.006 415.587 71.766C415.047 71.514 414.627 71.172 414.327 70.74C414.039 70.296 413.895 69.798 413.895 69.246C413.895 68.382 414.213 67.692 414.849 67.176C415.497 66.648 416.511 66.384 417.891 66.384H420.375V66.24C420.375 65.568 420.171 65.052 419.763 64.692C419.367 64.332 418.773 64.152 417.981 64.152C417.441 64.152 416.907 64.236 416.379 64.404C415.863 64.572 415.425 64.806 415.065 65.106L414.183 63.468C414.687 63.084 415.293 62.79 416.001 62.586C416.709 62.382 417.459 62.28 418.251 62.28ZM417.945 70.488C418.509 70.488 419.007 70.362 419.439 70.11C419.883 69.846 420.195 69.474 420.375 68.994V67.878H418.053C416.757 67.878 416.109 68.304 416.109 69.156C416.109 69.564 416.271 69.888 416.595 70.128C416.919 70.368 417.369 70.488 417.945 70.488ZM435.14 62.388V70.542C435.14 73.926 433.412 75.618 429.956 75.618C429.032 75.618 428.156 75.498 427.328 75.258C426.5 75.03 425.816 74.694 425.276 74.25L426.284 72.558C426.704 72.906 427.232 73.182 427.868 73.386C428.516 73.602 429.17 73.71 429.83 73.71C430.886 73.71 431.66 73.47 432.152 72.99C432.644 72.51 432.89 71.778 432.89 70.794V70.29C432.506 70.71 432.038 71.028 431.486 71.244C430.934 71.46 430.328 71.568 429.668 71.568C428.756 71.568 427.928 71.376 427.184 70.992C426.452 70.596 425.87 70.044 425.438 69.336C425.018 68.628 424.808 67.818 424.808 66.906C424.808 65.994 425.018 65.19 425.438 64.494C425.87 63.786 426.452 63.24 427.184 62.856C427.928 62.472 428.756 62.28 429.668 62.28C430.364 62.28 430.994 62.394 431.558 62.622C432.134 62.85 432.614 63.198 432.998 63.666V62.388H435.14ZM430.01 69.66C430.862 69.66 431.558 69.408 432.098 68.904C432.65 68.388 432.926 67.722 432.926 66.906C432.926 66.102 432.65 65.448 432.098 64.944C431.558 64.44 430.862 64.188 430.01 64.188C429.146 64.188 428.438 64.44 427.886 64.944C427.346 65.448 427.076 66.102 427.076 66.906C427.076 67.722 427.346 68.388 427.886 68.904C428.438 69.408 429.146 69.66 430.01 69.66ZM442.418 72.126C441.446 72.126 440.57 71.916 439.79 71.496C439.01 71.076 438.398 70.494 437.954 69.75C437.522 68.994 437.306 68.142 437.306 67.194C437.306 66.246 437.522 65.4 437.954 64.656C438.398 63.912 439.01 63.33 439.79 62.91C440.57 62.49 441.446 62.28 442.418 62.28C443.402 62.28 444.284 62.49 445.064 62.91C445.844 63.33 446.45 63.912 446.882 64.656C447.326 65.4 447.548 66.246 447.548 67.194C447.548 68.142 447.326 68.994 446.882 69.75C446.45 70.494 445.844 71.076 445.064 71.496C444.284 71.916 443.402 72.126 442.418 72.126ZM442.418 70.2C443.246 70.2 443.93 69.924 444.47 69.372C445.01 68.82 445.28 68.094 445.28 67.194C445.28 66.294 445.01 65.568 444.47 65.016C443.93 64.464 443.246 64.188 442.418 64.188C441.59 64.188 440.906 64.464 440.366 65.016C439.838 65.568 439.574 66.294 439.574 67.194C439.574 68.094 439.838 68.82 440.366 69.372C440.906 69.924 441.59 70.2 442.418 70.2ZM455.154 62.28C456.366 62.28 457.338 62.634 458.07 63.342C458.802 64.05 459.168 65.1 459.168 66.492V72H456.918V66.78C456.918 65.94 456.72 65.31 456.324 64.89C455.928 64.458 455.364 64.242 454.632 64.242C453.804 64.242 453.15 64.494 452.67 64.998C452.19 65.49 451.95 66.204 451.95 67.14V72H449.7V62.388H451.842V63.63C452.214 63.186 452.682 62.85 453.246 62.622C453.81 62.394 454.446 62.28 455.154 62.28Z" fill="#2F2F2F"/>
<path d="M138.675 72.18C137.391 72.18 136.233 71.904 135.201 71.352C134.169 70.788 133.359 70.014 132.771 69.03C132.183 68.034 131.889 66.924 131.889 65.7C131.889 64.476 132.183 63.372 132.771 62.388C133.359 61.392 134.169 60.618 135.201 60.066C136.233 59.502 137.391 59.22 138.675 59.22C139.959 59.22 141.117 59.502 142.149 60.066C143.181 60.618 143.991 61.386 144.579 62.37C145.167 63.354 145.461 64.464 145.461 65.7C145.461 66.936 145.167 68.046 144.579 69.03C143.991 70.014 143.181 70.788 142.149 71.352C141.117 71.904 139.959 72.18 138.675 72.18ZM138.675 70.128C139.515 70.128 140.271 69.942 140.943 69.57C141.615 69.186 142.143 68.658 142.527 67.986C142.911 67.302 143.103 66.54 143.103 65.7C143.103 64.86 142.911 64.104 142.527 63.432C142.143 62.748 141.615 62.22 140.943 61.848C140.271 61.464 139.515 61.272 138.675 61.272C137.835 61.272 137.079 61.464 136.407 61.848C135.735 62.22 135.207 62.748 134.823 63.432C134.439 64.104 134.247 64.86 134.247 65.7C134.247 66.54 134.439 67.302 134.823 67.986C135.207 68.658 135.735 69.186 136.407 69.57C137.079 69.942 137.835 70.128 138.675 70.128ZM152.135 72.126C151.139 72.126 150.245 71.916 149.453 71.496C148.661 71.076 148.043 70.494 147.599 69.75C147.155 68.994 146.933 68.142 146.933 67.194C146.933 66.246 147.155 65.4 147.599 64.656C148.043 63.912 148.655 63.33 149.435 62.91C150.227 62.49 151.127 62.28 152.135 62.28C153.083 62.28 153.911 62.472 154.619 62.856C155.339 63.24 155.879 63.792 156.239 64.512L154.511 65.52C154.235 65.076 153.887 64.746 153.467 64.53C153.059 64.302 152.609 64.188 152.117 64.188C151.277 64.188 150.581 64.464 150.029 65.016C149.477 65.556 149.201 66.282 149.201 67.194C149.201 68.106 149.471 68.838 150.011 69.39C150.563 69.93 151.265 70.2 152.117 70.2C152.609 70.2 153.059 70.092 153.467 69.876C153.887 69.648 154.235 69.312 154.511 68.868L156.239 69.876C155.867 70.596 155.321 71.154 154.601 71.55C153.893 71.934 153.071 72.126 152.135 72.126ZM164.085 71.478C163.821 71.694 163.497 71.856 163.113 71.964C162.741 72.072 162.345 72.126 161.925 72.126C160.869 72.126 160.053 71.85 159.477 71.298C158.901 70.746 158.613 69.942 158.613 68.886V64.26H157.029V62.46H158.613V60.264H160.863V62.46H163.437V64.26H160.863V68.832C160.863 69.3 160.977 69.66 161.205 69.912C161.433 70.152 161.763 70.272 162.195 70.272C162.699 70.272 163.119 70.14 163.455 69.876L164.085 71.478ZM169.608 62.28C171.024 62.28 172.104 62.622 172.848 63.306C173.604 63.978 173.982 64.998 173.982 66.366V72H171.858V70.83C171.582 71.25 171.186 71.574 170.67 71.802C170.166 72.018 169.554 72.126 168.834 72.126C168.114 72.126 167.484 72.006 166.944 71.766C166.404 71.514 165.984 71.172 165.684 70.74C165.396 70.296 165.252 69.798 165.252 69.246C165.252 68.382 165.57 67.692 166.206 67.176C166.854 66.648 167.868 66.384 169.248 66.384H171.732V66.24C171.732 65.568 171.528 65.052 171.12 64.692C170.724 64.332 170.13 64.152 169.338 64.152C168.798 64.152 168.264 64.236 167.736 64.404C167.22 64.572 166.782 64.806 166.422 65.106L165.54 63.468C166.044 63.084 166.65 62.79 167.358 62.586C168.066 62.382 168.816 62.28 169.608 62.28ZM169.302 70.488C169.866 70.488 170.364 70.362 170.796 70.11C171.24 69.846 171.552 69.474 171.732 68.994V67.878H169.41C168.114 67.878 167.466 68.304 167.466 69.156C167.466 69.564 167.628 69.888 167.952 70.128C168.276 70.368 168.726 70.488 169.302 70.488ZM186.497 62.388V70.542C186.497 73.926 184.769 75.618 181.313 75.618C180.389 75.618 179.513 75.498 178.685 75.258C177.857 75.03 177.173 74.694 176.633 74.25L177.641 72.558C178.061 72.906 178.589 73.182 179.225 73.386C179.873 73.602 180.527 73.71 181.187 73.71C182.243 73.71 183.017 73.47 183.509 72.99C184.001 72.51 184.247 71.778 184.247 70.794V70.29C183.863 70.71 183.395 71.028 182.843 71.244C182.291 71.46 181.685 71.568 181.025 71.568C180.113 71.568 179.285 71.376 178.541 70.992C177.809 70.596 177.227 70.044 176.795 69.336C176.375 68.628 176.165 67.818 176.165 66.906C176.165 65.994 176.375 65.19 176.795 64.494C177.227 63.786 177.809 63.24 178.541 62.856C179.285 62.472 180.113 62.28 181.025 62.28C181.721 62.28 182.351 62.394 182.915 62.622C183.491 62.85 183.971 63.198 184.355 63.666V62.388H186.497ZM181.367 69.66C182.219 69.66 182.915 69.408 183.455 68.904C184.007 68.388 184.283 67.722 184.283 66.906C184.283 66.102 184.007 65.448 183.455 64.944C182.915 64.44 182.219 64.188 181.367 64.188C180.503 64.188 179.795 64.44 179.243 64.944C178.703 65.448 178.433 66.102 178.433 66.906C178.433 67.722 178.703 68.388 179.243 68.904C179.795 69.408 180.503 69.66 181.367 69.66ZM193.775 72.126C192.803 72.126 191.927 71.916 191.147 71.496C190.367 71.076 189.755 70.494 189.311 69.75C188.879 68.994 188.663 68.142 188.663 67.194C188.663 66.246 188.879 65.4 189.311 64.656C189.755 63.912 190.367 63.33 191.147 62.91C191.927 62.49 192.803 62.28 193.775 62.28C194.759 62.28 195.641 62.49 196.421 62.91C197.201 63.33 197.807 63.912 198.239 64.656C198.683 65.4 198.905 66.246 198.905 67.194C198.905 68.142 198.683 68.994 198.239 69.75C197.807 70.494 197.201 71.076 196.421 71.496C195.641 71.916 194.759 72.126 193.775 72.126ZM193.775 70.2C194.603 70.2 195.287 69.924 195.827 69.372C196.367 68.82 196.637 68.094 196.637 67.194C196.637 66.294 196.367 65.568 195.827 65.016C195.287 64.464 194.603 64.188 193.775 64.188C192.947 64.188 192.263 64.464 191.723 65.016C191.195 65.568 190.931 66.294 190.931 67.194C190.931 68.094 191.195 68.82 191.723 69.372C192.263 69.924 192.947 70.2 193.775 70.2ZM206.511 62.28C207.723 62.28 208.695 62.634 209.427 63.342C210.159 64.05 210.525 65.1 210.525 66.492V72H208.275V66.78C208.275 65.94 208.077 65.31 207.681 64.89C207.285 64.458 206.721 64.242 205.989 64.242C205.161 64.242 204.507 64.494 204.027 64.998C203.547 65.49 203.307 66.204 203.307 67.14V72H201.057V62.388H203.199V63.63C203.571 63.186 204.039 62.85 204.603 62.622C205.167 62.394 205.803 62.28 206.511 62.28Z" fill="#2F2F2F"/>
<path d="M12 5C12 2.23858 14.2386 0 17 0H77C79.7614 0 82 2.23858 82 5V40C82 42.7614 79.7614 45 77 45H17C14.2386 45 12 42.7614 12 40V5Z" fill="#369CB7"/>
<path d="M51.6651 15.9V17.124L46.5711 28.5H44.6631L49.6491 17.466H43.8891V19.716H42.1611V15.9H51.6651Z" fill="white"/>
<path d="M17 1H77V-1H17V1ZM81 5V40H83V5H81ZM77 44H17V46H77V44ZM13 40V5H11V40H13ZM17 44C14.7909 44 13 42.2091 13 40H11C11 43.3137 13.6863 46 17 46V44ZM81 40C81 42.2091 79.2091 44 77 44V46C80.3137 46 83 43.3137 83 40H81ZM77 1C79.2091 1 81 2.79086 81 5H83C83 1.68629 80.3137 -1 77 -1V1ZM17 -1C13.6863 -1 11 1.68629 11 5H13C13 2.79086 14.7909 1 17 1V-1Z" fill="#369CB7"/>
<path d="M262 6C262 3.23858 264.239 1 267 1H327C329.761 1 332 3.23858 332 6V41C332 43.7614 329.761 46 327 46H267C264.239 46 262 43.7614 262 41V6Z" fill="#369CB7"/>
<path d="M296.395 16.756C298.087 16.756 299.389 17.302 300.301 18.394C301.225 19.486 301.687 21.034 301.687 23.038C301.687 24.442 301.435 25.642 300.931 26.638C300.439 27.622 299.743 28.372 298.843 28.888C297.955 29.392 296.917 29.644 295.729 29.644C295.117 29.644 294.541 29.584 294.001 29.464C293.461 29.332 292.993 29.146 292.597 28.906L293.281 27.502C293.893 27.898 294.703 28.096 295.711 28.096C297.019 28.096 298.039 27.694 298.771 26.89C299.515 26.074 299.887 24.892 299.887 23.344V22.894C299.527 23.434 299.029 23.848 298.393 24.136C297.757 24.412 297.043 24.55 296.251 24.55C295.423 24.55 294.679 24.394 294.019 24.082C293.371 23.77 292.861 23.326 292.489 22.75C292.129 22.162 291.949 21.49 291.949 20.734C291.949 19.942 292.141 19.246 292.525 18.646C292.921 18.046 293.455 17.584 294.127 17.26C294.799 16.924 295.555 16.756 296.395 16.756ZM296.557 23.092C297.121 23.092 297.625 22.984 298.069 22.768C298.513 22.552 298.855 22.258 299.095 21.886C299.347 21.514 299.473 21.1 299.473 20.644C299.473 20.2 299.353 19.798 299.113 19.438C298.885 19.066 298.543 18.772 298.087 18.556C297.643 18.328 297.103 18.214 296.467 18.214C295.639 18.214 294.967 18.436 294.451 18.88C293.947 19.324 293.695 19.918 293.695 20.662C293.695 21.406 293.953 22 294.469 22.444C294.985 22.876 295.681 23.092 296.557 23.092Z" fill="white"/>
<path d="M267 2H327V0H267V2ZM331 6V41H333V6H331ZM327 45H267V47H327V45ZM263 41V6H261V41H263ZM267 45C264.791 45 263 43.2091 263 41H261C261 44.3137 263.686 47 267 47V45ZM331 41C331 43.2091 329.209 45 327 45V47C330.314 47 333 44.3137 333 41H331ZM327 2C329.209 2 331 3.79086 331 6H333C333 2.68629 330.314 0 327 0V2ZM267 0C263.686 0 261 2.68629 261 6H263C263 3.79086 264.791 2 267 2V0Z" fill="#369CB7"/>
<path d="M137 6C137 3.23858 139.239 1 142 1H202C204.761 1 207 3.23858 207 6V41C207 43.7614 204.761 46 202 46H142C139.239 46 137 43.7614 137 41V6Z" fill="#369CB7"/>
<path d="M174.776 22.894C175.496 23.17 176.048 23.566 176.432 24.082C176.816 24.598 177.008 25.216 177.008 25.936C177.008 26.692 176.804 27.352 176.396 27.916C175.988 28.468 175.406 28.894 174.65 29.194C173.894 29.494 173.006 29.644 171.986 29.644C170.978 29.644 170.096 29.494 169.34 29.194C168.596 28.894 168.02 28.468 167.612 27.916C167.204 27.352 167 26.692 167 25.936C167 25.216 167.186 24.598 167.558 24.082C167.942 23.566 168.494 23.17 169.214 22.894C168.638 22.618 168.2 22.252 167.9 21.796C167.6 21.34 167.45 20.8 167.45 20.176C167.45 19.48 167.636 18.874 168.008 18.358C168.392 17.842 168.926 17.446 169.61 17.17C170.294 16.894 171.086 16.756 171.986 16.756C172.898 16.756 173.696 16.894 174.38 17.17C175.076 17.446 175.61 17.842 175.982 18.358C176.366 18.874 176.558 19.48 176.558 20.176C176.558 20.788 176.402 21.328 176.09 21.796C175.79 22.252 175.352 22.618 174.776 22.894ZM171.986 18.214C171.134 18.214 170.462 18.4 169.97 18.772C169.478 19.132 169.232 19.624 169.232 20.248C169.232 20.872 169.472 21.364 169.952 21.724C170.444 22.084 171.122 22.264 171.986 22.264C172.862 22.264 173.546 22.084 174.038 21.724C174.542 21.364 174.794 20.872 174.794 20.248C174.794 19.624 174.536 19.132 174.02 18.772C173.516 18.4 172.838 18.214 171.986 18.214ZM171.986 28.186C172.982 28.186 173.768 27.982 174.344 27.574C174.92 27.154 175.208 26.59 175.208 25.882C175.208 25.186 174.92 24.64 174.344 24.244C173.768 23.836 172.982 23.632 171.986 23.632C170.99 23.632 170.21 23.836 169.646 24.244C169.082 24.64 168.8 25.186 168.8 25.882C168.8 26.59 169.082 27.154 169.646 27.574C170.21 27.982 170.99 28.186 171.986 28.186Z" fill="white"/>
<path d="M142 2H202V0H142V2ZM206 6V41H208V6H206ZM202 45H142V47H202V45ZM138 41V6H136V41H138ZM142 45C139.791 45 138 43.2091 138 41H136C136 44.3137 138.686 47 142 47V45ZM206 41C206 43.2091 204.209 45 202 45V47C205.314 47 208 44.3137 208 41H206ZM202 2C204.209 2 206 3.79086 206 6H208C208 2.68629 205.314 0 202 0V2ZM142 0C138.686 0 136 2.68629 136 6H138C138 3.79086 139.791 2 142 2V0Z" fill="#369CB7"/>
</svg>
