<svg width="461" height="22" viewBox="0 0 461 22" fill="none" xmlns="http://www.w3.org/2000/svg">
<path d="M13.2972 4.4V17H10.9572V11.6H4.44118V17H2.10118V4.4H4.44118V9.602H10.9572V4.4H13.2972ZM25.4934 12.248C25.4934 12.404 25.4814 12.626 25.4574 12.914H17.9154C18.0474 13.622 18.3894 14.186 18.9414 14.606C19.5054 15.014 20.2014 15.218 21.0294 15.218C22.0854 15.218 22.9554 14.87 23.6394 14.174L24.8454 15.56C24.4134 16.076 23.8674 16.466 23.2074 16.73C22.5474 16.994 21.8034 17.126 20.9754 17.126C19.9194 17.126 18.9894 16.916 18.1854 16.496C17.3814 16.076 16.7574 15.494 16.3134 14.75C15.8814 13.994 15.6654 13.142 15.6654 12.194C15.6654 11.258 15.8754 10.418 16.2954 9.674C16.7274 8.918 17.3214 8.33 18.0774 7.91C18.8334 7.49 19.6854 7.28 20.6334 7.28C21.5694 7.28 22.4034 7.49 23.1354 7.91C23.8794 8.318 24.4554 8.9 24.8634 9.656C25.2834 10.4 25.4934 11.264 25.4934 12.248ZM20.6334 9.08C19.9134 9.08 19.3014 9.296 18.7974 9.728C18.3054 10.148 18.0054 10.712 17.8974 11.42H23.3514C23.2554 10.724 22.9614 10.16 22.4694 9.728C21.9774 9.296 21.3654 9.08 20.6334 9.08ZM32.9827 7.28C33.9187 7.28 34.7527 7.484 35.4847 7.892C36.2287 8.3 36.8107 8.876 37.2307 9.62C37.6507 10.364 37.8607 11.222 37.8607 12.194C37.8607 13.166 37.6507 14.03 37.2307 14.786C36.8107 15.53 36.2287 16.106 35.4847 16.514C34.7527 16.922 33.9187 17.126 32.9827 17.126C31.6867 17.126 30.6607 16.694 29.9047 15.83V20.492H27.6547V7.388H29.7967V8.648C30.1687 8.192 30.6247 7.85 31.1647 7.622C31.7167 7.394 32.3227 7.28 32.9827 7.28ZM32.7307 15.2C33.5587 15.2 34.2367 14.924 34.7647 14.372C35.3047 13.82 35.5747 13.094 35.5747 12.194C35.5747 11.294 35.3047 10.568 34.7647 10.016C34.2367 9.464 33.5587 9.188 32.7307 9.188C32.1907 9.188 31.7047 9.314 31.2727 9.566C30.8407 9.806 30.4987 10.154 30.2467 10.61C29.9947 11.066 29.8687 11.594 29.8687 12.194C29.8687 12.794 29.9947 13.322 30.2467 13.778C30.4987 14.234 30.8407 14.588 31.2727 14.84C31.7047 15.08 32.1907 15.2 32.7307 15.2ZM45.7726 16.478C45.5086 16.694 45.1846 16.856 44.8006 16.964C44.4286 17.072 44.0326 17.126 43.6126 17.126C42.5566 17.126 41.7406 16.85 41.1646 16.298C40.5886 15.746 40.3006 14.942 40.3006 13.886V9.26H38.7166V7.46H40.3006V5.264H42.5506V7.46H45.1246V9.26H42.5506V13.832C42.5506 14.3 42.6646 14.66 42.8926 14.912C43.1206 15.152 43.4506 15.272 43.8826 15.272C44.3866 15.272 44.8066 15.14 45.1426 14.876L45.7726 16.478ZM51.2955 7.28C52.7115 7.28 53.7915 7.622 54.5355 8.306C55.2915 8.978 55.6695 9.998 55.6695 11.366V17H53.5455V15.83C53.2695 16.25 52.8735 16.574 52.3575 16.802C51.8535 17.018 51.2415 17.126 50.5215 17.126C49.8015 17.126 49.1715 17.006 48.6315 16.766C48.0915 16.514 47.6715 16.172 47.3715 15.74C47.0835 15.296 46.9395 14.798 46.9395 14.246C46.9395 13.382 47.2575 12.692 47.8935 12.176C48.5415 11.648 49.5555 11.384 50.9355 11.384H53.4195V11.24C53.4195 10.568 53.2155 10.052 52.8075 9.692C52.4115 9.332 51.8175 9.152 51.0255 9.152C50.4855 9.152 49.9515 9.236 49.4235 9.404C48.9075 9.572 48.4695 9.806 48.1095 10.106L47.2275 8.468C47.7315 8.084 48.3375 7.79 49.0455 7.586C49.7535 7.382 50.5035 7.28 51.2955 7.28ZM50.9895 15.488C51.5535 15.488 52.0515 15.362 52.4835 15.11C52.9275 14.846 53.2395 14.474 53.4195 13.994V12.878H51.0975C49.8015 12.878 49.1535 13.304 49.1535 14.156C49.1535 14.564 49.3155 14.888 49.6395 15.128C49.9635 15.368 50.4135 15.488 50.9895 15.488ZM68.1849 7.388V15.542C68.1849 18.926 66.4569 20.618 63.0009 20.618C62.0769 20.618 61.2009 20.498 60.3729 20.258C59.5449 20.03 58.8609 19.694 58.3209 19.25L59.3289 17.558C59.7489 17.906 60.2769 18.182 60.9129 18.386C61.5609 18.602 62.2149 18.71 62.8749 18.71C63.9309 18.71 64.7049 18.47 65.1969 17.99C65.6889 17.51 65.9349 16.778 65.9349 15.794V15.29C65.5509 15.71 65.0829 16.028 64.5309 16.244C63.9789 16.46 63.3729 16.568 62.7129 16.568C61.8009 16.568 60.9729 16.376 60.2289 15.992C59.4969 15.596 58.9149 15.044 58.4829 14.336C58.0629 13.628 57.8529 12.818 57.8529 11.906C57.8529 10.994 58.0629 10.19 58.4829 9.494C58.9149 8.786 59.4969 8.24 60.2289 7.856C60.9729 7.472 61.8009 7.28 62.7129 7.28C63.4089 7.28 64.0389 7.394 64.6029 7.622C65.1789 7.85 65.6589 8.198 66.0429 8.666V7.388H68.1849ZM63.0549 14.66C63.9069 14.66 64.6029 14.408 65.1429 13.904C65.6949 13.388 65.9709 12.722 65.9709 11.906C65.9709 11.102 65.6949 10.448 65.1429 9.944C64.6029 9.44 63.9069 9.188 63.0549 9.188C62.1909 9.188 61.4829 9.44 60.9309 9.944C60.3909 10.448 60.1209 11.102 60.1209 11.906C60.1209 12.722 60.3909 13.388 60.9309 13.904C61.4829 14.408 62.1909 14.66 63.0549 14.66ZM75.463 17.126C74.491 17.126 73.615 16.916 72.835 16.496C72.055 16.076 71.443 15.494 70.999 14.75C70.567 13.994 70.351 13.142 70.351 12.194C70.351 11.246 70.567 10.4 70.999 9.656C71.443 8.912 72.055 8.33 72.835 7.91C73.615 7.49 74.491 7.28 75.463 7.28C76.447 7.28 77.329 7.49 78.109 7.91C78.889 8.33 79.495 8.912 79.927 9.656C80.371 10.4 80.593 11.246 80.593 12.194C80.593 13.142 80.371 13.994 79.927 14.75C79.495 15.494 78.889 16.076 78.109 16.496C77.329 16.916 76.447 17.126 75.463 17.126ZM75.463 15.2C76.291 15.2 76.975 14.924 77.515 14.372C78.055 13.82 78.325 13.094 78.325 12.194C78.325 11.294 78.055 10.568 77.515 10.016C76.975 9.464 76.291 9.188 75.463 9.188C74.635 9.188 73.951 9.464 73.411 10.016C72.883 10.568 72.619 11.294 72.619 12.194C72.619 13.094 72.883 13.82 73.411 14.372C73.951 14.924 74.635 15.2 75.463 15.2ZM88.1986 7.28C89.4106 7.28 90.3826 7.634 91.1146 8.342C91.8466 9.05 92.2126 10.1 92.2126 11.492V17H89.9626V11.78C89.9626 10.94 89.7646 10.31 89.3686 9.89C88.9726 9.458 88.4086 9.242 87.6766 9.242C86.8486 9.242 86.1946 9.494 85.7146 9.998C85.2346 10.49 84.9946 11.204 84.9946 12.14V17H82.7446V7.388H84.8866V8.63C85.2586 8.186 85.7266 7.85 86.2906 7.622C86.8546 7.394 87.4906 7.28 88.1986 7.28Z" fill="#2F2F2F"/>
<path d="M266.918 4.4V17H264.992L258.044 8.468V17H255.722V4.4H257.648L264.596 12.932V4.4H266.918ZM274.399 17.126C273.427 17.126 272.551 16.916 271.771 16.496C270.991 16.076 270.379 15.494 269.935 14.75C269.503 13.994 269.287 13.142 269.287 12.194C269.287 11.246 269.503 10.4 269.935 9.656C270.379 8.912 270.991 8.33 271.771 7.91C272.551 7.49 273.427 7.28 274.399 7.28C275.383 7.28 276.265 7.49 277.045 7.91C277.825 8.33 278.431 8.912 278.863 9.656C279.307 10.4 279.529 11.246 279.529 12.194C279.529 13.142 279.307 13.994 278.863 14.75C278.431 15.494 277.825 16.076 277.045 16.496C276.265 16.916 275.383 17.126 274.399 17.126ZM274.399 15.2C275.227 15.2 275.911 14.924 276.451 14.372C276.991 13.82 277.261 13.094 277.261 12.194C277.261 11.294 276.991 10.568 276.451 10.016C275.911 9.464 275.227 9.188 274.399 9.188C273.571 9.188 272.887 9.464 272.347 10.016C271.819 10.568 271.555 11.294 271.555 12.194C271.555 13.094 271.819 13.82 272.347 14.372C272.887 14.924 273.571 15.2 274.399 15.2ZM287.134 7.28C288.346 7.28 289.318 7.634 290.05 8.342C290.782 9.05 291.148 10.1 291.148 11.492V17H288.898V11.78C288.898 10.94 288.7 10.31 288.304 9.89C287.908 9.458 287.344 9.242 286.612 9.242C285.784 9.242 285.13 9.494 284.65 9.998C284.17 10.49 283.93 11.204 283.93 12.14V17H281.68V7.388H283.822V8.63C284.194 8.186 284.662 7.85 285.226 7.622C285.79 7.394 286.426 7.28 287.134 7.28ZM297.674 7.28C299.09 7.28 300.17 7.622 300.914 8.306C301.67 8.978 302.048 9.998 302.048 11.366V17H299.924V15.83C299.648 16.25 299.252 16.574 298.736 16.802C298.232 17.018 297.62 17.126 296.9 17.126C296.18 17.126 295.55 17.006 295.01 16.766C294.47 16.514 294.05 16.172 293.75 15.74C293.462 15.296 293.318 14.798 293.318 14.246C293.318 13.382 293.636 12.692 294.272 12.176C294.92 11.648 295.934 11.384 297.314 11.384H299.798V11.24C299.798 10.568 299.594 10.052 299.186 9.692C298.79 9.332 298.196 9.152 297.404 9.152C296.864 9.152 296.33 9.236 295.802 9.404C295.286 9.572 294.848 9.806 294.488 10.106L293.606 8.468C294.11 8.084 294.716 7.79 295.424 7.586C296.132 7.382 296.882 7.28 297.674 7.28ZM297.368 15.488C297.932 15.488 298.43 15.362 298.862 15.11C299.306 14.846 299.618 14.474 299.798 13.994V12.878H297.476C296.18 12.878 295.532 13.304 295.532 14.156C295.532 14.564 295.694 14.888 296.018 15.128C296.342 15.368 296.792 15.488 297.368 15.488ZM314.564 7.388V15.542C314.564 18.926 312.836 20.618 309.38 20.618C308.456 20.618 307.58 20.498 306.752 20.258C305.924 20.03 305.24 19.694 304.7 19.25L305.708 17.558C306.128 17.906 306.656 18.182 307.292 18.386C307.94 18.602 308.594 18.71 309.254 18.71C310.31 18.71 311.084 18.47 311.576 17.99C312.068 17.51 312.314 16.778 312.314 15.794V15.29C311.93 15.71 311.462 16.028 310.91 16.244C310.358 16.46 309.752 16.568 309.092 16.568C308.18 16.568 307.352 16.376 306.608 15.992C305.876 15.596 305.294 15.044 304.862 14.336C304.442 13.628 304.232 12.818 304.232 11.906C304.232 10.994 304.442 10.19 304.862 9.494C305.294 8.786 305.876 8.24 306.608 7.856C307.352 7.472 308.18 7.28 309.092 7.28C309.788 7.28 310.418 7.394 310.982 7.622C311.558 7.85 312.038 8.198 312.422 8.666V7.388H314.564ZM309.434 14.66C310.286 14.66 310.982 14.408 311.522 13.904C312.074 13.388 312.35 12.722 312.35 11.906C312.35 11.102 312.074 10.448 311.522 9.944C310.982 9.44 310.286 9.188 309.434 9.188C308.57 9.188 307.862 9.44 307.31 9.944C306.77 10.448 306.5 11.102 306.5 11.906C306.5 12.722 306.77 13.388 307.31 13.904C307.862 14.408 308.57 14.66 309.434 14.66ZM321.842 17.126C320.87 17.126 319.994 16.916 319.214 16.496C318.434 16.076 317.822 15.494 317.378 14.75C316.946 13.994 316.73 13.142 316.73 12.194C316.73 11.246 316.946 10.4 317.378 9.656C317.822 8.912 318.434 8.33 319.214 7.91C319.994 7.49 320.87 7.28 321.842 7.28C322.826 7.28 323.708 7.49 324.488 7.91C325.268 8.33 325.874 8.912 326.306 9.656C326.75 10.4 326.972 11.246 326.972 12.194C326.972 13.142 326.75 13.994 326.306 14.75C325.874 15.494 325.268 16.076 324.488 16.496C323.708 16.916 322.826 17.126 321.842 17.126ZM321.842 15.2C322.67 15.2 323.354 14.924 323.894 14.372C324.434 13.82 324.704 13.094 324.704 12.194C324.704 11.294 324.434 10.568 323.894 10.016C323.354 9.464 322.67 9.188 321.842 9.188C321.014 9.188 320.33 9.464 319.79 10.016C319.262 10.568 318.998 11.294 318.998 12.194C318.998 13.094 319.262 13.82 319.79 14.372C320.33 14.924 321.014 15.2 321.842 15.2ZM334.577 7.28C335.789 7.28 336.761 7.634 337.493 8.342C338.225 9.05 338.591 10.1 338.591 11.492V17H336.341V11.78C336.341 10.94 336.143 10.31 335.747 9.89C335.351 9.458 334.787 9.242 334.055 9.242C333.227 9.242 332.573 9.494 332.093 9.998C331.613 10.49 331.373 11.204 331.373 12.14V17H329.123V7.388H331.265V8.63C331.637 8.186 332.105 7.85 332.669 7.622C333.233 7.394 333.869 7.28 334.577 7.28Z" fill="#2F2F2F"/>
<path d="M390.342 4.4V17H388.002V11.6H381.486V17H379.146V4.4H381.486V9.602H388.002V4.4H390.342ZM402.538 12.248C402.538 12.404 402.526 12.626 402.502 12.914H394.96C395.092 13.622 395.434 14.186 395.986 14.606C396.55 15.014 397.246 15.218 398.074 15.218C399.13 15.218 400 14.87 400.684 14.174L401.89 15.56C401.458 16.076 400.912 16.466 400.252 16.73C399.592 16.994 398.848 17.126 398.02 17.126C396.964 17.126 396.034 16.916 395.23 16.496C394.426 16.076 393.802 15.494 393.358 14.75C392.926 13.994 392.71 13.142 392.71 12.194C392.71 11.258 392.92 10.418 393.34 9.674C393.772 8.918 394.366 8.33 395.122 7.91C395.878 7.49 396.73 7.28 397.678 7.28C398.614 7.28 399.448 7.49 400.18 7.91C400.924 8.318 401.5 8.9 401.908 9.656C402.328 10.4 402.538 11.264 402.538 12.248ZM397.678 9.08C396.958 9.08 396.346 9.296 395.842 9.728C395.35 10.148 395.05 10.712 394.942 11.42H400.396C400.3 10.724 400.006 10.16 399.514 9.728C399.022 9.296 398.41 9.08 397.678 9.08ZM410.556 17L408.09 13.67L405.606 17H403.122L406.866 12.122L403.284 7.388H405.786L408.144 10.538L410.502 7.388H412.932L409.332 12.086L413.094 17H410.556ZM418.251 7.28C419.667 7.28 420.747 7.622 421.491 8.306C422.247 8.978 422.625 9.998 422.625 11.366V17H420.501V15.83C420.225 16.25 419.829 16.574 419.313 16.802C418.809 17.018 418.197 17.126 417.477 17.126C416.757 17.126 416.127 17.006 415.587 16.766C415.047 16.514 414.627 16.172 414.327 15.74C414.039 15.296 413.895 14.798 413.895 14.246C413.895 13.382 414.213 12.692 414.849 12.176C415.497 11.648 416.511 11.384 417.891 11.384H420.375V11.24C420.375 10.568 420.171 10.052 419.763 9.692C419.367 9.332 418.773 9.152 417.981 9.152C417.441 9.152 416.907 9.236 416.379 9.404C415.863 9.572 415.425 9.806 415.065 10.106L414.183 8.468C414.687 8.084 415.293 7.79 416.001 7.586C416.709 7.382 417.459 7.28 418.251 7.28ZM417.945 15.488C418.509 15.488 419.007 15.362 419.439 15.11C419.883 14.846 420.195 14.474 420.375 13.994V12.878H418.053C416.757 12.878 416.109 13.304 416.109 14.156C416.109 14.564 416.271 14.888 416.595 15.128C416.919 15.368 417.369 15.488 417.945 15.488ZM435.14 7.388V15.542C435.14 18.926 433.412 20.618 429.956 20.618C429.032 20.618 428.156 20.498 427.328 20.258C426.5 20.03 425.816 19.694 425.276 19.25L426.284 17.558C426.704 17.906 427.232 18.182 427.868 18.386C428.516 18.602 429.17 18.71 429.83 18.71C430.886 18.71 431.66 18.47 432.152 17.99C432.644 17.51 432.89 16.778 432.89 15.794V15.29C432.506 15.71 432.038 16.028 431.486 16.244C430.934 16.46 430.328 16.568 429.668 16.568C428.756 16.568 427.928 16.376 427.184 15.992C426.452 15.596 425.87 15.044 425.438 14.336C425.018 13.628 424.808 12.818 424.808 11.906C424.808 10.994 425.018 10.19 425.438 9.494C425.87 8.786 426.452 8.24 427.184 7.856C427.928 7.472 428.756 7.28 429.668 7.28C430.364 7.28 430.994 7.394 431.558 7.622C432.134 7.85 432.614 8.198 432.998 8.666V7.388H435.14ZM430.01 14.66C430.862 14.66 431.558 14.408 432.098 13.904C432.65 13.388 432.926 12.722 432.926 11.906C432.926 11.102 432.65 10.448 432.098 9.944C431.558 9.44 430.862 9.188 430.01 9.188C429.146 9.188 428.438 9.44 427.886 9.944C427.346 10.448 427.076 11.102 427.076 11.906C427.076 12.722 427.346 13.388 427.886 13.904C428.438 14.408 429.146 14.66 430.01 14.66ZM442.418 17.126C441.446 17.126 440.57 16.916 439.79 16.496C439.01 16.076 438.398 15.494 437.954 14.75C437.522 13.994 437.306 13.142 437.306 12.194C437.306 11.246 437.522 10.4 437.954 9.656C438.398 8.912 439.01 8.33 439.79 7.91C440.57 7.49 441.446 7.28 442.418 7.28C443.402 7.28 444.284 7.49 445.064 7.91C445.844 8.33 446.45 8.912 446.882 9.656C447.326 10.4 447.548 11.246 447.548 12.194C447.548 13.142 447.326 13.994 446.882 14.75C446.45 15.494 445.844 16.076 445.064 16.496C444.284 16.916 443.402 17.126 442.418 17.126ZM442.418 15.2C443.246 15.2 443.93 14.924 444.47 14.372C445.01 13.82 445.28 13.094 445.28 12.194C445.28 11.294 445.01 10.568 444.47 10.016C443.93 9.464 443.246 9.188 442.418 9.188C441.59 9.188 440.906 9.464 440.366 10.016C439.838 10.568 439.574 11.294 439.574 12.194C439.574 13.094 439.838 13.82 440.366 14.372C440.906 14.924 441.59 15.2 442.418 15.2ZM455.154 7.28C456.366 7.28 457.338 7.634 458.07 8.342C458.802 9.05 459.168 10.1 459.168 11.492V17H456.918V11.78C456.918 10.94 456.72 10.31 456.324 9.89C455.928 9.458 455.364 9.242 454.632 9.242C453.804 9.242 453.15 9.494 452.67 9.998C452.19 10.49 451.95 11.204 451.95 12.14V17H449.7V7.388H451.842V8.63C452.214 8.186 452.682 7.85 453.246 7.622C453.81 7.394 454.446 7.28 455.154 7.28Z" fill="#2F2F2F"/>
<path d="M138.675 17.18C137.391 17.18 136.233 16.904 135.201 16.352C134.169 15.788 133.359 15.014 132.771 14.03C132.183 13.034 131.889 11.924 131.889 10.7C131.889 9.476 132.183 8.372 132.771 7.388C133.359 6.392 134.169 5.618 135.201 5.066C136.233 4.502 137.391 4.22 138.675 4.22C139.959 4.22 141.117 4.502 142.149 5.066C143.181 5.618 143.991 6.386 144.579 7.37C145.167 8.354 145.461 9.464 145.461 10.7C145.461 11.936 145.167 13.046 144.579 14.03C143.991 15.014 143.181 15.788 142.149 16.352C141.117 16.904 139.959 17.18 138.675 17.18ZM138.675 15.128C139.515 15.128 140.271 14.942 140.943 14.57C141.615 14.186 142.143 13.658 142.527 12.986C142.911 12.302 143.103 11.54 143.103 10.7C143.103 9.86 142.911 9.104 142.527 8.432C142.143 7.748 141.615 7.22 140.943 6.848C140.271 6.464 139.515 6.272 138.675 6.272C137.835 6.272 137.079 6.464 136.407 6.848C135.735 7.22 135.207 7.748 134.823 8.432C134.439 9.104 134.247 9.86 134.247 10.7C134.247 11.54 134.439 12.302 134.823 12.986C135.207 13.658 135.735 14.186 136.407 14.57C137.079 14.942 137.835 15.128 138.675 15.128ZM152.135 17.126C151.139 17.126 150.245 16.916 149.453 16.496C148.661 16.076 148.043 15.494 147.599 14.75C147.155 13.994 146.933 13.142 146.933 12.194C146.933 11.246 147.155 10.4 147.599 9.656C148.043 8.912 148.655 8.33 149.435 7.91C150.227 7.49 151.127 7.28 152.135 7.28C153.083 7.28 153.911 7.472 154.619 7.856C155.339 8.24 155.879 8.792 156.239 9.512L154.511 10.52C154.235 10.076 153.887 9.746 153.467 9.53C153.059 9.302 152.609 9.188 152.117 9.188C151.277 9.188 150.581 9.464 150.029 10.016C149.477 10.556 149.201 11.282 149.201 12.194C149.201 13.106 149.471 13.838 150.011 14.39C150.563 14.93 151.265 15.2 152.117 15.2C152.609 15.2 153.059 15.092 153.467 14.876C153.887 14.648 154.235 14.312 154.511 13.868L156.239 14.876C155.867 15.596 155.321 16.154 154.601 16.55C153.893 16.934 153.071 17.126 152.135 17.126ZM164.085 16.478C163.821 16.694 163.497 16.856 163.113 16.964C162.741 17.072 162.345 17.126 161.925 17.126C160.869 17.126 160.053 16.85 159.477 16.298C158.901 15.746 158.613 14.942 158.613 13.886V9.26H157.029V7.46H158.613V5.264H160.863V7.46H163.437V9.26H160.863V13.832C160.863 14.3 160.977 14.66 161.205 14.912C161.433 15.152 161.763 15.272 162.195 15.272C162.699 15.272 163.119 15.14 163.455 14.876L164.085 16.478ZM169.608 7.28C171.024 7.28 172.104 7.622 172.848 8.306C173.604 8.978 173.982 9.998 173.982 11.366V17H171.858V15.83C171.582 16.25 171.186 16.574 170.67 16.802C170.166 17.018 169.554 17.126 168.834 17.126C168.114 17.126 167.484 17.006 166.944 16.766C166.404 16.514 165.984 16.172 165.684 15.74C165.396 15.296 165.252 14.798 165.252 14.246C165.252 13.382 165.57 12.692 166.206 12.176C166.854 11.648 167.868 11.384 169.248 11.384H171.732V11.24C171.732 10.568 171.528 10.052 171.12 9.692C170.724 9.332 170.13 9.152 169.338 9.152C168.798 9.152 168.264 9.236 167.736 9.404C167.22 9.572 166.782 9.806 166.422 10.106L165.54 8.468C166.044 8.084 166.65 7.79 167.358 7.586C168.066 7.382 168.816 7.28 169.608 7.28ZM169.302 15.488C169.866 15.488 170.364 15.362 170.796 15.11C171.24 14.846 171.552 14.474 171.732 13.994V12.878H169.41C168.114 12.878 167.466 13.304 167.466 14.156C167.466 14.564 167.628 14.888 167.952 15.128C168.276 15.368 168.726 15.488 169.302 15.488ZM186.497 7.388V15.542C186.497 18.926 184.769 20.618 181.313 20.618C180.389 20.618 179.513 20.498 178.685 20.258C177.857 20.03 177.173 19.694 176.633 19.25L177.641 17.558C178.061 17.906 178.589 18.182 179.225 18.386C179.873 18.602 180.527 18.71 181.187 18.71C182.243 18.71 183.017 18.47 183.509 17.99C184.001 17.51 184.247 16.778 184.247 15.794V15.29C183.863 15.71 183.395 16.028 182.843 16.244C182.291 16.46 181.685 16.568 181.025 16.568C180.113 16.568 179.285 16.376 178.541 15.992C177.809 15.596 177.227 15.044 176.795 14.336C176.375 13.628 176.165 12.818 176.165 11.906C176.165 10.994 176.375 10.19 176.795 9.494C177.227 8.786 177.809 8.24 178.541 7.856C179.285 7.472 180.113 7.28 181.025 7.28C181.721 7.28 182.351 7.394 182.915 7.622C183.491 7.85 183.971 8.198 184.355 8.666V7.388H186.497ZM181.367 14.66C182.219 14.66 182.915 14.408 183.455 13.904C184.007 13.388 184.283 12.722 184.283 11.906C184.283 11.102 184.007 10.448 183.455 9.944C182.915 9.44 182.219 9.188 181.367 9.188C180.503 9.188 179.795 9.44 179.243 9.944C178.703 10.448 178.433 11.102 178.433 11.906C178.433 12.722 178.703 13.388 179.243 13.904C179.795 14.408 180.503 14.66 181.367 14.66ZM193.775 17.126C192.803 17.126 191.927 16.916 191.147 16.496C190.367 16.076 189.755 15.494 189.311 14.75C188.879 13.994 188.663 13.142 188.663 12.194C188.663 11.246 188.879 10.4 189.311 9.656C189.755 8.912 190.367 8.33 191.147 7.91C191.927 7.49 192.803 7.28 193.775 7.28C194.759 7.28 195.641 7.49 196.421 7.91C197.201 8.33 197.807 8.912 198.239 9.656C198.683 10.4 198.905 11.246 198.905 12.194C198.905 13.142 198.683 13.994 198.239 14.75C197.807 15.494 197.201 16.076 196.421 16.496C195.641 16.916 194.759 17.126 193.775 17.126ZM193.775 15.2C194.603 15.2 195.287 14.924 195.827 14.372C196.367 13.82 196.637 13.094 196.637 12.194C196.637 11.294 196.367 10.568 195.827 10.016C195.287 9.464 194.603 9.188 193.775 9.188C192.947 9.188 192.263 9.464 191.723 10.016C191.195 10.568 190.931 11.294 190.931 12.194C190.931 13.094 191.195 13.82 191.723 14.372C192.263 14.924 192.947 15.2 193.775 15.2ZM206.511 7.28C207.723 7.28 208.695 7.634 209.427 8.342C210.159 9.05 210.525 10.1 210.525 11.492V17H208.275V11.78C208.275 10.94 208.077 10.31 207.681 9.89C207.285 9.458 206.721 9.242 205.989 9.242C205.161 9.242 204.507 9.494 204.027 9.998C203.547 10.49 203.307 11.204 203.307 12.14V17H201.057V7.388H203.199V8.63C203.571 8.186 204.039 7.85 204.603 7.622C205.167 7.394 205.803 7.28 206.511 7.28Z" fill="#2F2F2F"/>
</svg>
