<svg width="684" height="90" viewBox="0 0 684 90" fill="none" xmlns="http://www.w3.org/2000/svg">
<path d="M16.808 7.422C18.608 7.422 19.928 7.764 20.768 8.448C21.62 9.12 22.046 10.044 22.046 11.22C22.046 11.964 21.866 12.636 21.506 13.236C21.158 13.824 20.624 14.292 19.904 14.64C19.196 14.976 18.32 15.144 17.276 15.144C16.388 15.144 15.53 15.012 14.702 14.748C13.874 14.472 13.19 14.094 12.65 13.614L13.478 12.192C13.91 12.6 14.462 12.93 15.134 13.182C15.806 13.422 16.514 13.542 17.258 13.542C18.206 13.542 18.938 13.344 19.454 12.948C19.982 12.54 20.246 11.988 20.246 11.292C20.246 10.536 19.958 9.966 19.382 9.582C18.806 9.186 17.822 8.988 16.43 8.988H13.568L14.234 2.4H21.344V3.966H15.746L15.404 7.422H16.808ZM32.6439 12.642C32.9799 12.642 33.2559 12.762 33.4719 13.002C33.6999 13.23 33.8139 13.518 33.8139 13.866C33.8139 14.046 33.7899 14.22 33.7419 14.388C33.7059 14.556 33.6279 14.814 33.5079 15.162L32.6619 17.664H31.5279L32.1939 14.982C31.9659 14.898 31.7799 14.76 31.6359 14.568C31.5039 14.364 31.4379 14.13 31.4379 13.866C31.4379 13.506 31.5519 13.212 31.7799 12.984C32.0079 12.756 32.2959 12.642 32.6439 12.642ZM54.372 11.904H51.978V15H50.232V11.904H43.23V10.644L49.674 2.4H51.618L45.444 10.356H50.286V7.62H51.978V10.356H54.372V11.904ZM71.049 8.394C71.769 8.67 72.321 9.066 72.705 9.582C73.089 10.098 73.281 10.716 73.281 11.436C73.281 12.192 73.077 12.852 72.669 13.416C72.261 13.968 71.679 14.394 70.923 14.694C70.167 14.994 69.279 15.144 68.259 15.144C67.251 15.144 66.369 14.994 65.613 14.694C64.869 14.394 64.293 13.968 63.885 13.416C63.477 12.852 63.273 12.192 63.273 11.436C63.273 10.716 63.459 10.098 63.831 9.582C64.215 9.066 64.767 8.67 65.487 8.394C64.911 8.118 64.473 7.752 64.173 7.296C63.873 6.84 63.723 6.3 63.723 5.676C63.723 4.98 63.909 4.374 64.281 3.858C64.665 3.342 65.199 2.946 65.883 2.67C66.567 2.394 67.359 2.256 68.259 2.256C69.171 2.256 69.969 2.394 70.653 2.67C71.349 2.946 71.883 3.342 72.255 3.858C72.639 4.374 72.831 4.98 72.831 5.676C72.831 6.288 72.675 6.828 72.363 7.296C72.063 7.752 71.625 8.118 71.049 8.394ZM68.259 3.714C67.407 3.714 66.735 3.9 66.243 4.272C65.751 4.632 65.505 5.124 65.505 5.748C65.505 6.372 65.745 6.864 66.225 7.224C66.717 7.584 67.395 7.764 68.259 7.764C69.135 7.764 69.819 7.584 70.311 7.224C70.815 6.864 71.067 6.372 71.067 5.748C71.067 5.124 70.809 4.632 70.293 4.272C69.789 3.9 69.111 3.714 68.259 3.714ZM68.259 13.686C69.255 13.686 70.041 13.482 70.617 13.074C71.193 12.654 71.481 12.09 71.481 11.382C71.481 10.686 71.193 10.14 70.617 9.744C70.041 9.336 69.255 9.132 68.259 9.132C67.263 9.132 66.483 9.336 65.919 9.744C65.355 10.14 65.073 10.686 65.073 11.382C65.073 12.09 65.355 12.654 65.919 13.074C66.483 13.482 67.263 13.686 68.259 13.686ZM93.785 11.904H91.391V15H89.645V11.904H82.643V10.644L89.087 2.4H91.031L84.857 10.356H89.699V7.62H91.391V10.356H93.785V11.904ZM55.6904 37.904H53.2964V41H51.5504V37.904H44.5484V36.644L50.9924 28.4H52.9364L46.7624 36.356H51.6044V33.62H53.2964V36.356H55.6904V37.904ZM69.4874 33.692C70.7234 33.812 71.6654 34.196 72.3134 34.844C72.9614 35.48 73.2854 36.296 73.2854 37.292C73.2854 38.012 73.1054 38.666 72.7454 39.254C72.3854 39.83 71.8454 40.292 71.1254 40.64C70.4174 40.976 69.5474 41.144 68.5154 41.144C67.6154 41.144 66.7514 41.012 65.9234 40.748C65.0954 40.472 64.4174 40.094 63.8894 39.614L64.7174 38.192C65.1494 38.6 65.7014 38.93 66.3734 39.182C67.0454 39.422 67.7594 39.542 68.5154 39.542C69.4514 39.542 70.1774 39.344 70.6934 38.948C71.2214 38.552 71.4854 38.006 71.4854 37.31C71.4854 36.614 71.2274 36.074 70.7114 35.69C70.1954 35.306 69.4154 35.114 68.3714 35.114H67.3634V33.854L70.5314 29.966H64.4654V28.4H72.7814V29.624L69.4874 33.692ZM88.0061 41.144C87.0101 41.144 86.1221 40.892 85.3421 40.388C84.5741 39.872 83.9681 39.128 83.5241 38.156C83.0801 37.184 82.8581 36.032 82.8581 34.7C82.8581 33.368 83.0801 32.216 83.5241 31.244C83.9681 30.272 84.5741 29.534 85.3421 29.03C86.1221 28.514 87.0101 28.256 88.0061 28.256C88.9901 28.256 89.8661 28.514 90.6341 29.03C91.4141 29.534 92.0261 30.272 92.4701 31.244C92.9141 32.216 93.1361 33.368 93.1361 34.7C93.1361 36.032 92.9141 37.184 92.4701 38.156C92.0261 39.128 91.4141 39.872 90.6341 40.388C89.8661 40.892 88.9901 41.144 88.0061 41.144ZM88.0061 39.542C89.0141 39.542 89.8181 39.128 90.4181 38.3C91.0301 37.472 91.3361 36.272 91.3361 34.7C91.3361 33.128 91.0301 31.928 90.4181 31.1C89.8181 30.272 89.0141 29.858 88.0061 29.858C86.9861 29.858 86.1701 30.272 85.5581 31.1C84.9581 31.928 84.6581 33.128 84.6581 34.7C84.6581 36.272 84.9581 37.472 85.5581 38.3C86.1701 39.128 86.9861 39.542 88.0061 39.542Z" fill="#2F2F2F"/>
<path d="M33.1553 73.422C34.9553 73.422 36.2753 73.764 37.1153 74.448C37.9673 75.12 38.3933 76.044 38.3933 77.22C38.3933 77.964 38.2133 78.636 37.8532 79.236C37.5053 79.824 36.9713 80.292 36.2513 80.64C35.5433 80.976 34.6673 81.144 33.6233 81.144C32.7352 81.144 31.8772 81.012 31.0493 80.748C30.2212 80.472 29.5372 80.094 28.9972 79.614L29.8252 78.192C30.2572 78.6 30.8092 78.93 31.4812 79.182C32.1532 79.422 32.8612 79.542 33.6052 79.542C34.5533 79.542 35.2853 79.344 35.8013 78.948C36.3293 78.54 36.5933 77.988 36.5933 77.292C36.5933 76.536 36.3053 75.966 35.7293 75.582C35.1533 75.186 34.1693 74.988 32.7773 74.988H29.9152L30.5812 68.4H37.6912V69.966H32.0933L31.7512 73.422H33.1553ZM46.5692 81.144C45.5732 81.144 44.6852 80.892 43.9052 80.388C43.1372 79.872 42.5312 79.128 42.0872 78.156C41.6432 77.184 41.4212 76.032 41.4212 74.7C41.4212 73.368 41.6432 72.216 42.0872 71.244C42.5312 70.272 43.1372 69.534 43.9052 69.03C44.6852 68.514 45.5732 68.256 46.5692 68.256C47.5532 68.256 48.4292 68.514 49.1972 69.03C49.9772 69.534 50.5892 70.272 51.0332 71.244C51.4772 72.216 51.6992 73.368 51.6992 74.7C51.6992 76.032 51.4772 77.184 51.0332 78.156C50.5892 79.128 49.9772 79.872 49.1972 80.388C48.4292 80.892 47.5532 81.144 46.5692 81.144ZM46.5692 79.542C47.5772 79.542 48.3812 79.128 48.9812 78.3C49.5932 77.472 49.8992 76.272 49.8992 74.7C49.8992 73.128 49.5932 71.928 48.9812 71.1C48.3812 70.272 47.5772 69.858 46.5692 69.858C45.5492 69.858 44.7332 70.272 44.1212 71.1C43.5212 71.928 43.2212 73.128 43.2212 74.7C43.2212 76.272 43.5212 77.472 44.1212 78.3C44.7332 79.128 45.5492 79.542 46.5692 79.542ZM58.557 73.422C60.357 73.422 61.677 73.764 62.517 74.448C63.369 75.12 63.795 76.044 63.795 77.22C63.795 77.964 63.615 78.636 63.255 79.236C62.907 79.824 62.373 80.292 61.653 80.64C60.945 80.976 60.069 81.144 59.025 81.144C58.137 81.144 57.279 81.012 56.451 80.748C55.623 80.472 54.939 80.094 54.399 79.614L55.227 78.192C55.659 78.6 56.211 78.93 56.883 79.182C57.555 79.422 58.263 79.542 59.007 79.542C59.955 79.542 60.687 79.344 61.203 78.948C61.731 78.54 61.995 77.988 61.995 77.292C61.995 76.536 61.707 75.966 61.131 75.582C60.555 75.186 59.571 74.988 58.179 74.988H55.317L55.983 68.4H63.093V69.966H57.495L57.153 73.422H58.557ZM77.785 77.904H75.391V81H73.645V77.904H66.643V76.644L73.087 68.4H75.031L68.857 76.356H73.699V73.62H75.391V76.356H77.785V77.904Z" fill="#2F2F2F"/>
<path d="M631.991 68.4V69.624L626.897 81H624.989L629.975 69.966H624.215V72.216H622.487V68.4H631.991ZM644.279 68.4V69.624L639.185 81H637.277L642.263 69.966H636.503V72.216H634.775V68.4H644.279ZM651.469 68.4V81H649.687V69.966H646.843V68.4H651.469ZM661.191 73.35C662.019 73.35 662.757 73.506 663.405 73.818C664.065 74.13 664.581 74.58 664.953 75.168C665.325 75.744 665.511 76.41 665.511 77.166C665.511 77.958 665.313 78.654 664.917 79.254C664.533 79.854 663.999 80.322 663.315 80.658C662.643 80.982 661.887 81.144 661.047 81.144C659.355 81.144 658.047 80.598 657.123 79.506C656.211 78.414 655.755 76.866 655.755 74.862C655.755 73.458 656.001 72.264 656.493 71.28C656.997 70.284 657.693 69.534 658.581 69.03C659.481 68.514 660.525 68.256 661.713 68.256C662.325 68.256 662.901 68.322 663.441 68.454C663.981 68.574 664.449 68.754 664.845 68.994L664.161 70.398C663.561 70.002 662.757 69.804 661.749 69.804C660.441 69.804 659.415 70.212 658.671 71.028C657.927 71.832 657.555 73.008 657.555 74.556C657.555 74.748 657.561 74.898 657.573 75.006C657.933 74.466 658.425 74.058 659.049 73.782C659.685 73.494 660.399 73.35 661.191 73.35ZM660.975 79.686C661.803 79.686 662.475 79.464 662.991 79.02C663.507 78.576 663.765 77.982 663.765 77.238C663.765 76.494 663.501 75.906 662.973 75.474C662.457 75.03 661.761 74.808 660.885 74.808C660.321 74.808 659.817 74.916 659.373 75.132C658.941 75.348 658.599 75.642 658.347 76.014C658.107 76.386 657.987 76.8 657.987 77.256C657.987 77.7 658.101 78.108 658.329 78.48C658.569 78.84 658.911 79.134 659.355 79.362C659.811 79.578 660.351 79.686 660.975 79.686Z" fill="#2F2F2F"/>
<path d="M432.212 79.434V81H423.158V79.776L428.288 74.826C428.912 74.226 429.332 73.71 429.548 73.278C429.764 72.834 429.872 72.39 429.872 71.946C429.872 71.286 429.638 70.776 429.17 70.416C428.714 70.044 428.054 69.858 427.19 69.858C425.798 69.858 424.724 70.314 423.968 71.226L422.744 70.164C423.236 69.564 423.878 69.096 424.67 68.76C425.474 68.424 426.368 68.256 427.352 68.256C428.672 68.256 429.722 68.574 430.502 69.21C431.282 69.834 431.672 70.686 431.672 71.766C431.672 72.438 431.528 73.074 431.24 73.674C430.952 74.274 430.406 74.958 429.602 75.726L425.75 79.434H432.212ZM439.308 68.256C441 68.256 442.302 68.802 443.214 69.894C444.138 70.986 444.6 72.534 444.6 74.538C444.6 75.942 444.348 77.142 443.844 78.138C443.352 79.122 442.656 79.872 441.756 80.388C440.868 80.892 439.83 81.144 438.642 81.144C438.03 81.144 437.454 81.084 436.914 80.964C436.374 80.832 435.906 80.646 435.51 80.406L436.194 79.002C436.806 79.398 437.616 79.596 438.624 79.596C439.932 79.596 440.952 79.194 441.684 78.39C442.428 77.574 442.8 76.392 442.8 74.844V74.394C442.44 74.934 441.942 75.348 441.306 75.636C440.67 75.912 439.956 76.05 439.164 76.05C438.336 76.05 437.592 75.894 436.932 75.582C436.284 75.27 435.774 74.826 435.402 74.25C435.042 73.662 434.862 72.99 434.862 72.234C434.862 71.442 435.054 70.746 435.438 70.146C435.834 69.546 436.368 69.084 437.04 68.76C437.712 68.424 438.468 68.256 439.308 68.256ZM439.47 74.592C440.034 74.592 440.538 74.484 440.982 74.268C441.426 74.052 441.768 73.758 442.008 73.386C442.26 73.014 442.386 72.6 442.386 72.144C442.386 71.7 442.266 71.298 442.026 70.938C441.798 70.566 441.456 70.272 441 70.056C440.556 69.828 440.016 69.714 439.38 69.714C438.552 69.714 437.88 69.936 437.364 70.38C436.86 70.824 436.608 71.418 436.608 72.162C436.608 72.906 436.866 73.5 437.382 73.944C437.898 74.376 438.594 74.592 439.47 74.592ZM456.918 68.4V69.624L451.824 81H449.916L454.902 69.966H449.142V72.216H447.414V68.4H456.918ZM464.108 68.4V81H462.326V69.966H459.482V68.4H464.108Z" fill="#2F2F2F"/>
<path d="M240.392 68.4V69.624L235.297 81H233.39L238.376 69.966H232.615V72.216H230.887V68.4H240.392ZM248.296 81.144C247.3 81.144 246.412 80.892 245.632 80.388C244.864 79.872 244.258 79.128 243.814 78.156C243.37 77.184 243.148 76.032 243.148 74.7C243.148 73.368 243.37 72.216 243.814 71.244C244.258 70.272 244.864 69.534 245.632 69.03C246.412 68.514 247.3 68.256 248.296 68.256C249.28 68.256 250.156 68.514 250.924 69.03C251.704 69.534 252.316 70.272 252.76 71.244C253.204 72.216 253.426 73.368 253.426 74.7C253.426 76.032 253.204 77.184 252.76 78.156C252.316 79.128 251.704 79.872 250.924 80.388C250.156 80.892 249.28 81.144 248.296 81.144ZM248.296 79.542C249.304 79.542 250.108 79.128 250.708 78.3C251.32 77.472 251.626 76.272 251.626 74.7C251.626 73.128 251.32 71.928 250.708 71.1C250.108 70.272 249.304 69.858 248.296 69.858C247.276 69.858 246.46 70.272 245.848 71.1C245.248 71.928 244.948 73.128 244.948 74.7C244.948 76.272 245.248 77.472 245.848 78.3C246.46 79.128 247.276 79.542 248.296 79.542ZM260.537 68.4V81H258.755V69.966H255.911V68.4H260.537ZM275.785 77.904H273.391V81H271.645V77.904H264.643V76.644L271.087 68.4H273.031L266.857 76.356H271.699V73.62H273.391V76.356H275.785V77.904Z" fill="#2F2F2F"/>
<path d="M1.13538 17.312H5.97738V18.806H1.13538V17.312Z" fill="#2F2F2F"/>
<path d="M11 61H89V59H11V61ZM93 65V85H95V65H93ZM89 89H11V91H89V89ZM7 85V65H5V85H7ZM11 89C8.79086 89 7 87.2091 7 85H5C5 88.3137 7.68629 91 11 91V89ZM93 85C93 87.2091 91.2091 89 89 89V91C92.3137 91 95 88.3137 95 85H93ZM89 61C91.2091 61 93 62.7909 93 65H95C95 61.6863 92.3137 59 89 59V61ZM11 59C7.68629 59 5 61.6863 5 65H7C7 62.7909 8.79086 61 11 61V59Z" fill="#2F2F2F"/>
<line x1="6" y1="51.5" x2="94" y2="51.5" stroke="#3C3C3C"/>
<path d="M220.599 7.35C221.427 7.35 222.165 7.506 222.813 7.818C223.473 8.13 223.989 8.58 224.361 9.168C224.733 9.744 224.919 10.41 224.919 11.166C224.919 11.958 224.721 12.654 224.325 13.254C223.941 13.854 223.407 14.322 222.723 14.658C222.051 14.982 221.295 15.144 220.455 15.144C218.763 15.144 217.455 14.598 216.531 13.506C215.619 12.414 215.163 10.866 215.163 8.862C215.163 7.458 215.409 6.264 215.901 5.28C216.405 4.284 217.101 3.534 217.989 3.03C218.889 2.514 219.933 2.256 221.121 2.256C221.733 2.256 222.309 2.322 222.849 2.454C223.389 2.574 223.857 2.754 224.253 2.994L223.569 4.398C222.969 4.002 222.165 3.804 221.157 3.804C219.849 3.804 218.823 4.212 218.079 5.028C217.335 5.832 216.963 7.008 216.963 8.556C216.963 8.748 216.969 8.898 216.981 9.006C217.341 8.466 217.833 8.058 218.457 7.782C219.093 7.494 219.807 7.35 220.599 7.35ZM220.383 13.686C221.211 13.686 221.883 13.464 222.399 13.02C222.915 12.576 223.173 11.982 223.173 11.238C223.173 10.494 222.909 9.906 222.381 9.474C221.865 9.03 221.169 8.808 220.293 8.808C219.729 8.808 219.225 8.916 218.781 9.132C218.349 9.348 218.007 9.642 217.755 10.014C217.515 10.386 217.395 10.8 217.395 11.256C217.395 11.7 217.509 12.108 217.737 12.48C217.977 12.84 218.319 13.134 218.763 13.362C219.219 13.578 219.759 13.686 220.383 13.686ZM235.372 12.642C235.708 12.642 235.984 12.762 236.2 13.002C236.428 13.23 236.542 13.518 236.542 13.866C236.542 14.046 236.518 14.22 236.47 14.388C236.434 14.556 236.356 14.814 236.236 15.162L235.39 17.664H234.256L234.922 14.982C234.694 14.898 234.508 14.76 234.364 14.568C234.232 14.364 234.166 14.13 234.166 13.866C234.166 13.506 234.28 13.212 234.508 12.984C234.736 12.756 235.024 12.642 235.372 12.642ZM250.963 7.692C252.199 7.812 253.141 8.196 253.789 8.844C254.437 9.48 254.761 10.296 254.761 11.292C254.761 12.012 254.581 12.666 254.221 13.254C253.861 13.83 253.321 14.292 252.601 14.64C251.893 14.976 251.023 15.144 249.991 15.144C249.091 15.144 248.227 15.012 247.399 14.748C246.571 14.472 245.893 14.094 245.365 13.614L246.193 12.192C246.625 12.6 247.177 12.93 247.849 13.182C248.521 13.422 249.235 13.542 249.991 13.542C250.927 13.542 251.653 13.344 252.169 12.948C252.697 12.552 252.961 12.006 252.961 11.31C252.961 10.614 252.703 10.074 252.187 9.69C251.671 9.306 250.891 9.114 249.847 9.114H248.839V7.854L252.007 3.966H245.941V2.4H254.257V3.624L250.963 7.692ZM269.157 7.692C270.393 7.812 271.335 8.196 271.983 8.844C272.631 9.48 272.955 10.296 272.955 11.292C272.955 12.012 272.775 12.666 272.415 13.254C272.055 13.83 271.515 14.292 270.795 14.64C270.087 14.976 269.217 15.144 268.185 15.144C267.285 15.144 266.421 15.012 265.593 14.748C264.765 14.472 264.087 14.094 263.559 13.614L264.387 12.192C264.819 12.6 265.371 12.93 266.043 13.182C266.715 13.422 267.429 13.542 268.185 13.542C269.121 13.542 269.847 13.344 270.363 12.948C270.891 12.552 271.155 12.006 271.155 11.31C271.155 10.614 270.897 10.074 270.381 9.69C269.865 9.306 269.085 9.114 268.041 9.114H267.033V7.854L270.201 3.966H264.135V2.4H272.451V3.624L269.157 7.692ZM291.384 13.434V15H282.33V13.776L287.46 8.826C288.084 8.226 288.504 7.71 288.72 7.278C288.936 6.834 289.044 6.39 289.044 5.946C289.044 5.286 288.81 4.776 288.342 4.416C287.886 4.044 287.226 3.858 286.362 3.858C284.97 3.858 283.896 4.314 283.14 5.226L281.916 4.164C282.408 3.564 283.05 3.096 283.842 2.76C284.646 2.424 285.54 2.256 286.524 2.256C287.844 2.256 288.894 2.574 289.674 3.21C290.454 3.834 290.844 4.686 290.844 5.766C290.844 6.438 290.7 7.074 290.412 7.674C290.124 8.274 289.578 8.958 288.774 9.726L284.922 13.434H291.384ZM249.483 33.35C250.311 33.35 251.049 33.506 251.697 33.818C252.357 34.13 252.873 34.58 253.245 35.168C253.617 35.744 253.803 36.41 253.803 37.166C253.803 37.958 253.605 38.654 253.209 39.254C252.825 39.854 252.291 40.322 251.607 40.658C250.935 40.982 250.179 41.144 249.339 41.144C247.647 41.144 246.339 40.598 245.415 39.506C244.503 38.414 244.047 36.866 244.047 34.862C244.047 33.458 244.293 32.264 244.785 31.28C245.289 30.284 245.985 29.534 246.873 29.03C247.773 28.514 248.817 28.256 250.005 28.256C250.617 28.256 251.193 28.322 251.733 28.454C252.273 28.574 252.741 28.754 253.137 28.994L252.453 30.398C251.853 30.002 251.049 29.804 250.041 29.804C248.733 29.804 247.707 30.212 246.963 31.028C246.219 31.832 245.847 33.008 245.847 34.556C245.847 34.748 245.853 34.898 245.865 35.006C246.225 34.466 246.717 34.058 247.341 33.782C247.977 33.494 248.691 33.35 249.483 33.35ZM249.267 39.686C250.095 39.686 250.767 39.464 251.283 39.02C251.799 38.576 252.057 37.982 252.057 37.238C252.057 36.494 251.793 35.906 251.265 35.474C250.749 35.03 250.053 34.808 249.177 34.808C248.613 34.808 248.109 34.916 247.665 35.132C247.233 35.348 246.891 35.642 246.639 36.014C246.399 36.386 246.279 36.8 246.279 37.256C246.279 37.7 246.393 38.108 246.621 38.48C246.861 38.84 247.203 39.134 247.647 39.362C248.103 39.578 248.643 39.686 249.267 39.686ZM270.754 34.394C271.474 34.67 272.026 35.066 272.41 35.582C272.794 36.098 272.986 36.716 272.986 37.436C272.986 38.192 272.782 38.852 272.374 39.416C271.966 39.968 271.384 40.394 270.628 40.694C269.872 40.994 268.984 41.144 267.964 41.144C266.956 41.144 266.074 40.994 265.318 40.694C264.574 40.394 263.998 39.968 263.59 39.416C263.182 38.852 262.978 38.192 262.978 37.436C262.978 36.716 263.164 36.098 263.536 35.582C263.92 35.066 264.472 34.67 265.192 34.394C264.616 34.118 264.178 33.752 263.878 33.296C263.578 32.84 263.428 32.3 263.428 31.676C263.428 30.98 263.614 30.374 263.986 29.858C264.37 29.342 264.904 28.946 265.588 28.67C266.272 28.394 267.064 28.256 267.964 28.256C268.876 28.256 269.674 28.394 270.358 28.67C271.054 28.946 271.588 29.342 271.96 29.858C272.344 30.374 272.536 30.98 272.536 31.676C272.536 32.288 272.38 32.828 272.068 33.296C271.768 33.752 271.33 34.118 270.754 34.394ZM267.964 29.714C267.112 29.714 266.44 29.9 265.948 30.272C265.456 30.632 265.21 31.124 265.21 31.748C265.21 32.372 265.45 32.864 265.93 33.224C266.422 33.584 267.1 33.764 267.964 33.764C268.84 33.764 269.524 33.584 270.016 33.224C270.52 32.864 270.772 32.372 270.772 31.748C270.772 31.124 270.514 30.632 269.998 30.272C269.494 29.9 268.816 29.714 267.964 29.714ZM267.964 39.686C268.96 39.686 269.746 39.482 270.322 39.074C270.898 38.654 271.186 38.09 271.186 37.382C271.186 36.686 270.898 36.14 270.322 35.744C269.746 35.336 268.96 35.132 267.964 35.132C266.968 35.132 266.188 35.336 265.624 35.744C265.06 36.14 264.778 36.686 264.778 37.382C264.778 38.09 265.06 38.654 265.624 39.074C266.188 39.482 266.968 39.686 267.964 39.686ZM291.384 39.434V41H282.33V39.776L287.46 34.826C288.084 34.226 288.504 33.71 288.72 33.278C288.936 32.834 289.044 32.39 289.044 31.946C289.044 31.286 288.81 30.776 288.342 30.416C287.886 30.044 287.226 29.858 286.362 29.858C284.97 29.858 283.896 30.314 283.14 31.226L281.916 30.164C282.408 29.564 283.05 29.096 283.842 28.76C284.646 28.424 285.54 28.256 286.524 28.256C287.844 28.256 288.894 28.574 289.674 29.21C290.454 29.834 290.844 30.686 290.844 31.766C290.844 32.438 290.7 33.074 290.412 33.674C290.124 34.274 289.578 34.958 288.774 35.726L284.922 39.434H291.384Z" fill="#2F2F2F"/>
<path d="M203.793 17.42H200.517V20.642H199.005V17.42H195.729V15.998H199.005V12.758H200.517V15.998H203.793V17.42Z" fill="#2F2F2F"/>
<path d="M209 61H287V59H209V61ZM291 65V85H293V65H291ZM287 89H209V91H287V89ZM205 85V65H203V85H205ZM209 89C206.791 89 205 87.2091 205 85H203C203 88.3137 205.686 91 209 91V89ZM291 85C291 87.2091 289.209 89 287 89V91C290.314 91 293 88.3137 293 85H291ZM287 61C289.209 61 291 62.7909 291 65H293C293 61.6863 290.314 59 287 59V61ZM209 59C205.686 59 203 61.6863 203 65H205C205 62.7909 206.791 61 209 61V59Z" fill="#2F2F2F"/>
<line x1="204" y1="51.5" x2="292" y2="51.5" stroke="#3C3C3C"/>
<path d="M413.369 7.35C414.197 7.35 414.935 7.506 415.583 7.818C416.243 8.13 416.759 8.58 417.131 9.168C417.503 9.744 417.689 10.41 417.689 11.166C417.689 11.958 417.491 12.654 417.095 13.254C416.711 13.854 416.177 14.322 415.493 14.658C414.821 14.982 414.065 15.144 413.225 15.144C411.533 15.144 410.225 14.598 409.301 13.506C408.389 12.414 407.933 10.866 407.933 8.862C407.933 7.458 408.179 6.264 408.671 5.28C409.175 4.284 409.871 3.534 410.759 3.03C411.659 2.514 412.703 2.256 413.891 2.256C414.503 2.256 415.079 2.322 415.619 2.454C416.159 2.574 416.627 2.754 417.023 2.994L416.339 4.398C415.739 4.002 414.935 3.804 413.927 3.804C412.619 3.804 411.593 4.212 410.849 5.028C410.105 5.832 409.733 7.008 409.733 8.556C409.733 8.748 409.739 8.898 409.751 9.006C410.111 8.466 410.603 8.058 411.227 7.782C411.863 7.494 412.577 7.35 413.369 7.35ZM413.153 13.686C413.981 13.686 414.653 13.464 415.169 13.02C415.685 12.576 415.943 11.982 415.943 11.238C415.943 10.494 415.679 9.906 415.151 9.474C414.635 9.03 413.939 8.808 413.063 8.808C412.499 8.808 411.995 8.916 411.551 9.132C411.119 9.348 410.777 9.642 410.525 10.014C410.285 10.386 410.165 10.8 410.165 11.256C410.165 11.7 410.279 12.108 410.507 12.48C410.747 12.84 411.089 13.134 411.533 13.362C411.989 13.578 412.529 13.686 413.153 13.686ZM428.142 12.642C428.478 12.642 428.754 12.762 428.97 13.002C429.198 13.23 429.312 13.518 429.312 13.866C429.312 14.046 429.288 14.22 429.24 14.388C429.204 14.556 429.126 14.814 429.006 15.162L428.16 17.664H427.026L427.692 14.982C427.464 14.898 427.278 14.76 427.134 14.568C427.002 14.364 426.936 14.13 426.936 13.866C426.936 13.506 427.05 13.212 427.278 12.984C427.506 12.756 427.794 12.642 428.142 12.642ZM448.088 2.4V3.624L442.994 15H441.086L446.072 3.966H440.312V6.216H438.584V2.4H448.088ZM462.384 7.692C463.62 7.812 464.562 8.196 465.21 8.844C465.858 9.48 466.182 10.296 466.182 11.292C466.182 12.012 466.002 12.666 465.642 13.254C465.282 13.83 464.742 14.292 464.022 14.64C463.314 14.976 462.444 15.144 461.412 15.144C460.512 15.144 459.648 15.012 458.82 14.748C457.992 14.472 457.314 14.094 456.786 13.614L457.614 12.192C458.046 12.6 458.598 12.93 459.27 13.182C459.942 13.422 460.656 13.542 461.412 13.542C462.348 13.542 463.074 13.344 463.59 12.948C464.118 12.552 464.382 12.006 464.382 11.31C464.382 10.614 464.124 10.074 463.608 9.69C463.092 9.306 462.312 9.114 461.268 9.114H460.26V7.854L463.428 3.966H457.362V2.4H465.678V3.624L462.384 7.692ZM479.841 2.256C481.533 2.256 482.835 2.802 483.747 3.894C484.671 4.986 485.133 6.534 485.133 8.538C485.133 9.942 484.881 11.142 484.377 12.138C483.885 13.122 483.189 13.872 482.289 14.388C481.401 14.892 480.363 15.144 479.175 15.144C478.563 15.144 477.987 15.084 477.447 14.964C476.907 14.832 476.439 14.646 476.043 14.406L476.727 13.002C477.339 13.398 478.149 13.596 479.157 13.596C480.465 13.596 481.485 13.194 482.217 12.39C482.961 11.574 483.333 10.392 483.333 8.844V8.394C482.973 8.934 482.475 9.348 481.839 9.636C481.203 9.912 480.489 10.05 479.697 10.05C478.869 10.05 478.125 9.894 477.465 9.582C476.817 9.27 476.307 8.826 475.935 8.25C475.575 7.662 475.395 6.99 475.395 6.234C475.395 5.442 475.587 4.746 475.971 4.146C476.367 3.546 476.901 3.084 477.573 2.76C478.245 2.424 479.001 2.256 479.841 2.256ZM480.003 8.592C480.567 8.592 481.071 8.484 481.515 8.268C481.959 8.052 482.301 7.758 482.541 7.386C482.793 7.014 482.919 6.6 482.919 6.144C482.919 5.7 482.799 5.298 482.559 4.938C482.331 4.566 481.989 4.272 481.533 4.056C481.089 3.828 480.549 3.714 479.913 3.714C479.085 3.714 478.413 3.936 477.897 4.38C477.393 4.824 477.141 5.418 477.141 6.162C477.141 6.906 477.399 7.5 477.915 7.944C478.431 8.376 479.127 8.592 480.003 8.592ZM412.282 33.692C413.518 33.812 414.46 34.196 415.108 34.844C415.756 35.48 416.08 36.296 416.08 37.292C416.08 38.012 415.9 38.666 415.54 39.254C415.18 39.83 414.64 40.292 413.92 40.64C413.212 40.976 412.342 41.144 411.31 41.144C410.41 41.144 409.546 41.012 408.718 40.748C407.89 40.472 407.212 40.094 406.684 39.614L407.512 38.192C407.944 38.6 408.496 38.93 409.168 39.182C409.84 39.422 410.554 39.542 411.31 39.542C412.246 39.542 412.972 39.344 413.488 38.948C414.016 38.552 414.28 38.006 414.28 37.31C414.28 36.614 414.022 36.074 413.506 35.69C412.99 35.306 412.21 35.114 411.166 35.114H410.158V33.854L413.326 29.966H407.26V28.4H415.576V29.624L412.282 33.692ZM426.859 38.642C427.195 38.642 427.471 38.762 427.687 39.002C427.915 39.23 428.029 39.518 428.029 39.866C428.029 40.046 428.005 40.22 427.957 40.388C427.921 40.556 427.843 40.814 427.723 41.162L426.877 43.664H425.743L426.409 40.982C426.181 40.898 425.995 40.76 425.851 40.568C425.719 40.364 425.653 40.13 425.653 39.866C425.653 39.506 425.767 39.212 425.995 38.984C426.223 38.756 426.511 38.642 426.859 38.642ZM446.805 28.4V29.624L441.711 41H439.803L444.789 29.966H439.029V32.216H437.301V28.4H446.805ZM461.713 33.35C462.541 33.35 463.279 33.506 463.927 33.818C464.587 34.13 465.103 34.58 465.475 35.168C465.847 35.744 466.033 36.41 466.033 37.166C466.033 37.958 465.835 38.654 465.439 39.254C465.055 39.854 464.521 40.322 463.837 40.658C463.165 40.982 462.409 41.144 461.569 41.144C459.877 41.144 458.569 40.598 457.645 39.506C456.733 38.414 456.277 36.866 456.277 34.862C456.277 33.458 456.523 32.264 457.015 31.28C457.519 30.284 458.215 29.534 459.103 29.03C460.003 28.514 461.047 28.256 462.235 28.256C462.847 28.256 463.423 28.322 463.963 28.454C464.503 28.574 464.971 28.754 465.367 28.994L464.683 30.398C464.083 30.002 463.279 29.804 462.271 29.804C460.963 29.804 459.937 30.212 459.193 31.028C458.449 31.832 458.077 33.008 458.077 34.556C458.077 34.748 458.083 34.898 458.095 35.006C458.455 34.466 458.947 34.058 459.571 33.782C460.207 33.494 460.921 33.35 461.713 33.35ZM461.497 39.686C462.325 39.686 462.997 39.464 463.513 39.02C464.029 38.576 464.287 37.982 464.287 37.238C464.287 36.494 464.023 35.906 463.495 35.474C462.979 35.03 462.283 34.808 461.407 34.808C460.843 34.808 460.339 34.916 459.895 35.132C459.463 35.348 459.121 35.642 458.869 36.014C458.629 36.386 458.509 36.8 458.509 37.256C458.509 37.7 458.623 38.108 458.851 38.48C459.091 38.84 459.433 39.134 459.877 39.362C460.333 39.578 460.873 39.686 461.497 39.686ZM482.984 34.394C483.704 34.67 484.256 35.066 484.64 35.582C485.024 36.098 485.216 36.716 485.216 37.436C485.216 38.192 485.012 38.852 484.604 39.416C484.196 39.968 483.614 40.394 482.858 40.694C482.102 40.994 481.214 41.144 480.194 41.144C479.186 41.144 478.304 40.994 477.548 40.694C476.804 40.394 476.228 39.968 475.82 39.416C475.412 38.852 475.208 38.192 475.208 37.436C475.208 36.716 475.394 36.098 475.766 35.582C476.15 35.066 476.702 34.67 477.422 34.394C476.846 34.118 476.408 33.752 476.108 33.296C475.808 32.84 475.658 32.3 475.658 31.676C475.658 30.98 475.844 30.374 476.216 29.858C476.6 29.342 477.134 28.946 477.818 28.67C478.502 28.394 479.294 28.256 480.194 28.256C481.106 28.256 481.904 28.394 482.588 28.67C483.284 28.946 483.818 29.342 484.19 29.858C484.574 30.374 484.766 30.98 484.766 31.676C484.766 32.288 484.61 32.828 484.298 33.296C483.998 33.752 483.56 34.118 482.984 34.394ZM480.194 29.714C479.342 29.714 478.67 29.9 478.178 30.272C477.686 30.632 477.44 31.124 477.44 31.748C477.44 32.372 477.68 32.864 478.16 33.224C478.652 33.584 479.33 33.764 480.194 33.764C481.07 33.764 481.754 33.584 482.246 33.224C482.75 32.864 483.002 32.372 483.002 31.748C483.002 31.124 482.744 30.632 482.228 30.272C481.724 29.9 481.046 29.714 480.194 29.714ZM480.194 39.686C481.19 39.686 481.976 39.482 482.552 39.074C483.128 38.654 483.416 38.09 483.416 37.382C483.416 36.686 483.128 36.14 482.552 35.744C481.976 35.336 481.19 35.132 480.194 35.132C479.198 35.132 478.418 35.336 477.854 35.744C477.29 36.14 477.008 36.686 477.008 37.382C477.008 38.09 477.29 38.654 477.854 39.074C478.418 39.482 479.198 39.686 480.194 39.686Z" fill="#2F2F2F"/>
<path d="M393.135 17.312H397.977V18.806H393.135V17.312Z" fill="#2F2F2F"/>
<path d="M403 61H481V59H403V61ZM485 65V85H487V65H485ZM481 89H403V91H481V89ZM399 85V65H397V85H399ZM403 89C400.791 89 399 87.2091 399 85H397C397 88.3137 399.686 91 403 91V89ZM485 85C485 87.2091 483.209 89 481 89V91C484.314 91 487 88.3137 487 85H485ZM481 61C483.209 61 485 62.7909 485 65H487C487 61.6863 484.314 59 481 59V61ZM403 59C399.686 59 397 61.6863 397 65H399C399 62.7909 400.791 61 403 61V59Z" fill="#2F2F2F"/>
<line x1="398" y1="51.5" x2="486" y2="51.5" stroke="#3C3C3C"/>
<path d="M613.347 13.434V15H604.293V13.776L609.423 8.826C610.047 8.226 610.467 7.71 610.683 7.278C610.899 6.834 611.007 6.39 611.007 5.946C611.007 5.286 610.773 4.776 610.305 4.416C609.849 4.044 609.189 3.858 608.325 3.858C606.933 3.858 605.859 4.314 605.103 5.226L603.879 4.164C604.371 3.564 605.013 3.096 605.805 2.76C606.609 2.424 607.503 2.256 608.487 2.256C609.807 2.256 610.857 2.574 611.637 3.21C612.417 3.834 612.807 4.686 612.807 5.766C612.807 6.438 612.663 7.074 612.375 7.674C612.087 8.274 611.541 8.958 610.737 9.726L606.885 13.434H613.347ZM623.927 12.642C624.263 12.642 624.539 12.762 624.755 13.002C624.983 13.23 625.097 13.518 625.097 13.866C625.097 14.046 625.073 14.22 625.025 14.388C624.989 14.556 624.911 14.814 624.791 15.162L623.945 17.664H622.811L623.477 14.982C623.249 14.898 623.063 14.76 622.919 14.568C622.787 14.364 622.721 14.13 622.721 13.866C622.721 13.506 622.835 13.212 623.063 12.984C623.291 12.756 623.579 12.642 623.927 12.642ZM643.873 2.4V3.624L638.779 15H636.871L641.857 3.966H636.097V6.216H634.369V2.4H643.873ZM661.049 8.394C661.769 8.67 662.321 9.066 662.705 9.582C663.089 10.098 663.281 10.716 663.281 11.436C663.281 12.192 663.077 12.852 662.669 13.416C662.261 13.968 661.679 14.394 660.923 14.694C660.167 14.994 659.279 15.144 658.259 15.144C657.251 15.144 656.369 14.994 655.613 14.694C654.869 14.394 654.293 13.968 653.885 13.416C653.477 12.852 653.273 12.192 653.273 11.436C653.273 10.716 653.459 10.098 653.831 9.582C654.215 9.066 654.767 8.67 655.487 8.394C654.911 8.118 654.473 7.752 654.173 7.296C653.873 6.84 653.723 6.3 653.723 5.676C653.723 4.98 653.909 4.374 654.281 3.858C654.665 3.342 655.199 2.946 655.883 2.67C656.567 2.394 657.359 2.256 658.259 2.256C659.171 2.256 659.969 2.394 660.653 2.67C661.349 2.946 661.883 3.342 662.255 3.858C662.639 4.374 662.831 4.98 662.831 5.676C662.831 6.288 662.675 6.828 662.363 7.296C662.063 7.752 661.625 8.118 661.049 8.394ZM658.259 3.714C657.407 3.714 656.735 3.9 656.243 4.272C655.751 4.632 655.505 5.124 655.505 5.748C655.505 6.372 655.745 6.864 656.225 7.224C656.717 7.584 657.395 7.764 658.259 7.764C659.135 7.764 659.819 7.584 660.311 7.224C660.815 6.864 661.067 6.372 661.067 5.748C661.067 5.124 660.809 4.632 660.293 4.272C659.789 3.9 659.111 3.714 658.259 3.714ZM658.259 13.686C659.255 13.686 660.041 13.482 660.617 13.074C661.193 12.654 661.481 12.09 661.481 11.382C661.481 10.686 661.193 10.14 660.617 9.744C660.041 9.336 659.255 9.132 658.259 9.132C657.263 9.132 656.483 9.336 655.919 9.744C655.355 10.14 655.073 10.686 655.073 11.382C655.073 12.09 655.355 12.654 655.919 13.074C656.483 13.482 657.263 13.686 658.259 13.686ZM683.785 11.904H681.391V15H679.645V11.904H672.643V10.644L679.087 2.4H681.031L674.857 10.356H679.699V7.62H681.391V10.356H683.785V11.904ZM616.385 37.904H613.991V41H612.245V37.904H605.243V36.644L611.687 28.4H613.631L607.457 36.356H612.299V33.62H613.991V36.356H616.385V37.904ZM626.564 38.642C626.9 38.642 627.176 38.762 627.392 39.002C627.62 39.23 627.734 39.518 627.734 39.866C627.734 40.046 627.71 40.22 627.662 40.388C627.626 40.556 627.548 40.814 627.428 41.162L626.582 43.664H625.448L626.114 40.982C625.886 40.898 625.7 40.76 625.556 40.568C625.424 40.364 625.358 40.13 625.358 39.866C625.358 39.506 625.472 39.212 625.7 38.984C625.928 38.756 626.216 38.642 626.564 38.642ZM641.416 28.256C643.108 28.256 644.41 28.802 645.322 29.894C646.246 30.986 646.708 32.534 646.708 34.538C646.708 35.942 646.456 37.142 645.952 38.138C645.46 39.122 644.764 39.872 643.864 40.388C642.976 40.892 641.938 41.144 640.75 41.144C640.138 41.144 639.562 41.084 639.022 40.964C638.482 40.832 638.014 40.646 637.618 40.406L638.302 39.002C638.914 39.398 639.724 39.596 640.732 39.596C642.04 39.596 643.06 39.194 643.792 38.39C644.536 37.574 644.908 36.392 644.908 34.844V34.394C644.548 34.934 644.05 35.348 643.414 35.636C642.778 35.912 642.064 36.05 641.272 36.05C640.444 36.05 639.7 35.894 639.04 35.582C638.392 35.27 637.882 34.826 637.51 34.25C637.15 33.662 636.97 32.99 636.97 32.234C636.97 31.442 637.162 30.746 637.546 30.146C637.942 29.546 638.476 29.084 639.148 28.76C639.82 28.424 640.576 28.256 641.416 28.256ZM641.578 34.592C642.142 34.592 642.646 34.484 643.09 34.268C643.534 34.052 643.876 33.758 644.116 33.386C644.368 33.014 644.494 32.6 644.494 32.144C644.494 31.7 644.374 31.298 644.134 30.938C643.906 30.566 643.564 30.272 643.108 30.056C642.664 29.828 642.124 29.714 641.488 29.714C640.66 29.714 639.988 29.936 639.472 30.38C638.968 30.824 638.716 31.418 638.716 32.162C638.716 32.906 638.974 33.5 639.49 33.944C640.006 34.376 640.702 34.592 641.578 34.592ZM661.157 33.692C662.393 33.812 663.335 34.196 663.983 34.844C664.631 35.48 664.955 36.296 664.955 37.292C664.955 38.012 664.775 38.666 664.415 39.254C664.055 39.83 663.515 40.292 662.795 40.64C662.087 40.976 661.217 41.144 660.185 41.144C659.285 41.144 658.421 41.012 657.593 40.748C656.765 40.472 656.087 40.094 655.559 39.614L656.387 38.192C656.819 38.6 657.371 38.93 658.043 39.182C658.715 39.422 659.429 39.542 660.185 39.542C661.121 39.542 661.847 39.344 662.363 38.948C662.891 38.552 663.155 38.006 663.155 37.31C663.155 36.614 662.897 36.074 662.381 35.69C661.865 35.306 661.085 35.114 660.041 35.114H659.033V33.854L662.201 29.966H656.135V28.4H664.451V29.624L661.157 33.692ZM683.384 39.434V41H674.33V39.776L679.46 34.826C680.084 34.226 680.504 33.71 680.72 33.278C680.936 32.834 681.044 32.39 681.044 31.946C681.044 31.286 680.81 30.776 680.342 30.416C679.886 30.044 679.226 29.858 678.362 29.858C676.97 29.858 675.896 30.314 675.14 31.226L673.916 30.164C674.408 29.564 675.05 29.096 675.842 28.76C676.646 28.424 677.54 28.256 678.524 28.256C679.844 28.256 680.894 28.574 681.674 29.21C682.454 29.834 682.844 30.686 682.844 31.766C682.844 32.438 682.7 33.074 682.412 33.674C682.124 34.274 681.578 34.958 680.774 35.726L676.922 39.434H683.384Z" fill="#2F2F2F"/>
<path d="M595.793 17.42H592.517V20.642H591.005V17.42H587.729V15.998H591.005V12.758H592.517V15.998H595.793V17.42Z" fill="#2F2F2F"/>
<path d="M601 61H679V59H601V61ZM683 65V85H685V65H683ZM679 89H601V91H679V89ZM597 85V65H595V85H597ZM601 89C598.791 89 597 87.2091 597 85H595C595 88.3137 597.686 91 601 91V89ZM683 85C683 87.2091 681.209 89 679 89V91C682.314 91 685 88.3137 685 85H683ZM679 61C681.209 61 683 62.7909 683 65H685C685 61.6863 682.314 59 679 59V61ZM601 59C597.686 59 595 61.6863 595 65H597C597 62.7909 598.791 61 601 61V59Z" fill="#2F2F2F"/>
<line x1="596" y1="51.5" x2="684" y2="51.5" stroke="#3C3C3C"/>
</svg>
