<svg width="642" height="31" viewBox="0 0 642 31" fill="none" xmlns="http://www.w3.org/2000/svg">
<path d="M7.722 21.1948L4.968 17.5408L2.178 21.1948H0.252L4.014 16.3168L0.432 11.6548H2.358L4.986 15.0928L7.596 11.6548H9.486L5.886 16.3168L9.684 21.1948H7.722ZM15.9716 12.0508H24.0356V13.4728H15.9716V12.0508ZM15.9716 16.3168H24.0356V17.7388H15.9716V16.3168Z" fill="#2F2F2F"/>
<path d="M41 1.19482H71V-0.805176H41V1.19482ZM75 5.19482V25.1948H77V5.19482H75ZM71 29.1948H41V31.1948H71V29.1948ZM37 25.1948V5.19482H35V25.1948H37ZM41 29.1948C38.7909 29.1948 37 27.404 37 25.1948H35C35 28.5085 37.6863 31.1948 41 31.1948V29.1948ZM75 25.1948C75 27.404 73.2091 29.1948 71 29.1948V31.1948C74.3137 31.1948 77 28.5085 77 25.1948H75ZM71 1.19482C73.2091 1.19482 75 2.98569 75 5.19482H77C77 1.88112 74.3137 -0.805176 71 -0.805176V1.19482ZM41 -0.805176C37.6863 -0.805176 35 1.88112 35 5.19482H37C37 2.98569 38.7909 1.19482 41 1.19482V-0.805176Z" fill="#2F2F2F"/>
<path d="M44.688 13.692C45.924 13.812 46.866 14.196 47.514 14.844C48.162 15.48 48.486 16.296 48.486 17.292C48.486 18.012 48.306 18.666 47.946 19.254C47.586 19.83 47.046 20.292 46.326 20.64C45.618 20.976 44.748 21.144 43.716 21.144C42.816 21.144 41.952 21.012 41.124 20.748C40.296 20.472 39.618 20.094 39.09 19.614L39.918 18.192C40.35 18.6 40.902 18.93 41.574 19.182C42.246 19.422 42.96 19.542 43.716 19.542C44.652 19.542 45.378 19.344 45.894 18.948C46.422 18.552 46.686 18.006 46.686 17.31C46.686 16.614 46.428 16.074 45.912 15.69C45.396 15.306 44.616 15.114 43.572 15.114H42.564V13.854L45.732 9.966H39.666V8.4H47.982V9.624L44.688 13.692ZM61.1268 17.904H58.7328V21H56.9868V17.904H49.9848V16.644L56.4288 8.4H58.3728L52.1988 16.356H57.0408V13.62H58.7328V16.356H61.1268V17.904ZM71.0091 19.434V21H61.9551V19.776L67.0851 14.826C67.7091 14.226 68.1291 13.71 68.3451 13.278C68.5611 12.834 68.6691 12.39 68.6691 11.946C68.6691 11.286 68.4351 10.776 67.9671 10.416C67.5111 10.044 66.8511 9.858 65.9871 9.858C64.5951 9.858 63.5211 10.314 62.7651 11.226L61.5411 10.164C62.0331 9.564 62.6751 9.096 63.4671 8.76C64.2711 8.424 65.1651 8.256 66.1491 8.256C67.4691 8.256 68.5191 8.574 69.2991 9.21C70.0791 9.834 70.4691 10.686 70.4691 11.766C70.4691 12.438 70.3251 13.074 70.0371 13.674C69.7491 14.274 69.2031 14.958 68.3991 15.726L64.5471 19.434H71.0091Z" fill="#2F2F2F"/>
<path d="M200.712 19.7728V21.1948H192.72V20.0788L198.354 13.0768H192.828V11.6548H200.568V12.7888L194.934 19.7728H200.712ZM207.427 12.0508H215.491V13.4728H207.427V12.0508ZM207.427 16.3168H215.491V17.7388H207.427V16.3168Z" fill="#2F2F2F"/>
<path d="M232 1.19482H262V-0.805176H232V1.19482ZM266 5.19482V25.1948H268V5.19482H266ZM262 29.1948H232V31.1948H262V29.1948ZM228 25.1948V5.19482H226V25.1948H228ZM232 29.1948C229.791 29.1948 228 27.404 228 25.1948H226C226 28.5085 228.686 31.1948 232 31.1948V29.1948ZM266 25.1948C266 27.404 264.209 29.1948 262 29.1948V31.1948C265.314 31.1948 268 28.5085 268 25.1948H266ZM262 1.19482C264.209 1.19482 266 2.98569 266 5.19482H268C268 1.88112 265.314 -0.805176 262 -0.805176V1.19482ZM232 -0.805176C228.686 -0.805176 226 1.88112 226 5.19482H228C228 2.98569 229.791 1.19482 232 1.19482V-0.805176Z" fill="#2F2F2F"/>
<path d="M242.77 8.4V21H240.988V9.966H238.144V8.4H242.77ZM254.706 8.4V9.624L249.612 21H247.704L252.69 9.966H246.93V12.216H245.202V8.4H254.706Z" fill="#2F2F2F"/>
<path d="M387.572 11.5648C388.772 11.5648 389.72 11.9128 390.416 12.6088C391.124 13.3048 391.478 14.3368 391.478 15.7048V21.1948H389.75V15.9028C389.75 14.9788 389.534 14.2828 389.102 13.8148C388.682 13.3468 388.076 13.1128 387.284 13.1128C386.408 13.1128 385.712 13.3888 385.196 13.9408C384.68 14.4808 384.422 15.2608 384.422 16.2808V21.1948H382.694V15.9028C382.694 14.9788 382.478 14.2828 382.046 13.8148C381.626 13.3468 381.02 13.1128 380.228 13.1128C379.352 13.1128 378.656 13.3888 378.14 13.9408C377.624 14.4808 377.366 15.2608 377.366 16.2808V21.1948H375.638V11.6548H377.294V13.0768C377.642 12.5848 378.098 12.2128 378.662 11.9608C379.226 11.6968 379.868 11.5648 380.588 11.5648C381.332 11.5648 381.992 11.7148 382.568 12.0148C383.144 12.3148 383.588 12.7528 383.9 13.3288C384.26 12.7768 384.758 12.3448 385.394 12.0328C386.042 11.7208 386.768 11.5648 387.572 11.5648ZM399.06 12.0508H407.124V13.4728H399.06V12.0508ZM399.06 16.3168H407.124V17.7388H399.06V16.3168Z" fill="#2F2F2F"/>
<path d="M424 1.19482H454V-0.805176H424V1.19482ZM458 5.19482V25.1948H460V5.19482H458ZM454 29.1948H424V31.1948H454V29.1948ZM420 25.1948V5.19482H418V25.1948H420ZM424 29.1948C421.791 29.1948 420 27.404 420 25.1948H418C418 28.5085 420.686 31.1948 424 31.1948V29.1948ZM458 25.1948C458 27.404 456.209 29.1948 454 29.1948V31.1948C457.314 31.1948 460 28.5085 460 25.1948H458ZM454 1.19482C456.209 1.19482 458 2.98569 458 5.19482H460C460 1.88112 457.314 -0.805176 454 -0.805176V1.19482ZM424 -0.805176C420.686 -0.805176 418 1.88112 418 5.19482H420C420 2.98569 421.791 1.19482 424 1.19482V-0.805176Z" fill="#2F2F2F"/>
<path d="M433.72 19.434V21H424.666V19.776L429.796 14.826C430.42 14.226 430.84 13.71 431.056 13.278C431.272 12.834 431.38 12.39 431.38 11.946C431.38 11.286 431.146 10.776 430.678 10.416C430.222 10.044 429.562 9.858 428.698 9.858C427.306 9.858 426.232 10.314 425.476 11.226L424.252 10.164C424.744 9.564 425.386 9.096 426.178 8.76C426.982 8.424 427.876 8.256 428.86 8.256C430.18 8.256 431.23 8.574 432.01 9.21C432.79 9.834 433.18 10.686 433.18 11.766C433.18 12.438 433.036 13.074 432.748 13.674C432.46 14.274 431.914 14.958 431.11 15.726L427.258 19.434H433.72ZM440.583 13.35C441.411 13.35 442.149 13.506 442.797 13.818C443.457 14.13 443.973 14.58 444.345 15.168C444.717 15.744 444.903 16.41 444.903 17.166C444.903 17.958 444.705 18.654 444.309 19.254C443.925 19.854 443.391 20.322 442.707 20.658C442.035 20.982 441.279 21.144 440.439 21.144C438.747 21.144 437.439 20.598 436.515 19.506C435.603 18.414 435.147 16.866 435.147 14.862C435.147 13.458 435.393 12.264 435.885 11.28C436.389 10.284 437.085 9.534 437.973 9.03C438.873 8.514 439.917 8.256 441.105 8.256C441.717 8.256 442.293 8.322 442.833 8.454C443.373 8.574 443.841 8.754 444.237 8.994L443.553 10.398C442.953 10.002 442.149 9.804 441.141 9.804C439.833 9.804 438.807 10.212 438.063 11.028C437.319 11.832 436.947 13.008 436.947 14.556C436.947 14.748 436.953 14.898 436.965 15.006C437.325 14.466 437.817 14.058 438.441 13.782C439.077 13.494 439.791 13.35 440.583 13.35ZM440.367 19.686C441.195 19.686 441.867 19.464 442.383 19.02C442.899 18.576 443.157 17.982 443.157 17.238C443.157 16.494 442.893 15.906 442.365 15.474C441.849 15.03 441.153 14.808 440.277 14.808C439.713 14.808 439.209 14.916 438.765 15.132C438.333 15.348 437.991 15.642 437.739 16.014C437.499 16.386 437.379 16.8 437.379 17.256C437.379 17.7 437.493 18.108 437.721 18.48C437.961 18.84 438.303 19.134 438.747 19.362C439.203 19.578 439.743 19.686 440.367 19.686ZM450.163 8.4V21H448.381V9.966H445.537V8.4H450.163Z" fill="#2F2F2F"/>
<path d="M576.002 20.6368C575.75 20.8528 575.438 21.0208 575.066 21.1408C574.694 21.2488 574.31 21.3028 573.914 21.3028C572.954 21.3028 572.21 21.0448 571.682 20.5288C571.154 20.0128 570.89 19.2748 570.89 18.3148V13.0768H569.27V11.6548H570.89V9.56682H572.618V11.6548H575.354V13.0768H572.618V18.2428C572.618 18.7588 572.744 19.1548 572.996 19.4308C573.26 19.7068 573.632 19.8448 574.112 19.8448C574.64 19.8448 575.09 19.6948 575.462 19.3948L576.002 20.6368ZM582.493 12.0508H590.557V13.4728H582.493V12.0508ZM582.493 16.3168H590.557V17.7388H582.493V16.3168Z" fill="#2F2F2F"/>
<path d="M607 1.19482H637V-0.805176H607V1.19482ZM641 5.19482V25.1948H643V5.19482H641ZM637 29.1948H607V31.1948H637V29.1948ZM603 25.1948V5.19482H601V25.1948H603ZM607 29.1948C604.791 29.1948 603 27.404 603 25.1948H601C601 28.5085 603.686 31.1948 607 31.1948V29.1948ZM641 25.1948C641 27.404 639.209 29.1948 637 29.1948V31.1948C640.314 31.1948 643 28.5085 643 25.1948H641ZM637 1.19482C639.209 1.19482 641 2.98569 641 5.19482H643C643 1.88112 640.314 -0.805176 637 -0.805176V1.19482ZM607 -0.805176C603.686 -0.805176 601 1.88112 601 5.19482H603C603 2.98569 604.791 1.19482 607 1.19482V-0.805176Z" fill="#2F2F2F"/>
<path d="M620.464 13.422C622.264 13.422 623.584 13.764 624.424 14.448C625.276 15.12 625.702 16.044 625.702 17.22C625.702 17.964 625.522 18.636 625.162 19.236C624.814 19.824 624.28 20.292 623.56 20.64C622.852 20.976 621.976 21.144 620.932 21.144C620.044 21.144 619.186 21.012 618.358 20.748C617.53 20.472 616.846 20.094 616.306 19.614L617.134 18.192C617.566 18.6 618.118 18.93 618.79 19.182C619.462 19.422 620.17 19.542 620.914 19.542C621.862 19.542 622.594 19.344 623.11 18.948C623.638 18.54 623.902 17.988 623.902 17.292C623.902 16.536 623.614 15.966 623.038 15.582C622.462 15.186 621.478 14.988 620.086 14.988H617.224L617.89 8.4H625V9.966H619.402L619.06 13.422H620.464Z" fill="#2F2F2F"/>
</svg>
