<svg width="105" height="52" viewBox="0 0 105 52" fill="none" xmlns="http://www.w3.org/2000/svg">
<path d="M39.9553 13.434V15H30.9013V13.776L36.0313 8.826C36.6553 8.226 37.0753 7.71 37.2913 7.278C37.5073 6.834 37.6153 6.39 37.6153 5.946C37.6153 5.286 37.3813 4.776 36.9133 4.416C36.4573 4.044 35.7973 3.858 34.9333 3.858C33.5413 3.858 32.4673 4.314 31.7113 5.226L30.4873 4.164C30.9793 3.564 31.6213 3.096 32.4133 2.76C33.2173 2.424 34.1113 2.256 35.0953 2.256C36.4153 2.256 37.4653 2.574 38.2453 3.21C39.0253 3.834 39.4153 4.686 39.4153 5.766C39.4153 6.438 39.2713 7.074 38.9833 7.674C38.6953 8.274 38.1493 8.958 37.3453 9.726L33.4933 13.434H39.9553ZM64.8732 2.4V3.624L59.7792 15H57.8712L62.8572 3.966H57.0972V6.216H55.3692V2.4H64.8732ZM82.049 8.394C82.769 8.67 83.321 9.066 83.705 9.582C84.089 10.098 84.281 10.716 84.281 11.436C84.281 12.192 84.077 12.852 83.669 13.416C83.261 13.968 82.679 14.394 81.923 14.694C81.167 14.994 80.279 15.144 79.259 15.144C78.251 15.144 77.369 14.994 76.613 14.694C75.869 14.394 75.293 13.968 74.885 13.416C74.477 12.852 74.273 12.192 74.273 11.436C74.273 10.716 74.459 10.098 74.831 9.582C75.215 9.066 75.767 8.67 76.487 8.394C75.911 8.118 75.473 7.752 75.173 7.296C74.873 6.84 74.723 6.3 74.723 5.676C74.723 4.98 74.909 4.374 75.281 3.858C75.665 3.342 76.199 2.946 76.883 2.67C77.567 2.394 78.359 2.256 79.259 2.256C80.171 2.256 80.969 2.394 81.653 2.67C82.349 2.946 82.883 3.342 83.255 3.858C83.639 4.374 83.831 4.98 83.831 5.676C83.831 6.288 83.675 6.828 83.363 7.296C83.063 7.752 82.625 8.118 82.049 8.394ZM79.259 3.714C78.407 3.714 77.735 3.9 77.243 4.272C76.751 4.632 76.505 5.124 76.505 5.748C76.505 6.372 76.745 6.864 77.225 7.224C77.717 7.584 78.395 7.764 79.259 7.764C80.135 7.764 80.819 7.584 81.311 7.224C81.815 6.864 82.067 6.372 82.067 5.748C82.067 5.124 81.809 4.632 81.293 4.272C80.789 3.9 80.111 3.714 79.259 3.714ZM79.259 13.686C80.255 13.686 81.041 13.482 81.617 13.074C82.193 12.654 82.481 12.09 82.481 11.382C82.481 10.686 82.193 10.14 81.617 9.744C81.041 9.336 80.255 9.132 79.259 9.132C78.263 9.132 77.483 9.336 76.919 9.744C76.355 10.14 76.073 10.686 76.073 11.382C76.073 12.09 76.355 12.654 76.919 13.074C77.483 13.482 78.263 13.686 79.259 13.686ZM104.785 11.904H102.391V15H100.645V11.904H93.643V10.644L100.087 2.4H102.031L95.857 10.356H100.699V7.62H102.391V10.356H104.785V11.904ZM42.993 37.904H40.599V41H38.853V37.904H31.851V36.644L38.295 28.4H40.239L34.065 36.356H38.907V33.62H40.599V36.356H42.993V37.904ZM62.4159 28.256C64.1079 28.256 65.4099 28.802 66.3219 29.894C67.2459 30.986 67.7079 32.534 67.7079 34.538C67.7079 35.942 67.4559 37.142 66.9519 38.138C66.4599 39.122 65.7639 39.872 64.8639 40.388C63.9759 40.892 62.9379 41.144 61.7499 41.144C61.1379 41.144 60.5619 41.084 60.0219 40.964C59.4819 40.832 59.0139 40.646 58.6179 40.406L59.3019 39.002C59.9139 39.398 60.7239 39.596 61.7319 39.596C63.0399 39.596 64.0599 39.194 64.7919 38.39C65.5359 37.574 65.9079 36.392 65.9079 34.844V34.394C65.5479 34.934 65.0499 35.348 64.4139 35.636C63.7779 35.912 63.0639 36.05 62.2719 36.05C61.4439 36.05 60.6999 35.894 60.0399 35.582C59.3919 35.27 58.8819 34.826 58.5099 34.25C58.1499 33.662 57.9699 32.99 57.9699 32.234C57.9699 31.442 58.1619 30.746 58.5459 30.146C58.9419 29.546 59.4759 29.084 60.1479 28.76C60.8199 28.424 61.5759 28.256 62.4159 28.256ZM62.5779 34.592C63.1419 34.592 63.6459 34.484 64.0899 34.268C64.5339 34.052 64.8759 33.758 65.1159 33.386C65.3679 33.014 65.4939 32.6 65.4939 32.144C65.4939 31.7 65.3739 31.298 65.1339 30.938C64.9059 30.566 64.5639 30.272 64.1079 30.056C63.6639 29.828 63.1239 29.714 62.4879 29.714C61.6599 29.714 60.9879 29.936 60.4719 30.38C59.9679 30.824 59.7159 31.418 59.7159 32.162C59.7159 32.906 59.9739 33.5 60.4899 33.944C61.0059 34.376 61.7019 34.592 62.5779 34.592ZM82.1573 33.692C83.3933 33.812 84.3353 34.196 84.9833 34.844C85.6313 35.48 85.9553 36.296 85.9553 37.292C85.9553 38.012 85.7753 38.666 85.4153 39.254C85.0553 39.83 84.5153 40.292 83.7953 40.64C83.0873 40.976 82.2173 41.144 81.1853 41.144C80.2853 41.144 79.4213 41.012 78.5933 40.748C77.7653 40.472 77.0873 40.094 76.5593 39.614L77.3873 38.192C77.8193 38.6 78.3713 38.93 79.0433 39.182C79.7153 39.422 80.4293 39.542 81.1853 39.542C82.1213 39.542 82.8473 39.344 83.3633 38.948C83.8913 38.552 84.1553 38.006 84.1553 37.31C84.1553 36.614 83.8973 36.074 83.3813 35.69C82.8653 35.306 82.0853 35.114 81.0413 35.114H80.0333V33.854L83.2013 29.966H77.1353V28.4H85.4513V29.624L82.1573 33.692ZM104.384 39.434V41H95.3301V39.776L100.46 34.826C101.084 34.226 101.504 33.71 101.72 33.278C101.936 32.834 102.044 32.39 102.044 31.946C102.044 31.286 101.81 30.776 101.342 30.416C100.886 30.044 100.226 29.858 99.3621 29.858C97.9701 29.858 96.8961 30.314 96.1401 31.226L94.9161 30.164C95.4081 29.564 96.0501 29.096 96.8421 28.76C97.6461 28.424 98.5401 28.256 99.5241 28.256C100.844 28.256 101.894 28.574 102.674 29.21C103.454 29.834 103.844 30.686 103.844 31.766C103.844 32.438 103.7 33.074 103.412 33.674C103.124 34.274 102.578 34.958 101.774 35.726L97.9221 39.434H104.384Z" fill="#2F2F2F"/>
<path d="M15.9891 18.7H10.5291V24.07H8.00906V18.7H2.54906V16.33H8.00906V10.93H10.5291V16.33H15.9891V18.7Z" fill="#2F2F2F"/>
<line x1="17" y1="51.5" x2="105" y2="51.5" stroke="#3C3C3C"/>
</svg>
