<svg width="99" height="52" viewBox="0 0 99 52" fill="none" xmlns="http://www.w3.org/2000/svg">
<path d="M27.4161 7.422C29.2161 7.422 30.5361 7.764 31.3761 8.448C32.2281 9.12 32.6541 10.044 32.6541 11.22C32.6541 11.964 32.4741 12.636 32.1141 13.236C31.7661 13.824 31.2321 14.292 30.5121 14.64C29.8041 14.976 28.9281 15.144 27.8841 15.144C26.9961 15.144 26.1381 15.012 25.3101 14.748C24.4821 14.472 23.7981 14.094 23.2581 13.614L24.0861 12.192C24.5181 12.6 25.0701 12.93 25.7421 13.182C26.4141 13.422 27.1221 13.542 27.8661 13.542C28.8141 13.542 29.5461 13.344 30.0621 12.948C30.5901 12.54 30.8541 11.988 30.8541 11.292C30.8541 10.536 30.5661 9.966 29.9901 9.582C29.4141 9.186 28.4301 8.988 27.0381 8.988H24.1761L24.8421 2.4H31.9521V3.966H26.3541L26.0121 7.422H27.4161ZM59.372 11.904H56.978V15H55.232V11.904H48.23V10.644L54.674 2.4H56.618L50.444 10.356H55.286V7.62H56.978V10.356H59.372V11.904ZM76.049 8.394C76.769 8.67 77.321 9.066 77.705 9.582C78.089 10.098 78.281 10.716 78.281 11.436C78.281 12.192 78.077 12.852 77.669 13.416C77.261 13.968 76.679 14.394 75.923 14.694C75.167 14.994 74.279 15.144 73.259 15.144C72.251 15.144 71.369 14.994 70.613 14.694C69.869 14.394 69.293 13.968 68.885 13.416C68.477 12.852 68.273 12.192 68.273 11.436C68.273 10.716 68.459 10.098 68.831 9.582C69.215 9.066 69.767 8.67 70.487 8.394C69.911 8.118 69.473 7.752 69.173 7.296C68.873 6.84 68.723 6.3 68.723 5.676C68.723 4.98 68.909 4.374 69.281 3.858C69.665 3.342 70.199 2.946 70.883 2.67C71.567 2.394 72.359 2.256 73.259 2.256C74.171 2.256 74.969 2.394 75.653 2.67C76.349 2.946 76.883 3.342 77.255 3.858C77.639 4.374 77.831 4.98 77.831 5.676C77.831 6.288 77.675 6.828 77.363 7.296C77.063 7.752 76.625 8.118 76.049 8.394ZM73.259 3.714C72.407 3.714 71.735 3.9 71.243 4.272C70.751 4.632 70.505 5.124 70.505 5.748C70.505 6.372 70.745 6.864 71.225 7.224C71.717 7.584 72.395 7.764 73.259 7.764C74.135 7.764 74.819 7.584 75.311 7.224C75.815 6.864 76.067 6.372 76.067 5.748C76.067 5.124 75.809 4.632 75.293 4.272C74.789 3.9 74.111 3.714 73.259 3.714ZM73.259 13.686C74.255 13.686 75.041 13.482 75.617 13.074C76.193 12.654 76.481 12.09 76.481 11.382C76.481 10.686 76.193 10.14 75.617 9.744C75.041 9.336 74.255 9.132 73.259 9.132C72.263 9.132 71.483 9.336 70.919 9.744C70.355 10.14 70.073 10.686 70.073 11.382C70.073 12.09 70.355 12.654 70.919 13.074C71.483 13.482 72.263 13.686 73.259 13.686ZM98.785 11.904H96.391V15H94.645V11.904H87.643V10.644L94.087 2.4H96.031L89.857 10.356H94.699V7.62H96.391V10.356H98.785V11.904ZM60.6904 37.904H58.2964V41H56.5504V37.904H49.5484V36.644L55.9924 28.4H57.9364L51.7624 36.356H56.6044V33.62H58.2964V36.356H60.6904V37.904ZM74.4874 33.692C75.7234 33.812 76.6654 34.196 77.3134 34.844C77.9614 35.48 78.2854 36.296 78.2854 37.292C78.2854 38.012 78.1054 38.666 77.7454 39.254C77.3854 39.83 76.8454 40.292 76.1254 40.64C75.4174 40.976 74.5474 41.144 73.5154 41.144C72.6154 41.144 71.7514 41.012 70.9234 40.748C70.0954 40.472 69.4174 40.094 68.8894 39.614L69.7174 38.192C70.1494 38.6 70.7014 38.93 71.3734 39.182C72.0454 39.422 72.7594 39.542 73.5154 39.542C74.4514 39.542 75.1774 39.344 75.6934 38.948C76.2214 38.552 76.4854 38.006 76.4854 37.31C76.4854 36.614 76.2274 36.074 75.7114 35.69C75.1954 35.306 74.4154 35.114 73.3714 35.114H72.3634V33.854L75.5314 29.966H69.4654V28.4H77.7814V29.624L74.4874 33.692ZM93.0061 41.144C92.0101 41.144 91.1221 40.892 90.3421 40.388C89.5741 39.872 88.9681 39.128 88.5241 38.156C88.0801 37.184 87.8581 36.032 87.8581 34.7C87.8581 33.368 88.0801 32.216 88.5241 31.244C88.9681 30.272 89.5741 29.534 90.3421 29.03C91.1221 28.514 92.0101 28.256 93.0061 28.256C93.9901 28.256 94.8661 28.514 95.6341 29.03C96.4141 29.534 97.0261 30.272 97.4701 31.244C97.9141 32.216 98.1361 33.368 98.1361 34.7C98.1361 36.032 97.9141 37.184 97.4701 38.156C97.0261 39.128 96.4141 39.872 95.6341 40.388C94.8661 40.892 93.9901 41.144 93.0061 41.144ZM93.0061 39.542C94.0141 39.542 94.8181 39.128 95.4181 38.3C96.0301 37.472 96.3361 36.272 96.3361 34.7C96.3361 33.128 96.0301 31.928 95.4181 31.1C94.8181 30.272 94.0141 29.858 93.0061 29.858C91.9861 29.858 91.1701 30.272 90.5581 31.1C89.9581 31.928 89.6581 33.128 89.6581 34.7C89.6581 36.272 89.9581 37.472 90.5581 38.3C91.1701 39.128 91.9861 39.542 93.0061 39.542Z" fill="#2F2F2F"/>
<path d="M2.22563 18.52H10.2956V21.01H2.22563V18.52Z" fill="#2F2F2F"/>
<line x1="11" y1="51.5" x2="99" y2="51.5" stroke="#3C3C3C"/>
</svg>
