<svg width="98" height="52" viewBox="0 0 98 52" fill="none" xmlns="http://www.w3.org/2000/svg">
<path d="M26.5991 7.35C27.4271 7.35 28.1651 7.506 28.8131 7.818C29.4731 8.13 29.9891 8.58 30.3611 9.168C30.7331 9.744 30.9191 10.41 30.9191 11.166C30.9191 11.958 30.7211 12.654 30.3251 13.254C29.9411 13.854 29.4071 14.322 28.7231 14.658C28.0511 14.982 27.2951 15.144 26.4551 15.144C24.7631 15.144 23.4551 14.598 22.5311 13.506C21.6191 12.414 21.1631 10.866 21.1631 8.862C21.1631 7.458 21.4091 6.264 21.9011 5.28C22.4051 4.284 23.1011 3.534 23.9891 3.03C24.8891 2.514 25.9331 2.256 27.1211 2.256C27.7331 2.256 28.3091 2.322 28.8491 2.454C29.3891 2.574 29.8571 2.754 30.2531 2.994L29.5691 4.398C28.9691 4.002 28.1651 3.804 27.1571 3.804C25.8491 3.804 24.8231 4.212 24.0791 5.028C23.3351 5.832 22.9631 7.008 22.9631 8.556C22.9631 8.748 22.9691 8.898 22.9811 9.006C23.3411 8.466 23.8331 8.058 24.4571 7.782C25.0931 7.494 25.8071 7.35 26.5991 7.35ZM26.3831 13.686C27.2111 13.686 27.8831 13.464 28.3991 13.02C28.9151 12.576 29.1731 11.982 29.1731 11.238C29.1731 10.494 28.9091 9.906 28.3811 9.474C27.8651 9.03 27.1691 8.808 26.2931 8.808C25.7291 8.808 25.2251 8.916 24.7811 9.132C24.3491 9.348 24.0071 9.642 23.7551 10.014C23.5151 10.386 23.3951 10.8 23.3951 11.256C23.3951 11.7 23.5091 12.108 23.7371 12.48C23.9771 12.84 24.3191 13.134 24.7631 13.362C25.2191 13.578 25.7591 13.686 26.3831 13.686ZM41.3724 12.642C41.7084 12.642 41.9844 12.762 42.2004 13.002C42.4284 13.23 42.5424 13.518 42.5424 13.866C42.5424 14.046 42.5184 14.22 42.4704 14.388C42.4344 14.556 42.3564 14.814 42.2364 15.162L41.3904 17.664H40.2564L40.9224 14.982C40.6944 14.898 40.5084 14.76 40.3644 14.568C40.2324 14.364 40.1664 14.13 40.1664 13.866C40.1664 13.506 40.2804 13.212 40.5084 12.984C40.7364 12.756 41.0244 12.642 41.3724 12.642ZM56.9625 7.692C58.1985 7.812 59.1405 8.196 59.7885 8.844C60.4365 9.48 60.7605 10.296 60.7605 11.292C60.7605 12.012 60.5805 12.666 60.2205 13.254C59.8605 13.83 59.3205 14.292 58.6005 14.64C57.8925 14.976 57.0225 15.144 55.9905 15.144C55.0905 15.144 54.2265 15.012 53.3985 14.748C52.5705 14.472 51.8925 14.094 51.3645 13.614L52.1925 12.192C52.6245 12.6 53.1765 12.93 53.8485 13.182C54.5205 13.422 55.2345 13.542 55.9905 13.542C56.9265 13.542 57.6525 13.344 58.1685 12.948C58.6965 12.552 58.9605 12.006 58.9605 11.31C58.9605 10.614 58.7025 10.074 58.1865 9.69C57.6705 9.306 56.8905 9.114 55.8465 9.114H54.8385V7.854L58.0065 3.966H51.9405V2.4H60.2565V3.624L56.9625 7.692ZM75.1573 7.692C76.3933 7.812 77.3353 8.196 77.9833 8.844C78.6313 9.48 78.9553 10.296 78.9553 11.292C78.9553 12.012 78.7753 12.666 78.4153 13.254C78.0553 13.83 77.5153 14.292 76.7953 14.64C76.0873 14.976 75.2173 15.144 74.1853 15.144C73.2853 15.144 72.4213 15.012 71.5933 14.748C70.7653 14.472 70.0873 14.094 69.5593 13.614L70.3873 12.192C70.8193 12.6 71.3713 12.93 72.0433 13.182C72.7153 13.422 73.4293 13.542 74.1853 13.542C75.1213 13.542 75.8473 13.344 76.3633 12.948C76.8913 12.552 77.1553 12.006 77.1553 11.31C77.1553 10.614 76.8973 10.074 76.3813 9.69C75.8653 9.306 75.0853 9.114 74.0413 9.114H73.0333V7.854L76.2013 3.966H70.1353V2.4H78.4513V3.624L75.1573 7.692ZM97.3841 13.434V15H88.3301V13.776L93.4601 8.826C94.0841 8.226 94.5041 7.71 94.7201 7.278C94.9361 6.834 95.0441 6.39 95.0441 5.946C95.0441 5.286 94.8101 4.776 94.3421 4.416C93.8861 4.044 93.2261 3.858 92.3621 3.858C90.9701 3.858 89.8961 4.314 89.1401 5.226L87.9161 4.164C88.4081 3.564 89.0501 3.096 89.8421 2.76C90.6461 2.424 91.5401 2.256 92.5241 2.256C93.8441 2.256 94.8941 2.574 95.6741 3.21C96.4541 3.834 96.8441 4.686 96.8441 5.766C96.8441 6.438 96.7001 7.074 96.4121 7.674C96.1241 8.274 95.5781 8.958 94.7741 9.726L90.9221 13.434H97.3841ZM55.4827 33.35C56.3107 33.35 57.0487 33.506 57.6967 33.818C58.3567 34.13 58.8727 34.58 59.2447 35.168C59.6167 35.744 59.8027 36.41 59.8027 37.166C59.8027 37.958 59.6047 38.654 59.2087 39.254C58.8247 39.854 58.2907 40.322 57.6067 40.658C56.9347 40.982 56.1787 41.144 55.3387 41.144C53.6467 41.144 52.3387 40.598 51.4147 39.506C50.5027 38.414 50.0467 36.866 50.0467 34.862C50.0467 33.458 50.2927 32.264 50.7847 31.28C51.2887 30.284 51.9847 29.534 52.8727 29.03C53.7727 28.514 54.8167 28.256 56.0047 28.256C56.6167 28.256 57.1927 28.322 57.7327 28.454C58.2727 28.574 58.7407 28.754 59.1367 28.994L58.4527 30.398C57.8527 30.002 57.0487 29.804 56.0407 29.804C54.7327 29.804 53.7067 30.212 52.9627 31.028C52.2187 31.832 51.8467 33.008 51.8467 34.556C51.8467 34.748 51.8527 34.898 51.8647 35.006C52.2247 34.466 52.7167 34.058 53.3407 33.782C53.9767 33.494 54.6907 33.35 55.4827 33.35ZM55.2667 39.686C56.0947 39.686 56.7667 39.464 57.2827 39.02C57.7987 38.576 58.0567 37.982 58.0567 37.238C58.0567 36.494 57.7927 35.906 57.2647 35.474C56.7487 35.03 56.0527 34.808 55.1767 34.808C54.6127 34.808 54.1087 34.916 53.6647 35.132C53.2327 35.348 52.8907 35.642 52.6387 36.014C52.3987 36.386 52.2787 36.8 52.2787 37.256C52.2787 37.7 52.3927 38.108 52.6207 38.48C52.8607 38.84 53.2027 39.134 53.6467 39.362C54.1027 39.578 54.6427 39.686 55.2667 39.686ZM76.7541 34.394C77.4741 34.67 78.0261 35.066 78.4101 35.582C78.7941 36.098 78.9861 36.716 78.9861 37.436C78.9861 38.192 78.7821 38.852 78.3741 39.416C77.9661 39.968 77.3841 40.394 76.6281 40.694C75.8721 40.994 74.9841 41.144 73.9641 41.144C72.9561 41.144 72.0741 40.994 71.3181 40.694C70.5741 40.394 69.9981 39.968 69.5901 39.416C69.1821 38.852 68.9781 38.192 68.9781 37.436C68.9781 36.716 69.1641 36.098 69.5361 35.582C69.9201 35.066 70.4721 34.67 71.1921 34.394C70.6161 34.118 70.1781 33.752 69.8781 33.296C69.5781 32.84 69.4281 32.3 69.4281 31.676C69.4281 30.98 69.6141 30.374 69.9861 29.858C70.3701 29.342 70.9041 28.946 71.5881 28.67C72.2721 28.394 73.0641 28.256 73.9641 28.256C74.8761 28.256 75.6741 28.394 76.3581 28.67C77.0541 28.946 77.5881 29.342 77.9601 29.858C78.3441 30.374 78.5361 30.98 78.5361 31.676C78.5361 32.288 78.3801 32.828 78.0681 33.296C77.7681 33.752 77.3301 34.118 76.7541 34.394ZM73.9641 29.714C73.1121 29.714 72.4401 29.9 71.9481 30.272C71.4561 30.632 71.2101 31.124 71.2101 31.748C71.2101 32.372 71.4501 32.864 71.9301 33.224C72.4221 33.584 73.1001 33.764 73.9641 33.764C74.8401 33.764 75.5241 33.584 76.0161 33.224C76.5201 32.864 76.7721 32.372 76.7721 31.748C76.7721 31.124 76.5141 30.632 75.9981 30.272C75.4941 29.9 74.8161 29.714 73.9641 29.714ZM73.9641 39.686C74.9601 39.686 75.7461 39.482 76.3221 39.074C76.8981 38.654 77.1861 38.09 77.1861 37.382C77.1861 36.686 76.8981 36.14 76.3221 35.744C75.7461 35.336 74.9601 35.132 73.9641 35.132C72.9681 35.132 72.1881 35.336 71.6241 35.744C71.0601 36.14 70.7781 36.686 70.7781 37.382C70.7781 38.09 71.0601 38.654 71.6241 39.074C72.1881 39.482 72.9681 39.686 73.9641 39.686ZM97.3841 39.434V41H88.3301V39.776L93.4601 34.826C94.0841 34.226 94.5041 33.71 94.7201 33.278C94.9361 32.834 95.0441 32.39 95.0441 31.946C95.0441 31.286 94.8101 30.776 94.3421 30.416C93.8861 30.044 93.2261 29.858 92.3621 29.858C90.9701 29.858 89.8961 30.314 89.1401 31.226L87.9161 30.164C88.4081 29.564 89.0501 29.096 89.8421 28.76C90.6461 28.424 91.5401 28.256 92.5241 28.256C93.8441 28.256 94.8941 28.574 95.6741 29.21C96.4541 29.834 96.8441 30.686 96.8441 31.766C96.8441 32.438 96.7001 33.074 96.4121 33.674C96.1241 34.274 95.5781 34.958 94.7741 35.726L90.9221 39.434H97.3841Z" fill="#2F2F2F"/>
<path d="M9.79344 17.42H6.51744V20.642H5.00544V17.42H1.72944V15.998H5.00544V12.758H6.51744V15.998H9.79344V17.42Z" fill="#2F2F2F"/>
<line x1="10" y1="51.5" x2="98" y2="51.5" stroke="#3C3C3C"/>
</svg>
