<svg width="98" height="52" viewBox="0 0 98 52" fill="none" xmlns="http://www.w3.org/2000/svg">
<path d="M27.3472 13.434V15H18.2932V13.776L23.4232 8.826C24.0472 8.226 24.4672 7.71 24.6832 7.278C24.8992 6.834 25.0072 6.39 25.0072 5.946C25.0072 5.286 24.7732 4.776 24.3052 4.416C23.8492 4.044 23.1892 3.858 22.3252 3.858C20.9332 3.858 19.8592 4.314 19.1032 5.226L17.8792 4.164C18.3712 3.564 19.0132 3.096 19.8052 2.76C20.6092 2.424 21.5032 2.256 22.4872 2.256C23.8072 2.256 24.8572 2.574 25.6372 3.21C26.4172 3.834 26.8072 4.686 26.8072 5.766C26.8072 6.438 26.6632 7.074 26.3752 7.674C26.0872 8.274 25.5412 8.958 24.7372 9.726L20.8852 13.434H27.3472ZM37.9271 12.642C38.2631 12.642 38.5391 12.762 38.7551 13.002C38.9831 13.23 39.0971 13.518 39.0971 13.866C39.0971 14.046 39.0731 14.22 39.0251 14.388C38.9891 14.556 38.9111 14.814 38.7911 15.162L37.9451 17.664H36.8111L37.4771 14.982C37.2491 14.898 37.0631 14.76 36.9191 14.568C36.7871 14.364 36.7211 14.13 36.7211 13.866C36.7211 13.506 36.8351 13.212 37.0631 12.984C37.2911 12.756 37.5791 12.642 37.9271 12.642ZM57.8732 2.4V3.624L52.7792 15H50.8712L55.8572 3.966H50.0972V6.216H48.3692V2.4H57.8732ZM75.049 8.394C75.769 8.67 76.321 9.066 76.705 9.582C77.089 10.098 77.281 10.716 77.281 11.436C77.281 12.192 77.077 12.852 76.669 13.416C76.261 13.968 75.679 14.394 74.923 14.694C74.167 14.994 73.279 15.144 72.259 15.144C71.251 15.144 70.369 14.994 69.613 14.694C68.869 14.394 68.293 13.968 67.885 13.416C67.477 12.852 67.273 12.192 67.273 11.436C67.273 10.716 67.459 10.098 67.831 9.582C68.215 9.066 68.767 8.67 69.487 8.394C68.911 8.118 68.473 7.752 68.173 7.296C67.873 6.84 67.723 6.3 67.723 5.676C67.723 4.98 67.909 4.374 68.281 3.858C68.665 3.342 69.199 2.946 69.883 2.67C70.567 2.394 71.359 2.256 72.259 2.256C73.171 2.256 73.969 2.394 74.653 2.67C75.349 2.946 75.883 3.342 76.255 3.858C76.639 4.374 76.831 4.98 76.831 5.676C76.831 6.288 76.675 6.828 76.363 7.296C76.063 7.752 75.625 8.118 75.049 8.394ZM72.259 3.714C71.407 3.714 70.735 3.9 70.243 4.272C69.751 4.632 69.505 5.124 69.505 5.748C69.505 6.372 69.745 6.864 70.225 7.224C70.717 7.584 71.395 7.764 72.259 7.764C73.135 7.764 73.819 7.584 74.311 7.224C74.815 6.864 75.067 6.372 75.067 5.748C75.067 5.124 74.809 4.632 74.293 4.272C73.789 3.9 73.111 3.714 72.259 3.714ZM72.259 13.686C73.255 13.686 74.041 13.482 74.617 13.074C75.193 12.654 75.481 12.09 75.481 11.382C75.481 10.686 75.193 10.14 74.617 9.744C74.041 9.336 73.255 9.132 72.259 9.132C71.263 9.132 70.483 9.336 69.919 9.744C69.355 10.14 69.073 10.686 69.073 11.382C69.073 12.09 69.355 12.654 69.919 13.074C70.483 13.482 71.263 13.686 72.259 13.686ZM97.785 11.904H95.391V15H93.645V11.904H86.643V10.644L93.087 2.4H95.031L88.857 10.356H93.699V7.62H95.391V10.356H97.785V11.904ZM30.3848 37.904H27.9908V41H26.2448V37.904H19.2428V36.644L25.6868 28.4H27.6308L21.4568 36.356H26.2988V33.62H27.9908V36.356H30.3848V37.904ZM40.5638 38.642C40.8998 38.642 41.1758 38.762 41.3918 39.002C41.6198 39.23 41.7338 39.518 41.7338 39.866C41.7338 40.046 41.7098 40.22 41.6618 40.388C41.6258 40.556 41.5478 40.814 41.4278 41.162L40.5818 43.664H39.4478L40.1138 40.982C39.8858 40.898 39.6998 40.76 39.5558 40.568C39.4238 40.364 39.3578 40.13 39.3578 39.866C39.3578 39.506 39.4718 39.212 39.6998 38.984C39.9278 38.756 40.2158 38.642 40.5638 38.642ZM55.4159 28.256C57.1079 28.256 58.4099 28.802 59.3219 29.894C60.2459 30.986 60.7079 32.534 60.7079 34.538C60.7079 35.942 60.4559 37.142 59.9519 38.138C59.4599 39.122 58.7639 39.872 57.8639 40.388C56.9759 40.892 55.9379 41.144 54.7499 41.144C54.1379 41.144 53.5619 41.084 53.0219 40.964C52.4819 40.832 52.0139 40.646 51.6179 40.406L52.3019 39.002C52.9139 39.398 53.7239 39.596 54.7319 39.596C56.0399 39.596 57.0599 39.194 57.7919 38.39C58.5359 37.574 58.9079 36.392 58.9079 34.844V34.394C58.5479 34.934 58.0499 35.348 57.4139 35.636C56.7779 35.912 56.0639 36.05 55.2719 36.05C54.4439 36.05 53.6999 35.894 53.0399 35.582C52.3919 35.27 51.8819 34.826 51.5099 34.25C51.1499 33.662 50.9699 32.99 50.9699 32.234C50.9699 31.442 51.1619 30.746 51.5459 30.146C51.9419 29.546 52.4759 29.084 53.1479 28.76C53.8199 28.424 54.5759 28.256 55.4159 28.256ZM55.5779 34.592C56.1419 34.592 56.6459 34.484 57.0899 34.268C57.5339 34.052 57.8759 33.758 58.1159 33.386C58.3679 33.014 58.4939 32.6 58.4939 32.144C58.4939 31.7 58.3739 31.298 58.1339 30.938C57.9059 30.566 57.5639 30.272 57.1079 30.056C56.6639 29.828 56.1239 29.714 55.4879 29.714C54.6599 29.714 53.9879 29.936 53.4719 30.38C52.9679 30.824 52.7159 31.418 52.7159 32.162C52.7159 32.906 52.9739 33.5 53.4899 33.944C54.0059 34.376 54.7019 34.592 55.5779 34.592ZM75.1573 33.692C76.3933 33.812 77.3353 34.196 77.9833 34.844C78.6313 35.48 78.9553 36.296 78.9553 37.292C78.9553 38.012 78.7753 38.666 78.4153 39.254C78.0553 39.83 77.5153 40.292 76.7953 40.64C76.0873 40.976 75.2173 41.144 74.1853 41.144C73.2853 41.144 72.4213 41.012 71.5933 40.748C70.7653 40.472 70.0873 40.094 69.5593 39.614L70.3873 38.192C70.8193 38.6 71.3713 38.93 72.0433 39.182C72.7153 39.422 73.4293 39.542 74.1853 39.542C75.1213 39.542 75.8473 39.344 76.3633 38.948C76.8913 38.552 77.1553 38.006 77.1553 37.31C77.1553 36.614 76.8973 36.074 76.3813 35.69C75.8653 35.306 75.0853 35.114 74.0413 35.114H73.0333V33.854L76.2013 29.966H70.1353V28.4H78.4513V29.624L75.1573 33.692ZM97.3841 39.434V41H88.3301V39.776L93.4601 34.826C94.0841 34.226 94.5041 33.71 94.7201 33.278C94.9361 32.834 95.0441 32.39 95.0441 31.946C95.0441 31.286 94.8101 30.776 94.3421 30.416C93.8861 30.044 93.2261 29.858 92.3621 29.858C90.9701 29.858 89.8961 30.314 89.1401 31.226L87.9161 30.164C88.4081 29.564 89.0501 29.096 89.8421 28.76C90.6461 28.424 91.5401 28.256 92.5241 28.256C93.8441 28.256 94.8941 28.574 95.6741 29.21C96.4541 29.834 96.8441 30.686 96.8441 31.766C96.8441 32.438 96.7001 33.074 96.4121 33.674C96.1241 34.274 95.5781 34.958 94.7741 35.726L90.9221 39.434H97.3841Z" fill="#2F2F2F"/>
<path d="M9.79344 17.42H6.51744V20.642H5.00544V17.42H1.72944V15.998H5.00544V12.758H6.51744V15.998H9.79344V17.42Z" fill="#2F2F2F"/>
<line x1="10" y1="51.5" x2="98" y2="51.5" stroke="#3C3C3C"/>
</svg>
