<svg width="94" height="52" viewBox="0 0 94 52" fill="none" xmlns="http://www.w3.org/2000/svg">
<path d="M16.808 7.422C18.608 7.422 19.928 7.764 20.768 8.448C21.62 9.12 22.046 10.044 22.046 11.22C22.046 11.964 21.866 12.636 21.506 13.236C21.158 13.824 20.624 14.292 19.904 14.64C19.196 14.976 18.32 15.144 17.276 15.144C16.388 15.144 15.53 15.012 14.702 14.748C13.874 14.472 13.19 14.094 12.65 13.614L13.478 12.192C13.91 12.6 14.462 12.93 15.134 13.182C15.806 13.422 16.514 13.542 17.258 13.542C18.206 13.542 18.938 13.344 19.454 12.948C19.982 12.54 20.246 11.988 20.246 11.292C20.246 10.536 19.958 9.966 19.382 9.582C18.806 9.186 17.822 8.988 16.43 8.988H13.568L14.234 2.4H21.344V3.966H15.746L15.404 7.422H16.808ZM32.6439 12.642C32.9799 12.642 33.2559 12.762 33.4719 13.002C33.6999 13.23 33.8139 13.518 33.8139 13.866C33.8139 14.046 33.7899 14.22 33.7419 14.388C33.7059 14.556 33.6279 14.814 33.5079 15.162L32.6619 17.664H31.5279L32.1939 14.982C31.9659 14.898 31.7799 14.76 31.6359 14.568C31.5039 14.364 31.4379 14.13 31.4379 13.866C31.4379 13.506 31.5519 13.212 31.7799 12.984C32.0079 12.756 32.2959 12.642 32.6439 12.642ZM54.372 11.904H51.978V15H50.232V11.904H43.23V10.644L49.674 2.4H51.618L45.444 10.356H50.286V7.62H51.978V10.356H54.372V11.904ZM71.049 8.394C71.769 8.67 72.321 9.066 72.705 9.582C73.089 10.098 73.281 10.716 73.281 11.436C73.281 12.192 73.077 12.852 72.669 13.416C72.261 13.968 71.679 14.394 70.923 14.694C70.167 14.994 69.279 15.144 68.259 15.144C67.251 15.144 66.369 14.994 65.613 14.694C64.869 14.394 64.293 13.968 63.885 13.416C63.477 12.852 63.273 12.192 63.273 11.436C63.273 10.716 63.459 10.098 63.831 9.582C64.215 9.066 64.767 8.67 65.487 8.394C64.911 8.118 64.473 7.752 64.173 7.296C63.873 6.84 63.723 6.3 63.723 5.676C63.723 4.98 63.909 4.374 64.281 3.858C64.665 3.342 65.199 2.946 65.883 2.67C66.567 2.394 67.359 2.256 68.259 2.256C69.171 2.256 69.969 2.394 70.653 2.67C71.349 2.946 71.883 3.342 72.255 3.858C72.639 4.374 72.831 4.98 72.831 5.676C72.831 6.288 72.675 6.828 72.363 7.296C72.063 7.752 71.625 8.118 71.049 8.394ZM68.259 3.714C67.407 3.714 66.735 3.9 66.243 4.272C65.751 4.632 65.505 5.124 65.505 5.748C65.505 6.372 65.745 6.864 66.225 7.224C66.717 7.584 67.395 7.764 68.259 7.764C69.135 7.764 69.819 7.584 70.311 7.224C70.815 6.864 71.067 6.372 71.067 5.748C71.067 5.124 70.809 4.632 70.293 4.272C69.789 3.9 69.111 3.714 68.259 3.714ZM68.259 13.686C69.255 13.686 70.041 13.482 70.617 13.074C71.193 12.654 71.481 12.09 71.481 11.382C71.481 10.686 71.193 10.14 70.617 9.744C70.041 9.336 69.255 9.132 68.259 9.132C67.263 9.132 66.483 9.336 65.919 9.744C65.355 10.14 65.073 10.686 65.073 11.382C65.073 12.09 65.355 12.654 65.919 13.074C66.483 13.482 67.263 13.686 68.259 13.686ZM93.785 11.904H91.391V15H89.645V11.904H82.643V10.644L89.087 2.4H91.031L84.857 10.356H89.699V7.62H91.391V10.356H93.785V11.904ZM55.6904 37.904H53.2964V41H51.5504V37.904H44.5484V36.644L50.9924 28.4H52.9364L46.7624 36.356H51.6044V33.62H53.2964V36.356H55.6904V37.904ZM69.4874 33.692C70.7234 33.812 71.6654 34.196 72.3134 34.844C72.9614 35.48 73.2854 36.296 73.2854 37.292C73.2854 38.012 73.1054 38.666 72.7454 39.254C72.3854 39.83 71.8454 40.292 71.1254 40.64C70.4174 40.976 69.5474 41.144 68.5154 41.144C67.6154 41.144 66.7514 41.012 65.9234 40.748C65.0954 40.472 64.4174 40.094 63.8894 39.614L64.7174 38.192C65.1494 38.6 65.7014 38.93 66.3734 39.182C67.0454 39.422 67.7594 39.542 68.5154 39.542C69.4514 39.542 70.1774 39.344 70.6934 38.948C71.2214 38.552 71.4854 38.006 71.4854 37.31C71.4854 36.614 71.2274 36.074 70.7114 35.69C70.1954 35.306 69.4154 35.114 68.3714 35.114H67.3634V33.854L70.5314 29.966H64.4654V28.4H72.7814V29.624L69.4874 33.692ZM88.0061 41.144C87.0101 41.144 86.1221 40.892 85.3421 40.388C84.5741 39.872 83.9681 39.128 83.5241 38.156C83.0801 37.184 82.8581 36.032 82.8581 34.7C82.8581 33.368 83.0801 32.216 83.5241 31.244C83.9681 30.272 84.5741 29.534 85.3421 29.03C86.1221 28.514 87.0101 28.256 88.0061 28.256C88.9901 28.256 89.8661 28.514 90.6341 29.03C91.4141 29.534 92.0261 30.272 92.4701 31.244C92.9141 32.216 93.1361 33.368 93.1361 34.7C93.1361 36.032 92.9141 37.184 92.4701 38.156C92.0261 39.128 91.4141 39.872 90.6341 40.388C89.8661 40.892 88.9901 41.144 88.0061 41.144ZM88.0061 39.542C89.0141 39.542 89.8181 39.128 90.4181 38.3C91.0301 37.472 91.3361 36.272 91.3361 34.7C91.3361 33.128 91.0301 31.928 90.4181 31.1C89.8181 30.272 89.0141 29.858 88.0061 29.858C86.9861 29.858 86.1701 30.272 85.5581 31.1C84.9581 31.928 84.6581 33.128 84.6581 34.7C84.6581 36.272 84.9581 37.472 85.5581 38.3C86.1701 39.128 86.9861 39.542 88.0061 39.542Z" fill="#2F2F2F"/>
<path d="M1.13538 17.312H5.97738V18.806H1.13538V17.312Z" fill="#2F2F2F"/>
<line x1="6" y1="51.5" x2="94" y2="51.5" stroke="#3C3C3C"/>
</svg>
