<svg width="105" height="52" viewBox="0 0 105 52" fill="none" xmlns="http://www.w3.org/2000/svg">
<path d="M39.2072 7.35C40.0352 7.35 40.7732 7.506 41.4212 7.818C42.0812 8.13 42.5972 8.58 42.9692 9.168C43.3412 9.744 43.5272 10.41 43.5272 11.166C43.5272 11.958 43.3292 12.654 42.9332 13.254C42.5492 13.854 42.0152 14.322 41.3312 14.658C40.6592 14.982 39.9032 15.144 39.0632 15.144C37.3712 15.144 36.0632 14.598 35.1392 13.506C34.2272 12.414 33.7712 10.866 33.7712 8.862C33.7712 7.458 34.0172 6.264 34.5092 5.28C35.0132 4.284 35.7092 3.534 36.5972 3.03C37.4972 2.514 38.5412 2.256 39.7292 2.256C40.3412 2.256 40.9172 2.322 41.4572 2.454C41.9972 2.574 42.4652 2.754 42.8612 2.994L42.1772 4.398C41.5772 4.002 40.7732 3.804 39.7652 3.804C38.4572 3.804 37.4312 4.212 36.6872 5.028C35.9432 5.832 35.5712 7.008 35.5712 8.556C35.5712 8.748 35.5772 8.898 35.5892 9.006C35.9492 8.466 36.4412 8.058 37.0652 7.782C37.7012 7.494 38.4152 7.35 39.2072 7.35ZM38.9912 13.686C39.8192 13.686 40.4912 13.464 41.0072 13.02C41.5232 12.576 41.7812 11.982 41.7812 11.238C41.7812 10.494 41.5172 9.906 40.9892 9.474C40.4732 9.03 39.7772 8.808 38.9012 8.808C38.3372 8.808 37.8332 8.916 37.3892 9.132C36.9572 9.348 36.6152 9.642 36.3632 10.014C36.1232 10.386 36.0032 10.8 36.0032 11.256C36.0032 11.7 36.1172 12.108 36.3452 12.48C36.5852 12.84 36.9272 13.134 37.3712 13.362C37.8272 13.578 38.3672 13.686 38.9912 13.686ZM63.9625 7.692C65.1985 7.812 66.1405 8.196 66.7885 8.844C67.4365 9.48 67.7605 10.296 67.7605 11.292C67.7605 12.012 67.5805 12.666 67.2205 13.254C66.8605 13.83 66.3205 14.292 65.6005 14.64C64.8925 14.976 64.0225 15.144 62.9905 15.144C62.0905 15.144 61.2265 15.012 60.3985 14.748C59.5705 14.472 58.8925 14.094 58.3645 13.614L59.1925 12.192C59.6245 12.6 60.1765 12.93 60.8485 13.182C61.5205 13.422 62.2345 13.542 62.9905 13.542C63.9265 13.542 64.6525 13.344 65.1685 12.948C65.6965 12.552 65.9605 12.006 65.9605 11.31C65.9605 10.614 65.7025 10.074 65.1865 9.69C64.6705 9.306 63.8905 9.114 62.8465 9.114H61.8385V7.854L65.0065 3.966H58.9405V2.4H67.2565V3.624L63.9625 7.692ZM82.1573 7.692C83.3933 7.812 84.3353 8.196 84.9833 8.844C85.6313 9.48 85.9553 10.296 85.9553 11.292C85.9553 12.012 85.7753 12.666 85.4153 13.254C85.0553 13.83 84.5153 14.292 83.7953 14.64C83.0873 14.976 82.2173 15.144 81.1853 15.144C80.2853 15.144 79.4213 15.012 78.5933 14.748C77.7653 14.472 77.0873 14.094 76.5593 13.614L77.3873 12.192C77.8193 12.6 78.3713 12.93 79.0433 13.182C79.7153 13.422 80.4293 13.542 81.1853 13.542C82.1213 13.542 82.8473 13.344 83.3633 12.948C83.8913 12.552 84.1553 12.006 84.1553 11.31C84.1553 10.614 83.8973 10.074 83.3813 9.69C82.8653 9.306 82.0853 9.114 81.0413 9.114H80.0333V7.854L83.2013 3.966H77.1353V2.4H85.4513V3.624L82.1573 7.692ZM104.384 13.434V15H95.3301V13.776L100.46 8.826C101.084 8.226 101.504 7.71 101.72 7.278C101.936 6.834 102.044 6.39 102.044 5.946C102.044 5.286 101.81 4.776 101.342 4.416C100.886 4.044 100.226 3.858 99.3621 3.858C97.9701 3.858 96.8961 4.314 96.1401 5.226L94.9161 4.164C95.4081 3.564 96.0501 3.096 96.8421 2.76C97.6461 2.424 98.5401 2.256 99.5241 2.256C100.844 2.256 101.894 2.574 102.674 3.21C103.454 3.834 103.844 4.686 103.844 5.766C103.844 6.438 103.7 7.074 103.412 7.674C103.124 8.274 102.578 8.958 101.774 9.726L97.9221 13.434H104.384ZM62.4827 33.35C63.3107 33.35 64.0487 33.506 64.6967 33.818C65.3567 34.13 65.8727 34.58 66.2447 35.168C66.6167 35.744 66.8027 36.41 66.8027 37.166C66.8027 37.958 66.6047 38.654 66.2087 39.254C65.8247 39.854 65.2907 40.322 64.6067 40.658C63.9347 40.982 63.1787 41.144 62.3387 41.144C60.6467 41.144 59.3387 40.598 58.4147 39.506C57.5027 38.414 57.0467 36.866 57.0467 34.862C57.0467 33.458 57.2927 32.264 57.7847 31.28C58.2887 30.284 58.9847 29.534 59.8727 29.03C60.7727 28.514 61.8167 28.256 63.0047 28.256C63.6167 28.256 64.1927 28.322 64.7327 28.454C65.2727 28.574 65.7407 28.754 66.1367 28.994L65.4527 30.398C64.8527 30.002 64.0487 29.804 63.0407 29.804C61.7327 29.804 60.7067 30.212 59.9627 31.028C59.2187 31.832 58.8467 33.008 58.8467 34.556C58.8467 34.748 58.8527 34.898 58.8647 35.006C59.2247 34.466 59.7167 34.058 60.3407 33.782C60.9767 33.494 61.6907 33.35 62.4827 33.35ZM62.2667 39.686C63.0947 39.686 63.7667 39.464 64.2827 39.02C64.7987 38.576 65.0567 37.982 65.0567 37.238C65.0567 36.494 64.7927 35.906 64.2647 35.474C63.7487 35.03 63.0527 34.808 62.1767 34.808C61.6127 34.808 61.1087 34.916 60.6647 35.132C60.2327 35.348 59.8907 35.642 59.6387 36.014C59.3987 36.386 59.2787 36.8 59.2787 37.256C59.2787 37.7 59.3927 38.108 59.6207 38.48C59.8607 38.84 60.2027 39.134 60.6467 39.362C61.1027 39.578 61.6427 39.686 62.2667 39.686ZM83.7541 34.394C84.4741 34.67 85.0261 35.066 85.4101 35.582C85.7941 36.098 85.9861 36.716 85.9861 37.436C85.9861 38.192 85.7821 38.852 85.3741 39.416C84.9661 39.968 84.3841 40.394 83.6281 40.694C82.8721 40.994 81.9841 41.144 80.9641 41.144C79.9561 41.144 79.0741 40.994 78.3181 40.694C77.5741 40.394 76.9981 39.968 76.5901 39.416C76.1821 38.852 75.9781 38.192 75.9781 37.436C75.9781 36.716 76.1641 36.098 76.5361 35.582C76.9201 35.066 77.4721 34.67 78.1921 34.394C77.6161 34.118 77.1781 33.752 76.8781 33.296C76.5781 32.84 76.4281 32.3 76.4281 31.676C76.4281 30.98 76.6141 30.374 76.9861 29.858C77.3701 29.342 77.9041 28.946 78.5881 28.67C79.2721 28.394 80.0641 28.256 80.9641 28.256C81.8761 28.256 82.6741 28.394 83.3581 28.67C84.0541 28.946 84.5881 29.342 84.9601 29.858C85.3441 30.374 85.5361 30.98 85.5361 31.676C85.5361 32.288 85.3801 32.828 85.0681 33.296C84.7681 33.752 84.3301 34.118 83.7541 34.394ZM80.9641 29.714C80.1121 29.714 79.4401 29.9 78.9481 30.272C78.4561 30.632 78.2101 31.124 78.2101 31.748C78.2101 32.372 78.4501 32.864 78.9301 33.224C79.4221 33.584 80.1001 33.764 80.9641 33.764C81.8401 33.764 82.5241 33.584 83.0161 33.224C83.5201 32.864 83.7721 32.372 83.7721 31.748C83.7721 31.124 83.5141 30.632 82.9981 30.272C82.4941 29.9 81.8161 29.714 80.9641 29.714ZM80.9641 39.686C81.9601 39.686 82.7461 39.482 83.3221 39.074C83.8981 38.654 84.1861 38.09 84.1861 37.382C84.1861 36.686 83.8981 36.14 83.3221 35.744C82.7461 35.336 81.9601 35.132 80.9641 35.132C79.9681 35.132 79.1881 35.336 78.6241 35.744C78.0601 36.14 77.7781 36.686 77.7781 37.382C77.7781 38.09 78.0601 38.654 78.6241 39.074C79.1881 39.482 79.9681 39.686 80.9641 39.686ZM104.384 39.434V41H95.3301V39.776L100.46 34.826C101.084 34.226 101.504 33.71 101.72 33.278C101.936 32.834 102.044 32.39 102.044 31.946C102.044 31.286 101.81 30.776 101.342 30.416C100.886 30.044 100.226 29.858 99.3621 29.858C97.9701 29.858 96.8961 30.314 96.1401 31.226L94.9161 30.164C95.4081 29.564 96.0501 29.096 96.8421 28.76C97.6461 28.424 98.5401 28.256 99.5241 28.256C100.844 28.256 101.894 28.574 102.674 29.21C103.454 29.834 103.844 30.686 103.844 31.766C103.844 32.438 103.7 33.074 103.412 33.674C103.124 34.274 102.578 34.958 101.774 35.726L97.9221 39.434H104.384Z" fill="#2F2F2F"/>
<path d="M15.9891 18.7H10.5291V24.07H8.00906V18.7H2.54906V16.33H8.00906V10.93H10.5291V16.33H15.9891V18.7Z" fill="#2F2F2F"/>
<line x1="17" y1="51.5" x2="105" y2="51.5" stroke="#3C3C3C"/>
</svg>
