<svg width="99" height="52" viewBox="0 0 99 52" fill="none" xmlns="http://www.w3.org/2000/svg">
<path d="M31.9767 7.35C32.8047 7.35 33.5427 7.506 34.1907 7.818C34.8507 8.13 35.3667 8.58 35.7387 9.168C36.1107 9.744 36.2967 10.41 36.2967 11.166C36.2967 11.958 36.0987 12.654 35.7027 13.254C35.3187 13.854 34.7847 14.322 34.1007 14.658C33.4287 14.982 32.6727 15.144 31.8327 15.144C30.1407 15.144 28.8327 14.598 27.9087 13.506C26.9967 12.414 26.5407 10.866 26.5407 8.862C26.5407 7.458 26.7867 6.264 27.2787 5.28C27.7827 4.284 28.4787 3.534 29.3667 3.03C30.2667 2.514 31.3107 2.256 32.4987 2.256C33.1107 2.256 33.6867 2.322 34.2267 2.454C34.7667 2.574 35.2347 2.754 35.6307 2.994L34.9467 4.398C34.3467 4.002 33.5427 3.804 32.5347 3.804C31.2267 3.804 30.2007 4.212 29.4567 5.028C28.7127 5.832 28.3407 7.008 28.3407 8.556C28.3407 8.748 28.3467 8.898 28.3587 9.006C28.7187 8.466 29.2107 8.058 29.8347 7.782C30.4707 7.494 31.1847 7.35 31.9767 7.35ZM31.7607 13.686C32.5887 13.686 33.2607 13.464 33.7767 13.02C34.2927 12.576 34.5507 11.982 34.5507 11.238C34.5507 10.494 34.2867 9.906 33.7587 9.474C33.2427 9.03 32.5467 8.808 31.6707 8.808C31.1067 8.808 30.6027 8.916 30.1587 9.132C29.7267 9.348 29.3847 9.642 29.1327 10.014C28.8927 10.386 28.7727 10.8 28.7727 11.256C28.7727 11.7 28.8867 12.108 29.1147 12.48C29.3547 12.84 29.6967 13.134 30.1407 13.362C30.5967 13.578 31.1367 13.686 31.7607 13.686ZM61.0881 2.4V3.624L55.9941 15H54.0861L59.0721 3.966H53.3121V6.216H51.5841V2.4H61.0881ZM75.3839 7.692C76.6199 7.812 77.5619 8.196 78.2099 8.844C78.8579 9.48 79.1819 10.296 79.1819 11.292C79.1819 12.012 79.0019 12.666 78.6419 13.254C78.2819 13.83 77.7419 14.292 77.0219 14.64C76.3139 14.976 75.4439 15.144 74.4119 15.144C73.5119 15.144 72.6479 15.012 71.8199 14.748C70.9919 14.472 70.3139 14.094 69.7859 13.614L70.6139 12.192C71.0459 12.6 71.5979 12.93 72.2699 13.182C72.9419 13.422 73.6559 13.542 74.4119 13.542C75.3479 13.542 76.0739 13.344 76.5899 12.948C77.1179 12.552 77.3819 12.006 77.3819 11.31C77.3819 10.614 77.1239 10.074 76.6079 9.69C76.0919 9.306 75.3119 9.114 74.2679 9.114H73.2599V7.854L76.4279 3.966H70.3619V2.4H78.6779V3.624L75.3839 7.692ZM92.8406 2.256C94.5326 2.256 95.8346 2.802 96.7466 3.894C97.6706 4.986 98.1326 6.534 98.1326 8.538C98.1326 9.942 97.8806 11.142 97.3766 12.138C96.8846 13.122 96.1886 13.872 95.2886 14.388C94.4006 14.892 93.3626 15.144 92.1746 15.144C91.5626 15.144 90.9866 15.084 90.4466 14.964C89.9066 14.832 89.4386 14.646 89.0426 14.406L89.7266 13.002C90.3386 13.398 91.1486 13.596 92.1566 13.596C93.4646 13.596 94.4846 13.194 95.2166 12.39C95.9606 11.574 96.3326 10.392 96.3326 8.844V8.394C95.9726 8.934 95.4746 9.348 94.8386 9.636C94.2026 9.912 93.4886 10.05 92.6966 10.05C91.8686 10.05 91.1246 9.894 90.4646 9.582C89.8166 9.27 89.3066 8.826 88.9346 8.25C88.5746 7.662 88.3946 6.99 88.3946 6.234C88.3946 5.442 88.5866 4.746 88.9706 4.146C89.3666 3.546 89.9006 3.084 90.5726 2.76C91.2446 2.424 92.0006 2.256 92.8406 2.256ZM93.0026 8.592C93.5666 8.592 94.0706 8.484 94.5146 8.268C94.9586 8.052 95.3006 7.758 95.5406 7.386C95.7926 7.014 95.9186 6.6 95.9186 6.144C95.9186 5.7 95.7986 5.298 95.5586 4.938C95.3306 4.566 94.9886 4.272 94.5326 4.056C94.0886 3.828 93.5486 3.714 92.9126 3.714C92.0846 3.714 91.4126 3.936 90.8966 4.38C90.3926 4.824 90.1406 5.418 90.1406 6.162C90.1406 6.906 90.3986 7.5 90.9146 7.944C91.4306 8.376 92.1266 8.592 93.0026 8.592ZM30.8901 33.692C32.1261 33.812 33.0681 34.196 33.7161 34.844C34.3641 35.48 34.6881 36.296 34.6881 37.292C34.6881 38.012 34.5081 38.666 34.1481 39.254C33.7881 39.83 33.2481 40.292 32.5281 40.64C31.8201 40.976 30.9501 41.144 29.9181 41.144C29.0181 41.144 28.1541 41.012 27.3261 40.748C26.4981 40.472 25.8201 40.094 25.2921 39.614L26.1201 38.192C26.5521 38.6 27.1041 38.93 27.7761 39.182C28.4481 39.422 29.1621 39.542 29.9181 39.542C30.8541 39.542 31.5801 39.344 32.0961 38.948C32.6241 38.552 32.8881 38.006 32.8881 37.31C32.8881 36.614 32.6301 36.074 32.1141 35.69C31.5981 35.306 30.8181 35.114 29.7741 35.114H28.7661V33.854L31.9341 29.966H25.8681V28.4H34.1841V29.624L30.8901 33.692ZM59.8049 28.4V29.624L54.7109 41H52.8029L57.7889 29.966H52.0289V32.216H50.3009V28.4H59.8049ZM74.7127 33.35C75.5407 33.35 76.2787 33.506 76.9267 33.818C77.5867 34.13 78.1027 34.58 78.4747 35.168C78.8467 35.744 79.0327 36.41 79.0327 37.166C79.0327 37.958 78.8347 38.654 78.4387 39.254C78.0547 39.854 77.5207 40.322 76.8367 40.658C76.1647 40.982 75.4087 41.144 74.5687 41.144C72.8767 41.144 71.5687 40.598 70.6447 39.506C69.7327 38.414 69.2767 36.866 69.2767 34.862C69.2767 33.458 69.5227 32.264 70.0147 31.28C70.5187 30.284 71.2147 29.534 72.1027 29.03C73.0027 28.514 74.0467 28.256 75.2347 28.256C75.8467 28.256 76.4227 28.322 76.9627 28.454C77.5027 28.574 77.9707 28.754 78.3667 28.994L77.6827 30.398C77.0827 30.002 76.2787 29.804 75.2707 29.804C73.9627 29.804 72.9367 30.212 72.1927 31.028C71.4487 31.832 71.0767 33.008 71.0767 34.556C71.0767 34.748 71.0827 34.898 71.0947 35.006C71.4547 34.466 71.9467 34.058 72.5707 33.782C73.2067 33.494 73.9207 33.35 74.7127 33.35ZM74.4967 39.686C75.3247 39.686 75.9967 39.464 76.5127 39.02C77.0287 38.576 77.2867 37.982 77.2867 37.238C77.2867 36.494 77.0227 35.906 76.4947 35.474C75.9787 35.03 75.2827 34.808 74.4067 34.808C73.8427 34.808 73.3387 34.916 72.8947 35.132C72.4627 35.348 72.1207 35.642 71.8687 36.014C71.6287 36.386 71.5087 36.8 71.5087 37.256C71.5087 37.7 71.6227 38.108 71.8507 38.48C72.0907 38.84 72.4327 39.134 72.8767 39.362C73.3327 39.578 73.8727 39.686 74.4967 39.686ZM95.984 34.394C96.704 34.67 97.256 35.066 97.64 35.582C98.024 36.098 98.216 36.716 98.216 37.436C98.216 38.192 98.012 38.852 97.604 39.416C97.196 39.968 96.614 40.394 95.858 40.694C95.102 40.994 94.214 41.144 93.194 41.144C92.186 41.144 91.304 40.994 90.548 40.694C89.804 40.394 89.228 39.968 88.82 39.416C88.412 38.852 88.208 38.192 88.208 37.436C88.208 36.716 88.394 36.098 88.766 35.582C89.15 35.066 89.702 34.67 90.422 34.394C89.846 34.118 89.408 33.752 89.108 33.296C88.808 32.84 88.658 32.3 88.658 31.676C88.658 30.98 88.844 30.374 89.216 29.858C89.6 29.342 90.134 28.946 90.818 28.67C91.502 28.394 92.294 28.256 93.194 28.256C94.106 28.256 94.904 28.394 95.588 28.67C96.284 28.946 96.818 29.342 97.19 29.858C97.574 30.374 97.766 30.98 97.766 31.676C97.766 32.288 97.61 32.828 97.298 33.296C96.998 33.752 96.56 34.118 95.984 34.394ZM93.194 29.714C92.342 29.714 91.67 29.9 91.178 30.272C90.686 30.632 90.44 31.124 90.44 31.748C90.44 32.372 90.68 32.864 91.16 33.224C91.652 33.584 92.33 33.764 93.194 33.764C94.07 33.764 94.754 33.584 95.246 33.224C95.75 32.864 96.002 32.372 96.002 31.748C96.002 31.124 95.744 30.632 95.228 30.272C94.724 29.9 94.046 29.714 93.194 29.714ZM93.194 39.686C94.19 39.686 94.976 39.482 95.552 39.074C96.128 38.654 96.416 38.09 96.416 37.382C96.416 36.686 96.128 36.14 95.552 35.744C94.976 35.336 94.19 35.132 93.194 35.132C92.198 35.132 91.418 35.336 90.854 35.744C90.29 36.14 90.008 36.686 90.008 37.382C90.008 38.09 90.29 38.654 90.854 39.074C91.418 39.482 92.198 39.686 93.194 39.686Z" fill="#2F2F2F"/>
<path d="M2.22563 18.52H10.2956V21.01H2.22563V18.52Z" fill="#2F2F2F"/>
<line x1="11" y1="51.5" x2="99" y2="51.5" stroke="#3C3C3C"/>
</svg>
