<svg width="94" height="52" viewBox="0 0 94 52" fill="none" xmlns="http://www.w3.org/2000/svg">
<path d="M21.3686 7.35C22.1966 7.35 22.9346 7.506 23.5826 7.818C24.2426 8.13 24.7586 8.58 25.1306 9.168C25.5026 9.744 25.6886 10.41 25.6886 11.166C25.6886 11.958 25.4906 12.654 25.0946 13.254C24.7106 13.854 24.1766 14.322 23.4926 14.658C22.8206 14.982 22.0646 15.144 21.2246 15.144C19.5326 15.144 18.2246 14.598 17.3006 13.506C16.3886 12.414 15.9326 10.866 15.9326 8.862C15.9326 7.458 16.1786 6.264 16.6706 5.28C17.1746 4.284 17.8706 3.534 18.7586 3.03C19.6586 2.514 20.7026 2.256 21.8906 2.256C22.5026 2.256 23.0786 2.322 23.6186 2.454C24.1586 2.574 24.6266 2.754 25.0226 2.994L24.3386 4.398C23.7386 4.002 22.9346 3.804 21.9266 3.804C20.6186 3.804 19.5926 4.212 18.8486 5.028C18.1046 5.832 17.7326 7.008 17.7326 8.556C17.7326 8.748 17.7386 8.898 17.7506 9.006C18.1106 8.466 18.6026 8.058 19.2266 7.782C19.8626 7.494 20.5766 7.35 21.3686 7.35ZM21.1526 13.686C21.9806 13.686 22.6526 13.464 23.1686 13.02C23.6846 12.576 23.9426 11.982 23.9426 11.238C23.9426 10.494 23.6786 9.906 23.1506 9.474C22.6346 9.03 21.9386 8.808 21.0626 8.808C20.4986 8.808 19.9946 8.916 19.5506 9.132C19.1186 9.348 18.7766 9.642 18.5246 10.014C18.2846 10.386 18.1646 10.8 18.1646 11.256C18.1646 11.7 18.2786 12.108 18.5066 12.48C18.7466 12.84 19.0886 13.134 19.5326 13.362C19.9886 13.578 20.5286 13.686 21.1526 13.686ZM36.142 12.642C36.478 12.642 36.754 12.762 36.97 13.002C37.198 13.23 37.312 13.518 37.312 13.866C37.312 14.046 37.288 14.22 37.24 14.388C37.204 14.556 37.126 14.814 37.006 15.162L36.16 17.664H35.026L35.692 14.982C35.464 14.898 35.278 14.76 35.134 14.568C35.002 14.364 34.936 14.13 34.936 13.866C34.936 13.506 35.05 13.212 35.278 12.984C35.506 12.756 35.794 12.642 36.142 12.642ZM56.0881 2.4V3.624L50.9941 15H49.0861L54.0721 3.966H48.3121V6.216H46.5841V2.4H56.0881ZM70.3839 7.692C71.6199 7.812 72.5619 8.196 73.2099 8.844C73.8579 9.48 74.1819 10.296 74.1819 11.292C74.1819 12.012 74.0019 12.666 73.6419 13.254C73.2819 13.83 72.7419 14.292 72.0219 14.64C71.3139 14.976 70.4439 15.144 69.4119 15.144C68.5119 15.144 67.6479 15.012 66.8199 14.748C65.9919 14.472 65.3139 14.094 64.7859 13.614L65.6139 12.192C66.0459 12.6 66.5979 12.93 67.2699 13.182C67.9419 13.422 68.6559 13.542 69.4119 13.542C70.3479 13.542 71.0739 13.344 71.5899 12.948C72.1179 12.552 72.3819 12.006 72.3819 11.31C72.3819 10.614 72.1239 10.074 71.6079 9.69C71.0919 9.306 70.3119 9.114 69.2679 9.114H68.2599V7.854L71.4279 3.966H65.3619V2.4H73.6779V3.624L70.3839 7.692ZM87.8406 2.256C89.5326 2.256 90.8346 2.802 91.7466 3.894C92.6706 4.986 93.1326 6.534 93.1326 8.538C93.1326 9.942 92.8806 11.142 92.3766 12.138C91.8846 13.122 91.1886 13.872 90.2886 14.388C89.4006 14.892 88.3626 15.144 87.1746 15.144C86.5626 15.144 85.9866 15.084 85.4466 14.964C84.9066 14.832 84.4386 14.646 84.0426 14.406L84.7266 13.002C85.3386 13.398 86.1486 13.596 87.1566 13.596C88.4646 13.596 89.4846 13.194 90.2166 12.39C90.9606 11.574 91.3326 10.392 91.3326 8.844V8.394C90.9726 8.934 90.4746 9.348 89.8386 9.636C89.2026 9.912 88.4886 10.05 87.6966 10.05C86.8686 10.05 86.1246 9.894 85.4646 9.582C84.8166 9.27 84.3066 8.826 83.9346 8.25C83.5746 7.662 83.3946 6.99 83.3946 6.234C83.3946 5.442 83.5866 4.746 83.9706 4.146C84.3666 3.546 84.9006 3.084 85.5726 2.76C86.2446 2.424 87.0006 2.256 87.8406 2.256ZM88.0026 8.592C88.5666 8.592 89.0706 8.484 89.5146 8.268C89.9586 8.052 90.3006 7.758 90.5406 7.386C90.7926 7.014 90.9186 6.6 90.9186 6.144C90.9186 5.7 90.7986 5.298 90.5586 4.938C90.3306 4.566 89.9886 4.272 89.5326 4.056C89.0886 3.828 88.5486 3.714 87.9126 3.714C87.0846 3.714 86.4126 3.936 85.8966 4.38C85.3926 4.824 85.1406 5.418 85.1406 6.162C85.1406 6.906 85.3986 7.5 85.9146 7.944C86.4306 8.376 87.1266 8.592 88.0026 8.592ZM20.282 33.692C21.518 33.812 22.46 34.196 23.108 34.844C23.756 35.48 24.08 36.296 24.08 37.292C24.08 38.012 23.9 38.666 23.54 39.254C23.18 39.83 22.64 40.292 21.92 40.64C21.212 40.976 20.342 41.144 19.31 41.144C18.41 41.144 17.546 41.012 16.718 40.748C15.89 40.472 15.212 40.094 14.684 39.614L15.512 38.192C15.944 38.6 16.496 38.93 17.168 39.182C17.84 39.422 18.554 39.542 19.31 39.542C20.246 39.542 20.972 39.344 21.488 38.948C22.016 38.552 22.28 38.006 22.28 37.31C22.28 36.614 22.022 36.074 21.506 35.69C20.99 35.306 20.21 35.114 19.166 35.114H18.158V33.854L21.326 29.966H15.26V28.4H23.576V29.624L20.282 33.692ZM34.8588 38.642C35.1948 38.642 35.4708 38.762 35.6868 39.002C35.9148 39.23 36.0288 39.518 36.0288 39.866C36.0288 40.046 36.0048 40.22 35.9568 40.388C35.9208 40.556 35.8428 40.814 35.7228 41.162L34.8768 43.664H33.7428L34.4088 40.982C34.1808 40.898 33.9948 40.76 33.8508 40.568C33.7188 40.364 33.6528 40.13 33.6528 39.866C33.6528 39.506 33.7668 39.212 33.9948 38.984C34.2228 38.756 34.5108 38.642 34.8588 38.642ZM54.8049 28.4V29.624L49.7109 41H47.8029L52.7889 29.966H47.0289V32.216H45.3009V28.4H54.8049ZM69.7127 33.35C70.5407 33.35 71.2787 33.506 71.9267 33.818C72.5867 34.13 73.1027 34.58 73.4747 35.168C73.8467 35.744 74.0327 36.41 74.0327 37.166C74.0327 37.958 73.8347 38.654 73.4387 39.254C73.0547 39.854 72.5207 40.322 71.8367 40.658C71.1647 40.982 70.4087 41.144 69.5687 41.144C67.8767 41.144 66.5687 40.598 65.6447 39.506C64.7327 38.414 64.2767 36.866 64.2767 34.862C64.2767 33.458 64.5227 32.264 65.0147 31.28C65.5187 30.284 66.2147 29.534 67.1027 29.03C68.0027 28.514 69.0467 28.256 70.2347 28.256C70.8467 28.256 71.4227 28.322 71.9627 28.454C72.5027 28.574 72.9707 28.754 73.3667 28.994L72.6827 30.398C72.0827 30.002 71.2787 29.804 70.2707 29.804C68.9627 29.804 67.9367 30.212 67.1927 31.028C66.4487 31.832 66.0767 33.008 66.0767 34.556C66.0767 34.748 66.0827 34.898 66.0947 35.006C66.4547 34.466 66.9467 34.058 67.5707 33.782C68.2067 33.494 68.9207 33.35 69.7127 33.35ZM69.4967 39.686C70.3247 39.686 70.9967 39.464 71.5127 39.02C72.0287 38.576 72.2867 37.982 72.2867 37.238C72.2867 36.494 72.0227 35.906 71.4947 35.474C70.9787 35.03 70.2827 34.808 69.4067 34.808C68.8427 34.808 68.3387 34.916 67.8947 35.132C67.4627 35.348 67.1207 35.642 66.8687 36.014C66.6287 36.386 66.5087 36.8 66.5087 37.256C66.5087 37.7 66.6227 38.108 66.8507 38.48C67.0907 38.84 67.4327 39.134 67.8767 39.362C68.3327 39.578 68.8727 39.686 69.4967 39.686ZM90.984 34.394C91.704 34.67 92.256 35.066 92.64 35.582C93.024 36.098 93.216 36.716 93.216 37.436C93.216 38.192 93.012 38.852 92.604 39.416C92.196 39.968 91.614 40.394 90.858 40.694C90.102 40.994 89.214 41.144 88.194 41.144C87.186 41.144 86.304 40.994 85.548 40.694C84.804 40.394 84.228 39.968 83.82 39.416C83.412 38.852 83.208 38.192 83.208 37.436C83.208 36.716 83.394 36.098 83.766 35.582C84.15 35.066 84.702 34.67 85.422 34.394C84.846 34.118 84.408 33.752 84.108 33.296C83.808 32.84 83.658 32.3 83.658 31.676C83.658 30.98 83.844 30.374 84.216 29.858C84.6 29.342 85.134 28.946 85.818 28.67C86.502 28.394 87.294 28.256 88.194 28.256C89.106 28.256 89.904 28.394 90.588 28.67C91.284 28.946 91.818 29.342 92.19 29.858C92.574 30.374 92.766 30.98 92.766 31.676C92.766 32.288 92.61 32.828 92.298 33.296C91.998 33.752 91.56 34.118 90.984 34.394ZM88.194 29.714C87.342 29.714 86.67 29.9 86.178 30.272C85.686 30.632 85.44 31.124 85.44 31.748C85.44 32.372 85.68 32.864 86.16 33.224C86.652 33.584 87.33 33.764 88.194 33.764C89.07 33.764 89.754 33.584 90.246 33.224C90.75 32.864 91.002 32.372 91.002 31.748C91.002 31.124 90.744 30.632 90.228 30.272C89.724 29.9 89.046 29.714 88.194 29.714ZM88.194 39.686C89.19 39.686 89.976 39.482 90.552 39.074C91.128 38.654 91.416 38.09 91.416 37.382C91.416 36.686 91.128 36.14 90.552 35.744C89.976 35.336 89.19 35.132 88.194 35.132C87.198 35.132 86.418 35.336 85.854 35.744C85.29 36.14 85.008 36.686 85.008 37.382C85.008 38.09 85.29 38.654 85.854 39.074C86.418 39.482 87.198 39.686 88.194 39.686Z" fill="#2F2F2F"/>
<path d="M1.13538 17.312H5.97738V18.806H1.13538V17.312Z" fill="#2F2F2F"/>
<line x1="6" y1="51.5" x2="94" y2="51.5" stroke="#3C3C3C"/>
</svg>
