<svg width="395" height="141" viewBox="0 0 395 141" fill="none" xmlns="http://www.w3.org/2000/svg">
<path d="M16.3233 19.9882V22.0762H4.25128V20.4442L11.0913 13.8442C11.9233 13.0442 12.4833 12.3562 12.7713 11.7802C13.0593 11.1882 13.2033 10.5962 13.2033 10.0042C13.2033 9.12417 12.8913 8.44417 12.2673 7.96417C11.6593 7.46817 10.7793 7.22017 9.62728 7.22017C7.77128 7.22017 6.33928 7.82817 5.33128 9.04417L3.69928 7.62817C4.35528 6.82817 5.21128 6.20417 6.26728 5.75617C7.33928 5.30817 8.53128 5.08417 9.84328 5.08417C11.6033 5.08417 13.0033 5.50817 14.0433 6.35617C15.0833 7.18817 15.6033 8.32417 15.6033 9.76417C15.6033 10.6602 15.4113 11.5082 15.0273 12.3082C14.6433 13.1082 13.9153 14.0202 12.8433 15.0442L7.70728 19.9882H16.3233ZM31.9178 13.6762L35.0138 16.7962L33.7178 18.1882L30.5738 15.0202L27.4298 18.1882L26.1578 16.7962L29.2538 13.6762L26.1578 10.5562L27.4298 9.16417L30.5738 12.3322L33.7178 9.16417L35.0138 10.5562L31.9178 13.6762ZM49.1399 26.7322C48.2279 25.2602 47.5239 23.5722 47.0279 21.6682C46.5319 19.7482 46.2839 17.6922 46.2839 15.5002C46.2839 13.3082 46.5319 11.2522 47.0279 9.33217C47.5239 7.39617 48.2279 5.70817 49.1399 4.26817H51.3239C50.3639 5.94817 49.6599 7.70817 49.2119 9.54817C48.7639 11.3882 48.5399 13.3722 48.5399 15.5002C48.5399 17.6282 48.7639 19.6122 49.2119 21.4522C49.6599 23.2922 50.3639 25.0522 51.3239 26.7322H49.1399ZM66.9352 11.8762C68.0392 11.8762 69.0232 12.0842 69.8872 12.5002C70.7672 12.9162 71.4552 13.5162 71.9512 14.3002C72.4472 15.0682 72.6952 15.9562 72.6952 16.9642C72.6952 18.0202 72.4312 18.9482 71.9032 19.7482C71.3912 20.5482 70.6792 21.1722 69.7672 21.6202C68.8712 22.0522 67.8632 22.2682 66.7432 22.2682C64.4872 22.2682 62.7432 21.5402 61.5112 20.0842C60.2952 18.6282 59.6872 16.5642 59.6872 13.8922C59.6872 12.0202 60.0152 10.4282 60.6712 9.11617C61.3432 7.78817 62.2712 6.78817 63.4552 6.11617C64.6552 5.42817 66.0472 5.08417 67.6312 5.08417C68.4472 5.08417 69.2152 5.17217 69.9352 5.34817C70.6552 5.50817 71.2792 5.74817 71.8072 6.06817L70.8952 7.94017C70.0952 7.41217 69.0232 7.14817 67.6792 7.14817C65.9352 7.14817 64.5672 7.69217 63.5752 8.78017C62.5832 9.85217 62.0872 11.4202 62.0872 13.4842C62.0872 13.7402 62.0952 13.9402 62.1112 14.0842C62.5912 13.3642 63.2472 12.8202 64.0792 12.4522C64.9272 12.0682 65.8792 11.8762 66.9352 11.8762ZM66.6472 20.3242C67.7512 20.3242 68.6472 20.0282 69.3352 19.4362C70.0232 18.8442 70.3672 18.0522 70.3672 17.0602C70.3672 16.0682 70.0152 15.2842 69.3112 14.7082C68.6232 14.1162 67.6952 13.8202 66.5272 13.8202C65.7752 13.8202 65.1032 13.9642 64.5112 14.2522C63.9352 14.5402 63.4792 14.9322 63.1432 15.4282C62.8232 15.9242 62.6632 16.4762 62.6632 17.0842C62.6632 17.6762 62.8152 18.2202 63.1192 18.7162C63.4392 19.1962 63.8952 19.5882 64.4872 19.8922C65.0952 20.1802 65.8152 20.3242 66.6472 20.3242ZM86.5756 5.27617V6.90817L79.7836 22.0762H77.2396L83.8876 7.36417H76.2076V10.3642H73.9036V5.27617H86.5756ZM106.333 14.6362H101.965V18.9322H99.9487V14.6362H95.5807V12.7402H99.9487V8.42017H101.965V12.7402H106.333V14.6362ZM119.523 26.7322C118.611 25.2602 117.907 23.5722 117.411 21.6682C116.915 19.7482 116.667 17.6922 116.667 15.5002C116.667 13.3082 116.915 11.2522 117.411 9.33217C117.907 7.39617 118.611 5.70817 119.523 4.26817H121.707C120.747 5.94817 120.043 7.70817 119.595 9.54817C119.147 11.3882 118.923 13.3722 118.923 15.5002C118.923 17.6282 119.147 19.6122 119.595 21.4522C120.043 23.2922 120.747 25.0522 121.707 26.7322H119.523ZM135.278 5.27617V22.0762H132.902V7.36417H129.11V5.27617H135.278ZM150.761 19.9882V22.0762H138.689V20.4442L145.529 13.8442C146.361 13.0442 146.921 12.3562 147.209 11.7802C147.497 11.1882 147.641 10.5962 147.641 10.0042C147.641 9.12417 147.329 8.44417 146.705 7.96417C146.097 7.46817 145.217 7.22017 144.065 7.22017C142.209 7.22017 140.777 7.82817 139.769 9.04417L138.137 7.62817C138.793 6.82817 139.649 6.20417 140.705 5.75617C141.777 5.30817 142.969 5.08417 144.281 5.08417C146.041 5.08417 147.441 5.50817 148.481 6.35617C149.521 7.18817 150.041 8.32417 150.041 9.76417C150.041 10.6602 149.849 11.5082 149.465 12.3082C149.081 13.1082 148.353 14.0202 147.281 15.0442L142.145 19.9882H150.761ZM163.006 13.2682C163.966 13.6362 164.702 14.1642 165.214 14.8522C165.726 15.5402 165.982 16.3642 165.982 17.3242C165.982 18.3322 165.71 19.2122 165.166 19.9642C164.622 20.7002 163.846 21.2682 162.838 21.6682C161.83 22.0682 160.646 22.2682 159.286 22.2682C157.942 22.2682 156.766 22.0682 155.758 21.6682C154.766 21.2682 153.998 20.7002 153.454 19.9642C152.91 19.2122 152.638 18.3322 152.638 17.3242C152.638 16.3642 152.886 15.5402 153.382 14.8522C153.894 14.1642 154.63 13.6362 155.59 13.2682C154.822 12.9002 154.238 12.4122 153.838 11.8042C153.438 11.1962 153.238 10.4762 153.238 9.64417C153.238 8.71617 153.486 7.90817 153.982 7.22017C154.494 6.53217 155.206 6.00417 156.118 5.63617C157.03 5.26817 158.086 5.08417 159.286 5.08417C160.502 5.08417 161.566 5.26817 162.478 5.63617C163.406 6.00417 164.118 6.53217 164.614 7.22017C165.126 7.90817 165.382 8.71617 165.382 9.64417C165.382 10.4602 165.174 11.1802 164.758 11.8042C164.358 12.4122 163.774 12.9002 163.006 13.2682ZM159.286 7.02817C158.15 7.02817 157.254 7.27617 156.598 7.77217C155.942 8.25217 155.614 8.90817 155.614 9.74017C155.614 10.5722 155.934 11.2282 156.574 11.7082C157.23 12.1882 158.134 12.4282 159.286 12.4282C160.454 12.4282 161.366 12.1882 162.022 11.7082C162.694 11.2282 163.03 10.5722 163.03 9.74017C163.03 8.90817 162.686 8.25217 161.998 7.77217C161.326 7.27617 160.422 7.02817 159.286 7.02817ZM159.286 20.3242C160.614 20.3242 161.662 20.0522 162.43 19.5082C163.198 18.9482 163.582 18.1962 163.582 17.2522C163.582 16.3242 163.198 15.5962 162.43 15.0682C161.662 14.5242 160.614 14.2522 159.286 14.2522C157.958 14.2522 156.918 14.5242 156.166 15.0682C155.414 15.5962 155.038 16.3242 155.038 17.2522C155.038 18.1962 155.414 18.9482 156.166 19.5082C156.918 20.0522 157.958 20.3242 159.286 20.3242ZM180.457 10.3882C180.073 10.3882 179.745 10.2522 179.473 9.98017C179.217 9.69217 179.089 9.34817 179.089 8.94817C179.089 8.53217 179.217 8.18817 179.473 7.91617C179.745 7.64417 180.073 7.50817 180.457 7.50817C180.857 7.50817 181.185 7.64417 181.441 7.91617C181.713 8.18817 181.849 8.53217 181.849 8.94817C181.849 9.36417 181.713 9.70817 181.441 9.98017C181.185 10.2522 180.857 10.3882 180.457 10.3882ZM175.081 12.7402H185.833V14.6362H175.081V12.7402ZM180.457 19.8442C180.073 19.8442 179.745 19.7082 179.473 19.4362C179.217 19.1482 179.089 18.7962 179.089 18.3802C179.089 17.9802 179.217 17.6442 179.473 17.3722C179.745 17.1002 180.073 16.9642 180.457 16.9642C180.857 16.9642 181.185 17.1002 181.441 17.3722C181.713 17.6442 181.849 17.9802 181.849 18.3802C181.849 18.7962 181.713 19.1482 181.441 19.4362C181.185 19.7082 180.857 19.8442 180.457 19.8442ZM206.847 19.9882V22.0762H194.775V20.4442L201.615 13.8442C202.447 13.0442 203.007 12.3562 203.295 11.7802C203.583 11.1882 203.727 10.5962 203.727 10.0042C203.727 9.12417 203.415 8.44417 202.791 7.96417C202.183 7.46817 201.303 7.22017 200.151 7.22017C198.295 7.22017 196.863 7.82817 195.855 9.04417L194.223 7.62817C194.879 6.82817 195.735 6.20417 196.791 5.75617C197.863 5.30817 199.055 5.08417 200.367 5.08417C202.127 5.08417 203.527 5.50817 204.567 6.35617C205.607 7.18817 206.127 8.32417 206.127 9.76417C206.127 10.6602 205.935 11.5082 205.551 12.3082C205.167 13.1082 204.439 14.0202 203.367 15.0442L198.231 19.9882H206.847ZM214.881 26.7322C215.841 25.0522 216.545 23.2922 216.993 21.4522C217.457 19.6122 217.689 17.6282 217.689 15.5002C217.689 13.3722 217.457 11.3882 216.993 9.54817C216.545 7.70817 215.841 5.94817 214.881 4.26817H217.065C217.993 5.70817 218.705 7.38817 219.201 9.30817C219.697 11.2282 219.945 13.2922 219.945 15.5002C219.945 17.6922 219.697 19.7482 219.201 21.6682C218.705 23.5882 217.993 25.2762 217.065 26.7322H214.881ZM229.436 26.7322C230.396 25.0522 231.1 23.2922 231.548 21.4522C232.012 19.6122 232.244 17.6282 232.244 15.5002C232.244 13.3722 232.012 11.3882 231.548 9.54817C231.1 7.70817 230.396 5.94817 229.436 4.26817H231.62C232.548 5.70817 233.26 7.38817 233.756 9.30817C234.252 11.2282 234.5 13.2922 234.5 15.5002C234.5 17.6922 234.252 19.7482 233.756 21.6682C233.26 23.5882 232.548 25.2762 231.62 26.7322H229.436ZM244.831 9.88417H255.583V11.7802H244.831V9.88417ZM244.831 15.5722H255.583V17.4682H244.831V15.5722Z" fill="#2F2F2F"/>
<path d="M272.005 1.13983L318.851 1.01351L318.841 -0.986463L271.995 -0.860148L272.005 1.13983ZM322.872 5.00267L322.974 25.0026L324.974 24.9972L324.872 4.99728L322.872 5.00267ZM318.995 29.0133L272.149 29.1396L272.159 31.1396L319.005 31.0133L318.995 29.0133ZM268.128 25.1505L268.026 5.15056L266.026 5.15595L266.128 25.1559L268.128 25.1505ZM272.149 29.1396C269.94 29.1456 268.14 27.3596 268.128 25.1505L266.128 25.1559C266.146 28.4695 268.846 31.1486 272.159 31.1396L272.149 29.1396ZM322.974 25.0026C322.986 27.2117 321.204 29.0074 318.995 29.0133L319.005 31.0133C322.319 31.0044 324.991 28.3109 324.974 24.9972L322.974 25.0026ZM318.851 1.01351C321.06 1.00755 322.86 2.79356 322.872 5.00267L324.872 4.99728C324.854 1.68361 322.154 -0.995398 318.841 -0.986463L318.851 1.01351ZM271.995 -0.860148C268.681 -0.851213 266.009 1.84229 266.026 5.15595L268.026 5.15056C268.014 2.94145 269.796 1.14578 272.005 1.13983L271.995 -0.860148Z" fill="#2F2F2F"/>
<path d="M9.90822 66.4855C11.5562 66.6455 12.8122 67.1575 13.6762 68.0215C14.5402 68.8695 14.9722 69.9575 14.9722 71.2855C14.9722 72.2455 14.7322 73.1175 14.2522 73.9015C13.7722 74.6695 13.0522 75.2855 12.0922 75.7495C11.1482 76.1975 9.98822 76.4215 8.61222 76.4215C7.41222 76.4215 6.26022 76.2455 5.15622 75.8935C4.05222 75.5255 3.14822 75.0215 2.44422 74.3815L3.54822 72.4855C4.12422 73.0295 4.86022 73.4695 5.75622 73.8055C6.65222 74.1255 7.60422 74.2855 8.61222 74.2855C9.86022 74.2855 10.8282 74.0215 11.5162 73.4935C12.2202 72.9655 12.5722 72.2375 12.5722 71.3095C12.5722 70.3815 12.2282 69.6615 11.5402 69.1495C10.8522 68.6375 9.81222 68.3815 8.42022 68.3815H7.07622V66.7015L11.3002 61.5175H3.21222V59.4295H14.3002V61.0615L9.90822 66.4855ZM30.8319 67.8295L33.9279 70.9495L32.6319 72.3415L29.4879 69.1735L26.3439 72.3415L25.0719 70.9495L28.1679 67.8295L25.0719 64.7095L26.3439 63.3175L29.4879 66.4855L32.6319 63.3175L33.9279 64.7095L30.8319 67.8295ZM48.054 80.8855C47.142 79.4135 46.438 77.7255 45.942 75.8215C45.446 73.9015 45.198 71.8455 45.198 69.6535C45.198 67.4615 45.446 65.4055 45.942 63.4855C46.438 61.5495 47.142 59.8615 48.054 58.4215H50.238C49.278 60.1015 48.574 61.8615 48.126 63.7015C47.678 65.5415 47.454 67.5255 47.454 69.6535C47.454 71.7815 47.678 73.7655 48.126 75.6055C48.574 77.4455 49.278 79.2055 50.238 80.8855H48.054ZM65.0332 66.4855C66.6812 66.6455 67.9372 67.1575 68.8012 68.0215C69.6652 68.8695 70.0972 69.9575 70.0972 71.2855C70.0972 72.2455 69.8572 73.1175 69.3772 73.9015C68.8972 74.6695 68.1772 75.2855 67.2172 75.7495C66.2732 76.1975 65.1132 76.4215 63.7372 76.4215C62.5372 76.4215 61.3852 76.2455 60.2812 75.8935C59.1772 75.5255 58.2732 75.0215 57.5692 74.3815L58.6732 72.4855C59.2492 73.0295 59.9852 73.4695 60.8812 73.8055C61.7772 74.1255 62.7292 74.2855 63.7372 74.2855C64.9852 74.2855 65.9532 74.0215 66.6412 73.4935C67.3452 72.9655 67.6972 72.2375 67.6972 71.3095C67.6972 70.3815 67.3532 69.6615 66.6652 69.1495C65.9772 68.6375 64.9372 68.3815 63.5452 68.3815H62.2012V66.7015L66.4252 61.5175H58.3372V59.4295H69.4252V61.0615L65.0332 66.4855ZM76.9012 66.1255C79.3012 66.1255 81.0612 66.5815 82.1812 67.4935C83.3172 68.3895 83.8852 69.6215 83.8852 71.1895C83.8852 72.1815 83.6452 73.0775 83.1652 73.8775C82.7012 74.6615 81.9892 75.2855 81.0292 75.7495C80.0852 76.1975 78.9172 76.4215 77.5252 76.4215C76.3412 76.4215 75.1972 76.2455 74.0932 75.8935C72.9892 75.5255 72.0772 75.0215 71.3572 74.3815L72.4612 72.4855C73.0372 73.0295 73.7732 73.4695 74.6692 73.8055C75.5652 74.1255 76.5092 74.2855 77.5012 74.2855C78.7652 74.2855 79.7412 74.0215 80.4292 73.4935C81.1332 72.9495 81.4852 72.2135 81.4852 71.2855C81.4852 70.2775 81.1012 69.5175 80.3332 69.0055C79.5652 68.4775 78.2532 68.2135 76.3972 68.2135H72.5812L73.4692 59.4295H82.9492V61.5175H75.4852L75.0292 66.1255H76.9012ZM93.1305 66.0295C94.2345 66.0295 95.2185 66.2375 96.0825 66.6535C96.9625 67.0695 97.6505 67.6695 98.1465 68.4535C98.6425 69.2215 98.8905 70.1095 98.8905 71.1175C98.8905 72.1735 98.6265 73.1015 98.0985 73.9015C97.5865 74.7015 96.8745 75.3255 95.9625 75.7735C95.0665 76.2055 94.0585 76.4215 92.9385 76.4215C90.6825 76.4215 88.9385 75.6935 87.7065 74.2375C86.4905 72.7815 85.8825 70.7175 85.8825 68.0455C85.8825 66.1735 86.2105 64.5815 86.8665 63.2695C87.5385 61.9415 88.4665 60.9415 89.6505 60.2695C90.8505 59.5815 92.2425 59.2375 93.8265 59.2375C94.6425 59.2375 95.4105 59.3255 96.1305 59.5015C96.8505 59.6615 97.4745 59.9015 98.0025 60.2215L97.0905 62.0935C96.2905 61.5655 95.2185 61.3015 93.8745 61.3015C92.1305 61.3015 90.7625 61.8455 89.7705 62.9335C88.7785 64.0055 88.2825 65.5735 88.2825 67.6375C88.2825 67.8935 88.2905 68.0935 88.3065 68.2375C88.7865 67.5175 89.4425 66.9735 90.2745 66.6055C91.1225 66.2215 92.0745 66.0295 93.1305 66.0295ZM92.8425 74.4775C93.9465 74.4775 94.8425 74.1815 95.5305 73.5895C96.2185 72.9975 96.5625 72.2055 96.5625 71.2135C96.5625 70.2215 96.2105 69.4375 95.5065 68.8615C94.8185 68.2695 93.8905 67.9735 92.7225 67.9735C91.9705 67.9735 91.2985 68.1175 90.7065 68.4055C90.1305 68.6935 89.6745 69.0855 89.3385 69.5815C89.0185 70.0775 88.8585 70.6295 88.8585 71.2375C88.8585 71.8295 89.0105 72.3735 89.3145 72.8695C89.6345 73.3495 90.0905 73.7415 90.6825 74.0455C91.2905 74.3335 92.0105 74.4775 92.8425 74.4775ZM112.771 59.4295V61.0615L105.979 76.2295H103.435L110.083 61.5175H102.403V64.5175H100.099V59.4295H112.771ZM121.536 68.6455H127.992V70.6375H121.536V68.6455ZM140.937 80.8855C140.025 79.4135 139.321 77.7255 138.825 75.8215C138.329 73.9015 138.081 71.8455 138.081 69.6535C138.081 67.4615 138.329 65.4055 138.825 63.4855C139.321 61.5495 140.025 59.8615 140.937 58.4215H143.121C142.161 60.1015 141.457 61.8615 141.009 63.7015C140.561 65.5415 140.337 67.5255 140.337 69.6535C140.337 71.7815 140.561 73.7655 141.009 75.6055C141.457 77.4455 142.161 79.2055 143.121 80.8855H140.937ZM163.292 74.1415V76.2295H151.22V74.5975L158.06 67.9975C158.892 67.1975 159.452 66.5095 159.74 65.9335C160.028 65.3415 160.172 64.7495 160.172 64.1575C160.172 63.2775 159.86 62.5975 159.236 62.1175C158.628 61.6215 157.748 61.3735 156.596 61.3735C154.74 61.3735 153.308 61.9815 152.3 63.1975L150.668 61.7815C151.324 60.9815 152.18 60.3575 153.236 59.9095C154.308 59.4615 155.5 59.2375 156.812 59.2375C158.572 59.2375 159.972 59.6615 161.012 60.5095C162.052 61.3415 162.572 62.4775 162.572 63.9175C162.572 64.8135 162.38 65.6615 161.996 66.4615C161.612 67.2615 160.884 68.1735 159.812 69.1975L154.676 74.1415H163.292ZM172.059 76.4215C170.731 76.4215 169.547 76.0855 168.507 75.4135C167.483 74.7255 166.675 73.7335 166.083 72.4375C165.491 71.1415 165.195 69.6055 165.195 67.8295C165.195 66.0535 165.491 64.5175 166.083 63.2215C166.675 61.9255 167.483 60.9415 168.507 60.2695C169.547 59.5815 170.731 59.2375 172.059 59.2375C173.371 59.2375 174.539 59.5815 175.563 60.2695C176.603 60.9415 177.419 61.9255 178.011 63.2215C178.603 64.5175 178.899 66.0535 178.899 67.8295C178.899 69.6055 178.603 71.1415 178.011 72.4375C177.419 73.7335 176.603 74.7255 175.563 75.4135C174.539 76.0855 173.371 76.4215 172.059 76.4215ZM172.059 74.2855C173.403 74.2855 174.475 73.7335 175.275 72.6295C176.091 71.5255 176.499 69.9255 176.499 67.8295C176.499 65.7335 176.091 64.1335 175.275 63.0295C174.475 61.9255 173.403 61.3735 172.059 61.3735C170.699 61.3735 169.611 61.9255 168.795 63.0295C167.995 64.1335 167.595 65.7335 167.595 67.8295C167.595 69.9255 167.995 71.5255 168.795 72.6295C169.611 73.7335 170.699 74.2855 172.059 74.2855ZM188.067 76.4215C186.739 76.4215 185.555 76.0855 184.515 75.4135C183.491 74.7255 182.683 73.7335 182.091 72.4375C181.499 71.1415 181.203 69.6055 181.203 67.8295C181.203 66.0535 181.499 64.5175 182.091 63.2215C182.683 61.9255 183.491 60.9415 184.515 60.2695C185.555 59.5815 186.739 59.2375 188.067 59.2375C189.379 59.2375 190.547 59.5815 191.571 60.2695C192.611 60.9415 193.427 61.9255 194.019 63.2215C194.611 64.5175 194.907 66.0535 194.907 67.8295C194.907 69.6055 194.611 71.1415 194.019 72.4375C193.427 73.7335 192.611 74.7255 191.571 75.4135C190.547 76.0855 189.379 76.4215 188.067 76.4215ZM188.067 74.2855C189.411 74.2855 190.483 73.7335 191.283 72.6295C192.099 71.5255 192.507 69.9255 192.507 67.8295C192.507 65.7335 192.099 64.1335 191.283 63.0295C190.483 61.9255 189.411 61.3735 188.067 61.3735C186.707 61.3735 185.619 61.9255 184.803 63.0295C184.003 64.1335 183.603 65.7335 183.603 67.8295C183.603 69.9255 184.003 71.5255 184.803 72.6295C185.619 73.7335 186.707 74.2855 188.067 74.2855ZM204.075 76.4215C202.747 76.4215 201.563 76.0855 200.523 75.4135C199.499 74.7255 198.691 73.7335 198.099 72.4375C197.507 71.1415 197.211 69.6055 197.211 67.8295C197.211 66.0535 197.507 64.5175 198.099 63.2215C198.691 61.9255 199.499 60.9415 200.523 60.2695C201.563 59.5815 202.747 59.2375 204.075 59.2375C205.387 59.2375 206.555 59.5815 207.579 60.2695C208.619 60.9415 209.435 61.9255 210.027 63.2215C210.619 64.5175 210.915 66.0535 210.915 67.8295C210.915 69.6055 210.619 71.1415 210.027 72.4375C209.435 73.7335 208.619 74.7255 207.579 75.4135C206.555 76.0855 205.387 76.4215 204.075 76.4215ZM204.075 74.2855C205.419 74.2855 206.491 73.7335 207.291 72.6295C208.107 71.5255 208.515 69.9255 208.515 67.8295C208.515 65.7335 208.107 64.1335 207.291 63.0295C206.491 61.9255 205.419 61.3735 204.075 61.3735C202.715 61.3735 201.627 61.9255 200.811 63.0295C200.011 64.1335 199.611 65.7335 199.611 67.8295C199.611 69.9255 200.011 71.5255 200.811 72.6295C201.627 73.7335 202.715 74.2855 204.075 74.2855ZM225.496 64.5415C225.112 64.5415 224.784 64.4055 224.512 64.1335C224.256 63.8455 224.128 63.5015 224.128 63.1015C224.128 62.6855 224.256 62.3415 224.512 62.0695C224.784 61.7975 225.112 61.6615 225.496 61.6615C225.896 61.6615 226.224 61.7975 226.48 62.0695C226.752 62.3415 226.888 62.6855 226.888 63.1015C226.888 63.5175 226.752 63.8615 226.48 64.1335C226.224 64.4055 225.896 64.5415 225.496 64.5415ZM220.12 66.8935H230.872V68.7895H220.12V66.8935ZM225.496 73.9975C225.112 73.9975 224.784 73.8615 224.512 73.5895C224.256 73.3015 224.128 72.9495 224.128 72.5335C224.128 72.1335 224.256 71.7975 224.512 71.5255C224.784 71.2535 225.112 71.1175 225.496 71.1175C225.896 71.1175 226.224 71.2535 226.48 71.5255C226.752 71.7975 226.888 72.1335 226.888 72.5335C226.888 72.9495 226.752 73.3015 226.48 73.5895C226.224 73.8615 225.896 73.9975 225.496 73.9975ZM251.886 74.1415V76.2295H239.814V74.5975L246.654 67.9975C247.486 67.1975 248.046 66.5095 248.334 65.9335C248.622 65.3415 248.766 64.7495 248.766 64.1575C248.766 63.2775 248.454 62.5975 247.83 62.1175C247.222 61.6215 246.342 61.3735 245.19 61.3735C243.334 61.3735 241.902 61.9815 240.894 63.1975L239.262 61.7815C239.918 60.9815 240.774 60.3575 241.83 59.9095C242.902 59.4615 244.094 59.2375 245.406 59.2375C247.166 59.2375 248.566 59.6615 249.606 60.5095C250.646 61.3415 251.166 62.4775 251.166 63.9175C251.166 64.8135 250.974 65.6615 250.59 66.4615C250.206 67.2615 249.478 68.1735 248.406 69.1975L243.27 74.1415H251.886ZM259.92 80.8855C260.88 79.2055 261.584 77.4455 262.032 75.6055C262.496 73.7655 262.728 71.7815 262.728 69.6535C262.728 67.5255 262.496 65.5415 262.032 63.7015C261.584 61.8615 260.88 60.1015 259.92 58.4215H262.104C263.032 59.8615 263.744 61.5415 264.24 63.4615C264.736 65.3815 264.984 67.4455 264.984 69.6535C264.984 71.8455 264.736 73.9015 264.24 75.8215C263.744 77.7415 263.032 79.4295 262.104 80.8855H259.92ZM274.475 80.8855C275.435 79.2055 276.139 77.4455 276.587 75.6055C277.051 73.7655 277.283 71.7815 277.283 69.6535C277.283 67.5255 277.051 65.5415 276.587 63.7015C276.139 61.8615 275.435 60.1015 274.475 58.4215H276.659C277.587 59.8615 278.299 61.5415 278.795 63.4615C279.291 65.3815 279.539 67.4455 279.539 69.6535C279.539 71.8455 279.291 73.9015 278.795 75.8215C278.299 77.7415 277.587 79.4295 276.659 80.8855H274.475ZM289.87 64.0375H300.622V65.9335H289.87V64.0375ZM289.87 69.7255H300.622V71.6215H289.87V69.7255Z" fill="#2F2F2F"/>
<path d="M316.005 56.2931L362.851 56.1668L362.841 54.1669L315.995 54.2932L316.005 56.2931ZM366.872 60.156L366.974 80.1559L368.974 80.1505L368.872 60.1506L366.872 60.156ZM362.995 84.1667L316.149 84.293L316.159 86.2929L363.005 86.1666L362.995 84.1667ZM312.128 80.3038L312.026 60.3039L310.026 60.3093L310.128 80.3092L312.128 80.3038ZM316.149 84.293C313.94 84.2989 312.14 82.5129 312.128 80.3038L310.128 80.3092C310.146 83.6229 312.846 86.3019 316.159 86.2929L316.149 84.293ZM366.974 80.1559C366.986 82.365 365.204 84.1607 362.995 84.1667L363.005 86.1666C366.319 86.1577 368.991 83.4642 368.974 80.1505L366.974 80.1559ZM362.851 56.1668C365.06 56.1609 366.86 57.9469 366.872 60.156L368.872 60.1506C368.854 56.8369 366.154 54.1579 362.841 54.1669L362.851 56.1668ZM315.995 54.2932C312.681 54.3021 310.009 56.9956 310.026 60.3093L312.026 60.3039C312.014 58.0948 313.796 56.2991 316.005 56.2931L315.995 54.2932Z" fill="#2F2F2F"/>
<path d="M5.71413 135.538C4.80213 134.066 4.09813 132.378 3.60213 130.474C3.10613 128.554 2.85813 126.498 2.85813 124.306C2.85813 122.114 3.10613 120.058 3.60213 118.138C4.09813 116.202 4.80213 114.514 5.71413 113.074H7.89813C6.93813 114.754 6.23413 116.514 5.78613 118.354C5.33813 120.194 5.11413 122.178 5.11413 124.306C5.11413 126.434 5.33813 128.418 5.78613 130.258C6.23413 132.098 6.93813 133.858 7.89813 135.538H5.71413ZM22.0561 114.082V115.714L15.2641 130.882H12.7201L19.3681 116.17H11.6881V119.17H9.38406V114.082H22.0561ZM37.7811 122.482L40.8771 125.602L39.5811 126.994L36.4371 123.826L33.2931 126.994L32.0211 125.602L35.1171 122.482L32.0211 119.362L33.2931 117.97L36.4371 121.138L39.5811 117.97L40.8771 119.362L37.7811 122.482ZM57.4512 121.138C59.0992 121.298 60.3552 121.81 61.2192 122.674C62.0832 123.522 62.5152 124.61 62.5152 125.938C62.5152 126.898 62.2752 127.77 61.7952 128.554C61.3152 129.322 60.5952 129.938 59.6352 130.402C58.6912 130.85 57.5312 131.074 56.1552 131.074C54.9552 131.074 53.8032 130.898 52.6992 130.546C51.5952 130.178 50.6912 129.674 49.9872 129.034L51.0912 127.138C51.6672 127.682 52.4032 128.122 53.2992 128.458C54.1952 128.778 55.1472 128.938 56.1552 128.938C57.4032 128.938 58.3712 128.674 59.0592 128.146C59.7632 127.618 60.1152 126.89 60.1152 125.962C60.1152 125.034 59.7712 124.314 59.0832 123.802C58.3952 123.29 57.3552 123.034 55.9632 123.034H54.6192V121.354L58.8432 116.17H50.7552V114.082H61.8432V115.714L57.4512 121.138ZM64.3696 135.538C65.3296 133.858 66.0336 132.098 66.4816 130.258C66.9456 128.418 67.1776 126.434 67.1776 124.306C67.1776 122.178 66.9456 120.194 66.4816 118.354C66.0336 116.514 65.3296 114.754 64.3696 113.074H66.5536C67.4816 114.514 68.1936 116.194 68.6896 118.114C69.1856 120.034 69.4336 122.098 69.4336 124.306C69.4336 126.498 69.1856 128.554 68.6896 130.474C68.1936 132.394 67.4816 134.082 66.5536 135.538H64.3696ZM90.5163 123.442H86.1483V127.738H84.1323V123.442H79.7643V121.546H84.1323V117.226H86.1483V121.546H90.5163V123.442ZM111.53 128.794V130.882H99.4583V129.25L106.298 122.65C107.13 121.85 107.69 121.162 107.978 120.586C108.266 119.994 108.41 119.402 108.41 118.81C108.41 117.93 108.098 117.25 107.474 116.77C106.866 116.274 105.986 116.026 104.834 116.026C102.978 116.026 101.546 116.634 100.538 117.85L98.9063 116.434C99.5623 115.634 100.418 115.01 101.474 114.562C102.546 114.114 103.738 113.89 105.05 113.89C106.81 113.89 108.21 114.314 109.25 115.162C110.29 115.994 110.81 117.13 110.81 118.57C110.81 119.466 110.618 120.314 110.234 121.114C109.85 121.914 109.122 122.826 108.05 123.85L102.914 128.794H111.53ZM127.125 122.482L130.221 125.602L128.925 126.994L125.781 123.826L122.637 126.994L121.365 125.602L124.461 122.482L121.365 119.362L122.637 117.97L125.781 121.138L128.925 117.97L130.221 119.362L127.125 122.482ZM141.731 113.074H146.747V114.97H144.035V133.642H146.747V135.538H141.731V113.074ZM160.008 114.082V130.882H157.632V116.17H153.84V114.082H160.008ZM168.891 114.082V130.882H166.515V116.17H162.723V114.082H168.891ZM190.219 123.442H185.851V127.738H183.835V123.442H179.467V121.546H183.835V117.226H185.851V121.546H190.219V123.442ZM203.409 135.538C202.497 134.066 201.793 132.378 201.297 130.474C200.801 128.554 200.553 126.498 200.553 124.306C200.553 122.114 200.801 120.058 201.297 118.138C201.793 116.202 202.497 114.514 203.409 113.074H205.593C204.633 114.754 203.929 116.514 203.481 118.354C203.033 120.194 202.809 122.178 202.809 124.306C202.809 126.434 203.033 128.418 203.481 130.258C203.929 132.098 204.633 133.858 205.593 135.538H203.409ZM226.197 114.082V115.714L219.405 130.882H216.861L223.509 116.17H215.829V119.17H213.525V114.082H226.197ZM240.108 128.794V130.882H228.036V129.25L234.876 122.65C235.708 121.85 236.268 121.162 236.556 120.586C236.844 119.994 236.988 119.402 236.988 118.81C236.988 117.93 236.676 117.25 236.052 116.77C235.444 116.274 234.564 116.026 233.412 116.026C231.556 116.026 230.124 116.634 229.116 117.85L227.484 116.434C228.14 115.634 228.996 115.01 230.052 114.562C231.124 114.114 232.316 113.89 233.628 113.89C235.388 113.89 236.788 114.314 237.828 115.162C238.868 115.994 239.388 117.13 239.388 118.57C239.388 119.466 239.196 120.314 238.812 121.114C238.428 121.914 237.7 122.826 236.628 123.85L231.492 128.794H240.108ZM254.359 119.194C253.975 119.194 253.647 119.058 253.375 118.786C253.119 118.498 252.991 118.154 252.991 117.754C252.991 117.338 253.119 116.994 253.375 116.722C253.647 116.45 253.975 116.314 254.359 116.314C254.759 116.314 255.087 116.45 255.343 116.722C255.615 116.994 255.751 117.338 255.751 117.754C255.751 118.17 255.615 118.514 255.343 118.786C255.087 119.058 254.759 119.194 254.359 119.194ZM248.983 121.546H259.735V123.442H248.983V121.546ZM254.359 128.65C253.975 128.65 253.647 128.514 253.375 128.242C253.119 127.954 252.991 127.602 252.991 127.186C252.991 126.786 253.119 126.45 253.375 126.178C253.647 125.906 253.975 125.77 254.359 125.77C254.759 125.77 255.087 125.906 255.343 126.178C255.615 126.45 255.751 126.786 255.751 127.186C255.751 127.602 255.615 127.954 255.343 128.242C255.087 128.514 254.759 128.65 254.359 128.65ZM280.749 128.794V130.882H268.677V129.25L275.517 122.65C276.349 121.85 276.909 121.162 277.197 120.586C277.485 119.994 277.629 119.402 277.629 118.81C277.629 117.93 277.317 117.25 276.693 116.77C276.085 116.274 275.205 116.026 274.053 116.026C272.197 116.026 270.765 116.634 269.757 117.85L268.125 116.434C268.781 115.634 269.637 115.01 270.693 114.562C271.765 114.114 272.957 113.89 274.269 113.89C276.029 113.89 277.429 114.314 278.469 115.162C279.509 115.994 280.029 117.13 280.029 118.57C280.029 119.466 279.837 120.314 279.453 121.114C279.069 121.914 278.341 122.826 277.269 123.85L272.133 128.794H280.749ZM288.784 135.538C289.744 133.858 290.448 132.098 290.896 130.258C291.36 128.418 291.592 126.434 291.592 124.306C291.592 122.178 291.36 120.194 290.896 118.354C290.448 116.514 289.744 114.754 288.784 113.074H290.968C291.896 114.514 292.608 116.194 293.104 118.114C293.6 120.034 293.848 122.098 293.848 124.306C293.848 126.498 293.6 128.554 293.104 130.474C292.608 132.394 291.896 134.082 290.968 135.538H288.784ZM303.026 135.538V133.642H305.738V114.97H303.026V113.074H308.042V135.538H303.026ZM318.616 118.69H329.368V120.586H318.616V118.69ZM318.616 124.378H329.368V126.274H318.616V124.378Z" fill="#2F2F2F"/>
<path d="M343.005 111.445L389.851 111.319L389.841 109.319L342.995 109.446L343.005 111.445ZM393.872 115.308L393.974 135.308L395.974 135.303L395.872 115.303L393.872 115.308ZM389.995 139.319L343.149 139.445L343.159 141.445L390.005 141.319L389.995 139.319ZM339.128 135.456L339.026 115.456L337.026 115.462L337.128 135.462L339.128 135.456ZM343.149 139.445C340.94 139.451 339.14 137.665 339.128 135.456L337.128 135.462C337.146 138.775 339.846 141.454 343.159 141.445L343.149 139.445ZM393.974 135.308C393.986 137.517 392.204 139.313 389.995 139.319L390.005 141.319C393.319 141.31 395.991 138.617 395.974 135.303L393.974 135.308ZM389.851 111.319C392.06 111.313 393.86 113.099 393.872 115.308L395.872 115.303C395.854 111.989 393.154 109.31 389.841 109.319L389.851 111.319ZM342.995 109.446C339.681 109.454 337.009 112.148 337.026 115.462L339.026 115.456C339.014 113.247 340.796 111.451 343.005 111.445L342.995 109.446Z" fill="#2F2F2F"/>
<path d="M287.931 21.434V23H278.877V21.776L284.007 16.826C284.631 16.226 285.051 15.71 285.267 15.278C285.483 14.834 285.591 14.39 285.591 13.946C285.591 13.286 285.357 12.776 284.889 12.416C284.433 12.044 283.773 11.858 282.909 11.858C281.517 11.858 280.443 12.314 279.687 13.226L278.463 12.164C278.955 11.564 279.597 11.096 280.389 10.76C281.193 10.424 282.087 10.256 283.071 10.256C284.391 10.256 285.441 10.574 286.221 11.21C287.001 11.834 287.391 12.686 287.391 13.766C287.391 14.438 287.247 15.074 286.959 15.674C286.671 16.274 286.125 16.958 285.321 17.726L281.469 21.434H287.931ZM296.325 15.35C297.153 15.35 297.891 15.506 298.539 15.818C299.199 16.13 299.715 16.58 300.087 17.168C300.459 17.744 300.645 18.41 300.645 19.166C300.645 19.958 300.447 20.654 300.051 21.254C299.667 21.854 299.133 22.322 298.449 22.658C297.777 22.982 297.021 23.144 296.181 23.144C294.489 23.144 293.181 22.598 292.257 21.506C291.345 20.414 290.889 18.866 290.889 16.862C290.889 15.458 291.135 14.264 291.627 13.28C292.131 12.284 292.827 11.534 293.715 11.03C294.615 10.514 295.659 10.256 296.847 10.256C297.459 10.256 298.035 10.322 298.575 10.454C299.115 10.574 299.583 10.754 299.979 10.994L299.295 12.398C298.695 12.002 297.891 11.804 296.883 11.804C295.575 11.804 294.549 12.212 293.805 13.028C293.061 13.832 292.689 15.008 292.689 16.556C292.689 16.748 292.695 16.898 292.707 17.006C293.067 16.466 293.559 16.058 294.183 15.782C294.819 15.494 295.533 15.35 296.325 15.35ZM296.109 21.686C296.937 21.686 297.609 21.464 298.125 21.02C298.641 20.576 298.899 19.982 298.899 19.238C298.899 18.494 298.635 17.906 298.107 17.474C297.591 17.03 296.895 16.808 296.019 16.808C295.455 16.808 294.951 16.916 294.507 17.132C294.075 17.348 293.733 17.642 293.481 18.014C293.241 18.386 293.121 18.8 293.121 19.256C293.121 19.7 293.235 20.108 293.463 20.48C293.703 20.84 294.045 21.134 294.489 21.362C294.945 21.578 295.485 21.686 296.109 21.686ZM312.384 21.434V23H303.33V21.776L308.46 16.826C309.084 16.226 309.504 15.71 309.72 15.278C309.936 14.834 310.044 14.39 310.044 13.946C310.044 13.286 309.81 12.776 309.342 12.416C308.886 12.044 308.226 11.858 307.362 11.858C305.97 11.858 304.896 12.314 304.14 13.226L302.916 12.164C303.408 11.564 304.05 11.096 304.842 10.76C305.646 10.424 306.54 10.256 307.524 10.256C308.844 10.256 309.894 10.574 310.674 11.21C311.454 11.834 311.844 12.686 311.844 13.766C311.844 14.438 311.7 15.074 311.412 15.674C311.124 16.274 310.578 16.958 309.774 17.726L305.922 21.434H312.384Z" fill="#2F2F2F"/>
<path d="M327.675 63.4V64.624L322.581 76H320.673L325.659 64.966H319.899V67.216H318.171V63.4H327.675ZM339.963 63.4V64.624L334.869 76H332.961L337.947 64.966H332.187V67.216H330.459V63.4H339.963ZM347.867 76.144C346.871 76.144 345.983 75.892 345.203 75.388C344.435 74.872 343.829 74.128 343.385 73.156C342.941 72.184 342.719 71.032 342.719 69.7C342.719 68.368 342.941 67.216 343.385 66.244C343.829 65.272 344.435 64.534 345.203 64.03C345.983 63.514 346.871 63.256 347.867 63.256C348.851 63.256 349.727 63.514 350.495 64.03C351.275 64.534 351.887 65.272 352.331 66.244C352.775 67.216 352.997 68.368 352.997 69.7C352.997 71.032 352.775 72.184 352.331 73.156C351.887 74.128 351.275 74.872 350.495 75.388C349.727 75.892 348.851 76.144 347.867 76.144ZM347.867 74.542C348.875 74.542 349.679 74.128 350.279 73.3C350.891 72.472 351.197 71.272 351.197 69.7C351.197 68.128 350.891 66.928 350.279 66.1C349.679 65.272 348.875 64.858 347.867 64.858C346.847 64.858 346.031 65.272 345.419 66.1C344.819 66.928 344.519 68.128 344.519 69.7C344.519 71.272 344.819 72.472 345.419 73.3C346.031 74.128 346.847 74.542 347.867 74.542ZM360.108 63.4V76H358.326V64.966H355.482V63.4H360.108Z" fill="#2F2F2F"/>
<path d="M359.05 118.4V131H357.268V119.966H354.424V118.4H359.05ZM367.242 118.4V131H365.46V119.966H362.616V118.4H367.242ZM375.128 123.422C376.928 123.422 378.248 123.764 379.088 124.448C379.94 125.12 380.366 126.044 380.366 127.22C380.366 127.964 380.186 128.636 379.826 129.236C379.478 129.824 378.944 130.292 378.224 130.64C377.516 130.976 376.64 131.144 375.596 131.144C374.708 131.144 373.85 131.012 373.022 130.748C372.194 130.472 371.51 130.094 370.97 129.614L371.798 128.192C372.23 128.6 372.782 128.93 373.454 129.182C374.126 129.422 374.834 129.542 375.578 129.542C376.526 129.542 377.258 129.344 377.774 128.948C378.302 128.54 378.566 127.988 378.566 127.292C378.566 126.536 378.278 125.966 377.702 125.582C377.126 125.186 376.142 124.988 374.75 124.988H371.888L372.554 118.4H379.664V119.966H374.066L373.724 123.422H375.128Z" fill="#2F2F2F"/>
</svg>
