<svg width="97" height="30" viewBox="0 0 97 30" fill="none" xmlns="http://www.w3.org/2000/svg">
<path d="M72.796 21.108C71.824 21.108 70.954 20.898 70.186 20.478C69.43 20.058 68.836 19.482 68.404 18.75C67.972 18.006 67.756 17.166 67.756 16.23C67.756 15.294 67.972 14.46 68.404 13.728C68.836 12.984 69.43 12.408 70.186 12C70.954 11.58 71.824 11.37 72.796 11.37C73.66 11.37 74.428 11.544 75.1 11.892C75.784 12.24 76.312 12.744 76.684 13.404L75.37 14.25C75.07 13.794 74.698 13.452 74.254 13.224C73.81 12.996 73.318 12.882 72.778 12.882C72.154 12.882 71.59 13.02 71.086 13.296C70.594 13.572 70.204 13.968 69.916 14.484C69.64 14.988 69.502 15.57 69.502 16.23C69.502 16.902 69.64 17.496 69.916 18.012C70.204 18.516 70.594 18.906 71.086 19.182C71.59 19.458 72.154 19.596 72.778 19.596C73.318 19.596 73.81 19.482 74.254 19.254C74.698 19.026 75.07 18.684 75.37 18.228L76.684 19.056C76.312 19.716 75.784 20.226 75.1 20.586C74.428 20.934 73.66 21.108 72.796 21.108ZM90.8552 11.37C92.0552 11.37 93.0032 11.718 93.6992 12.414C94.4072 13.11 94.7612 14.142 94.7612 15.51V21H93.0332V15.708C93.0332 14.784 92.8172 14.088 92.3852 13.62C91.9652 13.152 91.3592 12.918 90.5672 12.918C89.6912 12.918 88.9952 13.194 88.4792 13.746C87.9632 14.286 87.7052 15.066 87.7052 16.086V21H85.9772V15.708C85.9772 14.784 85.7612 14.088 85.3292 13.62C84.9092 13.152 84.3032 12.918 83.5112 12.918C82.6352 12.918 81.9392 13.194 81.4232 13.746C80.9072 14.286 80.6492 15.066 80.6492 16.086V21H78.9212V11.46H80.5772V12.882C80.9252 12.39 81.3812 12.018 81.9452 11.766C82.5092 11.502 83.1512 11.37 83.8712 11.37C84.6152 11.37 85.2752 11.52 85.8512 11.82C86.4272 12.12 86.8712 12.558 87.1832 13.134C87.5432 12.582 88.0412 12.15 88.6772 11.838C89.3252 11.526 90.0512 11.37 90.8552 11.37Z" fill="#2F2F2F"/>
<path d="M36.552 19.434V21H27.498V19.776L32.628 14.826C33.252 14.226 33.672 13.71 33.888 13.278C34.104 12.834 34.212 12.39 34.212 11.946C34.212 11.286 33.978 10.776 33.51 10.416C33.054 10.044 32.394 9.858 31.53 9.858C30.138 9.858 29.064 10.314 28.308 11.226L27.084 10.164C27.576 9.564 28.218 9.096 29.01 8.76C29.814 8.424 30.708 8.256 31.692 8.256C33.012 8.256 34.062 8.574 34.842 9.21C35.622 9.834 36.012 10.686 36.012 11.766C36.012 12.438 35.868 13.074 35.58 13.674C35.292 14.274 34.746 14.958 33.942 15.726L30.09 19.434H36.552Z" fill="#2F2F2F"/>
<path d="M5 1H59V-1H5V1ZM63 5V25H65V5H63ZM59 29H5V31H59V29ZM1 25V5H-1V25H1ZM5 29C2.79086 29 1 27.2091 1 25H-1C-1 28.3137 1.68629 31 5 31V29ZM63 25C63 27.2091 61.2091 29 59 29V31C62.3137 31 65 28.3137 65 25H63ZM59 1C61.2091 1 63 2.79086 63 5H65C65 1.68629 62.3137 -1 59 -1V1ZM5 -1C1.68629 -1 -1 1.68629 -1 5H1C1 2.79086 2.79086 1 5 1V-1Z" fill="#2F2F2F"/>
</svg>
