<svg width="311" height="24" viewBox="0 0 311 24" fill="none" xmlns="http://www.w3.org/2000/svg">
<path d="M9.90822 8.256C11.5562 8.416 12.8122 8.928 13.6762 9.792C14.5402 10.64 14.9722 11.728 14.9722 13.056C14.9722 14.016 14.7322 14.888 14.2522 15.672C13.7722 16.44 13.0522 17.056 12.0922 17.52C11.1482 17.968 9.98822 18.192 8.61222 18.192C7.41222 18.192 6.26022 18.016 5.15622 17.664C4.05222 17.296 3.14822 16.792 2.44422 16.152L3.54822 14.256C4.12422 14.8 4.86022 15.24 5.75622 15.576C6.65222 15.896 7.60422 16.056 8.61222 16.056C9.86022 16.056 10.8282 15.792 11.5162 15.264C12.2202 14.736 12.5722 14.008 12.5722 13.08C12.5722 12.152 12.2282 11.432 11.5402 10.92C10.8522 10.408 9.81222 10.152 8.42022 10.152H7.07622V8.472L11.3002 3.288H3.21222V1.2H14.3002V2.832L9.90822 8.256ZM30.8319 9.6L33.9279 12.72L32.6319 14.112L29.4879 10.944L26.3439 14.112L25.0719 12.72L28.1679 9.6L25.0719 6.48L26.3439 5.088L29.4879 8.256L32.6319 5.088L33.9279 6.48L30.8319 9.6ZM48.054 22.656C47.142 21.184 46.438 19.496 45.942 17.592C45.446 15.672 45.198 13.616 45.198 11.424C45.198 9.232 45.446 7.176 45.942 5.256C46.438 3.32 47.142 1.632 48.054 0.191999H50.238C49.278 1.872 48.574 3.632 48.126 5.472C47.678 7.312 47.454 9.296 47.454 11.424C47.454 13.552 47.678 15.536 48.126 17.376C48.574 19.216 49.278 20.976 50.238 22.656H48.054ZM65.0332 8.256C66.6812 8.416 67.9372 8.928 68.8012 9.792C69.6652 10.64 70.0972 11.728 70.0972 13.056C70.0972 14.016 69.8572 14.888 69.3772 15.672C68.8972 16.44 68.1772 17.056 67.2172 17.52C66.2732 17.968 65.1132 18.192 63.7372 18.192C62.5372 18.192 61.3852 18.016 60.2812 17.664C59.1772 17.296 58.2732 16.792 57.5692 16.152L58.6732 14.256C59.2492 14.8 59.9852 15.24 60.8812 15.576C61.7772 15.896 62.7292 16.056 63.7372 16.056C64.9852 16.056 65.9532 15.792 66.6412 15.264C67.3452 14.736 67.6972 14.008 67.6972 13.08C67.6972 12.152 67.3532 11.432 66.6652 10.92C65.9772 10.408 64.9372 10.152 63.5452 10.152H62.2012V8.472L66.4252 3.288H58.3372V1.2H69.4252V2.832L65.0332 8.256ZM76.9012 7.896C79.3012 7.896 81.0612 8.352 82.1812 9.264C83.3172 10.16 83.8852 11.392 83.8852 12.96C83.8852 13.952 83.6452 14.848 83.1652 15.648C82.7012 16.432 81.9892 17.056 81.0292 17.52C80.0852 17.968 78.9172 18.192 77.5252 18.192C76.3412 18.192 75.1972 18.016 74.0932 17.664C72.9892 17.296 72.0772 16.792 71.3572 16.152L72.4612 14.256C73.0372 14.8 73.7732 15.24 74.6692 15.576C75.5652 15.896 76.5092 16.056 77.5012 16.056C78.7652 16.056 79.7412 15.792 80.4292 15.264C81.1332 14.72 81.4852 13.984 81.4852 13.056C81.4852 12.048 81.1012 11.288 80.3332 10.776C79.5652 10.248 78.2532 9.984 76.3972 9.984H72.5812L73.4692 1.2H82.9492V3.288H75.4852L75.0292 7.896H76.9012ZM93.1305 7.8C94.2345 7.8 95.2185 8.008 96.0825 8.424C96.9625 8.84 97.6505 9.44 98.1465 10.224C98.6425 10.992 98.8905 11.88 98.8905 12.888C98.8905 13.944 98.6265 14.872 98.0985 15.672C97.5865 16.472 96.8745 17.096 95.9625 17.544C95.0665 17.976 94.0585 18.192 92.9385 18.192C90.6825 18.192 88.9385 17.464 87.7065 16.008C86.4905 14.552 85.8825 12.488 85.8825 9.816C85.8825 7.944 86.2105 6.352 86.8665 5.04C87.5385 3.712 88.4665 2.712 89.6505 2.04C90.8505 1.352 92.2425 1.008 93.8265 1.008C94.6425 1.008 95.4105 1.096 96.1305 1.272C96.8505 1.432 97.4745 1.672 98.0025 1.992L97.0905 3.864C96.2905 3.336 95.2185 3.072 93.8745 3.072C92.1305 3.072 90.7625 3.616 89.7705 4.704C88.7785 5.776 88.2825 7.344 88.2825 9.408C88.2825 9.664 88.2905 9.864 88.3065 10.008C88.7865 9.288 89.4425 8.744 90.2745 8.376C91.1225 7.992 92.0745 7.8 93.1305 7.8ZM92.8425 16.248C93.9465 16.248 94.8425 15.952 95.5305 15.36C96.2185 14.768 96.5625 13.976 96.5625 12.984C96.5625 11.992 96.2105 11.208 95.5065 10.632C94.8185 10.04 93.8905 9.744 92.7225 9.744C91.9705 9.744 91.2985 9.888 90.7065 10.176C90.1305 10.464 89.6745 10.856 89.3385 11.352C89.0185 11.848 88.8585 12.4 88.8585 13.008C88.8585 13.6 89.0105 14.144 89.3145 14.64C89.6345 15.12 90.0905 15.512 90.6825 15.816C91.2905 16.104 92.0105 16.248 92.8425 16.248ZM112.771 1.2V2.832L105.979 18H103.435L110.083 3.288H102.403V6.288H100.099V1.2H112.771ZM121.536 10.416H127.992V12.408H121.536V10.416ZM140.937 22.656C140.025 21.184 139.321 19.496 138.825 17.592C138.329 15.672 138.081 13.616 138.081 11.424C138.081 9.232 138.329 7.176 138.825 5.256C139.321 3.32 140.025 1.632 140.937 0.191999H143.121C142.161 1.872 141.457 3.632 141.009 5.472C140.561 7.312 140.337 9.296 140.337 11.424C140.337 13.552 140.561 15.536 141.009 17.376C141.457 19.216 142.161 20.976 143.121 22.656H140.937ZM163.292 15.912V18H151.22V16.368L158.06 9.768C158.892 8.968 159.452 8.28 159.74 7.704C160.028 7.112 160.172 6.52 160.172 5.928C160.172 5.048 159.86 4.368 159.236 3.888C158.628 3.392 157.748 3.144 156.596 3.144C154.74 3.144 153.308 3.752 152.3 4.968L150.668 3.552C151.324 2.752 152.18 2.128 153.236 1.68C154.308 1.232 155.5 1.008 156.812 1.008C158.572 1.008 159.972 1.432 161.012 2.28C162.052 3.112 162.572 4.248 162.572 5.688C162.572 6.584 162.38 7.432 161.996 8.232C161.612 9.032 160.884 9.944 159.812 10.968L154.676 15.912H163.292ZM172.059 18.192C170.731 18.192 169.547 17.856 168.507 17.184C167.483 16.496 166.675 15.504 166.083 14.208C165.491 12.912 165.195 11.376 165.195 9.6C165.195 7.824 165.491 6.288 166.083 4.992C166.675 3.696 167.483 2.712 168.507 2.04C169.547 1.352 170.731 1.008 172.059 1.008C173.371 1.008 174.539 1.352 175.563 2.04C176.603 2.712 177.419 3.696 178.011 4.992C178.603 6.288 178.899 7.824 178.899 9.6C178.899 11.376 178.603 12.912 178.011 14.208C177.419 15.504 176.603 16.496 175.563 17.184C174.539 17.856 173.371 18.192 172.059 18.192ZM172.059 16.056C173.403 16.056 174.475 15.504 175.275 14.4C176.091 13.296 176.499 11.696 176.499 9.6C176.499 7.504 176.091 5.904 175.275 4.8C174.475 3.696 173.403 3.144 172.059 3.144C170.699 3.144 169.611 3.696 168.795 4.8C167.995 5.904 167.595 7.504 167.595 9.6C167.595 11.696 167.995 13.296 168.795 14.4C169.611 15.504 170.699 16.056 172.059 16.056ZM188.067 18.192C186.739 18.192 185.555 17.856 184.515 17.184C183.491 16.496 182.683 15.504 182.091 14.208C181.499 12.912 181.203 11.376 181.203 9.6C181.203 7.824 181.499 6.288 182.091 4.992C182.683 3.696 183.491 2.712 184.515 2.04C185.555 1.352 186.739 1.008 188.067 1.008C189.379 1.008 190.547 1.352 191.571 2.04C192.611 2.712 193.427 3.696 194.019 4.992C194.611 6.288 194.907 7.824 194.907 9.6C194.907 11.376 194.611 12.912 194.019 14.208C193.427 15.504 192.611 16.496 191.571 17.184C190.547 17.856 189.379 18.192 188.067 18.192ZM188.067 16.056C189.411 16.056 190.483 15.504 191.283 14.4C192.099 13.296 192.507 11.696 192.507 9.6C192.507 7.504 192.099 5.904 191.283 4.8C190.483 3.696 189.411 3.144 188.067 3.144C186.707 3.144 185.619 3.696 184.803 4.8C184.003 5.904 183.603 7.504 183.603 9.6C183.603 11.696 184.003 13.296 184.803 14.4C185.619 15.504 186.707 16.056 188.067 16.056ZM204.075 18.192C202.747 18.192 201.563 17.856 200.523 17.184C199.499 16.496 198.691 15.504 198.099 14.208C197.507 12.912 197.211 11.376 197.211 9.6C197.211 7.824 197.507 6.288 198.099 4.992C198.691 3.696 199.499 2.712 200.523 2.04C201.563 1.352 202.747 1.008 204.075 1.008C205.387 1.008 206.555 1.352 207.579 2.04C208.619 2.712 209.435 3.696 210.027 4.992C210.619 6.288 210.915 7.824 210.915 9.6C210.915 11.376 210.619 12.912 210.027 14.208C209.435 15.504 208.619 16.496 207.579 17.184C206.555 17.856 205.387 18.192 204.075 18.192ZM204.075 16.056C205.419 16.056 206.491 15.504 207.291 14.4C208.107 13.296 208.515 11.696 208.515 9.6C208.515 7.504 208.107 5.904 207.291 4.8C206.491 3.696 205.419 3.144 204.075 3.144C202.715 3.144 201.627 3.696 200.811 4.8C200.011 5.904 199.611 7.504 199.611 9.6C199.611 11.696 200.011 13.296 200.811 14.4C201.627 15.504 202.715 16.056 204.075 16.056ZM225.496 6.312C225.112 6.312 224.784 6.176 224.512 5.904C224.256 5.616 224.128 5.272 224.128 4.872C224.128 4.456 224.256 4.112 224.512 3.84C224.784 3.568 225.112 3.432 225.496 3.432C225.896 3.432 226.224 3.568 226.48 3.84C226.752 4.112 226.888 4.456 226.888 4.872C226.888 5.288 226.752 5.632 226.48 5.904C226.224 6.176 225.896 6.312 225.496 6.312ZM220.12 8.664H230.872V10.56H220.12V8.664ZM225.496 15.768C225.112 15.768 224.784 15.632 224.512 15.36C224.256 15.072 224.128 14.72 224.128 14.304C224.128 13.904 224.256 13.568 224.512 13.296C224.784 13.024 225.112 12.888 225.496 12.888C225.896 12.888 226.224 13.024 226.48 13.296C226.752 13.568 226.888 13.904 226.888 14.304C226.888 14.72 226.752 15.072 226.48 15.36C226.224 15.632 225.896 15.768 225.496 15.768ZM251.886 15.912V18H239.814V16.368L246.654 9.768C247.486 8.968 248.046 8.28 248.334 7.704C248.622 7.112 248.766 6.52 248.766 5.928C248.766 5.048 248.454 4.368 247.83 3.888C247.222 3.392 246.342 3.144 245.19 3.144C243.334 3.144 241.902 3.752 240.894 4.968L239.262 3.552C239.918 2.752 240.774 2.128 241.83 1.68C242.902 1.232 244.094 1.008 245.406 1.008C247.166 1.008 248.566 1.432 249.606 2.28C250.646 3.112 251.166 4.248 251.166 5.688C251.166 6.584 250.974 7.432 250.59 8.232C250.206 9.032 249.478 9.944 248.406 10.968L243.27 15.912H251.886ZM259.92 22.656C260.88 20.976 261.584 19.216 262.032 17.376C262.496 15.536 262.728 13.552 262.728 11.424C262.728 9.296 262.496 7.312 262.032 5.472C261.584 3.632 260.88 1.872 259.92 0.191999H262.104C263.032 1.632 263.744 3.312 264.24 5.232C264.736 7.152 264.984 9.216 264.984 11.424C264.984 13.616 264.736 15.672 264.24 17.592C263.744 19.512 263.032 21.2 262.104 22.656H259.92ZM274.475 22.656C275.435 20.976 276.139 19.216 276.587 17.376C277.051 15.536 277.283 13.552 277.283 11.424C277.283 9.296 277.051 7.312 276.587 5.472C276.139 3.632 275.435 1.872 274.475 0.191999H276.659C277.587 1.632 278.299 3.312 278.795 5.232C279.291 7.152 279.539 9.216 279.539 11.424C279.539 13.616 279.291 15.672 278.795 17.592C278.299 19.512 277.587 21.2 276.659 22.656H274.475ZM289.87 5.808H300.622V7.704H289.87V5.808ZM289.87 11.496H300.622V13.392H289.87V11.496Z" fill="#2F2F2F"/>
</svg>
