<svg width="338" height="25" viewBox="0 0 338 25" fill="none" xmlns="http://www.w3.org/2000/svg">
<path d="M5.71413 22.656C4.80213 21.184 4.09813 19.496 3.60213 17.592C3.10613 15.672 2.85813 13.616 2.85813 11.424C2.85813 9.232 3.10613 7.176 3.60213 5.256C4.09813 3.32 4.80213 1.632 5.71413 0.191999H7.89813C6.93813 1.872 6.23413 3.632 5.78613 5.472C5.33813 7.312 5.11413 9.296 5.11413 11.424C5.11413 13.552 5.33813 15.536 5.78613 17.376C6.23413 19.216 6.93813 20.976 7.89813 22.656H5.71413ZM22.0561 1.2V2.832L15.2641 18H12.7201L19.3681 3.288H11.6881V6.288H9.38406V1.2H22.0561ZM37.7811 9.6L40.8771 12.72L39.5811 14.112L36.4371 10.944L33.2931 14.112L32.0211 12.72L35.1171 9.6L32.0211 6.48L33.2931 5.088L36.4371 8.256L39.5811 5.088L40.8771 6.48L37.7811 9.6ZM57.4512 8.256C59.0992 8.416 60.3552 8.928 61.2192 9.792C62.0832 10.64 62.5152 11.728 62.5152 13.056C62.5152 14.016 62.2752 14.888 61.7952 15.672C61.3152 16.44 60.5952 17.056 59.6352 17.52C58.6912 17.968 57.5312 18.192 56.1552 18.192C54.9552 18.192 53.8032 18.016 52.6992 17.664C51.5952 17.296 50.6912 16.792 49.9872 16.152L51.0912 14.256C51.6672 14.8 52.4032 15.24 53.2992 15.576C54.1952 15.896 55.1472 16.056 56.1552 16.056C57.4032 16.056 58.3712 15.792 59.0592 15.264C59.7632 14.736 60.1152 14.008 60.1152 13.08C60.1152 12.152 59.7712 11.432 59.0832 10.92C58.3952 10.408 57.3552 10.152 55.9632 10.152H54.6192V8.472L58.8432 3.288H50.7552V1.2H61.8432V2.832L57.4512 8.256ZM64.3696 22.656C65.3296 20.976 66.0336 19.216 66.4816 17.376C66.9456 15.536 67.1776 13.552 67.1776 11.424C67.1776 9.296 66.9456 7.312 66.4816 5.472C66.0336 3.632 65.3296 1.872 64.3696 0.191999H66.5536C67.4816 1.632 68.1936 3.312 68.6896 5.232C69.1856 7.152 69.4336 9.216 69.4336 11.424C69.4336 13.616 69.1856 15.672 68.6896 17.592C68.1936 19.512 67.4816 21.2 66.5536 22.656H64.3696ZM90.5163 10.56H86.1483V14.856H84.1323V10.56H79.7643V8.664H84.1323V4.344H86.1483V8.664H90.5163V10.56ZM111.53 15.912V18H99.4583V16.368L106.298 9.768C107.13 8.968 107.69 8.28 107.978 7.704C108.266 7.112 108.41 6.52 108.41 5.928C108.41 5.048 108.098 4.368 107.474 3.888C106.866 3.392 105.986 3.144 104.834 3.144C102.978 3.144 101.546 3.752 100.538 4.968L98.9063 3.552C99.5623 2.752 100.418 2.128 101.474 1.68C102.546 1.232 103.738 1.008 105.05 1.008C106.81 1.008 108.21 1.432 109.25 2.28C110.29 3.112 110.81 4.248 110.81 5.688C110.81 6.584 110.618 7.432 110.234 8.232C109.85 9.032 109.122 9.944 108.05 10.968L102.914 15.912H111.53ZM127.125 9.6L130.221 12.72L128.925 14.112L125.781 10.944L122.637 14.112L121.365 12.72L124.461 9.6L121.365 6.48L122.637 5.088L125.781 8.256L128.925 5.088L130.221 6.48L127.125 9.6ZM141.731 0.191999H146.747V2.088H144.035V20.76H146.747V22.656H141.731V0.191999ZM160.008 1.2V18H157.632V3.288H153.84V1.2H160.008ZM168.891 1.2V18H166.515V3.288H162.723V1.2H168.891ZM190.219 10.56H185.851V14.856H183.835V10.56H179.467V8.664H183.835V4.344H185.851V8.664H190.219V10.56ZM203.409 22.656C202.497 21.184 201.793 19.496 201.297 17.592C200.801 15.672 200.553 13.616 200.553 11.424C200.553 9.232 200.801 7.176 201.297 5.256C201.793 3.32 202.497 1.632 203.409 0.191999H205.593C204.633 1.872 203.929 3.632 203.481 5.472C203.033 7.312 202.809 9.296 202.809 11.424C202.809 13.552 203.033 15.536 203.481 17.376C203.929 19.216 204.633 20.976 205.593 22.656H203.409ZM226.197 1.2V2.832L219.405 18H216.861L223.509 3.288H215.829V6.288H213.525V1.2H226.197ZM240.108 15.912V18H228.036V16.368L234.876 9.768C235.708 8.968 236.268 8.28 236.556 7.704C236.844 7.112 236.988 6.52 236.988 5.928C236.988 5.048 236.676 4.368 236.052 3.888C235.444 3.392 234.564 3.144 233.412 3.144C231.556 3.144 230.124 3.752 229.116 4.968L227.484 3.552C228.14 2.752 228.996 2.128 230.052 1.68C231.124 1.232 232.316 1.008 233.628 1.008C235.388 1.008 236.788 1.432 237.828 2.28C238.868 3.112 239.388 4.248 239.388 5.688C239.388 6.584 239.196 7.432 238.812 8.232C238.428 9.032 237.7 9.944 236.628 10.968L231.492 15.912H240.108ZM254.359 6.312C253.975 6.312 253.647 6.176 253.375 5.904C253.119 5.616 252.991 5.272 252.991 4.872C252.991 4.456 253.119 4.112 253.375 3.84C253.647 3.568 253.975 3.432 254.359 3.432C254.759 3.432 255.087 3.568 255.343 3.84C255.615 4.112 255.751 4.456 255.751 4.872C255.751 5.288 255.615 5.632 255.343 5.904C255.087 6.176 254.759 6.312 254.359 6.312ZM248.983 8.664H259.735V10.56H248.983V8.664ZM254.359 15.768C253.975 15.768 253.647 15.632 253.375 15.36C253.119 15.072 252.991 14.72 252.991 14.304C252.991 13.904 253.119 13.568 253.375 13.296C253.647 13.024 253.975 12.888 254.359 12.888C254.759 12.888 255.087 13.024 255.343 13.296C255.615 13.568 255.751 13.904 255.751 14.304C255.751 14.72 255.615 15.072 255.343 15.36C255.087 15.632 254.759 15.768 254.359 15.768ZM280.749 15.912V18H268.677V16.368L275.517 9.768C276.349 8.968 276.909 8.28 277.197 7.704C277.485 7.112 277.629 6.52 277.629 5.928C277.629 5.048 277.317 4.368 276.693 3.888C276.085 3.392 275.205 3.144 274.053 3.144C272.197 3.144 270.765 3.752 269.757 4.968L268.125 3.552C268.781 2.752 269.637 2.128 270.693 1.68C271.765 1.232 272.957 1.008 274.269 1.008C276.029 1.008 277.429 1.432 278.469 2.28C279.509 3.112 280.029 4.248 280.029 5.688C280.029 6.584 279.837 7.432 279.453 8.232C279.069 9.032 278.341 9.944 277.269 10.968L272.133 15.912H280.749ZM288.784 22.656C289.744 20.976 290.448 19.216 290.896 17.376C291.36 15.536 291.592 13.552 291.592 11.424C291.592 9.296 291.36 7.312 290.896 5.472C290.448 3.632 289.744 1.872 288.784 0.191999H290.968C291.896 1.632 292.608 3.312 293.104 5.232C293.6 7.152 293.848 9.216 293.848 11.424C293.848 13.616 293.6 15.672 293.104 17.592C292.608 19.512 291.896 21.2 290.968 22.656H288.784ZM303.026 22.656V20.76H305.738V2.088H303.026V0.191999H308.042V22.656H303.026ZM318.616 5.808H329.368V7.704H318.616V5.808ZM318.616 11.496H329.368V13.392H318.616V11.496Z" fill="#2F2F2F"/>
</svg>
