<svg width="267" height="23" viewBox="0 0 267 23" fill="none" xmlns="http://www.w3.org/2000/svg">
<path d="M16.3233 15.912V18H4.25128V16.368L11.0913 9.768C11.9233 8.968 12.4833 8.28 12.7713 7.704C13.0593 7.112 13.2033 6.52 13.2033 5.928C13.2033 5.048 12.8913 4.368 12.2673 3.888C11.6593 3.392 10.7793 3.144 9.62728 3.144C7.77128 3.144 6.33928 3.752 5.33128 4.968L3.69928 3.552C4.35528 2.752 5.21128 2.128 6.26728 1.68C7.33928 1.232 8.53128 1.008 9.84328 1.008C11.6033 1.008 13.0033 1.432 14.0433 2.28C15.0833 3.112 15.6033 4.248 15.6033 5.688C15.6033 6.584 15.4113 7.432 15.0273 8.232C14.6433 9.032 13.9153 9.944 12.8433 10.968L7.70728 15.912H16.3233ZM31.9178 9.6L35.0138 12.72L33.7178 14.112L30.5738 10.944L27.4298 14.112L26.1578 12.72L29.2538 9.6L26.1578 6.48L27.4298 5.088L30.5738 8.256L33.7178 5.088L35.0138 6.48L31.9178 9.6ZM49.1399 22.656C48.2279 21.184 47.5239 19.496 47.0279 17.592C46.5319 15.672 46.2839 13.616 46.2839 11.424C46.2839 9.232 46.5319 7.176 47.0279 5.256C47.5239 3.32 48.2279 1.632 49.1399 0.191999H51.3239C50.3639 1.872 49.6599 3.632 49.2119 5.472C48.7639 7.312 48.5399 9.296 48.5399 11.424C48.5399 13.552 48.7639 15.536 49.2119 17.376C49.6599 19.216 50.3639 20.976 51.3239 22.656H49.1399ZM66.9352 7.8C68.0392 7.8 69.0232 8.008 69.8872 8.424C70.7672 8.84 71.4552 9.44 71.9512 10.224C72.4472 10.992 72.6952 11.88 72.6952 12.888C72.6952 13.944 72.4312 14.872 71.9032 15.672C71.3912 16.472 70.6792 17.096 69.7672 17.544C68.8712 17.976 67.8632 18.192 66.7432 18.192C64.4872 18.192 62.7432 17.464 61.5112 16.008C60.2952 14.552 59.6872 12.488 59.6872 9.816C59.6872 7.944 60.0152 6.352 60.6712 5.04C61.3432 3.712 62.2712 2.712 63.4552 2.04C64.6552 1.352 66.0472 1.008 67.6312 1.008C68.4472 1.008 69.2152 1.096 69.9352 1.272C70.6552 1.432 71.2792 1.672 71.8072 1.992L70.8952 3.864C70.0952 3.336 69.0232 3.072 67.6792 3.072C65.9352 3.072 64.5672 3.616 63.5752 4.704C62.5832 5.776 62.0872 7.344 62.0872 9.408C62.0872 9.664 62.0952 9.864 62.1112 10.008C62.5912 9.288 63.2472 8.744 64.0792 8.376C64.9272 7.992 65.8792 7.8 66.9352 7.8ZM66.6472 16.248C67.7512 16.248 68.6472 15.952 69.3352 15.36C70.0232 14.768 70.3672 13.976 70.3672 12.984C70.3672 11.992 70.0152 11.208 69.3112 10.632C68.6232 10.04 67.6952 9.744 66.5272 9.744C65.7752 9.744 65.1032 9.888 64.5112 10.176C63.9352 10.464 63.4792 10.856 63.1432 11.352C62.8232 11.848 62.6632 12.4 62.6632 13.008C62.6632 13.6 62.8152 14.144 63.1192 14.64C63.4392 15.12 63.8952 15.512 64.4872 15.816C65.0952 16.104 65.8152 16.248 66.6472 16.248ZM86.5756 1.2V2.832L79.7836 18H77.2396L83.8876 3.288H76.2076V6.288H73.9036V1.2H86.5756ZM106.333 10.56H101.965V14.856H99.9487V10.56H95.5807V8.664H99.9487V4.344H101.965V8.664H106.333V10.56ZM119.523 22.656C118.611 21.184 117.907 19.496 117.411 17.592C116.915 15.672 116.667 13.616 116.667 11.424C116.667 9.232 116.915 7.176 117.411 5.256C117.907 3.32 118.611 1.632 119.523 0.191999H121.707C120.747 1.872 120.043 3.632 119.595 5.472C119.147 7.312 118.923 9.296 118.923 11.424C118.923 13.552 119.147 15.536 119.595 17.376C120.043 19.216 120.747 20.976 121.707 22.656H119.523ZM135.278 1.2V18H132.902V3.288H129.11V1.2H135.278ZM150.761 15.912V18H138.689V16.368L145.529 9.768C146.361 8.968 146.921 8.28 147.209 7.704C147.497 7.112 147.641 6.52 147.641 5.928C147.641 5.048 147.329 4.368 146.705 3.888C146.097 3.392 145.217 3.144 144.065 3.144C142.209 3.144 140.777 3.752 139.769 4.968L138.137 3.552C138.793 2.752 139.649 2.128 140.705 1.68C141.777 1.232 142.969 1.008 144.281 1.008C146.041 1.008 147.441 1.432 148.481 2.28C149.521 3.112 150.041 4.248 150.041 5.688C150.041 6.584 149.849 7.432 149.465 8.232C149.081 9.032 148.353 9.944 147.281 10.968L142.145 15.912H150.761ZM163.006 9.192C163.966 9.56 164.702 10.088 165.214 10.776C165.726 11.464 165.982 12.288 165.982 13.248C165.982 14.256 165.71 15.136 165.166 15.888C164.622 16.624 163.846 17.192 162.838 17.592C161.83 17.992 160.646 18.192 159.286 18.192C157.942 18.192 156.766 17.992 155.758 17.592C154.766 17.192 153.998 16.624 153.454 15.888C152.91 15.136 152.638 14.256 152.638 13.248C152.638 12.288 152.886 11.464 153.382 10.776C153.894 10.088 154.63 9.56 155.59 9.192C154.822 8.824 154.238 8.336 153.838 7.728C153.438 7.12 153.238 6.4 153.238 5.568C153.238 4.64 153.486 3.832 153.982 3.144C154.494 2.456 155.206 1.928 156.118 1.56C157.03 1.192 158.086 1.008 159.286 1.008C160.502 1.008 161.566 1.192 162.478 1.56C163.406 1.928 164.118 2.456 164.614 3.144C165.126 3.832 165.382 4.64 165.382 5.568C165.382 6.384 165.174 7.104 164.758 7.728C164.358 8.336 163.774 8.824 163.006 9.192ZM159.286 2.952C158.15 2.952 157.254 3.2 156.598 3.696C155.942 4.176 155.614 4.832 155.614 5.664C155.614 6.496 155.934 7.152 156.574 7.632C157.23 8.112 158.134 8.352 159.286 8.352C160.454 8.352 161.366 8.112 162.022 7.632C162.694 7.152 163.03 6.496 163.03 5.664C163.03 4.832 162.686 4.176 161.998 3.696C161.326 3.2 160.422 2.952 159.286 2.952ZM159.286 16.248C160.614 16.248 161.662 15.976 162.43 15.432C163.198 14.872 163.582 14.12 163.582 13.176C163.582 12.248 163.198 11.52 162.43 10.992C161.662 10.448 160.614 10.176 159.286 10.176C157.958 10.176 156.918 10.448 156.166 10.992C155.414 11.52 155.038 12.248 155.038 13.176C155.038 14.12 155.414 14.872 156.166 15.432C156.918 15.976 157.958 16.248 159.286 16.248ZM180.457 6.312C180.073 6.312 179.745 6.176 179.473 5.904C179.217 5.616 179.089 5.272 179.089 4.872C179.089 4.456 179.217 4.112 179.473 3.84C179.745 3.568 180.073 3.432 180.457 3.432C180.857 3.432 181.185 3.568 181.441 3.84C181.713 4.112 181.849 4.456 181.849 4.872C181.849 5.288 181.713 5.632 181.441 5.904C181.185 6.176 180.857 6.312 180.457 6.312ZM175.081 8.664H185.833V10.56H175.081V8.664ZM180.457 15.768C180.073 15.768 179.745 15.632 179.473 15.36C179.217 15.072 179.089 14.72 179.089 14.304C179.089 13.904 179.217 13.568 179.473 13.296C179.745 13.024 180.073 12.888 180.457 12.888C180.857 12.888 181.185 13.024 181.441 13.296C181.713 13.568 181.849 13.904 181.849 14.304C181.849 14.72 181.713 15.072 181.441 15.36C181.185 15.632 180.857 15.768 180.457 15.768ZM206.847 15.912V18H194.775V16.368L201.615 9.768C202.447 8.968 203.007 8.28 203.295 7.704C203.583 7.112 203.727 6.52 203.727 5.928C203.727 5.048 203.415 4.368 202.791 3.888C202.183 3.392 201.303 3.144 200.151 3.144C198.295 3.144 196.863 3.752 195.855 4.968L194.223 3.552C194.879 2.752 195.735 2.128 196.791 1.68C197.863 1.232 199.055 1.008 200.367 1.008C202.127 1.008 203.527 1.432 204.567 2.28C205.607 3.112 206.127 4.248 206.127 5.688C206.127 6.584 205.935 7.432 205.551 8.232C205.167 9.032 204.439 9.944 203.367 10.968L198.231 15.912H206.847ZM214.881 22.656C215.841 20.976 216.545 19.216 216.993 17.376C217.457 15.536 217.689 13.552 217.689 11.424C217.689 9.296 217.457 7.312 216.993 5.472C216.545 3.632 215.841 1.872 214.881 0.191999H217.065C217.993 1.632 218.705 3.312 219.201 5.232C219.697 7.152 219.945 9.216 219.945 11.424C219.945 13.616 219.697 15.672 219.201 17.592C218.705 19.512 217.993 21.2 217.065 22.656H214.881ZM229.436 22.656C230.396 20.976 231.1 19.216 231.548 17.376C232.012 15.536 232.244 13.552 232.244 11.424C232.244 9.296 232.012 7.312 231.548 5.472C231.1 3.632 230.396 1.872 229.436 0.191999H231.62C232.548 1.632 233.26 3.312 233.756 5.232C234.252 7.152 234.5 9.216 234.5 11.424C234.5 13.616 234.252 15.672 233.756 17.592C233.26 19.512 232.548 21.2 231.62 22.656H229.436ZM244.831 5.808H255.583V7.704H244.831V5.808ZM244.831 11.496H255.583V13.392H244.831V11.496Z" fill="#2F2F2F"/>
</svg>
