<svg width="335" height="245" viewBox="0 0 335 245" fill="none" xmlns="http://www.w3.org/2000/svg">
<path d="M279 219H27V178.273L153 23H279V219Z" fill="#D5D5FF" stroke="#8880E5" stroke-width="2"/>
<path d="M200.237 11.904H197.843V15H196.097V11.904H189.095V10.644L195.539 2.4H197.483L191.309 10.356H196.151V7.62H197.843V10.356H200.237V11.904ZM211.082 15.108C210.11 15.108 209.24 14.898 208.472 14.478C207.716 14.058 207.122 13.482 206.69 12.75C206.258 12.006 206.042 11.166 206.042 10.23C206.042 9.294 206.258 8.46 206.69 7.728C207.122 6.984 207.716 6.408 208.472 6C209.24 5.58 210.11 5.37 211.082 5.37C211.946 5.37 212.714 5.544 213.386 5.892C214.07 6.24 214.598 6.744 214.97 7.404L213.656 8.25C213.356 7.794 212.984 7.452 212.54 7.224C212.096 6.996 211.604 6.882 211.064 6.882C210.44 6.882 209.876 7.02 209.372 7.296C208.88 7.572 208.49 7.968 208.202 8.484C207.926 8.988 207.788 9.57 207.788 10.23C207.788 10.902 207.926 11.496 208.202 12.012C208.49 12.516 208.88 12.906 209.372 13.182C209.876 13.458 210.44 13.596 211.064 13.596C211.604 13.596 212.096 13.482 212.54 13.254C212.984 13.026 213.356 12.684 213.656 12.228L214.97 13.056C214.598 13.716 214.07 14.226 213.386 14.586C212.714 14.934 211.946 15.108 211.082 15.108ZM229.141 5.37C230.341 5.37 231.289 5.718 231.985 6.414C232.693 7.11 233.047 8.142 233.047 9.51V15H231.319V9.708C231.319 8.784 231.103 8.088 230.671 7.62C230.251 7.152 229.645 6.918 228.853 6.918C227.977 6.918 227.281 7.194 226.765 7.746C226.249 8.286 225.991 9.066 225.991 10.086V15H224.263V9.708C224.263 8.784 224.047 8.088 223.615 7.62C223.195 7.152 222.589 6.918 221.797 6.918C220.921 6.918 220.225 7.194 219.709 7.746C219.193 8.286 218.935 9.066 218.935 10.086V15H217.207V5.46H218.863V6.882C219.211 6.39 219.667 6.018 220.231 5.766C220.795 5.502 221.437 5.37 222.157 5.37C222.901 5.37 223.561 5.52 224.137 5.82C224.713 6.12 225.157 6.558 225.469 7.134C225.829 6.582 226.327 6.15 226.963 5.838C227.611 5.526 228.337 5.37 229.141 5.37Z" fill="#2F2F2F"/>
<path d="M294.728 110.422C296.528 110.422 297.848 110.764 298.688 111.448C299.54 112.12 299.966 113.044 299.966 114.22C299.966 114.964 299.786 115.636 299.426 116.236C299.078 116.824 298.544 117.292 297.824 117.64C297.116 117.976 296.24 118.144 295.196 118.144C294.308 118.144 293.45 118.012 292.622 117.748C291.794 117.472 291.11 117.094 290.57 116.614L291.398 115.192C291.83 115.6 292.382 115.93 293.054 116.182C293.726 116.422 294.434 116.542 295.178 116.542C296.126 116.542 296.858 116.344 297.374 115.948C297.902 115.54 298.166 114.988 298.166 114.292C298.166 113.536 297.878 112.966 297.302 112.582C296.726 112.186 295.742 111.988 294.35 111.988H291.488L292.154 105.4H299.264V106.966H293.666L293.324 110.422H294.728ZM311.23 118.108C310.258 118.108 309.388 117.898 308.62 117.478C307.864 117.058 307.27 116.482 306.838 115.75C306.406 115.006 306.19 114.166 306.19 113.23C306.19 112.294 306.406 111.46 306.838 110.728C307.27 109.984 307.864 109.408 308.62 109C309.388 108.58 310.258 108.37 311.23 108.37C312.094 108.37 312.862 108.544 313.534 108.892C314.218 109.24 314.746 109.744 315.118 110.404L313.804 111.25C313.504 110.794 313.132 110.452 312.688 110.224C312.244 109.996 311.752 109.882 311.212 109.882C310.588 109.882 310.024 110.02 309.52 110.296C309.028 110.572 308.638 110.968 308.35 111.484C308.074 111.988 307.936 112.57 307.936 113.23C307.936 113.902 308.074 114.496 308.35 115.012C308.638 115.516 309.028 115.906 309.52 116.182C310.024 116.458 310.588 116.596 311.212 116.596C311.752 116.596 312.244 116.482 312.688 116.254C313.132 116.026 313.504 115.684 313.804 115.228L315.118 116.056C314.746 116.716 314.218 117.226 313.534 117.586C312.862 117.934 312.094 118.108 311.23 118.108ZM329.289 108.37C330.489 108.37 331.437 108.718 332.133 109.414C332.841 110.11 333.195 111.142 333.195 112.51V118H331.467V112.708C331.467 111.784 331.251 111.088 330.819 110.62C330.399 110.152 329.793 109.918 329.001 109.918C328.125 109.918 327.429 110.194 326.913 110.746C326.397 111.286 326.139 112.066 326.139 113.086V118H324.411V112.708C324.411 111.784 324.195 111.088 323.763 110.62C323.343 110.152 322.737 109.918 321.945 109.918C321.069 109.918 320.373 110.194 319.857 110.746C319.341 111.286 319.083 112.066 319.083 113.086V118H317.355V108.46H319.011V109.882C319.359 109.39 319.815 109.018 320.379 108.766C320.943 108.502 321.585 108.37 322.305 108.37C323.049 108.37 323.709 108.52 324.285 108.82C324.861 109.12 325.305 109.558 325.617 110.134C325.977 109.582 326.475 109.15 327.111 108.838C327.759 108.526 328.485 108.37 329.289 108.37Z" fill="#2F2F2F"/>
<path d="M153.097 229.4V230.624L148.003 242H146.095L151.081 230.966H145.321V233.216H143.593V229.4H153.097ZM164.441 242.108C163.469 242.108 162.599 241.898 161.831 241.478C161.075 241.058 160.481 240.482 160.049 239.75C159.617 239.006 159.401 238.166 159.401 237.23C159.401 236.294 159.617 235.46 160.049 234.728C160.481 233.984 161.075 233.408 161.831 233C162.599 232.58 163.469 232.37 164.441 232.37C165.305 232.37 166.073 232.544 166.745 232.892C167.429 233.24 167.957 233.744 168.329 234.404L167.015 235.25C166.715 234.794 166.343 234.452 165.899 234.224C165.455 233.996 164.963 233.882 164.423 233.882C163.799 233.882 163.235 234.02 162.731 234.296C162.239 234.572 161.849 234.968 161.561 235.484C161.285 235.988 161.147 236.57 161.147 237.23C161.147 237.902 161.285 238.496 161.561 239.012C161.849 239.516 162.239 239.906 162.731 240.182C163.235 240.458 163.799 240.596 164.423 240.596C164.963 240.596 165.455 240.482 165.899 240.254C166.343 240.026 166.715 239.684 167.015 239.228L168.329 240.056C167.957 240.716 167.429 241.226 166.745 241.586C166.073 241.934 165.305 242.108 164.441 242.108ZM182.5 232.37C183.7 232.37 184.648 232.718 185.344 233.414C186.052 234.11 186.406 235.142 186.406 236.51V242H184.678V236.708C184.678 235.784 184.462 235.088 184.03 234.62C183.61 234.152 183.004 233.918 182.212 233.918C181.336 233.918 180.64 234.194 180.124 234.746C179.608 235.286 179.35 236.066 179.35 237.086V242H177.622V236.708C177.622 235.784 177.406 235.088 176.974 234.62C176.554 234.152 175.948 233.918 175.156 233.918C174.28 233.918 173.584 234.194 173.068 234.746C172.552 235.286 172.294 236.066 172.294 237.086V242H170.566V232.46H172.222V233.882C172.57 233.39 173.026 233.018 173.59 232.766C174.154 232.502 174.796 232.37 175.516 232.37C176.26 232.37 176.92 232.52 177.496 232.82C178.072 233.12 178.516 233.558 178.828 234.134C179.188 233.582 179.686 233.15 180.322 232.838C180.97 232.526 181.696 232.37 182.5 232.37Z" fill="#2F2F2F"/>
<path d="M50.677 75.35C51.505 75.35 52.243 75.506 52.891 75.818C53.551 76.13 54.067 76.58 54.439 77.168C54.811 77.744 54.997 78.41 54.997 79.166C54.997 79.958 54.799 80.654 54.403 81.254C54.019 81.854 53.485 82.322 52.801 82.658C52.129 82.982 51.373 83.144 50.533 83.144C48.841 83.144 47.533 82.598 46.609 81.506C45.697 80.414 45.241 78.866 45.241 76.862C45.241 75.458 45.487 74.264 45.979 73.28C46.483 72.284 47.179 71.534 48.067 71.03C48.967 70.514 50.011 70.256 51.199 70.256C51.811 70.256 52.387 70.322 52.927 70.454C53.467 70.574 53.935 70.754 54.331 70.994L53.647 72.398C53.047 72.002 52.243 71.804 51.235 71.804C49.927 71.804 48.901 72.212 48.157 73.028C47.413 73.832 47.041 75.008 47.041 76.556C47.041 76.748 47.047 76.898 47.059 77.006C47.419 76.466 47.911 76.058 48.535 75.782C49.171 75.494 49.885 75.35 50.677 75.35ZM50.461 81.686C51.289 81.686 51.961 81.464 52.477 81.02C52.993 80.576 53.251 79.982 53.251 79.238C53.251 78.494 52.987 77.906 52.459 77.474C51.943 77.03 51.247 76.808 50.371 76.808C49.807 76.808 49.303 76.916 48.859 77.132C48.427 77.348 48.085 77.642 47.833 78.014C47.593 78.386 47.473 78.8 47.473 79.256C47.473 79.7 47.587 80.108 47.815 80.48C48.055 80.84 48.397 81.134 48.841 81.362C49.297 81.578 49.837 81.686 50.461 81.686ZM66.1163 83.108C65.1443 83.108 64.2743 82.898 63.5063 82.478C62.7503 82.058 62.1563 81.482 61.7243 80.75C61.2923 80.006 61.0763 79.166 61.0763 78.23C61.0763 77.294 61.2923 76.46 61.7243 75.728C62.1563 74.984 62.7503 74.408 63.5063 74C64.2743 73.58 65.1443 73.37 66.1163 73.37C66.9803 73.37 67.7483 73.544 68.4203 73.892C69.1043 74.24 69.6323 74.744 70.0043 75.404L68.6903 76.25C68.3903 75.794 68.0183 75.452 67.5743 75.224C67.1303 74.996 66.6383 74.882 66.0983 74.882C65.4743 74.882 64.9103 75.02 64.4063 75.296C63.9143 75.572 63.5243 75.968 63.2363 76.484C62.9603 76.988 62.8223 77.57 62.8223 78.23C62.8223 78.902 62.9603 79.496 63.2363 80.012C63.5243 80.516 63.9143 80.906 64.4063 81.182C64.9103 81.458 65.4743 81.596 66.0983 81.596C66.6383 81.596 67.1303 81.482 67.5743 81.254C68.0183 81.026 68.3903 80.684 68.6903 80.228L70.0043 81.056C69.6323 81.716 69.1043 82.226 68.4203 82.586C67.7483 82.934 66.9803 83.108 66.1163 83.108ZM84.1755 73.37C85.3755 73.37 86.3235 73.718 87.0195 74.414C87.7275 75.11 88.0815 76.142 88.0815 77.51V83H86.3535V77.708C86.3535 76.784 86.1375 76.088 85.7055 75.62C85.2855 75.152 84.6795 74.918 83.8875 74.918C83.0115 74.918 82.3155 75.194 81.7995 75.746C81.2835 76.286 81.0255 77.066 81.0255 78.086V83H79.2975V77.708C79.2975 76.784 79.0815 76.088 78.6495 75.62C78.2295 75.152 77.6235 74.918 76.8315 74.918C75.9555 74.918 75.2595 75.194 74.7435 75.746C74.2275 76.286 73.9695 77.066 73.9695 78.086V83H72.2415V73.46H73.8975V74.882C74.2455 74.39 74.7015 74.018 75.2655 73.766C75.8295 73.502 76.4715 73.37 77.1915 73.37C77.9355 73.37 78.5955 73.52 79.1715 73.82C79.7475 74.12 80.1915 74.558 80.5035 75.134C80.8635 74.582 81.3615 74.15 81.9975 73.838C82.6455 73.526 83.3715 73.37 84.1755 73.37Z" fill="#2F2F2F"/>
<path d="M5.59443 197.3C5.59443 196.517 5.76943 195.867 6.11943 195.35C6.46943 194.817 6.96943 194.242 7.61943 193.625C8.0361 193.225 8.3361 192.9 8.51943 192.65C8.71943 192.4 8.81943 192.133 8.81943 191.85C8.81943 191.483 8.6611 191.2 8.34443 191C8.02777 190.783 7.62777 190.675 7.14443 190.675C6.6111 190.675 6.1111 190.833 5.64443 191.15C5.17777 191.45 4.8111 191.858 4.54443 192.375L0.0944336 190.15C0.7611 188.883 1.74443 187.892 3.04443 187.175C4.3611 186.458 5.97777 186.1 7.89443 186.1C9.92777 186.1 11.5778 186.517 12.8444 187.35C14.1111 188.183 14.7444 189.358 14.7444 190.875C14.7444 191.575 14.6194 192.192 14.3694 192.725C14.1361 193.242 13.8528 193.683 13.5194 194.05C13.1861 194.4 12.7611 194.792 12.2444 195.225C11.7111 195.692 11.3278 196.067 11.0944 196.35C10.8611 196.633 10.7444 196.95 10.7444 197.3H5.59443ZM8.16943 204.25C7.20277 204.25 6.4111 203.958 5.79443 203.375C5.17777 202.792 4.86943 202.083 4.86943 201.25C4.86943 200.4 5.17777 199.7 5.79443 199.15C6.4111 198.583 7.20277 198.3 8.16943 198.3C9.1361 198.3 9.92777 198.583 10.5444 199.15C11.1611 199.7 11.4694 200.4 11.4694 201.25C11.4694 202.083 11.1611 202.792 10.5444 203.375C9.92777 203.958 9.1361 204.25 8.16943 204.25Z" fill="#1D148B"/>
</svg>
