<svg width="249" height="71" viewBox="0 0 249 71" fill="none" xmlns="http://www.w3.org/2000/svg">
<path d="M96 26C96 23.2386 98.2386 21 101 21H145C147.761 21 150 23.2386 150 26V46C150 48.7614 147.761 51 145 51H101C98.2386 51 96 48.7614 96 46V26Z" fill="#369CB7"/>
<path d="M114.935 30.712H131.063V33.556H114.935V30.712ZM114.935 39.244H131.063V42.088H114.935V39.244Z" fill="white"/>
<path d="M101 22H145V20H101V22ZM149 26V46H151V26H149ZM145 50H101V52H145V50ZM97 46V26H95V46H97ZM101 50C98.7909 50 97 48.2091 97 46H95C95 49.3137 97.6863 52 101 52V50ZM149 46C149 48.2091 147.209 50 145 50V52C148.314 52 151 49.3137 151 46H149ZM145 22C147.209 22 149 23.7909 149 26H151C151 22.6863 148.314 20 145 20V22ZM101 20C97.6863 20 95 22.6863 95 26H97C97 23.7909 98.7909 22 101 22V20Z" fill="#369CB7"/>
<path d="M5.00369 1.1347L36.1794 1.01865L36.1719 -0.981339L4.99624 -0.865285L5.00369 1.1347ZM40.1942 5.00373L40.2687 25.0036L42.2686 24.9961L42.1942 4.99628L40.1942 5.00373ZM36.2836 29.0185L5.10791 29.1345L5.11536 31.1345L36.291 31.0184L36.2836 29.0185ZM1.09306 25.1494L1.01861 5.14956L-0.98138 5.15701L-0.90693 25.1569L1.09306 25.1494ZM5.10791 29.1345C2.89879 29.1427 1.10128 27.3585 1.09306 25.1494L-0.90693 25.1569C-0.894594 28.4706 1.80167 31.1468 5.11536 31.1345L5.10791 29.1345ZM40.2687 25.0036C40.2769 27.2127 38.4927 29.0102 36.2836 29.0185L36.291 31.0184C39.6047 31.0061 42.281 28.3098 42.2686 24.9961L40.2687 25.0036ZM36.1794 1.01865C38.3885 1.01042 40.186 2.7946 40.1942 5.00373L42.1942 4.99628C42.1819 1.6826 39.4856 -0.993674 36.1719 -0.981339L36.1794 1.01865ZM4.99624 -0.865285C1.68256 -0.85295 -0.993716 1.84332 -0.98138 5.15701L1.01861 5.14956C1.01038 2.94044 2.79456 1.14292 5.00369 1.1347L4.99624 -0.865285Z" fill="#2F2F2F"/>
<line x1="7.64363" y1="34.6531" x2="33.6436" y2="34.6531" stroke="#2F2F2F" stroke-linecap="round"/>
<path d="M5.00369 41.2878L36.1794 41.1717L36.1719 39.1717L4.99624 39.2878L5.00369 41.2878ZM40.1942 45.1568L40.2687 65.1567L42.2686 65.1492L42.1942 45.1494L40.1942 45.1568ZM36.2836 69.1715L5.10791 69.2876L5.11536 71.2876L36.291 71.1715L36.2836 69.1715ZM1.09306 65.3025L1.01861 45.3026L-0.98138 45.3101L-0.90693 65.3099L1.09306 65.3025ZM5.10791 69.2876C2.89879 69.2958 1.10128 67.5116 1.09306 65.3025L-0.90693 65.3099C-0.894594 68.6236 1.80167 71.2999 5.11536 71.2876L5.10791 69.2876ZM40.2687 65.1567C40.2769 67.3658 38.4927 69.1633 36.2836 69.1715L36.291 71.1715C39.6047 71.1592 42.281 68.4629 42.2686 65.1492L40.2687 65.1567ZM36.1794 41.1717C38.3885 41.1635 40.186 42.9477 40.1942 45.1568L42.1942 45.1494C42.1819 41.8357 39.4856 39.1594 36.1719 39.1717L36.1794 41.1717ZM4.99624 39.2878C1.68256 39.3001 -0.993716 41.9964 -0.98138 45.3101L1.01861 45.3026C1.01038 43.0935 2.79456 41.296 5.00369 41.2878L4.99624 39.2878Z" fill="#2F2F2F"/>
<path d="M212.004 1.1347L243.179 1.01865L243.172 -0.981339L211.996 -0.865285L212.004 1.1347ZM247.194 5.00373L247.269 25.0036L249.269 24.9961L249.194 4.99628L247.194 5.00373ZM243.284 29.0185L212.108 29.1345L212.115 31.1345L243.291 31.0184L243.284 29.0185ZM208.093 25.1494L208.019 5.14956L206.019 5.15701L206.093 25.1569L208.093 25.1494ZM212.108 29.1345C209.899 29.1427 208.101 27.3585 208.093 25.1494L206.093 25.1569C206.105 28.4706 208.802 31.1468 212.115 31.1345L212.108 29.1345ZM247.269 25.0036C247.277 27.2127 245.493 29.0102 243.284 29.0185L243.291 31.0184C246.605 31.0061 249.281 28.3098 249.269 24.9961L247.269 25.0036ZM243.179 1.01865C245.388 1.01042 247.186 2.7946 247.194 5.00373L249.194 4.99628C249.182 1.6826 246.486 -0.993674 243.172 -0.981339L243.179 1.01865ZM211.996 -0.865285C208.683 -0.85295 206.006 1.84332 206.019 5.15701L208.019 5.14956C208.01 2.94044 209.795 1.14292 212.004 1.1347L211.996 -0.865285Z" fill="#2F2F2F"/>
<line x1="214.644" y1="34.6531" x2="240.644" y2="34.6531" stroke="#2F2F2F" stroke-linecap="round"/>
<path d="M212.004 41.2878L243.179 41.1717L243.172 39.1717L211.996 39.2878L212.004 41.2878ZM247.194 45.1568L247.269 65.1567L249.269 65.1492L249.194 45.1494L247.194 45.1568ZM243.284 69.1715L212.108 69.2876L212.115 71.2876L243.291 71.1715L243.284 69.1715ZM208.093 65.3025L208.019 45.3026L206.019 45.3101L206.093 65.3099L208.093 65.3025ZM212.108 69.2876C209.899 69.2958 208.101 67.5116 208.093 65.3025L206.093 65.3099C206.105 68.6236 208.802 71.2999 212.115 71.2876L212.108 69.2876ZM247.269 65.1567C247.277 67.3658 245.493 69.1633 243.284 69.1715L243.291 71.1715C246.605 71.1592 249.281 68.4629 249.269 65.1492L247.269 65.1567ZM243.179 41.1717C245.388 41.1635 247.186 42.9477 247.194 45.1568L249.194 45.1494C249.182 41.8357 246.486 39.1594 243.172 39.1717L243.179 41.1717ZM211.996 39.2878C208.683 39.3001 206.006 41.9964 206.019 45.3101L208.019 45.3026C208.01 43.0935 209.795 41.296 212.004 41.2878L211.996 39.2878Z" fill="#2F2F2F"/>
<path d="M26.3055 17.904H23.9115V21H22.1655V17.904H15.1635V16.644L21.6075 8.4H23.5515L17.3775 16.356H22.2195V13.62H23.9115V16.356H26.3055V17.904Z" fill="#2F2F2F"/>
<path d="M22.776 54.394C23.496 54.67 24.048 55.066 24.432 55.582C24.816 56.098 25.008 56.716 25.008 57.436C25.008 58.192 24.804 58.852 24.396 59.416C23.988 59.968 23.406 60.394 22.65 60.694C21.894 60.994 21.006 61.144 19.986 61.144C18.978 61.144 18.096 60.994 17.34 60.694C16.596 60.394 16.02 59.968 15.612 59.416C15.204 58.852 15 58.192 15 57.436C15 56.716 15.186 56.098 15.558 55.582C15.942 55.066 16.494 54.67 17.214 54.394C16.638 54.118 16.2 53.752 15.9 53.296C15.6 52.84 15.45 52.3 15.45 51.676C15.45 50.98 15.636 50.374 16.008 49.858C16.392 49.342 16.926 48.946 17.61 48.67C18.294 48.394 19.086 48.256 19.986 48.256C20.898 48.256 21.696 48.394 22.38 48.67C23.076 48.946 23.61 49.342 23.982 49.858C24.366 50.374 24.558 50.98 24.558 51.676C24.558 52.288 24.402 52.828 24.09 53.296C23.79 53.752 23.352 54.118 22.776 54.394ZM19.986 49.714C19.134 49.714 18.462 49.9 17.97 50.272C17.478 50.632 17.232 51.124 17.232 51.748C17.232 52.372 17.472 52.864 17.952 53.224C18.444 53.584 19.122 53.764 19.986 53.764C20.862 53.764 21.546 53.584 22.038 53.224C22.542 52.864 22.794 52.372 22.794 51.748C22.794 51.124 22.536 50.632 22.02 50.272C21.516 49.9 20.838 49.714 19.986 49.714ZM19.986 59.686C20.982 59.686 21.768 59.482 22.344 59.074C22.92 58.654 23.208 58.09 23.208 57.382C23.208 56.686 22.92 56.14 22.344 55.744C21.768 55.336 20.982 55.132 19.986 55.132C18.99 55.132 18.21 55.336 17.646 55.744C17.082 56.14 16.8 56.686 16.8 57.382C16.8 58.09 17.082 58.654 17.646 59.074C18.21 59.482 18.99 59.686 19.986 59.686Z" fill="#2F2F2F"/>
<path d="M228.038 13.692C229.274 13.812 230.216 14.196 230.864 14.844C231.512 15.48 231.836 16.296 231.836 17.292C231.836 18.012 231.656 18.666 231.296 19.254C230.936 19.83 230.396 20.292 229.676 20.64C228.968 20.976 228.098 21.144 227.066 21.144C226.166 21.144 225.302 21.012 224.474 20.748C223.646 20.472 222.968 20.094 222.44 19.614L223.268 18.192C223.7 18.6 224.252 18.93 224.924 19.182C225.596 19.422 226.31 19.542 227.066 19.542C228.002 19.542 228.728 19.344 229.244 18.948C229.772 18.552 230.036 18.006 230.036 17.31C230.036 16.614 229.778 16.074 229.262 15.69C228.746 15.306 227.966 15.114 226.922 15.114H225.914V13.854L229.082 9.966H223.016V8.4H231.332V9.624L228.038 13.692Z" fill="#2F2F2F"/>
<path d="M227.745 55.35C228.573 55.35 229.311 55.506 229.959 55.818C230.619 56.13 231.135 56.58 231.507 57.168C231.879 57.744 232.065 58.41 232.065 59.166C232.065 59.958 231.867 60.654 231.471 61.254C231.087 61.854 230.553 62.322 229.869 62.658C229.197 62.982 228.441 63.144 227.601 63.144C225.909 63.144 224.601 62.598 223.677 61.506C222.765 60.414 222.309 58.866 222.309 56.862C222.309 55.458 222.555 54.264 223.047 53.28C223.551 52.284 224.247 51.534 225.135 51.03C226.035 50.514 227.079 50.256 228.267 50.256C228.879 50.256 229.455 50.322 229.995 50.454C230.535 50.574 231.003 50.754 231.399 50.994L230.715 52.398C230.115 52.002 229.311 51.804 228.303 51.804C226.995 51.804 225.969 52.212 225.225 53.028C224.481 53.832 224.109 55.008 224.109 56.556C224.109 56.748 224.115 56.898 224.127 57.006C224.487 56.466 224.979 56.058 225.603 55.782C226.239 55.494 226.953 55.35 227.745 55.35ZM227.529 61.686C228.357 61.686 229.029 61.464 229.545 61.02C230.061 60.576 230.319 59.982 230.319 59.238C230.319 58.494 230.055 57.906 229.527 57.474C229.011 57.03 228.315 56.808 227.439 56.808C226.875 56.808 226.371 56.916 225.927 57.132C225.495 57.348 225.153 57.642 224.901 58.014C224.661 58.386 224.541 58.8 224.541 59.256C224.541 59.7 224.655 60.108 224.883 60.48C225.123 60.84 225.465 61.134 225.909 61.362C226.365 61.578 226.905 61.686 227.529 61.686Z" fill="#2F2F2F"/>
</svg>
