<svg width="760" height="90" viewBox="0 0 760 90" fill="none" xmlns="http://www.w3.org/2000/svg">
<path d="M78.8393 15.144C77.8433 15.144 76.9553 14.892 76.1753 14.388C75.4073 13.872 74.8013 13.128 74.3573 12.156C73.9133 11.184 73.6913 10.032 73.6913 8.7C73.6913 7.368 73.9133 6.216 74.3573 5.244C74.8013 4.272 75.4073 3.534 76.1753 3.03C76.9553 2.514 77.8433 2.256 78.8393 2.256C79.8233 2.256 80.6993 2.514 81.4673 3.03C82.2473 3.534 82.8593 4.272 83.3033 5.244C83.7473 6.216 83.9693 7.368 83.9693 8.7C83.9693 10.032 83.7473 11.184 83.3033 12.156C82.8593 13.128 82.2473 13.872 81.4673 14.388C80.6993 14.892 79.8233 15.144 78.8393 15.144ZM78.8393 13.542C79.8473 13.542 80.6513 13.128 81.2513 12.3C81.8633 11.472 82.1693 10.272 82.1693 8.7C82.1693 7.128 81.8633 5.928 81.2513 5.1C80.6513 4.272 79.8473 3.858 78.8393 3.858C77.8193 3.858 77.0033 4.272 76.3913 5.1C75.7913 5.928 75.4913 7.128 75.4913 8.7C75.4913 10.272 75.7913 11.472 76.3913 12.3C77.0033 13.128 77.8193 13.542 78.8393 13.542ZM94.7971 12.642C95.1331 12.642 95.4091 12.762 95.6251 13.002C95.8531 13.23 95.9671 13.518 95.9671 13.866C95.9671 14.046 95.9431 14.22 95.8951 14.388C95.8591 14.556 95.7811 14.814 95.6611 15.162L94.8151 17.664H93.6811L94.3471 14.982C94.1191 14.898 93.9331 14.76 93.7891 14.568C93.6571 14.364 93.5911 14.13 93.5911 13.866C93.5911 13.506 93.7051 13.212 93.9331 12.984C94.1611 12.756 94.4491 12.642 94.7971 12.642ZM110.387 7.692C111.623 7.812 112.565 8.196 113.213 8.844C113.861 9.48 114.185 10.296 114.185 11.292C114.185 12.012 114.005 12.666 113.645 13.254C113.285 13.83 112.745 14.292 112.025 14.64C111.317 14.976 110.447 15.144 109.415 15.144C108.515 15.144 107.651 15.012 106.823 14.748C105.995 14.472 105.317 14.094 104.789 13.614L105.617 12.192C106.049 12.6 106.601 12.93 107.273 13.182C107.945 13.422 108.659 13.542 109.415 13.542C110.351 13.542 111.077 13.344 111.593 12.948C112.121 12.552 112.385 12.006 112.385 11.31C112.385 10.614 112.127 10.074 111.611 9.69C111.095 9.306 110.315 9.114 109.271 9.114H108.263V7.854L111.431 3.966H105.365V2.4H113.681V3.624L110.387 7.692ZM78.8041 41.144C77.8081 41.144 76.9201 40.892 76.1401 40.388C75.3721 39.872 74.7661 39.128 74.3221 38.156C73.8781 37.184 73.6561 36.032 73.6561 34.7C73.6561 33.368 73.8781 32.216 74.3221 31.244C74.7661 30.272 75.3721 29.534 76.1401 29.03C76.9201 28.514 77.8081 28.256 78.8041 28.256C79.7881 28.256 80.6641 28.514 81.4321 29.03C82.2121 29.534 82.8241 30.272 83.2681 31.244C83.7121 32.216 83.9341 33.368 83.9341 34.7C83.9341 36.032 83.7121 37.184 83.2681 38.156C82.8241 39.128 82.2121 39.872 81.4321 40.388C80.6641 40.892 79.7881 41.144 78.8041 41.144ZM78.8041 39.542C79.8121 39.542 80.6161 39.128 81.2161 38.3C81.8281 37.472 82.1341 36.272 82.1341 34.7C82.1341 33.128 81.8281 31.928 81.2161 31.1C80.6161 30.272 79.8121 29.858 78.8041 29.858C77.7841 29.858 76.9681 30.272 76.3561 31.1C75.7561 31.928 75.4561 33.128 75.4561 34.7C75.4561 36.272 75.7561 37.472 76.3561 38.3C76.9681 39.128 77.7841 39.542 78.8041 39.542ZM94.762 38.642C95.098 38.642 95.374 38.762 95.59 39.002C95.818 39.23 95.932 39.518 95.932 39.866C95.932 40.046 95.908 40.22 95.86 40.388C95.824 40.556 95.746 40.814 95.626 41.162L94.78 43.664H93.646L94.312 40.982C94.084 40.898 93.898 40.76 93.754 40.568C93.622 40.364 93.556 40.13 93.556 39.866C93.556 39.506 93.67 39.212 93.898 38.984C94.126 38.756 94.414 38.642 94.762 38.642ZM109.128 33.422C110.928 33.422 112.248 33.764 113.088 34.448C113.94 35.12 114.366 36.044 114.366 37.22C114.366 37.964 114.186 38.636 113.826 39.236C113.478 39.824 112.944 40.292 112.224 40.64C111.516 40.976 110.64 41.144 109.596 41.144C108.708 41.144 107.85 41.012 107.022 40.748C106.194 40.472 105.51 40.094 104.97 39.614L105.798 38.192C106.23 38.6 106.782 38.93 107.454 39.182C108.126 39.422 108.834 39.542 109.578 39.542C110.526 39.542 111.258 39.344 111.774 38.948C112.302 38.54 112.566 37.988 112.566 37.292C112.566 36.536 112.278 35.966 111.702 35.582C111.126 35.186 110.142 34.988 108.75 34.988H105.888L106.554 28.4H113.664V29.966H108.066L107.724 33.422H109.128Z" fill="#2F2F2F"/>
<path d="M16.1826 17.2L22.5186 23.584L20.5986 25.648L14.2146 19.216L7.78263 25.648L5.86263 23.584L12.1986 17.2L5.86263 10.816L7.78263 8.752L14.2146 15.184L20.5986 8.752L22.5186 10.816L16.1826 17.2Z" fill="#2F2F2F"/>
<path d="M32 61H110V59H32V61ZM114 65V85H116V65H114ZM110 89H32V91H110V89ZM28 85V65H26V85H28ZM32 89C29.7909 89 28 87.2091 28 85H26C26 88.3137 28.6863 91 32 91V89ZM114 85C114 87.2091 112.209 89 110 89V91C113.314 91 116 88.3137 116 85H114ZM110 61C112.209 61 114 62.7909 114 65H116C116 61.6863 113.314 59 110 59V61ZM32 59C28.6863 59 26 61.6863 26 65H28C28 62.7909 29.7909 61 32 61V59Z" fill="#2F2F2F"/>
<line x1="27" y1="51.5" x2="115" y2="51.5" stroke="#3C3C3C"/>
<path d="M293.804 15.144C292.808 15.144 291.92 14.892 291.14 14.388C290.372 13.872 289.766 13.128 289.322 12.156C288.878 11.184 288.656 10.032 288.656 8.7C288.656 7.368 288.878 6.216 289.322 5.244C289.766 4.272 290.372 3.534 291.14 3.03C291.92 2.514 292.808 2.256 293.804 2.256C294.788 2.256 295.664 2.514 296.432 3.03C297.212 3.534 297.824 4.272 298.268 5.244C298.712 6.216 298.934 7.368 298.934 8.7C298.934 10.032 298.712 11.184 298.268 12.156C297.824 13.128 297.212 13.872 296.432 14.388C295.664 14.892 294.788 15.144 293.804 15.144ZM293.804 13.542C294.812 13.542 295.616 13.128 296.216 12.3C296.828 11.472 297.134 10.272 297.134 8.7C297.134 7.128 296.828 5.928 296.216 5.1C295.616 4.272 294.812 3.858 293.804 3.858C292.784 3.858 291.968 4.272 291.356 5.1C290.756 5.928 290.456 7.128 290.456 8.7C290.456 10.272 290.756 11.472 291.356 12.3C291.968 13.128 292.784 13.542 293.804 13.542ZM309.762 12.642C310.098 12.642 310.374 12.762 310.59 13.002C310.818 13.23 310.932 13.518 310.932 13.866C310.932 14.046 310.908 14.22 310.86 14.388C310.824 14.556 310.746 14.814 310.626 15.162L309.78 17.664H308.646L309.312 14.982C309.084 14.898 308.898 14.76 308.754 14.568C308.622 14.364 308.556 14.13 308.556 13.866C308.556 13.506 308.67 13.212 308.898 12.984C309.126 12.756 309.414 12.642 309.762 12.642ZM329.384 13.434V15H320.33V13.776L325.46 8.826C326.084 8.226 326.504 7.71 326.72 7.278C326.936 6.834 327.044 6.39 327.044 5.946C327.044 5.286 326.81 4.776 326.342 4.416C325.886 4.044 325.226 3.858 324.362 3.858C322.97 3.858 321.896 4.314 321.14 5.226L319.916 4.164C320.408 3.564 321.05 3.096 321.842 2.76C322.646 2.424 323.54 2.256 324.524 2.256C325.844 2.256 326.894 2.574 327.674 3.21C328.454 3.834 328.844 4.686 328.844 5.766C328.844 6.438 328.7 7.074 328.412 7.674C328.124 8.274 327.578 8.958 326.774 9.726L322.922 13.434H329.384ZM292.556 41.144C291.56 41.144 290.672 40.892 289.892 40.388C289.124 39.872 288.518 39.128 288.074 38.156C287.63 37.184 287.408 36.032 287.408 34.7C287.408 33.368 287.63 32.216 288.074 31.244C288.518 30.272 289.124 29.534 289.892 29.03C290.672 28.514 291.56 28.256 292.556 28.256C293.54 28.256 294.416 28.514 295.184 29.03C295.964 29.534 296.576 30.272 297.02 31.244C297.464 32.216 297.686 33.368 297.686 34.7C297.686 36.032 297.464 37.184 297.02 38.156C296.576 39.128 295.964 39.872 295.184 40.388C294.416 40.892 293.54 41.144 292.556 41.144ZM292.556 39.542C293.564 39.542 294.368 39.128 294.968 38.3C295.58 37.472 295.886 36.272 295.886 34.7C295.886 33.128 295.58 31.928 294.968 31.1C294.368 30.272 293.564 29.858 292.556 29.858C291.536 29.858 290.72 30.272 290.108 31.1C289.508 31.928 289.208 33.128 289.208 34.7C289.208 36.272 289.508 37.472 290.108 38.3C290.72 39.128 291.536 39.542 292.556 39.542ZM308.514 38.642C308.85 38.642 309.126 38.762 309.342 39.002C309.57 39.23 309.684 39.518 309.684 39.866C309.684 40.046 309.66 40.22 309.612 40.388C309.576 40.556 309.498 40.814 309.378 41.162L308.532 43.664H307.398L308.064 40.982C307.836 40.898 307.65 40.76 307.506 40.568C307.374 40.364 307.308 40.13 307.308 39.866C307.308 39.506 307.422 39.212 307.65 38.984C307.878 38.756 308.166 38.642 308.514 38.642ZM326.984 34.394C327.704 34.67 328.256 35.066 328.64 35.582C329.024 36.098 329.216 36.716 329.216 37.436C329.216 38.192 329.012 38.852 328.604 39.416C328.196 39.968 327.614 40.394 326.858 40.694C326.102 40.994 325.214 41.144 324.194 41.144C323.186 41.144 322.304 40.994 321.548 40.694C320.804 40.394 320.228 39.968 319.82 39.416C319.412 38.852 319.208 38.192 319.208 37.436C319.208 36.716 319.394 36.098 319.766 35.582C320.15 35.066 320.702 34.67 321.422 34.394C320.846 34.118 320.408 33.752 320.108 33.296C319.808 32.84 319.658 32.3 319.658 31.676C319.658 30.98 319.844 30.374 320.216 29.858C320.6 29.342 321.134 28.946 321.818 28.67C322.502 28.394 323.294 28.256 324.194 28.256C325.106 28.256 325.904 28.394 326.588 28.67C327.284 28.946 327.818 29.342 328.19 29.858C328.574 30.374 328.766 30.98 328.766 31.676C328.766 32.288 328.61 32.828 328.298 33.296C327.998 33.752 327.56 34.118 326.984 34.394ZM324.194 29.714C323.342 29.714 322.67 29.9 322.178 30.272C321.686 30.632 321.44 31.124 321.44 31.748C321.44 32.372 321.68 32.864 322.16 33.224C322.652 33.584 323.33 33.764 324.194 33.764C325.07 33.764 325.754 33.584 326.246 33.224C326.75 32.864 327.002 32.372 327.002 31.748C327.002 31.124 326.744 30.632 326.228 30.272C325.724 29.9 325.046 29.714 324.194 29.714ZM324.194 39.686C325.19 39.686 325.976 39.482 326.552 39.074C327.128 38.654 327.416 38.09 327.416 37.382C327.416 36.686 327.128 36.14 326.552 35.744C325.976 35.336 325.19 35.132 324.194 35.132C323.198 35.132 322.418 35.336 321.854 35.744C321.29 36.14 321.008 36.686 321.008 37.382C321.008 38.09 321.29 38.654 321.854 39.074C322.418 39.482 323.198 39.686 324.194 39.686Z" fill="#2F2F2F"/>
<path d="M231.183 17.2L237.519 23.584L235.599 25.648L229.215 19.216L222.783 25.648L220.863 23.584L227.199 17.2L220.863 10.816L222.783 8.752L229.215 15.184L235.599 8.752L237.519 10.816L231.183 17.2Z" fill="#2F2F2F"/>
<path d="M247 61H325V59H247V61ZM329 65V85H331V65H329ZM325 89H247V91H325V89ZM243 85V65H241V85H243ZM247 89C244.791 89 243 87.2091 243 85H241C241 88.3137 243.686 91 247 91V89ZM329 85C329 87.2091 327.209 89 325 89V91C328.314 91 331 88.3137 331 85H329ZM325 61C327.209 61 329 62.7909 329 65H331C331 61.6863 328.314 59 325 59V61ZM247 59C243.686 59 241 61.6863 241 65H243C243 62.7909 244.791 61 247 61V59Z" fill="#2F2F2F"/>
<line x1="242" y1="51.5" x2="330" y2="51.5" stroke="#3C3C3C"/>
<path d="M508.031 15.144C507.035 15.144 506.147 14.892 505.367 14.388C504.599 13.872 503.993 13.128 503.549 12.156C503.105 11.184 502.883 10.032 502.883 8.7C502.883 7.368 503.105 6.216 503.549 5.244C503.993 4.272 504.599 3.534 505.367 3.03C506.147 2.514 507.035 2.256 508.031 2.256C509.015 2.256 509.891 2.514 510.659 3.03C511.439 3.534 512.051 4.272 512.495 5.244C512.939 6.216 513.161 7.368 513.161 8.7C513.161 10.032 512.939 11.184 512.495 12.156C512.051 13.128 511.439 13.872 510.659 14.388C509.891 14.892 509.015 15.144 508.031 15.144ZM508.031 13.542C509.039 13.542 509.843 13.128 510.443 12.3C511.055 11.472 511.361 10.272 511.361 8.7C511.361 7.128 511.055 5.928 510.443 5.1C509.843 4.272 509.039 3.858 508.031 3.858C507.011 3.858 506.195 4.272 505.583 5.1C504.983 5.928 504.683 7.128 504.683 8.7C504.683 10.272 504.983 11.472 505.583 12.3C506.195 13.128 507.011 13.542 508.031 13.542ZM523.989 12.642C524.325 12.642 524.601 12.762 524.817 13.002C525.045 13.23 525.159 13.518 525.159 13.866C525.159 14.046 525.135 14.22 525.087 14.388C525.051 14.556 524.973 14.814 524.853 15.162L524.007 17.664H522.873L523.539 14.982C523.311 14.898 523.125 14.76 522.981 14.568C522.849 14.364 522.783 14.13 522.783 13.866C522.783 13.506 522.897 13.212 523.125 12.984C523.353 12.756 523.641 12.642 523.989 12.642ZM540.191 7.35C541.019 7.35 541.757 7.506 542.405 7.818C543.065 8.13 543.581 8.58 543.953 9.168C544.325 9.744 544.511 10.41 544.511 11.166C544.511 11.958 544.313 12.654 543.917 13.254C543.533 13.854 542.999 14.322 542.315 14.658C541.643 14.982 540.887 15.144 540.047 15.144C538.355 15.144 537.047 14.598 536.123 13.506C535.211 12.414 534.755 10.866 534.755 8.862C534.755 7.458 535.001 6.264 535.493 5.28C535.997 4.284 536.693 3.534 537.581 3.03C538.481 2.514 539.525 2.256 540.713 2.256C541.325 2.256 541.901 2.322 542.441 2.454C542.981 2.574 543.449 2.754 543.845 2.994L543.161 4.398C542.561 4.002 541.757 3.804 540.749 3.804C539.441 3.804 538.415 4.212 537.671 5.028C536.927 5.832 536.555 7.008 536.555 8.556C536.555 8.748 536.561 8.898 536.573 9.006C536.933 8.466 537.425 8.058 538.049 7.782C538.685 7.494 539.399 7.35 540.191 7.35ZM539.975 13.686C540.803 13.686 541.475 13.464 541.991 13.02C542.507 12.576 542.765 11.982 542.765 11.238C542.765 10.494 542.501 9.906 541.973 9.474C541.457 9.03 540.761 8.808 539.885 8.808C539.321 8.808 538.817 8.916 538.373 9.132C537.941 9.348 537.599 9.642 537.347 10.014C537.107 10.386 536.987 10.8 536.987 11.256C536.987 11.7 537.101 12.108 537.329 12.48C537.569 12.84 537.911 13.134 538.355 13.362C538.811 13.578 539.351 13.686 539.975 13.686ZM508.382 41.144C507.386 41.144 506.498 40.892 505.718 40.388C504.95 39.872 504.344 39.128 503.9 38.156C503.456 37.184 503.234 36.032 503.234 34.7C503.234 33.368 503.456 32.216 503.9 31.244C504.344 30.272 504.95 29.534 505.718 29.03C506.498 28.514 507.386 28.256 508.382 28.256C509.366 28.256 510.242 28.514 511.01 29.03C511.79 29.534 512.402 30.272 512.846 31.244C513.29 32.216 513.512 33.368 513.512 34.7C513.512 36.032 513.29 37.184 512.846 38.156C512.402 39.128 511.79 39.872 511.01 40.388C510.242 40.892 509.366 41.144 508.382 41.144ZM508.382 39.542C509.39 39.542 510.194 39.128 510.794 38.3C511.406 37.472 511.712 36.272 511.712 34.7C511.712 33.128 511.406 31.928 510.794 31.1C510.194 30.272 509.39 29.858 508.382 29.858C507.362 29.858 506.546 30.272 505.934 31.1C505.334 31.928 505.034 33.128 505.034 34.7C505.034 36.272 505.334 37.472 505.934 38.3C506.546 39.128 507.362 39.542 508.382 39.542ZM524.34 38.642C524.676 38.642 524.952 38.762 525.168 39.002C525.396 39.23 525.51 39.518 525.51 39.866C525.51 40.046 525.486 40.22 525.438 40.388C525.402 40.556 525.324 40.814 525.204 41.162L524.358 43.664H523.224L523.89 40.982C523.662 40.898 523.476 40.76 523.332 40.568C523.2 40.364 523.134 40.13 523.134 39.866C523.134 39.506 523.248 39.212 523.476 38.984C523.704 38.756 523.992 38.642 524.34 38.642ZM544.286 28.4V29.624L539.192 41H537.284L542.27 29.966H536.51V32.216H534.782V28.4H544.286Z" fill="#2F2F2F"/>
<path d="M446.183 17.2L452.519 23.584L450.599 25.648L444.215 19.216L437.783 25.648L435.863 23.584L442.199 17.2L435.863 10.816L437.783 8.752L444.215 15.184L450.599 8.752L452.519 10.816L446.183 17.2Z" fill="#2F2F2F"/>
<path d="M462 61H540V59H462V61ZM544 65V85H546V65H544ZM540 89H462V91H540V89ZM458 85V65H456V85H458ZM462 89C459.791 89 458 87.2091 458 85H456C456 88.3137 458.686 91 462 91V89ZM544 85C544 87.2091 542.209 89 540 89V91C543.314 91 546 88.3137 546 85H544ZM540 61C542.209 61 544 62.7909 544 65H546C546 61.6863 543.314 59 540 59V61ZM462 59C458.686 59 456 61.6863 456 65H458C458 62.7909 459.791 61 462 61V59Z" fill="#2F2F2F"/>
<line x1="457" y1="51.5" x2="545" y2="51.5" stroke="#3C3C3C"/>
<path d="M723.804 15.144C722.808 15.144 721.92 14.892 721.14 14.388C720.372 13.872 719.766 13.128 719.322 12.156C718.878 11.184 718.656 10.032 718.656 8.7C718.656 7.368 718.878 6.216 719.322 5.244C719.766 4.272 720.372 3.534 721.14 3.03C721.92 2.514 722.808 2.256 723.804 2.256C724.788 2.256 725.664 2.514 726.432 3.03C727.212 3.534 727.824 4.272 728.268 5.244C728.712 6.216 728.934 7.368 728.934 8.7C728.934 10.032 728.712 11.184 728.268 12.156C727.824 13.128 727.212 13.872 726.432 14.388C725.664 14.892 724.788 15.144 723.804 15.144ZM723.804 13.542C724.812 13.542 725.616 13.128 726.216 12.3C726.828 11.472 727.134 10.272 727.134 8.7C727.134 7.128 726.828 5.928 726.216 5.1C725.616 4.272 724.812 3.858 723.804 3.858C722.784 3.858 721.968 4.272 721.356 5.1C720.756 5.928 720.456 7.128 720.456 8.7C720.456 10.272 720.756 11.472 721.356 12.3C721.968 13.128 722.784 13.542 723.804 13.542ZM739.762 12.642C740.098 12.642 740.374 12.762 740.59 13.002C740.818 13.23 740.932 13.518 740.932 13.866C740.932 14.046 740.908 14.22 740.86 14.388C740.824 14.556 740.746 14.814 740.626 15.162L739.78 17.664H738.646L739.312 14.982C739.084 14.898 738.898 14.76 738.754 14.568C738.622 14.364 738.556 14.13 738.556 13.866C738.556 13.506 738.67 13.212 738.898 12.984C739.126 12.756 739.414 12.642 739.762 12.642ZM754.128 7.422C755.928 7.422 757.248 7.764 758.088 8.448C758.94 9.12 759.366 10.044 759.366 11.22C759.366 11.964 759.186 12.636 758.826 13.236C758.478 13.824 757.944 14.292 757.224 14.64C756.516 14.976 755.64 15.144 754.596 15.144C753.708 15.144 752.85 15.012 752.022 14.748C751.194 14.472 750.51 14.094 749.97 13.614L750.798 12.192C751.23 12.6 751.782 12.93 752.454 13.182C753.126 13.422 753.834 13.542 754.578 13.542C755.526 13.542 756.258 13.344 756.774 12.948C757.302 12.54 757.566 11.988 757.566 11.292C757.566 10.536 757.278 9.966 756.702 9.582C756.126 9.186 755.142 8.988 753.75 8.988H750.888L751.554 2.4H758.664V3.966H753.066L752.724 7.422H754.128ZM722.556 41.144C721.56 41.144 720.672 40.892 719.892 40.388C719.124 39.872 718.518 39.128 718.074 38.156C717.63 37.184 717.408 36.032 717.408 34.7C717.408 33.368 717.63 32.216 718.074 31.244C718.518 30.272 719.124 29.534 719.892 29.03C720.672 28.514 721.56 28.256 722.556 28.256C723.54 28.256 724.416 28.514 725.184 29.03C725.964 29.534 726.576 30.272 727.02 31.244C727.464 32.216 727.686 33.368 727.686 34.7C727.686 36.032 727.464 37.184 727.02 38.156C726.576 39.128 725.964 39.872 725.184 40.388C724.416 40.892 723.54 41.144 722.556 41.144ZM722.556 39.542C723.564 39.542 724.368 39.128 724.968 38.3C725.58 37.472 725.886 36.272 725.886 34.7C725.886 33.128 725.58 31.928 724.968 31.1C724.368 30.272 723.564 29.858 722.556 29.858C721.536 29.858 720.72 30.272 720.108 31.1C719.508 31.928 719.208 33.128 719.208 34.7C719.208 36.272 719.508 37.472 720.108 38.3C720.72 39.128 721.536 39.542 722.556 39.542ZM738.514 38.642C738.85 38.642 739.126 38.762 739.342 39.002C739.57 39.23 739.684 39.518 739.684 39.866C739.684 40.046 739.66 40.22 739.612 40.388C739.576 40.556 739.498 40.814 739.378 41.162L738.532 43.664H737.398L738.064 40.982C737.836 40.898 737.65 40.76 737.506 40.568C737.374 40.364 737.308 40.13 737.308 39.866C737.308 39.506 737.422 39.212 737.65 38.984C737.878 38.756 738.166 38.642 738.514 38.642ZM756.984 34.394C757.704 34.67 758.256 35.066 758.64 35.582C759.024 36.098 759.216 36.716 759.216 37.436C759.216 38.192 759.012 38.852 758.604 39.416C758.196 39.968 757.614 40.394 756.858 40.694C756.102 40.994 755.214 41.144 754.194 41.144C753.186 41.144 752.304 40.994 751.548 40.694C750.804 40.394 750.228 39.968 749.82 39.416C749.412 38.852 749.208 38.192 749.208 37.436C749.208 36.716 749.394 36.098 749.766 35.582C750.15 35.066 750.702 34.67 751.422 34.394C750.846 34.118 750.408 33.752 750.108 33.296C749.808 32.84 749.658 32.3 749.658 31.676C749.658 30.98 749.844 30.374 750.216 29.858C750.6 29.342 751.134 28.946 751.818 28.67C752.502 28.394 753.294 28.256 754.194 28.256C755.106 28.256 755.904 28.394 756.588 28.67C757.284 28.946 757.818 29.342 758.19 29.858C758.574 30.374 758.766 30.98 758.766 31.676C758.766 32.288 758.61 32.828 758.298 33.296C757.998 33.752 757.56 34.118 756.984 34.394ZM754.194 29.714C753.342 29.714 752.67 29.9 752.178 30.272C751.686 30.632 751.44 31.124 751.44 31.748C751.44 32.372 751.68 32.864 752.16 33.224C752.652 33.584 753.33 33.764 754.194 33.764C755.07 33.764 755.754 33.584 756.246 33.224C756.75 32.864 757.002 32.372 757.002 31.748C757.002 31.124 756.744 30.632 756.228 30.272C755.724 29.9 755.046 29.714 754.194 29.714ZM754.194 39.686C755.19 39.686 755.976 39.482 756.552 39.074C757.128 38.654 757.416 38.09 757.416 37.382C757.416 36.686 757.128 36.14 756.552 35.744C755.976 35.336 755.19 35.132 754.194 35.132C753.198 35.132 752.418 35.336 751.854 35.744C751.29 36.14 751.008 36.686 751.008 37.382C751.008 38.09 751.29 38.654 751.854 39.074C752.418 39.482 753.198 39.686 754.194 39.686Z" fill="#2F2F2F"/>
<path d="M661.183 17.2L667.519 23.584L665.599 25.648L659.215 19.216L652.783 25.648L650.863 23.584L657.199 17.2L650.863 10.816L652.783 8.752L659.215 15.184L665.599 8.752L667.519 10.816L661.183 17.2Z" fill="#2F2F2F"/>
<path d="M677 61H755V59H677V61ZM759 65V85H761V65H759ZM755 89H677V91H755V89ZM673 85V65H671V85H673ZM677 89C674.791 89 673 87.2091 673 85H671C671 88.3137 673.686 91 677 91V89ZM759 85C759 87.2091 757.209 89 755 89V91C758.314 91 761 88.3137 761 85H759ZM755 61C757.209 61 759 62.7909 759 65H761C761 61.6863 758.314 59 755 59V61ZM677 59C673.686 59 671 61.6863 671 65H673C673 62.7909 674.791 61 677 61V59Z" fill="#2F2F2F"/>
<line x1="672" y1="51.5" x2="760" y2="51.5" stroke="#3C3C3C"/>
<path d="M61.7794 81.144C60.7834 81.144 59.8954 80.892 59.1154 80.388C58.3474 79.872 57.7414 79.128 57.2974 78.156C56.8534 77.184 56.6314 76.032 56.6314 74.7C56.6314 73.368 56.8534 72.216 57.2974 71.244C57.7414 70.272 58.3474 69.534 59.1154 69.03C59.8954 68.514 60.7834 68.256 61.7794 68.256C62.7634 68.256 63.6394 68.514 64.4074 69.03C65.1874 69.534 65.7994 70.272 66.2434 71.244C66.6874 72.216 66.9094 73.368 66.9094 74.7C66.9094 76.032 66.6874 77.184 66.2434 78.156C65.7994 79.128 65.1874 79.872 64.4074 80.388C63.6394 80.892 62.7634 81.144 61.7794 81.144ZM61.7794 79.542C62.7874 79.542 63.5914 79.128 64.1914 78.3C64.8034 77.472 65.1094 76.272 65.1094 74.7C65.1094 73.128 64.8034 71.928 64.1914 71.1C63.5914 70.272 62.7874 69.858 61.7794 69.858C60.7594 69.858 59.9434 70.272 59.3314 71.1C58.7314 71.928 58.4314 73.128 58.4314 74.7C58.4314 76.272 58.7314 77.472 59.3314 78.3C59.9434 79.128 60.7594 79.542 61.7794 79.542ZM71.1443 81.108C70.8083 81.108 70.5203 80.994 70.2803 80.766C70.0403 80.526 69.9203 80.226 69.9203 79.866C69.9203 79.518 70.0403 79.23 70.2803 79.002C70.5203 78.762 70.8083 78.642 71.1443 78.642C71.4803 78.642 71.7623 78.756 71.9903 78.984C72.2183 79.212 72.3323 79.506 72.3323 79.866C72.3323 80.226 72.2123 80.526 71.9723 80.766C71.7443 80.994 71.4683 81.108 71.1443 81.108ZM79.242 68.4V81H77.46V69.966H74.616V68.4H79.242ZM87.1281 73.422C88.9281 73.422 90.2481 73.764 91.0881 74.448C91.9401 75.12 92.3661 76.044 92.3661 77.22C92.3661 77.964 92.1861 78.636 91.8261 79.236C91.4781 79.824 90.9441 80.292 90.2241 80.64C89.5161 80.976 88.6401 81.144 87.5961 81.144C86.7081 81.144 85.8501 81.012 85.0221 80.748C84.1941 80.472 83.5101 80.094 82.9701 79.614L83.7981 78.192C84.2301 78.6 84.7821 78.93 85.4541 79.182C86.1261 79.422 86.8341 79.542 87.5781 79.542C88.5261 79.542 89.2581 79.344 89.7741 78.948C90.3021 78.54 90.5661 77.988 90.5661 77.292C90.5661 76.536 90.2781 75.966 89.7021 75.582C89.1261 75.186 88.1421 74.988 86.7501 74.988H83.8881L84.5541 68.4H91.6641V69.966H86.0661L85.7241 73.422H87.1281Z" fill="#2F2F2F"/>
<path d="M486.383 81.144C485.387 81.144 484.499 80.892 483.719 80.388C482.951 79.872 482.345 79.128 481.901 78.156C481.457 77.184 481.235 76.032 481.235 74.7C481.235 73.368 481.457 72.216 481.901 71.244C482.345 70.272 482.951 69.534 483.719 69.03C484.499 68.514 485.387 68.256 486.383 68.256C487.367 68.256 488.243 68.514 489.011 69.03C489.791 69.534 490.403 70.272 490.847 71.244C491.291 72.216 491.513 73.368 491.513 74.7C491.513 76.032 491.291 77.184 490.847 78.156C490.403 79.128 489.791 79.872 489.011 80.388C488.243 80.892 487.367 81.144 486.383 81.144ZM486.383 79.542C487.391 79.542 488.195 79.128 488.795 78.3C489.407 77.472 489.713 76.272 489.713 74.7C489.713 73.128 489.407 71.928 488.795 71.1C488.195 70.272 487.391 69.858 486.383 69.858C485.363 69.858 484.547 70.272 483.935 71.1C483.335 71.928 483.035 73.128 483.035 74.7C483.035 76.272 483.335 77.472 483.935 78.3C484.547 79.128 485.363 79.542 486.383 79.542ZM495.748 81.108C495.412 81.108 495.124 80.994 494.884 80.766C494.644 80.526 494.524 80.226 494.524 79.866C494.524 79.518 494.644 79.23 494.884 79.002C495.124 78.762 495.412 78.642 495.748 78.642C496.084 78.642 496.366 78.756 496.594 78.984C496.822 79.212 496.936 79.506 496.936 79.866C496.936 80.226 496.816 80.526 496.576 80.766C496.348 80.994 496.072 81.108 495.748 81.108ZM510.972 77.904H508.578V81H506.832V77.904H499.83V76.644L506.274 68.4H508.218L502.044 76.356H506.886V73.62H508.578V76.356H510.972V77.904ZM522.384 79.434V81H513.33V79.776L518.46 74.826C519.084 74.226 519.504 73.71 519.72 73.278C519.936 72.834 520.044 72.39 520.044 71.946C520.044 71.286 519.81 70.776 519.342 70.416C518.886 70.044 518.226 69.858 517.362 69.858C515.97 69.858 514.896 70.314 514.14 71.226L512.916 70.164C513.408 69.564 514.05 69.096 514.842 68.76C515.646 68.424 516.54 68.256 517.524 68.256C518.844 68.256 519.894 68.574 520.674 69.21C521.454 69.834 521.844 70.686 521.844 71.766C521.844 72.438 521.7 73.074 521.412 73.674C521.124 74.274 520.578 74.958 519.774 75.726L515.922 79.434H522.384Z" fill="#2F2F2F"/>
<path d="M707.196 81.144C706.2 81.144 705.312 80.892 704.532 80.388C703.764 79.872 703.158 79.128 702.714 78.156C702.27 77.184 702.048 76.032 702.048 74.7C702.048 73.368 702.27 72.216 702.714 71.244C703.158 70.272 703.764 69.534 704.532 69.03C705.312 68.514 706.2 68.256 707.196 68.256C708.18 68.256 709.056 68.514 709.824 69.03C710.604 69.534 711.216 70.272 711.66 71.244C712.104 72.216 712.326 73.368 712.326 74.7C712.326 76.032 712.104 77.184 711.66 78.156C711.216 79.128 710.604 79.872 709.824 80.388C709.056 80.892 708.18 81.144 707.196 81.144ZM707.196 79.542C708.204 79.542 709.008 79.128 709.608 78.3C710.22 77.472 710.526 76.272 710.526 74.7C710.526 73.128 710.22 71.928 709.608 71.1C709.008 70.272 708.204 69.858 707.196 69.858C706.176 69.858 705.36 70.272 704.748 71.1C704.148 71.928 703.848 73.128 703.848 74.7C703.848 76.272 704.148 77.472 704.748 78.3C705.36 79.128 706.176 79.542 707.196 79.542ZM716.561 81.108C716.225 81.108 715.937 80.994 715.697 80.766C715.457 80.526 715.337 80.226 715.337 79.866C715.337 79.518 715.457 79.23 715.697 79.002C715.937 78.762 716.225 78.642 716.561 78.642C716.897 78.642 717.179 78.756 717.407 78.984C717.635 79.212 717.749 79.506 717.749 79.866C717.749 80.226 717.629 80.526 717.389 80.766C717.161 80.994 716.885 81.108 716.561 81.108ZM731.785 77.904H729.391V81H727.645V77.904H720.643V76.644L727.087 68.4H729.031L722.857 76.356H727.699V73.62H729.391V76.356H731.785V77.904Z" fill="#2F2F2F"/>
<path d="M274.006 81.144C273.01 81.144 272.122 80.892 271.342 80.388C270.574 79.872 269.968 79.128 269.524 78.156C269.08 77.184 268.858 76.032 268.858 74.7C268.858 73.368 269.08 72.216 269.524 71.244C269.968 70.272 270.574 69.534 271.342 69.03C272.122 68.514 273.01 68.256 274.006 68.256C274.99 68.256 275.866 68.514 276.634 69.03C277.414 69.534 278.026 70.272 278.47 71.244C278.914 72.216 279.136 73.368 279.136 74.7C279.136 76.032 278.914 77.184 278.47 78.156C278.026 79.128 277.414 79.872 276.634 80.388C275.866 80.892 274.99 81.144 274.006 81.144ZM274.006 79.542C275.014 79.542 275.818 79.128 276.418 78.3C277.03 77.472 277.336 76.272 277.336 74.7C277.336 73.128 277.03 71.928 276.418 71.1C275.818 70.272 275.014 69.858 274.006 69.858C272.986 69.858 272.17 70.272 271.558 71.1C270.958 71.928 270.658 73.128 270.658 74.7C270.658 76.272 270.958 77.472 271.558 78.3C272.17 79.128 272.986 79.542 274.006 79.542ZM283.371 81.108C283.035 81.108 282.747 80.994 282.507 80.766C282.267 80.526 282.147 80.226 282.147 79.866C282.147 79.518 282.267 79.23 282.507 79.002C282.747 78.762 283.035 78.642 283.371 78.642C283.707 78.642 283.989 78.756 284.217 78.984C284.445 79.212 284.559 79.506 284.559 79.866C284.559 80.226 284.439 80.526 284.199 80.766C283.971 80.994 283.695 81.108 283.371 81.108ZM291.469 68.4V81H289.687V69.966H286.843V68.4H291.469ZM301.191 73.35C302.019 73.35 302.757 73.506 303.405 73.818C304.065 74.13 304.581 74.58 304.953 75.168C305.325 75.744 305.511 76.41 305.511 77.166C305.511 77.958 305.313 78.654 304.917 79.254C304.533 79.854 303.999 80.322 303.315 80.658C302.643 80.982 301.887 81.144 301.047 81.144C299.355 81.144 298.047 80.598 297.123 79.506C296.211 78.414 295.755 76.866 295.755 74.862C295.755 73.458 296.001 72.264 296.493 71.28C296.997 70.284 297.693 69.534 298.581 69.03C299.481 68.514 300.525 68.256 301.713 68.256C302.325 68.256 302.901 68.322 303.441 68.454C303.981 68.574 304.449 68.754 304.845 68.994L304.161 70.398C303.561 70.002 302.757 69.804 301.749 69.804C300.441 69.804 299.415 70.212 298.671 71.028C297.927 71.832 297.555 73.008 297.555 74.556C297.555 74.748 297.561 74.898 297.573 75.006C297.933 74.466 298.425 74.058 299.049 73.782C299.685 73.494 300.399 73.35 301.191 73.35ZM300.975 79.686C301.803 79.686 302.475 79.464 302.991 79.02C303.507 78.576 303.765 77.982 303.765 77.238C303.765 76.494 303.501 75.906 302.973 75.474C302.457 75.03 301.761 74.808 300.885 74.808C300.321 74.808 299.817 74.916 299.373 75.132C298.941 75.348 298.599 75.642 298.347 76.014C298.107 76.386 297.987 76.8 297.987 77.256C297.987 77.7 298.101 78.108 298.329 78.48C298.569 78.84 298.911 79.134 299.355 79.362C299.811 79.578 300.351 79.686 300.975 79.686Z" fill="#2F2F2F"/>
</svg>
