<svg width="115" height="52" viewBox="0 0 115 52" fill="none" xmlns="http://www.w3.org/2000/svg">
<path d="M78.8041 15.144C77.8081 15.144 76.9201 14.892 76.1401 14.388C75.3721 13.872 74.7661 13.128 74.3221 12.156C73.8781 11.184 73.6561 10.032 73.6561 8.7C73.6561 7.368 73.8781 6.216 74.3221 5.244C74.7661 4.272 75.3721 3.534 76.1401 3.03C76.9201 2.514 77.8081 2.256 78.8041 2.256C79.7881 2.256 80.6641 2.514 81.4321 3.03C82.2121 3.534 82.8241 4.272 83.2681 5.244C83.7121 6.216 83.9341 7.368 83.9341 8.7C83.9341 10.032 83.7121 11.184 83.2681 12.156C82.8241 13.128 82.2121 13.872 81.4321 14.388C80.6641 14.892 79.7881 15.144 78.8041 15.144ZM78.8041 13.542C79.8121 13.542 80.6161 13.128 81.2161 12.3C81.8281 11.472 82.1341 10.272 82.1341 8.7C82.1341 7.128 81.8281 5.928 81.2161 5.1C80.6161 4.272 79.8121 3.858 78.8041 3.858C77.7841 3.858 76.9681 4.272 76.3561 5.1C75.7561 5.928 75.4561 7.128 75.4561 8.7C75.4561 10.272 75.7561 11.472 76.3561 12.3C76.9681 13.128 77.7841 13.542 78.8041 13.542ZM94.762 12.642C95.098 12.642 95.374 12.762 95.59 13.002C95.818 13.23 95.932 13.518 95.932 13.866C95.932 14.046 95.908 14.22 95.86 14.388C95.824 14.556 95.746 14.814 95.626 15.162L94.78 17.664H93.646L94.312 14.982C94.084 14.898 93.898 14.76 93.754 14.568C93.622 14.364 93.556 14.13 93.556 13.866C93.556 13.506 93.67 13.212 93.898 12.984C94.126 12.756 94.414 12.642 94.762 12.642ZM114.384 13.434V15H105.33V13.776L110.46 8.826C111.084 8.226 111.504 7.71 111.72 7.278C111.936 6.834 112.044 6.39 112.044 5.946C112.044 5.286 111.81 4.776 111.342 4.416C110.886 4.044 110.226 3.858 109.362 3.858C107.97 3.858 106.896 4.314 106.14 5.226L104.916 4.164C105.408 3.564 106.05 3.096 106.842 2.76C107.646 2.424 108.54 2.256 109.524 2.256C110.844 2.256 111.894 2.574 112.674 3.21C113.454 3.834 113.844 4.686 113.844 5.766C113.844 6.438 113.7 7.074 113.412 7.674C113.124 8.274 112.578 8.958 111.774 9.726L107.922 13.434H114.384ZM77.5561 41.144C76.5601 41.144 75.6721 40.892 74.8921 40.388C74.1241 39.872 73.5181 39.128 73.0741 38.156C72.6301 37.184 72.4081 36.032 72.4081 34.7C72.4081 33.368 72.6301 32.216 73.0741 31.244C73.5181 30.272 74.1241 29.534 74.8921 29.03C75.6721 28.514 76.5601 28.256 77.5561 28.256C78.5401 28.256 79.4161 28.514 80.1841 29.03C80.9641 29.534 81.5761 30.272 82.0201 31.244C82.4641 32.216 82.6861 33.368 82.6861 34.7C82.6861 36.032 82.4641 37.184 82.0201 38.156C81.5761 39.128 80.9641 39.872 80.1841 40.388C79.4161 40.892 78.5401 41.144 77.5561 41.144ZM77.5561 39.542C78.5641 39.542 79.3681 39.128 79.9681 38.3C80.5801 37.472 80.8861 36.272 80.8861 34.7C80.8861 33.128 80.5801 31.928 79.9681 31.1C79.3681 30.272 78.5641 29.858 77.5561 29.858C76.5361 29.858 75.7201 30.272 75.1081 31.1C74.5081 31.928 74.2081 33.128 74.2081 34.7C74.2081 36.272 74.5081 37.472 75.1081 38.3C75.7201 39.128 76.5361 39.542 77.5561 39.542ZM93.5139 38.642C93.8499 38.642 94.1259 38.762 94.3419 39.002C94.5699 39.23 94.6839 39.518 94.6839 39.866C94.6839 40.046 94.6599 40.22 94.6119 40.388C94.5759 40.556 94.4979 40.814 94.3779 41.162L93.5319 43.664H92.3979L93.0639 40.982C92.8359 40.898 92.6499 40.76 92.5059 40.568C92.3739 40.364 92.3079 40.13 92.3079 39.866C92.3079 39.506 92.4219 39.212 92.6499 38.984C92.8779 38.756 93.1659 38.642 93.5139 38.642ZM111.984 34.394C112.704 34.67 113.256 35.066 113.64 35.582C114.024 36.098 114.216 36.716 114.216 37.436C114.216 38.192 114.012 38.852 113.604 39.416C113.196 39.968 112.614 40.394 111.858 40.694C111.102 40.994 110.214 41.144 109.194 41.144C108.186 41.144 107.304 40.994 106.548 40.694C105.804 40.394 105.228 39.968 104.82 39.416C104.412 38.852 104.208 38.192 104.208 37.436C104.208 36.716 104.394 36.098 104.766 35.582C105.15 35.066 105.702 34.67 106.422 34.394C105.846 34.118 105.408 33.752 105.108 33.296C104.808 32.84 104.658 32.3 104.658 31.676C104.658 30.98 104.844 30.374 105.216 29.858C105.6 29.342 106.134 28.946 106.818 28.67C107.502 28.394 108.294 28.256 109.194 28.256C110.106 28.256 110.904 28.394 111.588 28.67C112.284 28.946 112.818 29.342 113.19 29.858C113.574 30.374 113.766 30.98 113.766 31.676C113.766 32.288 113.61 32.828 113.298 33.296C112.998 33.752 112.56 34.118 111.984 34.394ZM109.194 29.714C108.342 29.714 107.67 29.9 107.178 30.272C106.686 30.632 106.44 31.124 106.44 31.748C106.44 32.372 106.68 32.864 107.16 33.224C107.652 33.584 108.33 33.764 109.194 33.764C110.07 33.764 110.754 33.584 111.246 33.224C111.75 32.864 112.002 32.372 112.002 31.748C112.002 31.124 111.744 30.632 111.228 30.272C110.724 29.9 110.046 29.714 109.194 29.714ZM109.194 39.686C110.19 39.686 110.976 39.482 111.552 39.074C112.128 38.654 112.416 38.09 112.416 37.382C112.416 36.686 112.128 36.14 111.552 35.744C110.976 35.336 110.19 35.132 109.194 35.132C108.198 35.132 107.418 35.336 106.854 35.744C106.29 36.14 106.008 36.686 106.008 37.382C106.008 38.09 106.29 38.654 106.854 39.074C107.418 39.482 108.198 39.686 109.194 39.686Z" fill="#2F2F2F"/>
<path d="M16.1826 17.2L22.5186 23.584L20.5986 25.648L14.2146 19.216L7.78263 25.648L5.86263 23.584L12.1986 17.2L5.86263 10.816L7.78263 8.752L14.2146 15.184L20.5986 8.752L22.5186 10.816L16.1826 17.2Z" fill="#2F2F2F"/>
<line x1="27" y1="51.5" x2="115" y2="51.5" stroke="#3C3C3C"/>
</svg>
