<svg width="108" height="52" viewBox="0 0 108 52" fill="none" xmlns="http://www.w3.org/2000/svg">
<path d="M71.8393 15.144C70.8433 15.144 69.9553 14.892 69.1753 14.388C68.4073 13.872 67.8013 13.128 67.3573 12.156C66.9133 11.184 66.6913 10.032 66.6913 8.7C66.6913 7.368 66.9133 6.216 67.3573 5.244C67.8013 4.272 68.4073 3.534 69.1753 3.03C69.9553 2.514 70.8433 2.256 71.8393 2.256C72.8233 2.256 73.6993 2.514 74.4673 3.03C75.2473 3.534 75.8593 4.272 76.3033 5.244C76.7473 6.216 76.9693 7.368 76.9693 8.7C76.9693 10.032 76.7473 11.184 76.3033 12.156C75.8593 13.128 75.2473 13.872 74.4673 14.388C73.6993 14.892 72.8233 15.144 71.8393 15.144ZM71.8393 13.542C72.8473 13.542 73.6513 13.128 74.2513 12.3C74.8633 11.472 75.1693 10.272 75.1693 8.7C75.1693 7.128 74.8633 5.928 74.2513 5.1C73.6513 4.272 72.8473 3.858 71.8393 3.858C70.8193 3.858 70.0033 4.272 69.3913 5.1C68.7913 5.928 68.4913 7.128 68.4913 8.7C68.4913 10.272 68.7913 11.472 69.3913 12.3C70.0033 13.128 70.8193 13.542 71.8393 13.542ZM87.7791 15.108C87.4431 15.108 87.1551 14.994 86.9151 14.766C86.6751 14.526 86.5551 14.226 86.5551 13.866C86.5551 13.518 86.6751 13.23 86.9151 13.002C87.1551 12.762 87.4431 12.642 87.7791 12.642C88.1151 12.642 88.3971 12.756 88.6251 12.984C88.8531 13.212 88.9671 13.506 88.9671 13.866C88.9671 14.226 88.8471 14.526 88.6071 14.766C88.3791 14.994 88.1031 15.108 87.7791 15.108ZM103.387 7.692C104.623 7.812 105.565 8.196 106.213 8.844C106.861 9.48 107.185 10.296 107.185 11.292C107.185 12.012 107.005 12.666 106.645 13.254C106.285 13.83 105.745 14.292 105.025 14.64C104.317 14.976 103.447 15.144 102.415 15.144C101.515 15.144 100.651 15.012 99.8232 14.748C98.9952 14.472 98.3172 14.094 97.7892 13.614L98.6172 12.192C99.0492 12.6 99.6012 12.93 100.273 13.182C100.945 13.422 101.659 13.542 102.415 13.542C103.351 13.542 104.077 13.344 104.593 12.948C105.121 12.552 105.385 12.006 105.385 11.31C105.385 10.614 105.127 10.074 104.611 9.69C104.095 9.306 103.315 9.114 102.271 9.114H101.263V7.854L104.431 3.966H98.3652V2.4H106.681V3.624L103.387 7.692ZM71.8041 41.144C70.8081 41.144 69.9201 40.892 69.1401 40.388C68.3721 39.872 67.7661 39.128 67.3221 38.156C66.8781 37.184 66.6561 36.032 66.6561 34.7C66.6561 33.368 66.8781 32.216 67.3221 31.244C67.7661 30.272 68.3721 29.534 69.1401 29.03C69.9201 28.514 70.8081 28.256 71.8041 28.256C72.7881 28.256 73.6641 28.514 74.4321 29.03C75.2121 29.534 75.8241 30.272 76.2681 31.244C76.7121 32.216 76.9341 33.368 76.9341 34.7C76.9341 36.032 76.7121 37.184 76.2681 38.156C75.8241 39.128 75.2121 39.872 74.4321 40.388C73.6641 40.892 72.7881 41.144 71.8041 41.144ZM71.8041 39.542C72.8121 39.542 73.6161 39.128 74.2161 38.3C74.8281 37.472 75.1341 36.272 75.1341 34.7C75.1341 33.128 74.8281 31.928 74.2161 31.1C73.6161 30.272 72.8121 29.858 71.8041 29.858C70.7841 29.858 69.9681 30.272 69.3561 31.1C68.7561 31.928 68.4561 33.128 68.4561 34.7C68.4561 36.272 68.7561 37.472 69.3561 38.3C69.9681 39.128 70.7841 39.542 71.8041 39.542ZM87.744 41.108C87.408 41.108 87.12 40.994 86.88 40.766C86.64 40.526 86.52 40.226 86.52 39.866C86.52 39.518 86.64 39.23 86.88 39.002C87.12 38.762 87.408 38.642 87.744 38.642C88.08 38.642 88.362 38.756 88.59 38.984C88.818 39.212 88.932 39.506 88.932 39.866C88.932 40.226 88.812 40.526 88.572 40.766C88.344 40.994 88.068 41.108 87.744 41.108ZM102.128 33.422C103.928 33.422 105.248 33.764 106.088 34.448C106.94 35.12 107.366 36.044 107.366 37.22C107.366 37.964 107.186 38.636 106.826 39.236C106.478 39.824 105.944 40.292 105.224 40.64C104.516 40.976 103.64 41.144 102.596 41.144C101.708 41.144 100.85 41.012 100.022 40.748C99.1941 40.472 98.5101 40.094 97.9701 39.614L98.7981 38.192C99.2301 38.6 99.7821 38.93 100.454 39.182C101.126 39.422 101.834 39.542 102.578 39.542C103.526 39.542 104.258 39.344 104.774 38.948C105.302 38.54 105.566 37.988 105.566 37.292C105.566 36.536 105.278 35.966 104.702 35.582C104.126 35.186 103.142 34.988 101.75 34.988H98.8881L99.5541 28.4H106.664V29.966H101.066L100.724 33.422H102.128Z" fill="#2F2F2F"/>
<path d="M12.3832 17.75L17.0032 22.405L15.6032 23.91L10.9482 19.22L6.25816 23.91L4.85816 22.405L9.47816 17.75L4.85816 13.095L6.25816 11.59L10.9482 16.28L15.6032 11.59L17.0032 13.095L12.3832 17.75Z" fill="#2F2F2F"/>
<line x1="20" y1="51.5" x2="108" y2="51.5" stroke="#3C3C3C"/>
</svg>
