<svg width="115" height="52" viewBox="0 0 115 52" fill="none" xmlns="http://www.w3.org/2000/svg">
<path d="M78.0307 15.144C77.0347 15.144 76.1467 14.892 75.3667 14.388C74.5987 13.872 73.9927 13.128 73.5487 12.156C73.1047 11.184 72.8827 10.032 72.8827 8.7C72.8827 7.368 73.1047 6.216 73.5487 5.244C73.9927 4.272 74.5987 3.534 75.3667 3.03C76.1467 2.514 77.0347 2.256 78.0307 2.256C79.0147 2.256 79.8907 2.514 80.6587 3.03C81.4387 3.534 82.0507 4.272 82.4947 5.244C82.9387 6.216 83.1607 7.368 83.1607 8.7C83.1607 10.032 82.9387 11.184 82.4947 12.156C82.0507 13.128 81.4387 13.872 80.6587 14.388C79.8907 14.892 79.0147 15.144 78.0307 15.144ZM78.0307 13.542C79.0387 13.542 79.8427 13.128 80.4427 12.3C81.0547 11.472 81.3607 10.272 81.3607 8.7C81.3607 7.128 81.0547 5.928 80.4427 5.1C79.8427 4.272 79.0387 3.858 78.0307 3.858C77.0107 3.858 76.1947 4.272 75.5827 5.1C74.9827 5.928 74.6827 7.128 74.6827 8.7C74.6827 10.272 74.9827 11.472 75.5827 12.3C76.1947 13.128 77.0107 13.542 78.0307 13.542ZM93.9885 12.642C94.3245 12.642 94.6005 12.762 94.8165 13.002C95.0445 13.23 95.1585 13.518 95.1585 13.866C95.1585 14.046 95.1345 14.22 95.0865 14.388C95.0505 14.556 94.9725 14.814 94.8525 15.162L94.0065 17.664H92.8725L93.5385 14.982C93.3105 14.898 93.1245 14.76 92.9805 14.568C92.8485 14.364 92.7825 14.13 92.7825 13.866C92.7825 13.506 92.8965 13.212 93.1245 12.984C93.3525 12.756 93.6405 12.642 93.9885 12.642ZM110.191 7.35C111.019 7.35 111.757 7.506 112.405 7.818C113.065 8.13 113.581 8.58 113.953 9.168C114.325 9.744 114.511 10.41 114.511 11.166C114.511 11.958 114.313 12.654 113.917 13.254C113.533 13.854 112.999 14.322 112.315 14.658C111.643 14.982 110.887 15.144 110.047 15.144C108.355 15.144 107.047 14.598 106.123 13.506C105.211 12.414 104.755 10.866 104.755 8.862C104.755 7.458 105.001 6.264 105.493 5.28C105.997 4.284 106.693 3.534 107.581 3.03C108.481 2.514 109.525 2.256 110.713 2.256C111.325 2.256 111.901 2.322 112.441 2.454C112.981 2.574 113.449 2.754 113.845 2.994L113.161 4.398C112.561 4.002 111.757 3.804 110.749 3.804C109.441 3.804 108.415 4.212 107.671 5.028C106.927 5.832 106.555 7.008 106.555 8.556C106.555 8.748 106.561 8.898 106.573 9.006C106.933 8.466 107.425 8.058 108.049 7.782C108.685 7.494 109.399 7.35 110.191 7.35ZM109.975 13.686C110.803 13.686 111.475 13.464 111.991 13.02C112.507 12.576 112.765 11.982 112.765 11.238C112.765 10.494 112.501 9.906 111.973 9.474C111.457 9.03 110.761 8.808 109.885 8.808C109.321 8.808 108.817 8.916 108.373 9.132C107.941 9.348 107.599 9.642 107.347 10.014C107.107 10.386 106.987 10.8 106.987 11.256C106.987 11.7 107.101 12.108 107.329 12.48C107.569 12.84 107.911 13.134 108.355 13.362C108.811 13.578 109.351 13.686 109.975 13.686ZM78.3822 41.144C77.3862 41.144 76.4982 40.892 75.7182 40.388C74.9502 39.872 74.3442 39.128 73.9002 38.156C73.4562 37.184 73.2342 36.032 73.2342 34.7C73.2342 33.368 73.4562 32.216 73.9002 31.244C74.3442 30.272 74.9502 29.534 75.7182 29.03C76.4982 28.514 77.3862 28.256 78.3822 28.256C79.3662 28.256 80.2422 28.514 81.0102 29.03C81.7902 29.534 82.4022 30.272 82.8462 31.244C83.2902 32.216 83.5122 33.368 83.5122 34.7C83.5122 36.032 83.2902 37.184 82.8462 38.156C82.4022 39.128 81.7902 39.872 81.0102 40.388C80.2422 40.892 79.3662 41.144 78.3822 41.144ZM78.3822 39.542C79.3902 39.542 80.1942 39.128 80.7942 38.3C81.4062 37.472 81.7122 36.272 81.7122 34.7C81.7122 33.128 81.4062 31.928 80.7942 31.1C80.1942 30.272 79.3902 29.858 78.3822 29.858C77.3622 29.858 76.5462 30.272 75.9342 31.1C75.3342 31.928 75.0342 33.128 75.0342 34.7C75.0342 36.272 75.3342 37.472 75.9342 38.3C76.5462 39.128 77.3622 39.542 78.3822 39.542ZM94.3401 38.642C94.6761 38.642 94.9521 38.762 95.1681 39.002C95.3961 39.23 95.5101 39.518 95.5101 39.866C95.5101 40.046 95.4861 40.22 95.4381 40.388C95.4021 40.556 95.3241 40.814 95.2041 41.162L94.3581 43.664H93.2241L93.8901 40.982C93.6621 40.898 93.4761 40.76 93.3321 40.568C93.2001 40.364 93.1341 40.13 93.1341 39.866C93.1341 39.506 93.2481 39.212 93.4761 38.984C93.7041 38.756 93.9921 38.642 94.3401 38.642ZM114.286 28.4V29.624L109.192 41H107.284L112.27 29.966H106.51V32.216H104.782V28.4H114.286Z" fill="#2F2F2F"/>
<path d="M16.1826 17.2L22.5186 23.584L20.5986 25.648L14.2146 19.216L7.78263 25.648L5.86263 23.584L12.1986 17.2L5.86263 10.816L7.78263 8.752L14.2146 15.184L20.5986 8.752L22.5186 10.816L16.1826 17.2Z" fill="#2F2F2F"/>
<line x1="27" y1="51.5" x2="115" y2="51.5" stroke="#3C3C3C"/>
</svg>
