<svg width="108" height="52" viewBox="0 0 108 52" fill="none" xmlns="http://www.w3.org/2000/svg">
<path d="M71.8041 15.144C70.8081 15.144 69.9201 14.892 69.1401 14.388C68.3721 13.872 67.7661 13.128 67.3221 12.156C66.8781 11.184 66.6561 10.032 66.6561 8.7C66.6561 7.368 66.8781 6.216 67.3221 5.244C67.7661 4.272 68.3721 3.534 69.1401 3.03C69.9201 2.514 70.8081 2.256 71.8041 2.256C72.7881 2.256 73.6641 2.514 74.4321 3.03C75.2121 3.534 75.8241 4.272 76.2681 5.244C76.7121 6.216 76.9341 7.368 76.9341 8.7C76.9341 10.032 76.7121 11.184 76.2681 12.156C75.8241 13.128 75.2121 13.872 74.4321 14.388C73.6641 14.892 72.7881 15.144 71.8041 15.144ZM71.8041 13.542C72.8121 13.542 73.6161 13.128 74.2161 12.3C74.8281 11.472 75.1341 10.272 75.1341 8.7C75.1341 7.128 74.8281 5.928 74.2161 5.1C73.6161 4.272 72.8121 3.858 71.8041 3.858C70.7841 3.858 69.9681 4.272 69.3561 5.1C68.7561 5.928 68.4561 7.128 68.4561 8.7C68.4561 10.272 68.7561 11.472 69.3561 12.3C69.9681 13.128 70.7841 13.542 71.8041 13.542ZM87.744 15.108C87.408 15.108 87.12 14.994 86.88 14.766C86.64 14.526 86.52 14.226 86.52 13.866C86.52 13.518 86.64 13.23 86.88 13.002C87.12 12.762 87.408 12.642 87.744 12.642C88.08 12.642 88.362 12.756 88.59 12.984C88.818 13.212 88.932 13.506 88.932 13.866C88.932 14.226 88.812 14.526 88.572 14.766C88.344 14.994 88.068 15.108 87.744 15.108ZM102.128 7.422C103.928 7.422 105.248 7.764 106.088 8.448C106.94 9.12 107.366 10.044 107.366 11.22C107.366 11.964 107.186 12.636 106.826 13.236C106.478 13.824 105.944 14.292 105.224 14.64C104.516 14.976 103.64 15.144 102.596 15.144C101.708 15.144 100.85 15.012 100.022 14.748C99.1941 14.472 98.5101 14.094 97.9701 13.614L98.7981 12.192C99.2301 12.6 99.7821 12.93 100.454 13.182C101.126 13.422 101.834 13.542 102.578 13.542C103.526 13.542 104.258 13.344 104.774 12.948C105.302 12.54 105.566 11.988 105.566 11.292C105.566 10.536 105.278 9.966 104.702 9.582C104.126 9.186 103.142 8.988 101.75 8.988H98.8881L99.5541 2.4H106.664V3.966H101.066L100.724 7.422H102.128ZM70.5561 41.144C69.5601 41.144 68.6721 40.892 67.8921 40.388C67.1241 39.872 66.5181 39.128 66.0741 38.156C65.6301 37.184 65.4081 36.032 65.4081 34.7C65.4081 33.368 65.6301 32.216 66.0741 31.244C66.5181 30.272 67.1241 29.534 67.8921 29.03C68.6721 28.514 69.5601 28.256 70.5561 28.256C71.5401 28.256 72.4161 28.514 73.1841 29.03C73.9641 29.534 74.5761 30.272 75.0201 31.244C75.4641 32.216 75.6861 33.368 75.6861 34.7C75.6861 36.032 75.4641 37.184 75.0201 38.156C74.5761 39.128 73.9641 39.872 73.1841 40.388C72.4161 40.892 71.5401 41.144 70.5561 41.144ZM70.5561 39.542C71.5641 39.542 72.3681 39.128 72.9681 38.3C73.5801 37.472 73.8861 36.272 73.8861 34.7C73.8861 33.128 73.5801 31.928 72.9681 31.1C72.3681 30.272 71.5641 29.858 70.5561 29.858C69.5361 29.858 68.7201 30.272 68.1081 31.1C67.5081 31.928 67.2081 33.128 67.2081 34.7C67.2081 36.272 67.5081 37.472 68.1081 38.3C68.7201 39.128 69.5361 39.542 70.5561 39.542ZM86.4959 41.108C86.1599 41.108 85.8719 40.994 85.6319 40.766C85.3919 40.526 85.2719 40.226 85.2719 39.866C85.2719 39.518 85.3919 39.23 85.6319 39.002C85.8719 38.762 86.1599 38.642 86.4959 38.642C86.8319 38.642 87.1139 38.756 87.3419 38.984C87.5699 39.212 87.6839 39.506 87.6839 39.866C87.6839 40.226 87.5639 40.526 87.3239 40.766C87.0959 40.994 86.8199 41.108 86.4959 41.108ZM104.984 34.394C105.704 34.67 106.256 35.066 106.64 35.582C107.024 36.098 107.216 36.716 107.216 37.436C107.216 38.192 107.012 38.852 106.604 39.416C106.196 39.968 105.614 40.394 104.858 40.694C104.102 40.994 103.214 41.144 102.194 41.144C101.186 41.144 100.304 40.994 99.548 40.694C98.804 40.394 98.228 39.968 97.82 39.416C97.412 38.852 97.208 38.192 97.208 37.436C97.208 36.716 97.394 36.098 97.766 35.582C98.15 35.066 98.702 34.67 99.422 34.394C98.846 34.118 98.408 33.752 98.108 33.296C97.808 32.84 97.658 32.3 97.658 31.676C97.658 30.98 97.844 30.374 98.216 29.858C98.6 29.342 99.134 28.946 99.818 28.67C100.502 28.394 101.294 28.256 102.194 28.256C103.106 28.256 103.904 28.394 104.588 28.67C105.284 28.946 105.818 29.342 106.19 29.858C106.574 30.374 106.766 30.98 106.766 31.676C106.766 32.288 106.61 32.828 106.298 33.296C105.998 33.752 105.56 34.118 104.984 34.394ZM102.194 29.714C101.342 29.714 100.67 29.9 100.178 30.272C99.686 30.632 99.44 31.124 99.44 31.748C99.44 32.372 99.68 32.864 100.16 33.224C100.652 33.584 101.33 33.764 102.194 33.764C103.07 33.764 103.754 33.584 104.246 33.224C104.75 32.864 105.002 32.372 105.002 31.748C105.002 31.124 104.744 30.632 104.228 30.272C103.724 29.9 103.046 29.714 102.194 29.714ZM102.194 39.686C103.19 39.686 103.976 39.482 104.552 39.074C105.128 38.654 105.416 38.09 105.416 37.382C105.416 36.686 105.128 36.14 104.552 35.744C103.976 35.336 103.19 35.132 102.194 35.132C101.198 35.132 100.418 35.336 99.854 35.744C99.29 36.14 99.008 36.686 99.008 37.382C99.008 38.09 99.29 38.654 99.854 39.074C100.418 39.482 101.198 39.686 102.194 39.686Z" fill="#2F2F2F"/>
<path d="M12.3832 17.75L17.0032 22.405L15.6032 23.91L10.9482 19.22L6.25816 23.91L4.85816 22.405L9.47816 17.75L4.85816 13.095L6.25816 11.59L10.9482 16.28L15.6032 11.59L17.0032 13.095L12.3832 17.75Z" fill="#2F2F2F"/>
<line x1="20" y1="51.5" x2="108" y2="51.5" stroke="#3C3C3C"/>
</svg>
