<svg width="108" height="52" viewBox="0 0 108 52" fill="none" xmlns="http://www.w3.org/2000/svg">
<path d="M71.0307 15.144C70.0347 15.144 69.1467 14.892 68.3667 14.388C67.5987 13.872 66.9927 13.128 66.5487 12.156C66.1047 11.184 65.8827 10.032 65.8827 8.7C65.8827 7.368 66.1047 6.216 66.5487 5.244C66.9927 4.272 67.5987 3.534 68.3667 3.03C69.1467 2.514 70.0347 2.256 71.0307 2.256C72.0147 2.256 72.8907 2.514 73.6587 3.03C74.4387 3.534 75.0507 4.272 75.4947 5.244C75.9387 6.216 76.1607 7.368 76.1607 8.7C76.1607 10.032 75.9387 11.184 75.4947 12.156C75.0507 13.128 74.4387 13.872 73.6587 14.388C72.8907 14.892 72.0147 15.144 71.0307 15.144ZM71.0307 13.542C72.0387 13.542 72.8427 13.128 73.4427 12.3C74.0547 11.472 74.3607 10.272 74.3607 8.7C74.3607 7.128 74.0547 5.928 73.4427 5.1C72.8427 4.272 72.0387 3.858 71.0307 3.858C70.0107 3.858 69.1947 4.272 68.5827 5.1C67.9827 5.928 67.6827 7.128 67.6827 8.7C67.6827 10.272 67.9827 11.472 68.5827 12.3C69.1947 13.128 70.0107 13.542 71.0307 13.542ZM86.9705 15.108C86.6345 15.108 86.3465 14.994 86.1065 14.766C85.8665 14.526 85.7465 14.226 85.7465 13.866C85.7465 13.518 85.8665 13.23 86.1065 13.002C86.3465 12.762 86.6345 12.642 86.9705 12.642C87.3065 12.642 87.5885 12.756 87.8165 12.984C88.0445 13.212 88.1585 13.506 88.1585 13.866C88.1585 14.226 88.0385 14.526 87.7985 14.766C87.5705 14.994 87.2945 15.108 86.9705 15.108ZM103.191 7.35C104.019 7.35 104.757 7.506 105.405 7.818C106.065 8.13 106.581 8.58 106.953 9.168C107.325 9.744 107.511 10.41 107.511 11.166C107.511 11.958 107.313 12.654 106.917 13.254C106.533 13.854 105.999 14.322 105.315 14.658C104.643 14.982 103.887 15.144 103.047 15.144C101.355 15.144 100.047 14.598 99.1226 13.506C98.2106 12.414 97.7546 10.866 97.7546 8.862C97.7546 7.458 98.0006 6.264 98.4926 5.28C98.9966 4.284 99.6926 3.534 100.581 3.03C101.481 2.514 102.525 2.256 103.713 2.256C104.325 2.256 104.901 2.322 105.441 2.454C105.981 2.574 106.449 2.754 106.845 2.994L106.161 4.398C105.561 4.002 104.757 3.804 103.749 3.804C102.441 3.804 101.415 4.212 100.671 5.028C99.9266 5.832 99.5546 7.008 99.5546 8.556C99.5546 8.748 99.5606 8.898 99.5726 9.006C99.9326 8.466 100.425 8.058 101.049 7.782C101.685 7.494 102.399 7.35 103.191 7.35ZM102.975 13.686C103.803 13.686 104.475 13.464 104.991 13.02C105.507 12.576 105.765 11.982 105.765 11.238C105.765 10.494 105.501 9.906 104.973 9.474C104.457 9.03 103.761 8.808 102.885 8.808C102.321 8.808 101.817 8.916 101.373 9.132C100.941 9.348 100.599 9.642 100.347 10.014C100.107 10.386 99.9866 10.8 99.9866 11.256C99.9866 11.7 100.101 12.108 100.329 12.48C100.569 12.84 100.911 13.134 101.355 13.362C101.811 13.578 102.351 13.686 102.975 13.686ZM71.3822 41.144C70.3862 41.144 69.4982 40.892 68.7182 40.388C67.9502 39.872 67.3442 39.128 66.9002 38.156C66.4562 37.184 66.2342 36.032 66.2342 34.7C66.2342 33.368 66.4562 32.216 66.9002 31.244C67.3442 30.272 67.9502 29.534 68.7182 29.03C69.4982 28.514 70.3862 28.256 71.3822 28.256C72.3662 28.256 73.2422 28.514 74.0102 29.03C74.7902 29.534 75.4022 30.272 75.8462 31.244C76.2902 32.216 76.5122 33.368 76.5122 34.7C76.5122 36.032 76.2902 37.184 75.8462 38.156C75.4022 39.128 74.7902 39.872 74.0102 40.388C73.2422 40.892 72.3662 41.144 71.3822 41.144ZM71.3822 39.542C72.3902 39.542 73.1942 39.128 73.7942 38.3C74.4062 37.472 74.7122 36.272 74.7122 34.7C74.7122 33.128 74.4062 31.928 73.7942 31.1C73.1942 30.272 72.3902 29.858 71.3822 29.858C70.3622 29.858 69.5462 30.272 68.9342 31.1C68.3342 31.928 68.0342 33.128 68.0342 34.7C68.0342 36.272 68.3342 37.472 68.9342 38.3C69.5462 39.128 70.3622 39.542 71.3822 39.542ZM87.3221 41.108C86.9861 41.108 86.6981 40.994 86.4581 40.766C86.2181 40.526 86.0981 40.226 86.0981 39.866C86.0981 39.518 86.2181 39.23 86.4581 39.002C86.6981 38.762 86.9861 38.642 87.3221 38.642C87.6581 38.642 87.9401 38.756 88.1681 38.984C88.3961 39.212 88.5101 39.506 88.5101 39.866C88.5101 40.226 88.3901 40.526 88.1501 40.766C87.9221 40.994 87.6461 41.108 87.3221 41.108ZM107.286 28.4V29.624L102.192 41H100.284L105.27 29.966H99.5102V32.216H97.7822V28.4H107.286Z" fill="#2F2F2F"/>
<path d="M12.3832 17.75L17.0032 22.405L15.6032 23.91L10.9482 19.22L6.25816 23.91L4.85816 22.405L9.47816 17.75L4.85816 13.095L6.25816 11.59L10.9482 16.28L15.6032 11.59L17.0032 13.095L12.3832 17.75Z" fill="#2F2F2F"/>
<line x1="20" y1="51.5" x2="108" y2="51.5" stroke="#3C3C3C"/>
</svg>
