<svg width="115" height="52" viewBox="0 0 115 52" fill="none" xmlns="http://www.w3.org/2000/svg">
<path d="M78.8393 15.144C77.8433 15.144 76.9553 14.892 76.1753 14.388C75.4073 13.872 74.8013 13.128 74.3573 12.156C73.9133 11.184 73.6913 10.032 73.6913 8.7C73.6913 7.368 73.9133 6.216 74.3573 5.244C74.8013 4.272 75.4073 3.534 76.1753 3.03C76.9553 2.514 77.8433 2.256 78.8393 2.256C79.8233 2.256 80.6993 2.514 81.4673 3.03C82.2473 3.534 82.8593 4.272 83.3033 5.244C83.7473 6.216 83.9693 7.368 83.9693 8.7C83.9693 10.032 83.7473 11.184 83.3033 12.156C82.8593 13.128 82.2473 13.872 81.4673 14.388C80.6993 14.892 79.8233 15.144 78.8393 15.144ZM78.8393 13.542C79.8473 13.542 80.6513 13.128 81.2513 12.3C81.8633 11.472 82.1693 10.272 82.1693 8.7C82.1693 7.128 81.8633 5.928 81.2513 5.1C80.6513 4.272 79.8473 3.858 78.8393 3.858C77.8193 3.858 77.0033 4.272 76.3913 5.1C75.7913 5.928 75.4913 7.128 75.4913 8.7C75.4913 10.272 75.7913 11.472 76.3913 12.3C77.0033 13.128 77.8193 13.542 78.8393 13.542ZM94.7971 12.642C95.1331 12.642 95.4091 12.762 95.6251 13.002C95.8531 13.23 95.9671 13.518 95.9671 13.866C95.9671 14.046 95.9431 14.22 95.8951 14.388C95.8591 14.556 95.7811 14.814 95.6611 15.162L94.8151 17.664H93.6811L94.3471 14.982C94.1191 14.898 93.9331 14.76 93.7891 14.568C93.6571 14.364 93.5911 14.13 93.5911 13.866C93.5911 13.506 93.7051 13.212 93.9331 12.984C94.1611 12.756 94.4491 12.642 94.7971 12.642ZM110.387 7.692C111.623 7.812 112.565 8.196 113.213 8.844C113.861 9.48 114.185 10.296 114.185 11.292C114.185 12.012 114.005 12.666 113.645 13.254C113.285 13.83 112.745 14.292 112.025 14.64C111.317 14.976 110.447 15.144 109.415 15.144C108.515 15.144 107.651 15.012 106.823 14.748C105.995 14.472 105.317 14.094 104.789 13.614L105.617 12.192C106.049 12.6 106.601 12.93 107.273 13.182C107.945 13.422 108.659 13.542 109.415 13.542C110.351 13.542 111.077 13.344 111.593 12.948C112.121 12.552 112.385 12.006 112.385 11.31C112.385 10.614 112.127 10.074 111.611 9.69C111.095 9.306 110.315 9.114 109.271 9.114H108.263V7.854L111.431 3.966H105.365V2.4H113.681V3.624L110.387 7.692ZM78.8041 41.144C77.8081 41.144 76.9201 40.892 76.1401 40.388C75.3721 39.872 74.7661 39.128 74.3221 38.156C73.8781 37.184 73.6561 36.032 73.6561 34.7C73.6561 33.368 73.8781 32.216 74.3221 31.244C74.7661 30.272 75.3721 29.534 76.1401 29.03C76.9201 28.514 77.8081 28.256 78.8041 28.256C79.7881 28.256 80.6641 28.514 81.4321 29.03C82.2121 29.534 82.8241 30.272 83.2681 31.244C83.7121 32.216 83.9341 33.368 83.9341 34.7C83.9341 36.032 83.7121 37.184 83.2681 38.156C82.8241 39.128 82.2121 39.872 81.4321 40.388C80.6641 40.892 79.7881 41.144 78.8041 41.144ZM78.8041 39.542C79.8121 39.542 80.6161 39.128 81.2161 38.3C81.8281 37.472 82.1341 36.272 82.1341 34.7C82.1341 33.128 81.8281 31.928 81.2161 31.1C80.6161 30.272 79.8121 29.858 78.8041 29.858C77.7841 29.858 76.9681 30.272 76.3561 31.1C75.7561 31.928 75.4561 33.128 75.4561 34.7C75.4561 36.272 75.7561 37.472 76.3561 38.3C76.9681 39.128 77.7841 39.542 78.8041 39.542ZM94.762 38.642C95.098 38.642 95.374 38.762 95.59 39.002C95.818 39.23 95.932 39.518 95.932 39.866C95.932 40.046 95.908 40.22 95.86 40.388C95.824 40.556 95.746 40.814 95.626 41.162L94.78 43.664H93.646L94.312 40.982C94.084 40.898 93.898 40.76 93.754 40.568C93.622 40.364 93.556 40.13 93.556 39.866C93.556 39.506 93.67 39.212 93.898 38.984C94.126 38.756 94.414 38.642 94.762 38.642ZM109.128 33.422C110.928 33.422 112.248 33.764 113.088 34.448C113.94 35.12 114.366 36.044 114.366 37.22C114.366 37.964 114.186 38.636 113.826 39.236C113.478 39.824 112.944 40.292 112.224 40.64C111.516 40.976 110.64 41.144 109.596 41.144C108.708 41.144 107.85 41.012 107.022 40.748C106.194 40.472 105.51 40.094 104.97 39.614L105.798 38.192C106.23 38.6 106.782 38.93 107.454 39.182C108.126 39.422 108.834 39.542 109.578 39.542C110.526 39.542 111.258 39.344 111.774 38.948C112.302 38.54 112.566 37.988 112.566 37.292C112.566 36.536 112.278 35.966 111.702 35.582C111.126 35.186 110.142 34.988 108.75 34.988H105.888L106.554 28.4H113.664V29.966H108.066L107.724 33.422H109.128Z" fill="#2F2F2F"/>
<path d="M16.1826 17.2L22.5186 23.584L20.5986 25.648L14.2146 19.216L7.78263 25.648L5.86263 23.584L12.1986 17.2L5.86263 10.816L7.78263 8.752L14.2146 15.184L20.5986 8.752L22.5186 10.816L16.1826 17.2Z" fill="#2F2F2F"/>
<line x1="27" y1="51.5" x2="115" y2="51.5" stroke="#3C3C3C"/>
</svg>
