<svg width="324" height="130" viewBox="0 0 324 130" fill="none" xmlns="http://www.w3.org/2000/svg">
<rect width="130" height="130" rx="10" fill="white"/>
<g clip-path="url(#clip0_41_558)">
<path d="M30.8258 106.351C42.1746 115.855 56.4778 119.844 70.14 118.635L65.401 65.0649L30.8258 106.351Z" fill="#46A2D7"/>
<path d="M66.0577 64.2823C66.2534 64.4461 66.4809 64.9695 66.6765 65.1334L71.2199 118.54C71.2835 119.259 70.7919 119.846 70.0729 119.909C55.332 121.214 41.1609 116.67 30.0078 107.329C29.4208 106.838 29.3572 106.119 29.8488 105.532L64.2601 64.4413C64.5878 64.05 65.1112 63.8225 65.6664 63.9545C65.6664 63.9545 65.8621 64.1184 66.0577 64.2823ZM68.5759 117.324L64.2504 68.428L32.6248 106.192C42.7678 114.353 55.4371 118.305 68.5759 117.324Z" fill="#0C4B6F"/>
<path d="M23.9576 30.6862C14.4536 42.035 10.4648 56.3382 11.6735 70.0004L65.2438 65.2614L23.9576 30.6862Z" fill="#E6FAFF"/>
<path d="M24.7757 29.7087L65.8662 64.12C66.2575 64.4477 66.485 64.9711 66.3529 65.5263C66.2209 66.0815 65.6975 66.309 65.3379 66.3408L11.7677 71.0798C11.4081 71.1116 11.2125 70.9478 10.8211 70.62C10.6255 70.4562 10.398 69.9328 10.2023 69.7689C8.89829 55.0281 13.4422 40.857 22.7824 29.7039C23.4697 29.2807 24.1887 29.2171 24.7757 29.7087ZM61.8795 64.1103L24.1154 32.4847C15.9541 42.6277 11.8382 55.4927 12.8193 68.6315L61.8795 64.1103Z" fill="#0C4B6F"/>
<path d="M69.9467 118.472C83.6089 117.264 96.9897 110.826 106.494 99.4772L65.4033 65.0659L69.9467 118.472Z" fill="#46A2D7"/>
<path d="M66.0598 64.2823L107.15 98.6935C107.737 99.1851 107.801 99.9042 107.309 100.491C97.8052 111.84 84.6519 118.801 70.0749 119.909C69.3558 119.973 68.7688 119.481 68.7052 118.762L63.9662 65.1922C63.9344 64.8326 64.2303 64.0817 64.5899 64.0499C65.1132 63.8225 65.4728 63.7907 66.0598 64.2823ZM104.533 99.8309L66.7692 68.2053L71.0947 117.102C84.2017 115.761 95.9806 109.646 104.533 99.8309Z" fill="#0C4B6F"/>
<path d="M11.833 69.8045C13.0416 83.4667 19.4793 96.8475 30.8281 106.352L65.2394 65.2611L11.833 69.8045Z" fill="#E6FAFF"/>
<path d="M66.0599 64.283C66.2555 64.4468 66.2555 64.4468 66.4512 64.6107C66.6787 65.1341 66.5466 65.6893 66.2189 66.0806L31.8076 107.171C31.316 107.758 30.4013 107.658 30.0099 107.33C18.6611 97.826 11.7 84.6727 10.5917 70.0957C10.5599 69.7362 10.7237 69.5405 11.0514 69.1492C11.2153 68.9535 11.7387 68.7261 11.9026 68.5304L65.1133 63.8232C65.4729 63.7914 65.6685 63.9552 66.0599 64.283ZM30.6702 104.554L62.2958 66.79L13.2038 70.9517C14.5445 84.0587 20.6593 95.8375 30.6702 104.554Z" fill="#0C4B6F"/>
<path d="M106.328 99.6719C115.832 88.3231 119.821 74.0199 118.612 60.3577L65.042 65.0967L106.328 99.6719Z" fill="#46A2D7"/>
<path d="M119.433 59.3795C119.628 59.5434 120.02 59.8711 120.052 60.2307C121.356 74.9715 116.812 89.1426 107.308 100.491C106.98 100.883 106.097 101.142 105.51 100.65L64.4195 66.2391C64.0281 65.9114 63.8007 65.388 63.9327 64.8328C64.0648 64.2776 64.5882 64.0501 64.9477 64.0183L118.682 59.0836C119.041 59.0518 119.237 59.2157 119.433 59.3795ZM106.17 97.8744C114.332 87.7314 118.448 74.8664 117.466 61.7276L68.4061 66.2488L106.17 97.8744Z" fill="#0C4B6F"/>
<path d="M23.9564 30.6873L65.0469 65.0986L60.3079 11.5283C46.8413 12.9008 33.6244 19.1429 23.9564 30.6873Z" fill="#E6FAFF"/>
<path d="M61.3212 10.7139C61.5169 10.8778 61.7444 11.4012 61.9401 11.5651L66.4834 64.9715C66.5152 65.331 66.2193 66.0819 65.8598 66.1137C65.3364 66.3411 64.7812 66.2091 64.3898 65.8814L23.2994 31.4701C22.7124 30.9785 22.6488 30.2594 23.1404 29.6724C32.6444 18.3236 45.7978 11.3625 60.3747 10.2541C60.7342 10.2223 60.9299 10.3862 61.3212 10.7139ZM63.5166 62.154L59.1592 12.8981C46.2479 14.4026 34.4691 20.5175 25.7525 30.5284L63.5166 62.154Z" fill="#0C4B6F"/>
<path d="M99.8173 23.9766C88.4686 14.4725 74.1654 10.4838 60.5032 11.6924L65.2422 65.2627L99.8173 23.9766Z" fill="#E6FAFF"/>
<path d="M100.636 22.9968C101.223 23.4884 101.286 24.2075 100.795 24.7945L66.3833 65.8849C66.0556 66.2763 65.5322 66.5038 64.977 66.3717C64.4218 66.2396 64.1943 65.7162 64.1625 65.3567L59.4234 11.7864C59.3916 11.4269 59.5555 11.2312 59.8832 10.8399C60.0471 10.6442 60.5705 10.4167 60.7344 10.2211C75.1156 8.94885 89.2868 13.4928 100.636 22.9968ZM66.393 61.8983L98.0186 24.1342C87.8756 15.9728 75.0106 11.8569 61.8717 12.838L66.393 61.8983Z" fill="#0C4B6F"/>
<path d="M118.615 60.3574C117.406 46.6952 110.969 33.3144 99.6199 23.8103L65.2086 64.9008L118.615 60.3574Z" fill="#46A2D7"/>
<path d="M100.633 22.9961C111.982 32.5002 118.943 45.6535 120.052 60.2305C120.115 60.9496 119.624 61.5366 118.905 61.6002L65.3344 66.3392C64.9748 66.371 64.224 66.0751 64.1922 65.7156C63.9647 65.1922 64.0967 64.637 64.4245 64.2456L98.8358 23.1552C99.3273 22.5682 100.046 22.5046 100.633 22.9961ZM117.244 59.2107C115.903 46.1037 109.788 34.3248 99.9731 25.7721L68.3475 63.5362L117.244 59.2107Z" fill="#0C4B6F"/>
</g>
<rect x="194" width="130" height="130" rx="10" fill="white"/>
<g clip-path="url(#clip1_41_558)">
<path d="M258.872 11.2764C239.22 11.2764 221.865 21.9956 212.422 38.0745L258.872 64.8727V11.2764Z" fill="#5CC787"/>
<path d="M258.873 66.1485C258.618 66.1485 258.363 66.1485 258.108 65.8933L211.913 39.3504C211.658 39.0951 211.402 38.8399 211.402 38.5847C211.402 38.3295 211.402 37.819 211.402 37.5638C221.101 20.464 239.477 10 258.873 10C259.639 10 260.149 10.5104 260.149 11.2761V64.8724C260.149 65.3828 259.894 65.6381 259.384 65.8933C259.384 66.1485 259.129 66.1485 258.873 66.1485ZM214.21 37.5638L257.597 62.5754V12.5522C239.987 13.0626 223.398 22.5058 214.21 37.5638Z" fill="#065B5B"/>
<path d="M305.576 38.0745C296.133 21.9956 278.778 11.2764 258.871 11.2764V64.8727L305.576 38.0745Z" fill="#5CC787"/>
<path d="M258.871 66.1485C258.616 66.1485 258.361 66.1485 258.106 65.8933C257.595 65.6381 257.34 65.1276 257.34 64.8724V11.2761C257.595 10.5104 258.361 10 258.871 10C278.523 10 296.644 20.464 306.597 37.5638C306.853 37.819 306.853 38.3295 306.597 38.5847C306.597 38.8399 306.342 39.0951 306.087 39.3504L259.637 66.1485C259.382 66.1485 259.126 66.1485 258.871 66.1485ZM260.147 12.5522V62.8306L303.535 37.819C294.602 22.5058 278.013 13.0626 260.147 12.5522Z" fill="#065B5B"/>
<path d="M305.576 38.0742L258.871 64.8724L305.576 38.0742Z" fill="#E5EAF9"/>
<path d="M258.873 66.1485C258.362 66.1485 258.107 65.8933 257.852 65.3829C257.597 64.8724 257.597 64.1068 258.362 63.5963L304.812 36.7981C305.323 36.5429 306.089 36.5429 306.599 37.3086C306.599 37.5638 306.854 37.819 306.854 37.819C306.854 38.3295 306.599 38.5847 306.089 38.8399L259.638 66.1485H259.383C259.383 66.1485 259.128 66.1485 258.873 66.1485C259.128 66.1485 259.128 66.1485 258.873 66.1485Z" fill="#065B5B"/>
<path d="M212.422 38.0742L258.872 64.8724L212.422 38.0742Z" fill="#E5EAF9"/>
<path d="M258.871 66.1484C258.616 66.1484 258.36 66.1484 258.105 65.8931L211.91 39.3502C211.4 39.095 211.145 38.5846 211.145 38.3294C211.145 38.0741 211.145 37.8189 211.4 37.5637C211.655 37.0532 212.421 36.798 213.186 37.0532L259.636 63.8514C260.147 64.1066 260.402 64.617 260.402 64.8723C260.402 65.1275 260.402 65.3827 260.147 65.6379C259.892 66.1484 259.381 66.1484 258.871 66.1484Z" fill="#065B5B"/>
<path d="M305.576 91.9264C310.17 84.0145 312.723 74.8266 312.723 65.1282C312.723 55.4298 310.17 46.2419 305.576 38.3301L258.871 64.873L305.576 91.9264Z" fill="#E7F3EA"/>
<path d="M305.575 93.2022C305.32 93.2022 305.065 93.2022 304.81 92.9469L258.359 66.1488C257.849 65.8936 257.594 65.3831 257.594 65.1279C257.594 64.6175 257.849 64.3623 258.359 64.107L304.81 37.3089C305.32 37.0537 306.086 37.0537 306.596 37.8193C311.445 46.2416 313.997 55.6848 313.997 65.3831C313.997 75.0815 311.445 84.5247 306.596 92.9469C306.341 92.9469 306.086 93.2022 305.575 93.2022ZM261.422 64.8727L304.81 89.8843C308.893 82.2277 311.19 73.5502 311.19 64.8727C311.19 56.1952 308.893 47.5177 304.81 39.8611L261.422 64.8727Z" fill="#065B5B"/>
<path d="M212.424 38.0742C207.83 45.9861 205.277 55.174 205.277 64.8724C205.277 74.5707 207.83 83.7587 212.424 91.6705L258.874 64.8724L212.424 38.0742Z" fill="#5CC787"/>
<path d="M212.422 93.2018C211.912 93.2018 211.657 92.9465 211.401 92.4361C206.552 84.269 204 74.5707 204 64.8723C204 55.1739 206.552 45.7307 211.401 37.5637C211.657 37.0532 212.422 36.798 213.188 37.0532L259.638 63.8514C260.148 64.1066 260.404 64.6171 260.404 64.8723C260.404 65.3827 260.148 65.6379 259.638 65.8932L213.188 92.9465C212.933 93.2018 212.677 93.2018 212.422 93.2018ZM212.933 39.8607C208.849 47.5173 206.552 56.1948 206.552 64.8723C206.552 73.5498 208.849 82.2273 212.933 89.8839L256.32 64.8723L212.933 39.8607Z" fill="#065B5B"/>
<path d="M258.871 64.8721L305.576 91.9254L258.871 64.8721Z" fill="#E5EAF9"/>
<path d="M305.576 93.2019C305.321 93.2019 305.066 93.2019 304.811 92.9467L258.361 66.1485C257.85 65.8933 257.595 65.1277 257.85 64.362C257.85 64.362 257.85 64.1068 258.105 64.1068C258.361 63.8516 258.616 63.8516 258.871 63.8516C259.126 63.8516 259.381 63.8516 259.637 63.8516C259.637 63.8516 259.637 63.8516 259.892 63.8516L306.087 90.6497C306.597 90.9049 306.852 91.6706 306.597 92.4362C306.342 92.9467 306.087 93.2019 305.576 93.2019Z" fill="#065B5B"/>
<path d="M258.871 118.724C278.778 118.724 296.133 108.004 305.321 91.9254L258.871 64.8721V118.724Z" fill="#E7F3EA"/>
<path d="M258.87 120C258.104 120 257.594 119.489 257.594 118.724V65.1273C257.594 64.6169 257.849 64.3617 258.359 64.1065C258.87 63.8512 259.125 63.8512 259.636 64.1065L306.086 90.6494C306.341 90.9046 306.596 91.1598 306.596 91.415C306.596 91.6703 306.596 92.1807 306.596 92.4359C296.898 109.536 278.522 120 258.87 120ZM260.146 67.1691V117.448C278.011 116.937 294.345 107.494 303.533 92.4359L260.146 67.1691Z" fill="#065B5B"/>
<path d="M212.422 91.9264L258.872 64.873L212.422 91.9264Z" fill="#E5EAF9"/>
<path d="M212.421 93.2022C211.91 93.2022 211.655 92.947 211.4 92.4366C211.4 92.1813 211.145 91.9261 211.145 91.6709C211.145 91.1605 211.4 90.9052 211.91 90.65L258.36 63.8519C258.871 63.5966 259.636 63.5966 260.147 64.3623C260.147 64.6175 260.402 64.8727 260.402 65.128C260.402 65.6384 260.147 65.8936 259.636 66.1488L213.186 92.947C212.931 93.2022 212.676 93.2022 212.421 93.2022Z" fill="#065B5B"/>
<path d="M212.422 91.9251C221.865 108.004 239.22 118.723 258.872 118.723V65.127L212.422 91.9251Z" fill="#E7F3EA"/>
<path d="M258.872 120C239.22 120 221.099 109.536 211.146 92.4363C210.891 92.181 210.891 91.6706 210.891 91.4154C210.891 91.1602 211.146 90.9049 211.401 90.6497L257.851 63.8516C258.362 63.5964 258.617 63.5964 259.127 63.8516C259.638 64.1068 259.893 64.6172 259.893 64.8725V118.469C260.148 119.49 259.638 120 258.872 120ZM214.208 92.4363C223.396 107.494 239.986 117.193 257.596 117.448V67.1694L214.208 92.4363Z" fill="#065B5B"/>
</g>
<defs>
<clipPath id="clip0_41_558">
<rect width="110" height="110" fill="white" transform="translate(10 10)"/>
</clipPath>
<clipPath id="clip1_41_558">
<rect width="110" height="110" fill="white" transform="translate(204 10)"/>
</clipPath>
</defs>
</svg>
