<svg width="101" height="30" viewBox="0 0 101 30" fill="none" xmlns="http://www.w3.org/2000/svg">
<path d="M72.94 17.06L70.74 19.1V22H68.82V7.16H70.74V16.68L76.52 11.4H78.84L74.38 15.78L79.28 22H76.92L72.94 17.06ZM94.2675 11.3C95.6008 11.3 96.6542 11.6867 97.4275 12.46C98.2142 13.2333 98.6075 14.38 98.6075 15.9V22H96.6875V16.12C96.6875 15.0933 96.4475 14.32 95.9675 13.8C95.5008 13.28 94.8275 13.02 93.9475 13.02C92.9742 13.02 92.2008 13.3267 91.6275 13.94C91.0542 14.54 90.7675 15.4067 90.7675 16.54V22H88.8475V16.12C88.8475 15.0933 88.6075 14.32 88.1275 13.8C87.6608 13.28 86.9875 13.02 86.1075 13.02C85.1342 13.02 84.3608 13.3267 83.7875 13.94C83.2142 14.54 82.9275 15.4067 82.9275 16.54V22H81.0075V11.4H82.8475V12.98C83.2342 12.4333 83.7408 12.02 84.3675 11.74C84.9942 11.4467 85.7075 11.3 86.5075 11.3C87.3342 11.3 88.0675 11.4667 88.7075 11.8C89.3475 12.1333 89.8408 12.62 90.1875 13.26C90.5875 12.6467 91.1408 12.1667 91.8475 11.82C92.5675 11.4733 93.3742 11.3 94.2675 11.3Z" fill="#2F2F2F"/>
<path d="M5 1H59V-1H5V1ZM63 5V25H65V5H63ZM59 29H5V31H59V29ZM1 25V5H-1V25H1ZM5 29C2.79086 29 1 27.2091 1 25H-1C-1 28.3137 1.68629 31 5 31V29ZM63 25C63 27.2091 61.2091 29 59 29V31C62.3137 31 65 28.3137 65 25H63ZM59 1C61.2091 1 63 2.79086 63 5H65C65 1.68629 62.3137 -1 59 -1V1ZM5 -1C1.68629 -1 -1 1.68629 -1 5H1C1 2.79086 2.79086 1 5 1V-1Z" fill="#2F2F2F"/>
<path d="M28.2243 17.904H25.8303V21H24.0843V17.904H17.0823V16.644L23.5263 8.4H25.4703L19.2963 16.356H24.1383V13.62H25.8303V16.356H28.2243V17.904ZM39.6366 19.434V21H30.5826V19.776L35.7126 14.826C36.3366 14.226 36.7566 13.71 36.9726 13.278C37.1886 12.834 37.2966 12.39 37.2966 11.946C37.2966 11.286 37.0626 10.776 36.5946 10.416C36.1386 10.044 35.4786 9.858 34.6146 9.858C33.2226 9.858 32.1486 10.314 31.3926 11.226L30.1686 10.164C30.6606 9.564 31.3026 9.096 32.0946 8.76C32.8986 8.424 33.7926 8.256 34.7766 8.256C36.0966 8.256 37.1466 8.574 37.9266 9.21C38.7066 9.834 39.0966 10.686 39.0966 11.766C39.0966 12.438 38.9526 13.074 38.6646 13.674C38.3766 14.274 37.8306 14.958 37.0266 15.726L33.1746 19.434H39.6366ZM44.0103 21.108C43.6743 21.108 43.3863 20.994 43.1463 20.766C42.9063 20.526 42.7863 20.226 42.7863 19.866C42.7863 19.518 42.9063 19.23 43.1463 19.002C43.3863 18.762 43.6743 18.642 44.0103 18.642C44.3463 18.642 44.6283 18.756 44.8563 18.984C45.0843 19.212 45.1983 19.506 45.1983 19.866C45.1983 20.226 45.0783 20.526 44.8383 20.766C44.6103 20.994 44.3343 21.108 44.0103 21.108ZM52.1079 8.4V21H50.3259V9.966H47.4819V8.4H52.1079Z" fill="#2F2F2F"/>
</svg>
