<svg width="314" height="220" viewBox="0 0 314 220" fill="none" xmlns="http://www.w3.org/2000/svg">
<path d="M255 192H59L99 28H225L255 192Z" fill="#D5D5FF" stroke="#8880E5" stroke-width="2"/>
<path d="M137.442 2.4V3.624L132.348 15H130.44L135.426 3.966H129.666V6.216H127.938V2.4H137.442ZM139.277 15.108C138.941 15.108 138.653 14.994 138.413 14.766C138.173 14.526 138.053 14.226 138.053 13.866C138.053 13.518 138.173 13.23 138.413 13.002C138.653 12.762 138.941 12.642 139.277 12.642C139.613 12.642 139.895 12.756 140.123 12.984C140.351 13.212 140.465 13.506 140.465 13.866C140.465 14.226 140.345 14.526 140.105 14.766C139.877 14.994 139.601 15.108 139.277 15.108ZM147.167 7.692C148.403 7.812 149.345 8.196 149.993 8.844C150.641 9.48 150.965 10.296 150.965 11.292C150.965 12.012 150.785 12.666 150.425 13.254C150.065 13.83 149.525 14.292 148.805 14.64C148.097 14.976 147.227 15.144 146.195 15.144C145.295 15.144 144.431 15.012 143.603 14.748C142.775 14.472 142.097 14.094 141.569 13.614L142.397 12.192C142.829 12.6 143.381 12.93 144.053 13.182C144.725 13.422 145.439 13.542 146.195 13.542C147.131 13.542 147.857 13.344 148.373 12.948C148.901 12.552 149.165 12.006 149.165 11.31C149.165 10.614 148.907 10.074 148.391 9.69C147.875 9.306 147.095 9.114 146.051 9.114H145.043V7.854L148.211 3.966H142.145V2.4H150.461V3.624L147.167 7.692ZM161.959 10.554L159.979 12.39V15H158.251V1.644H159.979V10.212L165.181 5.46H167.269L163.255 9.402L167.665 15H165.541L161.959 10.554ZM181.154 5.37C182.354 5.37 183.302 5.718 183.998 6.414C184.706 7.11 185.06 8.142 185.06 9.51V15H183.332V9.708C183.332 8.784 183.116 8.088 182.684 7.62C182.264 7.152 181.658 6.918 180.866 6.918C179.99 6.918 179.294 7.194 178.778 7.746C178.262 8.286 178.004 9.066 178.004 10.086V15H176.276V9.708C176.276 8.784 176.06 8.088 175.628 7.62C175.208 7.152 174.602 6.918 173.81 6.918C172.934 6.918 172.238 7.194 171.722 7.746C171.206 8.286 170.948 9.066 170.948 10.086V15H169.22V5.46H170.876V6.882C171.224 6.39 171.68 6.018 172.244 5.766C172.808 5.502 173.45 5.37 174.17 5.37C174.914 5.37 175.574 5.52 176.15 5.82C176.726 6.12 177.17 6.558 177.482 7.134C177.842 6.582 178.34 6.15 178.976 5.838C179.624 5.526 180.35 5.37 181.154 5.37Z" fill="#2F2F2F"/>
<path d="M255.902 97.4V110H254.12V98.966H251.276V97.4H255.902ZM262.564 97.4V110H260.782V98.966H257.938V97.4H262.564ZM266.508 110.108C266.172 110.108 265.884 109.994 265.644 109.766C265.404 109.526 265.284 109.226 265.284 108.866C265.284 108.518 265.404 108.23 265.644 108.002C265.884 107.762 266.172 107.642 266.508 107.642C266.844 107.642 267.126 107.756 267.354 107.984C267.582 108.212 267.696 108.506 267.696 108.866C267.696 109.226 267.576 109.526 267.336 109.766C267.108 109.994 266.832 110.108 266.508 110.108ZM278.43 108.434V110H269.376V108.776L274.506 103.826C275.13 103.226 275.55 102.71 275.766 102.278C275.982 101.834 276.09 101.39 276.09 100.946C276.09 100.286 275.856 99.776 275.388 99.416C274.932 99.044 274.272 98.858 273.408 98.858C272.016 98.858 270.942 99.314 270.186 100.226L268.962 99.164C269.454 98.564 270.096 98.096 270.888 97.76C271.692 97.424 272.586 97.256 273.57 97.256C274.89 97.256 275.94 97.574 276.72 98.21C277.5 98.834 277.89 99.686 277.89 100.766C277.89 101.438 277.746 102.074 277.458 102.674C277.17 103.274 276.624 103.958 275.82 104.726L271.968 108.434H278.43ZM289.226 105.554L287.246 107.39V110H285.518V96.644H287.246V105.212L292.448 100.46H294.536L290.522 104.402L294.932 110H292.808L289.226 105.554ZM308.421 100.37C309.621 100.37 310.569 100.718 311.265 101.414C311.973 102.11 312.327 103.142 312.327 104.51V110H310.599V104.708C310.599 103.784 310.383 103.088 309.951 102.62C309.531 102.152 308.925 101.918 308.133 101.918C307.257 101.918 306.561 102.194 306.045 102.746C305.529 103.286 305.271 104.066 305.271 105.086V110H303.543V104.708C303.543 103.784 303.327 103.088 302.895 102.62C302.475 102.152 301.869 101.918 301.077 101.918C300.201 101.918 299.505 102.194 298.989 102.746C298.473 103.286 298.215 104.066 298.215 105.086V110H296.487V100.46H298.143V101.882C298.491 101.39 298.947 101.018 299.511 100.766C300.075 100.502 300.717 100.37 301.437 100.37C302.181 100.37 302.841 100.52 303.417 100.82C303.993 101.12 304.437 101.558 304.749 102.134C305.109 101.582 305.607 101.15 306.243 100.838C306.891 100.526 307.617 100.37 308.421 100.37Z" fill="#2F2F2F"/>
<path d="M4.90184 97.4V110H3.11984V98.966H0.275836V97.4H4.90184ZM11.5639 97.4V110H9.78195V98.966H6.93795V97.4H11.5639ZM15.5081 110.108C15.1721 110.108 14.8841 109.994 14.6441 109.766C14.4041 109.526 14.2841 109.226 14.2841 108.866C14.2841 108.518 14.4041 108.23 14.6441 108.002C14.8841 107.762 15.1721 107.642 15.5081 107.642C15.8441 107.642 16.1261 107.756 16.3541 107.984C16.5821 108.212 16.6961 108.506 16.6961 108.866C16.6961 109.226 16.5761 109.526 16.3361 109.766C16.1081 109.994 15.8321 110.108 15.5081 110.108ZM27.43 108.434V110H18.376V108.776L23.506 103.826C24.13 103.226 24.55 102.71 24.766 102.278C24.982 101.834 25.09 101.39 25.09 100.946C25.09 100.286 24.856 99.776 24.388 99.416C23.932 99.044 23.272 98.858 22.408 98.858C21.016 98.858 19.942 99.314 19.186 100.226L17.962 99.164C18.454 98.564 19.096 98.096 19.888 97.76C20.692 97.424 21.586 97.256 22.57 97.256C23.89 97.256 24.94 97.574 25.72 98.21C26.5 98.834 26.89 99.686 26.89 100.766C26.89 101.438 26.746 102.074 26.458 102.674C26.17 103.274 25.624 103.958 24.82 104.726L20.968 108.434H27.43ZM38.2259 105.554L36.2459 107.39V110H34.5179V96.644H36.2459V105.212L41.4479 100.46H43.5359L39.5219 104.402L43.9319 110H41.8079L38.2259 105.554ZM57.4206 100.37C58.6206 100.37 59.5686 100.718 60.2646 101.414C60.9726 102.11 61.3266 103.142 61.3266 104.51V110H59.5986V104.708C59.5986 103.784 59.3826 103.088 58.9506 102.62C58.5306 102.152 57.9246 101.918 57.1326 101.918C56.2566 101.918 55.5606 102.194 55.0446 102.746C54.5286 103.286 54.2706 104.066 54.2706 105.086V110H52.5426V104.708C52.5426 103.784 52.3266 103.088 51.8946 102.62C51.4746 102.152 50.8686 101.918 50.0766 101.918C49.2006 101.918 48.5046 102.194 47.9886 102.746C47.4726 103.286 47.2146 104.066 47.2146 105.086V110H45.4866V100.46H47.1426V101.882C47.4906 101.39 47.9466 101.018 48.5106 100.766C49.0746 100.502 49.7166 100.37 50.4366 100.37C51.1806 100.37 51.8406 100.52 52.4166 100.82C52.9926 101.12 53.4366 101.558 53.7486 102.134C54.1086 101.582 54.6066 101.15 55.2426 100.838C55.8906 100.526 56.6166 100.37 57.4206 100.37Z" fill="#2F2F2F"/>
<path d="M131.791 204.4V217H130.009V205.966H127.165V204.4H131.791ZM143.404 215.434V217H134.35V215.776L139.48 210.826C140.104 210.226 140.524 209.71 140.74 209.278C140.956 208.834 141.064 208.39 141.064 207.946C141.064 207.286 140.83 206.776 140.362 206.416C139.906 206.044 139.246 205.858 138.382 205.858C136.99 205.858 135.916 206.314 135.16 207.226L133.936 206.164C134.428 205.564 135.07 205.096 135.862 204.76C136.666 204.424 137.56 204.256 138.544 204.256C139.864 204.256 140.914 204.574 141.694 205.21C142.474 205.834 142.864 206.686 142.864 207.766C142.864 208.438 142.72 209.074 142.432 209.674C142.144 210.274 141.598 210.958 140.794 211.726L136.942 215.434H143.404ZM146.247 217.108C145.911 217.108 145.623 216.994 145.383 216.766C145.143 216.526 145.023 216.226 145.023 215.866C145.023 215.518 145.143 215.23 145.383 215.002C145.623 214.762 145.911 214.642 146.247 214.642C146.583 214.642 146.865 214.756 147.093 214.984C147.321 215.212 147.435 215.506 147.435 215.866C147.435 216.226 147.315 216.526 147.075 216.766C146.847 216.994 146.571 217.108 146.247 217.108ZM159.941 213.904H157.547V217H155.801V213.904H148.799V212.644L155.243 204.4H157.187L151.013 212.356H155.855V209.62H157.547V212.356H159.941V213.904ZM170.336 212.554L168.356 214.39V217H166.628V203.644H168.356V212.212L173.558 207.46H175.646L171.632 211.402L176.042 217H173.918L170.336 212.554ZM189.531 207.37C190.731 207.37 191.679 207.718 192.375 208.414C193.083 209.11 193.437 210.142 193.437 211.51V217H191.709V211.708C191.709 210.784 191.493 210.088 191.061 209.62C190.641 209.152 190.035 208.918 189.243 208.918C188.367 208.918 187.671 209.194 187.155 209.746C186.639 210.286 186.381 211.066 186.381 212.086V217H184.653V211.708C184.653 210.784 184.437 210.088 184.005 209.62C183.585 209.152 182.979 208.918 182.187 208.918C181.311 208.918 180.615 209.194 180.099 209.746C179.583 210.286 179.325 211.066 179.325 212.086V217H177.597V207.46H179.253V208.882C179.601 208.39 180.057 208.018 180.621 207.766C181.185 207.502 181.827 207.37 182.547 207.37C183.291 207.37 183.951 207.52 184.527 207.82C185.103 208.12 185.547 208.558 185.859 209.134C186.219 208.582 186.717 208.15 187.353 207.838C188.001 207.526 188.727 207.37 189.531 207.37Z" fill="#2F2F2F"/>
</svg>
