<svg width="313" height="261" viewBox="0 0 313 261" fill="none" xmlns="http://www.w3.org/2000/svg">
<path d="M311 128L153.5 223H59.5L59.5 38.5H153.5L311 128Z" fill="#FFC298" stroke="#FF822E" stroke-width="2"/>
<path d="M215.188 43.192C216.424 43.312 217.366 43.696 218.014 44.344C218.662 44.98 218.986 45.796 218.986 46.792C218.986 47.512 218.806 48.166 218.446 48.754C218.086 49.33 217.546 49.792 216.826 50.14C216.118 50.476 215.248 50.644 214.216 50.644C213.316 50.644 212.452 50.512 211.624 50.248C210.796 49.972 210.118 49.594 209.59 49.114L210.418 47.692C210.85 48.1 211.402 48.43 212.074 48.682C212.746 48.922 213.46 49.042 214.216 49.042C215.152 49.042 215.878 48.844 216.394 48.448C216.922 48.052 217.186 47.506 217.186 46.81C217.186 46.114 216.928 45.574 216.412 45.19C215.896 44.806 215.116 44.614 214.072 44.614H213.064V43.354L216.232 39.466H210.166V37.9H218.482V39.124L215.188 43.192ZM230.431 50.608C229.459 50.608 228.589 50.398 227.821 49.978C227.065 49.558 226.471 48.982 226.039 48.25C225.607 47.506 225.391 46.666 225.391 45.73C225.391 44.794 225.607 43.96 226.039 43.228C226.471 42.484 227.065 41.908 227.821 41.5C228.589 41.08 229.459 40.87 230.431 40.87C231.295 40.87 232.063 41.044 232.735 41.392C233.419 41.74 233.947 42.244 234.319 42.904L233.005 43.75C232.705 43.294 232.333 42.952 231.889 42.724C231.445 42.496 230.953 42.382 230.413 42.382C229.789 42.382 229.225 42.52 228.721 42.796C228.229 43.072 227.839 43.468 227.551 43.984C227.275 44.488 227.137 45.07 227.137 45.73C227.137 46.402 227.275 46.996 227.551 47.512C227.839 48.016 228.229 48.406 228.721 48.682C229.225 48.958 229.789 49.096 230.413 49.096C230.953 49.096 231.445 48.982 231.889 48.754C232.333 48.526 232.705 48.184 233.005 47.728L234.319 48.556C233.947 49.216 233.419 49.726 232.735 50.086C232.063 50.434 231.295 50.608 230.431 50.608ZM248.49 40.87C249.69 40.87 250.638 41.218 251.334 41.914C252.042 42.61 252.396 43.642 252.396 45.01V50.5H250.668V45.208C250.668 44.284 250.452 43.588 250.02 43.12C249.6 42.652 248.994 42.418 248.202 42.418C247.326 42.418 246.63 42.694 246.114 43.246C245.598 43.786 245.34 44.566 245.34 45.586V50.5H243.612V45.208C243.612 44.284 243.396 43.588 242.964 43.12C242.544 42.652 241.938 42.418 241.146 42.418C240.27 42.418 239.574 42.694 239.058 43.246C238.542 43.786 238.284 44.566 238.284 45.586V50.5H236.556V40.96H238.212V42.382C238.56 41.89 239.016 41.518 239.58 41.266C240.144 41.002 240.786 40.87 241.506 40.87C242.25 40.87 242.91 41.02 243.486 41.32C244.062 41.62 244.506 42.058 244.818 42.634C245.178 42.082 245.676 41.65 246.312 41.338C246.96 41.026 247.686 40.87 248.49 40.87Z" fill="#2F2F2F"/>
<path d="M215.188 210.192C216.424 210.312 217.366 210.696 218.014 211.344C218.662 211.98 218.986 212.796 218.986 213.792C218.986 214.512 218.806 215.166 218.446 215.754C218.086 216.33 217.546 216.792 216.826 217.14C216.118 217.476 215.248 217.644 214.216 217.644C213.316 217.644 212.452 217.512 211.624 217.248C210.796 216.972 210.118 216.594 209.59 216.114L210.418 214.692C210.85 215.1 211.402 215.43 212.074 215.682C212.746 215.922 213.46 216.042 214.216 216.042C215.152 216.042 215.878 215.844 216.394 215.448C216.922 215.052 217.186 214.506 217.186 213.81C217.186 213.114 216.928 212.574 216.412 212.19C215.896 211.806 215.116 211.614 214.072 211.614H213.064V210.354L216.232 206.466H210.166V204.9H218.482V206.124L215.188 210.192ZM230.431 217.608C229.459 217.608 228.589 217.398 227.821 216.978C227.065 216.558 226.471 215.982 226.039 215.25C225.607 214.506 225.391 213.666 225.391 212.73C225.391 211.794 225.607 210.96 226.039 210.228C226.471 209.484 227.065 208.908 227.821 208.5C228.589 208.08 229.459 207.87 230.431 207.87C231.295 207.87 232.063 208.044 232.735 208.392C233.419 208.74 233.947 209.244 234.319 209.904L233.005 210.75C232.705 210.294 232.333 209.952 231.889 209.724C231.445 209.496 230.953 209.382 230.413 209.382C229.789 209.382 229.225 209.52 228.721 209.796C228.229 210.072 227.839 210.468 227.551 210.984C227.275 211.488 227.137 212.07 227.137 212.73C227.137 213.402 227.275 213.996 227.551 214.512C227.839 215.016 228.229 215.406 228.721 215.682C229.225 215.958 229.789 216.096 230.413 216.096C230.953 216.096 231.445 215.982 231.889 215.754C232.333 215.526 232.705 215.184 233.005 214.728L234.319 215.556C233.947 216.216 233.419 216.726 232.735 217.086C232.063 217.434 231.295 217.608 230.431 217.608ZM248.49 207.87C249.69 207.87 250.638 208.218 251.334 208.914C252.042 209.61 252.396 210.642 252.396 212.01V217.5H250.668V212.208C250.668 211.284 250.452 210.588 250.02 210.12C249.6 209.652 248.994 209.418 248.202 209.418C247.326 209.418 246.63 209.694 246.114 210.246C245.598 210.786 245.34 211.566 245.34 212.586V217.5H243.612V212.208C243.612 211.284 243.396 210.588 242.964 210.12C242.544 209.652 241.938 209.418 241.146 209.418C240.27 209.418 239.574 209.694 239.058 210.246C238.542 210.786 238.284 211.566 238.284 212.586V217.5H236.556V207.96H238.212V209.382C238.56 208.89 239.016 208.518 239.58 208.266C240.144 208.002 240.786 207.87 241.506 207.87C242.25 207.87 242.91 208.02 243.486 208.32C244.062 208.62 244.506 209.058 244.818 209.634C245.178 209.082 245.676 208.65 246.312 208.338C246.96 208.026 247.686 207.87 248.49 207.87Z" fill="#2F2F2F"/>
<path d="M107.22 255.934V257.5H98.166V256.276L103.296 251.326C103.92 250.726 104.34 250.21 104.556 249.778C104.772 249.334 104.88 248.89 104.88 248.446C104.88 247.786 104.646 247.276 104.178 246.916C103.722 246.544 103.062 246.358 102.198 246.358C100.806 246.358 99.732 246.814 98.976 247.726L97.752 246.664C98.244 246.064 98.886 245.596 99.678 245.26C100.482 244.924 101.376 244.756 102.36 244.756C103.68 244.756 104.73 245.074 105.51 245.71C106.29 246.334 106.68 247.186 106.68 248.266C106.68 248.938 106.536 249.574 106.248 250.174C105.96 250.774 105.414 251.458 104.61 252.226L100.758 255.934H107.22ZM118.466 257.608C117.494 257.608 116.624 257.398 115.856 256.978C115.1 256.558 114.506 255.982 114.074 255.25C113.642 254.506 113.426 253.666 113.426 252.73C113.426 251.794 113.642 250.96 114.074 250.228C114.506 249.484 115.1 248.908 115.856 248.5C116.624 248.08 117.494 247.87 118.466 247.87C119.33 247.87 120.098 248.044 120.77 248.392C121.454 248.74 121.982 249.244 122.354 249.904L121.04 250.75C120.74 250.294 120.368 249.952 119.924 249.724C119.48 249.496 118.988 249.382 118.448 249.382C117.824 249.382 117.26 249.52 116.756 249.796C116.264 250.072 115.874 250.468 115.586 250.984C115.31 251.488 115.172 252.07 115.172 252.73C115.172 253.402 115.31 253.996 115.586 254.512C115.874 255.016 116.264 255.406 116.756 255.682C117.26 255.958 117.824 256.096 118.448 256.096C118.988 256.096 119.48 255.982 119.924 255.754C120.368 255.526 120.74 255.184 121.04 254.728L122.354 255.556C121.982 256.216 121.454 256.726 120.77 257.086C120.098 257.434 119.33 257.608 118.466 257.608ZM136.525 247.87C137.725 247.87 138.673 248.218 139.369 248.914C140.077 249.61 140.431 250.642 140.431 252.01V257.5H138.703V252.208C138.703 251.284 138.487 250.588 138.055 250.12C137.635 249.652 137.029 249.418 136.237 249.418C135.361 249.418 134.665 249.694 134.149 250.246C133.633 250.786 133.375 251.566 133.375 252.586V257.5H131.647V252.208C131.647 251.284 131.431 250.588 130.999 250.12C130.579 249.652 129.973 249.418 129.181 249.418C128.305 249.418 127.609 249.694 127.093 250.246C126.577 250.786 126.319 251.566 126.319 252.586V257.5H124.591V247.96H126.247V249.382C126.595 248.89 127.051 248.518 127.615 248.266C128.179 248.002 128.821 247.87 129.541 247.87C130.285 247.87 130.945 248.02 131.521 248.32C132.097 248.62 132.541 249.058 132.853 249.634C133.213 249.082 133.711 248.65 134.347 248.338C134.995 248.026 135.721 247.87 136.525 247.87Z" fill="#2F2F2F"/>
<path d="M107.22 13.934V15.5H98.166V14.276L103.296 9.326C103.92 8.726 104.34 8.21 104.556 7.778C104.772 7.334 104.88 6.89 104.88 6.446C104.88 5.786 104.646 5.276 104.178 4.916C103.722 4.544 103.062 4.358 102.198 4.358C100.806 4.358 99.732 4.814 98.976 5.726L97.752 4.664C98.244 4.064 98.886 3.596 99.678 3.26C100.482 2.924 101.376 2.756 102.36 2.756C103.68 2.756 104.73 3.074 105.51 3.71C106.29 4.334 106.68 5.186 106.68 6.266C106.68 6.938 106.536 7.574 106.248 8.174C105.96 8.774 105.414 9.458 104.61 10.226L100.758 13.934H107.22ZM118.466 15.608C117.494 15.608 116.624 15.398 115.856 14.978C115.1 14.558 114.506 13.982 114.074 13.25C113.642 12.506 113.426 11.666 113.426 10.73C113.426 9.794 113.642 8.96 114.074 8.228C114.506 7.484 115.1 6.908 115.856 6.5C116.624 6.08 117.494 5.87 118.466 5.87C119.33 5.87 120.098 6.044 120.77 6.392C121.454 6.74 121.982 7.244 122.354 7.904L121.04 8.75C120.74 8.294 120.368 7.952 119.924 7.724C119.48 7.496 118.988 7.382 118.448 7.382C117.824 7.382 117.26 7.52 116.756 7.796C116.264 8.072 115.874 8.468 115.586 8.984C115.31 9.488 115.172 10.07 115.172 10.73C115.172 11.402 115.31 11.996 115.586 12.512C115.874 13.016 116.264 13.406 116.756 13.682C117.26 13.958 117.824 14.096 118.448 14.096C118.988 14.096 119.48 13.982 119.924 13.754C120.368 13.526 120.74 13.184 121.04 12.728L122.354 13.556C121.982 14.216 121.454 14.726 120.77 15.086C120.098 15.434 119.33 15.608 118.466 15.608ZM136.525 5.87C137.725 5.87 138.673 6.218 139.369 6.914C140.077 7.61 140.431 8.642 140.431 10.01V15.5H138.703V10.208C138.703 9.284 138.487 8.588 138.055 8.12C137.635 7.652 137.029 7.418 136.237 7.418C135.361 7.418 134.665 7.694 134.149 8.246C133.633 8.786 133.375 9.566 133.375 10.586V15.5H131.647V10.208C131.647 9.284 131.431 8.588 130.999 8.12C130.579 7.652 129.973 7.418 129.181 7.418C128.305 7.418 127.609 7.694 127.093 8.246C126.577 8.786 126.319 9.566 126.319 10.586V15.5H124.591V5.96H126.247V7.382C126.595 6.89 127.051 6.518 127.615 6.266C128.179 6.002 128.821 5.87 129.541 5.87C130.285 5.87 130.945 6.02 131.521 6.32C132.097 6.62 132.541 7.058 132.853 7.634C133.213 7.082 133.711 6.65 134.347 6.338C134.995 6.026 135.721 5.87 136.525 5.87Z" fill="#2F2F2F"/>
<path d="M12.2371 145.404H9.84313V148.5H8.09713V145.404H1.09513V144.144L7.53913 135.9H9.48313L3.30913 143.856H8.15113L8.15113 141.12H9.84313L9.84313 143.856H12.2371V145.404ZM23.0821 148.608C22.1101 148.608 21.2401 148.398 20.4721 147.978C19.7161 147.558 19.1221 146.982 18.6901 146.25C18.2581 145.506 18.0421 144.666 18.0421 143.73C18.0421 142.794 18.2581 141.96 18.6901 141.228C19.1221 140.484 19.7161 139.908 20.4721 139.5C21.2401 139.08 22.1101 138.87 23.0821 138.87C23.9461 138.87 24.7141 139.044 25.3861 139.392C26.0701 139.74 26.5981 140.244 26.9701 140.904L25.6561 141.75C25.3561 141.294 24.9841 140.952 24.5401 140.724C24.0961 140.496 23.6041 140.382 23.0641 140.382C22.4401 140.382 21.8761 140.52 21.3721 140.796C20.8801 141.072 20.4901 141.468 20.2021 141.984C19.9261 142.488 19.7881 143.07 19.7881 143.73C19.7881 144.402 19.9261 144.996 20.2021 145.512C20.4901 146.016 20.8801 146.406 21.3721 146.682C21.8761 146.958 22.4401 147.096 23.0641 147.096C23.6041 147.096 24.0961 146.982 24.5401 146.754C24.9841 146.526 25.3561 146.184 25.6561 145.728L26.9701 146.556C26.5981 147.216 26.0701 147.726 25.3861 148.086C24.7141 148.434 23.9461 148.608 23.0821 148.608ZM41.1413 138.87C42.3413 138.87 43.2893 139.218 43.9853 139.914C44.6933 140.61 45.0473 141.642 45.0473 143.01V148.5H43.3193V143.208C43.3193 142.284 43.1033 141.588 42.6713 141.12C42.2513 140.652 41.6453 140.418 40.8533 140.418C39.9773 140.418 39.2813 140.694 38.7653 141.246C38.2493 141.786 37.9913 142.566 37.9913 143.586V148.5H36.2633V143.208C36.2633 142.284 36.0473 141.588 35.6153 141.12C35.1953 140.652 34.5893 140.418 33.7973 140.418C32.9213 140.418 32.2253 140.694 31.7093 141.246C31.1933 141.786 30.9353 142.566 30.9353 143.586V148.5H29.2073V138.96H30.8633V140.382C31.2113 139.89 31.6673 139.518 32.2313 139.266C32.7953 139.002 33.4373 138.87 34.1573 138.87C34.9013 138.87 35.5613 139.02 36.1373 139.32C36.7133 139.62 37.1573 140.058 37.4693 140.634C37.8293 140.082 38.3273 139.65 38.9633 139.338C39.6113 139.026 40.3373 138.87 41.1413 138.87Z" fill="#2F2F2F"/>
</svg>
