<svg width="163" height="30" viewBox="0 0 163 30" fill="none" xmlns="http://www.w3.org/2000/svg">
<path d="M5 1H95V-1H5V1ZM99 5V25H101V5H99ZM95 29H5V31H95V29ZM1 25V5H-1V25H1ZM5 29C2.79086 29 1 27.2091 1 25H-1C-1 28.3137 1.68629 31 5 31V29ZM99 25C99 27.2091 97.2091 29 95 29V31C98.3137 31 101 28.3137 101 25H99ZM95 1C97.2091 1 99 2.79086 99 5H101C101 1.68629 98.3137 -1 95 -1V1ZM5 -1C1.68629 -1 -1 1.68629 -1 5H1C1 2.79086 2.79086 1 5 1V-1Z" fill="#2F2F2F"/>
<path d="M120.893 14.448C121.589 14.676 122.141 15.06 122.549 15.6C122.957 16.128 123.161 16.788 123.161 17.58C123.161 18.672 122.741 19.518 121.901 20.118C121.061 20.706 119.837 21 118.229 21H111.965V8.4H117.869C119.357 8.4 120.503 8.694 121.307 9.282C122.111 9.858 122.513 10.656 122.513 11.676C122.513 12.3 122.369 12.852 122.081 13.332C121.793 13.812 121.397 14.184 120.893 14.448ZM114.305 10.236V13.71H117.617C118.433 13.71 119.057 13.566 119.489 13.278C119.933 12.978 120.155 12.546 120.155 11.982C120.155 11.406 119.933 10.974 119.489 10.686C119.057 10.386 118.433 10.236 117.617 10.236H114.305ZM118.085 19.164C119.897 19.164 120.803 18.558 120.803 17.346C120.803 16.134 119.897 15.528 118.085 15.528H114.305V19.164H118.085ZM134.479 16.248C134.479 16.404 134.467 16.626 134.443 16.914H126.901C127.033 17.622 127.375 18.186 127.927 18.606C128.491 19.014 129.187 19.218 130.015 19.218C131.071 19.218 131.941 18.87 132.625 18.174L133.831 19.56C133.399 20.076 132.853 20.466 132.193 20.73C131.533 20.994 130.789 21.126 129.961 21.126C128.905 21.126 127.975 20.916 127.171 20.496C126.367 20.076 125.743 19.494 125.299 18.75C124.867 17.994 124.651 17.142 124.651 16.194C124.651 15.258 124.861 14.418 125.281 13.674C125.713 12.918 126.307 12.33 127.063 11.91C127.819 11.49 128.671 11.28 129.619 11.28C130.555 11.28 131.389 11.49 132.121 11.91C132.865 12.318 133.441 12.9 133.849 13.656C134.269 14.4 134.479 15.264 134.479 16.248ZM129.619 13.08C128.899 13.08 128.287 13.296 127.783 13.728C127.291 14.148 126.991 14.712 126.883 15.42H132.337C132.241 14.724 131.947 14.16 131.455 13.728C130.963 13.296 130.351 13.08 129.619 13.08ZM140.048 11.28C141.464 11.28 142.544 11.622 143.288 12.306C144.044 12.978 144.422 13.998 144.422 15.366V21H142.298V19.83C142.022 20.25 141.626 20.574 141.11 20.802C140.606 21.018 139.994 21.126 139.274 21.126C138.554 21.126 137.924 21.006 137.384 20.766C136.844 20.514 136.424 20.172 136.124 19.74C135.836 19.296 135.692 18.798 135.692 18.246C135.692 17.382 136.01 16.692 136.646 16.176C137.294 15.648 138.308 15.384 139.688 15.384H142.172V15.24C142.172 14.568 141.968 14.052 141.56 13.692C141.164 13.332 140.57 13.152 139.778 13.152C139.238 13.152 138.704 13.236 138.176 13.404C137.66 13.572 137.222 13.806 136.862 14.106L135.98 12.468C136.484 12.084 137.09 11.79 137.798 11.586C138.506 11.382 139.256 11.28 140.048 11.28ZM139.742 19.488C140.306 19.488 140.804 19.362 141.236 19.11C141.68 18.846 141.992 18.474 142.172 17.994V16.878H139.85C138.554 16.878 137.906 17.304 137.906 18.156C137.906 18.564 138.068 18.888 138.392 19.128C138.716 19.368 139.166 19.488 139.742 19.488ZM153.088 20.478C152.824 20.694 152.5 20.856 152.116 20.964C151.744 21.072 151.348 21.126 150.928 21.126C149.872 21.126 149.056 20.85 148.48 20.298C147.904 19.746 147.616 18.942 147.616 17.886V13.26H146.032V11.46H147.616V9.264H149.866V11.46H152.44V13.26H149.866V17.832C149.866 18.3 149.98 18.66 150.208 18.912C150.436 19.152 150.766 19.272 151.198 19.272C151.702 19.272 152.122 19.14 152.458 18.876L153.088 20.478ZM157.909 21.126C157.129 21.126 156.367 21.024 155.623 20.82C154.879 20.616 154.285 20.358 153.841 20.046L154.705 18.336C155.137 18.624 155.653 18.858 156.253 19.038C156.865 19.206 157.465 19.29 158.053 19.29C159.397 19.29 160.069 18.936 160.069 18.228C160.069 17.892 159.895 17.658 159.547 17.526C159.211 17.394 158.665 17.268 157.909 17.148C157.117 17.028 156.469 16.89 155.965 16.734C155.473 16.578 155.041 16.308 154.669 15.924C154.309 15.528 154.129 14.982 154.129 14.286C154.129 13.374 154.507 12.648 155.263 12.108C156.031 11.556 157.063 11.28 158.359 11.28C159.019 11.28 159.679 11.358 160.339 11.514C160.999 11.658 161.539 11.856 161.959 12.108L161.095 13.818C160.279 13.338 159.361 13.098 158.341 13.098C157.681 13.098 157.177 13.2 156.829 13.404C156.493 13.596 156.325 13.854 156.325 14.178C156.325 14.538 156.505 14.796 156.865 14.952C157.237 15.096 157.807 15.234 158.575 15.366C159.343 15.486 159.973 15.624 160.465 15.78C160.957 15.936 161.377 16.2 161.725 16.572C162.085 16.944 162.265 17.472 162.265 18.156C162.265 19.056 161.875 19.776 161.095 20.316C160.315 20.856 159.253 21.126 157.909 21.126Z" fill="#2F2F2F"/>
<path d="M24.9593 19.434V21H15.9053V19.776L21.0353 14.826C21.6593 14.226 22.0793 13.71 22.2953 13.278C22.5113 12.834 22.6193 12.39 22.6193 11.946C22.6193 11.286 22.3853 10.776 21.9173 10.416C21.4613 10.044 20.8013 9.858 19.9373 9.858C18.5453 9.858 17.4713 10.314 16.7153 11.226L15.4913 10.164C15.9833 9.564 16.6253 9.096 17.4173 8.76C18.2213 8.424 19.1153 8.256 20.0993 8.256C21.4193 8.256 22.4693 8.574 23.2493 9.21C24.0293 9.834 24.4193 10.686 24.4193 11.766C24.4193 12.438 24.2753 13.074 23.9873 13.674C23.6993 14.274 23.1533 14.958 22.3493 15.726L18.4973 19.434H24.9593ZM34.1432 14.394C34.8632 14.67 35.4152 15.066 35.7992 15.582C36.1832 16.098 36.3752 16.716 36.3752 17.436C36.3752 18.192 36.1712 18.852 35.7632 19.416C35.3552 19.968 34.7732 20.394 34.0172 20.694C33.2612 20.994 32.3732 21.144 31.3532 21.144C30.3452 21.144 29.4632 20.994 28.7072 20.694C27.9632 20.394 27.3872 19.968 26.9792 19.416C26.5712 18.852 26.3672 18.192 26.3672 17.436C26.3672 16.716 26.5532 16.098 26.9252 15.582C27.3092 15.066 27.8612 14.67 28.5812 14.394C28.0052 14.118 27.5672 13.752 27.2672 13.296C26.9672 12.84 26.8172 12.3 26.8172 11.676C26.8172 10.98 27.0032 10.374 27.3752 9.858C27.7592 9.342 28.2932 8.946 28.9772 8.67C29.6612 8.394 30.4532 8.256 31.3532 8.256C32.2652 8.256 33.0632 8.394 33.7472 8.67C34.4432 8.946 34.9772 9.342 35.3492 9.858C35.7332 10.374 35.9252 10.98 35.9252 11.676C35.9252 12.288 35.7692 12.828 35.4572 13.296C35.1572 13.752 34.7192 14.118 34.1432 14.394ZM31.3532 9.714C30.5012 9.714 29.8292 9.9 29.3372 10.272C28.8452 10.632 28.5992 11.124 28.5992 11.748C28.5992 12.372 28.8392 12.864 29.3192 13.224C29.8112 13.584 30.4892 13.764 31.3532 13.764C32.2292 13.764 32.9132 13.584 33.4052 13.224C33.9092 12.864 34.1612 12.372 34.1612 11.748C34.1612 11.124 33.9032 10.632 33.3872 10.272C32.8832 9.9 32.2052 9.714 31.3532 9.714ZM31.3532 19.686C32.3492 19.686 33.1352 19.482 33.7112 19.074C34.2872 18.654 34.5752 18.09 34.5752 17.382C34.5752 16.686 34.2872 16.14 33.7112 15.744C33.1352 15.336 32.3492 15.132 31.3532 15.132C30.3572 15.132 29.5772 15.336 29.0132 15.744C28.4492 16.14 28.1672 16.686 28.1672 17.382C28.1672 18.09 28.4492 18.654 29.0132 19.074C29.5772 19.482 30.3572 19.686 31.3532 19.686ZM45.7272 14.394C46.4472 14.67 46.9992 15.066 47.3832 15.582C47.7672 16.098 47.9592 16.716 47.9592 17.436C47.9592 18.192 47.7552 18.852 47.3472 19.416C46.9392 19.968 46.3572 20.394 45.6012 20.694C44.8452 20.994 43.9572 21.144 42.9372 21.144C41.9292 21.144 41.0472 20.994 40.2912 20.694C39.5472 20.394 38.9712 19.968 38.5632 19.416C38.1552 18.852 37.9512 18.192 37.9512 17.436C37.9512 16.716 38.1372 16.098 38.5092 15.582C38.8932 15.066 39.4452 14.67 40.1652 14.394C39.5892 14.118 39.1512 13.752 38.8512 13.296C38.5512 12.84 38.4012 12.3 38.4012 11.676C38.4012 10.98 38.5872 10.374 38.9592 9.858C39.3432 9.342 39.8772 8.946 40.5612 8.67C41.2452 8.394 42.0372 8.256 42.9372 8.256C43.8492 8.256 44.6472 8.394 45.3312 8.67C46.0272 8.946 46.5612 9.342 46.9332 9.858C47.3172 10.374 47.5092 10.98 47.5092 11.676C47.5092 12.288 47.3532 12.828 47.0412 13.296C46.7412 13.752 46.3032 14.118 45.7272 14.394ZM42.9372 9.714C42.0852 9.714 41.4132 9.9 40.9212 10.272C40.4292 10.632 40.1832 11.124 40.1832 11.748C40.1832 12.372 40.4232 12.864 40.9032 13.224C41.3952 13.584 42.0732 13.764 42.9372 13.764C43.8132 13.764 44.4972 13.584 44.9892 13.224C45.4932 12.864 45.7452 12.372 45.7452 11.748C45.7452 11.124 45.4872 10.632 44.9712 10.272C44.4672 9.9 43.7892 9.714 42.9372 9.714ZM42.9372 19.686C43.9332 19.686 44.7192 19.482 45.2952 19.074C45.8712 18.654 46.1592 18.09 46.1592 17.382C46.1592 16.686 45.8712 16.14 45.2952 15.744C44.7192 15.336 43.9332 15.132 42.9372 15.132C41.9412 15.132 41.1612 15.336 40.5972 15.744C40.0332 16.14 39.7512 16.686 39.7512 17.382C39.7512 18.09 40.0332 18.654 40.5972 19.074C41.1612 19.482 41.9412 19.686 42.9372 19.686ZM54.7552 21.144C53.7592 21.144 52.8712 20.892 52.0912 20.388C51.3232 19.872 50.7172 19.128 50.2732 18.156C49.8292 17.184 49.6072 16.032 49.6072 14.7C49.6072 13.368 49.8292 12.216 50.2732 11.244C50.7172 10.272 51.3232 9.534 52.0912 9.03C52.8712 8.514 53.7592 8.256 54.7552 8.256C55.7392 8.256 56.6152 8.514 57.3832 9.03C58.1632 9.534 58.7752 10.272 59.2192 11.244C59.6632 12.216 59.8852 13.368 59.8852 14.7C59.8852 16.032 59.6632 17.184 59.2192 18.156C58.7752 19.128 58.1632 19.872 57.3832 20.388C56.6152 20.892 55.7392 21.144 54.7552 21.144ZM54.7552 19.542C55.7632 19.542 56.5672 19.128 57.1672 18.3C57.7792 17.472 58.0852 16.272 58.0852 14.7C58.0852 13.128 57.7792 11.928 57.1672 11.1C56.5672 10.272 55.7632 9.858 54.7552 9.858C53.7352 9.858 52.9192 10.272 52.3072 11.1C51.7072 11.928 51.4072 13.128 51.4072 14.7C51.4072 16.272 51.7072 17.472 52.3072 18.3C52.9192 19.128 53.7352 19.542 54.7552 19.542ZM66.761 21.144C65.765 21.144 64.877 20.892 64.097 20.388C63.329 19.872 62.723 19.128 62.279 18.156C61.835 17.184 61.613 16.032 61.613 14.7C61.613 13.368 61.835 12.216 62.279 11.244C62.723 10.272 63.329 9.534 64.097 9.03C64.877 8.514 65.765 8.256 66.761 8.256C67.745 8.256 68.621 8.514 69.389 9.03C70.169 9.534 70.781 10.272 71.225 11.244C71.669 12.216 71.891 13.368 71.891 14.7C71.891 16.032 71.669 17.184 71.225 18.156C70.781 19.128 70.169 19.872 69.389 20.388C68.621 20.892 67.745 21.144 66.761 21.144ZM66.761 19.542C67.769 19.542 68.573 19.128 69.173 18.3C69.785 17.472 70.091 16.272 70.091 14.7C70.091 13.128 69.785 11.928 69.173 11.1C68.573 10.272 67.769 9.858 66.761 9.858C65.741 9.858 64.925 10.272 64.313 11.1C63.713 11.928 63.413 13.128 63.413 14.7C63.413 16.272 63.713 17.472 64.313 18.3C64.925 19.128 65.741 19.542 66.761 19.542ZM78.7669 21.144C77.7709 21.144 76.8829 20.892 76.1029 20.388C75.3349 19.872 74.7289 19.128 74.2849 18.156C73.8409 17.184 73.6189 16.032 73.6189 14.7C73.6189 13.368 73.8409 12.216 74.2849 11.244C74.7289 10.272 75.3349 9.534 76.1029 9.03C76.8829 8.514 77.7709 8.256 78.7669 8.256C79.7509 8.256 80.6269 8.514 81.3949 9.03C82.1749 9.534 82.7869 10.272 83.2309 11.244C83.6749 12.216 83.8969 13.368 83.8969 14.7C83.8969 16.032 83.6749 17.184 83.2309 18.156C82.7869 19.128 82.1749 19.872 81.3949 20.388C80.6269 20.892 79.7509 21.144 78.7669 21.144ZM78.7669 19.542C79.7749 19.542 80.5789 19.128 81.1789 18.3C81.7909 17.472 82.0969 16.272 82.0969 14.7C82.0969 13.128 81.7909 11.928 81.1789 11.1C80.5789 10.272 79.7749 9.858 78.7669 9.858C77.7469 9.858 76.9309 10.272 76.3189 11.1C75.7189 11.928 75.4189 13.128 75.4189 14.7C75.4189 16.272 75.7189 17.472 76.3189 18.3C76.9309 19.128 77.7469 19.542 78.7669 19.542Z" fill="#2F2F2F"/>
</svg>
