<svg width="428" height="194" viewBox="0 0 428 194" fill="none" xmlns="http://www.w3.org/2000/svg">
<path d="M353.624 18.808H364.376V20.704H353.624V18.808ZM353.624 24.496H364.376V26.392H353.624V24.496Z" fill="#2F2F2F"/>
<path d="M310 19.312C309.616 19.312 309.288 19.176 309.016 18.904C308.76 18.616 308.632 18.272 308.632 17.872C308.632 17.456 308.76 17.112 309.016 16.84C309.288 16.568 309.616 16.432 310 16.432C310.4 16.432 310.728 16.568 310.984 16.84C311.256 17.112 311.392 17.456 311.392 17.872C311.392 18.288 311.256 18.632 310.984 18.904C310.728 19.176 310.4 19.312 310 19.312ZM304.624 21.664H315.376V23.56H304.624V21.664ZM310 28.768C309.616 28.768 309.288 28.632 309.016 28.36C308.76 28.072 308.632 27.72 308.632 27.304C308.632 26.904 308.76 26.568 309.016 26.296C309.288 26.024 309.616 25.888 310 25.888C310.4 25.888 310.728 26.024 310.984 26.296C311.256 26.568 311.392 26.904 311.392 27.304C311.392 27.72 311.256 28.072 310.984 28.36C310.728 28.632 310.4 28.768 310 28.768Z" fill="#2F2F2F"/>
<path d="M290.918 15.02V17H281.63V15.434L286.634 10.682C287.198 10.142 287.576 9.674 287.768 9.278C287.972 8.87 288.074 8.468 288.074 8.072C288.074 7.484 287.876 7.034 287.48 6.722C287.084 6.41 286.502 6.254 285.734 6.254C284.45 6.254 283.466 6.692 282.782 7.568L281.144 6.308C281.636 5.648 282.296 5.138 283.124 4.778C283.964 4.406 284.9 4.22 285.932 4.22C287.3 4.22 288.392 4.544 289.208 5.192C290.024 5.84 290.432 6.722 290.432 7.838C290.432 8.522 290.288 9.164 290 9.764C289.712 10.364 289.16 11.048 288.344 11.816L284.978 15.02H290.918Z" fill="#2F2F2F"/>
<line x1="273.5" y1="23.5" x2="299.5" y2="23.5" stroke="#2F2F2F" stroke-linecap="round"/>
<path d="M284.734 35.278C286.51 35.278 287.824 35.626 288.676 36.322C289.528 37.006 289.954 37.942 289.954 39.13C289.954 39.886 289.768 40.57 289.396 41.182C289.024 41.794 288.466 42.28 287.722 42.64C286.978 43 286.06 43.18 284.968 43.18C284.068 43.18 283.198 43.054 282.358 42.802C281.518 42.538 280.81 42.178 280.234 41.722L281.224 39.904C281.692 40.288 282.25 40.594 282.898 40.822C283.558 41.038 284.236 41.146 284.932 41.146C285.76 41.146 286.408 40.978 286.876 40.642C287.356 40.294 287.596 39.82 287.596 39.22C287.596 38.572 287.338 38.086 286.822 37.762C286.318 37.426 285.448 37.258 284.212 37.258H281.17L281.818 30.4H289.216V32.362H283.798L283.528 35.278H284.734Z" fill="#2F2F2F"/>
<path d="M335.156 9.602C336.32 9.746 337.208 10.142 337.82 10.79C338.432 11.438 338.738 12.248 338.738 13.22C338.738 13.952 338.552 14.618 338.18 15.218C337.808 15.818 337.244 16.298 336.488 16.658C335.744 17.006 334.832 17.18 333.752 17.18C332.852 17.18 331.982 17.054 331.142 16.802C330.314 16.538 329.606 16.178 329.018 15.722L330.026 13.904C330.482 14.288 331.034 14.594 331.682 14.822C332.342 15.038 333.02 15.146 333.716 15.146C334.544 15.146 335.192 14.978 335.66 14.642C336.14 14.294 336.38 13.826 336.38 13.238C336.38 12.65 336.152 12.194 335.696 11.87C335.252 11.534 334.568 11.366 333.644 11.366H332.492V9.764L335.354 6.362H329.63V4.4H338.216V5.966L335.156 9.602Z" fill="#2F2F2F"/>
<line x1="321.5" y1="23.5" x2="347.5" y2="23.5" stroke="#2F2F2F" stroke-linecap="round"/>
<path d="M338.296 30.4V31.966L333.4 43H330.898L335.632 32.38H330.682V34.522H328.504V30.4H338.296Z" fill="#2F2F2F"/>
<path d="M376.005 8.13983L422.851 8.01351L422.841 6.01354L375.995 6.13985L376.005 8.13983ZM426.872 12.0027L426.974 32.0026L428.974 31.9972L428.872 11.9973L426.872 12.0027ZM422.995 36.0133L376.149 36.1396L376.159 38.1396L423.005 38.0133L422.995 36.0133ZM372.128 32.1505L372.026 12.1506L370.026 12.156L370.128 32.1559L372.128 32.1505ZM376.149 36.1396C373.94 36.1456 372.14 34.3596 372.128 32.1505L370.128 32.1559C370.146 35.4695 372.846 38.1486 376.159 38.1396L376.149 36.1396ZM426.974 32.0026C426.986 34.2117 425.204 36.0074 422.995 36.0133L423.005 38.0133C426.319 38.0044 428.991 35.3109 428.974 31.9972L426.974 32.0026ZM422.851 8.01351C425.06 8.00755 426.86 9.79356 426.872 12.0027L428.872 11.9973C428.854 8.68361 426.154 6.0046 422.841 6.01354L422.851 8.01351ZM375.995 6.13985C372.681 6.14879 370.009 8.84229 370.026 12.156L372.026 12.1506C372.014 9.94145 373.796 8.14578 376.005 8.13983L375.995 6.13985Z" fill="#2F2F2F"/>
<path d="M353.624 91.808H364.376V93.704H353.624V91.808ZM353.624 97.496H364.376V99.392H353.624V97.496Z" fill="#2F2F2F"/>
<path d="M310 92.312C309.616 92.312 309.288 92.176 309.016 91.904C308.76 91.616 308.632 91.272 308.632 90.872C308.632 90.456 308.76 90.112 309.016 89.84C309.288 89.568 309.616 89.432 310 89.432C310.4 89.432 310.728 89.568 310.984 89.84C311.256 90.112 311.392 90.456 311.392 90.872C311.392 91.288 311.256 91.632 310.984 91.904C310.728 92.176 310.4 92.312 310 92.312ZM304.624 94.664H315.376V96.56H304.624V94.664ZM310 101.768C309.616 101.768 309.288 101.632 309.016 101.36C308.76 101.072 308.632 100.72 308.632 100.304C308.632 99.904 308.76 99.568 309.016 99.296C309.288 99.024 309.616 98.888 310 98.888C310.4 98.888 310.728 99.024 310.984 99.296C311.256 99.568 311.392 99.904 311.392 100.304C311.392 100.72 311.256 101.072 310.984 101.36C310.728 101.632 310.4 101.768 310 101.768Z" fill="#2F2F2F"/>
<path d="M293.024 87.138H290.792V90H288.524V87.138H281.612V85.518L287.822 77.4H290.324L284.474 85.158H288.596V82.62H290.792V85.158H293.024V87.138Z" fill="#2F2F2F"/>
<line x1="273.5" y1="96.5" x2="299.5" y2="96.5" stroke="#2F2F2F" stroke-linecap="round"/>
<path d="M284.734 108.278C286.51 108.278 287.824 108.626 288.676 109.322C289.528 110.006 289.954 110.942 289.954 112.13C289.954 112.886 289.768 113.57 289.396 114.182C289.024 114.794 288.466 115.28 287.722 115.64C286.978 116 286.06 116.18 284.968 116.18C284.068 116.18 283.198 116.054 282.358 115.802C281.518 115.538 280.81 115.178 280.234 114.722L281.224 112.904C281.692 113.288 282.25 113.594 282.898 113.822C283.558 114.038 284.236 114.146 284.932 114.146C285.76 114.146 286.408 113.978 286.876 113.642C287.356 113.294 287.596 112.82 287.596 112.22C287.596 111.572 287.338 111.086 286.822 110.762C286.318 110.426 285.448 110.258 284.212 110.258H281.17L281.818 103.4H289.216V105.362H283.798L283.528 108.278H284.734Z" fill="#2F2F2F"/>
<path d="M334.148 77.4V90H331.808V79.362H329.144V77.4H334.148Z" fill="#2F2F2F"/>
<line x1="321.5" y1="96.5" x2="347.5" y2="96.5" stroke="#2F2F2F" stroke-linecap="round"/>
<path d="M337.918 114.02V116H328.63V114.434L333.634 109.682C334.198 109.142 334.576 108.674 334.768 108.278C334.972 107.87 335.074 107.468 335.074 107.072C335.074 106.484 334.876 106.034 334.48 105.722C334.084 105.41 333.502 105.254 332.734 105.254C331.45 105.254 330.466 105.692 329.782 106.568L328.144 105.308C328.636 104.648 329.296 104.138 330.124 103.778C330.964 103.406 331.9 103.22 332.932 103.22C334.3 103.22 335.392 103.544 336.208 104.192C337.024 104.84 337.432 105.722 337.432 106.838C337.432 107.522 337.288 108.164 337 108.764C336.712 109.364 336.16 110.048 335.344 110.816L331.978 114.02H337.918Z" fill="#2F2F2F"/>
<path d="M376.005 81.1398L422.851 81.0135L422.841 79.0135L375.995 79.1399L376.005 81.1398ZM426.872 85.0027L426.974 105.003L428.974 104.997L428.872 84.9973L426.872 85.0027ZM422.995 109.013L376.149 109.14L376.159 111.14L423.005 111.013L422.995 109.013ZM372.128 105.15L372.026 85.1506L370.026 85.156L370.128 105.156L372.128 105.15ZM376.149 109.14C373.94 109.146 372.14 107.36 372.128 105.15L370.128 105.156C370.146 108.47 372.846 111.149 376.159 111.14L376.149 109.14ZM426.974 105.003C426.986 107.212 425.204 109.007 422.995 109.013L423.005 111.013C426.319 111.004 428.991 108.311 428.974 104.997L426.974 105.003ZM422.851 81.0135C425.06 81.0076 426.86 82.7936 426.872 85.0027L428.872 84.9973C428.854 81.6836 426.154 79.0046 422.841 79.0135L422.851 81.0135ZM375.995 79.1399C372.681 79.1488 370.009 81.8423 370.026 85.156L372.026 85.1506C372.014 82.9414 373.796 81.1458 376.005 81.1398L375.995 79.1399Z" fill="#2F2F2F"/>
<path d="M353.624 164.808H364.376V166.704H353.624V164.808ZM353.624 170.496H364.376V172.392H353.624V170.496Z" fill="#2F2F2F"/>
<path d="M310 165.312C309.616 165.312 309.288 165.176 309.016 164.904C308.76 164.616 308.632 164.272 308.632 163.872C308.632 163.456 308.76 163.112 309.016 162.84C309.288 162.568 309.616 162.432 310 162.432C310.4 162.432 310.728 162.568 310.984 162.84C311.256 163.112 311.392 163.456 311.392 163.872C311.392 164.288 311.256 164.632 310.984 164.904C310.728 165.176 310.4 165.312 310 165.312ZM304.624 167.664H315.376V169.56H304.624V167.664ZM310 174.768C309.616 174.768 309.288 174.632 309.016 174.36C308.76 174.072 308.632 173.72 308.632 173.304C308.632 172.904 308.76 172.568 309.016 172.296C309.288 172.024 309.616 171.888 310 171.888C310.4 171.888 310.728 172.024 310.984 172.296C311.256 172.568 311.392 172.904 311.392 173.304C311.392 173.72 311.256 174.072 310.984 174.36C310.728 174.632 310.4 174.768 310 174.768Z" fill="#2F2F2F"/>
<path d="M286.148 150.4V163H283.808V152.362H281.144V150.4H286.148Z" fill="#2F2F2F"/>
<line x1="273.5" y1="169.5" x2="299.5" y2="169.5" stroke="#2F2F2F" stroke-linecap="round"/>
<path d="M289.918 187.02V189H280.63V187.434L285.634 182.682C286.198 182.142 286.576 181.674 286.768 181.278C286.972 180.87 287.074 180.468 287.074 180.072C287.074 179.484 286.876 179.034 286.48 178.722C286.084 178.41 285.502 178.254 284.734 178.254C283.45 178.254 282.466 178.692 281.782 179.568L280.144 178.308C280.636 177.648 281.296 177.138 282.124 176.778C282.964 176.406 283.9 176.22 284.932 176.22C286.3 176.22 287.392 176.544 288.208 177.192C289.024 177.84 289.432 178.722 289.432 179.838C289.432 180.522 289.288 181.164 289 181.764C288.712 182.364 288.16 183.048 287.344 183.816L283.978 187.02H289.918Z" fill="#2F2F2F"/>
<path d="M335.156 155.602C336.32 155.746 337.208 156.142 337.82 156.79C338.432 157.438 338.738 158.248 338.738 159.22C338.738 159.952 338.552 160.618 338.18 161.218C337.808 161.818 337.244 162.298 336.488 162.658C335.744 163.006 334.832 163.18 333.752 163.18C332.852 163.18 331.982 163.054 331.142 162.802C330.314 162.538 329.606 162.178 329.018 161.722L330.026 159.904C330.482 160.288 331.034 160.594 331.682 160.822C332.342 161.038 333.02 161.146 333.716 161.146C334.544 161.146 335.192 160.978 335.66 160.642C336.14 160.294 336.38 159.826 336.38 159.238C336.38 158.65 336.152 158.194 335.696 157.87C335.252 157.534 334.568 157.366 333.644 157.366H332.492V155.764L335.354 152.362H329.63V150.4H338.216V151.966L335.156 155.602Z" fill="#2F2F2F"/>
<line x1="321.5" y1="169.5" x2="347.5" y2="169.5" stroke="#2F2F2F" stroke-linecap="round"/>
<path d="M332.734 181.278C334.51 181.278 335.824 181.626 336.676 182.322C337.528 183.006 337.954 183.942 337.954 185.13C337.954 185.886 337.768 186.57 337.396 187.182C337.024 187.794 336.466 188.28 335.722 188.64C334.978 189 334.06 189.18 332.968 189.18C332.068 189.18 331.198 189.054 330.358 188.802C329.518 188.538 328.81 188.178 328.234 187.722L329.224 185.904C329.692 186.288 330.25 186.594 330.898 186.822C331.558 187.038 332.236 187.146 332.932 187.146C333.76 187.146 334.408 186.978 334.876 186.642C335.356 186.294 335.596 185.82 335.596 185.22C335.596 184.572 335.338 184.086 334.822 183.762C334.318 183.426 333.448 183.258 332.212 183.258H329.17L329.818 176.4H337.216V178.362H331.798L331.528 181.278H332.734Z" fill="#2F2F2F"/>
<path d="M376.005 154.14L422.851 154.014L422.841 152.014L375.995 152.14L376.005 154.14ZM426.872 158.003L426.974 178.003L428.974 177.997L428.872 157.997L426.872 158.003ZM422.995 182.013L376.149 182.14L376.159 184.14L423.005 184.013L422.995 182.013ZM372.128 178.15L372.026 158.151L370.026 158.156L370.128 178.156L372.128 178.15ZM376.149 182.14C373.94 182.146 372.14 180.36 372.128 178.15L370.128 178.156C370.146 181.47 372.846 184.149 376.159 184.14L376.149 182.14ZM426.974 178.003C426.986 180.212 425.204 182.007 422.995 182.013L423.005 184.013C426.319 184.004 428.991 181.311 428.974 177.997L426.974 178.003ZM422.851 154.014C425.06 154.008 426.86 155.794 426.872 158.003L428.872 157.997C428.854 154.684 426.154 152.005 422.841 152.014L422.851 154.014ZM375.995 152.14C372.681 152.149 370.009 154.842 370.026 158.156L372.026 158.151C372.014 155.941 373.796 154.146 376.005 154.14L375.995 152.14Z" fill="#2F2F2F"/>
<path d="M80.6236 18.808H91.3756V20.704H80.6236V18.808ZM80.6236 24.496H91.3756V26.392H80.6236V24.496Z" fill="#2F2F2F"/>
<path d="M37.4785 17.252C36.9985 17.252 36.5905 17.084 36.2545 16.748C35.9425 16.412 35.7865 16.004 35.7865 15.524C35.7865 15.02 35.9425 14.6 36.2545 14.264C36.5905 13.928 36.9985 13.76 37.4785 13.76C37.9825 13.76 38.3905 13.928 38.7025 14.264C39.0385 14.576 39.2065 14.996 39.2065 15.524C39.2065 16.004 39.0385 16.412 38.7025 16.748C38.3665 17.084 37.9585 17.252 37.4785 17.252ZM29.6665 21.356H45.3265V23.48H29.6665V21.356ZM37.4785 31.04C36.9985 31.04 36.5905 30.872 36.2545 30.536C35.9425 30.2 35.7865 29.78 35.7865 29.276C35.7865 28.772 35.9425 28.364 36.2545 28.052C36.5905 27.716 36.9985 27.548 37.4785 27.548C37.9585 27.548 38.3665 27.716 38.7025 28.052C39.0385 28.364 39.2065 28.772 39.2065 29.276C39.2065 29.78 39.0385 30.2 38.7025 30.536C38.3665 30.872 37.9585 31.04 37.4785 31.04Z" fill="#2F2F2F"/>
<path d="M13.148 4.4V17H10.808V6.362H8.144V4.4H13.148Z" fill="#2F2F2F"/>
<line x1="0.5" y1="23.5" x2="26.5" y2="23.5" stroke="#2F2F2F" stroke-linecap="round"/>
<path d="M16.918 41.02V43H7.63V41.434L12.634 36.682C13.198 36.142 13.576 35.674 13.768 35.278C13.972 34.87 14.074 34.468 14.074 34.072C14.074 33.484 13.876 33.034 13.48 32.722C13.084 32.41 12.502 32.254 11.734 32.254C10.45 32.254 9.466 32.692 8.782 33.568L7.144 32.308C7.636 31.648 8.296 31.138 9.124 30.778C9.964 30.406 10.9 30.22 11.932 30.22C13.3 30.22 14.392 30.544 15.208 31.192C16.024 31.84 16.432 32.722 16.432 33.838C16.432 34.522 16.288 35.164 16 35.764C15.712 36.364 15.16 37.048 14.344 37.816L10.978 41.02H16.918Z" fill="#2F2F2F"/>
<path d="M62.156 9.602C63.32 9.746 64.208 10.142 64.82 10.79C65.432 11.438 65.738 12.248 65.738 13.22C65.738 13.952 65.552 14.618 65.18 15.218C64.808 15.818 64.244 16.298 63.488 16.658C62.744 17.006 61.832 17.18 60.752 17.18C59.852 17.18 58.982 17.054 58.142 16.802C57.314 16.538 56.606 16.178 56.018 15.722L57.026 13.904C57.482 14.288 58.034 14.594 58.682 14.822C59.342 15.038 60.02 15.146 60.716 15.146C61.544 15.146 62.192 14.978 62.66 14.642C63.14 14.294 63.38 13.826 63.38 13.238C63.38 12.65 63.152 12.194 62.696 11.87C62.252 11.534 61.568 11.366 60.644 11.366H59.492V9.764L62.354 6.362H56.63V4.4H65.216V5.966L62.156 9.602Z" fill="#2F2F2F"/>
<line x1="48.5" y1="23.5" x2="74.5" y2="23.5" stroke="#2F2F2F" stroke-linecap="round"/>
<path d="M61.516 35.224C62.344 35.224 63.088 35.386 63.748 35.71C64.408 36.022 64.924 36.472 65.296 37.06C65.668 37.648 65.854 38.326 65.854 39.094C65.854 39.91 65.65 40.63 65.242 41.254C64.834 41.866 64.282 42.34 63.586 42.676C62.89 43.012 62.11 43.18 61.246 43.18C59.518 43.18 58.174 42.64 57.214 41.56C56.266 40.48 55.792 38.932 55.792 36.916C55.792 35.5 56.05 34.294 56.566 33.298C57.082 32.29 57.802 31.528 58.726 31.012C59.662 30.484 60.742 30.22 61.966 30.22C62.614 30.22 63.22 30.292 63.784 30.436C64.36 30.568 64.858 30.766 65.278 31.03L64.414 32.794C63.79 32.386 62.992 32.182 62.02 32.182C60.808 32.182 59.86 32.554 59.176 33.298C58.492 34.042 58.15 35.116 58.15 36.52V36.538C58.522 36.106 58.996 35.782 59.572 35.566C60.148 35.338 60.796 35.224 61.516 35.224ZM61.12 41.344C61.852 41.344 62.446 41.152 62.902 40.768C63.358 40.372 63.586 39.85 63.586 39.202C63.586 38.542 63.358 38.02 62.902 37.636C62.446 37.252 61.834 37.06 61.066 37.06C60.31 37.06 59.692 37.264 59.212 37.672C58.744 38.08 58.51 38.596 58.51 39.22C58.51 39.832 58.738 40.342 59.194 40.75C59.662 41.146 60.304 41.344 61.12 41.344Z" fill="#2F2F2F"/>
<path d="M103.005 8.13983L149.851 8.01351L149.841 6.01354L102.995 6.13985L103.005 8.13983ZM153.872 12.0027L153.974 32.0026L155.974 31.9972L155.872 11.9973L153.872 12.0027ZM149.995 36.0133L103.149 36.1396L103.159 38.1396L150.005 38.0133L149.995 36.0133ZM99.1285 32.1505L99.0257 12.1506L97.0257 12.156L97.1285 32.1559L99.1285 32.1505ZM103.149 36.1396C100.94 36.1456 99.1398 34.3596 99.1285 32.1505L97.1285 32.1559C97.1455 35.4695 99.8456 38.1486 103.159 38.1396L103.149 36.1396ZM153.974 32.0026C153.986 34.2117 152.204 36.0074 149.995 36.0133L150.005 38.0133C153.319 38.0044 155.991 35.3109 155.974 31.9972L153.974 32.0026ZM149.851 8.01351C152.06 8.00755 153.86 9.79356 153.872 12.0027L155.872 11.9973C155.854 8.68361 153.154 6.0046 149.841 6.01354L149.851 8.01351ZM102.995 6.13985C99.6811 6.14879 97.0087 8.84229 97.0257 12.156L99.0257 12.1506C99.0143 9.94145 100.796 8.14578 103.005 8.13983L102.995 6.13985Z" fill="#2F2F2F"/>
<path d="M80.6236 91.808H91.3756V93.704H80.6236V91.808ZM80.6236 97.496H91.3756V99.392H80.6236V97.496Z" fill="#2F2F2F"/>
<path d="M36.9996 92.312C36.6156 92.312 36.2876 92.176 36.0156 91.904C35.7596 91.616 35.6316 91.272 35.6316 90.872C35.6316 90.456 35.7596 90.112 36.0156 89.84C36.2876 89.568 36.6156 89.432 36.9996 89.432C37.3996 89.432 37.7276 89.568 37.9836 89.84C38.2556 90.112 38.3916 90.456 38.3916 90.872C38.3916 91.288 38.2556 91.632 37.9836 91.904C37.7276 92.176 37.3996 92.312 36.9996 92.312ZM31.6236 94.664H42.3756V96.56H31.6236V94.664ZM36.9996 101.768C36.6156 101.768 36.2876 101.632 36.0156 101.36C35.7596 101.072 35.6316 100.72 35.6316 100.304C35.6316 99.904 35.7596 99.568 36.0156 99.296C36.2876 99.024 36.6156 98.888 36.9996 98.888C37.3996 98.888 37.7276 99.024 37.9836 99.296C38.2556 99.568 38.3916 99.904 38.3916 100.304C38.3916 100.72 38.2556 101.072 37.9836 101.36C37.7276 101.632 37.3996 101.768 36.9996 101.768Z" fill="#2F2F2F"/>
<path d="M12.734 82.278C14.51 82.278 15.824 82.626 16.676 83.322C17.528 84.006 17.954 84.942 17.954 86.13C17.954 86.886 17.768 87.57 17.396 88.182C17.024 88.794 16.466 89.28 15.722 89.64C14.978 90 14.06 90.18 12.968 90.18C12.068 90.18 11.198 90.054 10.358 89.802C9.518 89.538 8.81 89.178 8.234 88.722L9.224 86.904C9.692 87.288 10.25 87.594 10.898 87.822C11.558 88.038 12.236 88.146 12.932 88.146C13.76 88.146 14.408 87.978 14.876 87.642C15.356 87.294 15.596 86.82 15.596 86.22C15.596 85.572 15.338 85.086 14.822 84.762C14.318 84.426 13.448 84.258 12.212 84.258H9.17L9.818 77.4H17.216V79.362H11.798L11.528 82.278H12.734Z" fill="#2F2F2F"/>
<line x1="0.5" y1="96.5" x2="26.5" y2="96.5" stroke="#2F2F2F" stroke-linecap="round"/>
<path d="M17.296 103.4V104.966L12.4 116H9.898L14.632 105.38H9.682V107.522H7.504V103.4H17.296Z" fill="#2F2F2F"/>
<path d="M62.156 82.602C63.32 82.746 64.208 83.142 64.82 83.79C65.432 84.438 65.738 85.248 65.738 86.22C65.738 86.952 65.552 87.618 65.18 88.218C64.808 88.818 64.244 89.298 63.488 89.658C62.744 90.006 61.832 90.18 60.752 90.18C59.852 90.18 58.982 90.054 58.142 89.802C57.314 89.538 56.606 89.178 56.018 88.722L57.026 86.904C57.482 87.288 58.034 87.594 58.682 87.822C59.342 88.038 60.02 88.146 60.716 88.146C61.544 88.146 62.192 87.978 62.66 87.642C63.14 87.294 63.38 86.826 63.38 86.238C63.38 85.65 63.152 85.194 62.696 84.87C62.252 84.534 61.568 84.366 60.644 84.366H59.492V82.764L62.354 79.362H56.63V77.4H65.216V78.966L62.156 82.602Z" fill="#2F2F2F"/>
<line x1="48.5" y1="96.5" x2="74.5" y2="96.5" stroke="#2F2F2F" stroke-linecap="round"/>
<path d="M67.024 113.138H64.792V116H62.524V113.138H55.612V111.518L61.822 103.4H64.324L58.474 111.158H62.596V108.62H64.792V111.158H67.024V113.138Z" fill="#2F2F2F"/>
<path d="M103.005 81.1398L149.851 81.0135L149.841 79.0135L102.995 79.1399L103.005 81.1398ZM153.872 85.0027L153.974 105.003L155.974 104.997L155.872 84.9973L153.872 85.0027ZM149.995 109.013L103.149 109.14L103.159 111.14L150.005 111.013L149.995 109.013ZM99.1285 105.15L99.0257 85.1506L97.0257 85.156L97.1285 105.156L99.1285 105.15ZM103.149 109.14C100.94 109.146 99.1398 107.36 99.1285 105.15L97.1285 105.156C97.1455 108.47 99.8456 111.149 103.159 111.14L103.149 109.14ZM153.974 105.003C153.986 107.212 152.204 109.007 149.995 109.013L150.005 111.013C153.319 111.004 155.991 108.311 155.974 104.997L153.974 105.003ZM149.851 81.0135C152.06 81.0076 153.86 82.7936 153.872 85.0027L155.872 84.9973C155.854 81.6836 153.154 79.0046 149.841 79.0135L149.851 81.0135ZM102.995 79.1399C99.6811 79.1488 97.0087 81.8423 97.0257 85.156L99.0257 85.1506C99.0143 82.9414 100.796 81.1458 103.005 81.1398L102.995 79.1399Z" fill="#2F2F2F"/>
<path d="M80.6236 164.808H91.3756V166.704H80.6236V164.808ZM80.6236 170.496H91.3756V172.392H80.6236V170.496Z" fill="#2F2F2F"/>
<path d="M36.9996 165.312C36.6156 165.312 36.2876 165.176 36.0156 164.904C35.7596 164.616 35.6316 164.272 35.6316 163.872C35.6316 163.456 35.7596 163.112 36.0156 162.84C36.2876 162.568 36.6156 162.432 36.9996 162.432C37.3996 162.432 37.7276 162.568 37.9836 162.84C38.2556 163.112 38.3916 163.456 38.3916 163.872C38.3916 164.288 38.2556 164.632 37.9836 164.904C37.7276 165.176 37.3996 165.312 36.9996 165.312ZM31.6236 167.664H42.3756V169.56H31.6236V167.664ZM36.9996 174.768C36.6156 174.768 36.2876 174.632 36.0156 174.36C35.7596 174.072 35.6316 173.72 35.6316 173.304C35.6316 172.904 35.7596 172.568 36.0156 172.296C36.2876 172.024 36.6156 171.888 36.9996 171.888C37.3996 171.888 37.7276 172.024 37.9836 172.296C38.2556 172.568 38.3916 172.904 38.3916 173.304C38.3916 173.72 38.2556 174.072 37.9836 174.36C37.7276 174.632 37.3996 174.768 36.9996 174.768Z" fill="#2F2F2F"/>
<path d="M13.148 150.4V163H10.808V152.362H8.144V150.4H13.148Z" fill="#2F2F2F"/>
<line x1="0.5" y1="169.5" x2="26.5" y2="169.5" stroke="#2F2F2F" stroke-linecap="round"/>
<path d="M11.734 181.278C13.51 181.278 14.824 181.626 15.676 182.322C16.528 183.006 16.954 183.942 16.954 185.13C16.954 185.886 16.768 186.57 16.396 187.182C16.024 187.794 15.466 188.28 14.722 188.64C13.978 189 13.06 189.18 11.968 189.18C11.068 189.18 10.198 189.054 9.358 188.802C8.518 188.538 7.81 188.178 7.234 187.722L8.224 185.904C8.692 186.288 9.25 186.594 9.898 186.822C10.558 187.038 11.236 187.146 11.932 187.146C12.76 187.146 13.408 186.978 13.876 186.642C14.356 186.294 14.596 185.82 14.596 185.22C14.596 184.572 14.338 184.086 13.822 183.762C13.318 183.426 12.448 183.258 11.212 183.258H8.17L8.818 176.4H16.216V178.362H10.798L10.528 181.278H11.734Z" fill="#2F2F2F"/>
<path d="M65.918 161.02V163H56.63V161.434L61.634 156.682C62.198 156.142 62.576 155.674 62.768 155.278C62.972 154.87 63.074 154.468 63.074 154.072C63.074 153.484 62.876 153.034 62.48 152.722C62.084 152.41 61.502 152.254 60.734 152.254C59.45 152.254 58.466 152.692 57.782 153.568L56.144 152.308C56.636 151.648 57.296 151.138 58.124 150.778C58.964 150.406 59.9 150.22 60.932 150.22C62.3 150.22 63.392 150.544 64.208 151.192C65.024 151.84 65.432 152.722 65.432 153.838C65.432 154.522 65.288 155.164 65 155.764C64.712 156.364 64.16 157.048 63.344 157.816L59.978 161.02H65.918Z" fill="#2F2F2F"/>
<line x1="48.5" y1="169.5" x2="74.5" y2="169.5" stroke="#2F2F2F" stroke-linecap="round"/>
<path d="M61.156 181.602C62.32 181.746 63.208 182.142 63.82 182.79C64.432 183.438 64.738 184.248 64.738 185.22C64.738 185.952 64.552 186.618 64.18 187.218C63.808 187.818 63.244 188.298 62.488 188.658C61.744 189.006 60.832 189.18 59.752 189.18C58.852 189.18 57.982 189.054 57.142 188.802C56.314 188.538 55.606 188.178 55.018 187.722L56.026 185.904C56.482 186.288 57.034 186.594 57.682 186.822C58.342 187.038 59.02 187.146 59.716 187.146C60.544 187.146 61.192 186.978 61.66 186.642C62.14 186.294 62.38 185.826 62.38 185.238C62.38 184.65 62.152 184.194 61.696 183.87C61.252 183.534 60.568 183.366 59.644 183.366H58.492V181.764L61.354 178.362H55.63V176.4H64.216V177.966L61.156 181.602Z" fill="#2F2F2F"/>
<path d="M103.005 154.14L149.851 154.014L149.841 152.014L102.995 152.14L103.005 154.14ZM153.872 158.003L153.974 178.003L155.974 177.997L155.872 157.997L153.872 158.003ZM149.995 182.013L103.149 182.14L103.159 184.14L150.005 184.013L149.995 182.013ZM99.1285 178.15L99.0257 158.151L97.0257 158.156L97.1285 178.156L99.1285 178.15ZM103.149 182.14C100.94 182.146 99.1398 180.36 99.1285 178.15L97.1285 178.156C97.1455 181.47 99.8456 184.149 103.159 184.14L103.149 182.14ZM153.974 178.003C153.986 180.212 152.204 182.007 149.995 182.013L150.005 184.013C153.319 184.004 155.991 181.311 155.974 177.997L153.974 178.003ZM149.851 154.014C152.06 154.008 153.86 155.794 153.872 158.003L155.872 157.997C155.854 154.684 153.154 152.005 149.841 152.014L149.851 154.014ZM102.995 152.14C99.6811 152.149 97.0087 154.842 97.0257 158.156L99.0257 158.151C99.0143 155.941 100.796 154.146 103.005 154.14L102.995 152.14Z" fill="#2F2F2F"/>
<path d="M128.108 15.4V28H126.326V16.966H123.482V15.4H128.108Z" fill="#2F2F2F"/>
<path d="M108.336 99.434V101H99.2823V99.776L104.412 94.826C105.036 94.226 105.456 93.71 105.672 93.278C105.888 92.834 105.996 92.39 105.996 91.946C105.996 91.286 105.762 90.776 105.294 90.416C104.838 90.044 104.178 89.858 103.314 89.858C101.922 89.858 100.848 90.314 100.092 91.226L98.8683 90.164C99.3603 89.564 100.002 89.096 100.794 88.76C101.598 88.424 102.492 88.256 103.476 88.256C104.796 88.256 105.846 88.574 106.626 89.21C107.406 89.834 107.796 90.686 107.796 91.766C107.796 92.438 107.652 93.074 107.364 93.674C107.076 94.274 106.53 94.958 105.726 95.726L101.874 99.434H108.336ZM116.442 101.144C115.446 101.144 114.558 100.892 113.778 100.388C113.01 99.872 112.404 99.128 111.96 98.156C111.516 97.184 111.294 96.032 111.294 94.7C111.294 93.368 111.516 92.216 111.96 91.244C112.404 90.272 113.01 89.534 113.778 89.03C114.558 88.514 115.446 88.256 116.442 88.256C117.426 88.256 118.302 88.514 119.07 89.03C119.85 89.534 120.462 90.272 120.906 91.244C121.35 92.216 121.572 93.368 121.572 94.7C121.572 96.032 121.35 97.184 120.906 98.156C120.462 99.128 119.85 99.872 119.07 100.388C118.302 100.892 117.426 101.144 116.442 101.144ZM116.442 99.542C117.45 99.542 118.254 99.128 118.854 98.3C119.466 97.472 119.772 96.272 119.772 94.7C119.772 93.128 119.466 91.928 118.854 91.1C118.254 90.272 117.45 89.858 116.442 89.858C115.422 89.858 114.606 90.272 113.994 91.1C113.394 91.928 113.094 93.128 113.094 94.7C113.094 96.272 113.394 97.472 113.994 98.3C114.606 99.128 115.422 99.542 116.442 99.542ZM129.05 85.844H130.616L124.676 102.8H123.11L129.05 85.844ZM141.192 99.434V101H132.138V99.776L137.268 94.826C137.892 94.226 138.312 93.71 138.528 93.278C138.744 92.834 138.852 92.39 138.852 91.946C138.852 91.286 138.618 90.776 138.15 90.416C137.694 90.044 137.034 89.858 136.17 89.858C134.778 89.858 133.704 90.314 132.948 91.226L131.724 90.164C132.216 89.564 132.858 89.096 133.65 88.76C134.454 88.424 135.348 88.256 136.332 88.256C137.652 88.256 138.702 88.574 139.482 89.21C140.262 89.834 140.652 90.686 140.652 91.766C140.652 92.438 140.508 93.074 140.22 93.674C139.932 94.274 139.386 94.958 138.582 95.726L134.73 99.434H141.192ZM148.108 88.4V101H146.326V89.966H143.482V88.4H148.108Z" fill="#2F2F2F"/>
<path d="M113.256 168.692C114.492 168.812 115.434 169.196 116.082 169.844C116.73 170.48 117.054 171.296 117.054 172.292C117.054 173.012 116.874 173.666 116.514 174.254C116.154 174.83 115.614 175.292 114.894 175.64C114.186 175.976 113.316 176.144 112.284 176.144C111.384 176.144 110.52 176.012 109.692 175.748C108.864 175.472 108.186 175.094 107.658 174.614L108.486 173.192C108.918 173.6 109.47 173.93 110.142 174.182C110.814 174.422 111.528 174.542 112.284 174.542C113.22 174.542 113.946 174.344 114.462 173.948C114.99 173.552 115.254 173.006 115.254 172.31C115.254 171.614 114.996 171.074 114.48 170.69C113.964 170.306 113.184 170.114 112.14 170.114H111.132V168.854L114.3 164.966H108.234V163.4H116.55V164.624L113.256 168.692ZM124.835 160.844H126.401L120.461 177.8H118.895L124.835 160.844ZM132.572 163.4V176H130.79V164.966H127.946V163.4H132.572ZM142.006 176.144C141.01 176.144 140.122 175.892 139.342 175.388C138.574 174.872 137.968 174.128 137.524 173.156C137.08 172.184 136.858 171.032 136.858 169.7C136.858 168.368 137.08 167.216 137.524 166.244C137.968 165.272 138.574 164.534 139.342 164.03C140.122 163.514 141.01 163.256 142.006 163.256C142.99 163.256 143.866 163.514 144.634 164.03C145.414 164.534 146.026 165.272 146.47 166.244C146.914 167.216 147.136 168.368 147.136 169.7C147.136 171.032 146.914 172.184 146.47 173.156C146.026 174.128 145.414 174.872 144.634 175.388C143.866 175.892 142.99 176.144 142.006 176.144ZM142.006 174.542C143.014 174.542 143.818 174.128 144.418 173.3C145.03 172.472 145.336 171.272 145.336 169.7C145.336 168.128 145.03 166.928 144.418 166.1C143.818 165.272 143.014 164.858 142.006 164.858C140.986 164.858 140.17 165.272 139.558 166.1C138.958 166.928 138.658 168.128 138.658 169.7C138.658 171.272 138.958 172.472 139.558 173.3C140.17 174.128 140.986 174.542 142.006 174.542Z" fill="#2F2F2F"/>
<path d="M379.584 15.4V28H377.802V16.966H374.958V15.4H379.584ZM394.832 24.904H392.438V28H390.692V24.904H383.69V23.644L390.134 15.4H392.078L385.904 23.356H390.746V20.62H392.438V23.356H394.832V24.904ZM402.505 12.844H404.071L398.131 29.8H396.565L402.505 12.844ZM410.242 15.4V28H408.46V16.966H405.616V15.4H410.242ZM418.128 20.422C419.928 20.422 421.248 20.764 422.088 21.448C422.94 22.12 423.366 23.044 423.366 24.22C423.366 24.964 423.186 25.636 422.826 26.236C422.478 26.824 421.944 27.292 421.224 27.64C420.516 27.976 419.64 28.144 418.596 28.144C417.708 28.144 416.85 28.012 416.022 27.748C415.194 27.472 414.51 27.094 413.97 26.614L414.798 25.192C415.23 25.6 415.782 25.93 416.454 26.182C417.126 26.422 417.834 26.542 418.578 26.542C419.526 26.542 420.258 26.344 420.774 25.948C421.302 25.54 421.566 24.988 421.566 24.292C421.566 23.536 421.278 22.966 420.702 22.582C420.126 22.186 419.142 21.988 417.75 21.988H414.888L415.554 15.4H422.664V16.966H417.066L416.724 20.422H418.128Z" fill="#2F2F2F"/>
<path d="M392.26 94.394C392.98 94.67 393.532 95.066 393.916 95.582C394.3 96.098 394.492 96.716 394.492 97.436C394.492 98.192 394.288 98.852 393.88 99.416C393.472 99.968 392.89 100.394 392.134 100.694C391.378 100.994 390.49 101.144 389.47 101.144C388.462 101.144 387.58 100.994 386.824 100.694C386.08 100.394 385.504 99.968 385.096 99.416C384.688 98.852 384.484 98.192 384.484 97.436C384.484 96.716 384.67 96.098 385.042 95.582C385.426 95.066 385.978 94.67 386.698 94.394C386.122 94.118 385.684 93.752 385.384 93.296C385.084 92.84 384.934 92.3 384.934 91.676C384.934 90.98 385.12 90.374 385.492 89.858C385.876 89.342 386.41 88.946 387.094 88.67C387.778 88.394 388.57 88.256 389.47 88.256C390.382 88.256 391.18 88.394 391.864 88.67C392.56 88.946 393.094 89.342 393.466 89.858C393.85 90.374 394.042 90.98 394.042 91.676C394.042 92.288 393.886 92.828 393.574 93.296C393.274 93.752 392.836 94.118 392.26 94.394ZM389.47 89.714C388.618 89.714 387.946 89.9 387.454 90.272C386.962 90.632 386.716 91.124 386.716 91.748C386.716 92.372 386.956 92.864 387.436 93.224C387.928 93.584 388.606 93.764 389.47 93.764C390.346 93.764 391.03 93.584 391.522 93.224C392.026 92.864 392.278 92.372 392.278 91.748C392.278 91.124 392.02 90.632 391.504 90.272C391 89.9 390.322 89.714 389.47 89.714ZM389.47 99.686C390.466 99.686 391.252 99.482 391.828 99.074C392.404 98.654 392.692 98.09 392.692 97.382C392.692 96.686 392.404 96.14 391.828 95.744C391.252 95.336 390.466 95.132 389.47 95.132C388.474 95.132 387.694 95.336 387.13 95.744C386.566 96.14 386.284 96.686 386.284 97.382C386.284 98.09 386.566 98.654 387.13 99.074C387.694 99.482 388.474 99.686 389.47 99.686ZM402.242 85.844H403.808L397.868 102.8H396.302L402.242 85.844ZM409.128 93.422C410.928 93.422 412.248 93.764 413.088 94.448C413.94 95.12 414.366 96.044 414.366 97.22C414.366 97.964 414.186 98.636 413.826 99.236C413.478 99.824 412.944 100.292 412.224 100.64C411.516 100.976 410.64 101.144 409.596 101.144C408.708 101.144 407.85 101.012 407.022 100.748C406.194 100.472 405.51 100.094 404.97 99.614L405.798 98.192C406.23 98.6 406.782 98.93 407.454 99.182C408.126 99.422 408.834 99.542 409.578 99.542C410.526 99.542 411.258 99.344 411.774 98.948C412.302 98.54 412.566 97.988 412.566 97.292C412.566 96.536 412.278 95.966 411.702 95.582C411.126 95.186 410.142 94.988 408.75 94.988H405.888L406.554 88.4H413.664V89.966H408.066L407.724 93.422H409.128Z" fill="#2F2F2F"/>
<path d="M388.982 166.422C390.782 166.422 392.102 166.764 392.942 167.448C393.794 168.12 394.22 169.044 394.22 170.22C394.22 170.964 394.04 171.636 393.68 172.236C393.332 172.824 392.798 173.292 392.078 173.64C391.37 173.976 390.494 174.144 389.45 174.144C388.562 174.144 387.704 174.012 386.876 173.748C386.048 173.472 385.364 173.094 384.824 172.614L385.652 171.192C386.084 171.6 386.636 171.93 387.308 172.182C387.98 172.422 388.688 172.542 389.432 172.542C390.38 172.542 391.112 172.344 391.628 171.948C392.156 171.54 392.42 170.988 392.42 170.292C392.42 169.536 392.132 168.966 391.556 168.582C390.98 168.186 389.996 167.988 388.604 167.988H385.742L386.408 161.4H393.518V162.966H387.92L387.578 166.422H388.982ZM401.82 158.844H403.386L397.446 175.8H395.88L401.82 158.844ZM410.191 166.35C411.019 166.35 411.757 166.506 412.405 166.818C413.065 167.13 413.581 167.58 413.953 168.168C414.325 168.744 414.511 169.41 414.511 170.166C414.511 170.958 414.313 171.654 413.917 172.254C413.533 172.854 412.999 173.322 412.315 173.658C411.643 173.982 410.887 174.144 410.047 174.144C408.355 174.144 407.047 173.598 406.123 172.506C405.211 171.414 404.755 169.866 404.755 167.862C404.755 166.458 405.001 165.264 405.493 164.28C405.997 163.284 406.693 162.534 407.581 162.03C408.481 161.514 409.525 161.256 410.713 161.256C411.325 161.256 411.901 161.322 412.441 161.454C412.981 161.574 413.449 161.754 413.845 161.994L413.161 163.398C412.561 163.002 411.757 162.804 410.749 162.804C409.441 162.804 408.415 163.212 407.671 164.028C406.927 164.832 406.555 166.008 406.555 167.556C406.555 167.748 406.561 167.898 406.573 168.006C406.933 167.466 407.425 167.058 408.049 166.782C408.685 166.494 409.399 166.35 410.191 166.35ZM409.975 172.686C410.803 172.686 411.475 172.464 411.991 172.02C412.507 171.576 412.765 170.982 412.765 170.238C412.765 169.494 412.501 168.906 411.973 168.474C411.457 168.03 410.761 167.808 409.885 167.808C409.321 167.808 408.817 167.916 408.373 168.132C407.941 168.348 407.599 168.642 407.347 169.014C407.107 169.386 406.987 169.8 406.987 170.256C406.987 170.7 407.101 171.108 407.329 171.48C407.569 171.84 407.911 172.134 408.355 172.362C408.811 172.578 409.351 172.686 409.975 172.686Z" fill="#2F2F2F"/>
</svg>
