<svg width="471" height="154" viewBox="0 0 471 154" fill="none" xmlns="http://www.w3.org/2000/svg">
<path d="M9.95945 8.4V21H8.17745V9.966H5.33345V8.4H9.95945ZM20.4196 14.394C21.1396 14.67 21.6916 15.066 22.0756 15.582C22.4596 16.098 22.6516 16.716 22.6516 17.436C22.6516 18.192 22.4476 18.852 22.0396 19.416C21.6316 19.968 21.0496 20.394 20.2936 20.694C19.5376 20.994 18.6496 21.144 17.6296 21.144C16.6216 21.144 15.7396 20.994 14.9836 20.694C14.2396 20.394 13.6636 19.968 13.2556 19.416C12.8476 18.852 12.6436 18.192 12.6436 17.436C12.6436 16.716 12.8296 16.098 13.2016 15.582C13.5856 15.066 14.1376 14.67 14.8576 14.394C14.2816 14.118 13.8436 13.752 13.5436 13.296C13.2436 12.84 13.0936 12.3 13.0936 11.676C13.0936 10.98 13.2796 10.374 13.6516 9.858C14.0356 9.342 14.5696 8.946 15.2536 8.67C15.9376 8.394 16.7296 8.256 17.6296 8.256C18.5416 8.256 19.3396 8.394 20.0236 8.67C20.7196 8.946 21.2536 9.342 21.6256 9.858C22.0096 10.374 22.2016 10.98 22.2016 11.676C22.2016 12.288 22.0456 12.828 21.7336 13.296C21.4336 13.752 20.9956 14.118 20.4196 14.394ZM17.6296 9.714C16.7776 9.714 16.1056 9.9 15.6136 10.272C15.1216 10.632 14.8756 11.124 14.8756 11.748C14.8756 12.372 15.1156 12.864 15.5956 13.224C16.0876 13.584 16.7656 13.764 17.6296 13.764C18.5056 13.764 19.1896 13.584 19.6816 13.224C20.1856 12.864 20.4376 12.372 20.4376 11.748C20.4376 11.124 20.1796 10.632 19.6636 10.272C19.1596 9.9 18.4816 9.714 17.6296 9.714ZM17.6296 19.686C18.6256 19.686 19.4116 19.482 19.9876 19.074C20.5636 18.654 20.8516 18.09 20.8516 17.382C20.8516 16.686 20.5636 16.14 19.9876 15.744C19.4116 15.336 18.6256 15.132 17.6296 15.132C16.6336 15.132 15.8536 15.336 15.2896 15.744C14.7256 16.14 14.4436 16.686 14.4436 17.382C14.4436 18.09 14.7256 18.654 15.2896 19.074C15.8536 19.482 16.6336 19.686 17.6296 19.686ZM33.5075 12.234C33.2195 12.234 32.9735 12.132 32.7695 11.928C32.5775 11.712 32.4815 11.454 32.4815 11.154C32.4815 10.842 32.5775 10.584 32.7695 10.38C32.9735 10.176 33.2195 10.074 33.5075 10.074C33.8075 10.074 34.0535 10.176 34.2455 10.38C34.4495 10.584 34.5515 10.842 34.5515 11.154C34.5515 11.466 34.4495 11.724 34.2455 11.928C34.0535 12.132 33.8075 12.234 33.5075 12.234ZM29.4755 13.998H37.5395V15.42H29.4755V13.998ZM33.5075 19.326C33.2195 19.326 32.9735 19.224 32.7695 19.02C32.5775 18.804 32.4815 18.54 32.4815 18.228C32.4815 17.928 32.5775 17.676 32.7695 17.472C32.9735 17.268 33.2195 17.166 33.5075 17.166C33.8075 17.166 34.0535 17.268 34.2455 17.472C34.4495 17.676 34.5515 17.928 34.5515 18.228C34.5515 18.54 34.4495 18.804 34.2455 19.02C34.0535 19.224 33.8075 19.326 33.5075 19.326ZM49.8801 13.35C50.7081 13.35 51.4461 13.506 52.0941 13.818C52.7541 14.13 53.2701 14.58 53.6421 15.168C54.0141 15.744 54.2001 16.41 54.2001 17.166C54.2001 17.958 54.0021 18.654 53.6061 19.254C53.2221 19.854 52.6881 20.322 52.0041 20.658C51.3321 20.982 50.5761 21.144 49.7361 21.144C48.0441 21.144 46.7361 20.598 45.8121 19.506C44.9001 18.414 44.4441 16.866 44.4441 14.862C44.4441 13.458 44.6901 12.264 45.1821 11.28C45.6861 10.284 46.3821 9.534 47.2701 9.03C48.1701 8.514 49.2141 8.256 50.4021 8.256C51.0141 8.256 51.5901 8.322 52.1301 8.454C52.6701 8.574 53.1381 8.754 53.5341 8.994L52.8501 10.398C52.2501 10.002 51.4461 9.804 50.4381 9.804C49.1301 9.804 48.1041 10.212 47.3601 11.028C46.6161 11.832 46.2441 13.008 46.2441 14.556C46.2441 14.748 46.2501 14.898 46.2621 15.006C46.6221 14.466 47.1141 14.058 47.7381 13.782C48.3741 13.494 49.0881 13.35 49.8801 13.35ZM49.6641 19.686C50.4921 19.686 51.1641 19.464 51.6801 19.02C52.1961 18.576 52.4541 17.982 52.4541 17.238C52.4541 16.494 52.1901 15.906 51.6621 15.474C51.1461 15.03 50.4501 14.808 49.5741 14.808C49.0101 14.808 48.5061 14.916 48.0621 15.132C47.6301 15.348 47.2881 15.642 47.0361 16.014C46.7961 16.386 46.6761 16.8 46.6761 17.256C46.6761 17.7 46.7901 18.108 47.0181 18.48C47.2581 18.84 47.6001 19.134 48.0441 19.362C48.5001 19.578 49.0401 19.686 49.6641 19.686ZM60.7294 11.856H68.7934V13.278H60.7294V11.856ZM60.7294 16.122H68.7934V17.544H60.7294V16.122Z" fill="#2F2F2F"/>
<path d="M126.775 21L124.057 17.13C123.721 17.154 123.457 17.166 123.265 17.166H120.151V21H118.351V8.4H123.265C124.897 8.4 126.181 8.79 127.117 9.57C128.053 10.35 128.521 11.424 128.521 12.792C128.521 13.764 128.281 14.592 127.801 15.276C127.321 15.96 126.637 16.458 125.749 16.77L128.737 21H126.775ZM123.211 15.636C124.351 15.636 125.221 15.39 125.821 14.898C126.421 14.406 126.721 13.704 126.721 12.792C126.721 11.88 126.421 11.184 125.821 10.704C125.221 10.212 124.351 9.966 123.211 9.966H120.151V15.636H123.211Z" fill="#2F2F2F"/>
<path d="M73 5C73 2.23858 75.2386 0 78 0H108C110.761 0 113 2.23858 113 5V25C113 27.7614 110.761 30 108 30H78C75.2386 30 73 27.7614 73 25V5Z" fill="white"/>
<path d="M93.5376 13.692C94.7736 13.812 95.7156 14.196 96.3636 14.844C97.0116 15.48 97.3356 16.296 97.3356 17.292C97.3356 18.012 97.1556 18.666 96.7956 19.254C96.4356 19.83 95.8956 20.292 95.1756 20.64C94.4676 20.976 93.5976 21.144 92.5656 21.144C91.6656 21.144 90.8016 21.012 89.9736 20.748C89.1456 20.472 88.4676 20.094 87.9396 19.614L88.7676 18.192C89.1996 18.6 89.7516 18.93 90.4236 19.182C91.0956 19.422 91.8096 19.542 92.5656 19.542C93.5016 19.542 94.2276 19.344 94.7436 18.948C95.2716 18.552 95.5356 18.006 95.5356 17.31C95.5356 16.614 95.2776 16.074 94.7616 15.69C94.2456 15.306 93.4656 15.114 92.4216 15.114H91.4136V13.854L94.5816 9.966H88.5156V8.4H96.8316V9.624L93.5376 13.692Z" fill="#2F2F2F"/>
<path d="M133 5C133 2.23858 135.239 0 138 0H168C170.761 0 173 2.23858 173 5V25C173 27.7614 170.761 30 168 30H138C135.239 30 133 27.7614 133 25V5Z" fill="white"/>
<path d="M11.218 81.434V83H2.16405V81.776L7.29405 76.826C7.91805 76.226 8.33805 75.71 8.55405 75.278C8.77005 74.834 8.87805 74.39 8.87805 73.946C8.87805 73.286 8.64405 72.776 8.17605 72.416C7.72005 72.044 7.06005 71.858 6.19605 71.858C4.80405 71.858 3.73005 72.314 2.97405 73.226L1.75005 72.164C2.24205 71.564 2.88405 71.096 3.67605 70.76C4.48005 70.424 5.37405 70.256 6.35805 70.256C7.67805 70.256 8.72805 70.574 9.50805 71.21C10.288 71.834 10.678 72.686 10.678 73.766C10.678 74.438 10.534 75.074 10.246 75.674C9.95805 76.274 9.41205 76.958 8.60805 77.726L4.75605 81.434H11.218ZM17.7933 83.144C16.7973 83.144 15.9093 82.892 15.1293 82.388C14.3613 81.872 13.7553 81.128 13.3113 80.156C12.8673 79.184 12.6453 78.032 12.6453 76.7C12.6453 75.368 12.8673 74.216 13.3113 73.244C13.7553 72.272 14.3613 71.534 15.1293 71.03C15.9093 70.514 16.7973 70.256 17.7933 70.256C18.7773 70.256 19.6533 70.514 20.4213 71.03C21.2013 71.534 21.8133 72.272 22.2573 73.244C22.7013 74.216 22.9233 75.368 22.9233 76.7C22.9233 78.032 22.7013 79.184 22.2573 80.156C21.8133 81.128 21.2013 81.872 20.4213 82.388C19.6533 82.892 18.7773 83.144 17.7933 83.144ZM17.7933 81.542C18.8013 81.542 19.6053 81.128 20.2053 80.3C20.8173 79.472 21.1233 78.272 21.1233 76.7C21.1233 75.128 20.8173 73.928 20.2053 73.1C19.6053 72.272 18.8013 71.858 17.7933 71.858C16.7733 71.858 15.9573 72.272 15.3453 73.1C14.7453 73.928 14.4453 75.128 14.4453 76.7C14.4453 78.272 14.7453 79.472 15.3453 80.3C15.9573 81.128 16.7733 81.542 17.7933 81.542ZM33.8591 74.234C33.5711 74.234 33.3251 74.132 33.1211 73.928C32.9291 73.712 32.8331 73.454 32.8331 73.154C32.8331 72.842 32.9291 72.584 33.1211 72.38C33.3251 72.176 33.5711 72.074 33.8591 72.074C34.1591 72.074 34.4051 72.176 34.5971 72.38C34.8011 72.584 34.9031 72.842 34.9031 73.154C34.9031 73.466 34.8011 73.724 34.5971 73.928C34.4051 74.132 34.1591 74.234 33.8591 74.234ZM29.8271 75.998H37.8911V77.42H29.8271V75.998ZM33.8591 81.326C33.5711 81.326 33.3251 81.224 33.1211 81.02C32.9291 80.804 32.8331 80.54 32.8331 80.228C32.8331 79.928 32.9291 79.676 33.1211 79.472C33.3251 79.268 33.5711 79.166 33.8591 79.166C34.1591 79.166 34.4051 79.268 34.5971 79.472C34.8011 79.676 34.9031 79.928 34.9031 80.228C34.9031 80.54 34.8011 80.804 34.5971 81.02C34.4051 81.224 34.1591 81.326 33.8591 81.326ZM53.9756 70.4V71.624L48.8816 83H46.9736L51.9596 71.966H46.1996V74.216H44.4716V70.4H53.9756ZM60.7294 73.856H68.7934V75.278H60.7294V73.856ZM60.7294 78.122H68.7934V79.544H60.7294V78.122Z" fill="#2F2F2F"/>
<path d="M126.775 83L124.057 79.13C123.721 79.154 123.457 79.166 123.265 79.166H120.151V83H118.351V70.4H123.265C124.897 70.4 126.181 70.79 127.117 71.57C128.053 72.35 128.521 73.424 128.521 74.792C128.521 75.764 128.281 76.592 127.801 77.276C127.321 77.96 126.637 78.458 125.749 78.77L128.737 83H126.775ZM123.211 77.636C124.351 77.636 125.221 77.39 125.821 76.898C126.421 76.406 126.721 75.704 126.721 74.792C126.721 73.88 126.421 73.184 125.821 72.704C125.221 72.212 124.351 71.966 123.211 71.966H120.151V77.636H123.211Z" fill="#2F2F2F"/>
<path d="M73 67C73 64.2386 75.2386 62 78 62H108C110.761 62 113 64.2386 113 67V87C113 89.7614 110.761 92 108 92H78C75.2386 92 73 89.7614 73 87V67Z" fill="white"/>
<path d="M97.552 81.434V83H88.498V81.776L93.628 76.826C94.252 76.226 94.672 75.71 94.888 75.278C95.104 74.834 95.212 74.39 95.212 73.946C95.212 73.286 94.978 72.776 94.51 72.416C94.054 72.044 93.394 71.858 92.53 71.858C91.138 71.858 90.064 72.314 89.308 73.226L88.084 72.164C88.576 71.564 89.218 71.096 90.01 70.76C90.814 70.424 91.708 70.256 92.692 70.256C94.012 70.256 95.062 70.574 95.842 71.21C96.622 71.834 97.012 72.686 97.012 73.766C97.012 74.438 96.868 75.074 96.58 75.674C96.292 76.274 95.746 76.958 94.942 77.726L91.09 81.434H97.552Z" fill="#2F2F2F"/>
<path d="M133 67C133 64.2386 135.239 62 138 62H168C170.761 62 173 64.2386 173 67V87C173 89.7614 170.761 92 168 92H138C135.239 92 133 89.7614 133 87V67Z" fill="white"/>
<path d="M153.745 75.35C154.573 75.35 155.311 75.506 155.959 75.818C156.619 76.13 157.135 76.58 157.507 77.168C157.879 77.744 158.065 78.41 158.065 79.166C158.065 79.958 157.867 80.654 157.471 81.254C157.087 81.854 156.553 82.322 155.869 82.658C155.197 82.982 154.441 83.144 153.601 83.144C151.909 83.144 150.601 82.598 149.677 81.506C148.765 80.414 148.309 78.866 148.309 76.862C148.309 75.458 148.555 74.264 149.047 73.28C149.551 72.284 150.247 71.534 151.135 71.03C152.035 70.514 153.079 70.256 154.267 70.256C154.879 70.256 155.455 70.322 155.995 70.454C156.535 70.574 157.003 70.754 157.399 70.994L156.715 72.398C156.115 72.002 155.311 71.804 154.303 71.804C152.995 71.804 151.969 72.212 151.225 73.028C150.481 73.832 150.109 75.008 150.109 76.556C150.109 76.748 150.115 76.898 150.127 77.006C150.487 76.466 150.979 76.058 151.603 75.782C152.239 75.494 152.953 75.35 153.745 75.35ZM153.529 81.686C154.357 81.686 155.029 81.464 155.545 81.02C156.061 80.576 156.319 79.982 156.319 79.238C156.319 78.494 156.055 77.906 155.527 77.474C155.011 77.03 154.315 76.808 153.439 76.808C152.875 76.808 152.371 76.916 151.927 77.132C151.495 77.348 151.153 77.642 150.901 78.014C150.661 78.386 150.541 78.8 150.541 79.256C150.541 79.7 150.655 80.108 150.883 80.48C151.123 80.84 151.465 81.134 151.909 81.362C152.365 81.578 152.905 81.686 153.529 81.686Z" fill="#2F2F2F"/>
<path d="M6.30714 137.692C7.54314 137.812 8.48514 138.196 9.13314 138.844C9.78114 139.48 10.1051 140.296 10.1051 141.292C10.1051 142.012 9.92514 142.666 9.56514 143.254C9.20514 143.83 8.66514 144.292 7.94514 144.64C7.23714 144.976 6.36714 145.144 5.33514 145.144C4.43514 145.144 3.57114 145.012 2.74314 144.748C1.91514 144.472 1.23714 144.094 0.709141 143.614L1.53714 142.192C1.96914 142.6 2.52114 142.93 3.19314 143.182C3.86514 143.422 4.57914 143.542 5.33514 143.542C6.27114 143.542 6.99714 143.344 7.51314 142.948C8.04114 142.552 8.30514 142.006 8.30514 141.31C8.30514 140.614 8.04714 140.074 7.53114 139.69C7.01514 139.306 6.23514 139.114 5.19114 139.114H4.18314V137.854L7.35114 133.966H1.28514V132.4H9.60114V133.624L6.30714 137.692ZM22.7459 141.904H20.3519V145H18.6059V141.904H11.6039V140.644L18.0479 132.4H19.9919L13.8179 140.356H18.6599V137.62H20.3519V140.356H22.7459V141.904ZM33.0329 136.234C32.7449 136.234 32.4989 136.132 32.2949 135.928C32.1029 135.712 32.0069 135.454 32.0069 135.154C32.0069 134.842 32.1029 134.584 32.2949 134.38C32.4989 134.176 32.7449 134.074 33.0329 134.074C33.3329 134.074 33.5789 134.176 33.7709 134.38C33.9749 134.584 34.0769 134.842 34.0769 135.154C34.0769 135.466 33.9749 135.724 33.7709 135.928C33.5789 136.132 33.3329 136.234 33.0329 136.234ZM29.0009 137.998H37.0649V139.42H29.0009V137.998ZM33.0329 143.326C32.7449 143.326 32.4989 143.224 32.2949 143.02C32.1029 142.804 32.0069 142.54 32.0069 142.228C32.0069 141.928 32.1029 141.676 32.2949 141.472C32.4989 141.268 32.7449 141.166 33.0329 141.166C33.3329 141.166 33.5789 141.268 33.7709 141.472C33.9749 141.676 34.0769 141.928 34.0769 142.228C34.0769 142.54 33.9749 142.804 33.7709 143.02C33.5789 143.224 33.3329 143.326 33.0329 143.326ZM51.6735 138.394C52.3935 138.67 52.9455 139.066 53.3295 139.582C53.7135 140.098 53.9055 140.716 53.9055 141.436C53.9055 142.192 53.7015 142.852 53.2935 143.416C52.8855 143.968 52.3035 144.394 51.5475 144.694C50.7915 144.994 49.9035 145.144 48.8835 145.144C47.8755 145.144 46.9935 144.994 46.2375 144.694C45.4935 144.394 44.9175 143.968 44.5095 143.416C44.1015 142.852 43.8975 142.192 43.8975 141.436C43.8975 140.716 44.0835 140.098 44.4555 139.582C44.8395 139.066 45.3915 138.67 46.1115 138.394C45.5355 138.118 45.0975 137.752 44.7975 137.296C44.4975 136.84 44.3475 136.3 44.3475 135.676C44.3475 134.98 44.5335 134.374 44.9055 133.858C45.2895 133.342 45.8235 132.946 46.5075 132.67C47.1915 132.394 47.9835 132.256 48.8835 132.256C49.7955 132.256 50.5935 132.394 51.2775 132.67C51.9735 132.946 52.5075 133.342 52.8795 133.858C53.2635 134.374 53.4555 134.98 53.4555 135.676C53.4555 136.288 53.2995 136.828 52.9875 137.296C52.6875 137.752 52.2495 138.118 51.6735 138.394ZM48.8835 133.714C48.0315 133.714 47.3595 133.9 46.8675 134.272C46.3755 134.632 46.1295 135.124 46.1295 135.748C46.1295 136.372 46.3695 136.864 46.8495 137.224C47.3415 137.584 48.0195 137.764 48.8835 137.764C49.7595 137.764 50.4435 137.584 50.9355 137.224C51.4395 136.864 51.6915 136.372 51.6915 135.748C51.6915 135.124 51.4335 134.632 50.9175 134.272C50.4135 133.9 49.7355 133.714 48.8835 133.714ZM48.8835 143.686C49.8795 143.686 50.6655 143.482 51.2415 143.074C51.8175 142.654 52.1055 142.09 52.1055 141.382C52.1055 140.686 51.8175 140.14 51.2415 139.744C50.6655 139.336 49.8795 139.132 48.8835 139.132C47.8875 139.132 47.1075 139.336 46.5435 139.744C45.9795 140.14 45.6975 140.686 45.6975 141.382C45.6975 142.09 45.9795 142.654 46.5435 143.074C47.1075 143.482 47.8875 143.686 48.8835 143.686ZM60.7294 135.856H68.7934V137.278H60.7294V135.856ZM60.7294 140.122H68.7934V141.544H60.7294V140.122Z" fill="#2F2F2F"/>
<path d="M126.775 145L124.057 141.13C123.721 141.154 123.457 141.166 123.265 141.166H120.151V145H118.351V132.4H123.265C124.897 132.4 126.181 132.79 127.117 133.57C128.053 134.35 128.521 135.424 128.521 136.792C128.521 137.764 128.281 138.592 127.801 139.276C127.321 139.96 126.637 140.458 125.749 140.77L128.737 145H126.775ZM123.211 139.636C124.351 139.636 125.221 139.39 125.821 138.898C126.421 138.406 126.721 137.704 126.721 136.792C126.721 135.88 126.421 135.184 125.821 134.704C125.221 134.212 124.351 133.966 123.211 133.966H120.151V139.636H123.211Z" fill="#2F2F2F"/>
<path d="M73 129C73 126.239 75.2386 124 78 124H108C110.761 124 113 126.239 113 129V149C113 151.761 110.761 154 108 154H78C75.2386 154 73 151.761 73 149V129Z" fill="white"/>
<path d="M98.8055 141.904H96.4115V145H94.6655V141.904H87.6635V140.644L94.1075 132.4H96.0515L89.8775 140.356H94.7195V137.62H96.4115V140.356H98.8055V141.904Z" fill="#2F2F2F"/>
<path d="M133 129C133 126.239 135.239 124 138 124H168C170.761 124 173 126.239 173 129V149C173 151.761 170.761 154 168 154H138C135.239 154 133 151.761 133 149V129Z" fill="white"/>
<path d="M157.552 143.434V145H148.498V143.776L153.628 138.826C154.252 138.226 154.672 137.71 154.888 137.278C155.104 136.834 155.212 136.39 155.212 135.946C155.212 135.286 154.978 134.776 154.51 134.416C154.054 134.044 153.394 133.858 152.53 133.858C151.138 133.858 150.064 134.314 149.308 135.226L148.084 134.164C148.576 133.564 149.218 133.096 150.01 132.76C150.814 132.424 151.708 132.256 152.692 132.256C154.012 132.256 155.062 132.574 155.842 133.21C156.622 133.834 157.012 134.686 157.012 135.766C157.012 136.438 156.868 137.074 156.58 137.674C156.292 138.274 155.746 138.958 154.942 139.726L151.09 143.434H157.552Z" fill="#2F2F2F"/>
<path d="M308.276 8.4V21H306.494V9.966H303.65V8.4H308.276ZM314.632 13.422C316.432 13.422 317.752 13.764 318.592 14.448C319.444 15.12 319.87 16.044 319.87 17.22C319.87 17.964 319.69 18.636 319.33 19.236C318.982 19.824 318.448 20.292 317.728 20.64C317.02 20.976 316.144 21.144 315.1 21.144C314.212 21.144 313.354 21.012 312.526 20.748C311.698 20.472 311.014 20.094 310.474 19.614L311.302 18.192C311.734 18.6 312.286 18.93 312.958 19.182C313.63 19.422 314.338 19.542 315.082 19.542C316.03 19.542 316.762 19.344 317.278 18.948C317.806 18.54 318.07 17.988 318.07 17.292C318.07 16.536 317.782 15.966 317.206 15.582C316.63 15.186 315.646 14.988 314.254 14.988H311.392L312.058 8.4H319.168V9.966H313.57L313.228 13.422H314.632ZM330.576 12.234C330.288 12.234 330.042 12.132 329.838 11.928C329.646 11.712 329.55 11.454 329.55 11.154C329.55 10.842 329.646 10.584 329.838 10.38C330.042 10.176 330.288 10.074 330.576 10.074C330.876 10.074 331.122 10.176 331.314 10.38C331.518 10.584 331.62 10.842 331.62 11.154C331.62 11.466 331.518 11.724 331.314 11.928C331.122 12.132 330.876 12.234 330.576 12.234ZM326.544 13.998H334.608V15.42H326.544V13.998ZM330.576 19.326C330.288 19.326 330.042 19.224 329.838 19.02C329.646 18.804 329.55 18.54 329.55 18.228C329.55 17.928 329.646 17.676 329.838 17.472C330.042 17.268 330.288 17.166 330.576 17.166C330.876 17.166 331.122 17.268 331.314 17.472C331.518 17.676 331.62 17.928 331.62 18.228C331.62 18.54 331.518 18.804 331.314 19.02C331.122 19.224 330.876 19.326 330.576 19.326ZM352.474 17.904H350.08V21H348.334V17.904H341.332V16.644L347.776 8.4H349.72L343.546 16.356H348.388V13.62H350.08V16.356H352.474V17.904ZM358.729 11.856H366.793V13.278H358.729V11.856ZM358.729 16.122H366.793V17.544H358.729V16.122Z" fill="#2F2F2F"/>
<path d="M424.775 21L422.057 17.13C421.721 17.154 421.457 17.166 421.265 17.166H418.151V21H416.351V8.4H421.265C422.897 8.4 424.181 8.79 425.117 9.57C426.053 10.35 426.521 11.424 426.521 12.792C426.521 13.764 426.281 14.592 425.801 15.276C425.321 15.96 424.637 16.458 423.749 16.77L426.737 21H424.775ZM421.211 15.636C422.351 15.636 423.221 15.39 423.821 14.898C424.421 14.406 424.721 13.704 424.721 12.792C424.721 11.88 424.421 11.184 423.821 10.704C423.221 10.212 422.351 9.966 421.211 9.966H418.151V15.636H421.211Z" fill="#2F2F2F"/>
<path d="M371 5C371 2.23858 373.239 0 376 0H406C408.761 0 411 2.23858 411 5V25C411 27.7614 408.761 30 406 30H376C373.239 30 371 27.7614 371 25V5Z" fill="white"/>
<path d="M391.538 13.692C392.774 13.812 393.716 14.196 394.364 14.844C395.012 15.48 395.336 16.296 395.336 17.292C395.336 18.012 395.156 18.666 394.796 19.254C394.436 19.83 393.896 20.292 393.176 20.64C392.468 20.976 391.598 21.144 390.566 21.144C389.666 21.144 388.802 21.012 387.974 20.748C387.146 20.472 386.468 20.094 385.94 19.614L386.768 18.192C387.2 18.6 387.752 18.93 388.424 19.182C389.096 19.422 389.81 19.542 390.566 19.542C391.502 19.542 392.228 19.344 392.744 18.948C393.272 18.552 393.536 18.006 393.536 17.31C393.536 16.614 393.278 16.074 392.762 15.69C392.246 15.306 391.466 15.114 390.422 15.114H389.414V13.854L392.582 9.966H386.516V8.4H394.832V9.624L391.538 13.692Z" fill="#2F2F2F"/>
<path d="M431 5C431 2.23858 433.239 0 436 0H466C468.761 0 471 2.23858 471 5V25C471 27.7614 468.761 30 466 30H436C433.239 30 431 27.7614 431 25V5Z" fill="white"/>
<path d="M451.538 13.692C452.774 13.812 453.716 14.196 454.364 14.844C455.012 15.48 455.336 16.296 455.336 17.292C455.336 18.012 455.156 18.666 454.796 19.254C454.436 19.83 453.896 20.292 453.176 20.64C452.468 20.976 451.598 21.144 450.566 21.144C449.666 21.144 448.802 21.012 447.974 20.748C447.146 20.472 446.468 20.094 445.94 19.614L446.768 18.192C447.2 18.6 447.752 18.93 448.424 19.182C449.096 19.422 449.81 19.542 450.566 19.542C451.502 19.542 452.228 19.344 452.744 18.948C453.272 18.552 453.536 18.006 453.536 17.31C453.536 16.614 453.278 16.074 452.762 15.69C452.246 15.306 451.466 15.114 450.422 15.114H449.414V13.854L452.582 9.966H446.516V8.4H454.832V9.624L451.538 13.692Z" fill="#2F2F2F"/>
<path d="M311.292 81.434V83H302.238V81.776L307.368 76.826C307.992 76.226 308.412 75.71 308.628 75.278C308.844 74.834 308.952 74.39 308.952 73.946C308.952 73.286 308.718 72.776 308.25 72.416C307.794 72.044 307.134 71.858 306.27 71.858C304.878 71.858 303.804 72.314 303.048 73.226L301.824 72.164C302.316 71.564 302.958 71.096 303.75 70.76C304.554 70.424 305.448 70.256 306.432 70.256C307.752 70.256 308.802 70.574 309.582 71.21C310.362 71.834 310.752 72.686 310.752 73.766C310.752 74.438 310.608 75.074 310.32 75.674C310.032 76.274 309.486 76.958 308.682 77.726L304.83 81.434H311.292ZM317.596 75.692C318.832 75.812 319.774 76.196 320.422 76.844C321.07 77.48 321.394 78.296 321.394 79.292C321.394 80.012 321.214 80.666 320.854 81.254C320.494 81.83 319.954 82.292 319.234 82.64C318.526 82.976 317.656 83.144 316.624 83.144C315.724 83.144 314.86 83.012 314.032 82.748C313.204 82.472 312.526 82.094 311.998 81.614L312.826 80.192C313.258 80.6 313.81 80.93 314.482 81.182C315.154 81.422 315.868 81.542 316.624 81.542C317.56 81.542 318.286 81.344 318.802 80.948C319.33 80.552 319.594 80.006 319.594 79.31C319.594 78.614 319.336 78.074 318.82 77.69C318.304 77.306 317.524 77.114 316.48 77.114H315.472V75.854L318.64 71.966H312.574V70.4H320.89V71.624L317.596 75.692ZM332.281 74.234C331.993 74.234 331.747 74.132 331.543 73.928C331.351 73.712 331.255 73.454 331.255 73.154C331.255 72.842 331.351 72.584 331.543 72.38C331.747 72.176 331.993 72.074 332.281 72.074C332.581 72.074 332.827 72.176 333.019 72.38C333.223 72.584 333.325 72.842 333.325 73.154C333.325 73.466 333.223 73.724 333.019 73.928C332.827 74.132 332.581 74.234 332.281 74.234ZM328.249 75.998H336.313V77.42H328.249V75.998ZM332.281 81.326C331.993 81.326 331.747 81.224 331.543 81.02C331.351 80.804 331.255 80.54 331.255 80.228C331.255 79.928 331.351 79.676 331.543 79.472C331.747 79.268 331.993 79.166 332.281 79.166C332.581 79.166 332.827 79.268 333.019 79.472C333.223 79.676 333.325 79.928 333.325 80.228C333.325 80.54 333.223 80.804 333.019 81.02C332.827 81.224 332.581 81.326 332.281 81.326ZM346.818 75.422C348.618 75.422 349.938 75.764 350.778 76.448C351.63 77.12 352.056 78.044 352.056 79.22C352.056 79.964 351.876 80.636 351.516 81.236C351.168 81.824 350.634 82.292 349.914 82.64C349.206 82.976 348.33 83.144 347.286 83.144C346.398 83.144 345.54 83.012 344.712 82.748C343.884 82.472 343.2 82.094 342.66 81.614L343.488 80.192C343.92 80.6 344.472 80.93 345.144 81.182C345.816 81.422 346.524 81.542 347.268 81.542C348.216 81.542 348.948 81.344 349.464 80.948C349.992 80.54 350.256 79.988 350.256 79.292C350.256 78.536 349.968 77.966 349.392 77.582C348.816 77.186 347.832 76.988 346.44 76.988H343.578L344.244 70.4H351.354V71.966H345.756L345.414 75.422H346.818ZM358.729 73.856H366.793V75.278H358.729V73.856ZM358.729 78.122H366.793V79.544H358.729V78.122Z" fill="#2F2F2F"/>
<path d="M424.775 83L422.057 79.13C421.721 79.154 421.457 79.166 421.265 79.166H418.151V83H416.351V70.4H421.265C422.897 70.4 424.181 70.79 425.117 71.57C426.053 72.35 426.521 73.424 426.521 74.792C426.521 75.764 426.281 76.592 425.801 77.276C425.321 77.96 424.637 78.458 423.749 78.77L426.737 83H424.775ZM421.211 77.636C422.351 77.636 423.221 77.39 423.821 76.898C424.421 76.406 424.721 75.704 424.721 74.792C424.721 73.88 424.421 73.184 423.821 72.704C423.221 72.212 422.351 71.966 421.211 71.966H418.151V77.636H421.211Z" fill="#2F2F2F"/>
<path d="M371 67C371 64.2386 373.239 62 376 62H406C408.761 62 411 64.2386 411 67V87C411 89.7614 408.761 92 406 92H376C373.239 92 371 89.7614 371 87V67Z" fill="white"/>
<path d="M396.805 79.904H394.411V83H392.665V79.904H385.663V78.644L392.107 70.4H394.051L387.877 78.356H392.719V75.62H394.411V78.356H396.805V79.904Z" fill="black"/>
<path d="M431 67C431 64.2386 433.239 62 436 62H466C468.761 62 471 64.2386 471 67V87C471 89.7614 468.761 92 466 92H436C433.239 92 431 89.7614 431 87V67Z" fill="white"/>
<path d="M451.538 75.692C452.774 75.812 453.716 76.196 454.364 76.844C455.012 77.48 455.336 78.296 455.336 79.292C455.336 80.012 455.156 80.666 454.796 81.254C454.436 81.83 453.896 82.292 453.176 82.64C452.468 82.976 451.598 83.144 450.566 83.144C449.666 83.144 448.802 83.012 447.974 82.748C447.146 82.472 446.468 82.094 445.94 81.614L446.768 80.192C447.2 80.6 447.752 80.93 448.424 81.182C449.096 81.422 449.81 81.542 450.566 81.542C451.502 81.542 452.228 81.344 452.744 80.948C453.272 80.552 453.536 80.006 453.536 79.31C453.536 78.614 453.278 78.074 452.762 77.69C452.246 77.306 451.466 77.114 450.422 77.114H449.414V75.854L452.582 71.966H446.516V70.4H454.832V71.624L451.538 75.692Z" fill="#2F2F2F"/>
<path d="M307.485 132.4V145H305.703V133.966H302.859V132.4H307.485ZM317.945 138.394C318.665 138.67 319.217 139.066 319.601 139.582C319.985 140.098 320.177 140.716 320.177 141.436C320.177 142.192 319.973 142.852 319.565 143.416C319.157 143.968 318.575 144.394 317.819 144.694C317.063 144.994 316.175 145.144 315.155 145.144C314.147 145.144 313.265 144.994 312.509 144.694C311.765 144.394 311.189 143.968 310.781 143.416C310.373 142.852 310.169 142.192 310.169 141.436C310.169 140.716 310.355 140.098 310.727 139.582C311.111 139.066 311.663 138.67 312.383 138.394C311.807 138.118 311.369 137.752 311.069 137.296C310.769 136.84 310.619 136.3 310.619 135.676C310.619 134.98 310.805 134.374 311.177 133.858C311.561 133.342 312.095 132.946 312.779 132.67C313.463 132.394 314.255 132.256 315.155 132.256C316.067 132.256 316.865 132.394 317.549 132.67C318.245 132.946 318.779 133.342 319.151 133.858C319.535 134.374 319.727 134.98 319.727 135.676C319.727 136.288 319.571 136.828 319.259 137.296C318.959 137.752 318.521 138.118 317.945 138.394ZM315.155 133.714C314.303 133.714 313.631 133.9 313.139 134.272C312.647 134.632 312.401 135.124 312.401 135.748C312.401 136.372 312.641 136.864 313.121 137.224C313.613 137.584 314.291 137.764 315.155 137.764C316.031 137.764 316.715 137.584 317.207 137.224C317.711 136.864 317.963 136.372 317.963 135.748C317.963 135.124 317.705 134.632 317.189 134.272C316.685 133.9 316.007 133.714 315.155 133.714ZM315.155 143.686C316.151 143.686 316.937 143.482 317.513 143.074C318.089 142.654 318.377 142.09 318.377 141.382C318.377 140.686 318.089 140.14 317.513 139.744C316.937 139.336 316.151 139.132 315.155 139.132C314.159 139.132 313.379 139.336 312.815 139.744C312.251 140.14 311.969 140.686 311.969 141.382C311.969 142.09 312.251 142.654 312.815 143.074C313.379 143.482 314.159 143.686 315.155 143.686ZM331.033 136.234C330.745 136.234 330.499 136.132 330.295 135.928C330.103 135.712 330.007 135.454 330.007 135.154C330.007 134.842 330.103 134.584 330.295 134.38C330.499 134.176 330.745 134.074 331.033 134.074C331.333 134.074 331.579 134.176 331.771 134.38C331.975 134.584 332.077 134.842 332.077 135.154C332.077 135.466 331.975 135.724 331.771 135.928C331.579 136.132 331.333 136.234 331.033 136.234ZM327.001 137.998H335.065V139.42H327.001V137.998ZM331.033 143.326C330.745 143.326 330.499 143.224 330.295 143.02C330.103 142.804 330.007 142.54 330.007 142.228C330.007 141.928 330.103 141.676 330.295 141.472C330.499 141.268 330.745 141.166 331.033 141.166C331.333 141.166 331.579 141.268 331.771 141.472C331.975 141.676 332.077 141.928 332.077 142.228C332.077 142.54 331.975 142.804 331.771 143.02C331.579 143.224 331.333 143.326 331.033 143.326ZM349.673 138.394C350.393 138.67 350.945 139.066 351.329 139.582C351.713 140.098 351.905 140.716 351.905 141.436C351.905 142.192 351.701 142.852 351.293 143.416C350.885 143.968 350.303 144.394 349.547 144.694C348.791 144.994 347.903 145.144 346.883 145.144C345.875 145.144 344.993 144.994 344.237 144.694C343.493 144.394 342.917 143.968 342.509 143.416C342.101 142.852 341.897 142.192 341.897 141.436C341.897 140.716 342.083 140.098 342.455 139.582C342.839 139.066 343.391 138.67 344.111 138.394C343.535 138.118 343.097 137.752 342.797 137.296C342.497 136.84 342.347 136.3 342.347 135.676C342.347 134.98 342.533 134.374 342.905 133.858C343.289 133.342 343.823 132.946 344.507 132.67C345.191 132.394 345.983 132.256 346.883 132.256C347.795 132.256 348.593 132.394 349.277 132.67C349.973 132.946 350.507 133.342 350.879 133.858C351.263 134.374 351.455 134.98 351.455 135.676C351.455 136.288 351.299 136.828 350.987 137.296C350.687 137.752 350.249 138.118 349.673 138.394ZM346.883 133.714C346.031 133.714 345.359 133.9 344.867 134.272C344.375 134.632 344.129 135.124 344.129 135.748C344.129 136.372 344.369 136.864 344.849 137.224C345.341 137.584 346.019 137.764 346.883 137.764C347.759 137.764 348.443 137.584 348.935 137.224C349.439 136.864 349.691 136.372 349.691 135.748C349.691 135.124 349.433 134.632 348.917 134.272C348.413 133.9 347.735 133.714 346.883 133.714ZM346.883 143.686C347.879 143.686 348.665 143.482 349.241 143.074C349.817 142.654 350.105 142.09 350.105 141.382C350.105 140.686 349.817 140.14 349.241 139.744C348.665 139.336 347.879 139.132 346.883 139.132C345.887 139.132 345.107 139.336 344.543 139.744C343.979 140.14 343.697 140.686 343.697 141.382C343.697 142.09 343.979 142.654 344.543 143.074C345.107 143.482 345.887 143.686 346.883 143.686ZM358.729 135.856H366.793V137.278H358.729V135.856ZM358.729 140.122H366.793V141.544H358.729V140.122Z" fill="#2F2F2F"/>
<path d="M424.775 145L422.057 141.13C421.721 141.154 421.457 141.166 421.265 141.166H418.151V145H416.351V132.4H421.265C422.897 132.4 424.181 132.79 425.117 133.57C426.053 134.35 426.521 135.424 426.521 136.792C426.521 137.764 426.281 138.592 425.801 139.276C425.321 139.96 424.637 140.458 423.749 140.77L426.737 145H424.775ZM421.211 139.636C422.351 139.636 423.221 139.39 423.821 138.898C424.421 138.406 424.721 137.704 424.721 136.792C424.721 135.88 424.421 135.184 423.821 134.704C423.221 134.212 422.351 133.966 421.211 133.966H418.151V139.636H421.211Z" fill="#2F2F2F"/>
<path d="M371 129C371 126.239 373.239 124 376 124H406C408.761 124 411 126.239 411 129V149C411 151.761 408.761 154 406 154H376C373.239 154 371 151.761 371 149V129Z" fill="white"/>
<path d="M395.552 143.434V145H386.498V143.776L391.628 138.826C392.252 138.226 392.672 137.71 392.888 137.278C393.104 136.834 393.212 136.39 393.212 135.946C393.212 135.286 392.978 134.776 392.51 134.416C392.054 134.044 391.394 133.858 390.53 133.858C389.138 133.858 388.064 134.314 387.308 135.226L386.084 134.164C386.576 133.564 387.218 133.096 388.01 132.76C388.814 132.424 389.708 132.256 390.692 132.256C392.012 132.256 393.062 132.574 393.842 133.21C394.622 133.834 395.012 134.686 395.012 135.766C395.012 136.438 394.868 137.074 394.58 137.674C394.292 138.274 393.746 138.958 392.942 139.726L389.09 143.434H395.552Z" fill="#2F2F2F"/>
<path d="M431 129C431 126.239 433.239 124 436 124H466C468.761 124 471 126.239 471 129V149C471 151.761 468.761 154 466 154H436C433.239 154 431 151.761 431 149V129Z" fill="white"/>
<path d="M455.552 143.434V145H446.498V143.776L451.628 138.826C452.252 138.226 452.672 137.71 452.888 137.278C453.104 136.834 453.212 136.39 453.212 135.946C453.212 135.286 452.978 134.776 452.51 134.416C452.054 134.044 451.394 133.858 450.53 133.858C449.138 133.858 448.064 134.314 447.308 135.226L446.084 134.164C446.576 133.564 447.218 133.096 448.01 132.76C448.814 132.424 449.708 132.256 450.692 132.256C452.012 132.256 453.062 132.574 453.842 133.21C454.622 133.834 455.012 134.686 455.012 135.766C455.012 136.438 454.868 137.074 454.58 137.674C454.292 138.274 453.746 138.958 452.942 139.726L449.09 143.434H455.552Z" fill="#2F2F2F"/>
</svg>
