<svg width="95" height="48" viewBox="0 0 95 48" fill="none" xmlns="http://www.w3.org/2000/svg">
<path d="M79.2795 17.76H92.7195V20.13H79.2795V17.76ZM79.2795 24.87H92.7195V27.24H79.2795V24.87Z" fill="#2F2F2F"/>
<path d="M36.9995 18.39C36.5195 18.39 36.1095 18.22 35.7695 17.88C35.4495 17.52 35.2895 17.09 35.2895 16.59C35.2895 16.07 35.4495 15.64 35.7695 15.3C36.1095 14.96 36.5195 14.79 36.9995 14.79C37.4995 14.79 37.9095 14.96 38.2295 15.3C38.5695 15.64 38.7395 16.07 38.7395 16.59C38.7395 17.11 38.5695 17.54 38.2295 17.88C37.9095 18.22 37.4995 18.39 36.9995 18.39ZM30.2795 21.33H43.7195V23.7H30.2795V21.33ZM36.9995 30.21C36.5195 30.21 36.1095 30.04 35.7695 29.7C35.4495 29.34 35.2895 28.9 35.2895 28.38C35.2895 27.88 35.4495 27.46 35.7695 27.12C36.1095 26.78 36.5195 26.61 36.9995 26.61C37.4995 26.61 37.9095 26.78 38.2295 27.12C38.5695 27.46 38.7395 27.88 38.7395 28.38C38.7395 28.9 38.5695 29.34 38.2295 29.7C37.9095 30.04 37.4995 30.21 36.9995 30.21Z" fill="#2F2F2F"/>
<path d="M13.148 4.4V17H10.808V6.362H8.144V4.4H13.148Z" fill="#2F2F2F"/>
<line x1="0.5" y1="23.5" x2="26.5" y2="23.5" stroke="#2F2F2F" stroke-linecap="round"/>
<path d="M11.734 35.278C13.51 35.278 14.824 35.626 15.676 36.322C16.528 37.006 16.954 37.942 16.954 39.13C16.954 39.886 16.768 40.57 16.396 41.182C16.024 41.794 15.466 42.28 14.722 42.64C13.978 43 13.06 43.18 11.968 43.18C11.068 43.18 10.198 43.054 9.358 42.802C8.518 42.538 7.81 42.178 7.234 41.722L8.224 39.904C8.692 40.288 9.25 40.594 9.898 40.822C10.558 41.038 11.236 41.146 11.932 41.146C12.76 41.146 13.408 40.978 13.876 40.642C14.356 40.294 14.596 39.82 14.596 39.22C14.596 38.572 14.338 38.086 13.822 37.762C13.318 37.426 12.448 37.258 11.212 37.258H8.17L8.818 30.4H16.216V32.362H10.798L10.528 35.278H11.734Z" fill="#2F2F2F"/>
<path d="M65.918 15.02V17H56.63V15.434L61.634 10.682C62.198 10.142 62.576 9.674 62.768 9.278C62.972 8.87 63.074 8.468 63.074 8.072C63.074 7.484 62.876 7.034 62.48 6.722C62.084 6.41 61.502 6.254 60.734 6.254C59.45 6.254 58.466 6.692 57.782 7.568L56.144 6.308C56.636 5.648 57.296 5.138 58.124 4.778C58.964 4.406 59.9 4.22 60.932 4.22C62.3 4.22 63.392 4.544 64.208 5.192C65.024 5.84 65.432 6.722 65.432 7.838C65.432 8.522 65.288 9.164 65 9.764C64.712 10.364 64.16 11.048 63.344 11.816L59.978 15.02H65.918Z" fill="#2F2F2F"/>
<line x1="48.5" y1="23.5" x2="74.5" y2="23.5" stroke="#2F2F2F" stroke-linecap="round"/>
<path d="M61.156 35.602C62.32 35.746 63.208 36.142 63.82 36.79C64.432 37.438 64.738 38.248 64.738 39.22C64.738 39.952 64.552 40.618 64.18 41.218C63.808 41.818 63.244 42.298 62.488 42.658C61.744 43.006 60.832 43.18 59.752 43.18C58.852 43.18 57.982 43.054 57.142 42.802C56.314 42.538 55.606 42.178 55.018 41.722L56.026 39.904C56.482 40.288 57.034 40.594 57.682 40.822C58.342 41.038 59.02 41.146 59.716 41.146C60.544 41.146 61.192 40.978 61.66 40.642C62.14 40.294 62.38 39.826 62.38 39.238C62.38 38.65 62.152 38.194 61.696 37.87C61.252 37.534 60.568 37.366 59.644 37.366H58.492V35.764L61.354 32.362H55.63V30.4H64.216V31.966L61.156 35.602Z" fill="#2F2F2F"/>
</svg>
