<svg width="95" height="48" viewBox="0 0 95 48" fill="none" xmlns="http://www.w3.org/2000/svg">
<path d="M79.2795 17.76H92.7195V20.13H79.2795V17.76ZM79.2795 24.87H92.7195V27.24H79.2795V24.87Z" fill="#2F2F2F"/>
<path d="M36.9995 18.39C36.5195 18.39 36.1095 18.22 35.7695 17.88C35.4495 17.52 35.2895 17.09 35.2895 16.59C35.2895 16.07 35.4495 15.64 35.7695 15.3C36.1095 14.96 36.5195 14.79 36.9995 14.79C37.4995 14.79 37.9095 14.96 38.2295 15.3C38.5695 15.64 38.7395 16.07 38.7395 16.59C38.7395 17.11 38.5695 17.54 38.2295 17.88C37.9095 18.22 37.4995 18.39 36.9995 18.39ZM30.2795 21.33H43.7195V23.7H30.2795V21.33ZM36.9995 30.21C36.5195 30.21 36.1095 30.04 35.7695 29.7C35.4495 29.34 35.2895 28.9 35.2895 28.38C35.2895 27.88 35.4495 27.46 35.7695 27.12C36.1095 26.78 36.5195 26.61 36.9995 26.61C37.4995 26.61 37.9095 26.78 38.2295 27.12C38.5695 27.46 38.7395 27.88 38.7395 28.38C38.7395 28.9 38.5695 29.34 38.2295 29.7C37.9095 30.04 37.4995 30.21 36.9995 30.21Z" fill="#2F2F2F"/>
<path d="M20.024 14.138H17.792V17H15.524V14.138H8.612V12.518L14.822 4.4H17.324L11.474 12.158H15.596V9.62H17.792V12.158H20.024V14.138Z" fill="#2F2F2F"/>
<line x1="0.5" y1="23.5" x2="26.5" y2="23.5" stroke="#2F2F2F" stroke-linecap="round"/>
<path d="M11.734 35.278C13.51 35.278 14.824 35.626 15.676 36.322C16.528 37.006 16.954 37.942 16.954 39.13C16.954 39.886 16.768 40.57 16.396 41.182C16.024 41.794 15.466 42.28 14.722 42.64C13.978 43 13.06 43.18 11.968 43.18C11.068 43.18 10.198 43.054 9.358 42.802C8.518 42.538 7.81 42.178 7.234 41.722L8.224 39.904C8.692 40.288 9.25 40.594 9.898 40.822C10.558 41.038 11.236 41.146 11.932 41.146C12.76 41.146 13.408 40.978 13.876 40.642C14.356 40.294 14.596 39.82 14.596 39.22C14.596 38.572 14.338 38.086 13.822 37.762C13.318 37.426 12.448 37.258 11.212 37.258H8.17L8.818 30.4H16.216V32.362H10.798L10.528 35.278H11.734Z" fill="#2F2F2F"/>
<path d="M61.148 4.4V17H58.808V6.362H56.144V4.4H61.148Z" fill="#2F2F2F"/>
<line x1="48.5" y1="23.5" x2="74.5" y2="23.5" stroke="#2F2F2F" stroke-linecap="round"/>
<path d="M64.918 41.02V43H55.63V41.434L60.634 36.682C61.198 36.142 61.576 35.674 61.768 35.278C61.972 34.87 62.074 34.468 62.074 34.072C62.074 33.484 61.876 33.034 61.48 32.722C61.084 32.41 60.502 32.254 59.734 32.254C58.45 32.254 57.466 32.692 56.782 33.568L55.144 32.308C55.636 31.648 56.296 31.138 57.124 30.778C57.964 30.406 58.9 30.22 59.932 30.22C61.3 30.22 62.392 30.544 63.208 31.192C64.024 31.84 64.432 32.722 64.432 33.838C64.432 34.522 64.288 35.164 64 35.764C63.712 36.364 63.16 37.048 62.344 37.816L58.978 41.02H64.918Z" fill="#2F2F2F"/>
</svg>
