<svg width="93" height="48" viewBox="0 0 93 48" fill="none" xmlns="http://www.w3.org/2000/svg">
<path d="M80.6236 18.808H91.3756V20.704H80.6236V18.808ZM80.6236 24.496H91.3756V26.392H80.6236V24.496Z" fill="#2F2F2F"/>
<path d="M36.9996 19.312C36.6156 19.312 36.2876 19.176 36.0156 18.904C35.7596 18.616 35.6316 18.272 35.6316 17.872C35.6316 17.456 35.7596 17.112 36.0156 16.84C36.2876 16.568 36.6156 16.432 36.9996 16.432C37.3996 16.432 37.7276 16.568 37.9836 16.84C38.2556 17.112 38.3916 17.456 38.3916 17.872C38.3916 18.288 38.2556 18.632 37.9836 18.904C37.7276 19.176 37.3996 19.312 36.9996 19.312ZM31.6236 21.664H42.3756V23.56H31.6236V21.664ZM36.9996 28.768C36.6156 28.768 36.2876 28.632 36.0156 28.36C35.7596 28.072 35.6316 27.72 35.6316 27.304C35.6316 26.904 35.7596 26.568 36.0156 26.296C36.2876 26.024 36.6156 25.888 36.9996 25.888C37.3996 25.888 37.7276 26.024 37.9836 26.296C38.2556 26.568 38.3916 26.904 38.3916 27.304C38.3916 27.72 38.2556 28.072 37.9836 28.36C37.7276 28.632 37.3996 28.768 36.9996 28.768Z" fill="#2F2F2F"/>
<path d="M13.148 4.4V17H10.808V6.362H8.144V4.4H13.148Z" fill="#2F2F2F"/>
<line x1="0.5" y1="23.5" x2="26.5" y2="23.5" stroke="#2F2F2F" stroke-linecap="round"/>
<path d="M11.734 35.278C13.51 35.278 14.824 35.626 15.676 36.322C16.528 37.006 16.954 37.942 16.954 39.13C16.954 39.886 16.768 40.57 16.396 41.182C16.024 41.794 15.466 42.28 14.722 42.64C13.978 43 13.06 43.18 11.968 43.18C11.068 43.18 10.198 43.054 9.358 42.802C8.518 42.538 7.81 42.178 7.234 41.722L8.224 39.904C8.692 40.288 9.25 40.594 9.898 40.822C10.558 41.038 11.236 41.146 11.932 41.146C12.76 41.146 13.408 40.978 13.876 40.642C14.356 40.294 14.596 39.82 14.596 39.22C14.596 38.572 14.338 38.086 13.822 37.762C13.318 37.426 12.448 37.258 11.212 37.258H8.17L8.818 30.4H16.216V32.362H10.798L10.528 35.278H11.734Z" fill="#2F2F2F"/>
<path d="M65.918 15.02V17H56.63V15.434L61.634 10.682C62.198 10.142 62.576 9.674 62.768 9.278C62.972 8.87 63.074 8.468 63.074 8.072C63.074 7.484 62.876 7.034 62.48 6.722C62.084 6.41 61.502 6.254 60.734 6.254C59.45 6.254 58.466 6.692 57.782 7.568L56.144 6.308C56.636 5.648 57.296 5.138 58.124 4.778C58.964 4.406 59.9 4.22 60.932 4.22C62.3 4.22 63.392 4.544 64.208 5.192C65.024 5.84 65.432 6.722 65.432 7.838C65.432 8.522 65.288 9.164 65 9.764C64.712 10.364 64.16 11.048 63.344 11.816L59.978 15.02H65.918Z" fill="#2F2F2F"/>
<line x1="48.5" y1="23.5" x2="74.5" y2="23.5" stroke="#2F2F2F" stroke-linecap="round"/>
<path d="M61.156 35.602C62.32 35.746 63.208 36.142 63.82 36.79C64.432 37.438 64.738 38.248 64.738 39.22C64.738 39.952 64.552 40.618 64.18 41.218C63.808 41.818 63.244 42.298 62.488 42.658C61.744 43.006 60.832 43.18 59.752 43.18C58.852 43.18 57.982 43.054 57.142 42.802C56.314 42.538 55.606 42.178 55.018 41.722L56.026 39.904C56.482 40.288 57.034 40.594 57.682 40.822C58.342 41.038 59.02 41.146 59.716 41.146C60.544 41.146 61.192 40.978 61.66 40.642C62.14 40.294 62.38 39.826 62.38 39.238C62.38 38.65 62.152 38.194 61.696 37.87C61.252 37.534 60.568 37.366 59.644 37.366H58.492V35.764L61.354 32.362H55.63V30.4H64.216V31.966L61.156 35.602Z" fill="#2F2F2F"/>
</svg>
