<svg width="95" height="48" viewBox="0 0 95 48" fill="none" xmlns="http://www.w3.org/2000/svg">
<path d="M79.2795 17.76H92.7195V20.13H79.2795V17.76ZM79.2795 24.87H92.7195V27.24H79.2795V24.87Z" fill="#2F2F2F"/>
<path d="M36.9995 18.39C36.5195 18.39 36.1095 18.22 35.7695 17.88C35.4495 17.52 35.2895 17.09 35.2895 16.59C35.2895 16.07 35.4495 15.64 35.7695 15.3C36.1095 14.96 36.5195 14.79 36.9995 14.79C37.4995 14.79 37.9095 14.96 38.2295 15.3C38.5695 15.64 38.7395 16.07 38.7395 16.59C38.7395 17.11 38.5695 17.54 38.2295 17.88C37.9095 18.22 37.4995 18.39 36.9995 18.39ZM30.2795 21.33H43.7195V23.7H30.2795V21.33ZM36.9995 30.21C36.5195 30.21 36.1095 30.04 35.7695 29.7C35.4495 29.34 35.2895 28.9 35.2895 28.38C35.2895 27.88 35.4495 27.46 35.7695 27.12C36.1095 26.78 36.5195 26.61 36.9995 26.61C37.4995 26.61 37.9095 26.78 38.2295 27.12C38.5695 27.46 38.7395 27.88 38.7395 28.38C38.7395 28.9 38.5695 29.34 38.2295 29.7C37.9095 30.04 37.4995 30.21 36.9995 30.21Z" fill="#2F2F2F"/>
<path d="M12.734 9.278C14.51 9.278 15.824 9.626 16.676 10.322C17.528 11.006 17.954 11.942 17.954 13.13C17.954 13.886 17.768 14.57 17.396 15.182C17.024 15.794 16.466 16.28 15.722 16.64C14.978 17 14.06 17.18 12.968 17.18C12.068 17.18 11.198 17.054 10.358 16.802C9.518 16.538 8.81 16.178 8.234 15.722L9.224 13.904C9.692 14.288 10.25 14.594 10.898 14.822C11.558 15.038 12.236 15.146 12.932 15.146C13.76 15.146 14.408 14.978 14.876 14.642C15.356 14.294 15.596 13.82 15.596 13.22C15.596 12.572 15.338 12.086 14.822 11.762C14.318 11.426 13.448 11.258 12.212 11.258H9.17L9.818 4.4H17.216V6.362H11.798L11.528 9.278H12.734Z" fill="#2F2F2F"/>
<line x1="0.5" y1="23.5" x2="26.5" y2="23.5" stroke="#2F2F2F" stroke-linecap="round"/>
<path d="M17.296 30.4V31.966L12.4 43H9.898L14.632 32.38H9.682V34.522H7.504V30.4H17.296Z" fill="#2F2F2F"/>
<path d="M62.156 9.602C63.32 9.746 64.208 10.142 64.82 10.79C65.432 11.438 65.738 12.248 65.738 13.22C65.738 13.952 65.552 14.618 65.18 15.218C64.808 15.818 64.244 16.298 63.488 16.658C62.744 17.006 61.832 17.18 60.752 17.18C59.852 17.18 58.982 17.054 58.142 16.802C57.314 16.538 56.606 16.178 56.018 15.722L57.026 13.904C57.482 14.288 58.034 14.594 58.682 14.822C59.342 15.038 60.02 15.146 60.716 15.146C61.544 15.146 62.192 14.978 62.66 14.642C63.14 14.294 63.38 13.826 63.38 13.238C63.38 12.65 63.152 12.194 62.696 11.87C62.252 11.534 61.568 11.366 60.644 11.366H59.492V9.764L62.354 6.362H56.63V4.4H65.216V5.966L62.156 9.602Z" fill="#2F2F2F"/>
<line x1="48.5" y1="23.5" x2="74.5" y2="23.5" stroke="#2F2F2F" stroke-linecap="round"/>
<path d="M67.024 40.138H64.792V43H62.524V40.138H55.612V38.518L61.822 30.4H64.324L58.474 38.158H62.596V35.62H64.792V38.158H67.024V40.138Z" fill="#2F2F2F"/>
</svg>
