<svg width="95" height="48" viewBox="0 0 95 48" fill="none" xmlns="http://www.w3.org/2000/svg">
<path d="M79.2795 17.76H92.7195V20.13H79.2795V17.76ZM79.2795 24.87H92.7195V27.24H79.2795V24.87Z" fill="#2F2F2F"/>
<path d="M36.9995 18.39C36.5195 18.39 36.1095 18.22 35.7695 17.88C35.4495 17.52 35.2895 17.09 35.2895 16.59C35.2895 16.07 35.4495 15.64 35.7695 15.3C36.1095 14.96 36.5195 14.79 36.9995 14.79C37.4995 14.79 37.9095 14.96 38.2295 15.3C38.5695 15.64 38.7395 16.07 38.7395 16.59C38.7395 17.11 38.5695 17.54 38.2295 17.88C37.9095 18.22 37.4995 18.39 36.9995 18.39ZM30.2795 21.33H43.7195V23.7H30.2795V21.33ZM36.9995 30.21C36.5195 30.21 36.1095 30.04 35.7695 29.7C35.4495 29.34 35.2895 28.9 35.2895 28.38C35.2895 27.88 35.4495 27.46 35.7695 27.12C36.1095 26.78 36.5195 26.61 36.9995 26.61C37.4995 26.61 37.9095 26.78 38.2295 27.12C38.5695 27.46 38.7395 27.88 38.7395 28.38C38.7395 28.9 38.5695 29.34 38.2295 29.7C37.9095 30.04 37.4995 30.21 36.9995 30.21Z" fill="#2F2F2F"/>
<path d="M13.148 4.4V17H10.808V6.362H8.144V4.4H13.148Z" fill="#2F2F2F"/>
<line x1="0.5" y1="23.5" x2="26.5" y2="23.5" stroke="#2F2F2F" stroke-linecap="round"/>
<path d="M16.918 41.02V43H7.63V41.434L12.634 36.682C13.198 36.142 13.576 35.674 13.768 35.278C13.972 34.87 14.074 34.468 14.074 34.072C14.074 33.484 13.876 33.034 13.48 32.722C13.084 32.41 12.502 32.254 11.734 32.254C10.45 32.254 9.466 32.692 8.782 33.568L7.144 32.308C7.636 31.648 8.296 31.138 9.124 30.778C9.964 30.406 10.9 30.22 11.932 30.22C13.3 30.22 14.392 30.544 15.208 31.192C16.024 31.84 16.432 32.722 16.432 33.838C16.432 34.522 16.288 35.164 16 35.764C15.712 36.364 15.16 37.048 14.344 37.816L10.978 41.02H16.918Z" fill="#2F2F2F"/>
<path d="M62.156 9.602C63.32 9.746 64.208 10.142 64.82 10.79C65.432 11.438 65.738 12.248 65.738 13.22C65.738 13.952 65.552 14.618 65.18 15.218C64.808 15.818 64.244 16.298 63.488 16.658C62.744 17.006 61.832 17.18 60.752 17.18C59.852 17.18 58.982 17.054 58.142 16.802C57.314 16.538 56.606 16.178 56.018 15.722L57.026 13.904C57.482 14.288 58.034 14.594 58.682 14.822C59.342 15.038 60.02 15.146 60.716 15.146C61.544 15.146 62.192 14.978 62.66 14.642C63.14 14.294 63.38 13.826 63.38 13.238C63.38 12.65 63.152 12.194 62.696 11.87C62.252 11.534 61.568 11.366 60.644 11.366H59.492V9.764L62.354 6.362H56.63V4.4H65.216V5.966L62.156 9.602Z" fill="#2F2F2F"/>
<line x1="48.5" y1="23.5" x2="74.5" y2="23.5" stroke="#2F2F2F" stroke-linecap="round"/>
<path d="M59.734 35.278C61.51 35.278 62.824 35.626 63.676 36.322C64.528 37.006 64.954 37.942 64.954 39.13C64.954 39.886 64.768 40.57 64.396 41.182C64.024 41.794 63.466 42.28 62.722 42.64C61.978 43 61.06 43.18 59.968 43.18C59.068 43.18 58.198 43.054 57.358 42.802C56.518 42.538 55.81 42.178 55.234 41.722L56.224 39.904C56.692 40.288 57.25 40.594 57.898 40.822C58.558 41.038 59.236 41.146 59.932 41.146C60.76 41.146 61.408 40.978 61.876 40.642C62.356 40.294 62.596 39.82 62.596 39.22C62.596 38.572 62.338 38.086 61.822 37.762C61.318 37.426 60.448 37.258 59.212 37.258H56.17L56.818 30.4H64.216V32.362H58.798L58.528 35.278H59.734Z" fill="#2F2F2F"/>
</svg>
