<svg width="95" height="48" viewBox="0 0 95 48" fill="none" xmlns="http://www.w3.org/2000/svg">
<path d="M79.2795 17.76H92.7195V20.13H79.2795V17.76ZM79.2795 24.87H92.7195V27.24H79.2795V24.87Z" fill="#2F2F2F"/>
<path d="M36.9995 18.39C36.5195 18.39 36.1095 18.22 35.7695 17.88C35.4495 17.52 35.2895 17.09 35.2895 16.59C35.2895 16.07 35.4495 15.64 35.7695 15.3C36.1095 14.96 36.5195 14.79 36.9995 14.79C37.4995 14.79 37.9095 14.96 38.2295 15.3C38.5695 15.64 38.7395 16.07 38.7395 16.59C38.7395 17.11 38.5695 17.54 38.2295 17.88C37.9095 18.22 37.4995 18.39 36.9995 18.39ZM30.2795 21.33H43.7195V23.7H30.2795V21.33ZM36.9995 30.21C36.5195 30.21 36.1095 30.04 35.7695 29.7C35.4495 29.34 35.2895 28.9 35.2895 28.38C35.2895 27.88 35.4495 27.46 35.7695 27.12C36.1095 26.78 36.5195 26.61 36.9995 26.61C37.4995 26.61 37.9095 26.78 38.2295 27.12C38.5695 27.46 38.7395 27.88 38.7395 28.38C38.7395 28.9 38.5695 29.34 38.2295 29.7C37.9095 30.04 37.4995 30.21 36.9995 30.21Z" fill="#2F2F2F"/>
<path d="M17.918 15.02V17H8.63V15.434L13.634 10.682C14.198 10.142 14.576 9.674 14.768 9.278C14.972 8.87 15.074 8.468 15.074 8.072C15.074 7.484 14.876 7.034 14.48 6.722C14.084 6.41 13.502 6.254 12.734 6.254C11.45 6.254 10.466 6.692 9.782 7.568L8.144 6.308C8.636 5.648 9.296 5.138 10.124 4.778C10.964 4.406 11.9 4.22 12.932 4.22C14.3 4.22 15.392 4.544 16.208 5.192C17.024 5.84 17.432 6.722 17.432 7.838C17.432 8.522 17.288 9.164 17 9.764C16.712 10.364 16.16 11.048 15.344 11.816L11.978 15.02H17.918Z" fill="#2F2F2F"/>
<line x1="0.5" y1="23.5" x2="26.5" y2="23.5" stroke="#2F2F2F" stroke-linecap="round"/>
<path d="M11.734 35.278C13.51 35.278 14.824 35.626 15.676 36.322C16.528 37.006 16.954 37.942 16.954 39.13C16.954 39.886 16.768 40.57 16.396 41.182C16.024 41.794 15.466 42.28 14.722 42.64C13.978 43 13.06 43.18 11.968 43.18C11.068 43.18 10.198 43.054 9.358 42.802C8.518 42.538 7.81 42.178 7.234 41.722L8.224 39.904C8.692 40.288 9.25 40.594 9.898 40.822C10.558 41.038 11.236 41.146 11.932 41.146C12.76 41.146 13.408 40.978 13.876 40.642C14.356 40.294 14.596 39.82 14.596 39.22C14.596 38.572 14.338 38.086 13.822 37.762C13.318 37.426 12.448 37.258 11.212 37.258H8.17L8.818 30.4H16.216V32.362H10.798L10.528 35.278H11.734Z" fill="#2F2F2F"/>
<path d="M62.156 9.602C63.32 9.746 64.208 10.142 64.82 10.79C65.432 11.438 65.738 12.248 65.738 13.22C65.738 13.952 65.552 14.618 65.18 15.218C64.808 15.818 64.244 16.298 63.488 16.658C62.744 17.006 61.832 17.18 60.752 17.18C59.852 17.18 58.982 17.054 58.142 16.802C57.314 16.538 56.606 16.178 56.018 15.722L57.026 13.904C57.482 14.288 58.034 14.594 58.682 14.822C59.342 15.038 60.02 15.146 60.716 15.146C61.544 15.146 62.192 14.978 62.66 14.642C63.14 14.294 63.38 13.826 63.38 13.238C63.38 12.65 63.152 12.194 62.696 11.87C62.252 11.534 61.568 11.366 60.644 11.366H59.492V9.764L62.354 6.362H56.63V4.4H65.216V5.966L62.156 9.602Z" fill="#2F2F2F"/>
<line x1="48.5" y1="23.5" x2="74.5" y2="23.5" stroke="#2F2F2F" stroke-linecap="round"/>
<path d="M65.296 30.4V31.966L60.4 43H57.898L62.632 32.38H57.682V34.522H55.504V30.4H65.296Z" fill="#2F2F2F"/>
</svg>
