<svg width="95" height="48" viewBox="0 0 95 48" fill="none" xmlns="http://www.w3.org/2000/svg">
<path d="M79.2795 17.76H92.7195V20.13H79.2795V17.76ZM79.2795 24.87H92.7195V27.24H79.2795V24.87Z" fill="#2F2F2F"/>
<path d="M36.9821 18.21C36.5821 18.21 36.2421 18.07 35.9621 17.79C35.7021 17.51 35.5721 17.17 35.5721 16.77C35.5721 16.35 35.7021 16 35.9621 15.72C36.2421 15.44 36.5821 15.3 36.9821 15.3C37.4021 15.3 37.7421 15.44 38.0021 15.72C38.2821 15.98 38.4221 16.33 38.4221 16.77C38.4221 17.17 38.2821 17.51 38.0021 17.79C37.7221 18.07 37.3821 18.21 36.9821 18.21ZM30.4721 21.63H43.5221V23.4H30.4721V21.63ZM36.9821 29.7C36.5821 29.7 36.2421 29.56 35.9621 29.28C35.7021 29 35.5721 28.65 35.5721 28.23C35.5721 27.81 35.7021 27.47 35.9621 27.21C36.2421 26.93 36.5821 26.79 36.9821 26.79C37.3821 26.79 37.7221 26.93 38.0021 27.21C38.2821 27.47 38.4221 27.81 38.4221 28.23C38.4221 28.65 38.2821 29 38.0021 29.28C37.7221 29.56 37.3821 29.7 36.9821 29.7Z" fill="#2F2F2F"/>
<path d="M13.148 4.4V17H10.808V6.362H8.144V4.4H13.148Z" fill="#2F2F2F"/>
<line x1="0.5" y1="23.5" x2="26.5" y2="23.5" stroke="#2F2F2F" stroke-linecap="round"/>
<path d="M16.918 41.02V43H7.63V41.434L12.634 36.682C13.198 36.142 13.576 35.674 13.768 35.278C13.972 34.87 14.074 34.468 14.074 34.072C14.074 33.484 13.876 33.034 13.48 32.722C13.084 32.41 12.502 32.254 11.734 32.254C10.45 32.254 9.466 32.692 8.782 33.568L7.144 32.308C7.636 31.648 8.296 31.138 9.124 30.778C9.964 30.406 10.9 30.22 11.932 30.22C13.3 30.22 14.392 30.544 15.208 31.192C16.024 31.84 16.432 32.722 16.432 33.838C16.432 34.522 16.288 35.164 16 35.764C15.712 36.364 15.16 37.048 14.344 37.816L10.978 41.02H16.918Z" fill="#2F2F2F"/>
<path d="M62.156 9.602C63.32 9.746 64.208 10.142 64.82 10.79C65.432 11.438 65.738 12.248 65.738 13.22C65.738 13.952 65.552 14.618 65.18 15.218C64.808 15.818 64.244 16.298 63.488 16.658C62.744 17.006 61.832 17.18 60.752 17.18C59.852 17.18 58.982 17.054 58.142 16.802C57.314 16.538 56.606 16.178 56.018 15.722L57.026 13.904C57.482 14.288 58.034 14.594 58.682 14.822C59.342 15.038 60.02 15.146 60.716 15.146C61.544 15.146 62.192 14.978 62.66 14.642C63.14 14.294 63.38 13.826 63.38 13.238C63.38 12.65 63.152 12.194 62.696 11.87C62.252 11.534 61.568 11.366 60.644 11.366H59.492V9.764L62.354 6.362H56.63V4.4H65.216V5.966L62.156 9.602Z" fill="#2F2F2F"/>
<line x1="48.5" y1="23.5" x2="74.5" y2="23.5" stroke="#2F2F2F" stroke-linecap="round"/>
<path d="M61.516 35.224C62.344 35.224 63.088 35.386 63.748 35.71C64.408 36.022 64.924 36.472 65.296 37.06C65.668 37.648 65.854 38.326 65.854 39.094C65.854 39.91 65.65 40.63 65.242 41.254C64.834 41.866 64.282 42.34 63.586 42.676C62.89 43.012 62.11 43.18 61.246 43.18C59.518 43.18 58.174 42.64 57.214 41.56C56.266 40.48 55.792 38.932 55.792 36.916C55.792 35.5 56.05 34.294 56.566 33.298C57.082 32.29 57.802 31.528 58.726 31.012C59.662 30.484 60.742 30.22 61.966 30.22C62.614 30.22 63.22 30.292 63.784 30.436C64.36 30.568 64.858 30.766 65.278 31.03L64.414 32.794C63.79 32.386 62.992 32.182 62.02 32.182C60.808 32.182 59.86 32.554 59.176 33.298C58.492 34.042 58.15 35.116 58.15 36.52V36.538C58.522 36.106 58.996 35.782 59.572 35.566C60.148 35.338 60.796 35.224 61.516 35.224ZM61.12 41.344C61.852 41.344 62.446 41.152 62.902 40.768C63.358 40.372 63.586 39.85 63.586 39.202C63.586 38.542 63.358 38.02 62.902 37.636C62.446 37.252 61.834 37.06 61.066 37.06C60.31 37.06 59.692 37.264 59.212 37.672C58.744 38.08 58.51 38.596 58.51 39.22C58.51 39.832 58.738 40.342 59.194 40.75C59.662 41.146 60.304 41.344 61.12 41.344Z" fill="#2F2F2F"/>
</svg>
