<svg width="345" height="252" viewBox="0 0 345 252" fill="none" xmlns="http://www.w3.org/2000/svg">
<rect x="27.5" y="40.5" width="220.212" height="136" fill="#ABE9FF" stroke="#0995E3"/>
<rect x="119.5" y="0.5" width="39" height="29" rx="4.5" fill="white"/>
<path d="M128.433 8.4V21H126.651V9.966H123.807V8.4H128.433ZM136.337 21.144C135.341 21.144 134.453 20.892 133.673 20.388C132.905 19.872 132.299 19.128 131.855 18.156C131.411 17.184 131.189 16.032 131.189 14.7C131.189 13.368 131.411 12.216 131.855 11.244C132.299 10.272 132.905 9.534 133.673 9.03C134.453 8.514 135.341 8.256 136.337 8.256C137.321 8.256 138.197 8.514 138.965 9.03C139.745 9.534 140.357 10.272 140.801 11.244C141.245 12.216 141.467 13.368 141.467 14.7C141.467 16.032 141.245 17.184 140.801 18.156C140.357 19.128 139.745 19.872 138.965 20.388C138.197 20.892 137.321 21.144 136.337 21.144ZM136.337 19.542C137.345 19.542 138.149 19.128 138.749 18.3C139.361 17.472 139.667 16.272 139.667 14.7C139.667 13.128 139.361 11.928 138.749 11.1C138.149 10.272 137.345 9.858 136.337 9.858C135.317 9.858 134.501 10.272 133.889 11.1C133.289 11.928 132.989 13.128 132.989 14.7C132.989 16.272 133.289 17.472 133.889 18.3C134.501 19.128 135.317 19.542 136.337 19.542ZM148.343 21.144C147.347 21.144 146.459 20.892 145.679 20.388C144.911 19.872 144.305 19.128 143.861 18.156C143.417 17.184 143.195 16.032 143.195 14.7C143.195 13.368 143.417 12.216 143.861 11.244C144.305 10.272 144.911 9.534 145.679 9.03C146.459 8.514 147.347 8.256 148.343 8.256C149.327 8.256 150.203 8.514 150.971 9.03C151.751 9.534 152.363 10.272 152.807 11.244C153.251 12.216 153.473 13.368 153.473 14.7C153.473 16.032 153.251 17.184 152.807 18.156C152.363 19.128 151.751 19.872 150.971 20.388C150.203 20.892 149.327 21.144 148.343 21.144ZM148.343 19.542C149.351 19.542 150.155 19.128 150.755 18.3C151.367 17.472 151.673 16.272 151.673 14.7C151.673 13.128 151.367 11.928 150.755 11.1C150.155 10.272 149.351 9.858 148.343 9.858C147.323 9.858 146.507 10.272 145.895 11.1C145.295 11.928 144.995 13.128 144.995 14.7C144.995 16.272 145.295 17.472 145.895 18.3C146.507 19.128 147.323 19.542 148.343 19.542Z" fill="#2F2F2F"/>
<rect x="119.5" y="0.5" width="39" height="29" rx="4.5" stroke="#2F2F2F"/>
<path d="M125.739 106.35C126.567 106.35 127.305 106.506 127.953 106.818C128.613 107.13 129.129 107.58 129.501 108.168C129.873 108.744 130.059 109.41 130.059 110.166C130.059 110.958 129.861 111.654 129.465 112.254C129.081 112.854 128.547 113.322 127.863 113.658C127.191 113.982 126.435 114.144 125.595 114.144C123.903 114.144 122.595 113.598 121.671 112.506C120.759 111.414 120.303 109.866 120.303 107.862C120.303 106.458 120.549 105.264 121.041 104.28C121.545 103.284 122.241 102.534 123.129 102.03C124.029 101.514 125.073 101.256 126.261 101.256C126.873 101.256 127.449 101.322 127.989 101.454C128.529 101.574 128.997 101.754 129.393 101.994L128.709 103.398C128.109 103.002 127.305 102.804 126.297 102.804C124.989 102.804 123.963 103.212 123.219 104.028C122.475 104.832 122.103 106.008 122.103 107.556C122.103 107.748 122.109 107.898 122.121 108.006C122.481 107.466 122.973 107.058 123.597 106.782C124.233 106.494 124.947 106.35 125.739 106.35ZM125.523 112.686C126.351 112.686 127.023 112.464 127.539 112.02C128.055 111.576 128.313 110.982 128.313 110.238C128.313 109.494 128.049 108.906 127.521 108.474C127.005 108.03 126.309 107.808 125.433 107.808C124.869 107.808 124.365 107.916 123.921 108.132C123.489 108.348 123.147 108.642 122.895 109.014C122.655 109.386 122.535 109.8 122.535 110.256C122.535 110.7 122.649 111.108 122.877 111.48C123.117 111.84 123.459 112.134 123.903 112.362C124.359 112.578 124.899 112.686 125.523 112.686ZM136.561 114.144C135.565 114.144 134.677 113.892 133.897 113.388C133.129 112.872 132.523 112.128 132.079 111.156C131.635 110.184 131.413 109.032 131.413 107.7C131.413 106.368 131.635 105.216 132.079 104.244C132.523 103.272 133.129 102.534 133.897 102.03C134.677 101.514 135.565 101.256 136.561 101.256C137.545 101.256 138.421 101.514 139.189 102.03C139.969 102.534 140.581 103.272 141.025 104.244C141.469 105.216 141.691 106.368 141.691 107.7C141.691 109.032 141.469 110.184 141.025 111.156C140.581 112.128 139.969 112.872 139.189 113.388C138.421 113.892 137.545 114.144 136.561 114.144ZM136.561 112.542C137.569 112.542 138.373 112.128 138.973 111.3C139.585 110.472 139.891 109.272 139.891 107.7C139.891 106.128 139.585 104.928 138.973 104.1C138.373 103.272 137.569 102.858 136.561 102.858C135.541 102.858 134.725 103.272 134.113 104.1C133.513 104.928 133.213 106.128 133.213 107.7C133.213 109.272 133.513 110.472 134.113 111.3C134.725 112.128 135.541 112.542 136.561 112.542ZM148.567 114.144C147.571 114.144 146.683 113.892 145.903 113.388C145.135 112.872 144.529 112.128 144.085 111.156C143.641 110.184 143.419 109.032 143.419 107.7C143.419 106.368 143.641 105.216 144.085 104.244C144.529 103.272 145.135 102.534 145.903 102.03C146.683 101.514 147.571 101.256 148.567 101.256C149.551 101.256 150.427 101.514 151.195 102.03C151.975 102.534 152.587 103.272 153.031 104.244C153.475 105.216 153.697 106.368 153.697 107.7C153.697 109.032 153.475 110.184 153.031 111.156C152.587 112.128 151.975 112.872 151.195 113.388C150.427 113.892 149.551 114.144 148.567 114.144ZM148.567 112.542C149.575 112.542 150.379 112.128 150.979 111.3C151.591 110.472 151.897 109.272 151.897 107.7C151.897 106.128 151.591 104.928 150.979 104.1C150.379 103.272 149.575 102.858 148.567 102.858C147.547 102.858 146.731 103.272 146.119 104.1C145.519 104.928 145.219 106.128 145.219 107.7C145.219 109.272 145.519 110.472 146.119 111.3C146.731 112.128 147.547 112.542 148.567 112.542Z" fill="#2F2F2F"/>
<path d="M323.745 106.35C324.573 106.35 325.311 106.506 325.959 106.818C326.619 107.13 327.135 107.58 327.507 108.168C327.879 108.744 328.065 109.41 328.065 110.166C328.065 110.958 327.867 111.654 327.471 112.254C327.087 112.854 326.553 113.322 325.869 113.658C325.197 113.982 324.441 114.144 323.601 114.144C321.909 114.144 320.601 113.598 319.677 112.506C318.765 111.414 318.309 109.866 318.309 107.862C318.309 106.458 318.555 105.264 319.047 104.28C319.551 103.284 320.247 102.534 321.135 102.03C322.035 101.514 323.079 101.256 324.267 101.256C324.879 101.256 325.455 101.322 325.995 101.454C326.535 101.574 327.003 101.754 327.399 101.994L326.715 103.398C326.115 103.002 325.311 102.804 324.303 102.804C322.995 102.804 321.969 103.212 321.225 104.028C320.481 104.832 320.109 106.008 320.109 107.556C320.109 107.748 320.115 107.898 320.127 108.006C320.487 107.466 320.979 107.058 321.603 106.782C322.239 106.494 322.953 106.35 323.745 106.35ZM323.529 112.686C324.357 112.686 325.029 112.464 325.545 112.02C326.061 111.576 326.319 110.982 326.319 110.238C326.319 109.494 326.055 108.906 325.527 108.474C325.011 108.03 324.315 107.808 323.439 107.808C322.875 107.808 322.371 107.916 321.927 108.132C321.495 108.348 321.153 108.642 320.901 109.014C320.661 109.386 320.541 109.8 320.541 110.256C320.541 110.7 320.655 111.108 320.883 111.48C321.123 111.84 321.465 112.134 321.909 112.362C322.365 112.578 322.905 112.686 323.529 112.686Z" fill="#2F2F2F"/>
<path d="M6.74531 106.35C7.57331 106.35 8.31131 106.506 8.95931 106.818C9.61931 107.13 10.1353 107.58 10.5073 108.168C10.8793 108.744 11.0653 109.41 11.0653 110.166C11.0653 110.958 10.8673 111.654 10.4713 112.254C10.0873 112.854 9.55331 113.322 8.86931 113.658C8.19731 113.982 7.44131 114.144 6.60131 114.144C4.90931 114.144 3.60131 113.598 2.67731 112.506C1.76531 111.414 1.30931 109.866 1.30931 107.862C1.30931 106.458 1.55531 105.264 2.04731 104.28C2.55131 103.284 3.24731 102.534 4.13531 102.03C5.03531 101.514 6.07931 101.256 7.26731 101.256C7.87931 101.256 8.45531 101.322 8.99531 101.454C9.53531 101.574 10.0033 101.754 10.3993 101.994L9.71531 103.398C9.11531 103.002 8.31131 102.804 7.30331 102.804C5.99531 102.804 4.96931 103.212 4.22531 104.028C3.48131 104.832 3.10931 106.008 3.10931 107.556C3.10931 107.748 3.11531 107.898 3.12731 108.006C3.48731 107.466 3.97931 107.058 4.60331 106.782C5.23931 106.494 5.95331 106.35 6.74531 106.35ZM6.52931 112.686C7.35731 112.686 8.02931 112.464 8.54531 112.02C9.06131 111.576 9.31931 110.982 9.31931 110.238C9.31931 109.494 9.05531 108.906 8.52731 108.474C8.01131 108.03 7.31531 107.808 6.43931 107.808C5.87531 107.808 5.37131 107.916 4.92731 108.132C4.49531 108.348 4.15331 108.642 3.90131 109.014C3.66131 109.386 3.54131 109.8 3.54131 110.256C3.54131 110.7 3.65531 111.108 3.88331 111.48C4.12331 111.84 4.46531 112.134 4.90931 112.362C5.36531 112.578 5.90531 112.686 6.52931 112.686Z" fill="#2F2F2F"/>
<rect x="254.5" y="40.5" width="90" height="136" fill="#C6FFAB" stroke="#09E31E"/>
<path d="M292.776 106.422C294.576 106.422 295.896 106.764 296.736 107.448C297.588 108.12 298.014 109.044 298.014 110.22C298.014 110.964 297.834 111.636 297.474 112.236C297.126 112.824 296.592 113.292 295.872 113.64C295.164 113.976 294.288 114.144 293.244 114.144C292.356 114.144 291.498 114.012 290.67 113.748C289.842 113.472 289.158 113.094 288.618 112.614L289.446 111.192C289.878 111.6 290.43 111.93 291.102 112.182C291.774 112.422 292.482 112.542 293.226 112.542C294.174 112.542 294.906 112.344 295.422 111.948C295.95 111.54 296.214 110.988 296.214 110.292C296.214 109.536 295.926 108.966 295.35 108.582C294.774 108.186 293.79 107.988 292.398 107.988H289.536L290.202 101.4H297.312V102.966H291.714L291.372 106.422H292.776ZM310.473 110.904H308.079V114H306.333V110.904H299.331V109.644L305.775 101.4H307.719L301.545 109.356H306.387V106.62H308.079V109.356H310.473V110.904Z" fill="#2F2F2F"/>
<rect x="278.5" y="0.5" width="39" height="29" rx="4.5" fill="white"/>
<path d="M297.395 8.256C299.087 8.256 300.389 8.802 301.301 9.894C302.225 10.986 302.687 12.534 302.687 14.538C302.687 15.942 302.435 17.142 301.931 18.138C301.439 19.122 300.743 19.872 299.843 20.388C298.955 20.892 297.917 21.144 296.729 21.144C296.117 21.144 295.541 21.084 295.001 20.964C294.461 20.832 293.993 20.646 293.597 20.406L294.281 19.002C294.893 19.398 295.703 19.596 296.711 19.596C298.019 19.596 299.039 19.194 299.771 18.39C300.515 17.574 300.887 16.392 300.887 14.844V14.394C300.527 14.934 300.029 15.348 299.393 15.636C298.757 15.912 298.043 16.05 297.251 16.05C296.423 16.05 295.679 15.894 295.019 15.582C294.371 15.27 293.861 14.826 293.489 14.25C293.129 13.662 292.949 12.99 292.949 12.234C292.949 11.442 293.141 10.746 293.525 10.146C293.921 9.546 294.455 9.084 295.127 8.76C295.799 8.424 296.555 8.256 297.395 8.256ZM297.557 14.592C298.121 14.592 298.625 14.484 299.069 14.268C299.513 14.052 299.855 13.758 300.095 13.386C300.347 13.014 300.473 12.6 300.473 12.144C300.473 11.7 300.353 11.298 300.113 10.938C299.885 10.566 299.543 10.272 299.087 10.056C298.643 9.828 298.103 9.714 297.467 9.714C296.639 9.714 295.967 9.936 295.451 10.38C294.947 10.824 294.695 11.418 294.695 12.162C294.695 12.906 294.953 13.5 295.469 13.944C295.985 14.376 296.681 14.592 297.557 14.592Z" fill="#2F2F2F"/>
<rect x="278.5" y="0.5" width="39" height="29" rx="4.5" stroke="#2F2F2F"/>
<path d="M137.775 235.35C138.603 235.35 139.341 235.506 139.989 235.818C140.649 236.13 141.165 236.58 141.537 237.168C141.909 237.744 142.095 238.41 142.095 239.166C142.095 239.958 141.897 240.654 141.501 241.254C141.117 241.854 140.583 242.322 139.899 242.658C139.227 242.982 138.471 243.144 137.631 243.144C135.939 243.144 134.631 242.598 133.707 241.506C132.795 240.414 132.339 238.866 132.339 236.862C132.339 235.458 132.585 234.264 133.077 233.28C133.581 232.284 134.277 231.534 135.165 231.03C136.065 230.514 137.109 230.256 138.297 230.256C138.909 230.256 139.485 230.322 140.025 230.454C140.565 230.574 141.033 230.754 141.429 230.994L140.745 232.398C140.145 232.002 139.341 231.804 138.333 231.804C137.025 231.804 135.999 232.212 135.255 233.028C134.511 233.832 134.139 235.008 134.139 236.556C134.139 236.748 134.145 236.898 134.157 237.006C134.517 236.466 135.009 236.058 135.633 235.782C136.269 235.494 136.983 235.35 137.775 235.35ZM137.559 241.686C138.387 241.686 139.059 241.464 139.575 241.02C140.091 240.576 140.349 239.982 140.349 239.238C140.349 238.494 140.085 237.906 139.557 237.474C139.041 237.03 138.345 236.808 137.469 236.808C136.905 236.808 136.401 236.916 135.957 237.132C135.525 237.348 135.183 237.642 134.931 238.014C134.691 238.386 134.571 238.8 134.571 239.256C134.571 239.7 134.685 240.108 134.913 240.48C135.153 240.84 135.495 241.134 135.939 241.362C136.395 241.578 136.935 241.686 137.559 241.686ZM147.048 235.422C148.848 235.422 150.168 235.764 151.008 236.448C151.86 237.12 152.286 238.044 152.286 239.22C152.286 239.964 152.106 240.636 151.746 241.236C151.398 241.824 150.864 242.292 150.144 242.64C149.436 242.976 148.56 243.144 147.516 243.144C146.628 243.144 145.77 243.012 144.942 242.748C144.114 242.472 143.43 242.094 142.89 241.614L143.718 240.192C144.15 240.6 144.702 240.93 145.374 241.182C146.046 241.422 146.754 241.542 147.498 241.542C148.446 241.542 149.178 241.344 149.694 240.948C150.222 240.54 150.486 239.988 150.486 239.292C150.486 238.536 150.198 237.966 149.622 237.582C149.046 237.186 148.062 236.988 146.67 236.988H143.808L144.474 230.4H151.584V231.966H145.986L145.644 235.422H147.048ZM164.746 239.904H162.352V243H160.606V239.904H153.604V238.644L160.048 230.4H161.992L155.818 238.356H160.66V235.62H162.352V238.356H164.746V239.904ZM175.033 234.234C174.745 234.234 174.499 234.132 174.295 233.928C174.103 233.712 174.007 233.454 174.007 233.154C174.007 232.842 174.103 232.584 174.295 232.38C174.499 232.176 174.745 232.074 175.033 232.074C175.333 232.074 175.579 232.176 175.771 232.38C175.975 232.584 176.077 232.842 176.077 233.154C176.077 233.466 175.975 233.724 175.771 233.928C175.579 234.132 175.333 234.234 175.033 234.234ZM171.001 235.998H179.065V237.42H171.001V235.998ZM175.033 241.326C174.745 241.326 174.499 241.224 174.295 241.02C174.103 240.804 174.007 240.54 174.007 240.228C174.007 239.928 174.103 239.676 174.295 239.472C174.499 239.268 174.745 239.166 175.033 239.166C175.333 239.166 175.579 239.268 175.771 239.472C175.975 239.676 176.077 239.928 176.077 240.228C176.077 240.54 175.975 240.804 175.771 241.02C175.579 241.224 175.333 241.326 175.033 241.326ZM191.405 235.35C192.233 235.35 192.971 235.506 193.619 235.818C194.279 236.13 194.795 236.58 195.167 237.168C195.539 237.744 195.725 238.41 195.725 239.166C195.725 239.958 195.527 240.654 195.131 241.254C194.747 241.854 194.213 242.322 193.529 242.658C192.857 242.982 192.101 243.144 191.261 243.144C189.569 243.144 188.261 242.598 187.337 241.506C186.425 240.414 185.969 238.866 185.969 236.862C185.969 235.458 186.215 234.264 186.707 233.28C187.211 232.284 187.907 231.534 188.795 231.03C189.695 230.514 190.739 230.256 191.927 230.256C192.539 230.256 193.115 230.322 193.655 230.454C194.195 230.574 194.663 230.754 195.059 230.994L194.375 232.398C193.775 232.002 192.971 231.804 191.963 231.804C190.655 231.804 189.629 232.212 188.885 233.028C188.141 233.832 187.769 235.008 187.769 236.556C187.769 236.748 187.775 236.898 187.787 237.006C188.147 236.466 188.639 236.058 189.263 235.782C189.899 235.494 190.613 235.35 191.405 235.35ZM191.189 241.686C192.017 241.686 192.689 241.464 193.205 241.02C193.721 240.576 193.979 239.982 193.979 239.238C193.979 238.494 193.715 237.906 193.187 237.474C192.671 237.03 191.975 236.808 191.099 236.808C190.535 236.808 190.031 236.916 189.587 237.132C189.155 237.348 188.813 237.642 188.561 238.014C188.321 238.386 188.201 238.8 188.201 239.256C188.201 239.7 188.315 240.108 188.543 240.48C188.783 240.84 189.125 241.134 189.569 241.362C190.025 241.578 190.565 241.686 191.189 241.686ZM202.255 233.856H210.319V235.278H202.255V233.856ZM202.255 238.122H210.319V239.544H202.255V238.122Z" fill="#2F2F2F"/>
<path d="M224.881 230.4V243H223.099V231.966H220.255V230.4H224.881ZM232.785 243.144C231.789 243.144 230.901 242.892 230.121 242.388C229.353 241.872 228.747 241.128 228.303 240.156C227.859 239.184 227.637 238.032 227.637 236.7C227.637 235.368 227.859 234.216 228.303 233.244C228.747 232.272 229.353 231.534 230.121 231.03C230.901 230.514 231.789 230.256 232.785 230.256C233.769 230.256 234.645 230.514 235.413 231.03C236.193 231.534 236.805 232.272 237.249 233.244C237.693 234.216 237.915 235.368 237.915 236.7C237.915 238.032 237.693 239.184 237.249 240.156C236.805 241.128 236.193 241.872 235.413 242.388C234.645 242.892 233.769 243.144 232.785 243.144ZM232.785 241.542C233.793 241.542 234.597 241.128 235.197 240.3C235.809 239.472 236.115 238.272 236.115 236.7C236.115 235.128 235.809 233.928 235.197 233.1C234.597 232.272 233.793 231.858 232.785 231.858C231.765 231.858 230.949 232.272 230.337 233.1C229.737 233.928 229.437 235.128 229.437 236.7C229.437 238.272 229.737 239.472 230.337 240.3C230.949 241.128 231.765 241.542 232.785 241.542ZM243.729 230.256C245.421 230.256 246.723 230.802 247.635 231.894C248.559 232.986 249.021 234.534 249.021 236.538C249.021 237.942 248.769 239.142 248.265 240.138C247.773 241.122 247.077 241.872 246.177 242.388C245.289 242.892 244.251 243.144 243.063 243.144C242.451 243.144 241.875 243.084 241.335 242.964C240.795 242.832 240.327 242.646 239.931 242.406L240.615 241.002C241.227 241.398 242.037 241.596 243.045 241.596C244.353 241.596 245.373 241.194 246.105 240.39C246.849 239.574 247.221 238.392 247.221 236.844V236.394C246.861 236.934 246.363 237.348 245.727 237.636C245.091 237.912 244.377 238.05 243.585 238.05C242.757 238.05 242.013 237.894 241.353 237.582C240.705 237.27 240.195 236.826 239.823 236.25C239.463 235.662 239.283 234.99 239.283 234.234C239.283 233.442 239.475 232.746 239.859 232.146C240.255 231.546 240.789 231.084 241.461 230.76C242.133 230.424 242.889 230.256 243.729 230.256ZM243.891 236.592C244.455 236.592 244.959 236.484 245.403 236.268C245.847 236.052 246.189 235.758 246.429 235.386C246.681 235.014 246.807 234.6 246.807 234.144C246.807 233.7 246.687 233.298 246.447 232.938C246.219 232.566 245.877 232.272 245.421 232.056C244.977 231.828 244.437 231.714 243.801 231.714C242.973 231.714 242.301 231.936 241.785 232.38C241.281 232.824 241.029 233.418 241.029 234.162C241.029 234.906 241.287 235.5 241.803 235.944C242.319 236.376 243.015 236.592 243.891 236.592Z" fill="#2F2F2F"/>
<path d="M220 223H250V221H220V223ZM254 227V247H256V227H254ZM250 251H220V253H250V251ZM216 247V227H214V247H216ZM220 251C217.791 251 216 249.209 216 247H214C214 250.314 216.686 253 220 253V251ZM254 247C254 249.209 252.209 251 250 251V253C253.314 253 256 250.314 256 247H254ZM250 223C252.209 223 254 224.791 254 227H256C256 223.686 253.314 221 250 221V223ZM220 221C216.686 221 214 223.686 214 227H216C216 224.791 217.791 223 220 223V221Z" fill="#2F2F2F"/>
</svg>
