<svg width="407" height="93" viewBox="0 0 407 93" fill="none" xmlns="http://www.w3.org/2000/svg">
<path d="M5.57203 18.4002V31.0002H3.79003V19.9662H0.946031V18.4002H5.57203ZM15.0061 31.1442C14.0101 31.1442 13.1221 30.8922 12.3421 30.3882C11.5741 29.8722 10.9681 29.1282 10.5241 28.1562C10.0801 27.1842 9.85814 26.0322 9.85814 24.7002C9.85814 23.3682 10.0801 22.2162 10.5241 21.2442C10.9681 20.2722 11.5741 19.5342 12.3421 19.0302C13.1221 18.5142 14.0101 18.2562 15.0061 18.2562C15.9901 18.2562 16.8661 18.5142 17.6341 19.0302C18.4141 19.5342 19.0261 20.2722 19.4701 21.2442C19.9141 22.2162 20.1361 23.3682 20.1361 24.7002C20.1361 26.0322 19.9141 27.1842 19.4701 28.1562C19.0261 29.1282 18.4141 29.8722 17.6341 30.3882C16.8661 30.8922 15.9901 31.1442 15.0061 31.1442ZM15.0061 29.5422C16.0141 29.5422 16.8181 29.1282 17.4181 28.3002C18.0301 27.4722 18.3361 26.2722 18.3361 24.7002C18.3361 23.1282 18.0301 21.9282 17.4181 21.1002C16.8181 20.2722 16.0141 19.8582 15.0061 19.8582C13.9861 19.8582 13.1701 20.2722 12.5581 21.1002C11.9581 21.9282 11.6581 23.1282 11.6581 24.7002C11.6581 26.2722 11.9581 27.4722 12.5581 28.3002C13.1701 29.1282 13.9861 29.5422 15.0061 29.5422Z" fill="#2F2F2F"/>
<path d="M63.206 21.8562H71.27V23.2782H63.206V21.8562ZM63.206 26.1222H71.27V27.5442H63.206V26.1222ZM85.1405 18.4002V31.0002H83.3585V19.9662H80.5145V18.4002H85.1405ZM94.5747 31.1442C93.5787 31.1442 92.6907 30.8922 91.9107 30.3882C91.1427 29.8722 90.5367 29.1282 90.0927 28.1562C89.6487 27.1842 89.4267 26.0322 89.4267 24.7002C89.4267 23.3682 89.6487 22.2162 90.0927 21.2442C90.5367 20.2722 91.1427 19.5342 91.9107 19.0302C92.6907 18.5142 93.5787 18.2562 94.5747 18.2562C95.5587 18.2562 96.4347 18.5142 97.2027 19.0302C97.9827 19.5342 98.5947 20.2722 99.0387 21.2442C99.4827 22.2162 99.7047 23.3682 99.7047 24.7002C99.7047 26.0322 99.4827 27.1842 99.0387 28.1562C98.5947 29.1282 97.9827 29.8722 97.2027 30.3882C96.4347 30.8922 95.5587 31.1442 94.5747 31.1442ZM94.5747 29.5422C95.5827 29.5422 96.3867 29.1282 96.9867 28.3002C97.5987 27.4722 97.9047 26.2722 97.9047 24.7002C97.9047 23.1282 97.5987 21.9282 96.9867 21.1002C96.3867 20.2722 95.5827 19.8582 94.5747 19.8582C93.5547 19.8582 92.7387 20.2722 92.1267 21.1002C91.5267 21.9282 91.2267 23.1282 91.2267 24.7002C91.2267 26.2722 91.5267 27.4722 92.1267 28.3002C92.7387 29.1282 93.5547 29.5422 94.5747 29.5422ZM108.111 31.1442C107.115 31.1442 106.227 30.8922 105.447 30.3882C104.679 29.8722 104.073 29.1282 103.629 28.1562C103.185 27.1842 102.963 26.0322 102.963 24.7002C102.963 23.3682 103.185 22.2162 103.629 21.2442C104.073 20.2722 104.679 19.5342 105.447 19.0302C106.227 18.5142 107.115 18.2562 108.111 18.2562C109.095 18.2562 109.971 18.5142 110.739 19.0302C111.519 19.5342 112.131 20.2722 112.575 21.2442C113.019 22.2162 113.241 23.3682 113.241 24.7002C113.241 26.0322 113.019 27.1842 112.575 28.1562C112.131 29.1282 111.519 29.8722 110.739 30.3882C109.971 30.8922 109.095 31.1442 108.111 31.1442ZM108.111 29.5422C109.119 29.5422 109.923 29.1282 110.523 28.3002C111.135 27.4722 111.441 26.2722 111.441 24.7002C111.441 23.1282 111.135 21.9282 110.523 21.1002C109.923 20.2722 109.119 19.8582 108.111 19.8582C107.091 19.8582 106.275 20.2722 105.663 21.1002C105.063 21.9282 104.763 23.1282 104.763 24.7002C104.763 26.2722 105.063 27.4722 105.663 28.3002C106.275 29.1282 107.091 29.5422 108.111 29.5422Z" fill="#2F2F2F"/>
<path d="M31.0051 1.05407L46.0654 1.01346L46.0551 -0.986511L30.9948 -0.945903L31.0051 1.05407ZM50.0859 5.00262L50.1425 16.0116L52.1425 16.0062L52.0859 4.99723L50.0859 5.00262ZM46.163 20.0223L31.1028 20.0629L31.1131 22.0629L46.1733 22.0223L46.163 20.0223ZM27.0823 16.0737L27.0257 5.0648L25.0257 5.07019L25.0823 16.0791L27.0823 16.0737ZM31.1028 20.0629C28.8937 20.0689 27.0936 18.2828 27.0823 16.0737L25.0823 16.0791C25.0993 19.3928 27.7994 22.0718 31.1131 22.0629L31.1028 20.0629ZM50.1425 16.0116C50.1538 18.2207 48.3722 20.0163 46.163 20.0223L46.1733 22.0223C49.487 22.0133 52.1595 19.3198 52.1425 16.0062L50.1425 16.0116ZM46.0654 1.01346C48.2745 1.00751 50.0745 2.79351 50.0859 5.00262L52.0859 4.99723C52.0689 1.68357 49.3688 -0.995446 46.0551 -0.986511L46.0654 1.01346ZM30.9948 -0.945903C27.6811 -0.936968 25.0087 1.75653 25.0257 5.07019L27.0257 5.0648C27.0143 2.85569 28.796 1.06003 31.0051 1.05407L30.9948 -0.945903Z" fill="#2F2F2F"/>
<path d="M5.57203 77.4002V90.0002H3.79003V78.9662H0.946031V77.4002H5.57203ZM15.0061 90.1442C14.0101 90.1442 13.1221 89.8922 12.3421 89.3882C11.5741 88.8722 10.9681 88.1282 10.5241 87.1562C10.0801 86.1842 9.85814 85.0322 9.85814 83.7002C9.85814 82.3682 10.0801 81.2162 10.5241 80.2442C10.9681 79.2722 11.5741 78.5342 12.3421 78.0302C13.1221 77.5142 14.0101 77.2562 15.0061 77.2562C15.9901 77.2562 16.8661 77.5142 17.6341 78.0302C18.4141 78.5342 19.0261 79.2722 19.4701 80.2442C19.9141 81.2162 20.1361 82.3682 20.1361 83.7002C20.1361 85.0322 19.9141 86.1842 19.4701 87.1562C19.0261 88.1282 18.4141 88.8722 17.6341 89.3882C16.8661 89.8922 15.9901 90.1442 15.0061 90.1442ZM15.0061 88.5422C16.0141 88.5422 16.8181 88.1282 17.4181 87.3002C18.0301 86.4722 18.3361 85.2722 18.3361 83.7002C18.3361 82.1282 18.0301 80.9282 17.4181 80.1002C16.8181 79.2722 16.0141 78.8582 15.0061 78.8582C13.9861 78.8582 13.1701 79.2722 12.5581 80.1002C11.9581 80.9282 11.6581 82.1282 11.6581 83.7002C11.6581 85.2722 11.9581 86.4722 12.5581 87.3002C13.1701 88.1282 13.9861 88.5422 15.0061 88.5422Z" fill="#2F2F2F"/>
<path d="M63.206 80.8562H71.27V82.2782H63.206V80.8562ZM63.206 85.1222H71.27V86.5442H63.206V85.1222ZM85.1405 77.4002V90.0002H83.3585V78.9662H80.5145V77.4002H85.1405ZM90.6327 87.6422C90.9687 87.6422 91.2447 87.7622 91.4607 88.0022C91.6887 88.2302 91.8027 88.5182 91.8027 88.8662C91.8027 89.0462 91.7787 89.2202 91.7307 89.3882C91.6947 89.5562 91.6167 89.8142 91.4967 90.1622L90.6507 92.6642H89.5167L90.1827 89.9822C89.9547 89.8982 89.7687 89.7602 89.6247 89.5682C89.4927 89.3642 89.4267 89.1302 89.4267 88.8662C89.4267 88.5062 89.5407 88.2122 89.7687 87.9842C89.9967 87.7562 90.2847 87.6422 90.6327 87.6422ZM106.547 90.1442C105.551 90.1442 104.663 89.8922 103.883 89.3882C103.115 88.8722 102.509 88.1282 102.065 87.1562C101.621 86.1842 101.399 85.0322 101.399 83.7002C101.399 82.3682 101.621 81.2162 102.065 80.2442C102.509 79.2722 103.115 78.5342 103.883 78.0302C104.663 77.5142 105.551 77.2562 106.547 77.2562C107.531 77.2562 108.407 77.5142 109.175 78.0302C109.955 78.5342 110.567 79.2722 111.011 80.2442C111.455 81.2162 111.677 82.3682 111.677 83.7002C111.677 85.0322 111.455 86.1842 111.011 87.1562C110.567 88.1282 109.955 88.8722 109.175 89.3882C108.407 89.8922 107.531 90.1442 106.547 90.1442ZM106.547 88.5422C107.555 88.5422 108.359 88.1282 108.959 87.3002C109.571 86.4722 109.877 85.2722 109.877 83.7002C109.877 82.1282 109.571 80.9282 108.959 80.1002C108.359 79.2722 107.555 78.8582 106.547 78.8582C105.527 78.8582 104.711 79.2722 104.099 80.1002C103.499 80.9282 103.199 82.1282 103.199 83.7002C103.199 85.2722 103.499 86.4722 104.099 87.3002C104.711 88.1282 105.527 88.5422 106.547 88.5422ZM120.083 90.1442C119.087 90.1442 118.199 89.8922 117.419 89.3882C116.651 88.8722 116.045 88.1282 115.601 87.1562C115.157 86.1842 114.935 85.0322 114.935 83.7002C114.935 82.3682 115.157 81.2162 115.601 80.2442C116.045 79.2722 116.651 78.5342 117.419 78.0302C118.199 77.5142 119.087 77.2562 120.083 77.2562C121.067 77.2562 121.943 77.5142 122.711 78.0302C123.491 78.5342 124.103 79.2722 124.547 80.2442C124.991 81.2162 125.213 82.3682 125.213 83.7002C125.213 85.0322 124.991 86.1842 124.547 87.1562C124.103 88.1282 123.491 88.8722 122.711 89.3882C121.943 89.8922 121.067 90.1442 120.083 90.1442ZM120.083 88.5422C121.091 88.5422 121.895 88.1282 122.495 87.3002C123.107 86.4722 123.413 85.2722 123.413 83.7002C123.413 82.1282 123.107 80.9282 122.495 80.1002C121.895 79.2722 121.091 78.8582 120.083 78.8582C119.063 78.8582 118.247 79.2722 117.635 80.1002C117.035 80.9282 116.735 82.1282 116.735 83.7002C116.735 85.2722 117.035 86.4722 117.635 87.3002C118.247 88.1282 119.063 88.5422 120.083 88.5422ZM133.618 90.1442C132.622 90.1442 131.734 89.8922 130.954 89.3882C130.186 88.8722 129.58 88.1282 129.136 87.1562C128.692 86.1842 128.47 85.0322 128.47 83.7002C128.47 82.3682 128.692 81.2162 129.136 80.2442C129.58 79.2722 130.186 78.5342 130.954 78.0302C131.734 77.5142 132.622 77.2562 133.618 77.2562C134.602 77.2562 135.478 77.5142 136.246 78.0302C137.026 78.5342 137.638 79.2722 138.082 80.2442C138.526 81.2162 138.748 82.3682 138.748 83.7002C138.748 85.0322 138.526 86.1842 138.082 87.1562C137.638 88.1282 137.026 88.8722 136.246 89.3882C135.478 89.8922 134.602 90.1442 133.618 90.1442ZM133.618 88.5422C134.626 88.5422 135.43 88.1282 136.03 87.3002C136.642 86.4722 136.948 85.2722 136.948 83.7002C136.948 82.1282 136.642 80.9282 136.03 80.1002C135.43 79.2722 134.626 78.8582 133.618 78.8582C132.598 78.8582 131.782 79.2722 131.17 80.1002C130.57 80.9282 130.27 82.1282 130.27 83.7002C130.27 85.2722 130.57 86.4722 131.17 87.3002C131.782 88.1282 132.598 88.5422 133.618 88.5422Z" fill="#2F2F2F"/>
<path d="M31.0051 60.0541L46.0654 60.0135L46.0551 58.0135L30.9948 58.0541L31.0051 60.0541ZM50.0859 64.0026L50.1425 75.0116L52.1425 75.0062L52.0859 63.9972L50.0859 64.0026ZM46.163 79.0223L31.1028 79.0629L31.1131 81.0629L46.1733 81.0223L46.163 79.0223ZM27.0823 75.0737L27.0257 64.0648L25.0257 64.0702L25.0823 75.0791L27.0823 75.0737ZM31.1028 79.0629C28.8937 79.0689 27.0936 77.2828 27.0823 75.0737L25.0823 75.0791C25.0993 78.3928 27.7994 81.0718 31.1131 81.0629L31.1028 79.0629ZM50.1425 75.0116C50.1538 77.2207 48.3722 79.0163 46.163 79.0223L46.1733 81.0223C49.487 81.0133 52.1595 78.3198 52.1425 75.0062L50.1425 75.0116ZM46.0654 60.0135C48.2745 60.0075 50.0745 61.7935 50.0859 64.0026L52.0859 63.9972C52.0689 60.6836 49.3688 58.0046 46.0551 58.0135L46.0654 60.0135ZM30.9948 58.0541C27.6811 58.063 25.0087 60.7565 25.0257 64.0702L27.0257 64.0648C27.0143 61.8557 28.796 60.06 31.0051 60.0541L30.9948 58.0541Z" fill="#2F2F2F"/>
<path d="M245.572 18.4002V31.0002H243.79V19.9662H240.946V18.4002H245.572ZM255.006 31.1442C254.01 31.1442 253.122 30.8922 252.342 30.3882C251.574 29.8722 250.968 29.1282 250.524 28.1562C250.08 27.1842 249.858 26.0322 249.858 24.7002C249.858 23.3682 250.08 22.2162 250.524 21.2442C250.968 20.2722 251.574 19.5342 252.342 19.0302C253.122 18.5142 254.01 18.2562 255.006 18.2562C255.99 18.2562 256.866 18.5142 257.634 19.0302C258.414 19.5342 259.026 20.2722 259.47 21.2442C259.914 22.2162 260.136 23.3682 260.136 24.7002C260.136 26.0322 259.914 27.1842 259.47 28.1562C259.026 29.1282 258.414 29.8722 257.634 30.3882C256.866 30.8922 255.99 31.1442 255.006 31.1442ZM255.006 29.5422C256.014 29.5422 256.818 29.1282 257.418 28.3002C258.03 27.4722 258.336 26.2722 258.336 24.7002C258.336 23.1282 258.03 21.9282 257.418 21.1002C256.818 20.2722 256.014 19.8582 255.006 19.8582C253.986 19.8582 253.17 20.2722 252.558 21.1002C251.958 21.9282 251.658 23.1282 251.658 24.7002C251.658 26.2722 251.958 27.4722 252.558 28.3002C253.17 29.1282 253.986 29.5422 255.006 29.5422Z" fill="#2F2F2F"/>
<path d="M303.206 21.8562H311.27V23.2782H303.206V21.8562ZM303.206 26.1222H311.27V27.5442H303.206V26.1222ZM325.141 18.4002V31.0002H323.359V19.9662H320.515V18.4002H325.141ZM334.575 31.1442C333.579 31.1442 332.691 30.8922 331.911 30.3882C331.143 29.8722 330.537 29.1282 330.093 28.1562C329.649 27.1842 329.427 26.0322 329.427 24.7002C329.427 23.3682 329.649 22.2162 330.093 21.2442C330.537 20.2722 331.143 19.5342 331.911 19.0302C332.691 18.5142 333.579 18.2562 334.575 18.2562C335.559 18.2562 336.435 18.5142 337.203 19.0302C337.983 19.5342 338.595 20.2722 339.039 21.2442C339.483 22.2162 339.705 23.3682 339.705 24.7002C339.705 26.0322 339.483 27.1842 339.039 28.1562C338.595 29.1282 337.983 29.8722 337.203 30.3882C336.435 30.8922 335.559 31.1442 334.575 31.1442ZM334.575 29.5422C335.583 29.5422 336.387 29.1282 336.987 28.3002C337.599 27.4722 337.905 26.2722 337.905 24.7002C337.905 23.1282 337.599 21.9282 336.987 21.1002C336.387 20.2722 335.583 19.8582 334.575 19.8582C333.555 19.8582 332.739 20.2722 332.127 21.1002C331.527 21.9282 331.227 23.1282 331.227 24.7002C331.227 26.2722 331.527 27.4722 332.127 28.3002C332.739 29.1282 333.555 29.5422 334.575 29.5422ZM343.958 28.6422C344.294 28.6422 344.57 28.7622 344.786 29.0022C345.014 29.2302 345.128 29.5182 345.128 29.8662C345.128 30.0462 345.104 30.2202 345.056 30.3882C345.02 30.5562 344.942 30.8142 344.822 31.1622L343.976 33.6642H342.842L343.508 30.9822C343.28 30.8982 343.094 30.7602 342.95 30.5682C342.818 30.3642 342.752 30.1302 342.752 29.8662C342.752 29.5062 342.866 29.2122 343.094 28.9842C343.322 28.7562 343.61 28.6422 343.958 28.6422ZM359.872 31.1442C358.876 31.1442 357.988 30.8922 357.208 30.3882C356.44 29.8722 355.834 29.1282 355.39 28.1562C354.946 27.1842 354.724 26.0322 354.724 24.7002C354.724 23.3682 354.946 22.2162 355.39 21.2442C355.834 20.2722 356.44 19.5342 357.208 19.0302C357.988 18.5142 358.876 18.2562 359.872 18.2562C360.856 18.2562 361.732 18.5142 362.5 19.0302C363.28 19.5342 363.892 20.2722 364.336 21.2442C364.78 22.2162 365.002 23.3682 365.002 24.7002C365.002 26.0322 364.78 27.1842 364.336 28.1562C363.892 29.1282 363.28 29.8722 362.5 30.3882C361.732 30.8922 360.856 31.1442 359.872 31.1442ZM359.872 29.5422C360.88 29.5422 361.684 29.1282 362.284 28.3002C362.896 27.4722 363.202 26.2722 363.202 24.7002C363.202 23.1282 362.896 21.9282 362.284 21.1002C361.684 20.2722 360.88 19.8582 359.872 19.8582C358.852 19.8582 358.036 20.2722 357.424 21.1002C356.824 21.9282 356.524 23.1282 356.524 24.7002C356.524 26.2722 356.824 27.4722 357.424 28.3002C358.036 29.1282 358.852 29.5422 359.872 29.5422ZM373.408 31.1442C372.412 31.1442 371.524 30.8922 370.744 30.3882C369.976 29.8722 369.37 29.1282 368.926 28.1562C368.482 27.1842 368.26 26.0322 368.26 24.7002C368.26 23.3682 368.482 22.2162 368.926 21.2442C369.37 20.2722 369.976 19.5342 370.744 19.0302C371.524 18.5142 372.412 18.2562 373.408 18.2562C374.392 18.2562 375.268 18.5142 376.036 19.0302C376.816 19.5342 377.428 20.2722 377.872 21.2442C378.316 22.2162 378.538 23.3682 378.538 24.7002C378.538 26.0322 378.316 27.1842 377.872 28.1562C377.428 29.1282 376.816 29.8722 376.036 30.3882C375.268 30.8922 374.392 31.1442 373.408 31.1442ZM373.408 29.5422C374.416 29.5422 375.22 29.1282 375.82 28.3002C376.432 27.4722 376.738 26.2722 376.738 24.7002C376.738 23.1282 376.432 21.9282 375.82 21.1002C375.22 20.2722 374.416 19.8582 373.408 19.8582C372.388 19.8582 371.572 20.2722 370.96 21.1002C370.36 21.9282 370.06 23.1282 370.06 24.7002C370.06 26.2722 370.36 27.4722 370.96 28.3002C371.572 29.1282 372.388 29.5422 373.408 29.5422ZM386.943 31.1442C385.947 31.1442 385.059 30.8922 384.279 30.3882C383.511 29.8722 382.905 29.1282 382.461 28.1562C382.017 27.1842 381.795 26.0322 381.795 24.7002C381.795 23.3682 382.017 22.2162 382.461 21.2442C382.905 20.2722 383.511 19.5342 384.279 19.0302C385.059 18.5142 385.947 18.2562 386.943 18.2562C387.927 18.2562 388.803 18.5142 389.571 19.0302C390.351 19.5342 390.963 20.2722 391.407 21.2442C391.851 22.2162 392.073 23.3682 392.073 24.7002C392.073 26.0322 391.851 27.1842 391.407 28.1562C390.963 29.1282 390.351 29.8722 389.571 30.3882C388.803 30.8922 387.927 31.1442 386.943 31.1442ZM386.943 29.5422C387.951 29.5422 388.755 29.1282 389.355 28.3002C389.967 27.4722 390.273 26.2722 390.273 24.7002C390.273 23.1282 389.967 21.9282 389.355 21.1002C388.755 20.2722 387.951 19.8582 386.943 19.8582C385.923 19.8582 385.107 20.2722 384.495 21.1002C383.895 21.9282 383.595 23.1282 383.595 24.7002C383.595 26.2722 383.895 27.4722 384.495 28.3002C385.107 29.1282 385.923 29.5422 386.943 29.5422Z" fill="#2F2F2F"/>
<path d="M271.005 1.05407L286.065 1.01346L286.055 -0.986511L270.995 -0.945903L271.005 1.05407ZM290.086 5.00262L290.142 16.0116L292.142 16.0062L292.086 4.99723L290.086 5.00262ZM286.163 20.0223L271.103 20.0629L271.113 22.0629L286.173 22.0223L286.163 20.0223ZM267.082 16.0737L267.026 5.0648L265.026 5.07019L265.082 16.0791L267.082 16.0737ZM271.103 20.0629C268.894 20.0689 267.094 18.2828 267.082 16.0737L265.082 16.0791C265.099 19.3928 267.799 22.0718 271.113 22.0629L271.103 20.0629ZM290.142 16.0116C290.154 18.2207 288.372 20.0163 286.163 20.0223L286.173 22.0223C289.487 22.0133 292.159 19.3198 292.142 16.0062L290.142 16.0116ZM286.065 1.01346C288.274 1.00751 290.075 2.79351 290.086 5.00262L292.086 4.99723C292.069 1.68357 289.369 -0.995446 286.055 -0.986511L286.065 1.01346ZM270.995 -0.945903C267.681 -0.936968 265.009 1.75653 265.026 5.07019L267.026 5.0648C267.014 2.85569 268.796 1.06003 271.005 1.05407L270.995 -0.945903Z" fill="#2F2F2F"/>
<path d="M245.572 77.4002V90.0002H243.79V78.9662H240.946V77.4002H245.572ZM255.006 90.1442C254.01 90.1442 253.122 89.8922 252.342 89.3882C251.574 88.8722 250.968 88.1282 250.524 87.1562C250.08 86.1842 249.858 85.0322 249.858 83.7002C249.858 82.3682 250.08 81.2162 250.524 80.2442C250.968 79.2722 251.574 78.5342 252.342 78.0302C253.122 77.5142 254.01 77.2562 255.006 77.2562C255.99 77.2562 256.866 77.5142 257.634 78.0302C258.414 78.5342 259.026 79.2722 259.47 80.2442C259.914 81.2162 260.136 82.3682 260.136 83.7002C260.136 85.0322 259.914 86.1842 259.47 87.1562C259.026 88.1282 258.414 88.8722 257.634 89.3882C256.866 89.8922 255.99 90.1442 255.006 90.1442ZM255.006 88.5422C256.014 88.5422 256.818 88.1282 257.418 87.3002C258.03 86.4722 258.336 85.2722 258.336 83.7002C258.336 82.1282 258.03 80.9282 257.418 80.1002C256.818 79.2722 256.014 78.8582 255.006 78.8582C253.986 78.8582 253.17 79.2722 252.558 80.1002C251.958 80.9282 251.658 82.1282 251.658 83.7002C251.658 85.2722 251.958 86.4722 252.558 87.3002C253.17 88.1282 253.986 88.5422 255.006 88.5422Z" fill="#2F2F2F"/>
<path d="M303.206 80.8562H311.27V82.2782H303.206V80.8562ZM303.206 85.1222H311.27V86.5442H303.206V85.1222ZM325.141 77.4002V90.0002H323.359V78.9662H320.515V77.4002H325.141ZM334.575 90.1442C333.579 90.1442 332.691 89.8922 331.911 89.3882C331.143 88.8722 330.537 88.1282 330.093 87.1562C329.649 86.1842 329.427 85.0322 329.427 83.7002C329.427 82.3682 329.649 81.2162 330.093 80.2442C330.537 79.2722 331.143 78.5342 331.911 78.0302C332.691 77.5142 333.579 77.2562 334.575 77.2562C335.559 77.2562 336.435 77.5142 337.203 78.0302C337.983 78.5342 338.595 79.2722 339.039 80.2442C339.483 81.2162 339.705 82.3682 339.705 83.7002C339.705 85.0322 339.483 86.1842 339.039 87.1562C338.595 88.1282 337.983 88.8722 337.203 89.3882C336.435 89.8922 335.559 90.1442 334.575 90.1442ZM334.575 88.5422C335.583 88.5422 336.387 88.1282 336.987 87.3002C337.599 86.4722 337.905 85.2722 337.905 83.7002C337.905 82.1282 337.599 80.9282 336.987 80.1002C336.387 79.2722 335.583 78.8582 334.575 78.8582C333.555 78.8582 332.739 79.2722 332.127 80.1002C331.527 80.9282 331.227 82.1282 331.227 83.7002C331.227 85.2722 331.527 86.4722 332.127 87.3002C332.739 88.1282 333.555 88.5422 334.575 88.5422ZM348.111 90.1442C347.115 90.1442 346.227 89.8922 345.447 89.3882C344.679 88.8722 344.073 88.1282 343.629 87.1562C343.185 86.1842 342.963 85.0322 342.963 83.7002C342.963 82.3682 343.185 81.2162 343.629 80.2442C344.073 79.2722 344.679 78.5342 345.447 78.0302C346.227 77.5142 347.115 77.2562 348.111 77.2562C349.095 77.2562 349.971 77.5142 350.739 78.0302C351.519 78.5342 352.131 79.2722 352.575 80.2442C353.019 81.2162 353.241 82.3682 353.241 83.7002C353.241 85.0322 353.019 86.1842 352.575 87.1562C352.131 88.1282 351.519 88.8722 350.739 89.3882C349.971 89.8922 349.095 90.1442 348.111 90.1442ZM348.111 88.5422C349.119 88.5422 349.923 88.1282 350.523 87.3002C351.135 86.4722 351.441 85.2722 351.441 83.7002C351.441 82.1282 351.135 80.9282 350.523 80.1002C349.923 79.2722 349.119 78.8582 348.111 78.8582C347.091 78.8582 346.275 79.2722 345.663 80.1002C345.063 80.9282 344.763 82.1282 344.763 83.7002C344.763 85.2722 345.063 86.4722 345.663 87.3002C346.275 88.1282 347.091 88.5422 348.111 88.5422ZM357.493 87.6422C357.829 87.6422 358.105 87.7622 358.321 88.0022C358.549 88.2302 358.663 88.5182 358.663 88.8662C358.663 89.0462 358.639 89.2202 358.591 89.3882C358.555 89.5562 358.477 89.8142 358.357 90.1622L357.511 92.6642H356.377L357.043 89.9822C356.815 89.8982 356.629 89.7602 356.485 89.5682C356.353 89.3642 356.287 89.1302 356.287 88.8662C356.287 88.5062 356.401 88.2122 356.629 87.9842C356.857 87.7562 357.145 87.6422 357.493 87.6422ZM373.408 90.1442C372.412 90.1442 371.524 89.8922 370.744 89.3882C369.976 88.8722 369.37 88.1282 368.926 87.1562C368.482 86.1842 368.26 85.0322 368.26 83.7002C368.26 82.3682 368.482 81.2162 368.926 80.2442C369.37 79.2722 369.976 78.5342 370.744 78.0302C371.524 77.5142 372.412 77.2562 373.408 77.2562C374.392 77.2562 375.268 77.5142 376.036 78.0302C376.816 78.5342 377.428 79.2722 377.872 80.2442C378.316 81.2162 378.538 82.3682 378.538 83.7002C378.538 85.0322 378.316 86.1842 377.872 87.1562C377.428 88.1282 376.816 88.8722 376.036 89.3882C375.268 89.8922 374.392 90.1442 373.408 90.1442ZM373.408 88.5422C374.416 88.5422 375.22 88.1282 375.82 87.3002C376.432 86.4722 376.738 85.2722 376.738 83.7002C376.738 82.1282 376.432 80.9282 375.82 80.1002C375.22 79.2722 374.416 78.8582 373.408 78.8582C372.388 78.8582 371.572 79.2722 370.96 80.1002C370.36 80.9282 370.06 82.1282 370.06 83.7002C370.06 85.2722 370.36 86.4722 370.96 87.3002C371.572 88.1282 372.388 88.5422 373.408 88.5422ZM386.943 90.1442C385.947 90.1442 385.059 89.8922 384.279 89.3882C383.511 88.8722 382.905 88.1282 382.461 87.1562C382.017 86.1842 381.795 85.0322 381.795 83.7002C381.795 82.3682 382.017 81.2162 382.461 80.2442C382.905 79.2722 383.511 78.5342 384.279 78.0302C385.059 77.5142 385.947 77.2562 386.943 77.2562C387.927 77.2562 388.803 77.5142 389.571 78.0302C390.351 78.5342 390.963 79.2722 391.407 80.2442C391.851 81.2162 392.073 82.3682 392.073 83.7002C392.073 85.0322 391.851 86.1842 391.407 87.1562C390.963 88.1282 390.351 88.8722 389.571 89.3882C388.803 89.8922 387.927 90.1442 386.943 90.1442ZM386.943 88.5422C387.951 88.5422 388.755 88.1282 389.355 87.3002C389.967 86.4722 390.273 85.2722 390.273 83.7002C390.273 82.1282 389.967 80.9282 389.355 80.1002C388.755 79.2722 387.951 78.8582 386.943 78.8582C385.923 78.8582 385.107 79.2722 384.495 80.1002C383.895 80.9282 383.595 82.1282 383.595 83.7002C383.595 85.2722 383.895 86.4722 384.495 87.3002C385.107 88.1282 385.923 88.5422 386.943 88.5422ZM400.479 90.1442C399.483 90.1442 398.595 89.8922 397.815 89.3882C397.047 88.8722 396.441 88.1282 395.997 87.1562C395.553 86.1842 395.331 85.0322 395.331 83.7002C395.331 82.3682 395.553 81.2162 395.997 80.2442C396.441 79.2722 397.047 78.5342 397.815 78.0302C398.595 77.5142 399.483 77.2562 400.479 77.2562C401.463 77.2562 402.339 77.5142 403.107 78.0302C403.887 78.5342 404.499 79.2722 404.943 80.2442C405.387 81.2162 405.609 82.3682 405.609 83.7002C405.609 85.0322 405.387 86.1842 404.943 87.1562C404.499 88.1282 403.887 88.8722 403.107 89.3882C402.339 89.8922 401.463 90.1442 400.479 90.1442ZM400.479 88.5422C401.487 88.5422 402.291 88.1282 402.891 87.3002C403.503 86.4722 403.809 85.2722 403.809 83.7002C403.809 82.1282 403.503 80.9282 402.891 80.1002C402.291 79.2722 401.487 78.8582 400.479 78.8582C399.459 78.8582 398.643 79.2722 398.031 80.1002C397.431 80.9282 397.131 82.1282 397.131 83.7002C397.131 85.2722 397.431 86.4722 398.031 87.3002C398.643 88.1282 399.459 88.5422 400.479 88.5422Z" fill="#2F2F2F"/>
<path d="M271.005 60.0541L286.065 60.0135L286.055 58.0135L270.995 58.0541L271.005 60.0541ZM290.086 64.0026L290.142 75.0116L292.142 75.0062L292.086 63.9972L290.086 64.0026ZM286.163 79.0223L271.103 79.0629L271.113 81.0629L286.173 81.0223L286.163 79.0223ZM267.082 75.0737L267.026 64.0648L265.026 64.0702L265.082 75.0791L267.082 75.0737ZM271.103 79.0629C268.894 79.0689 267.094 77.2828 267.082 75.0737L265.082 75.0791C265.099 78.3928 267.799 81.0718 271.113 81.0629L271.103 79.0629ZM290.142 75.0116C290.154 77.2207 288.372 79.0163 286.163 79.0223L286.173 81.0223C289.487 81.0133 292.159 78.3198 292.142 75.0062L290.142 75.0116ZM286.065 60.0135C288.274 60.0075 290.075 61.7935 290.086 64.0026L292.086 63.9972C292.069 60.6836 289.369 58.0046 286.055 58.0135L286.065 60.0135ZM270.995 58.0541C267.681 58.063 265.009 60.7565 265.026 64.0702L267.026 64.0648C267.014 61.8557 268.796 60.06 271.005 60.0541L270.995 58.0541Z" fill="#2F2F2F"/>
<path d="M44.3841 15.4342V17.0002H35.3301V15.7762L40.4601 10.8262C41.0841 10.2262 41.5041 9.71018 41.7201 9.27818C41.9361 8.83418 42.0441 8.39018 42.0441 7.94618C42.0441 7.28618 41.8101 6.77618 41.3421 6.41618C40.8861 6.04418 40.2261 5.85818 39.3621 5.85818C37.9701 5.85818 36.8961 6.31418 36.1401 7.22618L34.9161 6.16418C35.4081 5.56418 36.0501 5.09618 36.8421 4.76018C37.6461 4.42418 38.5401 4.25618 39.5241 4.25618C40.8441 4.25618 41.8941 4.57418 42.6741 5.21018C43.4541 5.83418 43.8441 6.68618 43.8441 7.76618C43.8441 8.43818 43.7001 9.07418 43.4121 9.67418C43.1241 10.2742 42.5781 10.9582 41.7741 11.7262L37.9221 15.4342H44.3841Z" fill="#2F2F2F"/>
<path d="M39.3872 67.6922C40.6232 67.8122 41.5652 68.1962 42.2132 68.8442C42.8612 69.4802 43.1852 70.2962 43.1852 71.2922C43.1852 72.0122 43.0052 72.6662 42.6452 73.2542C42.2852 73.8302 41.7452 74.2922 41.0252 74.6402C40.3172 74.9762 39.4472 75.1442 38.4152 75.1442C37.5152 75.1442 36.6512 75.0122 35.8232 74.7482C34.9952 74.4722 34.3172 74.0942 33.7892 73.6142L34.6172 72.1922C35.0492 72.6002 35.6012 72.9302 36.2732 73.1822C36.9452 73.4222 37.6592 73.5422 38.4152 73.5422C39.3512 73.5422 40.0772 73.3442 40.5932 72.9482C41.1212 72.5522 41.3852 72.0062 41.3852 71.3102C41.3852 70.6142 41.1272 70.0742 40.6112 69.6902C40.0952 69.3062 39.3152 69.1142 38.2712 69.1142H37.2632V67.8542L40.4312 63.9662H34.3652V62.4002H42.6812V63.6242L39.3872 67.6922Z" fill="#2F2F2F"/>
<path d="M285.785 14.9042H283.391V18.0002H281.645V14.9042H274.643V13.6442L281.087 5.40018H283.031L276.857 13.3562H281.699V10.6202H283.391V13.3562H285.785V14.9042Z" fill="#2F2F2F"/>
<path d="M278.128 68.4222C279.928 68.4222 281.248 68.7642 282.088 69.4482C282.94 70.1202 283.366 71.0442 283.366 72.2202C283.366 72.9642 283.186 73.6362 282.826 74.2362C282.478 74.8242 281.944 75.2922 281.224 75.6402C280.516 75.9762 279.64 76.1442 278.596 76.1442C277.708 76.1442 276.85 76.0122 276.022 75.7482C275.194 75.4722 274.51 75.0942 273.97 74.6142L274.798 73.1922C275.23 73.6002 275.782 73.9302 276.454 74.1822C277.126 74.4222 277.834 74.5422 278.578 74.5422C279.526 74.5422 280.258 74.3442 280.774 73.9482C281.302 73.5402 281.566 72.9882 281.566 72.2922C281.566 71.5362 281.278 70.9662 280.702 70.5822C280.126 70.1862 279.142 69.9882 277.75 69.9882H274.888L275.554 63.4002H282.664V64.9662H277.066L276.724 68.4222H278.128Z" fill="#2F2F2F"/>
</svg>
