<svg width="392" height="137" viewBox="0 0 392 137" fill="none" xmlns="http://www.w3.org/2000/svg">
<rect x="27.5" y="0.5" width="220.212" height="136" fill="#ABE9FF" stroke="#0995E3"/>
<path d="M125.739 66.35C126.567 66.35 127.305 66.506 127.953 66.818C128.613 67.13 129.129 67.58 129.501 68.168C129.873 68.744 130.059 69.41 130.059 70.166C130.059 70.958 129.861 71.654 129.465 72.254C129.081 72.854 128.547 73.322 127.863 73.658C127.191 73.982 126.435 74.144 125.595 74.144C123.903 74.144 122.595 73.598 121.671 72.506C120.759 71.414 120.303 69.866 120.303 67.862C120.303 66.458 120.549 65.264 121.041 64.28C121.545 63.284 122.241 62.534 123.129 62.03C124.029 61.514 125.073 61.256 126.261 61.256C126.873 61.256 127.449 61.322 127.989 61.454C128.529 61.574 128.997 61.754 129.393 61.994L128.709 63.398C128.109 63.002 127.305 62.804 126.297 62.804C124.989 62.804 123.963 63.212 123.219 64.028C122.475 64.832 122.103 66.008 122.103 67.556C122.103 67.748 122.109 67.898 122.121 68.006C122.481 67.466 122.973 67.058 123.597 66.782C124.233 66.494 124.947 66.35 125.739 66.35ZM125.523 72.686C126.351 72.686 127.023 72.464 127.539 72.02C128.055 71.576 128.313 70.982 128.313 70.238C128.313 69.494 128.049 68.906 127.521 68.474C127.005 68.03 126.309 67.808 125.433 67.808C124.869 67.808 124.365 67.916 123.921 68.132C123.489 68.348 123.147 68.642 122.895 69.014C122.655 69.386 122.535 69.8 122.535 70.256C122.535 70.7 122.649 71.108 122.877 71.48C123.117 71.84 123.459 72.134 123.903 72.362C124.359 72.578 124.899 72.686 125.523 72.686ZM136.561 74.144C135.565 74.144 134.677 73.892 133.897 73.388C133.129 72.872 132.523 72.128 132.079 71.156C131.635 70.184 131.413 69.032 131.413 67.7C131.413 66.368 131.635 65.216 132.079 64.244C132.523 63.272 133.129 62.534 133.897 62.03C134.677 61.514 135.565 61.256 136.561 61.256C137.545 61.256 138.421 61.514 139.189 62.03C139.969 62.534 140.581 63.272 141.025 64.244C141.469 65.216 141.691 66.368 141.691 67.7C141.691 69.032 141.469 70.184 141.025 71.156C140.581 72.128 139.969 72.872 139.189 73.388C138.421 73.892 137.545 74.144 136.561 74.144ZM136.561 72.542C137.569 72.542 138.373 72.128 138.973 71.3C139.585 70.472 139.891 69.272 139.891 67.7C139.891 66.128 139.585 64.928 138.973 64.1C138.373 63.272 137.569 62.858 136.561 62.858C135.541 62.858 134.725 63.272 134.113 64.1C133.513 64.928 133.213 66.128 133.213 67.7C133.213 69.272 133.513 70.472 134.113 71.3C134.725 72.128 135.541 72.542 136.561 72.542ZM148.567 74.144C147.571 74.144 146.683 73.892 145.903 73.388C145.135 72.872 144.529 72.128 144.085 71.156C143.641 70.184 143.419 69.032 143.419 67.7C143.419 66.368 143.641 65.216 144.085 64.244C144.529 63.272 145.135 62.534 145.903 62.03C146.683 61.514 147.571 61.256 148.567 61.256C149.551 61.256 150.427 61.514 151.195 62.03C151.975 62.534 152.587 63.272 153.031 64.244C153.475 65.216 153.697 66.368 153.697 67.7C153.697 69.032 153.475 70.184 153.031 71.156C152.587 72.128 151.975 72.872 151.195 73.388C150.427 73.892 149.551 74.144 148.567 74.144ZM148.567 72.542C149.575 72.542 150.379 72.128 150.979 71.3C151.591 70.472 151.897 69.272 151.897 67.7C151.897 66.128 151.591 64.928 150.979 64.1C150.379 63.272 149.575 62.858 148.567 62.858C147.547 62.858 146.731 63.272 146.119 64.1C145.519 64.928 145.219 66.128 145.219 67.7C145.219 69.272 145.519 70.472 146.119 71.3C146.731 72.128 147.547 72.542 148.567 72.542Z" fill="#2F2F2F"/>
<path d="M323.745 66.35C324.573 66.35 325.311 66.506 325.959 66.818C326.619 67.13 327.135 67.58 327.507 68.168C327.879 68.744 328.065 69.41 328.065 70.166C328.065 70.958 327.867 71.654 327.471 72.254C327.087 72.854 326.553 73.322 325.869 73.658C325.197 73.982 324.441 74.144 323.601 74.144C321.909 74.144 320.601 73.598 319.677 72.506C318.765 71.414 318.309 69.866 318.309 67.862C318.309 66.458 318.555 65.264 319.047 64.28C319.551 63.284 320.247 62.534 321.135 62.03C322.035 61.514 323.079 61.256 324.267 61.256C324.879 61.256 325.455 61.322 325.995 61.454C326.535 61.574 327.003 61.754 327.399 61.994L326.715 63.398C326.115 63.002 325.311 62.804 324.303 62.804C322.995 62.804 321.969 63.212 321.225 64.028C320.481 64.832 320.109 66.008 320.109 67.556C320.109 67.748 320.115 67.898 320.127 68.006C320.487 67.466 320.979 67.058 321.603 66.782C322.239 66.494 322.953 66.35 323.745 66.35ZM323.529 72.686C324.357 72.686 325.029 72.464 325.545 72.02C326.061 71.576 326.319 70.982 326.319 70.238C326.319 69.494 326.055 68.906 325.527 68.474C325.011 68.03 324.315 67.808 323.439 67.808C322.875 67.808 322.371 67.916 321.927 68.132C321.495 68.348 321.153 68.642 320.901 69.014C320.661 69.386 320.541 69.8 320.541 70.256C320.541 70.7 320.655 71.108 320.883 71.48C321.123 71.84 321.465 72.134 321.909 72.362C322.365 72.578 322.905 72.686 323.529 72.686Z" fill="#2F2F2F"/>
<path d="M6.74531 66.35C7.57331 66.35 8.31131 66.506 8.95931 66.818C9.61931 67.13 10.1353 67.58 10.5073 68.168C10.8793 68.744 11.0653 69.41 11.0653 70.166C11.0653 70.958 10.8673 71.654 10.4713 72.254C10.0873 72.854 9.55331 73.322 8.86931 73.658C8.19731 73.982 7.44131 74.144 6.60131 74.144C4.90931 74.144 3.60131 73.598 2.67731 72.506C1.76531 71.414 1.30931 69.866 1.30931 67.862C1.30931 66.458 1.55531 65.264 2.04731 64.28C2.55131 63.284 3.24731 62.534 4.13531 62.03C5.03531 61.514 6.07931 61.256 7.26731 61.256C7.87931 61.256 8.45531 61.322 8.99531 61.454C9.53531 61.574 10.0033 61.754 10.3993 61.994L9.71531 63.398C9.11531 63.002 8.31131 62.804 7.30331 62.804C5.99531 62.804 4.96931 63.212 4.22531 64.028C3.48131 64.832 3.10931 66.008 3.10931 67.556C3.10931 67.748 3.11531 67.898 3.12731 68.006C3.48731 67.466 3.97931 67.058 4.60331 66.782C5.23931 66.494 5.95331 66.35 6.74531 66.35ZM6.52931 72.686C7.35731 72.686 8.02931 72.464 8.54531 72.02C9.06131 71.576 9.31931 70.982 9.31931 70.238C9.31931 69.494 9.05531 68.906 8.52731 68.474C8.01131 68.03 7.31531 67.808 6.43931 67.808C5.87531 67.808 5.37131 67.916 4.92731 68.132C4.49531 68.348 4.15331 68.642 3.90131 69.014C3.66131 69.386 3.54131 69.8 3.54131 70.256C3.54131 70.7 3.65531 71.108 3.88331 71.48C4.12331 71.84 4.46531 72.134 4.90931 72.362C5.36531 72.578 5.90531 72.686 6.52931 72.686Z" fill="#2F2F2F"/>
<rect x="254.242" y="0.5" width="137.258" height="136" fill="#C6FFAB" stroke="#09E31E"/>
<path d="M316.776 66.422C318.576 66.422 319.896 66.764 320.736 67.448C321.588 68.12 322.014 69.044 322.014 70.22C322.014 70.964 321.834 71.636 321.474 72.236C321.126 72.824 320.592 73.292 319.872 73.64C319.164 73.976 318.288 74.144 317.244 74.144C316.356 74.144 315.498 74.012 314.67 73.748C313.842 73.472 313.158 73.094 312.618 72.614L313.446 71.192C313.878 71.6 314.43 71.93 315.102 72.182C315.774 72.422 316.482 72.542 317.226 72.542C318.174 72.542 318.906 72.344 319.422 71.948C319.95 71.54 320.214 70.988 320.214 70.292C320.214 69.536 319.926 68.966 319.35 68.582C318.774 68.186 317.79 67.988 316.398 67.988H313.536L314.202 61.4H321.312V62.966H315.714L315.372 66.422H316.776ZM334.473 70.904H332.079V74H330.333V70.904H323.331V69.644L329.775 61.4H331.719L325.545 69.356H330.387V66.62H332.079V69.356H334.473V70.904Z" fill="#2F2F2F"/>
</svg>
