<svg width="657" height="110" viewBox="0 0 657 110" fill="none" xmlns="http://www.w3.org/2000/svg">
<path d="M12.7309 8.4V21H10.9309V15.384H3.69488V21H1.89488V8.4H3.69488V13.818H10.9309V8.4H12.7309ZM20.3363 21.108C19.3883 21.108 18.5363 20.898 17.7803 20.478C17.0243 20.058 16.4303 19.482 15.9983 18.75C15.5783 18.006 15.3683 17.166 15.3683 16.23C15.3683 15.294 15.5783 14.46 15.9983 13.728C16.4303 12.984 17.0243 12.408 17.7803 12C18.5363 11.58 19.3883 11.37 20.3363 11.37C21.2843 11.37 22.1303 11.58 22.8743 12C23.6303 12.408 24.2183 12.984 24.6383 13.728C25.0703 14.46 25.2863 15.294 25.2863 16.23C25.2863 17.166 25.0703 18.006 24.6383 18.75C24.2183 19.482 23.6303 20.058 22.8743 20.478C22.1303 20.898 21.2843 21.108 20.3363 21.108ZM20.3363 19.596C20.9483 19.596 21.4943 19.458 21.9743 19.182C22.4663 18.894 22.8503 18.498 23.1263 17.994C23.4023 17.478 23.5403 16.89 23.5403 16.23C23.5403 15.57 23.4023 14.988 23.1263 14.484C22.8503 13.968 22.4663 13.572 21.9743 13.296C21.4943 13.02 20.9483 12.882 20.3363 12.882C19.7243 12.882 19.1723 13.02 18.6803 13.296C18.2003 13.572 17.8163 13.968 17.5283 14.484C17.2523 14.988 17.1143 15.57 17.1143 16.23C17.1143 16.89 17.2523 17.478 17.5283 17.994C17.8163 18.498 18.2003 18.894 18.6803 19.182C19.1723 19.458 19.7243 19.596 20.3363 19.596ZM41.8484 11.46L38.2844 21H36.6284L33.8744 13.764L31.0844 21H29.4284L25.8824 11.46H27.5204L30.2924 19.056L33.1724 11.46H34.6304L37.4564 19.092L40.3004 11.46H41.8484ZM60.3699 11.37C61.5699 11.37 62.5179 11.718 63.2139 12.414C63.9219 13.11 64.2759 14.142 64.2759 15.51V21H62.5479V15.708C62.5479 14.784 62.3319 14.088 61.8999 13.62C61.4799 13.152 60.8739 12.918 60.0819 12.918C59.2059 12.918 58.5099 13.194 57.9939 13.746C57.4779 14.286 57.2199 15.066 57.2199 16.086V21H55.4919V15.708C55.4919 14.784 55.2759 14.088 54.8439 13.62C54.4239 13.152 53.8179 12.918 53.0259 12.918C52.1499 12.918 51.4539 13.194 50.9379 13.746C50.4219 14.286 50.1639 15.066 50.1639 16.086V21H48.4359V11.46H50.0919V12.882C50.4399 12.39 50.8959 12.018 51.4599 11.766C52.0239 11.502 52.6659 11.37 53.3859 11.37C54.1299 11.37 54.7899 11.52 55.3659 11.82C55.9419 12.12 56.3859 12.558 56.6979 13.134C57.0579 12.582 57.5559 12.15 58.1919 11.838C58.8399 11.526 59.5659 11.37 60.3699 11.37ZM70.9294 11.37C72.2494 11.37 73.2574 11.694 73.9534 12.342C74.6614 12.99 75.0154 13.956 75.0154 15.24V21H73.3774V19.74C73.0894 20.184 72.6754 20.526 72.1354 20.766C71.6074 20.994 70.9774 21.108 70.2454 21.108C69.1774 21.108 68.3194 20.85 67.6714 20.334C67.0354 19.818 66.7174 19.14 66.7174 18.3C66.7174 17.46 67.0234 16.788 67.6354 16.284C68.2474 15.768 69.2194 15.51 70.5514 15.51H73.2874V15.168C73.2874 14.424 73.0714 13.854 72.6394 13.458C72.2074 13.062 71.5714 12.864 70.7314 12.864C70.1674 12.864 69.6154 12.96 69.0754 13.152C68.5354 13.332 68.0794 13.578 67.7074 13.89L66.9874 12.594C67.4794 12.198 68.0674 11.898 68.7514 11.694C69.4354 11.478 70.1614 11.37 70.9294 11.37ZM70.5334 19.776C71.1934 19.776 71.7634 19.632 72.2434 19.344C72.7234 19.044 73.0714 18.624 73.2874 18.084V16.752H70.6234C69.1594 16.752 68.4274 17.244 68.4274 18.228C68.4274 18.708 68.6134 19.086 68.9854 19.362C69.3574 19.638 69.8734 19.776 70.5334 19.776ZM83.3072 11.37C84.5192 11.37 85.4792 11.724 86.1872 12.432C86.9072 13.128 87.2672 14.154 87.2672 15.51V21H85.5392V15.708C85.5392 14.784 85.3172 14.088 84.8732 13.62C84.4292 13.152 83.7932 12.918 82.9652 12.918C82.0292 12.918 81.2912 13.194 80.7512 13.746C80.2112 14.286 79.9412 15.066 79.9412 16.086V21H78.2132V11.46H79.8692V12.9C80.2172 12.408 80.6852 12.03 81.2732 11.766C81.8732 11.502 82.5512 11.37 83.3072 11.37ZM98.7314 11.46L94.1054 21.954C93.6974 22.926 93.2174 23.61 92.6654 24.006C92.1254 24.402 91.4714 24.6 90.7034 24.6C90.2354 24.6 89.7794 24.522 89.3354 24.366C88.9034 24.222 88.5434 24.006 88.2554 23.718L88.9934 22.422C89.4854 22.89 90.0554 23.124 90.7034 23.124C91.1234 23.124 91.4714 23.01 91.7474 22.782C92.0354 22.566 92.2934 22.188 92.5214 21.648L92.8274 20.982L88.6154 11.46H90.4154L93.7454 19.092L97.0394 11.46H98.7314ZM105.178 7.644H106.906V21H105.178V7.644ZM115.263 11.37C116.187 11.37 117.015 11.574 117.747 11.982C118.479 12.39 119.049 12.96 119.457 13.692C119.877 14.424 120.087 15.27 120.087 16.23C120.087 17.19 119.877 18.042 119.457 18.786C119.049 19.518 118.479 20.088 117.747 20.496C117.015 20.904 116.187 21.108 115.263 21.108C114.555 21.108 113.907 20.97 113.319 20.694C112.731 20.418 112.245 20.016 111.861 19.488V21H110.205V7.644H111.933V12.9C112.317 12.396 112.797 12.018 113.373 11.766C113.949 11.502 114.579 11.37 115.263 11.37ZM115.119 19.596C115.731 19.596 116.277 19.458 116.757 19.182C117.249 18.894 117.633 18.498 117.909 17.994C118.197 17.478 118.341 16.89 118.341 16.23C118.341 15.57 118.197 14.988 117.909 14.484C117.633 13.968 117.249 13.572 116.757 13.296C116.277 13.02 115.731 12.882 115.119 12.882C114.519 12.882 113.973 13.02 113.481 13.296C112.989 13.572 112.605 13.968 112.329 14.484C112.053 14.988 111.915 15.57 111.915 16.23C111.915 16.89 112.053 17.478 112.329 17.994C112.605 18.498 112.989 18.894 113.481 19.182C113.973 19.458 114.519 19.596 115.119 19.596ZM131.395 21.108C130.447 21.108 129.595 20.898 128.839 20.478C128.083 20.058 127.489 19.482 127.057 18.75C126.637 18.006 126.427 17.166 126.427 16.23C126.427 15.294 126.637 14.46 127.057 13.728C127.489 12.984 128.083 12.408 128.839 12C129.595 11.58 130.447 11.37 131.395 11.37C132.343 11.37 133.189 11.58 133.933 12C134.689 12.408 135.277 12.984 135.697 13.728C136.129 14.46 136.345 15.294 136.345 16.23C136.345 17.166 136.129 18.006 135.697 18.75C135.277 19.482 134.689 20.058 133.933 20.478C133.189 20.898 132.343 21.108 131.395 21.108ZM131.395 19.596C132.007 19.596 132.553 19.458 133.033 19.182C133.525 18.894 133.909 18.498 134.185 17.994C134.461 17.478 134.599 16.89 134.599 16.23C134.599 15.57 134.461 14.988 134.185 14.484C133.909 13.968 133.525 13.572 133.033 13.296C132.553 13.02 132.007 12.882 131.395 12.882C130.783 12.882 130.231 13.02 129.739 13.296C129.259 13.572 128.875 13.968 128.587 14.484C128.311 14.988 128.173 15.57 128.173 16.23C128.173 16.89 128.311 17.478 128.587 17.994C128.875 18.498 129.259 18.894 129.739 19.182C130.231 19.458 130.783 19.596 131.395 19.596ZM142.227 8.958C141.195 8.958 140.679 9.516 140.679 10.632V11.46H143.451V12.882H140.715V21H138.987V12.882H137.367V11.46H138.987V10.614C138.987 9.666 139.263 8.916 139.815 8.364C140.367 7.812 141.141 7.536 142.137 7.536C142.521 7.536 142.881 7.584 143.217 7.68C143.553 7.776 143.841 7.914 144.081 8.094L143.559 9.408C143.163 9.108 142.719 8.958 142.227 8.958ZM154 21.108C153.052 21.108 152.2 20.898 151.444 20.478C150.688 20.058 150.094 19.482 149.662 18.75C149.242 18.006 149.032 17.166 149.032 16.23C149.032 15.294 149.242 14.46 149.662 13.728C150.094 12.984 150.688 12.408 151.444 12C152.2 11.58 153.052 11.37 154 11.37C154.948 11.37 155.794 11.58 156.538 12C157.294 12.408 157.882 12.984 158.302 13.728C158.734 14.46 158.95 15.294 158.95 16.23C158.95 17.166 158.734 18.006 158.302 18.75C157.882 19.482 157.294 20.058 156.538 20.478C155.794 20.898 154.948 21.108 154 21.108ZM154 19.596C154.612 19.596 155.158 19.458 155.638 19.182C156.13 18.894 156.514 18.498 156.79 17.994C157.066 17.478 157.204 16.89 157.204 16.23C157.204 15.57 157.066 14.988 156.79 14.484C156.514 13.968 156.13 13.572 155.638 13.296C155.158 13.02 154.612 12.882 154 12.882C153.388 12.882 152.836 13.02 152.344 13.296C151.864 13.572 151.48 13.968 151.192 14.484C150.916 14.988 150.778 15.57 150.778 16.23C150.778 16.89 150.916 17.478 151.192 17.994C151.48 18.498 151.864 18.894 152.344 19.182C152.836 19.458 153.388 19.596 154 19.596ZM162.996 13.062C163.296 12.51 163.74 12.09 164.328 11.802C164.916 11.514 165.63 11.37 166.47 11.37V13.044C166.374 13.032 166.242 13.026 166.074 13.026C165.138 13.026 164.4 13.308 163.86 13.872C163.332 14.424 163.068 15.216 163.068 16.248V21H161.34V11.46H162.996V13.062ZM172.056 11.37C173.376 11.37 174.384 11.694 175.08 12.342C175.788 12.99 176.142 13.956 176.142 15.24V21H174.504V19.74C174.216 20.184 173.802 20.526 173.262 20.766C172.734 20.994 172.104 21.108 171.372 21.108C170.304 21.108 169.446 20.85 168.798 20.334C168.162 19.818 167.844 19.14 167.844 18.3C167.844 17.46 168.15 16.788 168.762 16.284C169.374 15.768 170.346 15.51 171.678 15.51H174.414V15.168C174.414 14.424 174.198 13.854 173.766 13.458C173.334 13.062 172.698 12.864 171.858 12.864C171.294 12.864 170.742 12.96 170.202 13.152C169.662 13.332 169.206 13.578 168.834 13.89L168.114 12.594C168.606 12.198 169.194 11.898 169.878 11.694C170.562 11.478 171.288 11.37 172.056 11.37ZM171.66 19.776C172.32 19.776 172.89 19.632 173.37 19.344C173.85 19.044 174.198 18.624 174.414 18.084V16.752H171.75C170.286 16.752 169.554 17.244 169.554 18.228C169.554 18.708 169.74 19.086 170.112 19.362C170.484 19.638 171 19.776 171.66 19.776ZM184.434 11.37C185.646 11.37 186.606 11.724 187.314 12.432C188.034 13.128 188.394 14.154 188.394 15.51V21H186.666V15.708C186.666 14.784 186.444 14.088 186 13.62C185.556 13.152 184.92 12.918 184.092 12.918C183.156 12.918 182.418 13.194 181.878 13.746C181.338 14.286 181.068 15.066 181.068 16.086V21H179.34V11.46H180.996V12.9C181.344 12.408 181.812 12.03 182.4 11.766C183 11.502 183.678 11.37 184.434 11.37ZM200.771 11.46V19.704C200.771 21.372 200.357 22.602 199.529 23.394C198.701 24.198 197.465 24.6 195.821 24.6C194.921 24.6 194.063 24.474 193.247 24.222C192.431 23.982 191.771 23.634 191.267 23.178L192.095 21.846C192.539 22.23 193.085 22.53 193.733 22.746C194.393 22.974 195.071 23.088 195.767 23.088C196.883 23.088 197.705 22.824 198.233 22.296C198.773 21.768 199.043 20.964 199.043 19.884V19.128C198.635 19.62 198.131 19.992 197.531 20.244C196.943 20.484 196.301 20.604 195.605 20.604C194.693 20.604 193.865 20.412 193.121 20.028C192.389 19.632 191.813 19.086 191.393 18.39C190.973 17.682 190.763 16.878 190.763 15.978C190.763 15.078 190.973 14.28 191.393 13.584C191.813 12.876 192.389 12.33 193.121 11.946C193.865 11.562 194.693 11.37 195.605 11.37C196.325 11.37 196.991 11.502 197.603 11.766C198.227 12.03 198.737 12.42 199.133 12.936V11.46H200.771ZM195.803 19.092C196.427 19.092 196.985 18.96 197.477 18.696C197.981 18.432 198.371 18.066 198.647 17.598C198.935 17.118 199.079 16.578 199.079 15.978C199.079 15.054 198.773 14.31 198.161 13.746C197.549 13.17 196.763 12.882 195.803 12.882C194.831 12.882 194.039 13.17 193.427 13.746C192.815 14.31 192.509 15.054 192.509 15.978C192.509 16.578 192.647 17.118 192.923 17.598C193.211 18.066 193.601 18.432 194.093 18.696C194.597 18.96 195.167 19.092 195.803 19.092ZM212.695 16.284C212.695 16.416 212.683 16.59 212.659 16.806H204.919C205.027 17.646 205.393 18.324 206.017 18.84C206.653 19.344 207.439 19.596 208.375 19.596C209.515 19.596 210.433 19.212 211.129 18.444L212.083 19.56C211.651 20.064 211.111 20.448 210.463 20.712C209.827 20.976 209.113 21.108 208.321 21.108C207.313 21.108 206.419 20.904 205.639 20.496C204.859 20.076 204.253 19.494 203.821 18.75C203.401 18.006 203.191 17.166 203.191 16.23C203.191 15.306 203.395 14.472 203.803 13.728C204.223 12.984 204.793 12.408 205.513 12C206.245 11.58 207.067 11.37 207.979 11.37C208.891 11.37 209.701 11.58 210.409 12C211.129 12.408 211.687 12.984 212.083 13.728C212.491 14.472 212.695 15.324 212.695 16.284ZM207.979 12.828C207.151 12.828 206.455 13.08 205.891 13.584C205.339 14.088 205.015 14.748 204.919 15.564H211.039C210.943 14.76 210.613 14.106 210.049 13.602C209.497 13.086 208.807 12.828 207.979 12.828ZM217.83 21.108C217.05 21.108 216.3 21.006 215.58 20.802C214.86 20.586 214.296 20.316 213.888 19.992L214.608 18.624C215.028 18.924 215.538 19.164 216.138 19.344C216.738 19.524 217.344 19.614 217.956 19.614C219.468 19.614 220.224 19.182 220.224 18.318C220.224 18.03 220.122 17.802 219.918 17.634C219.714 17.466 219.456 17.346 219.144 17.274C218.844 17.19 218.412 17.1 217.848 17.004C217.08 16.884 216.45 16.746 215.958 16.59C215.478 16.434 215.064 16.17 214.716 15.798C214.368 15.426 214.194 14.904 214.194 14.232C214.194 13.368 214.554 12.678 215.274 12.162C215.994 11.634 216.96 11.37 218.172 11.37C218.808 11.37 219.444 11.448 220.08 11.604C220.716 11.76 221.238 11.97 221.646 12.234L220.908 13.602C220.128 13.098 219.21 12.846 218.154 12.846C217.422 12.846 216.864 12.966 216.48 13.206C216.096 13.446 215.904 13.764 215.904 14.16C215.904 14.472 216.012 14.718 216.228 14.898C216.444 15.078 216.708 15.21 217.02 15.294C217.344 15.378 217.794 15.474 218.37 15.582C219.138 15.714 219.756 15.858 220.224 16.014C220.704 16.158 221.112 16.41 221.448 16.77C221.784 17.13 221.952 17.634 221.952 18.282C221.952 19.146 221.58 19.836 220.836 20.352C220.104 20.856 219.102 21.108 217.83 21.108ZM243.382 11.46L239.818 21H238.162L235.408 13.764L232.618 21H230.962L227.416 11.46H229.054L231.826 19.056L234.706 11.46H236.164L238.99 19.092L241.834 11.46H243.382ZM253.493 16.284C253.493 16.416 253.481 16.59 253.457 16.806H245.717C245.825 17.646 246.191 18.324 246.815 18.84C247.451 19.344 248.237 19.596 249.173 19.596C250.313 19.596 251.231 19.212 251.927 18.444L252.881 19.56C252.449 20.064 251.909 20.448 251.261 20.712C250.625 20.976 249.911 21.108 249.119 21.108C248.111 21.108 247.217 20.904 246.437 20.496C245.657 20.076 245.051 19.494 244.619 18.75C244.199 18.006 243.989 17.166 243.989 16.23C243.989 15.306 244.193 14.472 244.601 13.728C245.021 12.984 245.591 12.408 246.311 12C247.043 11.58 247.865 11.37 248.777 11.37C249.689 11.37 250.499 11.58 251.207 12C251.927 12.408 252.485 12.984 252.881 13.728C253.289 14.472 253.493 15.324 253.493 16.284ZM248.777 12.828C247.949 12.828 247.253 13.08 246.689 13.584C246.137 14.088 245.813 14.748 245.717 15.564H251.837C251.741 14.76 251.411 14.106 250.847 13.602C250.295 13.086 249.605 12.828 248.777 12.828ZM257.549 13.062C257.849 12.51 258.293 12.09 258.881 11.802C259.469 11.514 260.183 11.37 261.023 11.37V13.044C260.927 13.032 260.795 13.026 260.627 13.026C259.691 13.026 258.953 13.308 258.413 13.872C257.885 14.424 257.621 15.216 257.621 16.248V21H255.893V11.46H257.549V13.062ZM271.687 16.284C271.687 16.416 271.675 16.59 271.651 16.806H263.911C264.019 17.646 264.385 18.324 265.009 18.84C265.645 19.344 266.431 19.596 267.367 19.596C268.507 19.596 269.425 19.212 270.121 18.444L271.075 19.56C270.643 20.064 270.103 20.448 269.455 20.712C268.819 20.976 268.105 21.108 267.313 21.108C266.305 21.108 265.411 20.904 264.631 20.496C263.851 20.076 263.245 19.494 262.813 18.75C262.393 18.006 262.183 17.166 262.183 16.23C262.183 15.306 262.387 14.472 262.795 13.728C263.215 12.984 263.785 12.408 264.505 12C265.237 11.58 266.059 11.37 266.971 11.37C267.883 11.37 268.693 11.58 269.401 12C270.121 12.408 270.679 12.984 271.075 13.728C271.483 14.472 271.687 15.324 271.687 16.284ZM266.971 12.828C266.143 12.828 265.447 13.08 264.883 13.584C264.331 14.088 264.007 14.748 263.911 15.564H270.031C269.935 14.76 269.605 14.106 269.041 13.602C268.489 13.086 267.799 12.828 266.971 12.828ZM287.92 7.644V21H286.264V19.488C285.88 20.016 285.394 20.418 284.806 20.694C284.218 20.97 283.57 21.108 282.862 21.108C281.938 21.108 281.11 20.904 280.378 20.496C279.646 20.088 279.07 19.518 278.65 18.786C278.242 18.042 278.038 17.19 278.038 16.23C278.038 15.27 278.242 14.424 278.65 13.692C279.07 12.96 279.646 12.39 280.378 11.982C281.11 11.574 281.938 11.37 282.862 11.37C283.546 11.37 284.176 11.502 284.752 11.766C285.328 12.018 285.808 12.396 286.192 12.9V7.644H287.92ZM283.006 19.596C283.606 19.596 284.152 19.458 284.644 19.182C285.136 18.894 285.52 18.498 285.796 17.994C286.072 17.478 286.21 16.89 286.21 16.23C286.21 15.57 286.072 14.988 285.796 14.484C285.52 13.968 285.136 13.572 284.644 13.296C284.152 13.02 283.606 12.882 283.006 12.882C282.394 12.882 281.842 13.02 281.35 13.296C280.87 13.572 280.486 13.968 280.198 14.484C279.922 14.988 279.784 15.57 279.784 16.23C279.784 16.89 279.922 17.478 280.198 17.994C280.486 18.498 280.87 18.894 281.35 19.182C281.842 19.458 282.394 19.596 283.006 19.596ZM299.812 16.284C299.812 16.416 299.8 16.59 299.776 16.806H292.036C292.144 17.646 292.51 18.324 293.134 18.84C293.77 19.344 294.556 19.596 295.492 19.596C296.632 19.596 297.55 19.212 298.246 18.444L299.2 19.56C298.768 20.064 298.228 20.448 297.58 20.712C296.944 20.976 296.23 21.108 295.438 21.108C294.43 21.108 293.536 20.904 292.756 20.496C291.976 20.076 291.37 19.494 290.938 18.75C290.518 18.006 290.308 17.166 290.308 16.23C290.308 15.306 290.512 14.472 290.92 13.728C291.34 12.984 291.91 12.408 292.63 12C293.362 11.58 294.184 11.37 295.096 11.37C296.008 11.37 296.818 11.58 297.526 12C298.246 12.408 298.804 12.984 299.2 13.728C299.608 14.472 299.812 15.324 299.812 16.284ZM295.096 12.828C294.268 12.828 293.572 13.08 293.008 13.584C292.456 14.088 292.132 14.748 292.036 15.564H298.156C298.06 14.76 297.73 14.106 297.166 13.602C296.614 13.086 295.924 12.828 295.096 12.828ZM302.211 7.644H303.939V21H302.211V7.644ZM307.239 11.46H308.967V21H307.239V11.46ZM308.103 9.624C307.767 9.624 307.485 9.516 307.257 9.3C307.041 9.084 306.933 8.82 306.933 8.508C306.933 8.196 307.041 7.932 307.257 7.716C307.485 7.488 307.767 7.374 308.103 7.374C308.439 7.374 308.715 7.482 308.931 7.698C309.159 7.902 309.273 8.16 309.273 8.472C309.273 8.796 309.159 9.072 308.931 9.3C308.715 9.516 308.439 9.624 308.103 9.624ZM320.708 11.46L316.532 21H314.768L310.592 11.46H312.392L315.668 19.11L319.016 11.46H320.708ZM330.679 16.284C330.679 16.416 330.667 16.59 330.643 16.806H322.903C323.011 17.646 323.377 18.324 324.001 18.84C324.637 19.344 325.423 19.596 326.359 19.596C327.499 19.596 328.417 19.212 329.113 18.444L330.067 19.56C329.635 20.064 329.095 20.448 328.447 20.712C327.811 20.976 327.097 21.108 326.305 21.108C325.297 21.108 324.403 20.904 323.623 20.496C322.843 20.076 322.237 19.494 321.805 18.75C321.385 18.006 321.175 17.166 321.175 16.23C321.175 15.306 321.379 14.472 321.787 13.728C322.207 12.984 322.777 12.408 323.497 12C324.229 11.58 325.051 11.37 325.963 11.37C326.875 11.37 327.685 11.58 328.393 12C329.113 12.408 329.671 12.984 330.067 13.728C330.475 14.472 330.679 15.324 330.679 16.284ZM325.963 12.828C325.135 12.828 324.439 13.08 323.875 13.584C323.323 14.088 322.999 14.748 322.903 15.564H329.023C328.927 14.76 328.597 14.106 328.033 13.602C327.481 13.086 326.791 12.828 325.963 12.828ZM334.734 13.062C335.034 12.51 335.478 12.09 336.066 11.802C336.654 11.514 337.368 11.37 338.208 11.37V13.044C338.112 13.032 337.98 13.026 337.812 13.026C336.876 13.026 336.138 13.308 335.598 13.872C335.07 14.424 334.806 15.216 334.806 16.248V21H333.078V11.46H334.734V13.062ZM348.872 16.284C348.872 16.416 348.86 16.59 348.836 16.806H341.096C341.204 17.646 341.57 18.324 342.194 18.84C342.83 19.344 343.616 19.596 344.552 19.596C345.692 19.596 346.61 19.212 347.306 18.444L348.26 19.56C347.828 20.064 347.288 20.448 346.64 20.712C346.004 20.976 345.29 21.108 344.498 21.108C343.49 21.108 342.596 20.904 341.816 20.496C341.036 20.076 340.43 19.494 339.998 18.75C339.578 18.006 339.368 17.166 339.368 16.23C339.368 15.306 339.572 14.472 339.98 13.728C340.4 12.984 340.97 12.408 341.69 12C342.422 11.58 343.244 11.37 344.156 11.37C345.068 11.37 345.878 11.58 346.586 12C347.306 12.408 347.864 12.984 348.26 13.728C348.668 14.472 348.872 15.324 348.872 16.284ZM344.156 12.828C343.328 12.828 342.632 13.08 342.068 13.584C341.516 14.088 341.192 14.748 341.096 15.564H347.216C347.12 14.76 346.79 14.106 346.226 13.602C345.674 13.086 344.984 12.828 344.156 12.828ZM360.272 7.644V21H358.616V19.488C358.232 20.016 357.746 20.418 357.158 20.694C356.57 20.97 355.922 21.108 355.214 21.108C354.29 21.108 353.462 20.904 352.73 20.496C351.998 20.088 351.422 19.518 351.002 18.786C350.594 18.042 350.39 17.19 350.39 16.23C350.39 15.27 350.594 14.424 351.002 13.692C351.422 12.96 351.998 12.39 352.73 11.982C353.462 11.574 354.29 11.37 355.214 11.37C355.898 11.37 356.528 11.502 357.104 11.766C357.68 12.018 358.16 12.396 358.544 12.9V7.644H360.272ZM355.358 19.596C355.958 19.596 356.504 19.458 356.996 19.182C357.488 18.894 357.872 18.498 358.148 17.994C358.424 17.478 358.562 16.89 358.562 16.23C358.562 15.57 358.424 14.988 358.148 14.484C357.872 13.968 357.488 13.572 356.996 13.296C356.504 13.02 355.958 12.882 355.358 12.882C354.746 12.882 354.194 13.02 353.702 13.296C353.222 13.572 352.838 13.968 352.55 14.484C352.274 14.988 352.136 15.57 352.136 16.23C352.136 16.89 352.274 17.478 352.55 17.994C352.838 18.498 353.222 18.894 353.702 19.182C354.194 19.458 354.746 19.596 355.358 19.596ZM373.739 20.442C373.487 20.658 373.175 20.826 372.803 20.946C372.431 21.054 372.047 21.108 371.651 21.108C370.691 21.108 369.947 20.85 369.419 20.334C368.891 19.818 368.627 19.08 368.627 18.12V12.882H367.007V11.46H368.627V9.372H370.355V11.46H373.091V12.882H370.355V18.048C370.355 18.564 370.481 18.96 370.733 19.236C370.997 19.512 371.369 19.65 371.849 19.65C372.377 19.65 372.827 19.5 373.199 19.2L373.739 20.442ZM379.598 21.108C378.65 21.108 377.798 20.898 377.042 20.478C376.286 20.058 375.692 19.482 375.26 18.75C374.84 18.006 374.63 17.166 374.63 16.23C374.63 15.294 374.84 14.46 375.26 13.728C375.692 12.984 376.286 12.408 377.042 12C377.798 11.58 378.65 11.37 379.598 11.37C380.546 11.37 381.392 11.58 382.136 12C382.892 12.408 383.48 12.984 383.9 13.728C384.332 14.46 384.548 15.294 384.548 16.23C384.548 17.166 384.332 18.006 383.9 18.75C383.48 19.482 382.892 20.058 382.136 20.478C381.392 20.898 380.546 21.108 379.598 21.108ZM379.598 19.596C380.21 19.596 380.756 19.458 381.236 19.182C381.728 18.894 382.112 18.498 382.388 17.994C382.664 17.478 382.802 16.89 382.802 16.23C382.802 15.57 382.664 14.988 382.388 14.484C382.112 13.968 381.728 13.572 381.236 13.296C380.756 13.02 380.21 12.882 379.598 12.882C378.986 12.882 378.434 13.02 377.942 13.296C377.462 13.572 377.078 13.968 376.79 14.484C376.514 14.988 376.376 15.57 376.376 16.23C376.376 16.89 376.514 17.478 376.79 17.994C377.078 18.498 377.462 18.894 377.942 19.182C378.434 19.458 378.986 19.596 379.598 19.596ZM397.136 20.442C396.884 20.658 396.572 20.826 396.2 20.946C395.828 21.054 395.444 21.108 395.048 21.108C394.088 21.108 393.344 20.85 392.816 20.334C392.288 19.818 392.024 19.08 392.024 18.12V12.882H390.404V11.46H392.024V9.372H393.752V11.46H396.488V12.882H393.752V18.048C393.752 18.564 393.878 18.96 394.13 19.236C394.394 19.512 394.766 19.65 395.246 19.65C395.774 19.65 396.224 19.5 396.596 19.2L397.136 20.442ZM404.319 11.37C405.531 11.37 406.491 11.724 407.199 12.432C407.919 13.128 408.279 14.154 408.279 15.51V21H406.551V15.708C406.551 14.784 406.329 14.088 405.885 13.62C405.441 13.152 404.805 12.918 403.977 12.918C403.041 12.918 402.303 13.194 401.763 13.746C401.223 14.286 400.953 15.066 400.953 16.086V21H399.225V7.644H400.953V12.81C401.313 12.354 401.781 12 402.357 11.748C402.945 11.496 403.599 11.37 404.319 11.37ZM420.152 16.284C420.152 16.416 420.14 16.59 420.116 16.806H412.376C412.484 17.646 412.85 18.324 413.474 18.84C414.11 19.344 414.896 19.596 415.832 19.596C416.972 19.596 417.89 19.212 418.586 18.444L419.54 19.56C419.108 20.064 418.568 20.448 417.92 20.712C417.284 20.976 416.57 21.108 415.778 21.108C414.77 21.108 413.876 20.904 413.096 20.496C412.316 20.076 411.71 19.494 411.278 18.75C410.858 18.006 410.648 17.166 410.648 16.23C410.648 15.306 410.852 14.472 411.26 13.728C411.68 12.984 412.25 12.408 412.97 12C413.702 11.58 414.524 11.37 415.436 11.37C416.348 11.37 417.158 11.58 417.866 12C418.586 12.408 419.144 12.984 419.54 13.728C419.948 14.472 420.152 15.324 420.152 16.284ZM415.436 12.828C414.608 12.828 413.912 13.08 413.348 13.584C412.796 14.088 412.472 14.748 412.376 15.564H418.496C418.4 14.76 418.07 14.106 417.506 13.602C416.954 13.086 416.264 12.828 415.436 12.828ZM430.121 21.108C429.341 21.108 428.591 21.006 427.871 20.802C427.151 20.586 426.587 20.316 426.179 19.992L426.899 18.624C427.319 18.924 427.829 19.164 428.429 19.344C429.029 19.524 429.635 19.614 430.247 19.614C431.759 19.614 432.515 19.182 432.515 18.318C432.515 18.03 432.413 17.802 432.209 17.634C432.005 17.466 431.747 17.346 431.435 17.274C431.135 17.19 430.703 17.1 430.139 17.004C429.371 16.884 428.741 16.746 428.249 16.59C427.769 16.434 427.355 16.17 427.007 15.798C426.659 15.426 426.485 14.904 426.485 14.232C426.485 13.368 426.845 12.678 427.565 12.162C428.285 11.634 429.251 11.37 430.463 11.37C431.099 11.37 431.735 11.448 432.371 11.604C433.007 11.76 433.529 11.97 433.937 12.234L433.199 13.602C432.419 13.098 431.501 12.846 430.445 12.846C429.713 12.846 429.155 12.966 428.771 13.206C428.387 13.446 428.195 13.764 428.195 14.16C428.195 14.472 428.303 14.718 428.519 14.898C428.735 15.078 428.999 15.21 429.311 15.294C429.635 15.378 430.085 15.474 430.661 15.582C431.429 15.714 432.047 15.858 432.515 16.014C432.995 16.158 433.403 16.41 433.739 16.77C434.075 17.13 434.243 17.634 434.243 18.282C434.243 19.146 433.871 19.836 433.127 20.352C432.395 20.856 431.393 21.108 430.121 21.108ZM441.767 20.442C441.515 20.658 441.203 20.826 440.831 20.946C440.459 21.054 440.075 21.108 439.679 21.108C438.719 21.108 437.975 20.85 437.447 20.334C436.919 19.818 436.655 19.08 436.655 18.12V12.882H435.035V11.46H436.655V9.372H438.383V11.46H441.119V12.882H438.383V18.048C438.383 18.564 438.509 18.96 438.761 19.236C439.025 19.512 439.397 19.65 439.877 19.65C440.405 19.65 440.855 19.5 441.227 19.2L441.767 20.442ZM447.625 21.108C446.677 21.108 445.825 20.898 445.069 20.478C444.313 20.058 443.719 19.482 443.287 18.75C442.867 18.006 442.657 17.166 442.657 16.23C442.657 15.294 442.867 14.46 443.287 13.728C443.719 12.984 444.313 12.408 445.069 12C445.825 11.58 446.677 11.37 447.625 11.37C448.573 11.37 449.419 11.58 450.163 12C450.919 12.408 451.507 12.984 451.927 13.728C452.359 14.46 452.575 15.294 452.575 16.23C452.575 17.166 452.359 18.006 451.927 18.75C451.507 19.482 450.919 20.058 450.163 20.478C449.419 20.898 448.573 21.108 447.625 21.108ZM447.625 19.596C448.237 19.596 448.783 19.458 449.263 19.182C449.755 18.894 450.139 18.498 450.415 17.994C450.691 17.478 450.829 16.89 450.829 16.23C450.829 15.57 450.691 14.988 450.415 14.484C450.139 13.968 449.755 13.572 449.263 13.296C448.783 13.02 448.237 12.882 447.625 12.882C447.013 12.882 446.461 13.02 445.969 13.296C445.489 13.572 445.105 13.968 444.817 14.484C444.541 14.988 444.403 15.57 444.403 16.23C444.403 16.89 444.541 17.478 444.817 17.994C445.105 18.498 445.489 18.894 445.969 19.182C446.461 19.458 447.013 19.596 447.625 19.596ZM456.621 13.062C456.921 12.51 457.365 12.09 457.953 11.802C458.541 11.514 459.255 11.37 460.095 11.37V13.044C459.999 13.032 459.867 13.026 459.699 13.026C458.763 13.026 458.025 13.308 457.485 13.872C456.957 14.424 456.693 15.216 456.693 16.248V21H454.965V11.46H456.621V13.062ZM470.759 16.284C470.759 16.416 470.747 16.59 470.723 16.806H462.983C463.091 17.646 463.457 18.324 464.081 18.84C464.717 19.344 465.503 19.596 466.439 19.596C467.579 19.596 468.497 19.212 469.193 18.444L470.147 19.56C469.715 20.064 469.175 20.448 468.527 20.712C467.891 20.976 467.177 21.108 466.385 21.108C465.377 21.108 464.483 20.904 463.703 20.496C462.923 20.076 462.317 19.494 461.885 18.75C461.465 18.006 461.255 17.166 461.255 16.23C461.255 15.306 461.459 14.472 461.867 13.728C462.287 12.984 462.857 12.408 463.577 12C464.309 11.58 465.131 11.37 466.043 11.37C466.955 11.37 467.765 11.58 468.473 12C469.193 12.408 469.751 12.984 470.147 13.728C470.555 14.472 470.759 15.324 470.759 16.284ZM466.043 12.828C465.215 12.828 464.519 13.08 463.955 13.584C463.403 14.088 463.079 14.748 462.983 15.564H469.103C469.007 14.76 468.677 14.106 468.113 13.602C467.561 13.086 466.871 12.828 466.043 12.828ZM474.781 17.022C474.781 16.542 474.859 16.122 475.015 15.762C475.183 15.39 475.381 15.078 475.609 14.826C475.849 14.574 476.161 14.274 476.545 13.926C477.025 13.506 477.379 13.146 477.607 12.846C477.835 12.534 477.949 12.162 477.949 11.73C477.949 11.142 477.721 10.674 477.265 10.326C476.809 9.966 476.179 9.786 475.375 9.786C473.971 9.786 472.897 10.26 472.153 11.208L470.839 10.272C471.343 9.624 471.985 9.126 472.765 8.778C473.557 8.43 474.469 8.256 475.501 8.256C476.809 8.256 477.847 8.544 478.615 9.12C479.383 9.684 479.767 10.464 479.767 11.46C479.767 11.952 479.683 12.39 479.515 12.774C479.359 13.146 479.167 13.458 478.939 13.71C478.711 13.962 478.405 14.262 478.021 14.61C477.529 15.054 477.163 15.444 476.923 15.78C476.695 16.116 476.581 16.53 476.581 17.022H474.781ZM475.699 21.108C475.363 21.108 475.081 21 474.853 20.784C474.637 20.556 474.529 20.28 474.529 19.956C474.529 19.632 474.637 19.362 474.853 19.146C475.081 18.918 475.363 18.804 475.699 18.804C476.035 18.804 476.311 18.918 476.527 19.146C476.743 19.362 476.851 19.632 476.851 19.956C476.851 20.28 476.737 20.556 476.509 20.784C476.293 21 476.023 21.108 475.699 21.108Z" fill="#2F2F2F"/>
<path d="M496 1H526V-1H496V1ZM530 5V25H532V5H530ZM526 29H496V31H526V29ZM492 25V5H490V25H492ZM496 29C493.791 29 492 27.2091 492 25H490C490 28.3137 492.686 31 496 31V29ZM530 25C530 27.2091 528.209 29 526 29V31C529.314 31 532 28.3137 532 25H530ZM526 1C528.209 1 530 2.79086 530 5H532C532 1.68629 529.314 -1 526 -1V1ZM496 -1C492.686 -1 490 1.68629 490 5H492C492 2.79086 493.791 1 496 1V-1Z" fill="#2F2F2F"/>
<path d="M499.937 14.692C501.173 14.812 502.115 15.196 502.763 15.844C503.411 16.48 503.735 17.296 503.735 18.292C503.735 19.012 503.555 19.666 503.195 20.254C502.835 20.83 502.295 21.292 501.575 21.64C500.867 21.976 499.997 22.144 498.965 22.144C498.065 22.144 497.201 22.012 496.373 21.748C495.545 21.472 494.867 21.094 494.339 20.614L495.167 19.192C495.599 19.6 496.151 19.93 496.823 20.182C497.495 20.422 498.209 20.542 498.965 20.542C499.901 20.542 500.627 20.344 501.143 19.948C501.671 19.552 501.935 19.006 501.935 18.31C501.935 17.614 501.677 17.074 501.161 16.69C500.645 16.306 499.865 16.114 498.821 16.114H497.813V14.854L500.981 10.966H494.915V9.4H503.231V10.624L499.937 14.692ZM514.182 20.434V22H505.128V20.776L510.258 15.826C510.882 15.226 511.302 14.71 511.518 14.278C511.734 13.834 511.842 13.39 511.842 12.946C511.842 12.286 511.608 11.776 511.14 11.416C510.684 11.044 510.024 10.858 509.16 10.858C507.768 10.858 506.694 11.314 505.938 12.226L504.714 11.164C505.206 10.564 505.848 10.096 506.64 9.76C507.444 9.424 508.338 9.256 509.322 9.256C510.642 9.256 511.692 9.574 512.472 10.21C513.252 10.834 513.642 11.686 513.642 12.766C513.642 13.438 513.498 14.074 513.21 14.674C512.922 15.274 512.376 15.958 511.572 16.726L507.72 20.434H514.182ZM520.757 22.144C519.761 22.144 518.873 21.892 518.093 21.388C517.325 20.872 516.719 20.128 516.275 19.156C515.831 18.184 515.609 17.032 515.609 15.7C515.609 14.368 515.831 13.216 516.275 12.244C516.719 11.272 517.325 10.534 518.093 10.03C518.873 9.514 519.761 9.256 520.757 9.256C521.741 9.256 522.617 9.514 523.385 10.03C524.165 10.534 524.777 11.272 525.221 12.244C525.665 13.216 525.887 14.368 525.887 15.7C525.887 17.032 525.665 18.184 525.221 19.156C524.777 20.128 524.165 20.872 523.385 21.388C522.617 21.892 521.741 22.144 520.757 22.144ZM520.757 20.542C521.765 20.542 522.569 20.128 523.169 19.3C523.781 18.472 524.087 17.272 524.087 15.7C524.087 14.128 523.781 12.928 523.169 12.1C522.569 11.272 521.765 10.858 520.757 10.858C519.737 10.858 518.921 11.272 518.309 12.1C517.709 12.928 517.409 14.128 517.409 15.7C517.409 17.272 517.709 18.472 518.309 19.3C518.921 20.128 519.737 20.542 520.757 20.542Z" fill="#2F2F2F"/>
<path d="M542.99 7.644H544.718V21H542.99V7.644ZM553.075 11.37C553.999 11.37 554.827 11.574 555.559 11.982C556.291 12.39 556.861 12.96 557.269 13.692C557.689 14.424 557.899 15.27 557.899 16.23C557.899 17.19 557.689 18.042 557.269 18.786C556.861 19.518 556.291 20.088 555.559 20.496C554.827 20.904 553.999 21.108 553.075 21.108C552.367 21.108 551.719 20.97 551.131 20.694C550.543 20.418 550.057 20.016 549.673 19.488V21H548.017V7.644H549.745V12.9C550.129 12.396 550.609 12.018 551.185 11.766C551.761 11.502 552.391 11.37 553.075 11.37ZM552.931 19.596C553.543 19.596 554.089 19.458 554.569 19.182C555.061 18.894 555.445 18.498 555.721 17.994C556.009 17.478 556.153 16.89 556.153 16.23C556.153 15.57 556.009 14.988 555.721 14.484C555.445 13.968 555.061 13.572 554.569 13.296C554.089 13.02 553.543 12.882 552.931 12.882C552.331 12.882 551.785 13.02 551.293 13.296C550.801 13.572 550.417 13.968 550.141 14.484C549.865 14.988 549.727 15.57 549.727 16.23C549.727 16.89 549.865 17.478 550.141 17.994C550.417 18.498 550.801 18.894 551.293 19.182C551.785 19.458 552.331 19.596 552.931 19.596Z" fill="#2F2F2F"/>
<path d="M12.9516 48.4V61H11.1516V55.384H3.91559V61H2.11559V48.4H3.91559V53.818H11.1516V48.4H12.9516ZM20.557 61.108C19.609 61.108 18.757 60.898 18.001 60.478C17.245 60.058 16.651 59.482 16.219 58.75C15.799 58.006 15.589 57.166 15.589 56.23C15.589 55.294 15.799 54.46 16.219 53.728C16.651 52.984 17.245 52.408 18.001 52C18.757 51.58 19.609 51.37 20.557 51.37C21.505 51.37 22.351 51.58 23.095 52C23.851 52.408 24.439 52.984 24.859 53.728C25.291 54.46 25.507 55.294 25.507 56.23C25.507 57.166 25.291 58.006 24.859 58.75C24.439 59.482 23.851 60.058 23.095 60.478C22.351 60.898 21.505 61.108 20.557 61.108ZM20.557 59.596C21.169 59.596 21.715 59.458 22.195 59.182C22.687 58.894 23.071 58.498 23.347 57.994C23.623 57.478 23.761 56.89 23.761 56.23C23.761 55.57 23.623 54.988 23.347 54.484C23.071 53.968 22.687 53.572 22.195 53.296C21.715 53.02 21.169 52.882 20.557 52.882C19.945 52.882 19.393 53.02 18.901 53.296C18.421 53.572 18.037 53.968 17.749 54.484C17.473 54.988 17.335 55.57 17.335 56.23C17.335 56.89 17.473 57.478 17.749 57.994C18.037 58.498 18.421 58.894 18.901 59.182C19.393 59.458 19.945 59.596 20.557 59.596ZM42.0691 51.46L38.5051 61H36.8491L34.0951 53.764L31.3051 61H29.6491L26.1031 51.46H27.7411L30.5131 59.056L33.3931 51.46H34.8511L37.6771 59.092L40.5211 51.46H42.0691ZM60.5906 51.37C61.7906 51.37 62.7386 51.718 63.4346 52.414C64.1426 53.11 64.4966 54.142 64.4966 55.51V61H62.7686V55.708C62.7686 54.784 62.5526 54.088 62.1206 53.62C61.7006 53.152 61.0946 52.918 60.3026 52.918C59.4266 52.918 58.7306 53.194 58.2146 53.746C57.6986 54.286 57.4406 55.066 57.4406 56.086V61H55.7126V55.708C55.7126 54.784 55.4966 54.088 55.0646 53.62C54.6446 53.152 54.0386 52.918 53.2466 52.918C52.3706 52.918 51.6746 53.194 51.1586 53.746C50.6426 54.286 50.3846 55.066 50.3846 56.086V61H48.6566V51.46H50.3126V52.882C50.6606 52.39 51.1166 52.018 51.6806 51.766C52.2446 51.502 52.8866 51.37 53.6066 51.37C54.3506 51.37 55.0106 51.52 55.5866 51.82C56.1626 52.12 56.6066 52.558 56.9186 53.134C57.2786 52.582 57.7766 52.15 58.4126 51.838C59.0606 51.526 59.7866 51.37 60.5906 51.37ZM71.1501 51.37C72.4701 51.37 73.4781 51.694 74.1741 52.342C74.8821 52.99 75.2361 53.956 75.2361 55.24V61H73.5981V59.74C73.3101 60.184 72.8961 60.526 72.3561 60.766C71.8281 60.994 71.1981 61.108 70.4661 61.108C69.3981 61.108 68.5401 60.85 67.8921 60.334C67.2561 59.818 66.9381 59.14 66.9381 58.3C66.9381 57.46 67.2441 56.788 67.8561 56.284C68.4681 55.768 69.4401 55.51 70.7721 55.51H73.5081V55.168C73.5081 54.424 73.2921 53.854 72.8601 53.458C72.4281 53.062 71.7921 52.864 70.9521 52.864C70.3881 52.864 69.8361 52.96 69.2961 53.152C68.7561 53.332 68.3001 53.578 67.9281 53.89L67.2081 52.594C67.7001 52.198 68.2881 51.898 68.9721 51.694C69.6561 51.478 70.3821 51.37 71.1501 51.37ZM70.7541 59.776C71.4141 59.776 71.9841 59.632 72.4641 59.344C72.9441 59.044 73.2921 58.624 73.5081 58.084V56.752H70.8441C69.3801 56.752 68.6481 57.244 68.6481 58.228C68.6481 58.708 68.8341 59.086 69.2061 59.362C69.5781 59.638 70.0941 59.776 70.7541 59.776ZM83.5279 51.37C84.7399 51.37 85.6999 51.724 86.4079 52.432C87.1279 53.128 87.4879 54.154 87.4879 55.51V61H85.7599V55.708C85.7599 54.784 85.5379 54.088 85.0939 53.62C84.6499 53.152 84.0139 52.918 83.1859 52.918C82.2499 52.918 81.5119 53.194 80.9719 53.746C80.4319 54.286 80.1619 55.066 80.1619 56.086V61H78.4339V51.46H80.0899V52.9C80.4379 52.408 80.9059 52.03 81.4939 51.766C82.0939 51.502 82.7719 51.37 83.5279 51.37ZM98.9521 51.46L94.3261 61.954C93.9181 62.926 93.4381 63.61 92.8861 64.006C92.3461 64.402 91.6921 64.6 90.9241 64.6C90.4561 64.6 90.0001 64.522 89.5561 64.366C89.1241 64.222 88.7641 64.006 88.4761 63.718L89.2141 62.422C89.7061 62.89 90.2761 63.124 90.9241 63.124C91.3441 63.124 91.6921 63.01 91.9681 62.782C92.2561 62.566 92.5141 62.188 92.7421 61.648L93.0481 60.982L88.8361 51.46H90.6361L93.9661 59.092L97.2601 51.46H98.9521ZM117.333 51.37C118.533 51.37 119.481 51.718 120.177 52.414C120.885 53.11 121.239 54.142 121.239 55.51V61H119.511V55.708C119.511 54.784 119.295 54.088 118.863 53.62C118.443 53.152 117.837 52.918 117.045 52.918C116.169 52.918 115.473 53.194 114.957 53.746C114.441 54.286 114.183 55.066 114.183 56.086V61H112.455V55.708C112.455 54.784 112.239 54.088 111.807 53.62C111.387 53.152 110.781 52.918 109.989 52.918C109.113 52.918 108.417 53.194 107.901 53.746C107.385 54.286 107.127 55.066 107.127 56.086V61H105.399V51.46H107.055V52.882C107.403 52.39 107.859 52.018 108.423 51.766C108.987 51.502 109.629 51.37 110.349 51.37C111.093 51.37 111.753 51.52 112.329 51.82C112.905 52.12 113.349 52.558 113.661 53.134C114.021 52.582 114.519 52.15 115.155 51.838C115.803 51.526 116.529 51.37 117.333 51.37ZM128.557 61.108C127.609 61.108 126.757 60.898 126.001 60.478C125.245 60.058 124.651 59.482 124.219 58.75C123.799 58.006 123.589 57.166 123.589 56.23C123.589 55.294 123.799 54.46 124.219 53.728C124.651 52.984 125.245 52.408 126.001 52C126.757 51.58 127.609 51.37 128.557 51.37C129.505 51.37 130.351 51.58 131.095 52C131.851 52.408 132.439 52.984 132.859 53.728C133.291 54.46 133.507 55.294 133.507 56.23C133.507 57.166 133.291 58.006 132.859 58.75C132.439 59.482 131.851 60.058 131.095 60.478C130.351 60.898 129.505 61.108 128.557 61.108ZM128.557 59.596C129.169 59.596 129.715 59.458 130.195 59.182C130.687 58.894 131.071 58.498 131.347 57.994C131.623 57.478 131.761 56.89 131.761 56.23C131.761 55.57 131.623 54.988 131.347 54.484C131.071 53.968 130.687 53.572 130.195 53.296C129.715 53.02 129.169 52.882 128.557 52.882C127.945 52.882 127.393 53.02 126.901 53.296C126.421 53.572 126.037 53.968 125.749 54.484C125.473 54.988 125.335 55.57 125.335 56.23C125.335 56.89 125.473 57.478 125.749 57.994C126.037 58.498 126.421 58.894 126.901 59.182C127.393 59.458 127.945 59.596 128.557 59.596ZM137.553 53.062C137.853 52.51 138.297 52.09 138.885 51.802C139.473 51.514 140.187 51.37 141.027 51.37V53.044C140.931 53.032 140.799 53.026 140.631 53.026C139.695 53.026 138.957 53.308 138.417 53.872C137.889 54.424 137.625 55.216 137.625 56.248V61H135.897V51.46H137.553V53.062ZM151.691 56.284C151.691 56.416 151.679 56.59 151.655 56.806H143.915C144.023 57.646 144.389 58.324 145.013 58.84C145.649 59.344 146.435 59.596 147.371 59.596C148.511 59.596 149.429 59.212 150.125 58.444L151.079 59.56C150.647 60.064 150.107 60.448 149.459 60.712C148.823 60.976 148.109 61.108 147.317 61.108C146.309 61.108 145.415 60.904 144.635 60.496C143.855 60.076 143.249 59.494 142.817 58.75C142.397 58.006 142.187 57.166 142.187 56.23C142.187 55.306 142.391 54.472 142.799 53.728C143.219 52.984 143.789 52.408 144.509 52C145.241 51.58 146.063 51.37 146.975 51.37C147.887 51.37 148.697 51.58 149.405 52C150.125 52.408 150.683 52.984 151.079 53.728C151.487 54.472 151.691 55.324 151.691 56.284ZM146.975 52.828C146.147 52.828 145.451 53.08 144.887 53.584C144.335 54.088 144.011 54.748 143.915 55.564H150.035C149.939 54.76 149.609 54.106 149.045 53.602C148.493 53.086 147.803 52.828 146.975 52.828ZM158.924 47.644H160.652V61H158.924V47.644ZM169.009 51.37C169.933 51.37 170.761 51.574 171.493 51.982C172.225 52.39 172.795 52.96 173.203 53.692C173.623 54.424 173.833 55.27 173.833 56.23C173.833 57.19 173.623 58.042 173.203 58.786C172.795 59.518 172.225 60.088 171.493 60.496C170.761 60.904 169.933 61.108 169.009 61.108C168.301 61.108 167.653 60.97 167.065 60.694C166.477 60.418 165.991 60.016 165.607 59.488V61H163.951V47.644H165.679V52.9C166.063 52.396 166.543 52.018 167.119 51.766C167.695 51.502 168.325 51.37 169.009 51.37ZM168.865 59.596C169.477 59.596 170.023 59.458 170.503 59.182C170.995 58.894 171.379 58.498 171.655 57.994C171.943 57.478 172.087 56.89 172.087 56.23C172.087 55.57 171.943 54.988 171.655 54.484C171.379 53.968 170.995 53.572 170.503 53.296C170.023 53.02 169.477 52.882 168.865 52.882C168.265 52.882 167.719 53.02 167.227 53.296C166.735 53.572 166.351 53.968 166.075 54.484C165.799 54.988 165.661 55.57 165.661 56.23C165.661 56.89 165.799 57.478 166.075 57.994C166.351 58.498 166.735 58.894 167.227 59.182C167.719 59.458 168.265 59.596 168.865 59.596ZM185.141 61.108C184.193 61.108 183.341 60.898 182.585 60.478C181.829 60.058 181.235 59.482 180.803 58.75C180.383 58.006 180.173 57.166 180.173 56.23C180.173 55.294 180.383 54.46 180.803 53.728C181.235 52.984 181.829 52.408 182.585 52C183.341 51.58 184.193 51.37 185.141 51.37C186.089 51.37 186.935 51.58 187.679 52C188.435 52.408 189.023 52.984 189.443 53.728C189.875 54.46 190.091 55.294 190.091 56.23C190.091 57.166 189.875 58.006 189.443 58.75C189.023 59.482 188.435 60.058 187.679 60.478C186.935 60.898 186.089 61.108 185.141 61.108ZM185.141 59.596C185.753 59.596 186.299 59.458 186.779 59.182C187.271 58.894 187.655 58.498 187.931 57.994C188.207 57.478 188.345 56.89 188.345 56.23C188.345 55.57 188.207 54.988 187.931 54.484C187.655 53.968 187.271 53.572 186.779 53.296C186.299 53.02 185.753 52.882 185.141 52.882C184.529 52.882 183.977 53.02 183.485 53.296C183.005 53.572 182.621 53.968 182.333 54.484C182.057 54.988 181.919 55.57 181.919 56.23C181.919 56.89 182.057 57.478 182.333 57.994C182.621 58.498 183.005 58.894 183.485 59.182C183.977 59.458 184.529 59.596 185.141 59.596ZM195.973 48.958C194.941 48.958 194.425 49.516 194.425 50.632V51.46H197.197V52.882H194.461V61H192.733V52.882H191.113V51.46H192.733V50.614C192.733 49.666 193.009 48.916 193.561 48.364C194.113 47.812 194.887 47.536 195.883 47.536C196.267 47.536 196.627 47.584 196.963 47.68C197.299 47.776 197.587 47.914 197.827 48.094L197.305 49.408C196.909 49.108 196.465 48.958 195.973 48.958ZM207.746 61.108C206.798 61.108 205.946 60.898 205.19 60.478C204.434 60.058 203.84 59.482 203.408 58.75C202.988 58.006 202.778 57.166 202.778 56.23C202.778 55.294 202.988 54.46 203.408 53.728C203.84 52.984 204.434 52.408 205.19 52C205.946 51.58 206.798 51.37 207.746 51.37C208.694 51.37 209.54 51.58 210.284 52C211.04 52.408 211.628 52.984 212.048 53.728C212.48 54.46 212.696 55.294 212.696 56.23C212.696 57.166 212.48 58.006 212.048 58.75C211.628 59.482 211.04 60.058 210.284 60.478C209.54 60.898 208.694 61.108 207.746 61.108ZM207.746 59.596C208.358 59.596 208.904 59.458 209.384 59.182C209.876 58.894 210.26 58.498 210.536 57.994C210.812 57.478 210.95 56.89 210.95 56.23C210.95 55.57 210.812 54.988 210.536 54.484C210.26 53.968 209.876 53.572 209.384 53.296C208.904 53.02 208.358 52.882 207.746 52.882C207.134 52.882 206.582 53.02 206.09 53.296C205.61 53.572 205.226 53.968 204.938 54.484C204.662 54.988 204.524 55.57 204.524 56.23C204.524 56.89 204.662 57.478 204.938 57.994C205.226 58.498 205.61 58.894 206.09 59.182C206.582 59.458 207.134 59.596 207.746 59.596ZM216.742 53.062C217.042 52.51 217.486 52.09 218.074 51.802C218.662 51.514 219.376 51.37 220.216 51.37V53.044C220.12 53.032 219.988 53.026 219.82 53.026C218.884 53.026 218.146 53.308 217.606 53.872C217.078 54.424 216.814 55.216 216.814 56.248V61H215.086V51.46H216.742V53.062ZM225.802 51.37C227.122 51.37 228.13 51.694 228.826 52.342C229.534 52.99 229.888 53.956 229.888 55.24V61H228.25V59.74C227.962 60.184 227.548 60.526 227.008 60.766C226.48 60.994 225.85 61.108 225.118 61.108C224.05 61.108 223.192 60.85 222.544 60.334C221.908 59.818 221.59 59.14 221.59 58.3C221.59 57.46 221.896 56.788 222.508 56.284C223.12 55.768 224.092 55.51 225.424 55.51H228.16V55.168C228.16 54.424 227.944 53.854 227.512 53.458C227.08 53.062 226.444 52.864 225.604 52.864C225.04 52.864 224.488 52.96 223.948 53.152C223.408 53.332 222.952 53.578 222.58 53.89L221.86 52.594C222.352 52.198 222.94 51.898 223.624 51.694C224.308 51.478 225.034 51.37 225.802 51.37ZM225.406 59.776C226.066 59.776 226.636 59.632 227.116 59.344C227.596 59.044 227.944 58.624 228.16 58.084V56.752H225.496C224.032 56.752 223.3 57.244 223.3 58.228C223.3 58.708 223.486 59.086 223.858 59.362C224.23 59.638 224.746 59.776 225.406 59.776ZM238.18 51.37C239.392 51.37 240.352 51.724 241.06 52.432C241.78 53.128 242.14 54.154 242.14 55.51V61H240.412V55.708C240.412 54.784 240.19 54.088 239.746 53.62C239.302 53.152 238.666 52.918 237.838 52.918C236.902 52.918 236.164 53.194 235.624 53.746C235.084 54.286 234.814 55.066 234.814 56.086V61H233.086V51.46H234.742V52.9C235.09 52.408 235.558 52.03 236.146 51.766C236.746 51.502 237.424 51.37 238.18 51.37ZM254.517 51.46V59.704C254.517 61.372 254.103 62.602 253.275 63.394C252.447 64.198 251.211 64.6 249.567 64.6C248.667 64.6 247.809 64.474 246.993 64.222C246.177 63.982 245.517 63.634 245.013 63.178L245.841 61.846C246.285 62.23 246.831 62.53 247.479 62.746C248.139 62.974 248.817 63.088 249.513 63.088C250.629 63.088 251.451 62.824 251.979 62.296C252.519 61.768 252.789 60.964 252.789 59.884V59.128C252.381 59.62 251.877 59.992 251.277 60.244C250.689 60.484 250.047 60.604 249.351 60.604C248.439 60.604 247.611 60.412 246.867 60.028C246.135 59.632 245.559 59.086 245.139 58.39C244.719 57.682 244.509 56.878 244.509 55.978C244.509 55.078 244.719 54.28 245.139 53.584C245.559 52.876 246.135 52.33 246.867 51.946C247.611 51.562 248.439 51.37 249.351 51.37C250.071 51.37 250.737 51.502 251.349 51.766C251.973 52.03 252.483 52.42 252.879 52.936V51.46H254.517ZM249.549 59.092C250.173 59.092 250.731 58.96 251.223 58.696C251.727 58.432 252.117 58.066 252.393 57.598C252.681 57.118 252.825 56.578 252.825 55.978C252.825 55.054 252.519 54.31 251.907 53.746C251.295 53.17 250.509 52.882 249.549 52.882C248.577 52.882 247.785 53.17 247.173 53.746C246.561 54.31 246.255 55.054 246.255 55.978C246.255 56.578 246.393 57.118 246.669 57.598C246.957 58.066 247.347 58.432 247.839 58.696C248.343 58.96 248.913 59.092 249.549 59.092ZM266.441 56.284C266.441 56.416 266.429 56.59 266.405 56.806H258.665C258.773 57.646 259.139 58.324 259.763 58.84C260.399 59.344 261.185 59.596 262.121 59.596C263.261 59.596 264.179 59.212 264.875 58.444L265.829 59.56C265.397 60.064 264.857 60.448 264.209 60.712C263.573 60.976 262.859 61.108 262.067 61.108C261.059 61.108 260.165 60.904 259.385 60.496C258.605 60.076 257.999 59.494 257.567 58.75C257.147 58.006 256.937 57.166 256.937 56.23C256.937 55.306 257.141 54.472 257.549 53.728C257.969 52.984 258.539 52.408 259.259 52C259.991 51.58 260.813 51.37 261.725 51.37C262.637 51.37 263.447 51.58 264.155 52C264.875 52.408 265.433 52.984 265.829 53.728C266.237 54.472 266.441 55.324 266.441 56.284ZM261.725 52.828C260.897 52.828 260.201 53.08 259.637 53.584C259.085 54.088 258.761 54.748 258.665 55.564H264.785C264.689 54.76 264.359 54.106 263.795 53.602C263.243 53.086 262.553 52.828 261.725 52.828ZM271.576 61.108C270.796 61.108 270.046 61.006 269.326 60.802C268.606 60.586 268.042 60.316 267.634 59.992L268.354 58.624C268.774 58.924 269.284 59.164 269.884 59.344C270.484 59.524 271.09 59.614 271.702 59.614C273.214 59.614 273.97 59.182 273.97 58.318C273.97 58.03 273.868 57.802 273.664 57.634C273.46 57.466 273.202 57.346 272.89 57.274C272.59 57.19 272.158 57.1 271.594 57.004C270.826 56.884 270.196 56.746 269.704 56.59C269.224 56.434 268.81 56.17 268.462 55.798C268.114 55.426 267.94 54.904 267.94 54.232C267.94 53.368 268.3 52.678 269.02 52.162C269.74 51.634 270.706 51.37 271.918 51.37C272.554 51.37 273.19 51.448 273.826 51.604C274.462 51.76 274.984 51.97 275.392 52.234L274.654 53.602C273.874 53.098 272.956 52.846 271.9 52.846C271.168 52.846 270.61 52.966 270.226 53.206C269.842 53.446 269.65 53.764 269.65 54.16C269.65 54.472 269.758 54.718 269.974 54.898C270.19 55.078 270.454 55.21 270.766 55.294C271.09 55.378 271.54 55.474 272.116 55.582C272.884 55.714 273.502 55.858 273.97 56.014C274.45 56.158 274.858 56.41 275.194 56.77C275.53 57.13 275.698 57.634 275.698 58.282C275.698 59.146 275.326 59.836 274.582 60.352C273.85 60.856 272.848 61.108 271.576 61.108ZM297.128 51.46L293.564 61H291.908L289.154 53.764L286.364 61H284.708L281.162 51.46H282.8L285.572 59.056L288.452 51.46H289.91L292.736 59.092L295.58 51.46H297.128ZM307.239 56.284C307.239 56.416 307.227 56.59 307.203 56.806H299.463C299.571 57.646 299.937 58.324 300.561 58.84C301.197 59.344 301.983 59.596 302.919 59.596C304.059 59.596 304.977 59.212 305.673 58.444L306.627 59.56C306.195 60.064 305.655 60.448 305.007 60.712C304.371 60.976 303.657 61.108 302.865 61.108C301.857 61.108 300.963 60.904 300.183 60.496C299.403 60.076 298.797 59.494 298.365 58.75C297.945 58.006 297.735 57.166 297.735 56.23C297.735 55.306 297.939 54.472 298.347 53.728C298.767 52.984 299.337 52.408 300.057 52C300.789 51.58 301.611 51.37 302.523 51.37C303.435 51.37 304.245 51.58 304.953 52C305.673 52.408 306.231 52.984 306.627 53.728C307.035 54.472 307.239 55.324 307.239 56.284ZM302.523 52.828C301.695 52.828 300.999 53.08 300.435 53.584C299.883 54.088 299.559 54.748 299.463 55.564H305.583C305.487 54.76 305.157 54.106 304.593 53.602C304.041 53.086 303.351 52.828 302.523 52.828ZM311.295 53.062C311.595 52.51 312.039 52.09 312.627 51.802C313.215 51.514 313.929 51.37 314.769 51.37V53.044C314.673 53.032 314.541 53.026 314.373 53.026C313.437 53.026 312.699 53.308 312.159 53.872C311.631 54.424 311.367 55.216 311.367 56.248V61H309.639V51.46H311.295V53.062ZM325.433 56.284C325.433 56.416 325.421 56.59 325.397 56.806H317.657C317.765 57.646 318.131 58.324 318.755 58.84C319.391 59.344 320.177 59.596 321.113 59.596C322.253 59.596 323.171 59.212 323.867 58.444L324.821 59.56C324.389 60.064 323.849 60.448 323.201 60.712C322.565 60.976 321.851 61.108 321.059 61.108C320.051 61.108 319.157 60.904 318.377 60.496C317.597 60.076 316.991 59.494 316.559 58.75C316.139 58.006 315.929 57.166 315.929 56.23C315.929 55.306 316.133 54.472 316.541 53.728C316.961 52.984 317.531 52.408 318.251 52C318.983 51.58 319.805 51.37 320.717 51.37C321.629 51.37 322.439 51.58 323.147 52C323.867 52.408 324.425 52.984 324.821 53.728C325.229 54.472 325.433 55.324 325.433 56.284ZM320.717 52.828C319.889 52.828 319.193 53.08 318.629 53.584C318.077 54.088 317.753 54.748 317.657 55.564H323.777C323.681 54.76 323.351 54.106 322.787 53.602C322.235 53.086 321.545 52.828 320.717 52.828ZM341.666 47.644V61H340.01V59.488C339.626 60.016 339.14 60.418 338.552 60.694C337.964 60.97 337.316 61.108 336.608 61.108C335.684 61.108 334.856 60.904 334.124 60.496C333.392 60.088 332.816 59.518 332.396 58.786C331.988 58.042 331.784 57.19 331.784 56.23C331.784 55.27 331.988 54.424 332.396 53.692C332.816 52.96 333.392 52.39 334.124 51.982C334.856 51.574 335.684 51.37 336.608 51.37C337.292 51.37 337.922 51.502 338.498 51.766C339.074 52.018 339.554 52.396 339.938 52.9V47.644H341.666ZM336.752 59.596C337.352 59.596 337.898 59.458 338.39 59.182C338.882 58.894 339.266 58.498 339.542 57.994C339.818 57.478 339.956 56.89 339.956 56.23C339.956 55.57 339.818 54.988 339.542 54.484C339.266 53.968 338.882 53.572 338.39 53.296C337.898 53.02 337.352 52.882 336.752 52.882C336.14 52.882 335.588 53.02 335.096 53.296C334.616 53.572 334.232 53.968 333.944 54.484C333.668 54.988 333.53 55.57 333.53 56.23C333.53 56.89 333.668 57.478 333.944 57.994C334.232 58.498 334.616 58.894 335.096 59.182C335.588 59.458 336.14 59.596 336.752 59.596ZM353.558 56.284C353.558 56.416 353.546 56.59 353.522 56.806H345.782C345.89 57.646 346.256 58.324 346.88 58.84C347.516 59.344 348.302 59.596 349.238 59.596C350.378 59.596 351.296 59.212 351.992 58.444L352.946 59.56C352.514 60.064 351.974 60.448 351.326 60.712C350.69 60.976 349.976 61.108 349.184 61.108C348.176 61.108 347.282 60.904 346.502 60.496C345.722 60.076 345.116 59.494 344.684 58.75C344.264 58.006 344.054 57.166 344.054 56.23C344.054 55.306 344.258 54.472 344.666 53.728C345.086 52.984 345.656 52.408 346.376 52C347.108 51.58 347.93 51.37 348.842 51.37C349.754 51.37 350.564 51.58 351.272 52C351.992 52.408 352.55 52.984 352.946 53.728C353.354 54.472 353.558 55.324 353.558 56.284ZM348.842 52.828C348.014 52.828 347.318 53.08 346.754 53.584C346.202 54.088 345.878 54.748 345.782 55.564H351.902C351.806 54.76 351.476 54.106 350.912 53.602C350.36 53.086 349.67 52.828 348.842 52.828ZM355.957 47.644H357.685V61H355.957V47.644ZM360.985 51.46H362.713V61H360.985V51.46ZM361.849 49.624C361.513 49.624 361.231 49.516 361.003 49.3C360.787 49.084 360.679 48.82 360.679 48.508C360.679 48.196 360.787 47.932 361.003 47.716C361.231 47.488 361.513 47.374 361.849 47.374C362.185 47.374 362.461 47.482 362.677 47.698C362.905 47.902 363.019 48.16 363.019 48.472C363.019 48.796 362.905 49.072 362.677 49.3C362.461 49.516 362.185 49.624 361.849 49.624ZM374.454 51.46L370.278 61H368.514L364.338 51.46H366.138L369.414 59.11L372.762 51.46H374.454ZM384.425 56.284C384.425 56.416 384.413 56.59 384.389 56.806H376.649C376.757 57.646 377.123 58.324 377.747 58.84C378.383 59.344 379.169 59.596 380.105 59.596C381.245 59.596 382.163 59.212 382.859 58.444L383.813 59.56C383.381 60.064 382.841 60.448 382.193 60.712C381.557 60.976 380.843 61.108 380.051 61.108C379.043 61.108 378.149 60.904 377.369 60.496C376.589 60.076 375.983 59.494 375.551 58.75C375.131 58.006 374.921 57.166 374.921 56.23C374.921 55.306 375.125 54.472 375.533 53.728C375.953 52.984 376.523 52.408 377.243 52C377.975 51.58 378.797 51.37 379.709 51.37C380.621 51.37 381.431 51.58 382.139 52C382.859 52.408 383.417 52.984 383.813 53.728C384.221 54.472 384.425 55.324 384.425 56.284ZM379.709 52.828C378.881 52.828 378.185 53.08 377.621 53.584C377.069 54.088 376.745 54.748 376.649 55.564H382.769C382.673 54.76 382.343 54.106 381.779 53.602C381.227 53.086 380.537 52.828 379.709 52.828ZM388.481 53.062C388.781 52.51 389.225 52.09 389.813 51.802C390.401 51.514 391.115 51.37 391.955 51.37V53.044C391.859 53.032 391.727 53.026 391.559 53.026C390.623 53.026 389.885 53.308 389.345 53.872C388.817 54.424 388.553 55.216 388.553 56.248V61H386.825V51.46H388.481V53.062ZM402.618 56.284C402.618 56.416 402.606 56.59 402.582 56.806H394.842C394.95 57.646 395.316 58.324 395.94 58.84C396.576 59.344 397.362 59.596 398.298 59.596C399.438 59.596 400.356 59.212 401.052 58.444L402.006 59.56C401.574 60.064 401.034 60.448 400.386 60.712C399.75 60.976 399.036 61.108 398.244 61.108C397.236 61.108 396.342 60.904 395.562 60.496C394.782 60.076 394.176 59.494 393.744 58.75C393.324 58.006 393.114 57.166 393.114 56.23C393.114 55.306 393.318 54.472 393.726 53.728C394.146 52.984 394.716 52.408 395.436 52C396.168 51.58 396.99 51.37 397.902 51.37C398.814 51.37 399.624 51.58 400.332 52C401.052 52.408 401.61 52.984 402.006 53.728C402.414 54.472 402.618 55.324 402.618 56.284ZM397.902 52.828C397.074 52.828 396.378 53.08 395.814 53.584C395.262 54.088 394.938 54.748 394.842 55.564H400.962C400.866 54.76 400.536 54.106 399.972 53.602C399.42 53.086 398.73 52.828 397.902 52.828ZM414.018 47.644V61H412.362V59.488C411.978 60.016 411.492 60.418 410.904 60.694C410.316 60.97 409.668 61.108 408.96 61.108C408.036 61.108 407.208 60.904 406.476 60.496C405.744 60.088 405.168 59.518 404.748 58.786C404.34 58.042 404.136 57.19 404.136 56.23C404.136 55.27 404.34 54.424 404.748 53.692C405.168 52.96 405.744 52.39 406.476 51.982C407.208 51.574 408.036 51.37 408.96 51.37C409.644 51.37 410.274 51.502 410.85 51.766C411.426 52.018 411.906 52.396 412.29 52.9V47.644H414.018ZM409.104 59.596C409.704 59.596 410.25 59.458 410.742 59.182C411.234 58.894 411.618 58.498 411.894 57.994C412.17 57.478 412.308 56.89 412.308 56.23C412.308 55.57 412.17 54.988 411.894 54.484C411.618 53.968 411.234 53.572 410.742 53.296C410.25 53.02 409.704 52.882 409.104 52.882C408.492 52.882 407.94 53.02 407.448 53.296C406.968 53.572 406.584 53.968 406.296 54.484C406.02 54.988 405.882 55.57 405.882 56.23C405.882 56.89 406.02 57.478 406.296 57.994C406.584 58.498 406.968 58.894 407.448 59.182C407.94 59.458 408.492 59.596 409.104 59.596ZM427.485 60.442C427.233 60.658 426.921 60.826 426.549 60.946C426.177 61.054 425.793 61.108 425.397 61.108C424.437 61.108 423.693 60.85 423.165 60.334C422.637 59.818 422.373 59.08 422.373 58.12V52.882H420.753V51.46H422.373V49.372H424.101V51.46H426.837V52.882H424.101V58.048C424.101 58.564 424.227 58.96 424.479 59.236C424.743 59.512 425.115 59.65 425.595 59.65C426.123 59.65 426.573 59.5 426.945 59.2L427.485 60.442ZM434.669 51.37C435.881 51.37 436.841 51.724 437.549 52.432C438.269 53.128 438.629 54.154 438.629 55.51V61H436.901V55.708C436.901 54.784 436.679 54.088 436.235 53.62C435.791 53.152 435.155 52.918 434.327 52.918C433.391 52.918 432.653 53.194 432.113 53.746C431.573 54.286 431.303 55.066 431.303 56.086V61H429.575V47.644H431.303V52.81C431.663 52.354 432.131 52 432.707 51.748C433.295 51.496 433.949 51.37 434.669 51.37ZM445.3 51.37C446.62 51.37 447.628 51.694 448.324 52.342C449.032 52.99 449.386 53.956 449.386 55.24V61H447.748V59.74C447.46 60.184 447.046 60.526 446.506 60.766C445.978 60.994 445.348 61.108 444.616 61.108C443.548 61.108 442.69 60.85 442.042 60.334C441.406 59.818 441.088 59.14 441.088 58.3C441.088 57.46 441.394 56.788 442.006 56.284C442.618 55.768 443.59 55.51 444.922 55.51H447.658V55.168C447.658 54.424 447.442 53.854 447.01 53.458C446.578 53.062 445.942 52.864 445.102 52.864C444.538 52.864 443.986 52.96 443.446 53.152C442.906 53.332 442.45 53.578 442.078 53.89L441.358 52.594C441.85 52.198 442.438 51.898 443.122 51.694C443.806 51.478 444.532 51.37 445.3 51.37ZM444.904 59.776C445.564 59.776 446.134 59.632 446.614 59.344C447.094 59.044 447.442 58.624 447.658 58.084V56.752H444.994C443.53 56.752 442.798 57.244 442.798 58.228C442.798 58.708 442.984 59.086 443.356 59.362C443.728 59.638 444.244 59.776 444.904 59.776ZM457.678 51.37C458.89 51.37 459.85 51.724 460.558 52.432C461.278 53.128 461.638 54.154 461.638 55.51V61H459.91V55.708C459.91 54.784 459.688 54.088 459.244 53.62C458.8 53.152 458.164 52.918 457.336 52.918C456.4 52.918 455.662 53.194 455.122 53.746C454.582 54.286 454.312 55.066 454.312 56.086V61H452.584V51.46H454.24V52.9C454.588 52.408 455.056 52.03 455.644 51.766C456.244 51.502 456.922 51.37 457.678 51.37ZM474.728 51.37C475.652 51.37 476.48 51.574 477.212 51.982C477.944 52.39 478.514 52.96 478.922 53.692C479.342 54.424 479.552 55.27 479.552 56.23C479.552 57.19 479.342 58.042 478.922 58.786C478.514 59.518 477.944 60.088 477.212 60.496C476.48 60.904 475.652 61.108 474.728 61.108C474.044 61.108 473.414 60.976 472.838 60.712C472.274 60.448 471.794 60.064 471.398 59.56V64.492H469.67V51.46H471.326V52.972C471.71 52.444 472.196 52.048 472.784 51.784C473.372 51.508 474.02 51.37 474.728 51.37ZM474.584 59.596C475.196 59.596 475.742 59.458 476.222 59.182C476.714 58.894 477.098 58.498 477.374 57.994C477.662 57.478 477.806 56.89 477.806 56.23C477.806 55.57 477.662 54.988 477.374 54.484C477.098 53.968 476.714 53.572 476.222 53.296C475.742 53.02 475.196 52.882 474.584 52.882C473.984 52.882 473.438 53.026 472.946 53.314C472.466 53.59 472.082 53.98 471.794 54.484C471.518 54.988 471.38 55.57 471.38 56.23C471.38 56.89 471.518 57.478 471.794 57.994C472.07 58.498 472.454 58.894 472.946 59.182C473.438 59.458 473.984 59.596 474.584 59.596ZM481.94 51.46H483.668V61H481.94V51.46ZM482.804 49.624C482.468 49.624 482.186 49.516 481.958 49.3C481.742 49.084 481.634 48.82 481.634 48.508C481.634 48.196 481.742 47.932 481.958 47.716C482.186 47.488 482.468 47.374 482.804 47.374C483.14 47.374 483.416 47.482 483.632 47.698C483.86 47.902 483.974 48.16 483.974 48.472C483.974 48.796 483.86 49.072 483.632 49.3C483.416 49.516 483.14 49.624 482.804 49.624ZM492.061 51.37C493.273 51.37 494.233 51.724 494.941 52.432C495.661 53.128 496.021 54.154 496.021 55.51V61H494.293V55.708C494.293 54.784 494.071 54.088 493.627 53.62C493.183 53.152 492.547 52.918 491.719 52.918C490.783 52.918 490.045 53.194 489.505 53.746C488.965 54.286 488.695 55.066 488.695 56.086V61H486.967V51.46H488.623V52.9C488.971 52.408 489.439 52.03 490.027 51.766C490.627 51.502 491.305 51.37 492.061 51.37ZM507.894 56.284C507.894 56.416 507.882 56.59 507.858 56.806H500.118C500.226 57.646 500.592 58.324 501.216 58.84C501.852 59.344 502.638 59.596 503.574 59.596C504.714 59.596 505.632 59.212 506.328 58.444L507.282 59.56C506.85 60.064 506.31 60.448 505.662 60.712C505.026 60.976 504.312 61.108 503.52 61.108C502.512 61.108 501.618 60.904 500.838 60.496C500.058 60.076 499.452 59.494 499.02 58.75C498.6 58.006 498.39 57.166 498.39 56.23C498.39 55.306 498.594 54.472 499.002 53.728C499.422 52.984 499.992 52.408 500.712 52C501.444 51.58 502.266 51.37 503.178 51.37C504.09 51.37 504.9 51.58 505.608 52C506.328 52.408 506.886 52.984 507.282 53.728C507.69 54.472 507.894 55.324 507.894 56.284ZM503.178 52.828C502.35 52.828 501.654 53.08 501.09 53.584C500.538 54.088 500.214 54.748 500.118 55.564H506.238C506.142 54.76 505.812 54.106 505.248 53.602C504.696 53.086 504.006 52.828 503.178 52.828ZM513.504 51.37C514.824 51.37 515.832 51.694 516.528 52.342C517.236 52.99 517.59 53.956 517.59 55.24V61H515.952V59.74C515.664 60.184 515.25 60.526 514.71 60.766C514.182 60.994 513.552 61.108 512.82 61.108C511.752 61.108 510.894 60.85 510.246 60.334C509.61 59.818 509.292 59.14 509.292 58.3C509.292 57.46 509.598 56.788 510.21 56.284C510.822 55.768 511.794 55.51 513.126 55.51H515.862V55.168C515.862 54.424 515.646 53.854 515.214 53.458C514.782 53.062 514.146 52.864 513.306 52.864C512.742 52.864 512.19 52.96 511.65 53.152C511.11 53.332 510.654 53.578 510.282 53.89L509.562 52.594C510.054 52.198 510.642 51.898 511.326 51.694C512.01 51.478 512.736 51.37 513.504 51.37ZM513.108 59.776C513.768 59.776 514.338 59.632 514.818 59.344C515.298 59.044 515.646 58.624 515.862 58.084V56.752H513.198C511.734 56.752 511.002 57.244 511.002 58.228C511.002 58.708 511.188 59.086 511.56 59.362C511.932 59.638 512.448 59.776 513.108 59.776ZM525.845 51.37C526.769 51.37 527.597 51.574 528.329 51.982C529.061 52.39 529.631 52.96 530.039 53.692C530.459 54.424 530.669 55.27 530.669 56.23C530.669 57.19 530.459 58.042 530.039 58.786C529.631 59.518 529.061 60.088 528.329 60.496C527.597 60.904 526.769 61.108 525.845 61.108C525.161 61.108 524.531 60.976 523.955 60.712C523.391 60.448 522.911 60.064 522.515 59.56V64.492H520.787V51.46H522.443V52.972C522.827 52.444 523.313 52.048 523.901 51.784C524.489 51.508 525.137 51.37 525.845 51.37ZM525.701 59.596C526.313 59.596 526.859 59.458 527.339 59.182C527.831 58.894 528.215 58.498 528.491 57.994C528.779 57.478 528.923 56.89 528.923 56.23C528.923 55.57 528.779 54.988 528.491 54.484C528.215 53.968 527.831 53.572 527.339 53.296C526.859 53.02 526.313 52.882 525.701 52.882C525.101 52.882 524.555 53.026 524.063 53.314C523.583 53.59 523.199 53.98 522.911 54.484C522.635 54.988 522.497 55.57 522.497 56.23C522.497 56.89 522.635 57.478 522.911 57.994C523.187 58.498 523.571 58.894 524.063 59.182C524.555 59.458 525.101 59.596 525.701 59.596ZM538.115 51.37C539.039 51.37 539.867 51.574 540.599 51.982C541.331 52.39 541.901 52.96 542.309 53.692C542.729 54.424 542.939 55.27 542.939 56.23C542.939 57.19 542.729 58.042 542.309 58.786C541.901 59.518 541.331 60.088 540.599 60.496C539.867 60.904 539.039 61.108 538.115 61.108C537.431 61.108 536.801 60.976 536.225 60.712C535.661 60.448 535.181 60.064 534.785 59.56V64.492H533.057V51.46H534.713V52.972C535.097 52.444 535.583 52.048 536.171 51.784C536.759 51.508 537.407 51.37 538.115 51.37ZM537.971 59.596C538.583 59.596 539.129 59.458 539.609 59.182C540.101 58.894 540.485 58.498 540.761 57.994C541.049 57.478 541.193 56.89 541.193 56.23C541.193 55.57 541.049 54.988 540.761 54.484C540.485 53.968 540.101 53.572 539.609 53.296C539.129 53.02 538.583 52.882 537.971 52.882C537.371 52.882 536.825 53.026 536.333 53.314C535.853 53.59 535.469 53.98 535.181 54.484C534.905 54.988 534.767 55.57 534.767 56.23C534.767 56.89 534.905 57.478 535.181 57.994C535.457 58.498 535.841 58.894 536.333 59.182C536.825 59.458 537.371 59.596 537.971 59.596ZM545.326 47.644H547.054V61H545.326V47.644ZM558.976 56.284C558.976 56.416 558.964 56.59 558.94 56.806H551.2C551.308 57.646 551.674 58.324 552.298 58.84C552.934 59.344 553.72 59.596 554.656 59.596C555.796 59.596 556.714 59.212 557.41 58.444L558.364 59.56C557.932 60.064 557.392 60.448 556.744 60.712C556.108 60.976 555.394 61.108 554.602 61.108C553.594 61.108 552.7 60.904 551.92 60.496C551.14 60.076 550.534 59.494 550.102 58.75C549.682 58.006 549.472 57.166 549.472 56.23C549.472 55.306 549.676 54.472 550.084 53.728C550.504 52.984 551.074 52.408 551.794 52C552.526 51.58 553.348 51.37 554.26 51.37C555.172 51.37 555.982 51.58 556.69 52C557.41 52.408 557.968 52.984 558.364 53.728C558.772 54.472 558.976 55.324 558.976 56.284ZM554.26 52.828C553.432 52.828 552.736 53.08 552.172 53.584C551.62 54.088 551.296 54.748 551.2 55.564H557.32C557.224 54.76 556.894 54.106 556.33 53.602C555.778 53.086 555.088 52.828 554.26 52.828ZM564.111 61.108C563.331 61.108 562.581 61.006 561.861 60.802C561.141 60.586 560.577 60.316 560.169 59.992L560.889 58.624C561.309 58.924 561.819 59.164 562.419 59.344C563.019 59.524 563.625 59.614 564.237 59.614C565.749 59.614 566.505 59.182 566.505 58.318C566.505 58.03 566.403 57.802 566.199 57.634C565.995 57.466 565.737 57.346 565.425 57.274C565.125 57.19 564.693 57.1 564.129 57.004C563.361 56.884 562.731 56.746 562.239 56.59C561.759 56.434 561.345 56.17 560.997 55.798C560.649 55.426 560.475 54.904 560.475 54.232C560.475 53.368 560.835 52.678 561.555 52.162C562.275 51.634 563.241 51.37 564.453 51.37C565.089 51.37 565.725 51.448 566.361 51.604C566.997 51.76 567.519 51.97 567.927 52.234L567.189 53.602C566.409 53.098 565.491 52.846 564.435 52.846C563.703 52.846 563.145 52.966 562.761 53.206C562.377 53.446 562.185 53.764 562.185 54.16C562.185 54.472 562.293 54.718 562.509 54.898C562.725 55.078 562.989 55.21 563.301 55.294C563.625 55.378 564.075 55.474 564.651 55.582C565.419 55.714 566.037 55.858 566.505 56.014C566.985 56.158 567.393 56.41 567.729 56.77C568.065 57.13 568.233 57.634 568.233 58.282C568.233 59.146 567.861 59.836 567.117 60.352C566.385 60.856 565.383 61.108 564.111 61.108ZM572.56 57.022C572.56 56.542 572.638 56.122 572.794 55.762C572.962 55.39 573.16 55.078 573.388 54.826C573.628 54.574 573.94 54.274 574.324 53.926C574.804 53.506 575.158 53.146 575.386 52.846C575.614 52.534 575.728 52.162 575.728 51.73C575.728 51.142 575.5 50.674 575.044 50.326C574.588 49.966 573.958 49.786 573.154 49.786C571.75 49.786 570.676 50.26 569.932 51.208L568.618 50.272C569.122 49.624 569.764 49.126 570.544 48.778C571.336 48.43 572.248 48.256 573.28 48.256C574.588 48.256 575.626 48.544 576.394 49.12C577.162 49.684 577.546 50.464 577.546 51.46C577.546 51.952 577.462 52.39 577.294 52.774C577.138 53.146 576.946 53.458 576.718 53.71C576.49 53.962 576.184 54.262 575.8 54.61C575.308 55.054 574.942 55.444 574.702 55.78C574.474 56.116 574.36 56.53 574.36 57.022H572.56ZM573.478 61.108C573.142 61.108 572.86 61 572.632 60.784C572.416 60.556 572.308 60.28 572.308 59.956C572.308 59.632 572.416 59.362 572.632 59.146C572.86 58.918 573.142 58.804 573.478 58.804C573.814 58.804 574.09 58.918 574.306 59.146C574.522 59.362 574.63 59.632 574.63 59.956C574.63 60.28 574.516 60.556 574.288 60.784C574.072 61 573.802 61.108 573.478 61.108Z" fill="#2F2F2F"/>
<path d="M594 41H624V39H594V41ZM628 45V65H630V45H628ZM624 69H594V71H624V69ZM590 65V45H588V65H590ZM594 69C591.791 69 590 67.2091 590 65H588C588 68.3137 590.686 71 594 71V69ZM628 65C628 67.2091 626.209 69 624 69V71C627.314 71 630 68.3137 630 65H628ZM624 41C626.209 41 628 42.7909 628 45H630C630 41.6863 627.314 39 624 39V41ZM594 39C590.686 39 588 41.6863 588 45H590C590 42.7909 591.791 41 594 41V39Z" fill="#2F2F2F"/>
<path d="M601.196 59.434V61H592.142V59.776L597.272 54.826C597.896 54.226 598.316 53.71 598.532 53.278C598.748 52.834 598.856 52.39 598.856 51.946C598.856 51.286 598.622 50.776 598.154 50.416C597.698 50.044 597.038 49.858 596.174 49.858C594.782 49.858 593.708 50.314 592.952 51.226L591.728 50.164C592.22 49.564 592.862 49.096 593.654 48.76C594.458 48.424 595.352 48.256 596.336 48.256C597.656 48.256 598.706 48.574 599.486 49.21C600.266 49.834 600.656 50.686 600.656 51.766C600.656 52.438 600.512 53.074 600.224 53.674C599.936 54.274 599.39 54.958 598.586 55.726L594.734 59.434H601.196ZM613.304 57.904H610.91V61H609.164V57.904H602.162V56.644L608.606 48.4H610.55L604.376 56.356H609.218V53.62H610.91V56.356H613.304V57.904ZM619.531 61.144C618.535 61.144 617.647 60.892 616.867 60.388C616.099 59.872 615.493 59.128 615.049 58.156C614.605 57.184 614.383 56.032 614.383 54.7C614.383 53.368 614.605 52.216 615.049 51.244C615.493 50.272 616.099 49.534 616.867 49.03C617.647 48.514 618.535 48.256 619.531 48.256C620.515 48.256 621.391 48.514 622.159 49.03C622.939 49.534 623.551 50.272 623.995 51.244C624.439 52.216 624.661 53.368 624.661 54.7C624.661 56.032 624.439 57.184 623.995 58.156C623.551 59.128 622.939 59.872 622.159 60.388C621.391 60.892 620.515 61.144 619.531 61.144ZM619.531 59.542C620.539 59.542 621.343 59.128 621.943 58.3C622.555 57.472 622.861 56.272 622.861 54.7C622.861 53.128 622.555 51.928 621.943 51.1C621.343 50.272 620.539 49.858 619.531 49.858C618.511 49.858 617.695 50.272 617.083 51.1C616.483 51.928 616.183 53.128 616.183 54.7C616.183 56.272 616.483 57.472 617.083 58.3C617.695 59.128 618.511 59.542 619.531 59.542Z" fill="#2F2F2F"/>
<path d="M640.99 47.644H642.718V61H640.99V47.644ZM651.075 51.37C651.999 51.37 652.827 51.574 653.559 51.982C654.291 52.39 654.861 52.96 655.269 53.692C655.689 54.424 655.899 55.27 655.899 56.23C655.899 57.19 655.689 58.042 655.269 58.786C654.861 59.518 654.291 60.088 653.559 60.496C652.827 60.904 651.999 61.108 651.075 61.108C650.367 61.108 649.719 60.97 649.131 60.694C648.543 60.418 648.057 60.016 647.673 59.488V61H646.017V47.644H647.745V52.9C648.129 52.396 648.609 52.018 649.185 51.766C649.761 51.502 650.391 51.37 651.075 51.37ZM650.931 59.596C651.543 59.596 652.089 59.458 652.569 59.182C653.061 58.894 653.445 58.498 653.721 57.994C654.009 57.478 654.153 56.89 654.153 56.23C654.153 55.57 654.009 54.988 653.721 54.484C653.445 53.968 653.061 53.572 652.569 53.296C652.089 53.02 651.543 52.882 650.931 52.882C650.331 52.882 649.785 53.02 649.293 53.296C648.801 53.572 648.417 53.968 648.141 54.484C647.865 54.988 647.727 55.57 647.727 56.23C647.727 56.89 647.865 57.478 648.141 57.994C648.417 58.498 648.801 58.894 649.293 59.182C649.785 59.458 650.331 59.596 650.931 59.596Z" fill="#2F2F2F"/>
<path d="M12.9174 88.4V101H11.1174V95.384H3.88141V101H2.08141V88.4H3.88141V93.818H11.1174V88.4H12.9174ZM20.5228 101.108C19.5748 101.108 18.7228 100.898 17.9668 100.478C17.2108 100.058 16.6168 99.482 16.1848 98.75C15.7648 98.006 15.5548 97.166 15.5548 96.23C15.5548 95.294 15.7648 94.46 16.1848 93.728C16.6168 92.984 17.2108 92.408 17.9668 92C18.7228 91.58 19.5748 91.37 20.5228 91.37C21.4708 91.37 22.3168 91.58 23.0608 92C23.8168 92.408 24.4048 92.984 24.8248 93.728C25.2568 94.46 25.4728 95.294 25.4728 96.23C25.4728 97.166 25.2568 98.006 24.8248 98.75C24.4048 99.482 23.8168 100.058 23.0608 100.478C22.3168 100.898 21.4708 101.108 20.5228 101.108ZM20.5228 99.596C21.1348 99.596 21.6808 99.458 22.1608 99.182C22.6528 98.894 23.0368 98.498 23.3128 97.994C23.5888 97.478 23.7268 96.89 23.7268 96.23C23.7268 95.57 23.5888 94.988 23.3128 94.484C23.0368 93.968 22.6528 93.572 22.1608 93.296C21.6808 93.02 21.1348 92.882 20.5228 92.882C19.9108 92.882 19.3588 93.02 18.8668 93.296C18.3868 93.572 18.0028 93.968 17.7148 94.484C17.4388 94.988 17.3008 95.57 17.3008 96.23C17.3008 96.89 17.4388 97.478 17.7148 97.994C18.0028 98.498 18.3868 98.894 18.8668 99.182C19.3588 99.458 19.9108 99.596 20.5228 99.596ZM42.0349 91.46L38.4709 101H36.8149L34.0609 93.764L31.2709 101H29.6149L26.0689 91.46H27.7069L30.4789 99.056L33.3589 91.46H34.8169L37.6429 99.092L40.4869 91.46H42.0349ZM60.5564 91.37C61.7564 91.37 62.7044 91.718 63.4004 92.414C64.1084 93.11 64.4624 94.142 64.4624 95.51V101H62.7344V95.708C62.7344 94.784 62.5184 94.088 62.0864 93.62C61.6664 93.152 61.0604 92.918 60.2684 92.918C59.3924 92.918 58.6964 93.194 58.1804 93.746C57.6644 94.286 57.4064 95.066 57.4064 96.086V101H55.6784V95.708C55.6784 94.784 55.4624 94.088 55.0304 93.62C54.6104 93.152 54.0044 92.918 53.2124 92.918C52.3364 92.918 51.6404 93.194 51.1244 93.746C50.6084 94.286 50.3504 95.066 50.3504 96.086V101H48.6224V91.46H50.2784V92.882C50.6264 92.39 51.0824 92.018 51.6464 91.766C52.2104 91.502 52.8524 91.37 53.5724 91.37C54.3164 91.37 54.9764 91.52 55.5524 91.82C56.1284 92.12 56.5724 92.558 56.8844 93.134C57.2444 92.582 57.7424 92.15 58.3784 91.838C59.0264 91.526 59.7524 91.37 60.5564 91.37ZM71.1159 91.37C72.4359 91.37 73.4439 91.694 74.1399 92.342C74.8479 92.99 75.2019 93.956 75.2019 95.24V101H73.5639V99.74C73.2759 100.184 72.8619 100.526 72.3219 100.766C71.7939 100.994 71.1639 101.108 70.4319 101.108C69.3639 101.108 68.5059 100.85 67.8579 100.334C67.2219 99.818 66.9039 99.14 66.9039 98.3C66.9039 97.46 67.2099 96.788 67.8219 96.284C68.4339 95.768 69.4059 95.51 70.7379 95.51H73.4739V95.168C73.4739 94.424 73.2579 93.854 72.8259 93.458C72.3939 93.062 71.7579 92.864 70.9179 92.864C70.3539 92.864 69.8019 92.96 69.2619 93.152C68.7219 93.332 68.2659 93.578 67.8939 93.89L67.1739 92.594C67.6659 92.198 68.2539 91.898 68.9379 91.694C69.6219 91.478 70.3479 91.37 71.1159 91.37ZM70.7199 99.776C71.3799 99.776 71.9499 99.632 72.4299 99.344C72.9099 99.044 73.2579 98.624 73.4739 98.084V96.752H70.8099C69.3459 96.752 68.6139 97.244 68.6139 98.228C68.6139 98.708 68.7999 99.086 69.1719 99.362C69.5439 99.638 70.0599 99.776 70.7199 99.776ZM83.4937 91.37C84.7057 91.37 85.6657 91.724 86.3737 92.432C87.0937 93.128 87.4537 94.154 87.4537 95.51V101H85.7257V95.708C85.7257 94.784 85.5037 94.088 85.0597 93.62C84.6157 93.152 83.9797 92.918 83.1517 92.918C82.2157 92.918 81.4777 93.194 80.9377 93.746C80.3977 94.286 80.1277 95.066 80.1277 96.086V101H78.3997V91.46H80.0557V92.9C80.4037 92.408 80.8717 92.03 81.4597 91.766C82.0597 91.502 82.7377 91.37 83.4937 91.37ZM98.9179 91.46L94.2919 101.954C93.8839 102.926 93.4039 103.61 92.8519 104.006C92.3119 104.402 91.6579 104.6 90.8899 104.6C90.4219 104.6 89.9659 104.522 89.5219 104.366C89.0899 104.222 88.7299 104.006 88.4419 103.718L89.1799 102.422C89.6719 102.89 90.2419 103.124 90.8899 103.124C91.3099 103.124 91.6579 103.01 91.9339 102.782C92.2219 102.566 92.4799 102.188 92.7079 101.648L93.0139 100.982L88.8019 91.46H90.6019L93.9319 99.092L97.2259 91.46H98.9179ZM105.365 87.644H107.093V101H105.365V87.644ZM115.45 91.37C116.374 91.37 117.202 91.574 117.934 91.982C118.666 92.39 119.236 92.96 119.644 93.692C120.064 94.424 120.274 95.27 120.274 96.23C120.274 97.19 120.064 98.042 119.644 98.786C119.236 99.518 118.666 100.088 117.934 100.496C117.202 100.904 116.374 101.108 115.45 101.108C114.742 101.108 114.094 100.97 113.506 100.694C112.918 100.418 112.432 100.016 112.048 99.488V101H110.392V87.644H112.12V92.9C112.504 92.396 112.984 92.018 113.56 91.766C114.136 91.502 114.766 91.37 115.45 91.37ZM115.306 99.596C115.918 99.596 116.464 99.458 116.944 99.182C117.436 98.894 117.82 98.498 118.096 97.994C118.384 97.478 118.528 96.89 118.528 96.23C118.528 95.57 118.384 94.988 118.096 94.484C117.82 93.968 117.436 93.572 116.944 93.296C116.464 93.02 115.918 92.882 115.306 92.882C114.706 92.882 114.16 93.02 113.668 93.296C113.176 93.572 112.792 93.968 112.516 94.484C112.24 94.988 112.102 95.57 112.102 96.23C112.102 96.89 112.24 97.478 112.516 97.994C112.792 98.498 113.176 98.894 113.668 99.182C114.16 99.458 114.706 99.596 115.306 99.596ZM131.581 101.108C130.633 101.108 129.781 100.898 129.025 100.478C128.269 100.058 127.675 99.482 127.243 98.75C126.823 98.006 126.613 97.166 126.613 96.23C126.613 95.294 126.823 94.46 127.243 93.728C127.675 92.984 128.269 92.408 129.025 92C129.781 91.58 130.633 91.37 131.581 91.37C132.529 91.37 133.375 91.58 134.119 92C134.875 92.408 135.463 92.984 135.883 93.728C136.315 94.46 136.531 95.294 136.531 96.23C136.531 97.166 136.315 98.006 135.883 98.75C135.463 99.482 134.875 100.058 134.119 100.478C133.375 100.898 132.529 101.108 131.581 101.108ZM131.581 99.596C132.193 99.596 132.739 99.458 133.219 99.182C133.711 98.894 134.095 98.498 134.371 97.994C134.647 97.478 134.785 96.89 134.785 96.23C134.785 95.57 134.647 94.988 134.371 94.484C134.095 93.968 133.711 93.572 133.219 93.296C132.739 93.02 132.193 92.882 131.581 92.882C130.969 92.882 130.417 93.02 129.925 93.296C129.445 93.572 129.061 93.968 128.773 94.484C128.497 94.988 128.359 95.57 128.359 96.23C128.359 96.89 128.497 97.478 128.773 97.994C129.061 98.498 129.445 98.894 129.925 99.182C130.417 99.458 130.969 99.596 131.581 99.596ZM142.413 88.958C141.381 88.958 140.865 89.516 140.865 90.632V91.46H143.637V92.882H140.901V101H139.173V92.882H137.553V91.46H139.173V90.614C139.173 89.666 139.449 88.916 140.001 88.364C140.553 87.812 141.327 87.536 142.323 87.536C142.707 87.536 143.067 87.584 143.403 87.68C143.739 87.776 144.027 87.914 144.267 88.094L143.745 89.408C143.349 89.108 142.905 88.958 142.413 88.958ZM153.593 88.958C152.561 88.958 152.045 89.516 152.045 90.632V91.46H154.817V92.882H152.081V101H150.353V92.882H148.733V91.46H150.353V90.614C150.353 89.666 150.629 88.916 151.181 88.364C151.733 87.812 152.507 87.536 153.503 87.536C153.887 87.536 154.247 87.584 154.583 87.68C154.919 87.776 155.207 87.914 155.447 88.094L154.925 89.408C154.529 89.108 154.085 88.958 153.593 88.958ZM159.544 93.062C159.844 92.51 160.288 92.09 160.876 91.802C161.464 91.514 162.178 91.37 163.018 91.37V93.044C162.922 93.032 162.79 93.026 162.622 93.026C161.686 93.026 160.948 93.308 160.408 93.872C159.88 94.424 159.616 95.216 159.616 96.248V101H157.888V91.46H159.544V93.062ZM174.163 91.46V101H172.525V99.56C172.177 100.052 171.715 100.436 171.139 100.712C170.575 100.976 169.957 101.108 169.285 101.108C168.013 101.108 167.011 100.76 166.279 100.064C165.547 99.356 165.181 98.318 165.181 96.95V91.46H166.909V96.752C166.909 97.676 167.131 98.378 167.575 98.858C168.019 99.326 168.655 99.56 169.483 99.56C170.395 99.56 171.115 99.284 171.643 98.732C172.171 98.18 172.435 97.4 172.435 96.392V91.46H174.163ZM177.452 91.46H179.18V101H177.452V91.46ZM178.316 89.624C177.98 89.624 177.698 89.516 177.47 89.3C177.254 89.084 177.146 88.82 177.146 88.508C177.146 88.196 177.254 87.932 177.47 87.716C177.698 87.488 177.98 87.374 178.316 87.374C178.652 87.374 178.928 87.482 179.144 87.698C179.372 87.902 179.486 88.16 179.486 88.472C179.486 88.796 179.372 89.072 179.144 89.3C178.928 89.516 178.652 89.624 178.316 89.624ZM187.844 100.442C187.592 100.658 187.28 100.826 186.908 100.946C186.536 101.054 186.152 101.108 185.756 101.108C184.796 101.108 184.052 100.85 183.524 100.334C182.996 99.818 182.732 99.08 182.732 98.12V92.882H181.112V91.46H182.732V89.372H184.46V91.46H187.196V92.882H184.46V98.048C184.46 98.564 184.586 98.96 184.838 99.236C185.102 99.512 185.474 99.65 185.954 99.65C186.482 99.65 186.932 99.5 187.304 99.2L187.844 100.442ZM192.669 101.108C191.889 101.108 191.139 101.006 190.419 100.802C189.699 100.586 189.135 100.316 188.727 99.992L189.447 98.624C189.867 98.924 190.377 99.164 190.977 99.344C191.577 99.524 192.183 99.614 192.795 99.614C194.307 99.614 195.063 99.182 195.063 98.318C195.063 98.03 194.961 97.802 194.757 97.634C194.553 97.466 194.295 97.346 193.983 97.274C193.683 97.19 193.251 97.1 192.687 97.004C191.919 96.884 191.289 96.746 190.797 96.59C190.317 96.434 189.903 96.17 189.555 95.798C189.207 95.426 189.033 94.904 189.033 94.232C189.033 93.368 189.393 92.678 190.113 92.162C190.833 91.634 191.799 91.37 193.011 91.37C193.647 91.37 194.283 91.448 194.919 91.604C195.555 91.76 196.077 91.97 196.485 92.234L195.747 93.602C194.967 93.098 194.049 92.846 192.993 92.846C192.261 92.846 191.703 92.966 191.319 93.206C190.935 93.446 190.743 93.764 190.743 94.16C190.743 94.472 190.851 94.718 191.067 94.898C191.283 95.078 191.547 95.21 191.859 95.294C192.183 95.378 192.633 95.474 193.209 95.582C193.977 95.714 194.595 95.858 195.063 96.014C195.543 96.158 195.951 96.41 196.287 96.77C196.623 97.13 196.791 97.634 196.791 98.282C196.791 99.146 196.419 99.836 195.675 100.352C194.943 100.856 193.941 101.108 192.669 101.108ZM218.22 91.46L214.656 101H213L210.246 93.764L207.456 101H205.8L202.254 91.46H203.892L206.664 99.056L209.544 91.46H211.002L213.828 99.092L216.672 91.46H218.22ZM228.332 96.284C228.332 96.416 228.32 96.59 228.296 96.806H220.556C220.664 97.646 221.03 98.324 221.654 98.84C222.29 99.344 223.076 99.596 224.012 99.596C225.152 99.596 226.07 99.212 226.766 98.444L227.72 99.56C227.288 100.064 226.748 100.448 226.1 100.712C225.464 100.976 224.75 101.108 223.958 101.108C222.95 101.108 222.056 100.904 221.276 100.496C220.496 100.076 219.89 99.494 219.458 98.75C219.038 98.006 218.828 97.166 218.828 96.23C218.828 95.306 219.032 94.472 219.44 93.728C219.86 92.984 220.43 92.408 221.15 92C221.882 91.58 222.704 91.37 223.616 91.37C224.528 91.37 225.338 91.58 226.046 92C226.766 92.408 227.324 92.984 227.72 93.728C228.128 94.472 228.332 95.324 228.332 96.284ZM223.616 92.828C222.788 92.828 222.092 93.08 221.528 93.584C220.976 94.088 220.652 94.748 220.556 95.564H226.676C226.58 94.76 226.25 94.106 225.686 93.602C225.134 93.086 224.444 92.828 223.616 92.828ZM232.388 93.062C232.688 92.51 233.132 92.09 233.72 91.802C234.308 91.514 235.022 91.37 235.862 91.37V93.044C235.766 93.032 235.634 93.026 235.466 93.026C234.53 93.026 233.792 93.308 233.252 93.872C232.724 94.424 232.46 95.216 232.46 96.248V101H230.732V91.46H232.388V93.062ZM246.526 96.284C246.526 96.416 246.514 96.59 246.49 96.806H238.75C238.858 97.646 239.224 98.324 239.848 98.84C240.484 99.344 241.27 99.596 242.206 99.596C243.346 99.596 244.264 99.212 244.96 98.444L245.914 99.56C245.482 100.064 244.942 100.448 244.294 100.712C243.658 100.976 242.944 101.108 242.152 101.108C241.144 101.108 240.25 100.904 239.47 100.496C238.69 100.076 238.084 99.494 237.652 98.75C237.232 98.006 237.022 97.166 237.022 96.23C237.022 95.306 237.226 94.472 237.634 93.728C238.054 92.984 238.624 92.408 239.344 92C240.076 91.58 240.898 91.37 241.81 91.37C242.722 91.37 243.532 91.58 244.24 92C244.96 92.408 245.518 92.984 245.914 93.728C246.322 94.472 246.526 95.324 246.526 96.284ZM241.81 92.828C240.982 92.828 240.286 93.08 239.722 93.584C239.17 94.088 238.846 94.748 238.75 95.564H244.87C244.774 94.76 244.444 94.106 243.88 93.602C243.328 93.086 242.638 92.828 241.81 92.828ZM262.759 87.644V101H261.103V99.488C260.719 100.016 260.233 100.418 259.645 100.694C259.057 100.97 258.409 101.108 257.701 101.108C256.777 101.108 255.949 100.904 255.217 100.496C254.485 100.088 253.909 99.518 253.489 98.786C253.081 98.042 252.877 97.19 252.877 96.23C252.877 95.27 253.081 94.424 253.489 93.692C253.909 92.96 254.485 92.39 255.217 91.982C255.949 91.574 256.777 91.37 257.701 91.37C258.385 91.37 259.015 91.502 259.591 91.766C260.167 92.018 260.647 92.396 261.031 92.9V87.644H262.759ZM257.845 99.596C258.445 99.596 258.991 99.458 259.483 99.182C259.975 98.894 260.359 98.498 260.635 97.994C260.911 97.478 261.049 96.89 261.049 96.23C261.049 95.57 260.911 94.988 260.635 94.484C260.359 93.968 259.975 93.572 259.483 93.296C258.991 93.02 258.445 92.882 257.845 92.882C257.233 92.882 256.681 93.02 256.189 93.296C255.709 93.572 255.325 93.968 255.037 94.484C254.761 94.988 254.623 95.57 254.623 96.23C254.623 96.89 254.761 97.478 255.037 97.994C255.325 98.498 255.709 98.894 256.189 99.182C256.681 99.458 257.233 99.596 257.845 99.596ZM274.651 96.284C274.651 96.416 274.639 96.59 274.615 96.806H266.875C266.983 97.646 267.349 98.324 267.973 98.84C268.609 99.344 269.395 99.596 270.331 99.596C271.471 99.596 272.389 99.212 273.085 98.444L274.039 99.56C273.607 100.064 273.067 100.448 272.419 100.712C271.783 100.976 271.069 101.108 270.277 101.108C269.269 101.108 268.375 100.904 267.595 100.496C266.815 100.076 266.209 99.494 265.777 98.75C265.357 98.006 265.147 97.166 265.147 96.23C265.147 95.306 265.351 94.472 265.759 93.728C266.179 92.984 266.749 92.408 267.469 92C268.201 91.58 269.023 91.37 269.935 91.37C270.847 91.37 271.657 91.58 272.365 92C273.085 92.408 273.643 92.984 274.039 93.728C274.447 94.472 274.651 95.324 274.651 96.284ZM269.935 92.828C269.107 92.828 268.411 93.08 267.847 93.584C267.295 94.088 266.971 94.748 266.875 95.564H272.995C272.899 94.76 272.569 94.106 272.005 93.602C271.453 93.086 270.763 92.828 269.935 92.828ZM277.05 87.644H278.778V101H277.05V87.644ZM282.077 91.46H283.805V101H282.077V91.46ZM282.941 89.624C282.605 89.624 282.323 89.516 282.095 89.3C281.879 89.084 281.771 88.82 281.771 88.508C281.771 88.196 281.879 87.932 282.095 87.716C282.323 87.488 282.605 87.374 282.941 87.374C283.277 87.374 283.553 87.482 283.769 87.698C283.997 87.902 284.111 88.16 284.111 88.472C284.111 88.796 283.997 89.072 283.769 89.3C283.553 89.516 283.277 89.624 282.941 89.624ZM295.547 91.46L291.371 101H289.607L285.431 91.46H287.231L290.507 99.11L293.855 91.46H295.547ZM305.518 96.284C305.518 96.416 305.506 96.59 305.482 96.806H297.742C297.85 97.646 298.216 98.324 298.84 98.84C299.476 99.344 300.262 99.596 301.198 99.596C302.338 99.596 303.256 99.212 303.952 98.444L304.906 99.56C304.474 100.064 303.934 100.448 303.286 100.712C302.65 100.976 301.936 101.108 301.144 101.108C300.136 101.108 299.242 100.904 298.462 100.496C297.682 100.076 297.076 99.494 296.644 98.75C296.224 98.006 296.014 97.166 296.014 96.23C296.014 95.306 296.218 94.472 296.626 93.728C297.046 92.984 297.616 92.408 298.336 92C299.068 91.58 299.89 91.37 300.802 91.37C301.714 91.37 302.524 91.58 303.232 92C303.952 92.408 304.51 92.984 304.906 93.728C305.314 94.472 305.518 95.324 305.518 96.284ZM300.802 92.828C299.974 92.828 299.278 93.08 298.714 93.584C298.162 94.088 297.838 94.748 297.742 95.564H303.862C303.766 94.76 303.436 94.106 302.872 93.602C302.32 93.086 301.63 92.828 300.802 92.828ZM309.573 93.062C309.873 92.51 310.317 92.09 310.905 91.802C311.493 91.514 312.207 91.37 313.047 91.37V93.044C312.951 93.032 312.819 93.026 312.651 93.026C311.715 93.026 310.977 93.308 310.437 93.872C309.909 94.424 309.645 95.216 309.645 96.248V101H307.917V91.46H309.573V93.062ZM323.711 96.284C323.711 96.416 323.699 96.59 323.675 96.806H315.935C316.043 97.646 316.409 98.324 317.033 98.84C317.669 99.344 318.455 99.596 319.391 99.596C320.531 99.596 321.449 99.212 322.145 98.444L323.099 99.56C322.667 100.064 322.127 100.448 321.479 100.712C320.843 100.976 320.129 101.108 319.337 101.108C318.329 101.108 317.435 100.904 316.655 100.496C315.875 100.076 315.269 99.494 314.837 98.75C314.417 98.006 314.207 97.166 314.207 96.23C314.207 95.306 314.411 94.472 314.819 93.728C315.239 92.984 315.809 92.408 316.529 92C317.261 91.58 318.083 91.37 318.995 91.37C319.907 91.37 320.717 91.58 321.425 92C322.145 92.408 322.703 92.984 323.099 93.728C323.507 94.472 323.711 95.324 323.711 96.284ZM318.995 92.828C318.167 92.828 317.471 93.08 316.907 93.584C316.355 94.088 316.031 94.748 315.935 95.564H322.055C321.959 94.76 321.629 94.106 321.065 93.602C320.513 93.086 319.823 92.828 318.995 92.828ZM335.111 87.644V101H333.455V99.488C333.071 100.016 332.585 100.418 331.997 100.694C331.409 100.97 330.761 101.108 330.053 101.108C329.129 101.108 328.301 100.904 327.569 100.496C326.837 100.088 326.261 99.518 325.841 98.786C325.433 98.042 325.229 97.19 325.229 96.23C325.229 95.27 325.433 94.424 325.841 93.692C326.261 92.96 326.837 92.39 327.569 91.982C328.301 91.574 329.129 91.37 330.053 91.37C330.737 91.37 331.367 91.502 331.943 91.766C332.519 92.018 332.999 92.396 333.383 92.9V87.644H335.111ZM330.197 99.596C330.797 99.596 331.343 99.458 331.835 99.182C332.327 98.894 332.711 98.498 332.987 97.994C333.263 97.478 333.401 96.89 333.401 96.23C333.401 95.57 333.263 94.988 332.987 94.484C332.711 93.968 332.327 93.572 331.835 93.296C331.343 93.02 330.797 92.882 330.197 92.882C329.585 92.882 329.033 93.02 328.541 93.296C328.061 93.572 327.677 93.968 327.389 94.484C327.113 94.988 326.975 95.57 326.975 96.23C326.975 96.89 327.113 97.478 327.389 97.994C327.677 98.498 328.061 98.894 328.541 99.182C329.033 99.458 329.585 99.596 330.197 99.596ZM343.214 91.46H344.942V101H343.214V91.46ZM344.078 89.624C343.742 89.624 343.46 89.516 343.232 89.3C343.016 89.084 342.908 88.82 342.908 88.508C342.908 88.196 343.016 87.932 343.232 87.716C343.46 87.488 343.742 87.374 344.078 87.374C344.414 87.374 344.69 87.482 344.906 87.698C345.134 87.902 345.248 88.16 345.248 88.472C345.248 88.796 345.134 89.072 344.906 89.3C344.69 89.516 344.414 89.624 344.078 89.624ZM353.336 91.37C354.548 91.37 355.508 91.724 356.216 92.432C356.936 93.128 357.296 94.154 357.296 95.51V101H355.568V95.708C355.568 94.784 355.346 94.088 354.902 93.62C354.458 93.152 353.822 92.918 352.994 92.918C352.058 92.918 351.32 93.194 350.78 93.746C350.24 94.286 349.97 95.066 349.97 96.086V101H348.242V91.46H349.898V92.9C350.246 92.408 350.714 92.03 351.302 91.766C351.902 91.502 352.58 91.37 353.336 91.37ZM370.691 100.442C370.439 100.658 370.127 100.826 369.755 100.946C369.383 101.054 368.999 101.108 368.603 101.108C367.643 101.108 366.899 100.85 366.371 100.334C365.843 99.818 365.579 99.08 365.579 98.12V92.882H363.959V91.46H365.579V89.372H367.307V91.46H370.043V92.882H367.307V98.048C367.307 98.564 367.433 98.96 367.685 99.236C367.949 99.512 368.321 99.65 368.801 99.65C369.329 99.65 369.779 99.5 370.151 99.2L370.691 100.442ZM376.55 101.108C375.602 101.108 374.75 100.898 373.994 100.478C373.238 100.058 372.644 99.482 372.212 98.75C371.792 98.006 371.582 97.166 371.582 96.23C371.582 95.294 371.792 94.46 372.212 93.728C372.644 92.984 373.238 92.408 373.994 92C374.75 91.58 375.602 91.37 376.55 91.37C377.498 91.37 378.344 91.58 379.088 92C379.844 92.408 380.432 92.984 380.852 93.728C381.284 94.46 381.5 95.294 381.5 96.23C381.5 97.166 381.284 98.006 380.852 98.75C380.432 99.482 379.844 100.058 379.088 100.478C378.344 100.898 377.498 101.108 376.55 101.108ZM376.55 99.596C377.162 99.596 377.708 99.458 378.188 99.182C378.68 98.894 379.064 98.498 379.34 97.994C379.616 97.478 379.754 96.89 379.754 96.23C379.754 95.57 379.616 94.988 379.34 94.484C379.064 93.968 378.68 93.572 378.188 93.296C377.708 93.02 377.162 92.882 376.55 92.882C375.938 92.882 375.386 93.02 374.894 93.296C374.414 93.572 374.03 93.968 373.742 94.484C373.466 94.988 373.328 95.57 373.328 96.23C373.328 96.89 373.466 97.478 373.742 97.994C374.03 98.498 374.414 98.894 374.894 99.182C375.386 99.458 375.938 99.596 376.55 99.596ZM389.254 100.442C389.002 100.658 388.69 100.826 388.318 100.946C387.946 101.054 387.562 101.108 387.166 101.108C386.206 101.108 385.462 100.85 384.934 100.334C384.406 99.818 384.142 99.08 384.142 98.12V92.882H382.522V91.46H384.142V89.372H385.87V91.46H388.606V92.882H385.87V98.048C385.87 98.564 385.996 98.96 386.248 99.236C386.512 99.512 386.884 99.65 387.364 99.65C387.892 99.65 388.342 99.5 388.714 99.2L389.254 100.442ZM394.817 91.37C396.137 91.37 397.145 91.694 397.841 92.342C398.549 92.99 398.903 93.956 398.903 95.24V101H397.265V99.74C396.977 100.184 396.563 100.526 396.023 100.766C395.495 100.994 394.865 101.108 394.133 101.108C393.065 101.108 392.207 100.85 391.559 100.334C390.923 99.818 390.605 99.14 390.605 98.3C390.605 97.46 390.911 96.788 391.523 96.284C392.135 95.768 393.107 95.51 394.439 95.51H397.175V95.168C397.175 94.424 396.959 93.854 396.527 93.458C396.095 93.062 395.459 92.864 394.619 92.864C394.055 92.864 393.503 92.96 392.963 93.152C392.423 93.332 391.967 93.578 391.595 93.89L390.875 92.594C391.367 92.198 391.955 91.898 392.639 91.694C393.323 91.478 394.049 91.37 394.817 91.37ZM394.421 99.776C395.081 99.776 395.651 99.632 396.131 99.344C396.611 99.044 396.959 98.624 397.175 98.084V96.752H394.511C393.047 96.752 392.315 97.244 392.315 98.228C392.315 98.708 392.501 99.086 392.873 99.362C393.245 99.638 393.761 99.776 394.421 99.776ZM402.101 87.644H403.829V101H402.101V87.644ZM409.594 97.022C409.594 96.542 409.672 96.122 409.828 95.762C409.996 95.39 410.194 95.078 410.422 94.826C410.662 94.574 410.974 94.274 411.358 93.926C411.838 93.506 412.192 93.146 412.42 92.846C412.648 92.534 412.762 92.162 412.762 91.73C412.762 91.142 412.534 90.674 412.078 90.326C411.622 89.966 410.992 89.786 410.188 89.786C408.784 89.786 407.71 90.26 406.966 91.208L405.652 90.272C406.156 89.624 406.798 89.126 407.578 88.778C408.37 88.43 409.282 88.256 410.314 88.256C411.622 88.256 412.66 88.544 413.428 89.12C414.196 89.684 414.58 90.464 414.58 91.46C414.58 91.952 414.496 92.39 414.328 92.774C414.172 93.146 413.98 93.458 413.752 93.71C413.524 93.962 413.218 94.262 412.834 94.61C412.342 95.054 411.976 95.444 411.736 95.78C411.508 96.116 411.394 96.53 411.394 97.022H409.594ZM410.512 101.108C410.176 101.108 409.894 101 409.666 100.784C409.45 100.556 409.342 100.28 409.342 99.956C409.342 99.632 409.45 99.362 409.666 99.146C409.894 98.918 410.176 98.804 410.512 98.804C410.848 98.804 411.124 98.918 411.34 99.146C411.556 99.362 411.664 99.632 411.664 99.956C411.664 100.28 411.55 100.556 411.322 100.784C411.106 101 410.836 101.108 410.512 101.108Z" fill="#2F2F2F"/>
<path d="M431 81H461V79H431V81ZM465 85V105H467V85H465ZM461 109H431V111H461V109ZM427 105V85H425V105H427ZM431 109C428.791 109 427 107.209 427 105H425C425 108.314 427.686 111 431 111V109ZM465 105C465 107.209 463.209 109 461 109V111C464.314 111 467 108.314 467 105H465ZM461 81C463.209 81 465 82.7909 465 85H467C467 81.6863 464.314 79 461 79V81ZM431 79C427.686 79 425 81.6863 425 85H427C427 82.7909 428.791 81 431 81V79Z" fill="#2F2F2F"/>
<path d="M439.3 97.904H436.906V101H435.16V97.904H428.158V96.644L434.602 88.4H436.546L430.372 96.356H435.214V93.62H436.906V96.356H439.3V97.904ZM445.527 101.144C444.531 101.144 443.643 100.892 442.863 100.388C442.095 99.872 441.489 99.128 441.045 98.156C440.601 97.184 440.379 96.032 440.379 94.7C440.379 93.368 440.601 92.216 441.045 91.244C441.489 90.272 442.095 89.534 442.863 89.03C443.643 88.514 444.531 88.256 445.527 88.256C446.511 88.256 447.387 88.514 448.155 89.03C448.935 89.534 449.547 90.272 449.991 91.244C450.435 92.216 450.657 93.368 450.657 94.7C450.657 96.032 450.435 97.184 449.991 98.156C449.547 99.128 448.935 99.872 448.155 100.388C447.387 100.892 446.511 101.144 445.527 101.144ZM445.527 99.542C446.535 99.542 447.339 99.128 447.939 98.3C448.551 97.472 448.857 96.272 448.857 94.7C448.857 93.128 448.551 91.928 447.939 91.1C447.339 90.272 446.535 89.858 445.527 89.858C444.507 89.858 443.691 90.272 443.079 91.1C442.479 91.928 442.179 93.128 442.179 94.7C442.179 96.272 442.479 97.472 443.079 98.3C443.691 99.128 444.507 99.542 445.527 99.542ZM457.533 101.144C456.537 101.144 455.649 100.892 454.869 100.388C454.101 99.872 453.495 99.128 453.051 98.156C452.607 97.184 452.385 96.032 452.385 94.7C452.385 93.368 452.607 92.216 453.051 91.244C453.495 90.272 454.101 89.534 454.869 89.03C455.649 88.514 456.537 88.256 457.533 88.256C458.517 88.256 459.393 88.514 460.161 89.03C460.941 89.534 461.553 90.272 461.997 91.244C462.441 92.216 462.663 93.368 462.663 94.7C462.663 96.032 462.441 97.184 461.997 98.156C461.553 99.128 460.941 99.872 460.161 100.388C459.393 100.892 458.517 101.144 457.533 101.144ZM457.533 99.542C458.541 99.542 459.345 99.128 459.945 98.3C460.557 97.472 460.863 96.272 460.863 94.7C460.863 93.128 460.557 91.928 459.945 91.1C459.345 90.272 458.541 89.858 457.533 89.858C456.513 89.858 455.697 90.272 455.085 91.1C454.485 91.928 454.185 93.128 454.185 94.7C454.185 96.272 454.485 97.472 455.085 98.3C455.697 99.128 456.513 99.542 457.533 99.542Z" fill="#2F2F2F"/>
<path d="M477.99 87.644H479.718V101H477.99V87.644ZM488.075 91.37C488.999 91.37 489.827 91.574 490.559 91.982C491.291 92.39 491.861 92.96 492.269 93.692C492.689 94.424 492.899 95.27 492.899 96.23C492.899 97.19 492.689 98.042 492.269 98.786C491.861 99.518 491.291 100.088 490.559 100.496C489.827 100.904 488.999 101.108 488.075 101.108C487.367 101.108 486.719 100.97 486.131 100.694C485.543 100.418 485.057 100.016 484.673 99.488V101H483.017V87.644H484.745V92.9C485.129 92.396 485.609 92.018 486.185 91.766C486.761 91.502 487.391 91.37 488.075 91.37ZM487.931 99.596C488.543 99.596 489.089 99.458 489.569 99.182C490.061 98.894 490.445 98.498 490.721 97.994C491.009 97.478 491.153 96.89 491.153 96.23C491.153 95.57 491.009 94.988 490.721 94.484C490.445 93.968 490.061 93.572 489.569 93.296C489.089 93.02 488.543 92.882 487.931 92.882C487.331 92.882 486.785 93.02 486.293 93.296C485.801 93.572 485.417 93.968 485.141 94.484C484.865 94.988 484.727 95.57 484.727 96.23C484.727 96.89 484.865 97.478 485.141 97.994C485.417 98.498 485.801 98.894 486.293 99.182C486.785 99.458 487.331 99.596 487.931 99.596Z" fill="#2F2F2F"/>
</svg>
