<svg width="125" height="30" viewBox="0 0 125 30" fill="none" xmlns="http://www.w3.org/2000/svg">
<path d="M24.0362 8.4V21H22.2542V9.966H19.4102V8.4H24.0362ZM33.4703 21.144C32.4743 21.144 31.5863 20.892 30.8063 20.388C30.0383 19.872 29.4323 19.128 28.9883 18.156C28.5443 17.184 28.3223 16.032 28.3223 14.7C28.3223 13.368 28.5443 12.216 28.9883 11.244C29.4323 10.272 30.0383 9.534 30.8063 9.03C31.5863 8.514 32.4743 8.256 33.4703 8.256C34.4543 8.256 35.3303 8.514 36.0983 9.03C36.8783 9.534 37.4903 10.272 37.9343 11.244C38.3783 12.216 38.6003 13.368 38.6003 14.7C38.6003 16.032 38.3783 17.184 37.9343 18.156C37.4903 19.128 36.8783 19.872 36.0983 20.388C35.3303 20.892 34.4543 21.144 33.4703 21.144ZM33.4703 19.542C34.4783 19.542 35.2823 19.128 35.8823 18.3C36.4943 17.472 36.8003 16.272 36.8003 14.7C36.8003 13.128 36.4943 11.928 35.8823 11.1C35.2823 10.272 34.4783 9.858 33.4703 9.858C32.4503 9.858 31.6343 10.272 31.0223 11.1C30.4223 11.928 30.1223 13.128 30.1223 14.7C30.1223 16.272 30.4223 17.472 31.0223 18.3C31.6343 19.128 32.4503 19.542 33.4703 19.542ZM47.0061 21.144C46.0101 21.144 45.1221 20.892 44.3421 20.388C43.5741 19.872 42.9681 19.128 42.5241 18.156C42.0801 17.184 41.8581 16.032 41.8581 14.7C41.8581 13.368 42.0801 12.216 42.5241 11.244C42.9681 10.272 43.5741 9.534 44.3421 9.03C45.1221 8.514 46.0101 8.256 47.0061 8.256C47.9901 8.256 48.8661 8.514 49.6341 9.03C50.4141 9.534 51.0261 10.272 51.4701 11.244C51.9141 12.216 52.1361 13.368 52.1361 14.7C52.1361 16.032 51.9141 17.184 51.4701 18.156C51.0261 19.128 50.4141 19.872 49.6341 20.388C48.8661 20.892 47.9901 21.144 47.0061 21.144ZM47.0061 19.542C48.0141 19.542 48.8181 19.128 49.4181 18.3C50.0301 17.472 50.3361 16.272 50.3361 14.7C50.3361 13.128 50.0301 11.928 49.4181 11.1C48.8181 10.272 48.0141 9.858 47.0061 9.858C45.9861 9.858 45.1701 10.272 44.5581 11.1C43.9581 11.928 43.6581 13.128 43.6581 14.7C43.6581 16.272 43.9581 17.472 44.5581 18.3C45.1701 19.128 45.9861 19.542 47.0061 19.542Z" fill="#2F2F2F"/>
<path d="M86.44 22.12C85.36 22.12 84.3933 21.8867 83.54 21.42C82.7 20.9533 82.04 20.3133 81.56 19.5C81.08 18.6733 80.84 17.74 80.84 16.7C80.84 15.66 81.08 14.7333 81.56 13.92C82.04 13.0933 82.7 12.4533 83.54 12C84.3933 11.5333 85.36 11.3 86.44 11.3C87.4 11.3 88.2533 11.4933 89 11.88C89.76 12.2667 90.3467 12.8267 90.76 13.56L89.3 14.5C88.9667 13.9933 88.5533 13.6133 88.06 13.36C87.5667 13.1067 87.02 12.98 86.42 12.98C85.7267 12.98 85.1 13.1333 84.54 13.44C83.9933 13.7467 83.56 14.1867 83.24 14.76C82.9333 15.32 82.78 15.9667 82.78 16.7C82.78 17.4467 82.9333 18.1067 83.24 18.68C83.56 19.24 83.9933 19.6733 84.54 19.98C85.1 20.2867 85.7267 20.44 86.42 20.44C87.02 20.44 87.5667 20.3133 88.06 20.06C88.5533 19.8067 88.9667 19.4267 89.3 18.92L90.76 19.84C90.3467 20.5733 89.76 21.14 89 21.54C88.2533 21.9267 87.4 22.12 86.44 22.12ZM106.506 11.3C107.839 11.3 108.892 11.6867 109.666 12.46C110.452 13.2333 110.846 14.38 110.846 15.9V22H108.926V16.12C108.926 15.0933 108.686 14.32 108.206 13.8C107.739 13.28 107.066 13.02 106.186 13.02C105.212 13.02 104.439 13.3267 103.866 13.94C103.292 14.54 103.006 15.4067 103.006 16.54V22H101.086V16.12C101.086 15.0933 100.846 14.32 100.366 13.8C99.8991 13.28 99.2258 13.02 98.3458 13.02C97.3724 13.02 96.5991 13.3267 96.0258 13.94C95.4524 14.54 95.1658 15.4067 95.1658 16.54V22H93.2458V11.4H95.0858V12.98C95.4724 12.4333 95.9791 12.02 96.6058 11.74C97.2324 11.4467 97.9458 11.3 98.7458 11.3C99.5724 11.3 100.306 11.4667 100.946 11.8C101.586 12.1333 102.079 12.62 102.426 13.26C102.826 12.6467 103.379 12.1667 104.086 11.82C104.806 11.4733 105.612 11.3 106.506 11.3ZM118.879 13.88C120.252 14.0133 121.299 14.44 122.019 15.16C122.739 15.8667 123.099 16.7733 123.099 17.88C123.099 18.68 122.899 19.4067 122.499 20.06C122.099 20.7 121.499 21.2133 120.699 21.6C119.912 21.9733 118.945 22.16 117.799 22.16C116.799 22.16 115.839 22.0133 114.919 21.72C113.999 21.4133 113.245 20.9933 112.659 20.46L113.579 18.88C114.059 19.3333 114.672 19.7 115.419 19.98C116.165 20.2467 116.959 20.38 117.799 20.38C118.839 20.38 119.645 20.16 120.219 19.72C120.805 19.28 121.099 18.6733 121.099 17.9C121.099 17.1267 120.812 16.5267 120.239 16.1C119.665 15.6733 118.799 15.46 117.639 15.46H116.519V14.06L120.039 9.74H113.299V8H122.539V9.36L118.879 13.88Z" fill="#2F2F2F"/>
<path d="M5 1H65V-1H5V1ZM69 5V25H71V5H69ZM65 29H5V31H65V29ZM1 25V5H-1V25H1ZM5 29C2.79086 29 1 27.2091 1 25H-1C-1 28.3137 1.68629 31 5 31V29ZM69 25C69 27.2091 67.2091 29 65 29V31C68.3137 31 71 28.3137 71 25H69ZM65 1C67.2091 1 69 2.79086 69 5H71C71 1.68629 68.3137 -1 65 -1V1ZM5 -1C1.68629 -1 -1 1.68629 -1 5H1C1 2.79086 2.79086 1 5 1V-1Z" fill="#2F2F2F"/>
</svg>
