<svg width="352" height="216" viewBox="0 0 352 216" fill="none" xmlns="http://www.w3.org/2000/svg">
<path d="M212.838 76.5051L0 9.44921L63.237 0L277.099 64.9566L212.838 76.5051Z" fill="#D7DB4D"/>
<path d="M276.512 65.0742L212.837 76.506V197.999L277.099 181.671L276.512 65.0742Z" fill="#B3CE29"/>
<path d="M0 9.17871L0.587108 131.284L213.425 197.693V76.5063L0 9.17871Z" fill="#76BB43"/>
<path d="M59.6028 32.4385L205.206 78.9547L212.838 197.694V76.5065L59.6028 32.4385Z" fill="#76BB43"/>
<path d="M57.8677 173.4V186H56.0857V174.966H53.2417V173.4H57.8677ZM65.7718 186.144C64.7758 186.144 63.8878 185.892 63.1078 185.388C62.3398 184.872 61.7338 184.128 61.2898 183.156C60.8458 182.184 60.6238 181.032 60.6238 179.7C60.6238 178.368 60.8458 177.216 61.2898 176.244C61.7338 175.272 62.3398 174.534 63.1078 174.03C63.8878 173.514 64.7758 173.256 65.7718 173.256C66.7558 173.256 67.6318 173.514 68.3998 174.03C69.1798 174.534 69.7918 175.272 70.2358 176.244C70.6798 177.216 70.9018 178.368 70.9018 179.7C70.9018 181.032 70.6798 182.184 70.2358 183.156C69.7918 184.128 69.1798 184.872 68.3998 185.388C67.6318 185.892 66.7558 186.144 65.7718 186.144ZM65.7718 184.542C66.7798 184.542 67.5838 184.128 68.1838 183.3C68.7958 182.472 69.1018 181.272 69.1018 179.7C69.1018 178.128 68.7958 176.928 68.1838 176.1C67.5838 175.272 66.7798 174.858 65.7718 174.858C64.7518 174.858 63.9358 175.272 63.3238 176.1C62.7238 176.928 62.4238 178.128 62.4238 179.7C62.4238 181.272 62.7238 182.472 63.3238 183.3C63.9358 184.128 64.7518 184.542 65.7718 184.542ZM82.3956 186.108C81.4236 186.108 80.5536 185.898 79.7856 185.478C79.0296 185.058 78.4356 184.482 78.0036 183.75C77.5716 183.006 77.3556 182.166 77.3556 181.23C77.3556 180.294 77.5716 179.46 78.0036 178.728C78.4356 177.984 79.0296 177.408 79.7856 177C80.5536 176.58 81.4236 176.37 82.3956 176.37C83.2596 176.37 84.0276 176.544 84.6996 176.892C85.3836 177.24 85.9116 177.744 86.2836 178.404L84.9696 179.25C84.6696 178.794 84.2976 178.452 83.8536 178.224C83.4096 177.996 82.9176 177.882 82.3776 177.882C81.7536 177.882 81.1896 178.02 80.6856 178.296C80.1936 178.572 79.8036 178.968 79.5156 179.484C79.2396 179.988 79.1016 180.57 79.1016 181.23C79.1016 181.902 79.2396 182.496 79.5156 183.012C79.8036 183.516 80.1936 183.906 80.6856 184.182C81.1896 184.458 81.7536 184.596 82.3776 184.596C82.9176 184.596 83.4096 184.482 83.8536 184.254C84.2976 184.026 84.6696 183.684 84.9696 183.228L86.2836 184.056C85.9116 184.716 85.3836 185.226 84.6996 185.586C84.0276 185.934 83.2596 186.108 82.3956 186.108ZM100.455 176.37C101.655 176.37 102.603 176.718 103.299 177.414C104.007 178.11 104.361 179.142 104.361 180.51V186H102.633V180.708C102.633 179.784 102.417 179.088 101.985 178.62C101.565 178.152 100.959 177.918 100.167 177.918C99.2908 177.918 98.5948 178.194 98.0788 178.746C97.5628 179.286 97.3048 180.066 97.3048 181.086V186H95.5768V180.708C95.5768 179.784 95.3608 179.088 94.9288 178.62C94.5088 178.152 93.9028 177.918 93.1108 177.918C92.2348 177.918 91.5388 178.194 91.0228 178.746C90.5068 179.286 90.2488 180.066 90.2488 181.086V186H88.5208V176.46H90.1768V177.882C90.5248 177.39 90.9808 177.018 91.5448 176.766C92.1088 176.502 92.7508 176.37 93.4708 176.37C94.2148 176.37 94.8748 176.52 95.4508 176.82C96.0268 177.12 96.4708 177.558 96.7828 178.134C97.1428 177.582 97.6408 177.15 98.2768 176.838C98.9248 176.526 99.6508 176.37 100.455 176.37Z" fill="#2F2F2F"/>
<path d="M239.984 211.434V213H230.93V211.776L236.06 206.826C236.684 206.226 237.104 205.71 237.32 205.278C237.536 204.834 237.644 204.39 237.644 203.946C237.644 203.286 237.41 202.776 236.942 202.416C236.486 202.044 235.826 201.858 234.962 201.858C233.57 201.858 232.496 202.314 231.74 203.226L230.516 202.164C231.008 201.564 231.65 201.096 232.442 200.76C233.246 200.424 234.14 200.256 235.124 200.256C236.444 200.256 237.494 200.574 238.274 201.21C239.054 201.834 239.444 202.686 239.444 203.766C239.444 204.438 239.3 205.074 239.012 205.674C238.724 206.274 238.178 206.958 237.374 207.726L233.522 211.434H239.984ZM251.23 213.108C250.258 213.108 249.388 212.898 248.62 212.478C247.864 212.058 247.27 211.482 246.838 210.75C246.406 210.006 246.19 209.166 246.19 208.23C246.19 207.294 246.406 206.46 246.838 205.728C247.27 204.984 247.864 204.408 248.62 204C249.388 203.58 250.258 203.37 251.23 203.37C252.094 203.37 252.862 203.544 253.534 203.892C254.218 204.24 254.746 204.744 255.118 205.404L253.804 206.25C253.504 205.794 253.132 205.452 252.688 205.224C252.244 204.996 251.752 204.882 251.212 204.882C250.588 204.882 250.024 205.02 249.52 205.296C249.028 205.572 248.638 205.968 248.35 206.484C248.074 206.988 247.936 207.57 247.936 208.23C247.936 208.902 248.074 209.496 248.35 210.012C248.638 210.516 249.028 210.906 249.52 211.182C250.024 211.458 250.588 211.596 251.212 211.596C251.752 211.596 252.244 211.482 252.688 211.254C253.132 211.026 253.504 210.684 253.804 210.228L255.118 211.056C254.746 211.716 254.218 212.226 253.534 212.586C252.862 212.934 252.094 213.108 251.23 213.108ZM269.289 203.37C270.489 203.37 271.437 203.718 272.133 204.414C272.841 205.11 273.195 206.142 273.195 207.51V213H271.467V207.708C271.467 206.784 271.251 206.088 270.819 205.62C270.399 205.152 269.793 204.918 269.001 204.918C268.125 204.918 267.429 205.194 266.913 205.746C266.397 206.286 266.139 207.066 266.139 208.086V213H264.411V207.708C264.411 206.784 264.195 206.088 263.763 205.62C263.343 205.152 262.737 204.918 261.945 204.918C261.069 204.918 260.373 205.194 259.857 205.746C259.341 206.286 259.083 207.066 259.083 208.086V213H257.355V203.46H259.011V204.882C259.359 204.39 259.815 204.018 260.379 203.766C260.943 203.502 261.585 203.37 262.305 203.37C263.049 203.37 263.709 203.52 264.285 203.82C264.861 204.12 265.305 204.558 265.617 205.134C265.977 204.582 266.475 204.15 267.111 203.838C267.759 203.526 268.485 203.37 269.289 203.37Z" fill="#2F2F2F"/>
<path d="M295.728 121.422C297.528 121.422 298.848 121.764 299.688 122.448C300.54 123.12 300.966 124.044 300.966 125.22C300.966 125.964 300.786 126.636 300.426 127.236C300.078 127.824 299.544 128.292 298.824 128.64C298.116 128.976 297.24 129.144 296.196 129.144C295.308 129.144 294.45 129.012 293.622 128.748C292.794 128.472 292.11 128.094 291.57 127.614L292.398 126.192C292.83 126.6 293.382 126.93 294.054 127.182C294.726 127.422 295.434 127.542 296.178 127.542C297.126 127.542 297.858 127.344 298.374 126.948C298.902 126.54 299.166 125.988 299.166 125.292C299.166 124.536 298.878 123.966 298.302 123.582C297.726 123.186 296.742 122.988 295.35 122.988H292.488L293.154 116.4H300.264V117.966H294.666L294.324 121.422H295.728ZM312.23 129.108C311.258 129.108 310.388 128.898 309.62 128.478C308.864 128.058 308.27 127.482 307.838 126.75C307.406 126.006 307.19 125.166 307.19 124.23C307.19 123.294 307.406 122.46 307.838 121.728C308.27 120.984 308.864 120.408 309.62 120C310.388 119.58 311.258 119.37 312.23 119.37C313.094 119.37 313.862 119.544 314.534 119.892C315.218 120.24 315.746 120.744 316.118 121.404L314.804 122.25C314.504 121.794 314.132 121.452 313.688 121.224C313.244 120.996 312.752 120.882 312.212 120.882C311.588 120.882 311.024 121.02 310.52 121.296C310.028 121.572 309.638 121.968 309.35 122.484C309.074 122.988 308.936 123.57 308.936 124.23C308.936 124.902 309.074 125.496 309.35 126.012C309.638 126.516 310.028 126.906 310.52 127.182C311.024 127.458 311.588 127.596 312.212 127.596C312.752 127.596 313.244 127.482 313.688 127.254C314.132 127.026 314.504 126.684 314.804 126.228L316.118 127.056C315.746 127.716 315.218 128.226 314.534 128.586C313.862 128.934 313.094 129.108 312.23 129.108ZM330.289 119.37C331.489 119.37 332.437 119.718 333.133 120.414C333.841 121.11 334.195 122.142 334.195 123.51V129H332.467V123.708C332.467 122.784 332.251 122.088 331.819 121.62C331.399 121.152 330.793 120.918 330.001 120.918C329.125 120.918 328.429 121.194 327.913 121.746C327.397 122.286 327.139 123.066 327.139 124.086V129H325.411V123.708C325.411 122.784 325.195 122.088 324.763 121.62C324.343 121.152 323.737 120.918 322.945 120.918C322.069 120.918 321.373 121.194 320.857 121.746C320.341 122.286 320.083 123.066 320.083 124.086V129H318.355V119.46H320.011V120.882C320.359 120.39 320.815 120.018 321.379 119.766C321.943 119.502 322.585 119.37 323.305 119.37C324.049 119.37 324.709 119.52 325.285 119.82C325.861 120.12 326.305 120.558 326.617 121.134C326.977 120.582 327.475 120.15 328.111 119.838C328.759 119.526 329.485 119.37 330.289 119.37Z" fill="#2F2F2F"/>
</svg>
