<svg width="575" height="40" viewBox="0 0 575 40" fill="none" xmlns="http://www.w3.org/2000/svg">
<path d="M126.303 22.904H123.909V26H122.163V22.904H115.161V21.644L121.605 13.4H123.549L117.375 21.356H122.217V18.62H123.909V21.356H126.303V22.904ZM132.53 26.144C131.534 26.144 130.646 25.892 129.866 25.388C129.098 24.872 128.492 24.128 128.048 23.156C127.604 22.184 127.382 21.032 127.382 19.7C127.382 18.368 127.604 17.216 128.048 16.244C128.492 15.272 129.098 14.534 129.866 14.03C130.646 13.514 131.534 13.256 132.53 13.256C133.514 13.256 134.39 13.514 135.158 14.03C135.938 14.534 136.55 15.272 136.994 16.244C137.438 17.216 137.66 18.368 137.66 19.7C137.66 21.032 137.438 22.184 136.994 23.156C136.55 24.128 135.938 24.872 135.158 25.388C134.39 25.892 133.514 26.144 132.53 26.144ZM132.53 24.542C133.538 24.542 134.342 24.128 134.942 23.3C135.554 22.472 135.86 21.272 135.86 19.7C135.86 18.128 135.554 16.928 134.942 16.1C134.342 15.272 133.538 14.858 132.53 14.858C131.51 14.858 130.694 15.272 130.082 16.1C129.482 16.928 129.182 18.128 129.182 19.7C129.182 21.272 129.482 22.472 130.082 23.3C130.694 24.128 131.51 24.542 132.53 24.542Z" fill="#2F2F2F"/>
<rect x="81.5" y="0.5" width="90" height="39" rx="4.5" stroke="#369CB7"/>
<path d="M38.0344 19.72C38.8077 19.9733 39.421 20.4 39.8744 21C40.3277 21.5867 40.5544 22.32 40.5544 23.2C40.5544 24.4133 40.0877 25.3533 39.1544 26.02C38.221 26.6733 36.861 27 35.0744 27H28.1144V13H34.6744C36.3277 13 37.601 13.3267 38.4944 13.98C39.3877 14.62 39.8344 15.5067 39.8344 16.64C39.8344 17.3333 39.6744 17.9467 39.3544 18.48C39.0344 19.0133 38.5944 19.4267 38.0344 19.72ZM30.7144 15.04V18.9H34.3944C35.301 18.9 35.9944 18.74 36.4744 18.42C36.9677 18.0867 37.2144 17.6067 37.2144 16.98C37.2144 16.34 36.9677 15.86 36.4744 15.54C35.9944 15.2067 35.301 15.04 34.3944 15.04H30.7144ZM34.9144 24.96C36.9277 24.96 37.9344 24.2867 37.9344 22.94C37.9344 21.5933 36.9277 20.92 34.9144 20.92H30.7144V24.96H34.9144ZM52.4092 23.76H45.4092L44.0292 27H41.3492L47.6492 13H50.2092L56.5292 27H53.8092L52.4092 23.76ZM51.5492 21.72L48.9092 15.6L46.2892 21.72H51.5492ZM64.5944 27.2C63.181 27.2 61.901 26.8933 60.7544 26.28C59.621 25.6533 58.7277 24.7933 58.0744 23.7C57.4344 22.6067 57.1144 21.3733 57.1144 20C57.1144 18.6267 57.441 17.3933 58.0944 16.3C58.7477 15.2067 59.641 14.3533 60.7744 13.74C61.921 13.1133 63.201 12.8 64.6144 12.8C65.761 12.8 66.8077 13 67.7544 13.4C68.701 13.8 69.501 14.38 70.1544 15.14L68.4744 16.72C67.461 15.6267 66.2144 15.08 64.7344 15.08C63.7744 15.08 62.9144 15.2933 62.1544 15.72C61.3944 16.1333 60.801 16.7133 60.3744 17.46C59.9477 18.2067 59.7344 19.0533 59.7344 20C59.7344 20.9467 59.9477 21.7933 60.3744 22.54C60.801 23.2867 61.3944 23.8733 62.1544 24.3C62.9144 24.7133 63.7744 24.92 64.7344 24.92C66.2144 24.92 67.461 24.3667 68.4744 23.26L70.1544 24.86C69.501 25.62 68.6944 26.2 67.7344 26.6C66.7877 27 65.741 27.2 64.5944 27.2Z" fill="#2F2F2F"/>
<path d="M16.2875 12L3 27H20" stroke="#2F2F2F" stroke-width="2"/>
<path d="M318.892 13.256C320.584 13.256 321.886 13.802 322.798 14.894C323.722 15.986 324.184 17.534 324.184 19.538C324.184 20.942 323.932 22.142 323.428 23.138C322.936 24.122 322.24 24.872 321.34 25.388C320.452 25.892 319.414 26.144 318.226 26.144C317.614 26.144 317.038 26.084 316.498 25.964C315.958 25.832 315.49 25.646 315.094 25.406L315.778 24.002C316.39 24.398 317.2 24.596 318.208 24.596C319.516 24.596 320.536 24.194 321.268 23.39C322.012 22.574 322.384 21.392 322.384 19.844V19.394C322.024 19.934 321.526 20.348 320.89 20.636C320.254 20.912 319.54 21.05 318.748 21.05C317.92 21.05 317.176 20.894 316.516 20.582C315.868 20.27 315.358 19.826 314.986 19.25C314.626 18.662 314.446 17.99 314.446 17.234C314.446 16.442 314.638 15.746 315.022 15.146C315.418 14.546 315.952 14.084 316.624 13.76C317.296 13.424 318.052 13.256 318.892 13.256ZM319.054 19.592C319.618 19.592 320.122 19.484 320.566 19.268C321.01 19.052 321.352 18.758 321.592 18.386C321.844 18.014 321.97 17.6 321.97 17.144C321.97 16.7 321.85 16.298 321.61 15.938C321.382 15.566 321.04 15.272 320.584 15.056C320.14 14.828 319.6 14.714 318.964 14.714C318.136 14.714 317.464 14.936 316.948 15.38C316.444 15.824 316.192 16.418 316.192 17.162C316.192 17.906 316.45 18.5 316.966 18.944C317.482 19.376 318.178 19.592 319.054 19.592ZM331.064 26.144C330.068 26.144 329.18 25.892 328.4 25.388C327.632 24.872 327.026 24.128 326.582 23.156C326.138 22.184 325.916 21.032 325.916 19.7C325.916 18.368 326.138 17.216 326.582 16.244C327.026 15.272 327.632 14.534 328.4 14.03C329.18 13.514 330.068 13.256 331.064 13.256C332.048 13.256 332.924 13.514 333.692 14.03C334.472 14.534 335.084 15.272 335.528 16.244C335.972 17.216 336.194 18.368 336.194 19.7C336.194 21.032 335.972 22.184 335.528 23.156C335.084 24.128 334.472 24.872 333.692 25.388C332.924 25.892 332.048 26.144 331.064 26.144ZM331.064 24.542C332.072 24.542 332.876 24.128 333.476 23.3C334.088 22.472 334.394 21.272 334.394 19.7C334.394 18.128 334.088 16.928 333.476 16.1C332.876 15.272 332.072 14.858 331.064 14.858C330.044 14.858 329.228 15.272 328.616 16.1C328.016 16.928 327.716 18.128 327.716 19.7C327.716 21.272 328.016 22.472 328.616 23.3C329.228 24.128 330.044 24.542 331.064 24.542Z" fill="#2F2F2F"/>
<rect x="280.5" y="0.5" width="90" height="39" rx="4.5" stroke="#369CB7"/>
<path d="M236.097 23.76H229.097L227.717 27H225.037L231.337 13H233.897L240.217 27H237.497L236.097 23.76ZM235.237 21.72L232.597 15.6L229.977 21.72H235.237ZM251.917 19.72C252.691 19.9733 253.304 20.4 253.757 21C254.211 21.5867 254.437 22.32 254.437 23.2C254.437 24.4133 253.971 25.3533 253.037 26.02C252.104 26.6733 250.744 27 248.957 27H241.997V13H248.557C250.211 13 251.484 13.3267 252.377 13.98C253.271 14.62 253.717 15.5067 253.717 16.64C253.717 17.3333 253.557 17.9467 253.237 18.48C252.917 19.0133 252.477 19.4267 251.917 19.72ZM244.597 15.04V18.9H248.277C249.184 18.9 249.877 18.74 250.357 18.42C250.851 18.0867 251.097 17.6067 251.097 16.98C251.097 16.34 250.851 15.86 250.357 15.54C249.877 15.2067 249.184 15.04 248.277 15.04H244.597ZM248.797 24.96C250.811 24.96 251.817 24.2867 251.817 22.94C251.817 21.5933 250.811 20.92 248.797 20.92H244.597V24.96H248.797ZM263.692 27.2C262.279 27.2 260.999 26.8933 259.852 26.28C258.719 25.6533 257.825 24.7933 257.172 23.7C256.532 22.6067 256.212 21.3733 256.212 20C256.212 18.6267 256.539 17.3933 257.192 16.3C257.845 15.2067 258.739 14.3533 259.872 13.74C261.019 13.1133 262.299 12.8 263.712 12.8C264.859 12.8 265.905 13 266.852 13.4C267.799 13.8 268.599 14.38 269.252 15.14L267.572 16.72C266.559 15.6267 265.312 15.08 263.832 15.08C262.872 15.08 262.012 15.2933 261.252 15.72C260.492 16.1333 259.899 16.7133 259.472 17.46C259.045 18.2067 258.832 19.0533 258.832 20C258.832 20.9467 259.045 21.7933 259.472 22.54C259.899 23.2867 260.492 23.8733 261.252 24.3C262.012 24.7133 262.872 24.92 263.832 24.92C265.312 24.92 266.559 24.3667 267.572 23.26L269.252 24.86C268.599 25.62 267.792 26.2 266.832 26.6C265.885 27 264.839 27.2 263.692 27.2Z" fill="#2F2F2F"/>
<path d="M215.287 12L202 27H219" stroke="#2F2F2F" stroke-width="2"/>
<rect x="484.5" y="0.5" width="90" height="39" rx="4.5" stroke="#369CB7"/>
<path d="M522.793 18.422C524.593 18.422 525.913 18.764 526.753 19.448C527.605 20.12 528.031 21.044 528.031 22.22C528.031 22.964 527.851 23.636 527.491 24.236C527.143 24.824 526.609 25.292 525.889 25.64C525.181 25.976 524.305 26.144 523.261 26.144C522.373 26.144 521.515 26.012 520.687 25.748C519.859 25.472 519.175 25.094 518.635 24.614L519.463 23.192C519.895 23.6 520.447 23.93 521.119 24.182C521.791 24.422 522.499 24.542 523.243 24.542C524.191 24.542 524.923 24.344 525.439 23.948C525.967 23.54 526.231 22.988 526.231 22.292C526.231 21.536 525.943 20.966 525.367 20.582C524.791 20.186 523.807 19.988 522.415 19.988H519.553L520.219 13.4H527.329V14.966H521.731L521.389 18.422H522.793ZM534.677 26.144C533.681 26.144 532.793 25.892 532.013 25.388C531.245 24.872 530.639 24.128 530.195 23.156C529.751 22.184 529.529 21.032 529.529 19.7C529.529 18.368 529.751 17.216 530.195 16.244C530.639 15.272 531.245 14.534 532.013 14.03C532.793 13.514 533.681 13.256 534.677 13.256C535.661 13.256 536.537 13.514 537.305 14.03C538.085 14.534 538.697 15.272 539.141 16.244C539.585 17.216 539.807 18.368 539.807 19.7C539.807 21.032 539.585 22.184 539.141 23.156C538.697 24.128 538.085 24.872 537.305 25.388C536.537 25.892 535.661 26.144 534.677 26.144ZM534.677 24.542C535.685 24.542 536.489 24.128 537.089 23.3C537.701 22.472 538.007 21.272 538.007 19.7C538.007 18.128 537.701 16.928 537.089 16.1C536.489 15.272 535.685 14.858 534.677 14.858C533.657 14.858 532.841 15.272 532.229 16.1C531.629 16.928 531.329 18.128 531.329 19.7C531.329 21.272 531.629 22.472 532.229 23.3C532.841 24.128 533.657 24.542 534.677 24.542Z" fill="#2F2F2F"/>
<path d="M441.083 19.72C441.857 19.9733 442.47 20.4 442.923 21C443.377 21.5867 443.603 22.32 443.603 23.2C443.603 24.4133 443.137 25.3533 442.203 26.02C441.27 26.6733 439.91 27 438.123 27H431.163V13H437.723C439.377 13 440.65 13.3267 441.543 13.98C442.437 14.62 442.883 15.5067 442.883 16.64C442.883 17.3333 442.723 17.9467 442.403 18.48C442.083 19.0133 441.643 19.4267 441.083 19.72ZM433.763 15.04V18.9H437.443C438.35 18.9 439.043 18.74 439.523 18.42C440.017 18.0867 440.263 17.6067 440.263 16.98C440.263 16.34 440.017 15.86 439.523 15.54C439.043 15.2067 438.35 15.04 437.443 15.04H433.763ZM437.963 24.96C439.977 24.96 440.983 24.2867 440.983 22.94C440.983 21.5933 439.977 20.92 437.963 20.92H433.763V24.96H437.963ZM452.858 27.2C451.445 27.2 450.165 26.8933 449.018 26.28C447.885 25.6533 446.991 24.7933 446.338 23.7C445.698 22.6067 445.378 21.3733 445.378 20C445.378 18.6267 445.705 17.3933 446.358 16.3C447.011 15.2067 447.905 14.3533 449.038 13.74C450.185 13.1133 451.465 12.8 452.878 12.8C454.025 12.8 455.071 13 456.018 13.4C456.965 13.8 457.765 14.38 458.418 15.14L456.738 16.72C455.725 15.6267 454.478 15.08 452.998 15.08C452.038 15.08 451.178 15.2933 450.418 15.72C449.658 16.1333 449.065 16.7133 448.638 17.46C448.211 18.2067 447.998 19.0533 447.998 20C447.998 20.9467 448.211 21.7933 448.638 22.54C449.065 23.2867 449.658 23.8733 450.418 24.3C451.178 24.7133 452.038 24.92 452.998 24.92C454.478 24.92 455.725 24.3667 456.738 23.26L458.418 24.86C457.765 25.62 456.958 26.2 455.998 26.6C455.051 27 454.005 27.2 452.858 27.2ZM469.696 23.76H462.696L461.316 27H458.636L464.936 13H467.496L473.816 27H471.096L469.696 23.76ZM468.836 21.72L466.196 15.6L463.576 21.72H468.836Z" fill="#2F2F2F"/>
<path d="M419.287 12L406 27H423" stroke="#2F2F2F" stroke-width="2"/>
</svg>
