<svg width="633" height="95" viewBox="0 0 633 95" fill="none" xmlns="http://www.w3.org/2000/svg">
<path d="M6.156 15.1782C7.32 15.3222 8.208 15.7182 8.82 16.3662C9.432 17.0142 9.738 17.8242 9.738 18.7962C9.738 19.5282 9.552 20.1942 9.18 20.7942C8.808 21.3942 8.244 21.8742 7.488 22.2342C6.744 22.5822 5.832 22.7562 4.752 22.7562C3.852 22.7562 2.982 22.6302 2.142 22.3782C1.314 22.1142 0.606 21.7542 0.018 21.2982L1.026 19.4802C1.482 19.8642 2.034 20.1702 2.682 20.3982C3.342 20.6142 4.02 20.7222 4.716 20.7222C5.544 20.7222 6.192 20.5542 6.66 20.2182C7.14 19.8702 7.38 19.4022 7.38 18.8142C7.38 18.2262 7.152 17.7702 6.696 17.4462C6.252 17.1102 5.568 16.9422 4.644 16.9422H3.492V15.3402L6.354 11.9382H0.63V9.97617H9.216V11.5422L6.156 15.1782ZM25.9272 12.9642L21.4272 23.3502C21.0072 24.3942 20.4972 25.1262 19.8972 25.5462C19.2972 25.9782 18.5712 26.1942 17.7192 26.1942C17.2392 26.1942 16.7652 26.1162 16.2972 25.9602C15.8292 25.8042 15.4452 25.5882 15.1452 25.3122L16.0452 23.6562C16.2612 23.8602 16.5132 24.0222 16.8012 24.1422C17.1012 24.2622 17.4012 24.3222 17.7012 24.3222C18.0972 24.3222 18.4212 24.2202 18.6732 24.0162C18.9372 23.8122 19.1772 23.4702 19.3932 22.9902L19.5552 22.6122L15.3612 12.9642H17.7012L20.7252 20.0742L23.7672 12.9642H25.9272ZM36.1058 17.8242C36.1058 17.9802 36.0938 18.2022 36.0698 18.4902H28.5278C28.6598 19.1982 29.0018 19.7622 29.5538 20.1822C30.1178 20.5902 30.8138 20.7942 31.6418 20.7942C32.6978 20.7942 33.5678 20.4462 34.2518 19.7502L35.4578 21.1362C35.0258 21.6522 34.4798 22.0422 33.8198 22.3062C33.1598 22.5702 32.4158 22.7022 31.5878 22.7022C30.5318 22.7022 29.6018 22.4922 28.7978 22.0722C27.9938 21.6522 27.3698 21.0702 26.9258 20.3262C26.4938 19.5702 26.2778 18.7182 26.2778 17.7702C26.2778 16.8342 26.4878 15.9942 26.9078 15.2502C27.3398 14.4942 27.9338 13.9062 28.6898 13.4862C29.4458 13.0662 30.2978 12.8562 31.2458 12.8562C32.1818 12.8562 33.0158 13.0662 33.7478 13.4862C34.4918 13.8942 35.0678 14.4762 35.4758 15.2322C35.8958 15.9762 36.1058 16.8402 36.1058 17.8242ZM31.2458 14.6562C30.5258 14.6562 29.9138 14.8722 29.4098 15.3042C28.9178 15.7242 28.6178 16.2882 28.5098 16.9962H33.9638C33.8678 16.3002 33.5738 15.7362 33.0818 15.3042C32.5898 14.8722 31.9778 14.6562 31.2458 14.6562ZM41.6753 12.8562C43.0913 12.8562 44.1713 13.1982 44.9153 13.8822C45.6713 14.5542 46.0493 15.5742 46.0493 16.9422V22.5762H43.9253V21.4062C43.6493 21.8262 43.2533 22.1502 42.7373 22.3782C42.2333 22.5942 41.6213 22.7022 40.9013 22.7022C40.1813 22.7022 39.5513 22.5822 39.0113 22.3422C38.4713 22.0902 38.0513 21.7482 37.7513 21.3162C37.4633 20.8722 37.3193 20.3742 37.3193 19.8222C37.3193 18.9582 37.6373 18.2682 38.2733 17.7522C38.9213 17.2242 39.9353 16.9602 41.3153 16.9602H43.7993V16.8162C43.7993 16.1442 43.5953 15.6282 43.1873 15.2682C42.7913 14.9082 42.1973 14.7282 41.4053 14.7282C40.8653 14.7282 40.3313 14.8122 39.8033 14.9802C39.2873 15.1482 38.8493 15.3822 38.4893 15.6822L37.6073 14.0442C38.1113 13.6602 38.7173 13.3662 39.4253 13.1622C40.1333 12.9582 40.8833 12.8562 41.6753 12.8562ZM41.3693 21.0642C41.9333 21.0642 42.4313 20.9382 42.8633 20.6862C43.3073 20.4222 43.6193 20.0502 43.7993 19.5702V18.4542H41.4773C40.1813 18.4542 39.5333 18.8802 39.5333 19.7322C39.5333 20.1402 39.6953 20.4642 40.0193 20.7042C40.3433 20.9442 40.7933 21.0642 41.3693 21.0642ZM51.0789 14.3682C51.7269 13.3602 52.8669 12.8562 54.4989 12.8562V14.9982C54.3069 14.9622 54.1329 14.9442 53.9769 14.9442C53.1009 14.9442 52.4169 15.2022 51.9249 15.7182C51.4329 16.2222 51.1869 16.9542 51.1869 17.9142V22.5762H48.9369V12.9642H51.0789V14.3682ZM59.4128 22.7022C58.6328 22.7022 57.8708 22.6002 57.1268 22.3962C56.3828 22.1922 55.7888 21.9342 55.3448 21.6222L56.2088 19.9122C56.6408 20.2002 57.1568 20.4342 57.7568 20.6142C58.3688 20.7822 58.9688 20.8662 59.5568 20.8662C60.9008 20.8662 61.5728 20.5122 61.5728 19.8042C61.5728 19.4682 61.3988 19.2342 61.0508 19.1022C60.7148 18.9702 60.1688 18.8442 59.4128 18.7242C58.6208 18.6042 57.9728 18.4662 57.4688 18.3102C56.9768 18.1542 56.5448 17.8842 56.1728 17.5002C55.8128 17.1042 55.6328 16.5582 55.6328 15.8622C55.6328 14.9502 56.0108 14.2242 56.7668 13.6842C57.5348 13.1322 58.5668 12.8562 59.8628 12.8562C60.5228 12.8562 61.1828 12.9342 61.8428 13.0902C62.5028 13.2342 63.0428 13.4322 63.4628 13.6842L62.5988 15.3942C61.7828 14.9142 60.8648 14.6742 59.8448 14.6742C59.1848 14.6742 58.6808 14.7762 58.3328 14.9802C57.9968 15.1722 57.8288 15.4302 57.8288 15.7542C57.8288 16.1142 58.0088 16.3722 58.3688 16.5282C58.7408 16.6722 59.3108 16.8102 60.0788 16.9422C60.8468 17.0622 61.4768 17.2002 61.9688 17.3562C62.4608 17.5122 62.8808 17.7762 63.2288 18.1482C63.5888 18.5202 63.7688 19.0482 63.7688 19.7322C63.7688 20.6322 63.3788 21.3522 62.5988 21.8922C61.8188 22.4322 60.7568 22.7022 59.4128 22.7022ZM74.2451 9.79617C75.9731 9.79617 77.3111 10.3362 78.2591 11.4162C79.2191 12.4962 79.6991 14.0442 79.6991 16.0602C79.6991 17.4762 79.4411 18.6882 78.9251 19.6962C78.4091 20.6922 77.6831 21.4542 76.7471 21.9822C75.8231 22.4982 74.7491 22.7562 73.5251 22.7562C72.8771 22.7562 72.2651 22.6902 71.6891 22.5582C71.1251 22.4142 70.6331 22.2102 70.2131 21.9462L71.0771 20.1822C71.7011 20.5902 72.4991 20.7942 73.4711 20.7942C74.6831 20.7942 75.6311 20.4222 76.3151 19.6782C76.9991 18.9342 77.3411 17.8602 77.3411 16.4562V16.4382C76.9691 16.8702 76.4951 17.2002 75.9191 17.4282C75.3431 17.6442 74.6951 17.7522 73.9751 17.7522C73.1471 17.7522 72.4031 17.5962 71.7431 17.2842C71.0831 16.9602 70.5671 16.5042 70.1951 15.9162C69.8231 15.3282 69.6371 14.6502 69.6371 13.8822C69.6371 13.0662 69.8411 12.3522 70.2491 11.7402C70.6571 11.1162 71.2091 10.6362 71.9051 10.3002C72.6011 9.96417 73.3811 9.79617 74.2451 9.79617ZM74.4251 15.9162C75.1811 15.9162 75.7931 15.7122 76.2611 15.3042C76.7411 14.8962 76.9811 14.3802 76.9811 13.7562C76.9811 13.1442 76.7471 12.6402 76.2791 12.2442C75.8231 11.8362 75.1871 11.6322 74.3711 11.6322C73.6391 11.6322 73.0451 11.8302 72.5891 12.2262C72.1331 12.6102 71.9051 13.1262 71.9051 13.7742C71.9051 14.4342 72.1331 14.9562 72.5891 15.3402C73.0451 15.7242 73.6571 15.9162 74.4251 15.9162ZM99.0728 12.8562C100.285 12.8562 101.245 13.2102 101.953 13.9182C102.661 14.6142 103.015 15.6642 103.015 17.0682V22.5762H100.765V17.3562C100.765 16.5162 100.579 15.8862 100.207 15.4662C99.8348 15.0342 99.3008 14.8182 98.6048 14.8182C97.8488 14.8182 97.2428 15.0702 96.7868 15.5742C96.3308 16.0662 96.1028 16.7742 96.1028 17.6982V22.5762H93.8528V17.3562C93.8528 16.5162 93.6668 15.8862 93.2948 15.4662C92.9228 15.0342 92.3888 14.8182 91.6928 14.8182C90.9248 14.8182 90.3128 15.0642 89.8568 15.5562C89.4128 16.0482 89.1908 16.7622 89.1908 17.6982V22.5762H86.9408V12.9642H89.0828V14.1882C89.4428 13.7562 89.8928 13.4262 90.4328 13.1982C90.9728 12.9702 91.5728 12.8562 92.2328 12.8562C92.9528 12.8562 93.5888 12.9942 94.1408 13.2702C94.7048 13.5342 95.1488 13.9302 95.4728 14.4582C95.8688 13.9542 96.3788 13.5642 97.0028 13.2882C97.6268 13.0002 98.3168 12.8562 99.0728 12.8562ZM110.298 22.7022C109.326 22.7022 108.45 22.4922 107.67 22.0722C106.89 21.6522 106.278 21.0702 105.834 20.3262C105.402 19.5702 105.186 18.7182 105.186 17.7702C105.186 16.8222 105.402 15.9762 105.834 15.2322C106.278 14.4882 106.89 13.9062 107.67 13.4862C108.45 13.0662 109.326 12.8562 110.298 12.8562C111.282 12.8562 112.164 13.0662 112.944 13.4862C113.724 13.9062 114.33 14.4882 114.762 15.2322C115.206 15.9762 115.428 16.8222 115.428 17.7702C115.428 18.7182 115.206 19.5702 114.762 20.3262C114.33 21.0702 113.724 21.6522 112.944 22.0722C112.164 22.4922 111.282 22.7022 110.298 22.7022ZM110.298 20.7762C111.126 20.7762 111.81 20.5002 112.35 19.9482C112.89 19.3962 113.16 18.6702 113.16 17.7702C113.16 16.8702 112.89 16.1442 112.35 15.5922C111.81 15.0402 111.126 14.7642 110.298 14.7642C109.47 14.7642 108.786 15.0402 108.246 15.5922C107.718 16.1442 107.454 16.8702 107.454 17.7702C107.454 18.6702 107.718 19.3962 108.246 19.9482C108.786 20.5002 109.47 20.7762 110.298 20.7762ZM123.034 12.8562C124.246 12.8562 125.218 13.2102 125.95 13.9182C126.682 14.6262 127.048 15.6762 127.048 17.0682V22.5762H124.798V17.3562C124.798 16.5162 124.6 15.8862 124.204 15.4662C123.808 15.0342 123.244 14.8182 122.512 14.8182C121.684 14.8182 121.03 15.0702 120.55 15.5742C120.07 16.0662 119.83 16.7802 119.83 17.7162V22.5762H117.58V12.9642H119.722V14.2062C120.094 13.7622 120.562 13.4262 121.126 13.1982C121.69 12.9702 122.326 12.8562 123.034 12.8562ZM135.68 22.0542C135.416 22.2702 135.092 22.4322 134.708 22.5402C134.336 22.6482 133.94 22.7022 133.52 22.7022C132.464 22.7022 131.648 22.4262 131.072 21.8742C130.496 21.3222 130.208 20.5182 130.208 19.4622V14.8362H128.624V13.0362H130.208V10.8402H132.458V13.0362H135.032V14.8362H132.458V19.4082C132.458 19.8762 132.572 20.2362 132.8 20.4882C133.028 20.7282 133.358 20.8482 133.79 20.8482C134.294 20.8482 134.714 20.7162 135.05 20.4522L135.68 22.0542ZM142.985 12.8562C144.197 12.8562 145.169 13.2102 145.901 13.9182C146.633 14.6262 146.999 15.6762 146.999 17.0682V22.5762H144.749V17.3562C144.749 16.5162 144.551 15.8862 144.155 15.4662C143.759 15.0342 143.195 14.8182 142.463 14.8182C141.635 14.8182 140.981 15.0702 140.501 15.5742C140.021 16.0662 139.781 16.7802 139.781 17.7162V22.5762H137.531V9.22017H139.781V14.0802C140.153 13.6842 140.609 13.3842 141.149 13.1802C141.701 12.9642 142.313 12.8562 142.985 12.8562ZM152.823 22.7022C152.043 22.7022 151.281 22.6002 150.537 22.3962C149.793 22.1922 149.199 21.9342 148.755 21.6222L149.619 19.9122C150.051 20.2002 150.567 20.4342 151.167 20.6142C151.779 20.7822 152.379 20.8662 152.967 20.8662C154.311 20.8662 154.983 20.5122 154.983 19.8042C154.983 19.4682 154.809 19.2342 154.461 19.1022C154.125 18.9702 153.579 18.8442 152.823 18.7242C152.031 18.6042 151.383 18.4662 150.879 18.3102C150.387 18.1542 149.955 17.8842 149.583 17.5002C149.223 17.1042 149.043 16.5582 149.043 15.8622C149.043 14.9502 149.421 14.2242 150.177 13.6842C150.945 13.1322 151.977 12.8562 153.273 12.8562C153.933 12.8562 154.593 12.9342 155.253 13.0902C155.913 13.2342 156.453 13.4322 156.873 13.6842L156.009 15.3942C155.193 14.9142 154.275 14.6742 153.255 14.6742C152.595 14.6742 152.091 14.7762 151.743 14.9802C151.407 15.1722 151.239 15.4302 151.239 15.7542C151.239 16.1142 151.419 16.3722 151.779 16.5282C152.151 16.6722 152.721 16.8102 153.489 16.9422C154.257 17.0622 154.887 17.2002 155.379 17.3562C155.871 17.5122 156.291 17.7762 156.639 18.1482C156.999 18.5202 157.179 19.0482 157.179 19.7322C157.179 20.6322 156.789 21.3522 156.009 21.8922C155.229 22.4322 154.167 22.7022 152.823 22.7022ZM174.187 15.9762H170.293V19.8262H167.939V15.9762H164.045V13.7762H167.939V9.92617H170.293V13.7762H174.187V15.9762ZM186.722 15.1782C187.886 15.3222 188.774 15.7182 189.386 16.3662C189.998 17.0142 190.304 17.8242 190.304 18.7962C190.304 19.5282 190.118 20.1942 189.746 20.7942C189.374 21.3942 188.81 21.8742 188.054 22.2342C187.31 22.5822 186.398 22.7562 185.318 22.7562C184.418 22.7562 183.548 22.6302 182.708 22.3782C181.88 22.1142 181.172 21.7542 180.584 21.2982L181.592 19.4802C182.048 19.8642 182.6 20.1702 183.248 20.3982C183.908 20.6142 184.586 20.7222 185.282 20.7222C186.11 20.7222 186.758 20.5542 187.226 20.2182C187.706 19.8702 187.946 19.4022 187.946 18.8142C187.946 18.2262 187.718 17.7702 187.262 17.4462C186.818 17.1102 186.134 16.9422 185.21 16.9422H184.058V15.3402L186.92 11.9382H181.196V9.97617H189.782V11.5422L186.722 15.1782ZM206.494 12.9642L201.994 23.3502C201.574 24.3942 201.064 25.1262 200.464 25.5462C199.864 25.9782 199.138 26.1942 198.286 26.1942C197.806 26.1942 197.332 26.1162 196.864 25.9602C196.396 25.8042 196.012 25.5882 195.712 25.3122L196.612 23.6562C196.828 23.8602 197.08 24.0222 197.368 24.1422C197.668 24.2622 197.968 24.3222 198.268 24.3222C198.664 24.3222 198.988 24.2202 199.24 24.0162C199.504 23.8122 199.744 23.4702 199.96 22.9902L200.122 22.6122L195.928 12.9642H198.268L201.292 20.0742L204.334 12.9642H206.494ZM216.672 17.8242C216.672 17.9802 216.66 18.2022 216.636 18.4902H209.094C209.226 19.1982 209.568 19.7622 210.12 20.1822C210.684 20.5902 211.38 20.7942 212.208 20.7942C213.264 20.7942 214.134 20.4462 214.818 19.7502L216.024 21.1362C215.592 21.6522 215.046 22.0422 214.386 22.3062C213.726 22.5702 212.982 22.7022 212.154 22.7022C211.098 22.7022 210.168 22.4922 209.364 22.0722C208.56 21.6522 207.936 21.0702 207.492 20.3262C207.06 19.5702 206.844 18.7182 206.844 17.7702C206.844 16.8342 207.054 15.9942 207.474 15.2502C207.906 14.4942 208.5 13.9062 209.256 13.4862C210.012 13.0662 210.864 12.8562 211.812 12.8562C212.748 12.8562 213.582 13.0662 214.314 13.4862C215.058 13.8942 215.634 14.4762 216.042 15.2322C216.462 15.9762 216.672 16.8402 216.672 17.8242ZM211.812 14.6562C211.092 14.6562 210.48 14.8722 209.976 15.3042C209.484 15.7242 209.184 16.2882 209.076 16.9962H214.53C214.434 16.3002 214.14 15.7362 213.648 15.3042C213.156 14.8722 212.544 14.6562 211.812 14.6562ZM222.242 12.8562C223.658 12.8562 224.738 13.1982 225.482 13.8822C226.238 14.5542 226.616 15.5742 226.616 16.9422V22.5762H224.492V21.4062C224.216 21.8262 223.82 22.1502 223.304 22.3782C222.8 22.5942 222.188 22.7022 221.468 22.7022C220.748 22.7022 220.118 22.5822 219.578 22.3422C219.038 22.0902 218.618 21.7482 218.318 21.3162C218.03 20.8722 217.886 20.3742 217.886 19.8222C217.886 18.9582 218.204 18.2682 218.84 17.7522C219.488 17.2242 220.502 16.9602 221.882 16.9602H224.366V16.8162C224.366 16.1442 224.162 15.6282 223.754 15.2682C223.358 14.9082 222.764 14.7282 221.972 14.7282C221.432 14.7282 220.898 14.8122 220.37 14.9802C219.854 15.1482 219.416 15.3822 219.056 15.6822L218.174 14.0442C218.678 13.6602 219.284 13.3662 219.992 13.1622C220.7 12.9582 221.45 12.8562 222.242 12.8562ZM221.936 21.0642C222.5 21.0642 222.998 20.9382 223.43 20.6862C223.874 20.4222 224.186 20.0502 224.366 19.5702V18.4542H222.044C220.748 18.4542 220.1 18.8802 220.1 19.7322C220.1 20.1402 220.262 20.4642 220.586 20.7042C220.91 20.9442 221.36 21.0642 221.936 21.0642ZM231.645 14.3682C232.293 13.3602 233.433 12.8562 235.065 12.8562V14.9982C234.873 14.9622 234.699 14.9442 234.543 14.9442C233.667 14.9442 232.983 15.2022 232.491 15.7182C231.999 16.2222 231.753 16.9542 231.753 17.9142V22.5762H229.503V12.9642H231.645V14.3682ZM239.979 22.7022C239.199 22.7022 238.437 22.6002 237.693 22.3962C236.949 22.1922 236.355 21.9342 235.911 21.6222L236.775 19.9122C237.207 20.2002 237.723 20.4342 238.323 20.6142C238.935 20.7822 239.535 20.8662 240.123 20.8662C241.467 20.8662 242.139 20.5122 242.139 19.8042C242.139 19.4682 241.965 19.2342 241.617 19.1022C241.281 18.9702 240.735 18.8442 239.979 18.7242C239.187 18.6042 238.539 18.4662 238.035 18.3102C237.543 18.1542 237.111 17.8842 236.739 17.5002C236.379 17.1042 236.199 16.5582 236.199 15.8622C236.199 14.9502 236.577 14.2242 237.333 13.6842C238.101 13.1322 239.133 12.8562 240.429 12.8562C241.089 12.8562 241.749 12.9342 242.409 13.0902C243.069 13.2342 243.609 13.4322 244.029 13.6842L243.165 15.3942C242.349 14.9142 241.431 14.6742 240.411 14.6742C239.751 14.6742 239.247 14.7762 238.899 14.9802C238.563 15.1722 238.395 15.4302 238.395 15.7542C238.395 16.1142 238.575 16.3722 238.935 16.5282C239.307 16.6722 239.877 16.8102 240.645 16.9422C241.413 17.0622 242.043 17.2002 242.535 17.3562C243.027 17.5122 243.447 17.7762 243.795 18.1482C244.155 18.5202 244.335 19.0482 244.335 19.7322C244.335 20.6322 243.945 21.3522 243.165 21.8922C242.385 22.4322 241.323 22.7022 239.979 22.7022ZM254.811 9.79617C256.539 9.79617 257.877 10.3362 258.825 11.4162C259.785 12.4962 260.265 14.0442 260.265 16.0602C260.265 17.4762 260.007 18.6882 259.491 19.6962C258.975 20.6922 258.249 21.4542 257.313 21.9822C256.389 22.4982 255.315 22.7562 254.091 22.7562C253.443 22.7562 252.831 22.6902 252.255 22.5582C251.691 22.4142 251.199 22.2102 250.779 21.9462L251.643 20.1822C252.267 20.5902 253.065 20.7942 254.037 20.7942C255.249 20.7942 256.197 20.4222 256.881 19.6782C257.565 18.9342 257.907 17.8602 257.907 16.4562V16.4382C257.535 16.8702 257.061 17.2002 256.485 17.4282C255.909 17.6442 255.261 17.7522 254.541 17.7522C253.713 17.7522 252.969 17.5962 252.309 17.2842C251.649 16.9602 251.133 16.5042 250.761 15.9162C250.389 15.3282 250.203 14.6502 250.203 13.8822C250.203 13.0662 250.407 12.3522 250.815 11.7402C251.223 11.1162 251.775 10.6362 252.471 10.3002C253.167 9.96417 253.947 9.79617 254.811 9.79617ZM254.991 15.9162C255.747 15.9162 256.359 15.7122 256.827 15.3042C257.307 14.8962 257.547 14.3802 257.547 13.7562C257.547 13.1442 257.313 12.6402 256.845 12.2442C256.389 11.8362 255.753 11.6322 254.937 11.6322C254.205 11.6322 253.611 11.8302 253.155 12.2262C252.699 12.6102 252.471 13.1262 252.471 13.7742C252.471 14.4342 252.699 14.9562 253.155 15.3402C253.611 15.7242 254.223 15.9162 254.991 15.9162ZM279.639 12.8562C280.851 12.8562 281.811 13.2102 282.519 13.9182C283.227 14.6142 283.581 15.6642 283.581 17.0682V22.5762H281.331V17.3562C281.331 16.5162 281.145 15.8862 280.773 15.4662C280.401 15.0342 279.867 14.8182 279.171 14.8182C278.415 14.8182 277.809 15.0702 277.353 15.5742C276.897 16.0662 276.669 16.7742 276.669 17.6982V22.5762H274.419V17.3562C274.419 16.5162 274.233 15.8862 273.861 15.4662C273.489 15.0342 272.955 14.8182 272.259 14.8182C271.491 14.8182 270.879 15.0642 270.423 15.5562C269.979 16.0482 269.757 16.7622 269.757 17.6982V22.5762H267.507V12.9642H269.649V14.1882C270.009 13.7562 270.459 13.4262 270.999 13.1982C271.539 12.9702 272.139 12.8562 272.799 12.8562C273.519 12.8562 274.155 12.9942 274.707 13.2702C275.271 13.5342 275.715 13.9302 276.039 14.4582C276.435 13.9542 276.945 13.5642 277.569 13.2882C278.193 13.0002 278.883 12.8562 279.639 12.8562ZM290.864 22.7022C289.892 22.7022 289.016 22.4922 288.236 22.0722C287.456 21.6522 286.844 21.0702 286.4 20.3262C285.968 19.5702 285.752 18.7182 285.752 17.7702C285.752 16.8222 285.968 15.9762 286.4 15.2322C286.844 14.4882 287.456 13.9062 288.236 13.4862C289.016 13.0662 289.892 12.8562 290.864 12.8562C291.848 12.8562 292.73 13.0662 293.51 13.4862C294.29 13.9062 294.896 14.4882 295.328 15.2322C295.772 15.9762 295.994 16.8222 295.994 17.7702C295.994 18.7182 295.772 19.5702 295.328 20.3262C294.896 21.0702 294.29 21.6522 293.51 22.0722C292.73 22.4922 291.848 22.7022 290.864 22.7022ZM290.864 20.7762C291.692 20.7762 292.376 20.5002 292.916 19.9482C293.456 19.3962 293.726 18.6702 293.726 17.7702C293.726 16.8702 293.456 16.1442 292.916 15.5922C292.376 15.0402 291.692 14.7642 290.864 14.7642C290.036 14.7642 289.352 15.0402 288.812 15.5922C288.284 16.1442 288.02 16.8702 288.02 17.7702C288.02 18.6702 288.284 19.3962 288.812 19.9482C289.352 20.5002 290.036 20.7762 290.864 20.7762ZM303.6 12.8562C304.812 12.8562 305.784 13.2102 306.516 13.9182C307.248 14.6262 307.614 15.6762 307.614 17.0682V22.5762H305.364V17.3562C305.364 16.5162 305.166 15.8862 304.77 15.4662C304.374 15.0342 303.81 14.8182 303.078 14.8182C302.25 14.8182 301.596 15.0702 301.116 15.5742C300.636 16.0662 300.396 16.7802 300.396 17.7162V22.5762H298.146V12.9642H300.288V14.2062C300.66 13.7622 301.128 13.4262 301.692 13.1982C302.256 12.9702 302.892 12.8562 303.6 12.8562ZM316.246 22.0542C315.982 22.2702 315.658 22.4322 315.274 22.5402C314.902 22.6482 314.506 22.7022 314.086 22.7022C313.03 22.7022 312.214 22.4262 311.638 21.8742C311.062 21.3222 310.774 20.5182 310.774 19.4622V14.8362H309.19V13.0362H310.774V10.8402H313.024V13.0362H315.598V14.8362H313.024V19.4082C313.024 19.8762 313.138 20.2362 313.366 20.4882C313.594 20.7282 313.924 20.8482 314.356 20.8482C314.86 20.8482 315.28 20.7162 315.616 20.4522L316.246 22.0542ZM323.551 12.8562C324.763 12.8562 325.735 13.2102 326.467 13.9182C327.199 14.6262 327.565 15.6762 327.565 17.0682V22.5762H325.315V17.3562C325.315 16.5162 325.117 15.8862 324.721 15.4662C324.325 15.0342 323.761 14.8182 323.029 14.8182C322.201 14.8182 321.547 15.0702 321.067 15.5742C320.587 16.0662 320.347 16.7802 320.347 17.7162V22.5762H318.097V9.22017H320.347V14.0802C320.719 13.6842 321.175 13.3842 321.715 13.1802C322.267 12.9642 322.879 12.8562 323.551 12.8562ZM333.389 22.7022C332.609 22.7022 331.847 22.6002 331.103 22.3962C330.359 22.1922 329.765 21.9342 329.321 21.6222L330.185 19.9122C330.617 20.2002 331.133 20.4342 331.733 20.6142C332.345 20.7822 332.945 20.8662 333.533 20.8662C334.877 20.8662 335.549 20.5122 335.549 19.8042C335.549 19.4682 335.375 19.2342 335.027 19.1022C334.691 18.9702 334.145 18.8442 333.389 18.7242C332.597 18.6042 331.949 18.4662 331.445 18.3102C330.953 18.1542 330.521 17.8842 330.149 17.5002C329.789 17.1042 329.609 16.5582 329.609 15.8622C329.609 14.9502 329.987 14.2242 330.743 13.6842C331.511 13.1322 332.543 12.8562 333.839 12.8562C334.499 12.8562 335.159 12.9342 335.819 13.0902C336.479 13.2342 337.019 13.4322 337.439 13.6842L336.575 15.3942C335.759 14.9142 334.841 14.6742 333.821 14.6742C333.161 14.6742 332.657 14.7762 332.309 14.9802C331.973 15.1722 331.805 15.4302 331.805 15.7542C331.805 16.1142 331.985 16.3722 332.345 16.5282C332.717 16.6722 333.287 16.8102 334.055 16.9422C334.823 17.0622 335.453 17.2002 335.945 17.3562C336.437 17.5122 336.857 17.7762 337.205 18.1482C337.565 18.5202 337.745 19.0482 337.745 19.7322C337.745 20.6322 337.355 21.3522 336.575 21.8922C335.795 22.4322 334.733 22.7022 333.389 22.7022ZM344.612 11.1142H354.754V13.3142H344.612V11.1142ZM344.612 16.4382H354.754V18.6382H344.612V16.4382Z" fill="#2F2F2F"/>
<path d="M372.005 1.13983L418.851 1.01351L418.841 -0.986463L371.995 -0.860148L372.005 1.13983ZM422.872 5.00267L422.974 25.0026L424.974 24.9972L424.872 4.99728L422.872 5.00267ZM418.995 29.0133L372.149 29.1396L372.159 31.1396L419.005 31.0133L418.995 29.0133ZM368.128 25.1505L368.026 5.15056L366.026 5.15595L366.128 25.1559L368.128 25.1505ZM372.149 29.1396C369.94 29.1456 368.14 27.3596 368.128 25.1505L366.128 25.1559C366.146 28.4695 368.846 31.1486 372.159 31.1396L372.149 29.1396ZM422.974 25.0026C422.986 27.2117 421.204 29.0074 418.995 29.0133L419.005 31.0133C422.319 31.0044 424.991 28.3109 424.974 24.9972L422.974 25.0026ZM418.851 1.01351C421.06 1.00755 422.86 2.79356 422.872 5.00267L424.872 4.99728C424.854 1.68361 422.154 -0.995398 418.841 -0.986463L418.851 1.01351ZM371.995 -0.860148C368.681 -0.851213 366.009 1.84229 366.026 5.15595L368.026 5.15056C368.014 2.94145 369.796 1.14578 372.005 1.13983L371.995 -0.860148Z" fill="#2F2F2F"/>
<path d="M444.476 11.4642L439.976 21.8502C439.556 22.8942 439.046 23.6262 438.446 24.0462C437.846 24.4782 437.12 24.6942 436.268 24.6942C435.788 24.6942 435.314 24.6162 434.846 24.4602C434.378 24.3042 433.994 24.0882 433.694 23.8122L434.594 22.1562C434.81 22.3602 435.062 22.5222 435.35 22.6422C435.65 22.7622 435.95 22.8222 436.25 22.8222C436.646 22.8222 436.97 22.7202 437.222 22.5162C437.486 22.3122 437.726 21.9702 437.942 21.4902L438.104 21.1122L433.91 11.4642H436.25L439.274 18.5742L442.316 11.4642H444.476ZM454.655 16.3242C454.655 16.4802 454.643 16.7022 454.619 16.9902H447.077C447.209 17.6982 447.551 18.2622 448.103 18.6822C448.667 19.0902 449.363 19.2942 450.191 19.2942C451.247 19.2942 452.117 18.9462 452.801 18.2502L454.007 19.6362C453.575 20.1522 453.029 20.5422 452.369 20.8062C451.709 21.0702 450.965 21.2022 450.137 21.2022C449.081 21.2022 448.151 20.9922 447.347 20.5722C446.543 20.1522 445.919 19.5702 445.475 18.8262C445.043 18.0702 444.827 17.2182 444.827 16.2702C444.827 15.3342 445.037 14.4942 445.457 13.7502C445.889 12.9942 446.483 12.4062 447.239 11.9862C447.995 11.5662 448.847 11.3562 449.795 11.3562C450.731 11.3562 451.565 11.5662 452.297 11.9862C453.041 12.3942 453.617 12.9762 454.025 13.7322C454.445 14.4762 454.655 15.3402 454.655 16.3242ZM449.795 13.1562C449.075 13.1562 448.463 13.3722 447.959 13.8042C447.467 14.2242 447.167 14.7882 447.059 15.4962H452.513C452.417 14.8002 452.123 14.2362 451.631 13.8042C451.139 13.3722 450.527 13.1562 449.795 13.1562ZM460.224 11.3562C461.64 11.3562 462.72 11.6982 463.464 12.3822C464.22 13.0542 464.598 14.0742 464.598 15.4422V21.0762H462.474V19.9062C462.198 20.3262 461.802 20.6502 461.286 20.8782C460.782 21.0942 460.17 21.2022 459.45 21.2022C458.73 21.2022 458.1 21.0822 457.56 20.8422C457.02 20.5902 456.6 20.2482 456.3 19.8162C456.012 19.3722 455.868 18.8742 455.868 18.3222C455.868 17.4582 456.186 16.7682 456.822 16.2522C457.47 15.7242 458.484 15.4602 459.864 15.4602H462.348V15.3162C462.348 14.6442 462.144 14.1282 461.736 13.7682C461.34 13.4082 460.746 13.2282 459.954 13.2282C459.414 13.2282 458.88 13.3122 458.352 13.4802C457.836 13.6482 457.398 13.8822 457.038 14.1822L456.156 12.5442C456.66 12.1602 457.266 11.8662 457.974 11.6622C458.682 11.4582 459.432 11.3562 460.224 11.3562ZM459.918 19.5642C460.482 19.5642 460.98 19.4382 461.412 19.1862C461.856 18.9222 462.168 18.5502 462.348 18.0702V16.9542H460.026C458.73 16.9542 458.082 17.3802 458.082 18.2322C458.082 18.6402 458.244 18.9642 458.568 19.2042C458.892 19.4442 459.342 19.5642 459.918 19.5642ZM469.628 12.8682C470.276 11.8602 471.416 11.3562 473.048 11.3562V13.4982C472.856 13.4622 472.682 13.4442 472.526 13.4442C471.65 13.4442 470.966 13.7022 470.474 14.2182C469.982 14.7222 469.736 15.4542 469.736 16.4142V21.0762H467.486V11.4642H469.628V12.8682ZM477.962 21.2022C477.182 21.2022 476.42 21.1002 475.676 20.8962C474.932 20.6922 474.338 20.4342 473.894 20.1222L474.758 18.4122C475.19 18.7002 475.706 18.9342 476.306 19.1142C476.918 19.2822 477.518 19.3662 478.106 19.3662C479.45 19.3662 480.122 19.0122 480.122 18.3042C480.122 17.9682 479.948 17.7342 479.6 17.6022C479.264 17.4702 478.718 17.3442 477.962 17.2242C477.17 17.1042 476.522 16.9662 476.018 16.8102C475.526 16.6542 475.094 16.3842 474.722 16.0002C474.362 15.6042 474.182 15.0582 474.182 14.3622C474.182 13.4502 474.56 12.7242 475.316 12.1842C476.084 11.6322 477.116 11.3562 478.412 11.3562C479.072 11.3562 479.732 11.4342 480.392 11.5902C481.052 11.7342 481.592 11.9322 482.012 12.1842L481.148 13.8942C480.332 13.4142 479.414 13.1742 478.394 13.1742C477.734 13.1742 477.23 13.2762 476.882 13.4802C476.546 13.6722 476.378 13.9302 476.378 14.2542C476.378 14.6142 476.558 14.8722 476.918 15.0282C477.29 15.1722 477.86 15.3102 478.628 15.4422C479.396 15.5622 480.026 15.7002 480.518 15.8562C481.01 16.0122 481.43 16.2762 481.778 16.6482C482.138 17.0202 482.318 17.5482 482.318 18.2322C482.318 19.1322 481.928 19.8522 481.148 20.3922C480.368 20.9322 479.306 21.2022 477.962 21.2022Z" fill="#2F2F2F"/>
<path d="M498.005 1.13983L544.851 1.01351L544.841 -0.986463L497.995 -0.860148L498.005 1.13983ZM548.872 5.00267L548.974 25.0026L550.974 24.9972L550.872 4.99728L548.872 5.00267ZM544.995 29.0133L498.149 29.1396L498.159 31.1396L545.005 31.0133L544.995 29.0133ZM494.128 25.1505L494.026 5.15056L492.026 5.15595L492.128 25.1559L494.128 25.1505ZM498.149 29.1396C495.94 29.1456 494.14 27.3596 494.128 25.1505L492.128 25.1559C492.146 28.4695 494.846 31.1486 498.159 31.1396L498.149 29.1396ZM548.974 25.0026C548.986 27.2117 547.204 29.0074 544.995 29.0133L545.005 31.0133C548.319 31.0044 550.991 28.3109 550.974 24.9972L548.974 25.0026ZM544.851 1.01351C547.06 1.00755 548.86 2.79356 548.872 5.00267L550.872 4.99728C550.854 1.68361 548.154 -0.995398 544.841 -0.986463L544.851 1.01351ZM497.995 -0.860148C494.681 -0.851213 492.009 1.84229 492.026 5.15595L494.026 5.15056C494.014 2.94145 495.796 1.14578 498.005 1.13983L497.995 -0.860148Z" fill="#2F2F2F"/>
<path d="M573.608 11.3562C574.82 11.3562 575.78 11.7102 576.488 12.4182C577.196 13.1142 577.55 14.1642 577.55 15.5682V21.0762H575.3V15.8562C575.3 15.0162 575.114 14.3862 574.742 13.9662C574.37 13.5342 573.836 13.3182 573.14 13.3182C572.384 13.3182 571.778 13.5702 571.322 14.0742C570.866 14.5662 570.638 15.2742 570.638 16.1982V21.0762H568.388V15.8562C568.388 15.0162 568.202 14.3862 567.83 13.9662C567.458 13.5342 566.924 13.3182 566.228 13.3182C565.46 13.3182 564.848 13.5642 564.392 14.0562C563.948 14.5482 563.726 15.2622 563.726 16.1982V21.0762H561.476V11.4642H563.618V12.6882C563.978 12.2562 564.428 11.9262 564.968 11.6982C565.508 11.4702 566.108 11.3562 566.768 11.3562C567.488 11.3562 568.124 11.4942 568.676 11.7702C569.24 12.0342 569.684 12.4302 570.008 12.9582C570.404 12.4542 570.914 12.0642 571.538 11.7882C572.162 11.5002 572.852 11.3562 573.608 11.3562ZM584.833 21.2022C583.861 21.2022 582.985 20.9922 582.205 20.5722C581.425 20.1522 580.813 19.5702 580.369 18.8262C579.937 18.0702 579.721 17.2182 579.721 16.2702C579.721 15.3222 579.937 14.4762 580.369 13.7322C580.813 12.9882 581.425 12.4062 582.205 11.9862C582.985 11.5662 583.861 11.3562 584.833 11.3562C585.817 11.3562 586.699 11.5662 587.479 11.9862C588.259 12.4062 588.865 12.9882 589.297 13.7322C589.741 14.4762 589.963 15.3222 589.963 16.2702C589.963 17.2182 589.741 18.0702 589.297 18.8262C588.865 19.5702 588.259 20.1522 587.479 20.5722C586.699 20.9922 585.817 21.2022 584.833 21.2022ZM584.833 19.2762C585.661 19.2762 586.345 19.0002 586.885 18.4482C587.425 17.8962 587.695 17.1702 587.695 16.2702C587.695 15.3702 587.425 14.6442 586.885 14.0922C586.345 13.5402 585.661 13.2642 584.833 13.2642C584.005 13.2642 583.321 13.5402 582.781 14.0922C582.253 14.6442 581.989 15.3702 581.989 16.2702C581.989 17.1702 582.253 17.8962 582.781 18.4482C583.321 19.0002 584.005 19.2762 584.833 19.2762ZM597.569 11.3562C598.781 11.3562 599.753 11.7102 600.485 12.4182C601.217 13.1262 601.583 14.1762 601.583 15.5682V21.0762H599.333V15.8562C599.333 15.0162 599.135 14.3862 598.739 13.9662C598.343 13.5342 597.779 13.3182 597.047 13.3182C596.219 13.3182 595.565 13.5702 595.085 14.0742C594.605 14.5662 594.365 15.2802 594.365 16.2162V21.0762H592.115V11.4642H594.257V12.7062C594.629 12.2622 595.097 11.9262 595.661 11.6982C596.225 11.4702 596.861 11.3562 597.569 11.3562ZM610.215 20.5542C609.951 20.7702 609.627 20.9322 609.243 21.0402C608.871 21.1482 608.475 21.2022 608.055 21.2022C606.999 21.2022 606.183 20.9262 605.607 20.3742C605.031 19.8222 604.743 19.0182 604.743 17.9622V13.3362H603.159V11.5362H604.743V9.34017H606.993V11.5362H609.567V13.3362H606.993V17.9082C606.993 18.3762 607.107 18.7362 607.335 18.9882C607.563 19.2282 607.893 19.3482 608.325 19.3482C608.829 19.3482 609.249 19.2162 609.585 18.9522L610.215 20.5542ZM617.52 11.3562C618.732 11.3562 619.704 11.7102 620.436 12.4182C621.168 13.1262 621.534 14.1762 621.534 15.5682V21.0762H619.284V15.8562C619.284 15.0162 619.086 14.3862 618.69 13.9662C618.294 13.5342 617.73 13.3182 616.998 13.3182C616.17 13.3182 615.516 13.5702 615.036 14.0742C614.556 14.5662 614.316 15.2802 614.316 16.2162V21.0762H612.066V7.72017H614.316V12.5802C614.688 12.1842 615.144 11.8842 615.684 11.6802C616.236 11.4642 616.848 11.3562 617.52 11.3562ZM627.358 21.2022C626.578 21.2022 625.816 21.1002 625.072 20.8962C624.328 20.6922 623.734 20.4342 623.29 20.1222L624.154 18.4122C624.586 18.7002 625.102 18.9342 625.702 19.1142C626.314 19.2822 626.914 19.3662 627.502 19.3662C628.846 19.3662 629.518 19.0122 629.518 18.3042C629.518 17.9682 629.344 17.7342 628.996 17.6022C628.66 17.4702 628.114 17.3442 627.358 17.2242C626.566 17.1042 625.918 16.9662 625.414 16.8102C624.922 16.6542 624.49 16.3842 624.118 16.0002C623.758 15.6042 623.578 15.0582 623.578 14.3622C623.578 13.4502 623.956 12.7242 624.712 12.1842C625.48 11.6322 626.512 11.3562 627.808 11.3562C628.468 11.3562 629.128 11.4342 629.788 11.5902C630.448 11.7342 630.988 11.9322 631.408 12.1842L630.544 13.8942C629.728 13.4142 628.81 13.1742 627.79 13.1742C627.13 13.1742 626.626 13.2762 626.278 13.4802C625.942 13.6722 625.774 13.9302 625.774 14.2542C625.774 14.6142 625.954 14.8722 626.314 15.0282C626.686 15.1722 627.256 15.3102 628.024 15.4422C628.792 15.5622 629.422 15.7002 629.914 15.8562C630.406 16.0122 630.826 16.2762 631.174 16.6482C631.534 17.0202 631.714 17.5482 631.714 18.2322C631.714 19.1322 631.324 19.8522 630.544 20.3922C629.764 20.9322 628.702 21.2022 627.358 21.2022Z" fill="#2F2F2F"/>
<path d="M9.918 84.5962V86.5762H0.63V85.0102L5.634 80.2582C6.198 79.7182 6.576 79.2502 6.768 78.8542C6.972 78.4462 7.074 78.0442 7.074 77.6482C7.074 77.0602 6.876 76.6102 6.48 76.2982C6.084 75.9862 5.502 75.8302 4.734 75.8302C3.45 75.8302 2.466 76.2682 1.782 77.1442L0.144 75.8842C0.636 75.2242 1.296 74.7142 2.124 74.3542C2.964 73.9822 3.9 73.7962 4.932 73.7962C6.3 73.7962 7.392 74.1202 8.208 74.7682C9.024 75.4162 9.432 76.2982 9.432 77.4142C9.432 78.0982 9.288 78.7402 9 79.3402C8.712 79.9402 8.16 80.6242 7.344 81.3922L3.978 84.5962H9.918ZM25.9272 76.9642L21.4272 87.3502C21.0072 88.3942 20.4972 89.1262 19.8972 89.5462C19.2972 89.9782 18.5712 90.1942 17.7192 90.1942C17.2392 90.1942 16.7652 90.1162 16.2972 89.9602C15.8292 89.8042 15.4452 89.5882 15.1452 89.3122L16.0452 87.6562C16.2612 87.8602 16.5132 88.0222 16.8012 88.1422C17.1012 88.2622 17.4012 88.3222 17.7012 88.3222C18.0972 88.3222 18.4212 88.2202 18.6732 88.0162C18.9372 87.8122 19.1772 87.4702 19.3932 86.9902L19.5552 86.6122L15.3612 76.9642H17.7012L20.7252 84.0742L23.7672 76.9642H25.9272ZM36.1058 81.8242C36.1058 81.9802 36.0938 82.2022 36.0698 82.4902H28.5278C28.6598 83.1982 29.0018 83.7622 29.5538 84.1822C30.1178 84.5902 30.8138 84.7942 31.6418 84.7942C32.6978 84.7942 33.5678 84.4462 34.2518 83.7502L35.4578 85.1362C35.0258 85.6522 34.4798 86.0422 33.8198 86.3062C33.1598 86.5702 32.4158 86.7022 31.5878 86.7022C30.5318 86.7022 29.6018 86.4922 28.7978 86.0722C27.9938 85.6522 27.3698 85.0702 26.9258 84.3262C26.4938 83.5702 26.2778 82.7182 26.2778 81.7702C26.2778 80.8342 26.4878 79.9942 26.9078 79.2502C27.3398 78.4942 27.9338 77.9062 28.6898 77.4862C29.4458 77.0662 30.2978 76.8562 31.2458 76.8562C32.1818 76.8562 33.0158 77.0662 33.7478 77.4862C34.4918 77.8942 35.0678 78.4762 35.4758 79.2322C35.8958 79.9762 36.1058 80.8402 36.1058 81.8242ZM31.2458 78.6562C30.5258 78.6562 29.9138 78.8722 29.4098 79.3042C28.9178 79.7242 28.6178 80.2882 28.5098 80.9962H33.9638C33.8678 80.3002 33.5738 79.7362 33.0818 79.3042C32.5898 78.8722 31.9778 78.6562 31.2458 78.6562ZM41.6753 76.8562C43.0913 76.8562 44.1713 77.1982 44.9153 77.8822C45.6713 78.5542 46.0493 79.5742 46.0493 80.9422V86.5762H43.9253V85.4062C43.6493 85.8262 43.2533 86.1502 42.7373 86.3782C42.2333 86.5942 41.6213 86.7022 40.9013 86.7022C40.1813 86.7022 39.5513 86.5822 39.0113 86.3422C38.4713 86.0902 38.0513 85.7482 37.7513 85.3162C37.4633 84.8722 37.3193 84.3742 37.3193 83.8222C37.3193 82.9582 37.6373 82.2682 38.2733 81.7522C38.9213 81.2242 39.9353 80.9602 41.3153 80.9602H43.7993V80.8162C43.7993 80.1442 43.5953 79.6282 43.1873 79.2682C42.7913 78.9082 42.1973 78.7282 41.4053 78.7282C40.8653 78.7282 40.3313 78.8122 39.8033 78.9802C39.2873 79.1482 38.8493 79.3822 38.4893 79.6822L37.6073 78.0442C38.1113 77.6602 38.7173 77.3662 39.4253 77.1622C40.1333 76.9582 40.8833 76.8562 41.6753 76.8562ZM41.3693 85.0642C41.9333 85.0642 42.4313 84.9382 42.8633 84.6862C43.3073 84.4222 43.6193 84.0502 43.7993 83.5702V82.4542H41.4773C40.1813 82.4542 39.5333 82.8802 39.5333 83.7322C39.5333 84.1402 39.6953 84.4642 40.0193 84.7042C40.3433 84.9442 40.7933 85.0642 41.3693 85.0642ZM51.0789 78.3682C51.7269 77.3602 52.8669 76.8562 54.4989 76.8562V78.9982C54.3069 78.9622 54.1329 78.9442 53.9769 78.9442C53.1009 78.9442 52.4169 79.2022 51.9249 79.7182C51.4329 80.2222 51.1869 80.9542 51.1869 81.9142V86.5762H48.9369V76.9642H51.0789V78.3682ZM59.4128 86.7022C58.6328 86.7022 57.8708 86.6002 57.1268 86.3962C56.3828 86.1922 55.7888 85.9342 55.3448 85.6222L56.2088 83.9122C56.6408 84.2002 57.1568 84.4342 57.7568 84.6142C58.3688 84.7822 58.9688 84.8662 59.5568 84.8662C60.9008 84.8662 61.5728 84.5122 61.5728 83.8042C61.5728 83.4682 61.3988 83.2342 61.0508 83.1022C60.7148 82.9702 60.1688 82.8442 59.4128 82.7242C58.6208 82.6042 57.9728 82.4662 57.4688 82.3102C56.9768 82.1542 56.5448 81.8842 56.1728 81.5002C55.8128 81.1042 55.6328 80.5582 55.6328 79.8622C55.6328 78.9502 56.0108 78.2242 56.7668 77.6842C57.5348 77.1322 58.5668 76.8562 59.8628 76.8562C60.5228 76.8562 61.1828 76.9342 61.8428 77.0902C62.5028 77.2342 63.0428 77.4322 63.4628 77.6842L62.5988 79.3942C61.7828 78.9142 60.8648 78.6742 59.8448 78.6742C59.1848 78.6742 58.6808 78.7762 58.3328 78.9802C57.9968 79.1722 57.8288 79.4302 57.8288 79.7542C57.8288 80.1142 58.0088 80.3722 58.3688 80.5282C58.7408 80.6722 59.3108 80.8102 60.0788 80.9422C60.8468 81.0622 61.4768 81.2002 61.9688 81.3562C62.4608 81.5122 62.8808 81.7762 63.2288 82.1482C63.5888 82.5202 63.7688 83.0482 63.7688 83.7322C63.7688 84.6322 63.3788 85.3522 62.5988 85.8922C61.8188 86.4322 60.7568 86.7022 59.4128 86.7022ZM75.3611 79.1782C76.5251 79.3222 77.4131 79.7182 78.0251 80.3662C78.6371 81.0142 78.9431 81.8242 78.9431 82.7962C78.9431 83.5282 78.7571 84.1942 78.3851 84.7942C78.0131 85.3942 77.4491 85.8742 76.6931 86.2342C75.9491 86.5822 75.0371 86.7562 73.9571 86.7562C73.0571 86.7562 72.1871 86.6302 71.3471 86.3782C70.5191 86.1142 69.8111 85.7542 69.2231 85.2982L70.2311 83.4802C70.6871 83.8642 71.2391 84.1702 71.8871 84.3982C72.5471 84.6142 73.2251 84.7222 73.9211 84.7222C74.7491 84.7222 75.3971 84.5542 75.8651 84.2182C76.3451 83.8702 76.5851 83.4022 76.5851 82.8142C76.5851 82.2262 76.3571 81.7702 75.9011 81.4462C75.4571 81.1102 74.7731 80.9422 73.8491 80.9422H72.6971V79.3402L75.5591 75.9382H69.8351V73.9762H78.4211V75.5422L75.3611 79.1782ZM98.2643 76.8562C99.4763 76.8562 100.436 77.2102 101.144 77.9182C101.852 78.6142 102.206 79.6642 102.206 81.0682V86.5762H99.9563V81.3562C99.9563 80.5162 99.7703 79.8862 99.3983 79.4662C99.0263 79.0342 98.4923 78.8182 97.7963 78.8182C97.0403 78.8182 96.4343 79.0702 95.9783 79.5742C95.5223 80.0662 95.2943 80.7742 95.2943 81.6982V86.5762H93.0443V81.3562C93.0443 80.5162 92.8583 79.8862 92.4863 79.4662C92.1143 79.0342 91.5803 78.8182 90.8843 78.8182C90.1163 78.8182 89.5043 79.0642 89.0483 79.5562C88.6043 80.0482 88.3823 80.7622 88.3823 81.6982V86.5762H86.1323V76.9642H88.2743V78.1882C88.6343 77.7562 89.0843 77.4262 89.6243 77.1982C90.1643 76.9702 90.7643 76.8562 91.4243 76.8562C92.1443 76.8562 92.7803 76.9942 93.3323 77.2702C93.8963 77.5342 94.3403 77.9302 94.6643 78.4582C95.0603 77.9542 95.5703 77.5642 96.1943 77.2882C96.8183 77.0002 97.5083 76.8562 98.2643 76.8562ZM109.489 86.7022C108.517 86.7022 107.641 86.4922 106.861 86.0722C106.081 85.6522 105.469 85.0702 105.025 84.3262C104.593 83.5702 104.377 82.7182 104.377 81.7702C104.377 80.8222 104.593 79.9762 105.025 79.2322C105.469 78.4882 106.081 77.9062 106.861 77.4862C107.641 77.0662 108.517 76.8562 109.489 76.8562C110.473 76.8562 111.355 77.0662 112.135 77.4862C112.915 77.9062 113.521 78.4882 113.953 79.2322C114.397 79.9762 114.619 80.8222 114.619 81.7702C114.619 82.7182 114.397 83.5702 113.953 84.3262C113.521 85.0702 112.915 85.6522 112.135 86.0722C111.355 86.4922 110.473 86.7022 109.489 86.7022ZM109.489 84.7762C110.317 84.7762 111.001 84.5002 111.541 83.9482C112.081 83.3962 112.351 82.6702 112.351 81.7702C112.351 80.8702 112.081 80.1442 111.541 79.5922C111.001 79.0402 110.317 78.7642 109.489 78.7642C108.661 78.7642 107.977 79.0402 107.437 79.5922C106.909 80.1442 106.645 80.8702 106.645 81.7702C106.645 82.6702 106.909 83.3962 107.437 83.9482C107.977 84.5002 108.661 84.7762 109.489 84.7762ZM122.225 76.8562C123.437 76.8562 124.409 77.2102 125.141 77.9182C125.873 78.6262 126.239 79.6762 126.239 81.0682V86.5762H123.989V81.3562C123.989 80.5162 123.791 79.8862 123.395 79.4662C122.999 79.0342 122.435 78.8182 121.703 78.8182C120.875 78.8182 120.221 79.0702 119.741 79.5742C119.261 80.0662 119.021 80.7802 119.021 81.7162V86.5762H116.771V76.9642H118.913V78.2062C119.285 77.7622 119.753 77.4262 120.317 77.1982C120.881 76.9702 121.517 76.8562 122.225 76.8562ZM134.871 86.0542C134.607 86.2702 134.283 86.4322 133.899 86.5402C133.527 86.6482 133.131 86.7022 132.711 86.7022C131.655 86.7022 130.839 86.4262 130.263 85.8742C129.687 85.3222 129.399 84.5182 129.399 83.4622V78.8362H127.815V77.0362H129.399V74.8402H131.649V77.0362H134.223V78.8362H131.649V83.4082C131.649 83.8762 131.763 84.2362 131.991 84.4882C132.219 84.7282 132.549 84.8482 132.981 84.8482C133.485 84.8482 133.905 84.7162 134.241 84.4522L134.871 86.0542ZM142.176 76.8562C143.388 76.8562 144.36 77.2102 145.092 77.9182C145.824 78.6262 146.19 79.6762 146.19 81.0682V86.5762H143.94V81.3562C143.94 80.5162 143.742 79.8862 143.346 79.4662C142.95 79.0342 142.386 78.8182 141.654 78.8182C140.826 78.8182 140.172 79.0702 139.692 79.5742C139.212 80.0662 138.972 80.7802 138.972 81.7162V86.5762H136.722V73.2202H138.972V78.0802C139.344 77.6842 139.8 77.3842 140.34 77.1802C140.892 76.9642 141.504 76.8562 142.176 76.8562ZM152.014 86.7022C151.234 86.7022 150.472 86.6002 149.728 86.3962C148.984 86.1922 148.39 85.9342 147.946 85.6222L148.81 83.9122C149.242 84.2002 149.758 84.4342 150.358 84.6142C150.97 84.7822 151.57 84.8662 152.158 84.8662C153.502 84.8662 154.174 84.5122 154.174 83.8042C154.174 83.4682 154 83.2342 153.652 83.1022C153.316 82.9702 152.77 82.8442 152.014 82.7242C151.222 82.6042 150.574 82.4662 150.07 82.3102C149.578 82.1542 149.146 81.8842 148.774 81.5002C148.414 81.1042 148.234 80.5582 148.234 79.8622C148.234 78.9502 148.612 78.2242 149.368 77.6842C150.136 77.1322 151.168 76.8562 152.464 76.8562C153.124 76.8562 153.784 76.9342 154.444 77.0902C155.104 77.2342 155.644 77.4322 156.064 77.6842L155.2 79.3942C154.384 78.9142 153.466 78.6742 152.446 78.6742C151.786 78.6742 151.282 78.7762 150.934 78.9802C150.598 79.1722 150.43 79.4302 150.43 79.7542C150.43 80.1142 150.61 80.3722 150.97 80.5282C151.342 80.6722 151.912 80.8102 152.68 80.9422C153.448 81.0622 154.078 81.2002 154.57 81.3562C155.062 81.5122 155.482 81.7762 155.83 82.1482C156.19 82.5202 156.37 83.0482 156.37 83.7322C156.37 84.6322 155.98 85.3522 155.2 85.8922C154.42 86.4322 153.358 86.7022 152.014 86.7022ZM173.379 79.9762H169.485V83.8262H167.131V79.9762H163.237V77.7762H167.131V73.9262H169.485V77.7762H173.379V79.9762ZM184.906 73.9762V86.5762H182.566V75.9382H179.902V73.9762H184.906ZM202.064 76.9642L197.564 87.3502C197.144 88.3942 196.634 89.1262 196.034 89.5462C195.434 89.9782 194.708 90.1942 193.856 90.1942C193.376 90.1942 192.902 90.1162 192.434 89.9602C191.966 89.8042 191.582 89.5882 191.282 89.3122L192.182 87.6562C192.398 87.8602 192.65 88.0222 192.938 88.1422C193.238 88.2622 193.538 88.3222 193.838 88.3222C194.234 88.3222 194.558 88.2202 194.81 88.0162C195.074 87.8122 195.314 87.4702 195.53 86.9902L195.692 86.6122L191.498 76.9642H193.838L196.862 84.0742L199.904 76.9642H202.064ZM212.242 81.8242C212.242 81.9802 212.23 82.2022 212.206 82.4902H204.664C204.796 83.1982 205.138 83.7622 205.69 84.1822C206.254 84.5902 206.95 84.7942 207.778 84.7942C208.834 84.7942 209.704 84.4462 210.388 83.7502L211.594 85.1362C211.162 85.6522 210.616 86.0422 209.956 86.3062C209.296 86.5702 208.552 86.7022 207.724 86.7022C206.668 86.7022 205.738 86.4922 204.934 86.0722C204.13 85.6522 203.506 85.0702 203.062 84.3262C202.63 83.5702 202.414 82.7182 202.414 81.7702C202.414 80.8342 202.624 79.9942 203.044 79.2502C203.476 78.4942 204.07 77.9062 204.826 77.4862C205.582 77.0662 206.434 76.8562 207.382 76.8562C208.318 76.8562 209.152 77.0662 209.884 77.4862C210.628 77.8942 211.204 78.4762 211.612 79.2322C212.032 79.9762 212.242 80.8402 212.242 81.8242ZM207.382 78.6562C206.662 78.6562 206.05 78.8722 205.546 79.3042C205.054 79.7242 204.754 80.2882 204.646 80.9962H210.1C210.004 80.3002 209.71 79.7362 209.218 79.3042C208.726 78.8722 208.114 78.6562 207.382 78.6562ZM217.812 76.8562C219.228 76.8562 220.308 77.1982 221.052 77.8822C221.808 78.5542 222.186 79.5742 222.186 80.9422V86.5762H220.062V85.4062C219.786 85.8262 219.39 86.1502 218.874 86.3782C218.37 86.5942 217.758 86.7022 217.038 86.7022C216.318 86.7022 215.688 86.5822 215.148 86.3422C214.608 86.0902 214.188 85.7482 213.888 85.3162C213.6 84.8722 213.456 84.3742 213.456 83.8222C213.456 82.9582 213.774 82.2682 214.41 81.7522C215.058 81.2242 216.072 80.9602 217.452 80.9602H219.936V80.8162C219.936 80.1442 219.732 79.6282 219.324 79.2682C218.928 78.9082 218.334 78.7282 217.542 78.7282C217.002 78.7282 216.468 78.8122 215.94 78.9802C215.424 79.1482 214.986 79.3822 214.626 79.6822L213.744 78.0442C214.248 77.6602 214.854 77.3662 215.562 77.1622C216.27 76.9582 217.02 76.8562 217.812 76.8562ZM217.506 85.0642C218.07 85.0642 218.568 84.9382 219 84.6862C219.444 84.4222 219.756 84.0502 219.936 83.5702V82.4542H217.614C216.318 82.4542 215.67 82.8802 215.67 83.7322C215.67 84.1402 215.832 84.4642 216.156 84.7042C216.48 84.9442 216.93 85.0642 217.506 85.0642ZM227.216 78.3682C227.864 77.3602 229.004 76.8562 230.636 76.8562V78.9982C230.444 78.9622 230.27 78.9442 230.114 78.9442C229.238 78.9442 228.554 79.2022 228.062 79.7182C227.57 80.2222 227.324 80.9542 227.324 81.9142V86.5762H225.074V76.9642H227.216V78.3682ZM235.55 86.7022C234.77 86.7022 234.008 86.6002 233.264 86.3962C232.52 86.1922 231.926 85.9342 231.482 85.6222L232.346 83.9122C232.778 84.2002 233.294 84.4342 233.894 84.6142C234.506 84.7822 235.106 84.8662 235.694 84.8662C237.038 84.8662 237.71 84.5122 237.71 83.8042C237.71 83.4682 237.536 83.2342 237.188 83.1022C236.852 82.9702 236.306 82.8442 235.55 82.7242C234.758 82.6042 234.11 82.4662 233.606 82.3102C233.114 82.1542 232.682 81.8842 232.31 81.5002C231.95 81.1042 231.77 80.5582 231.77 79.8622C231.77 78.9502 232.148 78.2242 232.904 77.6842C233.672 77.1322 234.704 76.8562 236 76.8562C236.66 76.8562 237.32 76.9342 237.98 77.0902C238.64 77.2342 239.18 77.4322 239.6 77.6842L238.736 79.3942C237.92 78.9142 237.002 78.6742 235.982 78.6742C235.322 78.6742 234.818 78.7762 234.47 78.9802C234.134 79.1722 233.966 79.4302 233.966 79.7542C233.966 80.1142 234.146 80.3722 234.506 80.5282C234.878 80.6722 235.448 80.8102 236.216 80.9422C236.984 81.0622 237.614 81.2002 238.106 81.3562C238.598 81.5122 239.018 81.7762 239.366 82.1482C239.726 82.5202 239.906 83.0482 239.906 83.7322C239.906 84.6322 239.516 85.3522 238.736 85.8922C237.956 86.4322 236.894 86.7022 235.55 86.7022ZM257.366 83.7142H255.134V86.5762H252.866V83.7142H245.954V82.0942L252.164 73.9762H254.666L248.816 81.7342H252.938V79.1962H255.134V81.7342H257.366V83.7142ZM276.141 76.8562C277.353 76.8562 278.313 77.2102 279.021 77.9182C279.729 78.6142 280.083 79.6642 280.083 81.0682V86.5762H277.833V81.3562C277.833 80.5162 277.647 79.8862 277.275 79.4662C276.903 79.0342 276.369 78.8182 275.673 78.8182C274.917 78.8182 274.311 79.0702 273.855 79.5742C273.399 80.0662 273.171 80.7742 273.171 81.6982V86.5762H270.921V81.3562C270.921 80.5162 270.735 79.8862 270.363 79.4662C269.991 79.0342 269.457 78.8182 268.761 78.8182C267.993 78.8182 267.381 79.0642 266.925 79.5562C266.481 80.0482 266.259 80.7622 266.259 81.6982V86.5762H264.009V76.9642H266.151V78.1882C266.511 77.7562 266.961 77.4262 267.501 77.1982C268.041 76.9702 268.641 76.8562 269.301 76.8562C270.021 76.8562 270.657 76.9942 271.209 77.2702C271.773 77.5342 272.217 77.9302 272.541 78.4582C272.937 77.9542 273.447 77.5642 274.071 77.2882C274.695 77.0002 275.385 76.8562 276.141 76.8562ZM287.366 86.7022C286.394 86.7022 285.518 86.4922 284.738 86.0722C283.958 85.6522 283.346 85.0702 282.902 84.3262C282.47 83.5702 282.254 82.7182 282.254 81.7702C282.254 80.8222 282.47 79.9762 282.902 79.2322C283.346 78.4882 283.958 77.9062 284.738 77.4862C285.518 77.0662 286.394 76.8562 287.366 76.8562C288.35 76.8562 289.232 77.0662 290.012 77.4862C290.792 77.9062 291.398 78.4882 291.83 79.2322C292.274 79.9762 292.496 80.8222 292.496 81.7702C292.496 82.7182 292.274 83.5702 291.83 84.3262C291.398 85.0702 290.792 85.6522 290.012 86.0722C289.232 86.4922 288.35 86.7022 287.366 86.7022ZM287.366 84.7762C288.194 84.7762 288.878 84.5002 289.418 83.9482C289.958 83.3962 290.228 82.6702 290.228 81.7702C290.228 80.8702 289.958 80.1442 289.418 79.5922C288.878 79.0402 288.194 78.7642 287.366 78.7642C286.538 78.7642 285.854 79.0402 285.314 79.5922C284.786 80.1442 284.522 80.8702 284.522 81.7702C284.522 82.6702 284.786 83.3962 285.314 83.9482C285.854 84.5002 286.538 84.7762 287.366 84.7762ZM300.102 76.8562C301.314 76.8562 302.286 77.2102 303.018 77.9182C303.75 78.6262 304.116 79.6762 304.116 81.0682V86.5762H301.866V81.3562C301.866 80.5162 301.668 79.8862 301.272 79.4662C300.876 79.0342 300.312 78.8182 299.58 78.8182C298.752 78.8182 298.098 79.0702 297.618 79.5742C297.138 80.0662 296.898 80.7802 296.898 81.7162V86.5762H294.648V76.9642H296.79V78.2062C297.162 77.7622 297.63 77.4262 298.194 77.1982C298.758 76.9702 299.394 76.8562 300.102 76.8562ZM312.748 86.0542C312.484 86.2702 312.16 86.4322 311.776 86.5402C311.404 86.6482 311.008 86.7022 310.588 86.7022C309.532 86.7022 308.716 86.4262 308.14 85.8742C307.564 85.3222 307.276 84.5182 307.276 83.4622V78.8362H305.692V77.0362H307.276V74.8402H309.526V77.0362H312.1V78.8362H309.526V83.4082C309.526 83.8762 309.64 84.2362 309.868 84.4882C310.096 84.7282 310.426 84.8482 310.858 84.8482C311.362 84.8482 311.782 84.7162 312.118 84.4522L312.748 86.0542ZM320.053 76.8562C321.265 76.8562 322.237 77.2102 322.969 77.9182C323.701 78.6262 324.067 79.6762 324.067 81.0682V86.5762H321.817V81.3562C321.817 80.5162 321.619 79.8862 321.223 79.4662C320.827 79.0342 320.263 78.8182 319.531 78.8182C318.703 78.8182 318.049 79.0702 317.569 79.5742C317.089 80.0662 316.849 80.7802 316.849 81.7162V86.5762H314.599V73.2202H316.849V78.0802C317.221 77.6842 317.677 77.3842 318.217 77.1802C318.769 76.9642 319.381 76.8562 320.053 76.8562ZM329.891 86.7022C329.111 86.7022 328.349 86.6002 327.605 86.3962C326.861 86.1922 326.267 85.9342 325.823 85.6222L326.687 83.9122C327.119 84.2002 327.635 84.4342 328.235 84.6142C328.847 84.7822 329.447 84.8662 330.035 84.8662C331.379 84.8662 332.051 84.5122 332.051 83.8042C332.051 83.4682 331.877 83.2342 331.529 83.1022C331.193 82.9702 330.647 82.8442 329.891 82.7242C329.099 82.6042 328.451 82.4662 327.947 82.3102C327.455 82.1542 327.023 81.8842 326.651 81.5002C326.291 81.1042 326.111 80.5582 326.111 79.8622C326.111 78.9502 326.489 78.2242 327.245 77.6842C328.013 77.1322 329.045 76.8562 330.341 76.8562C331.001 76.8562 331.661 76.9342 332.321 77.0902C332.981 77.2342 333.521 77.4322 333.941 77.6842L333.077 79.3942C332.261 78.9142 331.343 78.6742 330.323 78.6742C329.663 78.6742 329.159 78.7762 328.811 78.9802C328.475 79.1722 328.307 79.4302 328.307 79.7542C328.307 80.1142 328.487 80.3722 328.847 80.5282C329.219 80.6722 329.789 80.8102 330.557 80.9422C331.325 81.0622 331.955 81.2002 332.447 81.3562C332.939 81.5122 333.359 81.7762 333.707 82.1482C334.067 82.5202 334.247 83.0482 334.247 83.7322C334.247 84.6322 333.857 85.3522 333.077 85.8922C332.297 86.4322 331.235 86.7022 329.891 86.7022ZM341.114 75.1142H351.256V77.3142H341.114V75.1142ZM341.114 80.4382H351.256V82.6382H341.114V80.4382Z" fill="#2F2F2F"/>
<path d="M368.005 65.1398L414.851 65.0135L414.841 63.0135L367.995 63.1399L368.005 65.1398ZM418.872 69.0027L418.974 89.0026L420.974 88.9972L420.872 68.9973L418.872 69.0027ZM414.995 93.0133L368.149 93.1396L368.159 95.1396L415.005 95.0133L414.995 93.0133ZM364.128 89.1505L364.026 69.1506L362.026 69.156L362.128 89.1559L364.128 89.1505ZM368.149 93.1396C365.94 93.1456 364.14 91.3596 364.128 89.1505L362.128 89.1559C362.146 92.4695 364.846 95.1486 368.159 95.1396L368.149 93.1396ZM418.974 89.0026C418.986 91.2117 417.204 93.0074 414.995 93.0133L415.005 95.0133C418.319 95.0044 420.991 92.3109 420.974 88.9972L418.974 89.0026ZM414.851 65.0135C417.06 65.0076 418.86 66.7936 418.872 69.0027L420.872 68.9973C420.854 65.6836 418.154 63.0046 414.841 63.0135L414.851 65.0135ZM367.995 63.1399C364.681 63.1488 362.009 65.8423 362.026 69.156L364.026 69.1506C364.014 66.9414 365.796 65.1458 368.005 65.1398L367.995 63.1399Z" fill="#2F2F2F"/>
<path d="M440.476 75.4642L435.976 85.8502C435.556 86.8942 435.046 87.6262 434.446 88.0462C433.846 88.4782 433.12 88.6942 432.268 88.6942C431.788 88.6942 431.314 88.6162 430.846 88.4602C430.378 88.3042 429.994 88.0882 429.694 87.8122L430.594 86.1562C430.81 86.3602 431.062 86.5222 431.35 86.6422C431.65 86.7622 431.95 86.8222 432.25 86.8222C432.646 86.8222 432.97 86.7202 433.222 86.5162C433.486 86.3122 433.726 85.9702 433.942 85.4902L434.104 85.1122L429.91 75.4642H432.25L435.274 82.5742L438.316 75.4642H440.476ZM450.655 80.3242C450.655 80.4802 450.643 80.7022 450.619 80.9902H443.077C443.209 81.6982 443.551 82.2622 444.103 82.6822C444.667 83.0902 445.363 83.2942 446.191 83.2942C447.247 83.2942 448.117 82.9462 448.801 82.2502L450.007 83.6362C449.575 84.1522 449.029 84.5422 448.369 84.8062C447.709 85.0702 446.965 85.2022 446.137 85.2022C445.081 85.2022 444.151 84.9922 443.347 84.5722C442.543 84.1522 441.919 83.5702 441.475 82.8262C441.043 82.0702 440.827 81.2182 440.827 80.2702C440.827 79.3342 441.037 78.4942 441.457 77.7502C441.889 76.9942 442.483 76.4062 443.239 75.9862C443.995 75.5662 444.847 75.3562 445.795 75.3562C446.731 75.3562 447.565 75.5662 448.297 75.9862C449.041 76.3942 449.617 76.9762 450.025 77.7322C450.445 78.4762 450.655 79.3402 450.655 80.3242ZM445.795 77.1562C445.075 77.1562 444.463 77.3722 443.959 77.8042C443.467 78.2242 443.167 78.7882 443.059 79.4962H448.513C448.417 78.8002 448.123 78.2362 447.631 77.8042C447.139 77.3722 446.527 77.1562 445.795 77.1562ZM456.224 75.3562C457.64 75.3562 458.72 75.6982 459.464 76.3822C460.22 77.0542 460.598 78.0742 460.598 79.4422V85.0762H458.474V83.9062C458.198 84.3262 457.802 84.6502 457.286 84.8782C456.782 85.0942 456.17 85.2022 455.45 85.2022C454.73 85.2022 454.1 85.0822 453.56 84.8422C453.02 84.5902 452.6 84.2482 452.3 83.8162C452.012 83.3722 451.868 82.8742 451.868 82.3222C451.868 81.4582 452.186 80.7682 452.822 80.2522C453.47 79.7242 454.484 79.4602 455.864 79.4602H458.348V79.3162C458.348 78.6442 458.144 78.1282 457.736 77.7682C457.34 77.4082 456.746 77.2282 455.954 77.2282C455.414 77.2282 454.88 77.3122 454.352 77.4802C453.836 77.6482 453.398 77.8822 453.038 78.1822L452.156 76.5442C452.66 76.1602 453.266 75.8662 453.974 75.6622C454.682 75.4582 455.432 75.3562 456.224 75.3562ZM455.918 83.5642C456.482 83.5642 456.98 83.4382 457.412 83.1862C457.856 82.9222 458.168 82.5502 458.348 82.0702V80.9542H456.026C454.73 80.9542 454.082 81.3802 454.082 82.2322C454.082 82.6402 454.244 82.9642 454.568 83.2042C454.892 83.4442 455.342 83.5642 455.918 83.5642ZM465.628 76.8682C466.276 75.8602 467.416 75.3562 469.048 75.3562V77.4982C468.856 77.4622 468.682 77.4442 468.526 77.4442C467.65 77.4442 466.966 77.7022 466.474 78.2182C465.982 78.7222 465.736 79.4542 465.736 80.4142V85.0762H463.486V75.4642H465.628V76.8682ZM473.962 85.2022C473.182 85.2022 472.42 85.1002 471.676 84.8962C470.932 84.6922 470.338 84.4342 469.894 84.1222L470.758 82.4122C471.19 82.7002 471.706 82.9342 472.306 83.1142C472.918 83.2822 473.518 83.3662 474.106 83.3662C475.45 83.3662 476.122 83.0122 476.122 82.3042C476.122 81.9682 475.948 81.7342 475.6 81.6022C475.264 81.4702 474.718 81.3442 473.962 81.2242C473.17 81.1042 472.522 80.9662 472.018 80.8102C471.526 80.6542 471.094 80.3842 470.722 80.0002C470.362 79.6042 470.182 79.0582 470.182 78.3622C470.182 77.4502 470.56 76.7242 471.316 76.1842C472.084 75.6322 473.116 75.3562 474.412 75.3562C475.072 75.3562 475.732 75.4342 476.392 75.5902C477.052 75.7342 477.592 75.9322 478.012 76.1842L477.148 77.8942C476.332 77.4142 475.414 77.1742 474.394 77.1742C473.734 77.1742 473.23 77.2762 472.882 77.4802C472.546 77.6722 472.378 77.9302 472.378 78.2542C472.378 78.6142 472.558 78.8722 472.918 79.0282C473.29 79.1722 473.86 79.3102 474.628 79.4422C475.396 79.5622 476.026 79.7002 476.518 79.8562C477.01 80.0122 477.43 80.2762 477.778 80.6482C478.138 81.0202 478.318 81.5482 478.318 82.2322C478.318 83.1322 477.928 83.8522 477.148 84.3922C476.368 84.9322 475.306 85.2022 473.962 85.2022Z" fill="#2F2F2F"/>
<path d="M494.005 65.1398L540.851 65.0135L540.841 63.0135L493.995 63.1399L494.005 65.1398ZM544.872 69.0027L544.974 89.0026L546.974 88.9972L546.872 68.9973L544.872 69.0027ZM540.995 93.0133L494.149 93.1396L494.159 95.1396L541.005 95.0133L540.995 93.0133ZM490.128 89.1505L490.026 69.1506L488.026 69.156L488.128 89.1559L490.128 89.1505ZM494.149 93.1396C491.94 93.1456 490.14 91.3596 490.128 89.1505L488.128 89.1559C488.146 92.4695 490.846 95.1486 494.159 95.1396L494.149 93.1396ZM544.974 89.0026C544.986 91.2117 543.204 93.0074 540.995 93.0133L541.005 95.0133C544.319 95.0044 546.991 92.3109 546.974 88.9972L544.974 89.0026ZM540.851 65.0135C543.06 65.0076 544.86 66.7936 544.872 69.0027L546.872 68.9973C546.854 65.6836 544.154 63.0046 540.841 63.0135L540.851 65.0135ZM493.995 63.1399C490.681 63.1488 488.009 65.8423 488.026 69.156L490.026 69.1506C490.014 66.9414 491.796 65.1458 494.005 65.1398L493.995 63.1399Z" fill="#2F2F2F"/>
<path d="M569.608 75.3562C570.82 75.3562 571.78 75.7102 572.488 76.4182C573.196 77.1142 573.55 78.1642 573.55 79.5682V85.0762H571.3V79.8562C571.3 79.0162 571.114 78.3862 570.742 77.9662C570.37 77.5342 569.836 77.3182 569.14 77.3182C568.384 77.3182 567.778 77.5702 567.322 78.0742C566.866 78.5662 566.638 79.2742 566.638 80.1982V85.0762H564.388V79.8562C564.388 79.0162 564.202 78.3862 563.83 77.9662C563.458 77.5342 562.924 77.3182 562.228 77.3182C561.46 77.3182 560.848 77.5642 560.392 78.0562C559.948 78.5482 559.726 79.2622 559.726 80.1982V85.0762H557.476V75.4642H559.618V76.6882C559.978 76.2562 560.428 75.9262 560.968 75.6982C561.508 75.4702 562.108 75.3562 562.768 75.3562C563.488 75.3562 564.124 75.4942 564.676 75.7702C565.24 76.0342 565.684 76.4302 566.008 76.9582C566.404 76.4542 566.914 76.0642 567.538 75.7882C568.162 75.5002 568.852 75.3562 569.608 75.3562ZM580.833 85.2022C579.861 85.2022 578.985 84.9922 578.205 84.5722C577.425 84.1522 576.813 83.5702 576.369 82.8262C575.937 82.0702 575.721 81.2182 575.721 80.2702C575.721 79.3222 575.937 78.4762 576.369 77.7322C576.813 76.9882 577.425 76.4062 578.205 75.9862C578.985 75.5662 579.861 75.3562 580.833 75.3562C581.817 75.3562 582.699 75.5662 583.479 75.9862C584.259 76.4062 584.865 76.9882 585.297 77.7322C585.741 78.4762 585.963 79.3222 585.963 80.2702C585.963 81.2182 585.741 82.0702 585.297 82.8262C584.865 83.5702 584.259 84.1522 583.479 84.5722C582.699 84.9922 581.817 85.2022 580.833 85.2022ZM580.833 83.2762C581.661 83.2762 582.345 83.0002 582.885 82.4482C583.425 81.8962 583.695 81.1702 583.695 80.2702C583.695 79.3702 583.425 78.6442 582.885 78.0922C582.345 77.5402 581.661 77.2642 580.833 77.2642C580.005 77.2642 579.321 77.5402 578.781 78.0922C578.253 78.6442 577.989 79.3702 577.989 80.2702C577.989 81.1702 578.253 81.8962 578.781 82.4482C579.321 83.0002 580.005 83.2762 580.833 83.2762ZM593.569 75.3562C594.781 75.3562 595.753 75.7102 596.485 76.4182C597.217 77.1262 597.583 78.1762 597.583 79.5682V85.0762H595.333V79.8562C595.333 79.0162 595.135 78.3862 594.739 77.9662C594.343 77.5342 593.779 77.3182 593.047 77.3182C592.219 77.3182 591.565 77.5702 591.085 78.0742C590.605 78.5662 590.365 79.2802 590.365 80.2162V85.0762H588.115V75.4642H590.257V76.7062C590.629 76.2622 591.097 75.9262 591.661 75.6982C592.225 75.4702 592.861 75.3562 593.569 75.3562ZM606.215 84.5542C605.951 84.7702 605.627 84.9322 605.243 85.0402C604.871 85.1482 604.475 85.2022 604.055 85.2022C602.999 85.2022 602.183 84.9262 601.607 84.3742C601.031 83.8222 600.743 83.0182 600.743 81.9622V77.3362H599.159V75.5362H600.743V73.3402H602.993V75.5362H605.567V77.3362H602.993V81.9082C602.993 82.3762 603.107 82.7362 603.335 82.9882C603.563 83.2282 603.893 83.3482 604.325 83.3482C604.829 83.3482 605.249 83.2162 605.585 82.9522L606.215 84.5542ZM613.52 75.3562C614.732 75.3562 615.704 75.7102 616.436 76.4182C617.168 77.1262 617.534 78.1762 617.534 79.5682V85.0762H615.284V79.8562C615.284 79.0162 615.086 78.3862 614.69 77.9662C614.294 77.5342 613.73 77.3182 612.998 77.3182C612.17 77.3182 611.516 77.5702 611.036 78.0742C610.556 78.5662 610.316 79.2802 610.316 80.2162V85.0762H608.066V71.7202H610.316V76.5802C610.688 76.1842 611.144 75.8842 611.684 75.6802C612.236 75.4642 612.848 75.3562 613.52 75.3562ZM623.358 85.2022C622.578 85.2022 621.816 85.1002 621.072 84.8962C620.328 84.6922 619.734 84.4342 619.29 84.1222L620.154 82.4122C620.586 82.7002 621.102 82.9342 621.702 83.1142C622.314 83.2822 622.914 83.3662 623.502 83.3662C624.846 83.3662 625.518 83.0122 625.518 82.3042C625.518 81.9682 625.344 81.7342 624.996 81.6022C624.66 81.4702 624.114 81.3442 623.358 81.2242C622.566 81.1042 621.918 80.9662 621.414 80.8102C620.922 80.6542 620.49 80.3842 620.118 80.0002C619.758 79.6042 619.578 79.0582 619.578 78.3622C619.578 77.4502 619.956 76.7242 620.712 76.1842C621.48 75.6322 622.512 75.3562 623.808 75.3562C624.468 75.3562 625.128 75.4342 625.788 75.5902C626.448 75.7342 626.988 75.9322 627.408 76.1842L626.544 77.8942C625.728 77.4142 624.81 77.1742 623.79 77.1742C623.13 77.1742 622.626 77.2762 622.278 77.4802C621.942 77.6722 621.774 77.9302 621.774 78.2542C621.774 78.6142 621.954 78.8722 622.314 79.0282C622.686 79.1722 623.256 79.3102 624.024 79.4422C624.792 79.5622 625.422 79.7002 625.914 79.8562C626.406 80.0122 626.826 80.2762 627.174 80.6482C627.534 81.0202 627.714 81.5482 627.714 82.2322C627.714 83.1322 627.324 83.8522 626.544 84.3922C625.764 84.9322 624.702 85.2022 623.358 85.2022Z" fill="#2F2F2F"/>
<path d="M400.286 10.4V11.624L395.192 23H393.284L398.27 11.966H392.51V14.216H390.782V10.4H400.286Z" fill="#2F2F2F"/>
<path d="M522.191 15.35C523.019 15.35 523.757 15.506 524.405 15.818C525.065 16.13 525.581 16.58 525.953 17.168C526.325 17.744 526.511 18.41 526.511 19.166C526.511 19.958 526.313 20.654 525.917 21.254C525.533 21.854 524.999 22.322 524.315 22.658C523.643 22.982 522.887 23.144 522.047 23.144C520.355 23.144 519.047 22.598 518.123 21.506C517.211 20.414 516.755 18.866 516.755 16.862C516.755 15.458 517.001 14.264 517.493 13.28C517.997 12.284 518.693 11.534 519.581 11.03C520.481 10.514 521.525 10.256 522.713 10.256C523.325 10.256 523.901 10.322 524.441 10.454C524.981 10.574 525.449 10.754 525.845 10.994L525.161 12.398C524.561 12.002 523.757 11.804 522.749 11.804C521.441 11.804 520.415 12.212 519.671 13.028C518.927 13.832 518.555 15.008 518.555 16.556C518.555 16.748 518.561 16.898 518.573 17.006C518.933 16.466 519.425 16.058 520.049 15.782C520.685 15.494 521.399 15.35 522.191 15.35ZM521.975 21.686C522.803 21.686 523.475 21.464 523.991 21.02C524.507 20.576 524.765 19.982 524.765 19.238C524.765 18.494 524.501 17.906 523.973 17.474C523.457 17.03 522.761 16.808 521.885 16.808C521.321 16.808 520.817 16.916 520.373 17.132C519.941 17.348 519.599 17.642 519.347 18.014C519.107 18.386 518.987 18.8 518.987 19.256C518.987 19.7 519.101 20.108 519.329 20.48C519.569 20.84 519.911 21.134 520.355 21.362C520.811 21.578 521.351 21.686 521.975 21.686Z" fill="#2F2F2F"/>
<path d="M394.387 77.692C395.623 77.812 396.565 78.196 397.213 78.844C397.861 79.48 398.185 80.296 398.185 81.292C398.185 82.012 398.005 82.666 397.645 83.254C397.285 83.83 396.745 84.292 396.025 84.64C395.317 84.976 394.447 85.144 393.415 85.144C392.515 85.144 391.651 85.012 390.823 84.748C389.995 84.472 389.317 84.094 388.789 83.614L389.617 82.192C390.049 82.6 390.601 82.93 391.273 83.182C391.945 83.422 392.659 83.542 393.415 83.542C394.351 83.542 395.077 83.344 395.593 82.948C396.121 82.552 396.385 82.006 396.385 81.31C396.385 80.614 396.127 80.074 395.611 79.69C395.095 79.306 394.315 79.114 393.271 79.114H392.263V77.854L395.431 73.966H389.365V72.4H397.681V73.624L394.387 77.692Z" fill="#2F2F2F"/>
<path d="M525.286 74.4V75.624L520.192 87H518.284L523.27 75.966H517.51V78.216H515.782V74.4H525.286Z" fill="#2F2F2F"/>
</svg>
