<svg width="71" height="24" viewBox="0 0 71 24" fill="none" xmlns="http://www.w3.org/2000/svg">
<path d="M38.0344 11.72C38.8077 11.9733 39.421 12.4 39.8744 13C40.3277 13.5867 40.5544 14.32 40.5544 15.2C40.5544 16.4133 40.0877 17.3533 39.1544 18.02C38.221 18.6733 36.861 19 35.0744 19H28.1144V5H34.6744C36.3277 5 37.601 5.32667 38.4944 5.98C39.3877 6.62 39.8344 7.50667 39.8344 8.64C39.8344 9.33333 39.6744 9.94667 39.3544 10.48C39.0344 11.0133 38.5944 11.4267 38.0344 11.72ZM30.7144 7.04V10.9H34.3944C35.301 10.9 35.9944 10.74 36.4744 10.42C36.9677 10.0867 37.2144 9.60667 37.2144 8.98C37.2144 8.34 36.9677 7.86 36.4744 7.54C35.9944 7.20667 35.301 7.04 34.3944 7.04H30.7144ZM34.9144 16.96C36.9277 16.96 37.9344 16.2867 37.9344 14.94C37.9344 13.5933 36.9277 12.92 34.9144 12.92H30.7144V16.96H34.9144ZM52.4092 15.76H45.4092L44.0292 19H41.3492L47.6492 5H50.2092L56.5292 19H53.8092L52.4092 15.76ZM51.5492 13.72L48.9092 7.6L46.2892 13.72H51.5492ZM64.5944 19.2C63.181 19.2 61.901 18.8933 60.7544 18.28C59.621 17.6533 58.7277 16.7933 58.0744 15.7C57.4344 14.6067 57.1144 13.3733 57.1144 12C57.1144 10.6267 57.441 9.39333 58.0944 8.3C58.7477 7.20667 59.641 6.35333 60.7744 5.74C61.921 5.11333 63.201 4.8 64.6144 4.8C65.761 4.8 66.8077 5 67.7544 5.4C68.701 5.8 69.501 6.38 70.1544 7.14L68.4744 8.72C67.461 7.62667 66.2144 7.08 64.7344 7.08C63.7744 7.08 62.9144 7.29333 62.1544 7.72C61.3944 8.13333 60.801 8.71333 60.3744 9.46C59.9477 10.2067 59.7344 11.0533 59.7344 12C59.7344 12.9467 59.9477 13.7933 60.3744 14.54C60.801 15.2867 61.3944 15.8733 62.1544 16.3C62.9144 16.7133 63.7744 16.92 64.7344 16.92C66.2144 16.92 67.461 16.3667 68.4744 15.26L70.1544 16.86C69.501 17.62 68.6944 18.2 67.7344 18.6C66.7877 19 65.741 19.2 64.5944 19.2Z" fill="#2F2F2F"/>
<path d="M16.2875 4L3 19H20" stroke="#2F2F2F" stroke-width="2"/>
</svg>
