<svg width="71" height="24" viewBox="0 0 71 24" fill="none" xmlns="http://www.w3.org/2000/svg">
<path d="M37.0967 15.76H30.0967L28.7167 19H26.0367L32.3367 5H34.8967L41.2167 19H38.4967L37.0967 15.76ZM36.2367 13.72L33.5967 7.6L30.9767 13.72H36.2367ZM52.9172 11.72C53.6905 11.9733 54.3039 12.4 54.7572 13C55.2105 13.5867 55.4372 14.32 55.4372 15.2C55.4372 16.4133 54.9705 17.3533 54.0372 18.02C53.1039 18.6733 51.7439 19 49.9572 19H42.9972V5H49.5572C51.2105 5 52.4839 5.32667 53.3772 5.98C54.2705 6.62 54.7172 7.50667 54.7172 8.64C54.7172 9.33333 54.5572 9.94667 54.2372 10.48C53.9172 11.0133 53.4772 11.4267 52.9172 11.72ZM45.5972 7.04V10.9H49.2772C50.1839 10.9 50.8772 10.74 51.3572 10.42C51.8505 10.0867 52.0972 9.60667 52.0972 8.98C52.0972 8.34 51.8505 7.86 51.3572 7.54C50.8772 7.20667 50.1839 7.04 49.2772 7.04H45.5972ZM49.7972 16.96C51.8105 16.96 52.8172 16.2867 52.8172 14.94C52.8172 13.5933 51.8105 12.92 49.7972 12.92H45.5972V16.96H49.7972ZM64.692 19.2C63.2787 19.2 61.9987 18.8933 60.852 18.28C59.7187 17.6533 58.8254 16.7933 58.172 15.7C57.532 14.6067 57.212 13.3733 57.212 12C57.212 10.6267 57.5387 9.39333 58.192 8.3C58.8454 7.20667 59.7387 6.35333 60.872 5.74C62.0187 5.11333 63.2987 4.8 64.712 4.8C65.8587 4.8 66.9054 5 67.852 5.4C68.7987 5.8 69.5987 6.38 70.252 7.14L68.572 8.72C67.5587 7.62667 66.312 7.08 64.832 7.08C63.872 7.08 63.012 7.29333 62.252 7.72C61.492 8.13333 60.8987 8.71333 60.472 9.46C60.0454 10.2067 59.832 11.0533 59.832 12C59.832 12.9467 60.0454 13.7933 60.472 14.54C60.8987 15.2867 61.492 15.8733 62.252 16.3C63.012 16.7133 63.872 16.92 64.832 16.92C66.312 16.92 67.5587 16.3667 68.572 15.26L70.252 16.86C69.5987 17.62 68.792 18.2 67.832 18.6C66.8854 19 65.8387 19.2 64.692 19.2Z" fill="#2F2F2F"/>
<path d="M16.2875 4L3 19H20" stroke="#2F2F2F" stroke-width="2"/>
</svg>
