<svg width="71" height="24" viewBox="0 0 71 24" fill="none" xmlns="http://www.w3.org/2000/svg">
<path d="M38.0832 11.72C38.8565 11.9733 39.4699 12.4 39.9232 13C40.3765 13.5867 40.6032 14.32 40.6032 15.2C40.6032 16.4133 40.1365 17.3533 39.2032 18.02C38.2699 18.6733 36.9099 19 35.1232 19H28.1632V5H34.7232C36.3765 5 37.6499 5.32667 38.5432 5.98C39.4365 6.62 39.8832 7.50667 39.8832 8.64C39.8832 9.33333 39.7232 9.94667 39.4032 10.48C39.0832 11.0133 38.6432 11.4267 38.0832 11.72ZM30.7632 7.04V10.9H34.4432C35.3499 10.9 36.0432 10.74 36.5232 10.42C37.0165 10.0867 37.2632 9.60667 37.2632 8.98C37.2632 8.34 37.0165 7.86 36.5232 7.54C36.0432 7.20667 35.3499 7.04 34.4432 7.04H30.7632ZM34.9632 16.96C36.9765 16.96 37.9832 16.2867 37.9832 14.94C37.9832 13.5933 36.9765 12.92 34.9632 12.92H30.7632V16.96H34.9632ZM49.858 19.2C48.4447 19.2 47.1647 18.8933 46.018 18.28C44.8847 17.6533 43.9914 16.7933 43.338 15.7C42.698 14.6067 42.378 13.3733 42.378 12C42.378 10.6267 42.7047 9.39333 43.358 8.3C44.0114 7.20667 44.9047 6.35333 46.038 5.74C47.1847 5.11333 48.4647 4.8 49.878 4.8C51.0247 4.8 52.0714 5 53.018 5.4C53.9647 5.8 54.7647 6.38 55.418 7.14L53.738 8.72C52.7247 7.62667 51.478 7.08 49.998 7.08C49.038 7.08 48.178 7.29333 47.418 7.72C46.658 8.13333 46.0647 8.71333 45.638 9.46C45.2114 10.2067 44.998 11.0533 44.998 12C44.998 12.9467 45.2114 13.7933 45.638 14.54C46.0647 15.2867 46.658 15.8733 47.418 16.3C48.178 16.7133 49.038 16.92 49.998 16.92C51.478 16.92 52.7247 16.3667 53.738 15.26L55.418 16.86C54.7647 17.62 53.958 18.2 52.998 18.6C52.0514 19 51.0047 19.2 49.858 19.2ZM66.6963 15.76H59.6963L58.3163 19H55.6363L61.9363 5H64.4963L70.8163 19H68.0963L66.6963 15.76ZM65.8363 13.72L63.1963 7.6L60.5763 13.72H65.8363Z" fill="#2F2F2F"/>
<path d="M16.2875 4L3 19H20" stroke="#2F2F2F" stroke-width="2"/>
</svg>
