<svg width="537" height="310" viewBox="0 0 537 310" fill="none" xmlns="http://www.w3.org/2000/svg">
<g clip-path="url(#clip0_3091_9123)">
<path d="M20.1228 287.084H13.8228L12.5808 290H10.1688L15.8388 277.4H18.1428L23.8308 290H21.3828L20.1228 287.084ZM19.3488 285.248L16.9728 279.74L14.6148 285.248H19.3488Z" fill="#2F2F2F"/>
<path d="M307.773 33.448C308.469 33.676 309.021 34.06 309.429 34.6C309.837 35.128 310.041 35.788 310.041 36.58C310.041 37.672 309.621 38.518 308.781 39.118C307.941 39.706 306.717 40 305.109 40H298.845V27.4H304.749C306.237 27.4 307.383 27.694 308.187 28.282C308.991 28.858 309.393 29.656 309.393 30.676C309.393 31.3 309.249 31.852 308.961 32.332C308.673 32.812 308.277 33.184 307.773 33.448ZM301.185 29.236V32.71H304.497C305.313 32.71 305.937 32.566 306.369 32.278C306.813 31.978 307.035 31.546 307.035 30.982C307.035 30.406 306.813 29.974 306.369 29.686C305.937 29.386 305.313 29.236 304.497 29.236H301.185ZM304.965 38.164C306.777 38.164 307.683 37.558 307.683 36.346C307.683 35.134 306.777 34.528 304.965 34.528H301.185V38.164H304.965Z" fill="#2F2F2F"/>
<path d="M525.985 286.18C524.713 286.18 523.561 285.904 522.529 285.352C521.509 284.788 520.705 284.014 520.117 283.03C519.541 282.046 519.253 280.936 519.253 279.7C519.253 278.464 519.547 277.354 520.135 276.37C520.723 275.386 521.527 274.618 522.547 274.066C523.579 273.502 524.731 273.22 526.003 273.22C527.035 273.22 527.977 273.4 528.829 273.76C529.681 274.12 530.401 274.642 530.989 275.326L529.477 276.748C528.565 275.764 527.443 275.272 526.111 275.272C525.247 275.272 524.473 275.464 523.789 275.848C523.105 276.22 522.571 276.742 522.187 277.414C521.803 278.086 521.611 278.848 521.611 279.7C521.611 280.552 521.803 281.314 522.187 281.986C522.571 282.658 523.105 283.186 523.789 283.57C524.473 283.942 525.247 284.128 526.111 284.128C527.443 284.128 528.565 283.63 529.477 282.634L530.989 284.074C530.401 284.758 529.675 285.28 528.811 285.64C527.959 286 527.017 286.18 525.985 286.18Z" fill="#2F2F2F"/>
<path d="M44.3353 281.216L42.3542 282.978L45.0058 282.963L498.054 280.344L500.21 280.332L498.808 278.694L304.26 51.3498L303.597 50.5753L302.835 51.2529L44.3353 281.216Z" fill="#E7FFE8" stroke="#2CBB32" stroke-width="2"/>
</g>
<defs>
<clipPath id="clip0_3091_9123">
<rect width="537" height="310" fill="white"/>
</clipPath>
</defs>
</svg>
