<svg width="334" height="75" viewBox="0 0 334 75" fill="none" xmlns="http://www.w3.org/2000/svg">
<path d="M333.061 64.0607C333.646 63.4749 333.646 62.5251 333.061 61.9393L323.515 52.3934C322.929 51.8076 321.979 51.8076 321.393 52.3934C320.808 52.9792 320.808 53.9289 321.393 54.5147L329.879 63L321.393 71.4853C320.808 72.0711 320.808 73.0208 321.393 73.6066C321.979 74.1924 322.929 74.1924 323.515 73.6066L333.061 64.0607ZM164 64.5H332V61.5H164V64.5Z" fill="#036280"/>
<path d="M1.33664 6.65466C0.593625 7.02103 0.288297 7.92036 0.654666 8.66337L6.625 20.7714C6.99137 21.5144 7.8907 21.8198 8.63371 21.4534C9.37672 21.087 9.68205 20.1877 9.31568 19.4447L4.00872 8.68197L14.7714 3.37501C15.5144 3.00864 15.8198 2.10931 15.4534 1.3663C15.087 0.623285 14.1877 0.317957 13.4447 0.684326L1.33664 6.65466ZM164.482 61.5796L2.48223 6.57963L1.51778 9.42037L163.518 64.4204L164.482 61.5796Z" fill="#036280"/>
</svg>
