<svg width="377" height="45" viewBox="0 0 377 45" fill="none" xmlns="http://www.w3.org/2000/svg">
<path d="M0 5C0 2.23858 2.23858 0 5 0H65C67.7614 0 70 2.23858 70 5V40C70 42.7614 67.7614 45 65 45H5C2.23858 45 0 42.7614 0 40V5Z" fill="#369CB7"/>
<path d="M35.6639 25.404H33.2699V28.5H31.5239V25.404H24.5219V24.144L30.9659 15.9H32.9099L26.7359 23.856H31.5779V21.12H33.2699V23.856H35.6639V25.404ZM40.2902 20.922C42.0902 20.922 43.4102 21.264 44.2502 21.948C45.1022 22.62 45.5282 23.544 45.5282 24.72C45.5282 25.464 45.3482 26.136 44.9882 26.736C44.6402 27.324 44.1062 27.792 43.3862 28.14C42.6782 28.476 41.8022 28.644 40.7582 28.644C39.8702 28.644 39.0122 28.512 38.1842 28.248C37.3562 27.972 36.6722 27.594 36.1322 27.114L36.9602 25.692C37.3922 26.1 37.9442 26.43 38.6162 26.682C39.2882 26.922 39.9962 27.042 40.7402 27.042C41.6882 27.042 42.4202 26.844 42.9362 26.448C43.4642 26.04 43.7282 25.488 43.7282 24.792C43.7282 24.036 43.4402 23.466 42.8642 23.082C42.2882 22.686 41.3042 22.488 39.9122 22.488H37.0502L37.7162 15.9H44.8262V17.466H39.2282L38.8862 20.922H40.2902Z" fill="white"/>
<path d="M5 1H65V-1H5V1ZM69 5V40H71V5H69ZM65 44H5V46H65V44ZM1 40V5H-1V40H1ZM5 44C2.79086 44 1 42.2091 1 40H-1C-1 43.3137 1.68629 46 5 46V44ZM69 40C69 42.2091 67.2091 44 65 44V46C68.3137 46 71 43.3137 71 40H69ZM65 1C67.2091 1 69 2.79086 69 5H71C71 1.68629 68.3137 -1 65 -1V1ZM5 -1C1.68629 -1 -1 1.68629 -1 5H1C1 2.79086 2.79086 1 5 1V-1Z" fill="#369CB7"/>
<path d="M80.446 18.87C81.766 18.87 82.774 19.194 83.47 19.842C84.178 20.49 84.532 21.456 84.532 22.74V28.5H82.894V27.24C82.606 27.684 82.192 28.026 81.652 28.266C81.124 28.494 80.494 28.608 79.762 28.608C78.694 28.608 77.836 28.35 77.188 27.834C76.552 27.318 76.234 26.64 76.234 25.8C76.234 24.96 76.54 24.288 77.152 23.784C77.764 23.268 78.736 23.01 80.068 23.01H82.804V22.668C82.804 21.924 82.588 21.354 82.156 20.958C81.724 20.562 81.088 20.364 80.248 20.364C79.684 20.364 79.132 20.46 78.592 20.652C78.052 20.832 77.596 21.078 77.224 21.39L76.504 20.094C76.996 19.698 77.584 19.398 78.268 19.194C78.952 18.978 79.678 18.87 80.446 18.87ZM80.05 27.276C80.71 27.276 81.28 27.132 81.76 26.844C82.24 26.544 82.588 26.124 82.804 25.584V24.252H80.14C78.676 24.252 77.944 24.744 77.944 25.728C77.944 26.208 78.13 26.586 78.502 26.862C78.874 27.138 79.39 27.276 80.05 27.276ZM92.8238 18.87C94.0358 18.87 94.9958 19.224 95.7038 19.932C96.4238 20.628 96.7838 21.654 96.7838 23.01V28.5H95.0558V23.208C95.0558 22.284 94.8338 21.588 94.3898 21.12C93.9458 20.652 93.3098 20.418 92.4818 20.418C91.5458 20.418 90.8078 20.694 90.2678 21.246C89.7278 21.786 89.4578 22.566 89.4578 23.586V28.5H87.7298V18.96H89.3858V20.4C89.7338 19.908 90.2018 19.53 90.7898 19.266C91.3898 19.002 92.0678 18.87 92.8238 18.87ZM109.034 15.144V28.5H107.378V26.988C106.994 27.516 106.508 27.918 105.92 28.194C105.332 28.47 104.684 28.608 103.976 28.608C103.052 28.608 102.224 28.404 101.492 27.996C100.76 27.588 100.184 27.018 99.7645 26.286C99.3565 25.542 99.1525 24.69 99.1525 23.73C99.1525 22.77 99.3565 21.924 99.7645 21.192C100.184 20.46 100.76 19.89 101.492 19.482C102.224 19.074 103.052 18.87 103.976 18.87C104.66 18.87 105.29 19.002 105.866 19.266C106.442 19.518 106.922 19.896 107.306 20.4V15.144H109.034ZM104.12 27.096C104.72 27.096 105.266 26.958 105.758 26.682C106.25 26.394 106.634 25.998 106.91 25.494C107.186 24.978 107.324 24.39 107.324 23.73C107.324 23.07 107.186 22.488 106.91 21.984C106.634 21.468 106.25 21.072 105.758 20.796C105.266 20.52 104.72 20.382 104.12 20.382C103.508 20.382 102.956 20.52 102.464 20.796C101.984 21.072 101.6 21.468 101.312 21.984C101.036 22.488 100.898 23.07 100.898 23.73C100.898 24.39 101.036 24.978 101.312 25.494C101.6 25.998 101.984 26.394 102.464 26.682C102.956 26.958 103.508 27.096 104.12 27.096Z" fill="#2F2F2F"/>
<path d="M116 5C116 2.23858 118.239 0 121 0H181C183.761 0 186 2.23858 186 5V40C186 42.7614 183.761 45 181 45H121C118.239 45 116 42.7614 116 40V5Z" fill="#369CB7"/>
<path d="M150.395 15.756C152.087 15.756 153.389 16.302 154.301 17.394C155.225 18.486 155.687 20.034 155.687 22.038C155.687 23.442 155.435 24.642 154.931 25.638C154.439 26.622 153.743 27.372 152.843 27.888C151.955 28.392 150.917 28.644 149.729 28.644C149.117 28.644 148.541 28.584 148.001 28.464C147.461 28.332 146.993 28.146 146.597 27.906L147.281 26.502C147.893 26.898 148.703 27.096 149.711 27.096C151.019 27.096 152.039 26.694 152.771 25.89C153.515 25.074 153.887 23.892 153.887 22.344V21.894C153.527 22.434 153.029 22.848 152.393 23.136C151.757 23.412 151.043 23.55 150.251 23.55C149.423 23.55 148.679 23.394 148.019 23.082C147.371 22.77 146.861 22.326 146.489 21.75C146.129 21.162 145.949 20.49 145.949 19.734C145.949 18.942 146.141 18.246 146.525 17.646C146.921 17.046 147.455 16.584 148.127 16.26C148.799 15.924 149.555 15.756 150.395 15.756ZM150.557 22.092C151.121 22.092 151.625 21.984 152.069 21.768C152.513 21.552 152.855 21.258 153.095 20.886C153.347 20.514 153.473 20.1 153.473 19.644C153.473 19.2 153.353 18.798 153.113 18.438C152.885 18.066 152.543 17.772 152.087 17.556C151.643 17.328 151.103 17.214 150.467 17.214C149.639 17.214 148.967 17.436 148.451 17.88C147.947 18.324 147.695 18.918 147.695 19.662C147.695 20.406 147.953 21 148.469 21.444C148.985 21.876 149.681 22.092 150.557 22.092Z" fill="white"/>
<path d="M121 1H181V-1H121V1ZM185 5V40H187V5H185ZM181 44H121V46H181V44ZM117 40V5H115V40H117ZM121 44C118.791 44 117 42.2091 117 40H115C115 43.3137 117.686 46 121 46V44ZM185 40C185 42.2091 183.209 44 181 44V46C184.314 46 187 43.3137 187 40H185ZM181 1C183.209 1 185 2.79086 185 5H187C187 1.68629 184.314 -1 181 -1V1ZM121 -1C117.686 -1 115 1.68629 115 5H117C117 2.79086 118.791 1 121 1V-1Z" fill="#369CB7"/>
<path d="M198.016 21.37C199.228 21.37 200.188 21.724 200.896 22.432C201.616 23.128 201.976 24.154 201.976 25.51V31H200.248V25.708C200.248 24.784 200.026 24.088 199.582 23.62C199.138 23.152 198.502 22.918 197.674 22.918C196.738 22.918 196 23.194 195.46 23.746C194.92 24.286 194.65 25.066 194.65 26.086V31H192.922V17.644H194.65V22.81C195.01 22.354 195.478 22 196.054 21.748C196.642 21.496 197.296 21.37 198.016 21.37ZM208.648 21.37C209.968 21.37 210.976 21.694 211.672 22.342C212.38 22.99 212.734 23.956 212.734 25.24V31H211.096V29.74C210.808 30.184 210.394 30.526 209.854 30.766C209.326 30.994 208.696 31.108 207.964 31.108C206.896 31.108 206.038 30.85 205.39 30.334C204.754 29.818 204.436 29.14 204.436 28.3C204.436 27.46 204.742 26.788 205.354 26.284C205.966 25.768 206.938 25.51 208.27 25.51H211.006V25.168C211.006 24.424 210.79 23.854 210.358 23.458C209.926 23.062 209.29 22.864 208.45 22.864C207.886 22.864 207.334 22.96 206.794 23.152C206.254 23.332 205.798 23.578 205.426 23.89L204.706 22.594C205.198 22.198 205.786 21.898 206.47 21.694C207.154 21.478 207.88 21.37 208.648 21.37ZM208.252 29.776C208.912 29.776 209.482 29.632 209.962 29.344C210.442 29.044 210.79 28.624 211.006 28.084V26.752H208.342C206.878 26.752 206.146 27.244 206.146 28.228C206.146 28.708 206.332 29.086 206.704 29.362C207.076 29.638 207.592 29.776 208.252 29.776ZM224.198 21.46L220.022 31H218.258L214.082 21.46H215.882L219.158 29.11L222.506 21.46H224.198ZM234.169 26.284C234.169 26.416 234.157 26.59 234.133 26.806H226.393C226.501 27.646 226.867 28.324 227.491 28.84C228.127 29.344 228.913 29.596 229.849 29.596C230.989 29.596 231.907 29.212 232.603 28.444L233.557 29.56C233.125 30.064 232.585 30.448 231.937 30.712C231.301 30.976 230.587 31.108 229.795 31.108C228.787 31.108 227.893 30.904 227.113 30.496C226.333 30.076 225.727 29.494 225.295 28.75C224.875 28.006 224.665 27.166 224.665 26.23C224.665 25.306 224.869 24.472 225.277 23.728C225.697 22.984 226.267 22.408 226.987 22C227.719 21.58 228.541 21.37 229.453 21.37C230.365 21.37 231.175 21.58 231.883 22C232.603 22.408 233.161 22.984 233.557 23.728C233.965 24.472 234.169 25.324 234.169 26.284ZM229.453 22.828C228.625 22.828 227.929 23.08 227.365 23.584C226.813 24.088 226.489 24.748 226.393 25.564H232.513C232.417 24.76 232.087 24.106 231.523 23.602C230.971 23.086 230.281 22.828 229.453 22.828ZM244.877 21.37C246.197 21.37 247.205 21.694 247.901 22.342C248.609 22.99 248.963 23.956 248.963 25.24V31H247.325V29.74C247.037 30.184 246.623 30.526 246.083 30.766C245.555 30.994 244.925 31.108 244.193 31.108C243.125 31.108 242.267 30.85 241.619 30.334C240.983 29.818 240.665 29.14 240.665 28.3C240.665 27.46 240.971 26.788 241.583 26.284C242.195 25.768 243.167 25.51 244.499 25.51H247.235V25.168C247.235 24.424 247.019 23.854 246.587 23.458C246.155 23.062 245.519 22.864 244.679 22.864C244.115 22.864 243.563 22.96 243.023 23.152C242.483 23.332 242.027 23.578 241.655 23.89L240.935 22.594C241.427 22.198 242.015 21.898 242.699 21.694C243.383 21.478 244.109 21.37 244.877 21.37ZM244.481 29.776C245.141 29.776 245.711 29.632 246.191 29.344C246.671 29.044 247.019 28.624 247.235 28.084V26.752H244.571C243.107 26.752 242.375 27.244 242.375 28.228C242.375 28.708 242.561 29.086 242.933 29.362C243.305 29.638 243.821 29.776 244.481 29.776ZM265.994 21.46V34.492H264.266V29.56C263.87 30.064 263.384 30.448 262.808 30.712C262.244 30.976 261.62 31.108 260.936 31.108C260.012 31.108 259.184 30.904 258.452 30.496C257.72 30.088 257.144 29.518 256.724 28.786C256.316 28.042 256.112 27.19 256.112 26.23C256.112 25.27 256.316 24.424 256.724 23.692C257.144 22.96 257.72 22.39 258.452 21.982C259.184 21.574 260.012 21.37 260.936 21.37C261.644 21.37 262.292 21.508 262.88 21.784C263.468 22.048 263.954 22.444 264.338 22.972V21.46H265.994ZM261.08 29.596C261.68 29.596 262.226 29.458 262.718 29.182C263.21 28.894 263.594 28.498 263.87 27.994C264.146 27.478 264.284 26.89 264.284 26.23C264.284 25.57 264.14 24.988 263.852 24.484C263.576 23.98 263.192 23.59 262.7 23.314C262.22 23.026 261.68 22.882 261.08 22.882C260.468 22.882 259.916 23.02 259.424 23.296C258.944 23.572 258.56 23.968 258.272 24.484C257.996 24.988 257.858 25.57 257.858 26.23C257.858 26.89 257.996 27.478 258.272 27.994C258.56 28.498 258.944 28.894 259.424 29.182C259.916 29.458 260.468 29.596 261.08 29.596ZM278.156 21.46V31H276.518V29.56C276.17 30.052 275.708 30.436 275.132 30.712C274.568 30.976 273.95 31.108 273.278 31.108C272.006 31.108 271.004 30.76 270.272 30.064C269.54 29.356 269.174 28.318 269.174 26.95V21.46H270.902V26.752C270.902 27.676 271.124 28.378 271.568 28.858C272.012 29.326 272.648 29.56 273.476 29.56C274.388 29.56 275.108 29.284 275.636 28.732C276.164 28.18 276.428 27.4 276.428 26.392V21.46H278.156ZM285.532 31.108C284.584 31.108 283.732 30.898 282.976 30.478C282.22 30.058 281.626 29.482 281.194 28.75C280.774 28.006 280.564 27.166 280.564 26.23C280.564 25.294 280.774 24.46 281.194 23.728C281.626 22.984 282.22 22.408 282.976 22C283.732 21.58 284.584 21.37 285.532 21.37C286.48 21.37 287.326 21.58 288.07 22C288.826 22.408 289.414 22.984 289.834 23.728C290.266 24.46 290.482 25.294 290.482 26.23C290.482 27.166 290.266 28.006 289.834 28.75C289.414 29.482 288.826 30.058 288.07 30.478C287.326 30.898 286.48 31.108 285.532 31.108ZM285.532 29.596C286.144 29.596 286.69 29.458 287.17 29.182C287.662 28.894 288.046 28.498 288.322 27.994C288.598 27.478 288.736 26.89 288.736 26.23C288.736 25.57 288.598 24.988 288.322 24.484C288.046 23.968 287.662 23.572 287.17 23.296C286.69 23.02 286.144 22.882 285.532 22.882C284.92 22.882 284.368 23.02 283.876 23.296C283.396 23.572 283.012 23.968 282.724 24.484C282.448 24.988 282.31 25.57 282.31 26.23C282.31 26.89 282.448 27.478 282.724 27.994C283.012 28.498 283.396 28.894 283.876 29.182C284.368 29.458 284.92 29.596 285.532 29.596ZM298.235 30.442C297.983 30.658 297.671 30.826 297.299 30.946C296.927 31.054 296.543 31.108 296.147 31.108C295.187 31.108 294.443 30.85 293.915 30.334C293.387 29.818 293.123 29.08 293.123 28.12V22.882H291.503V21.46H293.123V19.372H294.851V21.46H297.587V22.882H294.851V28.048C294.851 28.564 294.977 28.96 295.229 29.236C295.493 29.512 295.865 29.65 296.345 29.65C296.873 29.65 297.323 29.5 297.695 29.2L298.235 30.442ZM300.325 21.46H302.053V31H300.325V21.46ZM301.189 19.624C300.853 19.624 300.571 19.516 300.343 19.3C300.127 19.084 300.019 18.82 300.019 18.508C300.019 18.196 300.127 17.932 300.343 17.716C300.571 17.488 300.853 17.374 301.189 17.374C301.525 17.374 301.801 17.482 302.017 17.698C302.245 17.902 302.359 18.16 302.359 18.472C302.359 18.796 302.245 19.072 302.017 19.3C301.801 19.516 301.525 19.624 301.189 19.624ZM313.974 26.284C313.974 26.416 313.962 26.59 313.938 26.806H306.198C306.306 27.646 306.672 28.324 307.296 28.84C307.932 29.344 308.718 29.596 309.654 29.596C310.794 29.596 311.712 29.212 312.408 28.444L313.362 29.56C312.93 30.064 312.39 30.448 311.742 30.712C311.106 30.976 310.392 31.108 309.6 31.108C308.592 31.108 307.698 30.904 306.918 30.496C306.138 30.076 305.532 29.494 305.1 28.75C304.68 28.006 304.47 27.166 304.47 26.23C304.47 25.306 304.674 24.472 305.082 23.728C305.502 22.984 306.072 22.408 306.792 22C307.524 21.58 308.346 21.37 309.258 21.37C310.17 21.37 310.98 21.58 311.688 22C312.408 22.408 312.966 22.984 313.362 23.728C313.77 24.472 313.974 25.324 313.974 26.284ZM309.258 22.828C308.43 22.828 307.734 23.08 307.17 23.584C306.618 24.088 306.294 24.748 306.198 25.564H312.318C312.222 24.76 311.892 24.106 311.328 23.602C310.776 23.086 310.086 22.828 309.258 22.828ZM321.467 21.37C322.679 21.37 323.639 21.724 324.347 22.432C325.067 23.128 325.427 24.154 325.427 25.51V31H323.699V25.708C323.699 24.784 323.477 24.088 323.033 23.62C322.589 23.152 321.953 22.918 321.125 22.918C320.189 22.918 319.451 23.194 318.911 23.746C318.371 24.286 318.101 25.066 318.101 26.086V31H316.373V21.46H318.029V22.9C318.377 22.408 318.845 22.03 319.433 21.766C320.033 21.502 320.711 21.37 321.467 21.37ZM333.989 30.442C333.737 30.658 333.425 30.826 333.053 30.946C332.681 31.054 332.297 31.108 331.901 31.108C330.941 31.108 330.197 30.85 329.669 30.334C329.141 29.818 328.877 29.08 328.877 28.12V22.882H327.257V21.46H328.877V19.372H330.605V21.46H333.341V22.882H330.605V28.048C330.605 28.564 330.731 28.96 330.983 29.236C331.247 29.512 331.619 29.65 332.099 29.65C332.627 29.65 333.077 29.5 333.449 29.2L333.989 30.442ZM344.998 31.108C344.05 31.108 343.198 30.898 342.442 30.478C341.686 30.058 341.092 29.482 340.66 28.75C340.24 28.006 340.03 27.166 340.03 26.23C340.03 25.294 340.24 24.46 340.66 23.728C341.092 22.984 341.686 22.408 342.442 22C343.198 21.58 344.05 21.37 344.998 21.37C345.946 21.37 346.792 21.58 347.536 22C348.292 22.408 348.88 22.984 349.3 23.728C349.732 24.46 349.948 25.294 349.948 26.23C349.948 27.166 349.732 28.006 349.3 28.75C348.88 29.482 348.292 30.058 347.536 30.478C346.792 30.898 345.946 31.108 344.998 31.108ZM344.998 29.596C345.61 29.596 346.156 29.458 346.636 29.182C347.128 28.894 347.512 28.498 347.788 27.994C348.064 27.478 348.202 26.89 348.202 26.23C348.202 25.57 348.064 24.988 347.788 24.484C347.512 23.968 347.128 23.572 346.636 23.296C346.156 23.02 345.61 22.882 344.998 22.882C344.386 22.882 343.834 23.02 343.342 23.296C342.862 23.572 342.478 23.968 342.19 24.484C341.914 24.988 341.776 25.57 341.776 26.23C341.776 26.89 341.914 27.478 342.19 27.994C342.478 28.498 342.862 28.894 343.342 29.182C343.834 29.458 344.386 29.596 344.998 29.596ZM355.83 18.958C354.798 18.958 354.282 19.516 354.282 20.632V21.46H357.054V22.882H354.318V31H352.59V22.882H350.97V21.46H352.59V20.614C352.59 19.666 352.866 18.916 353.418 18.364C353.97 17.812 354.744 17.536 355.74 17.536C356.124 17.536 356.484 17.584 356.82 17.68C357.156 17.776 357.444 17.914 357.684 18.094L357.162 19.408C356.766 19.108 356.322 18.958 355.83 18.958ZM369.138 20.512C371.506 20.512 373.25 20.984 374.37 21.928C375.506 22.872 376.074 24.136 376.074 25.72C376.074 26.744 375.818 27.68 375.306 28.528C374.794 29.36 374.01 30.032 372.954 30.544C371.914 31.04 370.626 31.288 369.09 31.288C367.906 31.288 366.738 31.136 365.586 30.832C364.45 30.512 363.482 30.064 362.682 29.488L364.218 26.512C364.858 26.992 365.594 27.368 366.426 27.64C367.258 27.896 368.114 28.024 368.994 28.024C369.97 28.024 370.738 27.832 371.298 27.448C371.858 27.064 372.138 26.528 372.138 25.84C372.138 25.12 371.842 24.576 371.25 24.208C370.674 23.84 369.666 23.656 368.226 23.656H363.93L364.794 14.2H375.042V17.32H368.034L367.77 20.512H369.138Z" fill="#2F2F2F"/>
</svg>
