<svg width="399" height="210" viewBox="0 0 399 210" fill="none" xmlns="http://www.w3.org/2000/svg">
<path d="M6.20319 208.95C3.21389 208.946 0.744945 206.529 0.748708 203.482L0.791847 168.551C0.795538 165.561 3.21303 163.092 6.25982 163.096L33.451 163.13C33.8224 141.688 38.217 120.94 46.5768 101.29C54.9368 81.5252 66.9159 63.8341 82.1686 48.619C97.4214 33.4039 115.142 21.4685 134.928 13.1574C155.404 4.55967 177.139 0.217524 199.501 0.245141C221.863 0.272757 243.588 4.66857 264.042 13.3743C283.808 21.7343 301.499 33.7134 316.714 48.9661C331.929 64.2189 343.864 81.9395 352.175 101.725C360.429 121.338 364.83 142.154 365.148 163.597L392.34 163.63C395.329 163.634 397.798 166.052 397.794 169.098L397.751 204.03C397.747 207.019 395.33 209.488 392.283 209.484L6.20312 209.008L6.20319 208.95ZM305.305 163.523C303.938 106.437 256.741 60.1594 199.427 60.0887C142.113 60.0179 94.8021 106.179 93.2944 163.261L305.305 163.523Z" fill="#239AD6" fill-opacity="0.6"/>
<path d="M6.20214 208.449C3.96016 208.447 2.12286 206.605 2.12563 204.363L2.16978 168.608C2.17255 166.366 4.0144 164.529 6.25637 164.532L34.8272 164.567C35.0265 142.837 39.4215 121.803 47.8391 101.923C56.1413 82.33 68.0053 64.7537 83.1429 49.7109C98.2805 34.6106 115.886 22.7901 135.442 14.5362C155.745 5.88079 177.308 1.59592 199.498 1.62332C221.688 1.65072 243.24 6.04633 263.522 14.6369C283.115 22.9392 300.691 34.8031 315.734 49.9407C330.834 65.0783 342.654 82.6838 350.908 102.24C359.277 122.14 363.62 143.243 363.765 164.916L392.336 164.951C394.578 164.954 396.416 166.796 396.413 169.038L396.369 204.792C396.366 207.034 394.524 208.871 392.282 208.869L6.20221 208.392L6.20214 208.449ZM306.681 164.845C306.006 106.323 258.064 58.7224 199.427 58.65C140.791 58.5776 92.6736 106.06 91.9114 164.58L306.681 164.845Z" fill="#7CCED6" fill-opacity="0.6"/>
<path opacity="0.4" d="M362.961 166.296C362.673 166.296 362.444 166.065 362.444 165.778C362.413 143.933 358.128 122.773 349.702 102.814C341.506 83.3737 329.742 65.9407 314.814 50.9183C299.886 35.9533 282.425 24.147 263.005 15.9024C242.895 7.36952 221.515 3.03162 199.498 3.00443C177.481 2.97724 156.09 7.26232 135.959 15.7455C116.519 23.9421 99.0858 35.7053 84.0634 50.6333C69.0984 65.5613 57.2921 83.0227 49.0475 102.443C40.5146 122.553 36.1768 143.875 36.1496 165.892L6.25657 165.855C4.76192 165.854 3.55321 167.059 3.55137 168.554L3.50823 203.485C3.50638 204.98 4.71211 206.189 6.20676 206.191L392.287 206.667C393.781 206.669 394.99 205.464 394.992 203.969L395.035 169.037C395.037 167.543 393.831 166.334 392.336 166.332L362.961 166.296ZM90.5319 165.96C90.6059 106.001 139.472 57.2552 199.431 57.3292C259.389 57.4033 308.135 106.27 308.061 166.228L90.5319 165.96Z" fill="#46A2DA" fill-opacity="0.6"/>
<path d="M39.5565 151.532L39.4904 152.276L50.3128 153.237L50.3788 152.492L39.5565 151.532Z" fill="white"/>
<path d="M44.4877 124.046L44.2934 124.768L54.7842 127.592L54.9785 126.871L44.4877 124.046Z" fill="white"/>
<path d="M54.1292 97.7792L53.8125 98.4561L63.6536 103.06L63.9703 102.383L54.1292 97.7792Z" fill="white"/>
<path d="M68.2046 73.6081L67.7751 74.2197L76.6679 80.4628L77.0973 79.8511L68.2046 73.6081Z" fill="white"/>
<path d="M86.2473 52.2545L85.7183 52.7822L93.3913 60.4742L93.9203 59.9464L86.2473 52.2545Z" fill="white"/>
<path d="M107.745 34.3563L107.132 34.7842L113.353 43.6923L113.966 43.2644L107.745 34.3563Z" fill="white"/>
<path d="M132.005 20.4614L131.327 20.7764L135.907 30.6288L136.584 30.3138L132.005 20.4614Z" fill="white"/>
<path d="M158.332 10.9696L157.61 11.1621L160.409 21.6599L161.131 21.4674L158.332 10.9696Z" fill="white"/>
<path d="M185.913 6.24926L185.169 6.31348L186.102 17.1381L186.847 17.0739L185.913 6.24926Z" fill="white"/>
<path d="M213.096 6.29582L212.135 17.1182L212.879 17.1843L213.841 6.36197L213.096 6.29582Z" fill="white"/>
<path d="M240.672 11.1117L237.844 21.6025L238.566 21.7971L241.394 11.3062L240.672 11.1117Z" fill="white"/>
<path d="M266.923 20.618L262.316 30.458L262.993 30.7749L267.6 20.9349L266.923 20.618Z" fill="white"/>
<path d="M291.166 34.5831L284.921 43.4736L285.532 43.9032L291.778 35.0126L291.166 34.5831Z" fill="white"/>
<path d="M312.592 52.5223L304.9 60.1953L305.427 60.7244L313.119 53.0514L312.592 52.5223Z" fill="white"/>
<path d="M330.599 73.9136L321.691 80.1357L322.119 80.7484L331.026 74.5263L330.599 73.9136Z" fill="white"/>
<path d="M344.616 98.143L334.765 102.726L335.08 103.403L344.932 98.8206L344.616 98.143Z" fill="white"/>
<path d="M354.186 124.423L343.688 127.225L343.881 127.947L354.379 125.145L354.186 124.423Z" fill="white"/>
<path d="M359.081 151.964L348.257 152.899L348.321 153.644L359.146 152.709L359.081 151.964Z" fill="white"/>
<path d="M52.4184 165.396L38.8518 165.379L38.8505 166.471L52.4171 166.488L52.4184 165.396Z" fill="white"/>
<path d="M41.4491 137.5L41.258 138.575L54.6155 140.948L54.8066 139.873L41.4491 137.5Z" fill="white"/>
<path d="M48.7982 110.546L48.4233 111.572L61.1662 116.228L61.541 115.202L48.7982 110.546Z" fill="white"/>
<path d="M60.7426 85.2618L60.1953 86.207L71.9356 93.0048L72.4829 92.0596L60.7426 85.2618Z" fill="white"/>
<path d="M76.8589 62.424L76.1558 63.2598L86.537 71.9932L87.2401 71.1574L76.8589 62.424Z" fill="white"/>
<path d="M96.7617 42.7286L95.9242 43.4297L104.632 53.8325L105.47 53.1314L96.7617 42.7286Z" fill="white"/>
<path d="M119.721 26.8261L118.775 27.3711L125.544 39.1282L126.49 38.5832L119.721 26.8261Z" fill="white"/>
<path d="M145.107 15.1287L144.08 15.501L148.704 28.2553L149.731 27.883L145.107 15.1287Z" fill="white"/>
<path d="M172.144 7.97372L171.068 8.16211L173.408 21.5254L174.484 21.337L172.144 7.97372Z" fill="white"/>
<path d="M200.012 5.7074L198.92 5.70605L198.903 19.2727L199.995 19.274L200.012 5.7074Z" fill="white"/>
<path d="M226.81 8.06439L224.436 21.4219L225.511 21.613L227.885 8.25554L226.81 8.06439Z" fill="white"/>
<path d="M253.854 15.263L249.2 28.0059L250.226 28.3806L254.88 15.6377L253.854 15.263Z" fill="white"/>
<path d="M279.162 26.9908L272.366 38.7324L273.311 39.2796L280.108 27.5379L279.162 26.9908Z" fill="white"/>
<path d="M302.116 43.0321L293.386 53.416L294.222 54.1189L302.952 43.735L302.116 43.0321Z" fill="white"/>
<path d="M321.955 62.7451L311.549 71.4502L312.25 72.2879L322.656 63.5829L321.955 62.7451Z" fill="white"/>
<path d="M338.043 85.6291L326.285 92.3965L326.83 93.3431L338.588 86.5757L338.043 85.6291Z" fill="white"/>
<path d="M349.895 110.935L337.141 115.558L337.513 116.584L350.267 111.962L349.895 110.935Z" fill="white"/>
<path d="M357.173 137.945L343.81 140.286L343.998 141.362L357.361 139.021L357.173 137.945Z" fill="white"/>
<path d="M359.685 165.775L346.118 165.758L346.117 166.85L359.683 166.867L359.685 165.775Z" fill="white"/>
<path d="M44.313 165.615L38.8519 165.608L38.8513 166.126L44.3124 166.133L44.313 165.615Z" fill="white"/>
<path d="M38.8951 162.876L38.8855 163.394L44.3454 163.496L44.3551 162.978L38.8951 162.876Z" fill="white"/>
<path d="M38.9791 160.032L38.9604 160.549L44.4181 160.746L44.4368 160.229L38.9791 160.032Z" fill="white"/>
<path d="M39.093 157.242L39.0653 157.759L44.5185 158.051L44.5462 157.535L39.093 157.242Z" fill="white"/>
<path d="M39.2702 154.44L39.2335 154.956L44.6811 155.344L44.7178 154.827L39.2702 154.44Z" fill="white"/>
<path d="M39.5312 151.697L39.4854 152.212L44.9252 152.695L44.971 152.179L39.5312 151.697Z" fill="white"/>
<path d="M39.784 148.879L39.7293 149.394L45.1597 149.971L45.2144 149.456L39.784 148.879Z" fill="white"/>
<path d="M40.1383 146.137L40.0746 146.65L45.4939 147.323L45.5576 146.809L40.1383 146.137Z" fill="white"/>
<path d="M40.4983 143.315L40.4256 143.827L45.8328 144.594L45.9055 144.082L40.4983 143.315Z" fill="white"/>
<path d="M40.9381 140.555L40.8565 141.066L46.2494 141.928L46.331 141.417L40.9381 140.555Z" fill="white"/>
<path d="M41.3625 137.786L41.272 138.295L46.649 139.25L46.7395 138.741L41.3625 137.786Z" fill="white"/>
<path d="M41.8714 135.069L41.772 135.577L47.1314 136.626L47.2308 136.118L41.8714 135.069Z" fill="white"/>
<path d="M42.4342 132.297L42.326 132.803L47.6661 133.945L47.7743 133.439L42.4342 132.297Z" fill="white"/>
<path d="M43.0989 129.598L42.9819 130.102L48.3017 131.337L48.4187 130.833L43.0989 129.598Z" fill="white"/>
<path d="M43.7258 126.876L43.6 127.378L48.8973 128.706L49.0231 128.204L43.7258 126.876Z" fill="white"/>
<path d="M44.45 124.175L44.3155 124.675L49.5887 126.095L49.7232 125.595L44.45 124.175Z" fill="white"/>
<path d="M45.2231 121.466L45.0799 121.963L50.3278 123.474L50.471 122.977L45.2231 121.466Z" fill="white"/>
<path d="M46.0255 118.771L45.8736 119.266L51.0941 120.869L51.246 120.374L46.0255 118.771Z" fill="white"/>
<path d="M46.8532 116.11L46.6927 116.602L51.8847 118.295L52.0452 117.804L46.8532 116.11Z" fill="white"/>
<path d="M47.7614 113.482L47.5924 113.971L52.7537 115.755L52.9227 115.266L47.7614 113.482Z" fill="white"/>
<path d="M48.7108 110.841L48.5333 111.327L53.6628 113.201L53.8404 112.715L48.7108 110.841Z" fill="white"/>
<path d="M49.699 108.208L49.513 108.69L54.6091 110.654L54.7951 110.171L49.699 108.208Z" fill="white"/>
<path d="M50.7145 105.566L50.5201 106.046L55.5811 108.098L55.7755 107.618L50.7145 105.566Z" fill="white"/>
<path d="M51.7963 103.009L51.5936 103.485L56.6179 105.625L56.8206 105.149L51.7963 103.009Z" fill="white"/>
<path d="M52.9077 100.449L52.6967 100.921L57.6827 103.148L57.8937 102.676L52.9077 100.449Z" fill="white"/>
<path d="M54.0623 97.8859L53.8431 98.3545L58.7897 100.668L59.0089 100.2L54.0623 97.8859Z" fill="white"/>
<path d="M55.3001 95.3517L55.0727 95.8164L59.9783 98.2166L60.2056 97.7519L55.3001 95.3517Z" fill="white"/>
<path d="M56.5355 92.8577L56.3 93.3184L61.1629 95.8037L61.3983 95.343L56.5355 92.8577Z" fill="white"/>
<path d="M57.8539 90.4009L57.6104 90.8574L62.4289 93.4274L62.6723 92.9709L57.8539 90.4009Z" fill="white"/>
<path d="M59.2053 87.9336L58.9539 88.3857L63.727 91.0392L63.9784 90.587L59.2053 87.9336Z" fill="white"/>
<path d="M60.5578 85.522L60.2986 85.9697L65.0246 88.7061L65.2838 88.2584L60.5578 85.522Z" fill="white"/>
<path d="M62.0207 83.0783L61.7537 83.5215L66.4315 86.3398L66.6985 85.8966L62.0207 83.0783Z" fill="white"/>
<path d="M63.4842 80.6924L63.2095 81.1309L67.8375 84.0304L68.1122 83.592L63.4842 80.6924Z" fill="white"/>
<path d="M64.9877 78.3838L64.7054 78.8174L69.2819 81.7972L69.5642 81.3636L64.9877 78.3838Z" fill="white"/>
<path d="M66.5516 76.0295L66.2617 76.458L70.7852 79.5175L71.0751 79.0889L66.5516 76.0295Z" fill="white"/>
<path d="M68.122 73.7113L67.8247 74.1348L72.2946 77.2728L72.5919 76.8493L68.122 73.7113Z" fill="white"/>
<path d="M69.7542 71.4275L69.4496 71.8457L73.8637 75.0612L74.1683 74.643L69.7542 71.4275Z" fill="white"/>
<path d="M71.4285 69.2181L71.1166 69.6309L75.4738 72.9228L75.7857 72.51L71.4285 69.2181Z" fill="white"/>
<path d="M73.132 67.0077L72.813 67.415L77.1122 70.7822L77.4312 70.3749L73.132 67.0077Z" fill="white"/>
<path d="M74.8716 64.7995L74.5455 65.2012L78.7851 68.6437L79.1112 68.242L74.8716 64.7995Z" fill="white"/>
<path d="M76.715 62.6529L76.382 63.0488L80.5609 66.5644L80.8939 66.1685L76.715 62.6529Z" fill="white"/>
<path d="M78.5149 60.5104L78.175 60.9004L82.2921 64.4885L82.632 64.0985L78.5149 60.5104Z" fill="white"/>
<path d="M80.3403 58.4372L79.9937 58.8213L84.0479 62.4803L84.3945 62.0963L80.3403 58.4372Z" fill="white"/>
<path d="M82.2786 56.3662L81.9253 56.7441L85.915 60.4736L86.2683 60.0956L82.2786 56.3662Z" fill="white"/>
<path d="M84.1969 54.3216L83.8371 54.6934L87.7611 58.4915L88.121 58.1198L84.1969 54.3216Z" fill="white"/>
<path d="M86.1509 52.3661L85.7846 52.7314L89.6414 56.5978L90.0077 56.2324L86.1509 52.3661Z" fill="white"/>
<path d="M88.1699 50.4428L87.7973 50.8018L91.5857 54.7352L91.9584 54.3763L88.1699 50.4428Z" fill="white"/>
<path d="M90.2164 48.4992L89.8376 48.8516L93.5571 52.8504L93.936 52.4981L90.2164 48.4992Z" fill="white"/>
<path d="M92.2906 46.5654L91.9057 46.9111L95.5547 50.9744L95.9397 50.6287L92.2906 46.5654Z" fill="white"/>
<path d="M94.3429 44.7304L93.952 45.0693L97.5299 49.1953L97.9208 48.8563L94.3429 44.7304Z" fill="white"/>
<path d="M96.5033 42.9003L96.1066 43.2324L99.6118 47.42L100.009 47.0879L96.5033 42.9003Z" fill="white"/>
<path d="M98.6924 41.1426L98.2899 41.4678L101.722 45.7159L102.124 45.3907L98.6924 41.1426Z" fill="white"/>
<path d="M100.856 39.4213L100.448 39.7393L103.805 44.0468L104.213 43.7288L100.856 39.4213Z" fill="white"/>
<path d="M103.087 37.7282L102.674 38.0391L105.955 42.4044L106.369 42.0935L103.087 37.7282Z" fill="white"/>
<path d="M105.386 36.0714L104.967 36.375L108.171 40.797L108.59 40.4934L105.386 36.0714Z" fill="white"/>
<path d="M107.671 34.4411L107.247 34.7373L110.374 39.2149L110.798 38.9187L107.671 34.4411Z" fill="white"/>
<path d="M109.955 32.8821L109.525 33.1709L112.574 37.702L113.003 37.4132L109.955 32.8821Z" fill="white"/>
<path d="M112.283 31.3174L111.849 31.5986L114.818 36.1826L115.252 35.9013L112.283 31.3174Z" fill="white"/>
<path d="M114.627 29.8162L114.188 30.0898L117.076 34.725L117.515 34.4514L114.627 29.8162Z" fill="white"/>
<path d="M117.025 28.3601L116.581 28.626L119.388 33.3107L119.832 33.0448L117.025 28.3601Z" fill="white"/>
<path d="M119.432 26.9616L118.984 27.2197L121.709 31.9524L122.157 31.6943L119.432 26.9616Z" fill="white"/>
<path d="M121.905 25.6091L121.452 25.8594L124.094 30.639L124.547 30.3887L121.905 25.6091Z" fill="white"/>
<path d="M124.359 24.2713L123.902 24.5137L126.46 29.3385L126.917 29.0961L124.359 24.2713Z" fill="white"/>
<path d="M126.88 22.9805L126.419 23.2148L128.892 28.0838L129.353 27.8495L126.88 22.9805Z" fill="white"/>
<path d="M129.382 21.6966L128.917 21.9229L131.305 26.8343L131.77 26.608L129.382 21.6966Z" fill="white"/>
<path d="M131.914 20.5417L131.445 20.7598L133.747 25.712L134.216 25.494L131.914 20.5417Z" fill="white"/>
<path d="M134.427 19.3976L133.954 19.6074L136.169 24.5989L136.642 24.3891L134.427 19.3976Z" fill="white"/>
<path d="M137.008 18.2858L136.531 18.4873L138.659 23.5169L139.135 23.3154L137.008 18.2858Z" fill="white"/>
<path d="M139.576 17.1955L139.096 17.3887L141.135 22.4548L141.615 22.2616L139.576 17.1955Z" fill="white"/>
<path d="M142.22 16.1902L141.737 16.375L143.688 21.4759L144.171 21.2911L142.22 16.1902Z" fill="white"/>
<path d="M144.845 15.2055L144.359 15.3818L146.22 20.516L146.707 20.3396L144.845 15.2055Z" fill="white"/>
<path d="M147.477 14.2696L146.987 14.4375L148.759 19.6032L149.248 19.4354L147.477 14.2696Z" fill="white"/>
<path d="M150.124 13.4159L149.632 13.5752L151.313 18.7714L151.805 18.6121L150.124 13.4159Z" fill="white"/>
<path d="M152.797 12.529L152.302 12.6797L153.892 17.9041L154.387 17.7535L152.797 12.529Z" fill="white"/>
<path d="M155.506 11.7858L155.008 11.9277L156.507 17.1794L157.005 17.0374L155.506 11.7858Z" fill="white"/>
<path d="M158.185 11.0327L157.685 11.166L159.092 16.4427L159.592 16.3094L158.185 11.0327Z" fill="white"/>
<path d="M160.882 10.3462L160.38 10.4707L161.694 15.7713L162.196 15.6467L160.882 10.3462Z" fill="white"/>
<path d="M163.639 9.69574L163.135 9.81152L164.357 15.1344L164.861 15.0186L163.639 9.69574Z" fill="white"/>
<path d="M166.379 9.12548L165.873 9.23242L167.002 14.5754L167.508 14.4684L166.379 9.12548Z" fill="white"/>
<path d="M169.127 8.54156L168.619 8.63965L169.654 14.0016L170.162 13.9035L169.127 8.54156Z" fill="white"/>
<path d="M171.878 8.01623L171.368 8.10547L172.31 13.4848L172.82 13.3955L171.878 8.01623Z" fill="white"/>
<path d="M174.632 7.56126L174.121 7.6416L174.969 13.0366L175.48 12.9563L174.632 7.56126Z" fill="white"/>
<path d="M177.386 7.16397L176.874 7.23535L177.627 12.6445L178.14 12.5731L177.386 7.16397Z" fill="white"/>
<path d="M180.181 6.82136L179.668 6.88379L180.327 12.3048L180.841 12.2424L180.181 6.82136Z" fill="white"/>
<path d="M182.937 6.54911L182.423 6.60254L182.987 12.0343L183.501 11.9809L182.937 6.54911Z" fill="white"/>
<path d="M185.748 6.25437L185.232 6.29883L185.701 11.7398L186.217 11.6953L185.748 6.25437Z" fill="white"/>
<path d="M188.559 6.02608L188.043 6.06152L188.417 11.51L188.934 11.4746L188.559 6.02608Z" fill="white"/>
<path d="M191.354 5.85933L190.838 5.88574L191.116 11.3396L191.633 11.3132L191.354 5.85933Z" fill="white"/>
<path d="M194.112 5.75113L193.595 5.76855L193.779 11.2266L194.296 11.2092L194.112 5.75113Z" fill="white"/>
<path d="M196.907 5.7006L196.39 5.70898L196.478 11.1691L196.996 11.1608L196.907 5.7006Z" fill="white"/>
<path d="M199.724 5.70669L199.207 5.70605L199.2 11.1672L199.717 11.1678L199.724 5.70669Z" fill="white"/>
<path d="M202.037 5.71586L201.935 11.1758L202.452 11.1855L202.555 5.72557L202.037 5.71586Z" fill="white"/>
<path d="M204.823 5.76699L204.624 11.2246L205.141 11.2435L205.34 5.78585L204.823 5.76699Z" fill="white"/>
<path d="M207.616 5.88378L207.322 11.3369L207.838 11.3648L208.133 5.9117L207.616 5.88378Z" fill="white"/>
<path d="M210.415 6.03877L210.029 11.4863L210.545 11.5228L210.931 6.07527L210.415 6.03877Z" fill="white"/>
<path d="M213.222 6.24868L212.74 11.6885L213.256 11.7341L213.737 6.29428L213.222 6.24868Z" fill="white"/>
<path d="M215.975 6.5491L215.397 11.9795L215.911 12.0342L216.489 6.60385L215.975 6.5491Z" fill="white"/>
<path d="M218.781 6.84725L218.108 12.2666L218.622 12.3304L219.295 6.911L218.781 6.84725Z" fill="white"/>
<path d="M221.54 7.23004L220.771 12.6367L221.283 12.7096L222.052 7.3029L221.54 7.23004Z" fill="white"/>
<path d="M224.317 7.60709L223.456 13L223.967 13.0815L224.827 7.68859L224.317 7.60709Z" fill="white"/>
<path d="M227.096 8.06934L226.139 13.4463L226.648 13.5369L227.605 8.15999L227.096 8.06934Z" fill="white"/>
<path d="M229.844 8.59224L228.797 13.9521L229.305 14.0513L230.352 8.69142L229.844 8.59224Z" fill="white"/>
<path d="M232.576 9.15205L231.433 14.4922L231.939 14.6004L233.082 9.26029L232.576 9.15205Z" fill="white"/>
<path d="M235.281 9.73975L234.048 15.0596L234.552 15.1764L235.785 9.85658L235.281 9.73975Z" fill="white"/>
<path d="M238.052 10.4117L236.723 15.709L237.225 15.8349L238.554 10.5376L238.052 10.4117Z" fill="white"/>
<path d="M240.763 11.093L239.343 16.3662L239.843 16.5007L241.263 11.2276L240.763 11.093Z" fill="white"/>
<path d="M243.424 11.8321L241.913 17.0801L242.41 17.2232L243.922 11.9753L243.424 11.8321Z" fill="white"/>
<path d="M246.128 12.6207L244.527 17.8418L245.021 17.9935L246.623 12.7725L246.128 12.6207Z" fill="white"/>
<path d="M248.767 13.492L247.075 18.6846L247.567 18.8448L249.259 13.6523L248.767 13.492Z" fill="white"/>
<path d="M251.484 14.3606L249.701 19.5225L250.19 19.6914L251.973 14.5296L251.484 14.3606Z" fill="white"/>
<path d="M254.125 15.3197L252.252 20.4492L252.738 20.6267L254.611 15.4972L254.125 15.3197Z" fill="white"/>
<path d="M256.711 16.2574L254.747 21.3535L255.23 21.5395L257.193 16.4434L256.711 16.2574Z" fill="white"/>
<path d="M259.327 17.3238L257.272 22.3838L257.752 22.5784L259.806 17.5185L259.327 17.3238Z" fill="white"/>
<path d="M261.887 18.4019L259.748 23.4268L260.224 23.6294L262.363 18.6045L261.887 18.4019Z" fill="white"/>
<path d="M264.45 19.5063L262.22 24.4912L262.692 24.7025L264.922 19.7176L264.45 19.5063Z" fill="white"/>
<path d="M267.014 20.6536L264.699 25.5996L265.168 25.8189L267.483 20.8729L267.014 20.6536Z" fill="white"/>
<path d="M269.562 21.8704L267.161 26.7754L267.625 27.0029L270.027 22.0979L269.562 21.8704Z" fill="white"/>
<path d="M272.066 23.0987L269.579 27.9609L270.04 28.1965L272.527 23.3343L272.066 23.0987Z" fill="white"/>
<path d="M274.528 24.4165L271.957 29.2344L272.413 29.478L274.985 24.6601L274.528 24.4165Z" fill="white"/>
<path d="M277.001 25.7195L274.351 30.4941L274.803 30.7452L277.454 25.9705L277.001 25.7195Z" fill="white"/>
<path d="M279.46 27.1461L276.723 31.8721L277.171 32.1313L279.907 27.4053L279.46 27.1461Z" fill="white"/>
<path d="M281.859 28.5594L279.043 33.2383L279.486 33.5051L282.303 28.8262L281.859 28.5594Z" fill="white"/>
<path d="M284.236 30.0133L281.335 34.6396L281.773 34.9146L284.675 30.2882L284.236 30.0133Z" fill="white"/>
<path d="M286.64 31.4874L283.659 36.0635L284.093 36.3459L287.074 31.7698L286.64 31.4874Z" fill="white"/>
<path d="M288.954 33.021L285.893 37.5439L286.322 37.8339L289.382 33.3109L288.954 33.021Z" fill="white"/>
<path d="M291.232 34.6321L288.096 39.1025L288.519 39.3997L291.656 34.9292L291.232 34.6321Z" fill="white"/>
<path d="M293.518 36.2638L290.302 40.6768L290.72 40.9815L293.936 36.5685L293.518 36.2638Z" fill="white"/>
<path d="M295.783 37.9522L292.492 42.3105L292.905 42.6223L296.196 38.264L295.783 37.9522Z" fill="white"/>
<path d="M298.012 39.6704L294.646 43.9707L295.053 44.2896L298.419 39.9893L298.012 39.6704Z" fill="white"/>
<path d="M300.185 41.3535L296.744 45.5947L297.146 45.9206L300.587 41.6794L300.185 41.3535Z" fill="white"/>
<path d="M302.377 43.1375L298.861 47.3164L299.257 47.6495L302.773 43.4706L302.377 43.1375Z" fill="white"/>
<path d="M304.485 44.9728L300.897 49.0898L301.287 49.4298L304.875 45.3127L304.485 44.9728Z" fill="white"/>
<path d="M306.605 46.8349L302.947 50.8896L303.331 51.2362L306.989 47.1815L306.605 46.8349Z" fill="white"/>
<path d="M308.644 48.7163L304.916 52.707L305.294 53.0602L309.022 49.0695L308.644 48.7163Z" fill="white"/>
<path d="M310.675 50.6339L306.878 54.5596L307.25 54.9192L311.047 50.9935L310.675 50.6339Z" fill="white"/>
<path d="M312.702 52.6149L308.836 56.4717L309.201 56.838L313.068 52.9812L312.702 52.6149Z" fill="white"/>
<path d="M314.67 54.6048L310.735 58.3916L311.094 58.7644L315.029 54.9776L314.67 54.6048Z" fill="white"/>
<path d="M316.616 56.6331L312.616 60.3516L312.968 60.7305L316.968 57.012L316.616 56.6331Z" fill="white"/>
<path d="M318.454 58.708L314.39 62.3564L314.736 62.7414L318.799 59.0929L318.454 58.708Z" fill="white"/>
<path d="M320.348 60.7922L316.222 64.3701L316.561 64.761L320.687 61.183L320.348 60.7922Z" fill="white"/>
<path d="M322.154 62.9044L317.967 66.4102L318.299 66.8069L322.486 63.3011L322.154 62.9044Z" fill="white"/>
<path d="M323.902 65.0839L319.652 68.5137L319.977 68.9163L324.227 65.4865L323.902 65.0839Z" fill="white"/>
<path d="M325.642 67.2578L321.334 70.6133L321.652 71.0215L325.96 67.666L325.642 67.2578Z" fill="white"/>
<path d="M327.337 69.4612L322.971 72.7412L323.281 73.1549L327.648 69.8748L327.337 69.4612Z" fill="white"/>
<path d="M329.056 71.7381L324.635 74.9443L324.938 75.3632L329.359 72.1569L329.056 71.7381Z" fill="white"/>
<path d="M330.677 74.0133L326.199 77.1387L326.495 77.5629L330.974 74.4376L330.677 74.0133Z" fill="white"/>
<path d="M332.255 76.2963L327.725 79.3457L328.014 79.7749L332.544 76.7255L332.255 76.2963Z" fill="white"/>
<path d="M333.793 78.6447L329.209 81.6143L329.491 82.0485L334.074 79.0789L333.793 78.6447Z" fill="white"/>
<path d="M335.318 81.0345L330.685 83.9248L330.959 84.3638L335.592 81.4735L335.318 81.0345Z" fill="white"/>
<path d="M336.806 83.442L332.12 86.2471L332.386 86.691L337.072 83.8859L336.806 83.442Z" fill="white"/>
<path d="M338.201 85.852L333.468 88.5762L333.726 89.0246L338.459 86.3004L338.201 85.852Z" fill="white"/>
<path d="M339.575 88.2361L334.794 90.875L335.044 91.328L339.825 88.689L339.575 88.2361Z" fill="white"/>
<path d="M340.933 90.7241L336.109 93.2832L336.351 93.7402L341.176 91.1811L340.933 90.7241Z" fill="white"/>
<path d="M342.234 93.1822L337.365 95.6572L337.6 96.1184L342.468 93.6435L342.234 93.1822Z" fill="white"/>
<path d="M343.464 95.7348L338.553 98.124L338.779 98.5893L343.69 96.2001L343.464 95.7348Z" fill="white"/>
<path d="M344.67 98.2264L339.718 100.529L339.936 100.998L344.888 98.6955L344.67 98.2264Z" fill="white"/>
<path d="M345.86 100.794L340.869 103.012L341.079 103.484L346.07 101.266L345.86 100.794Z" fill="white"/>
<path d="M346.971 103.363L341.941 105.489L342.142 105.966L347.172 103.839L346.971 103.363Z" fill="white"/>
<path d="M348.027 105.941L342.962 107.983L343.155 108.463L348.22 106.421L348.027 105.941Z" fill="white"/>
<path d="M349.073 108.504L343.972 110.455L344.156 110.938L349.257 108.987L349.073 108.504Z" fill="white"/>
<path d="M349.995 111.155L344.86 113.016L345.037 113.502L350.171 111.641L349.995 111.155Z" fill="white"/>
<path d="M350.937 113.782L345.771 115.552L345.939 116.041L351.105 114.271L350.937 113.782Z" fill="white"/>
<path d="M351.889 116.463L346.692 118.142L346.851 118.634L352.048 116.955L351.889 116.463Z" fill="white"/>
<path d="M352.7 119.106L347.475 120.694L347.626 121.189L352.851 119.601L352.7 119.106Z" fill="white"/>
<path d="M353.516 121.78L348.265 123.278L348.407 123.776L353.658 122.278L353.516 121.78Z" fill="white"/>
<path d="M354.21 124.48L348.933 125.887L349.066 126.387L354.343 124.98L354.21 124.48Z" fill="white"/>
<path d="M354.951 127.233L349.65 128.549L349.775 129.051L355.076 127.735L354.951 127.233Z" fill="white"/>
<path d="M355.551 129.926L350.228 131.146L350.344 131.65L355.667 130.43L355.551 129.926Z" fill="white"/>
<path d="M356.207 132.65L350.864 133.779L350.971 134.285L356.314 133.156L356.207 132.65Z" fill="white"/>
<path d="M356.761 135.411L351.398 136.445L351.496 136.953L356.859 135.919L356.761 135.411Z" fill="white"/>
<path d="M357.295 138.157L351.916 139.101L352.005 139.61L357.384 138.667L357.295 138.157Z" fill="white"/>
<path d="M357.735 140.919L352.34 141.766L352.42 142.277L357.815 141.43L357.735 140.919Z" fill="white"/>
<path d="M358.148 143.736L352.739 144.492L352.811 145.005L358.219 144.249L358.148 143.736Z" fill="white"/>
<path d="M358.49 146.483L353.069 147.143L353.131 147.656L358.552 146.997L358.49 146.483Z" fill="white"/>
<path d="M358.854 149.269L353.423 149.834L353.476 150.349L358.908 149.784L358.854 149.269Z" fill="white"/>
<path d="M359.088 152.028L353.648 152.496L353.692 153.012L359.133 152.543L359.088 152.028Z" fill="white"/>
<path d="M359.33 154.836L353.881 155.208L353.917 155.724L359.365 155.352L359.33 154.836Z" fill="white"/>
<path d="M359.501 157.639L354.047 157.92L354.073 158.437L359.527 158.155L359.501 157.639Z" fill="white"/>
<path d="M359.63 160.449L354.172 160.635L354.19 161.152L359.648 160.966L359.63 160.449Z" fill="white"/>
<path d="M359.667 163.247L354.207 163.337L354.215 163.854L359.675 163.765L359.667 163.247Z" fill="white"/>
<path d="M359.166 166.579L354.28 166.573L354.281 165.998L359.742 166.005C359.684 166.35 359.454 166.579 359.166 166.579Z" fill="white"/>
<path d="M337.153 163.792L337.154 162.814L340.316 162.818C340.661 162.819 341.063 162.819 341.523 162.877C341.523 162.877 341.408 162.82 341.293 162.704C341.178 162.589 340.949 162.359 340.604 162.071L341.237 161.497L342.557 162.936L342.556 163.856L337.153 163.849L337.153 163.792Z" fill="white"/>
<path d="M342.668 166.385C342.668 166.788 342.552 167.133 342.322 167.42C342.092 167.649 341.747 167.821 341.344 167.821C341.114 167.821 340.884 167.763 340.655 167.648C340.425 167.532 340.253 167.302 340.081 167.072C339.85 167.417 339.62 167.589 339.39 167.761C339.16 167.876 338.872 167.933 338.642 167.932C338.182 167.932 337.838 167.817 337.551 167.529C337.264 167.241 337.149 166.896 337.15 166.436C337.15 165.976 337.266 165.574 337.553 165.344C337.784 165.057 338.186 164.943 338.646 164.943C338.933 164.944 339.221 165.001 339.451 165.117C339.68 165.232 339.91 165.462 340.082 165.75C340.312 165.52 340.485 165.29 340.715 165.176C340.945 165.061 341.175 165.004 341.405 165.004C341.808 165.005 342.152 165.12 342.382 165.408C342.497 165.638 342.669 165.983 342.668 166.385ZM338.587 165.863C338.357 165.863 338.185 165.92 338.07 165.977C337.955 166.092 337.897 166.207 337.897 166.379C337.897 166.552 337.954 166.724 338.069 166.782C338.184 166.897 338.356 166.897 338.586 166.898C338.759 166.898 338.874 166.841 339.046 166.783C339.161 166.726 339.334 166.554 339.507 166.381L339.564 166.324C339.449 166.151 339.334 166.036 339.162 165.979C338.99 165.921 338.817 165.863 338.587 165.863ZM341.863 166.384C341.864 166.269 341.806 166.154 341.691 166.039C341.577 165.982 341.462 165.924 341.232 165.924C341.059 165.923 340.944 165.981 340.829 166.038C340.714 166.096 340.599 166.21 340.426 166.383C340.541 166.555 340.656 166.67 340.828 166.728C340.943 166.786 341.116 166.843 341.288 166.844C341.633 166.844 341.863 166.672 341.863 166.384Z" fill="white"/>
<path d="M339.845 171.382C338.867 171.381 338.178 171.265 337.718 171.035C337.258 170.804 337.086 170.402 337.087 169.884C337.088 169.367 337.318 168.965 337.778 168.735C338.238 168.506 338.928 168.392 339.906 168.393C340.883 168.394 341.573 168.51 342.032 168.741C342.492 168.971 342.721 169.374 342.721 169.891C342.72 170.409 342.49 170.811 342.087 171.04C341.569 171.269 340.822 171.384 339.845 171.382ZM339.847 169.428C339.1 169.427 338.582 169.484 338.295 169.541C338.007 169.598 337.892 169.713 337.892 169.885C337.892 170 337.949 170.115 338.064 170.173C338.179 170.231 338.351 170.288 338.639 170.346C338.926 170.404 339.328 170.404 339.846 170.405C340.593 170.406 341.11 170.349 341.398 170.292C341.685 170.235 341.801 170.12 341.801 169.89C341.801 169.718 341.686 169.603 341.399 169.545C341.112 169.487 340.594 169.429 339.847 169.428Z" fill="white"/>
<path d="M334.652 139.932L334.481 138.954L337.644 138.383C337.989 138.326 338.391 138.269 338.851 138.212C338.851 138.212 338.736 138.155 338.621 138.039C338.506 137.924 338.219 137.752 337.817 137.521L338.335 136.832L339.886 138.041L340.057 138.904L334.652 139.932Z" fill="white"/>
<path d="M334.881 141.369L339.594 142.065L339.251 140.225L340.114 140.053L340.628 142.928L339.938 143.042L335.11 142.404L334.881 141.369Z" fill="white"/>
<path d="M338.611 146.893C337.634 147.064 336.944 147.063 336.427 146.89C335.967 146.717 335.68 146.372 335.566 145.855C335.451 145.337 335.624 144.935 336.027 144.648C336.43 144.361 337.12 144.132 338.04 143.961C339.017 143.789 339.707 143.79 340.224 143.963C340.684 144.136 340.971 144.482 341.085 144.942C341.2 145.459 341.027 145.861 340.624 146.148C340.336 146.493 339.646 146.722 338.611 146.893ZM338.326 144.996C337.579 145.11 337.061 145.224 336.831 145.339C336.601 145.453 336.486 145.568 336.485 145.798C336.485 145.913 336.6 146.028 336.715 146.028C336.83 146.086 337.06 146.086 337.29 146.087C337.577 146.087 337.922 146.03 338.497 145.916C339.245 145.802 339.705 145.687 339.992 145.573C340.222 145.458 340.338 145.286 340.338 145.113C340.281 144.941 340.166 144.825 339.878 144.825C339.533 144.825 339.016 144.882 338.326 144.996Z" fill="white"/>
<path d="M328.07 116.814L327.726 115.893L330.717 114.805C331.062 114.69 331.407 114.576 331.867 114.461C331.809 114.461 331.752 114.404 331.58 114.346C331.407 114.288 331.12 114.173 330.718 114L331.121 113.253L332.845 114.175L333.131 115.038L328.07 116.814Z" fill="white"/>
<path d="M330.6 117.047C331.635 116.646 332.44 116.532 333.072 116.705C333.647 116.878 334.106 117.281 334.335 117.914C334.392 118.029 334.392 118.144 334.45 118.259C334.449 118.374 334.507 118.431 334.507 118.489L333.702 118.775C333.702 118.603 333.645 118.43 333.587 118.258C333.473 117.97 333.358 117.798 333.186 117.682C333.013 117.567 332.783 117.509 332.496 117.509C332.209 117.509 331.864 117.566 331.461 117.68L331.461 117.738C331.691 117.738 331.863 117.796 332.036 117.911C332.208 118.026 332.323 118.141 332.38 118.371C332.495 118.716 332.437 119.004 332.264 119.348C332.034 119.635 331.688 119.865 331.171 120.094C330.653 120.266 330.136 120.323 329.733 120.207C329.331 120.092 329.044 119.804 328.872 119.344C328.7 118.884 328.758 118.482 329.046 118.08C329.334 117.62 329.852 117.333 330.6 117.047ZM329.677 118.943C329.735 119.058 329.85 119.173 330.022 119.173C330.194 119.231 330.482 119.174 330.77 119.059C331.057 118.944 331.23 118.83 331.345 118.715C331.46 118.6 331.518 118.428 331.46 118.313C331.403 118.198 331.288 118.082 331.116 118.082C330.943 118.025 330.771 118.082 330.541 118.139C330.196 118.254 329.966 118.368 329.793 118.54C329.678 118.655 329.62 118.828 329.677 118.943Z" fill="white"/>
<path d="M333.178 123.028C332.258 123.371 331.568 123.485 331.051 123.427C330.534 123.369 330.247 123.081 330.017 122.564C329.845 122.046 329.903 121.644 330.249 121.299C330.594 120.955 331.227 120.611 332.147 120.267C333.067 119.923 333.757 119.809 334.275 119.867C334.792 119.925 335.136 120.213 335.308 120.731C335.48 121.248 335.422 121.651 335.077 121.995C334.789 122.34 334.156 122.684 333.178 123.028ZM332.491 121.187C331.801 121.474 331.283 121.646 331.053 121.818C330.823 121.99 330.765 122.105 330.822 122.277C330.88 122.392 330.937 122.45 331.11 122.508C331.225 122.508 331.454 122.508 331.684 122.451C331.915 122.394 332.317 122.279 332.835 122.107C333.525 121.878 333.985 121.649 334.215 121.477C334.445 121.304 334.56 121.132 334.446 120.96C334.388 120.787 334.216 120.729 333.929 120.729C333.699 120.786 333.239 120.901 332.491 121.187Z" fill="white"/>
<path d="M317.519 95.1855L317.003 94.3226L319.764 92.7164C320.052 92.5443 320.397 92.3723 320.8 92.1428C320.742 92.1427 320.685 92.1427 320.512 92.085C320.34 92.0273 320.052 91.9694 319.593 91.8539L319.824 91.0494L321.72 91.6266L322.179 92.4319L317.519 95.1855Z" fill="white"/>
<path d="M321.831 95.8226C322.06 96.1678 322.06 96.5127 321.944 96.8575C321.829 97.2022 321.541 97.4893 321.138 97.7762C320.621 98.063 320.161 98.1774 319.701 98.0619C319.241 97.9463 318.896 97.6585 318.667 97.1983C318.438 96.7956 318.323 96.3931 318.324 96.0482L319.129 95.5893C319.129 95.7618 319.129 95.9342 319.186 96.1067C319.243 96.3368 319.3 96.5093 319.358 96.6243C319.645 97.0846 320.047 97.1425 320.565 96.8558C321.082 96.569 321.198 96.2242 320.911 95.764C320.796 95.5914 320.681 95.4188 320.509 95.2461L320.567 94.8438L323.04 93.6396L324.188 95.653L323.382 96.1119L322.637 94.8463L321.601 95.3624C321.601 95.5349 321.716 95.65 321.831 95.8226Z" fill="white"/>
<path d="M323.664 100.424C322.802 100.941 322.111 101.17 321.652 101.169C321.134 101.168 320.79 100.938 320.503 100.535C320.216 100.075 320.216 99.6152 320.504 99.2132C320.792 98.8111 321.31 98.3519 322.173 97.8356C323.036 97.3193 323.726 97.0902 324.186 97.0907C324.703 97.0914 325.048 97.3218 325.335 97.7245C325.622 98.1848 325.621 98.5872 325.333 99.0467C325.103 99.4488 324.527 99.908 323.664 100.424ZM322.689 98.6985C322.056 99.1001 321.596 99.387 321.424 99.5592C321.251 99.7315 321.193 99.9039 321.25 100.076C321.308 100.191 321.423 100.249 321.538 100.249C321.653 100.249 321.883 100.192 322.113 100.077C322.343 99.9628 322.688 99.7907 323.148 99.5039C323.781 99.1022 324.241 98.8729 324.414 98.6431C324.644 98.471 324.644 98.2985 324.587 98.126C324.472 97.9534 324.3 97.9532 324.07 98.0104C323.782 98.125 323.322 98.3544 322.689 98.6985Z" fill="white"/>
<path d="M303.402 75.7377L302.77 74.9896L305.245 72.9232C305.532 72.6936 305.82 72.464 306.223 72.1771C306.165 72.177 306.108 72.1769 305.935 72.1767C305.763 72.1765 305.475 72.1762 305.016 72.1181L305.132 71.3135L307.086 71.5458L307.66 72.2364L303.402 75.7377Z" fill="white"/>
<path d="M307.02 78.2717L306.675 77.8689L305.812 78.6152L305.181 77.8671L306.044 77.1208L304.896 75.7397L305.529 75.2232L309.267 74.2505L309.955 75.0562L307.308 77.2948L307.653 77.6977L307.02 78.2717ZM306.677 76.5467L307.54 75.8005L307.943 75.5136L308.346 75.2266C308.058 75.3412 307.828 75.3985 307.598 75.4557L306.103 75.8562L306.677 76.5467Z" fill="white"/>
<path d="M310.352 79.8275C309.604 80.4589 308.971 80.803 308.511 80.9174C308.051 81.0318 307.591 80.8588 307.247 80.456C306.903 80.0532 306.846 79.5932 307.019 79.191C307.191 78.7888 307.652 78.2145 308.458 77.5832C309.206 76.9518 309.839 76.6076 310.356 76.4933C310.874 76.379 311.276 76.5519 311.62 76.9547C311.965 77.3576 312.022 77.76 311.849 78.2197C311.618 78.6218 311.157 79.1961 310.352 79.8275ZM309.089 78.3313C308.514 78.8479 308.111 79.1924 307.996 79.4222C307.823 79.6519 307.823 79.8243 307.937 79.9395C307.995 80.0545 308.11 80.0546 308.282 80.0549C308.397 80.055 308.57 79.9402 308.8 79.8256C309.03 79.6534 309.318 79.4238 309.721 79.0794C310.296 78.6202 310.641 78.2182 310.814 77.9885C310.987 77.7588 310.987 77.5863 310.872 77.4137C310.757 77.2986 310.585 77.2409 310.297 77.413C310.125 77.5278 309.665 77.8146 309.089 78.3313Z" fill="white"/>
<path d="M286.119 59.0457L285.372 58.4124L287.445 55.9431C287.675 55.6559 287.963 55.3689 288.251 55.0818C288.193 55.0817 288.136 55.0816 287.963 55.1389C287.791 55.1387 287.503 55.1958 287.043 55.2528L286.987 54.3904L288.941 54.2778L289.63 54.8535L286.119 59.0457Z" fill="white"/>
<path d="M291.866 58.3034C291.636 58.5905 291.406 58.7052 291.118 58.8198C290.831 58.877 290.543 58.8766 290.256 58.7038C290.486 58.9915 290.6 59.2216 290.6 59.509C290.6 59.7965 290.484 60.0837 290.254 60.3709C289.908 60.7729 289.563 60.9449 289.103 61.0018C288.701 61.0013 288.241 60.8858 287.839 60.5404C287.495 60.2525 287.208 59.9072 287.093 59.5622L287.669 58.8731C287.726 59.0456 287.841 59.2182 287.898 59.3907C288.013 59.5633 288.128 59.6784 288.243 59.7935C288.472 59.9663 288.645 60.0815 288.875 60.0818C289.047 60.082 289.277 59.9673 289.45 59.7375C289.795 59.3356 289.738 58.8756 289.222 58.4726L288.992 58.2998L289.452 57.7255L289.682 57.8983C289.912 58.071 290.142 58.1863 290.314 58.1865C290.544 58.1868 290.717 58.072 290.889 57.8423C291.005 57.67 291.12 57.4977 291.062 57.3826C291.063 57.2102 291.005 57.0951 290.833 56.9799C290.603 56.8072 290.316 56.6919 289.971 56.7489L290.029 55.9442C290.547 55.8874 291.007 56.0604 291.466 56.4059C291.811 56.6937 292.04 57.0389 292.04 57.3838C292.212 57.6715 292.096 58.0162 291.866 58.3034Z" fill="white"/>
<path d="M293.704 61.8146C293.071 62.5611 292.495 63.0203 292.035 63.1922C291.575 63.3641 291.115 63.306 290.713 62.9606C290.311 62.6152 290.139 62.2126 290.255 61.7529C290.37 61.2931 290.716 60.6612 291.349 59.9147C291.983 59.1681 292.558 58.709 293.018 58.5371C293.478 58.3652 293.938 58.4232 294.282 58.7686C294.684 59.114 294.856 59.5166 294.741 59.9763C294.74 60.4362 294.337 61.0681 293.704 61.8146ZM292.211 60.5481C291.693 61.1223 291.405 61.5243 291.289 61.8116C291.174 62.0414 291.174 62.2139 291.346 62.3291C291.461 62.3867 291.576 62.4443 291.691 62.387C291.806 62.3296 291.979 62.2149 292.151 62.0426C292.324 61.8704 292.612 61.5833 292.957 61.1813C293.418 60.6071 293.763 60.2051 293.879 59.9178C293.994 59.688 293.994 59.4581 293.879 59.3429C293.765 59.2278 293.535 59.2275 293.304 59.3997C293.017 59.6293 292.671 59.9738 292.211 60.5481Z" fill="white"/>
<path d="M266.245 45.5683L265.383 45.0499L266.996 42.2926C267.169 42.0054 267.4 41.6607 267.63 41.2586C267.63 41.2586 267.515 41.316 267.342 41.3732C267.17 41.4305 266.882 41.4876 266.422 41.6595L266.251 40.8545L268.148 40.397L268.953 40.8578L266.245 45.5683Z" fill="white"/>
<path d="M269.691 47.5837L267.164 46.1435L267.567 45.5116L269.062 44.8236C269.465 44.6517 269.753 44.4796 269.983 44.3649C270.155 44.2501 270.328 44.1354 270.443 44.0205C270.558 43.9057 270.673 43.7334 270.789 43.6186C270.904 43.4462 270.904 43.2738 270.904 43.1588C270.904 43.0438 270.789 42.9287 270.675 42.8136C270.56 42.756 270.445 42.6984 270.33 42.6982C270.215 42.6981 269.985 42.7553 269.755 42.8125L269.583 42.0075C269.928 41.8929 270.273 41.8359 270.503 41.8361C270.733 41.8364 270.963 41.9517 271.193 42.0669C271.595 42.2974 271.825 42.5851 271.882 42.9301C271.939 43.2751 271.881 43.6199 271.65 44.022C271.535 44.1943 271.42 44.3667 271.305 44.4815C271.19 44.5963 271.017 44.7686 270.844 44.8833C270.672 44.9981 270.499 45.1128 270.269 45.2275C270.039 45.3422 269.521 45.5715 268.659 45.9154L270.21 46.7796L269.691 47.5837Z" fill="white"/>
<path d="M274.177 47.0152C273.658 47.8768 273.198 48.4511 272.795 48.6806C272.392 48.9675 271.932 48.9669 271.473 48.6789C271.013 48.391 270.784 48.0458 270.842 47.5285C270.842 47.0111 271.131 46.3791 271.592 45.5174C272.11 44.6557 272.571 44.1389 272.973 43.852C273.376 43.5651 273.836 43.5656 274.295 43.8536C274.755 44.1416 274.984 44.4868 274.926 45.0041C274.926 45.464 274.637 46.1535 274.177 47.0152ZM272.453 46.0358C272.05 46.6677 271.82 47.1273 271.762 47.4146C271.704 47.702 271.704 47.8744 271.876 47.9321C271.991 47.9898 272.106 47.9899 272.221 47.9326C272.336 47.8752 272.451 47.7029 272.624 47.5307C272.797 47.3009 272.969 46.9562 273.257 46.4967C273.661 45.8649 273.834 45.4052 273.949 45.1179C274.007 44.8305 274.007 44.6581 273.835 44.6004C273.662 44.4852 273.49 44.5425 273.317 44.7722C273.144 44.9444 272.856 45.404 272.453 46.0358Z" fill="white"/>
<path d="M244.298 35.7692L243.378 35.4231L244.474 32.4352C244.59 32.0904 244.762 31.7457 244.935 31.3436C244.935 31.3436 244.82 31.4009 244.705 31.5157C244.533 31.573 244.303 31.7452 243.842 31.9171L243.498 31.1693L245.339 30.4243L246.201 30.7128L244.298 35.7692Z" fill="white"/>
<path d="M247.572 36.9801L246.653 36.6341L247.749 33.6462C247.864 33.3014 248.037 32.9567 248.21 32.5545C248.21 32.5545 248.095 32.6118 247.98 32.7267C247.807 32.7839 247.577 32.9561 247.117 33.128L246.773 32.3803L248.614 31.6352L249.475 31.9237L247.572 36.9801Z" fill="white"/>
<path d="M252.345 35.836C251.999 36.7554 251.654 37.3873 251.308 37.7318C250.963 38.0763 250.503 38.1332 249.986 37.9601C249.469 37.787 249.239 37.4418 249.125 36.9243C249.068 36.4069 249.184 35.7172 249.53 34.7978C249.876 33.8785 250.222 33.2466 250.624 32.9021C251.027 32.5577 251.43 32.5007 251.889 32.6738C252.407 32.8469 252.636 33.1921 252.75 33.6521C252.807 34.1695 252.691 34.9167 252.345 35.836ZM250.507 35.1439C250.218 35.8334 250.103 36.3506 250.045 36.638C250.045 36.9254 250.102 37.098 250.274 37.1557C250.389 37.2133 250.504 37.1559 250.619 37.0986C250.734 37.0413 250.849 36.8689 250.965 36.6391C251.08 36.4093 251.253 36.0072 251.426 35.5475C251.657 34.8579 251.83 34.3408 251.83 34.0534C251.831 33.7659 251.773 33.5934 251.601 33.5357C251.429 33.478 251.256 33.5353 251.083 33.765C250.968 33.9948 250.737 34.4544 250.507 35.1439Z" fill="white"/>
<path d="M220.965 29.9346L219.988 29.7609L220.567 26.5999C220.625 26.2551 220.74 25.8528 220.856 25.4506C220.856 25.4506 220.741 25.5079 220.626 25.6228C220.51 25.7376 220.223 25.9097 219.878 26.1967L219.419 25.5063L221.087 24.4161L221.949 24.5896L220.965 29.9346Z" fill="white"/>
<path d="M225.451 27.9858C225.278 28.9628 225.047 29.6524 224.702 29.9969C224.414 30.3989 223.954 30.5133 223.436 30.4552C222.919 30.3396 222.575 30.0517 222.46 29.5917C222.288 29.1316 222.347 28.3844 222.52 27.4073C222.694 26.4303 222.925 25.7407 223.27 25.3387C223.558 24.9367 224.018 24.7648 224.478 24.8804C224.995 24.996 225.34 25.2263 225.454 25.7438C225.626 26.2614 225.625 27.0087 225.451 27.9858ZM223.497 27.6385C223.381 28.3856 223.323 28.9029 223.323 29.1904C223.323 29.4778 223.437 29.5929 223.61 29.6506C223.725 29.6507 223.84 29.6509 223.897 29.536C224.013 29.4212 224.07 29.2488 224.128 29.0189C224.186 28.789 224.301 28.3868 224.359 27.8695C224.475 27.1223 224.533 26.605 224.534 26.3176C224.534 26.0301 224.419 25.8575 224.247 25.8573C224.075 25.7996 223.902 25.9144 223.787 26.2017C223.786 26.3741 223.671 26.8914 223.497 27.6385Z" fill="white"/>
<path d="M228.9 28.6225C228.726 29.5995 228.495 30.2891 228.15 30.6336C227.862 31.0356 227.402 31.15 226.885 31.0919C226.367 30.9763 226.023 30.6884 225.908 30.2284C225.737 29.7683 225.795 29.0211 225.969 28.044C226.142 27.067 226.373 26.3774 226.719 25.9755C227.006 25.5734 227.467 25.4015 227.926 25.5171C228.444 25.6327 228.788 25.863 228.903 26.3806C229.132 26.8982 229.073 27.588 228.9 28.6225ZM227.003 28.2752C226.887 29.0224 226.829 29.5397 226.829 29.8271C226.828 30.1146 226.943 30.2297 227.116 30.2874C227.231 30.2875 227.346 30.2877 227.403 30.1728C227.518 30.0579 227.576 29.8856 227.634 29.6557C227.692 29.4258 227.807 29.0236 227.865 28.5063C227.981 27.7591 228.039 27.2418 228.04 26.9544C228.04 26.6669 227.925 26.4943 227.753 26.4941C227.58 26.4364 227.408 26.5512 227.292 26.8385C227.235 27.0108 227.119 27.5281 227.003 28.2752Z" fill="white"/>
<path d="M198.545 30.1951C198.539 34.794 196.984 37.034 193.937 37.0302C193.42 37.0296 193.018 36.9716 192.673 36.9137L192.675 35.0742C193.02 35.1896 193.365 35.2475 193.71 35.2479C194.629 35.249 195.32 34.9625 195.78 34.3307C196.241 33.6989 196.53 32.722 196.589 31.3424L196.531 31.3424C196.358 31.7446 196.128 32.0892 195.783 32.3187C195.438 32.5482 195.093 32.6628 194.633 32.6622C193.828 32.6612 193.196 32.3155 192.737 31.6826C192.278 30.9922 192.049 30.1296 192.05 28.9799C192.052 27.7152 192.341 26.6808 192.916 25.9917C193.492 25.2451 194.297 24.9012 195.275 24.9024C196.309 24.9037 197.171 25.3646 197.687 26.285C198.261 27.148 198.547 28.4706 198.545 30.1951ZM195.272 26.742C194.927 26.7415 194.697 26.9137 194.467 27.2583C194.294 27.603 194.178 28.1777 194.177 28.9251C194.177 29.5574 194.234 30.0174 194.406 30.3625C194.578 30.7076 194.807 30.8804 195.152 30.8808C195.44 30.8811 195.727 30.709 195.958 30.3644C196.188 30.0198 196.304 29.6175 196.304 29.1576C196.305 28.4678 196.191 27.8928 196.019 27.4327C195.847 26.9726 195.617 26.7424 195.272 26.742Z" fill="white"/>
<path d="M206.304 31.0087C206.302 33.1357 206.012 34.6875 205.494 35.6641C204.975 36.6407 204.17 37.0996 203.02 37.0982C201.87 37.0967 201.066 36.6359 200.55 35.658C200.034 34.6801 199.806 33.1277 199.808 31.0007C199.811 28.8737 200.1 27.322 200.619 26.3454C201.138 25.3687 201.943 24.9099 203.093 24.9113C204.242 24.9127 205.047 25.3736 205.563 26.3515C206.022 27.2143 206.307 28.8243 206.304 31.0087ZM201.993 31.0034C201.991 32.6705 202.047 33.7628 202.219 34.3379C202.333 34.9129 202.62 35.2006 203.022 35.2011C203.31 35.2015 203.483 35.0867 203.655 34.7995C203.828 34.5698 203.886 34.11 204.002 33.5353C204.06 32.9605 204.119 32.0983 204.12 30.9485C204.122 29.3389 204.066 28.1892 203.894 27.6141C203.722 27.039 203.493 26.6938 203.09 26.6933C202.688 26.6928 202.4 26.9799 202.285 27.5546C202.054 28.2442 201.995 29.3363 201.993 31.0034Z" fill="white"/>
<path d="M172.567 25.2173C172.97 25.1603 173.314 25.2182 173.602 25.391C173.889 25.5638 174.061 25.9089 174.118 26.3114C174.175 26.5414 174.117 26.8288 174.06 27.0012C174.002 27.231 173.829 27.4608 173.599 27.6904C173.943 27.8633 174.231 28.0361 174.403 28.2663C174.575 28.4964 174.69 28.7265 174.747 29.014C174.804 29.474 174.746 29.8188 174.515 30.1634C174.285 30.4506 173.94 30.6801 173.538 30.7371C173.078 30.794 172.675 30.736 172.388 30.5632C172.101 30.3329 171.871 30.0452 171.814 29.5853C171.757 29.2978 171.758 29.0103 171.873 28.723C171.988 28.4358 172.104 28.206 172.391 27.9764C172.104 27.8036 171.874 27.6308 171.76 27.4582C171.587 27.2855 171.53 27.0555 171.473 26.768C171.416 26.3656 171.474 26.0207 171.704 25.7336C171.819 25.5038 172.165 25.3317 172.567 25.2173ZM172.681 26.0222C172.566 26.0221 172.451 26.1369 172.393 26.2518C172.336 26.3667 172.336 26.5392 172.335 26.7116C172.335 26.8841 172.392 26.9991 172.507 27.1142C172.565 27.2293 172.737 27.3445 172.909 27.4596C173.024 27.2873 173.14 27.1725 173.197 27.0001C173.255 26.8852 173.255 26.7127 173.198 26.5402C173.141 26.1377 172.969 25.9651 172.681 26.0222ZM172.734 29.3564C172.792 29.5865 172.849 29.759 172.964 29.8741C173.079 29.9892 173.193 30.0468 173.366 29.9896C173.539 29.9323 173.654 29.875 173.711 29.7026C173.769 29.5877 173.769 29.3577 173.769 29.1853C173.77 29.0128 173.655 28.8977 173.597 28.7827C173.483 28.6675 173.31 28.5524 173.081 28.3796L173.023 28.3221C172.908 28.4944 172.793 28.6092 172.735 28.7816C172.677 28.954 172.677 29.1264 172.734 29.3564Z" fill="white"/>
<path d="M177.969 27.121C178.14 28.0984 178.139 28.7883 177.966 29.3054C177.793 29.7651 177.448 30.0521 176.93 30.1664C176.413 30.2808 176.011 30.1078 175.724 29.7051C175.437 29.3023 175.208 28.6122 175.036 27.6922C174.865 26.7147 174.866 26.0249 175.039 25.5078C175.212 25.0481 175.557 24.7611 176.017 24.6467C176.535 24.5324 176.937 24.7053 177.224 25.1081C177.568 25.4534 177.797 26.1435 177.969 27.121ZM176.014 27.4635C176.128 28.2109 176.242 28.7284 176.357 28.9585C176.472 29.1886 176.586 29.3037 176.816 29.304C176.931 29.3042 177.046 29.1893 177.047 29.0744C177.104 28.9595 177.104 28.7295 177.105 28.4996C177.105 28.2121 177.048 27.8672 176.934 27.2922C176.82 26.5447 176.705 26.0847 176.591 25.7971C176.476 25.567 176.304 25.4518 176.131 25.4516C175.959 25.5089 175.844 25.6237 175.843 25.9112C175.843 26.1986 175.9 26.716 176.014 27.4635Z" fill="white"/>
<path d="M149.327 37.5476L149.218 32.7762L147.435 33.4063L147.149 32.5437L149.909 31.5698L150.138 32.2024L150.362 37.1465L149.327 37.5476Z" fill="white"/>
<path d="M154.161 32.9555C154.505 33.8757 154.619 34.5657 154.561 35.083C154.503 35.6003 154.215 35.8874 153.698 36.1167C153.18 36.2885 152.778 36.2305 152.433 35.8852C152.089 35.5398 151.745 34.9071 151.401 33.9869C151.057 33.0667 150.943 32.3767 151.001 31.8594C151.059 31.3421 151.347 30.9975 151.865 30.8257C152.382 30.6539 152.785 30.7119 153.129 31.0572C153.474 31.3451 153.818 31.9778 154.161 32.9555ZM152.321 33.5856C152.608 34.2758 152.779 34.7934 152.952 35.0235C153.124 35.2537 153.239 35.3113 153.411 35.254C153.526 35.1967 153.584 35.1393 153.642 34.9669C153.642 34.8519 153.642 34.622 153.585 34.392C153.528 34.1619 153.413 33.7594 153.241 33.2418C153.012 32.5517 152.783 32.0915 152.611 31.8614C152.438 31.6312 152.266 31.516 152.094 31.6308C151.921 31.6881 151.863 31.8605 151.863 32.1479C151.92 32.4354 152.034 32.8954 152.321 33.5856Z" fill="white"/>
<path d="M126.839 46.2582C126.266 45.2802 126.037 44.5326 126.095 43.9004C126.153 43.2681 126.441 42.8086 127.074 42.4644C127.189 42.4071 127.247 42.3497 127.362 42.2923C127.477 42.235 127.534 42.2351 127.592 42.1776L127.993 42.9254C127.821 42.9827 127.648 43.04 127.533 43.1548C127.303 43.2695 127.13 43.4418 127.015 43.6716C126.9 43.8439 126.9 44.0738 126.957 44.3613C127.014 44.6488 127.128 44.9364 127.3 45.339L127.358 45.3391C127.358 45.1091 127.358 44.9367 127.416 44.7643C127.474 44.5919 127.646 44.4771 127.819 44.3624C128.107 44.1903 128.452 44.1907 128.796 44.3061C129.141 44.479 129.428 44.7668 129.715 45.227C130.002 45.7447 130.116 46.2048 130.058 46.6071C130 47.0094 129.77 47.354 129.367 47.5835C128.964 47.8129 128.505 47.8124 128.102 47.6394C127.643 47.4089 127.241 46.9485 126.839 46.2582ZM128.908 46.8356C129.023 46.7783 129.081 46.6059 129.081 46.4334C129.081 46.261 128.967 46.0309 128.795 45.6858C128.68 45.4557 128.508 45.283 128.335 45.1678C128.163 45.0526 128.048 45.0525 127.876 45.1672C127.76 45.2246 127.703 45.3395 127.703 45.5694C127.702 45.7419 127.76 45.9144 127.874 46.1445C128.046 46.4321 128.219 46.6623 128.391 46.7775C128.621 46.8927 128.793 46.893 128.908 46.8356Z" fill="white"/>
<path d="M132.248 42.6446C132.764 43.5075 132.993 44.1976 132.993 44.6575C132.992 45.1749 132.762 45.5195 132.359 45.8064C131.899 46.0933 131.439 46.0927 131.037 45.8048C130.635 45.5169 130.176 44.9989 129.659 44.136C129.143 43.2731 128.914 42.583 128.915 42.1231C128.915 41.6057 129.146 41.2611 129.548 40.9742C130.009 40.6873 130.411 40.6878 130.871 40.9758C131.33 41.2063 131.789 41.7817 132.248 42.6446ZM130.58 43.6198C130.981 44.2526 131.268 44.7129 131.441 44.8855C131.613 45.0582 131.785 45.1159 131.958 45.0586C132.073 45.0013 132.13 44.8864 132.131 44.7714C132.131 44.6564 132.073 44.4264 131.959 44.1963C131.844 43.9663 131.672 43.6211 131.385 43.1609C130.984 42.5281 130.754 42.0679 130.524 41.8951C130.352 41.665 130.18 41.6648 130.007 41.722C129.835 41.8368 129.834 42.0093 129.892 42.2393C129.949 42.5268 130.178 42.9869 130.58 43.6198Z" fill="white"/>
<path d="M107.106 59.0553C107.394 58.7682 107.739 58.7111 108.141 58.7691C108.486 58.827 108.83 59.0574 109.175 59.4602C109.577 59.9206 109.749 60.3807 109.691 60.783C109.69 61.2429 109.46 61.645 109.057 61.9894C108.711 62.2764 108.366 62.4485 108.021 62.5055L107.39 61.7574C107.562 61.7576 107.735 61.7004 107.907 61.6431C108.08 61.5858 108.253 61.4711 108.425 61.3563C108.828 61.0119 108.829 60.6095 108.427 60.1491C108.082 59.6888 107.68 59.6308 107.277 59.9752C107.105 60.09 106.989 60.2623 106.874 60.4921L106.472 60.4916L104.865 58.3052L106.649 56.8127L107.223 57.5033L106.129 58.4217L106.818 59.3423C106.876 59.2849 106.991 59.1701 107.106 59.0553Z" fill="white"/>
<path d="M111.363 56.4162C111.994 57.1643 112.339 57.7971 112.453 58.2571C112.567 58.7171 112.394 59.1768 111.992 59.5212C111.589 59.8656 111.186 59.9226 110.727 59.7496C110.267 59.5766 109.75 59.116 109.119 58.3105C108.487 57.5624 108.143 56.9296 108.029 56.4121C107.915 55.8946 108.087 55.4924 108.49 55.148C108.893 54.8035 109.296 54.7466 109.755 54.9196C110.157 55.15 110.674 55.6105 111.363 56.4162ZM109.809 57.679C110.326 58.2545 110.67 58.6573 110.843 58.7725C111.072 58.9452 111.245 58.9454 111.36 58.8306C111.475 58.7733 111.475 58.6583 111.475 58.4858C111.476 58.3709 111.361 58.1983 111.246 57.9682C111.074 57.738 110.844 57.4503 110.5 57.0475C110.041 56.4721 109.639 56.1266 109.409 55.9539C109.179 55.7812 109.007 55.7809 108.834 55.8957C108.719 56.0105 108.661 56.1829 108.834 56.4706C109.063 56.7008 109.35 57.1035 109.809 57.679Z" fill="white"/>
<path d="M92.6528 76.9132L92.3074 77.3152L93.1687 78.0636L92.5355 78.8101L91.6741 78.0617L90.5227 79.44L89.891 78.9218L88.2857 75.4132L88.9765 74.6093L91.6181 76.8545L91.9635 76.4525L92.6528 76.9132ZM91.0424 77.5436L90.181 76.7952L89.7791 76.4498L89.4346 76.1044C89.6068 76.3346 89.7214 76.5647 89.8361 76.7948L90.4668 78.1752L91.0424 77.5436Z" fill="white"/>
<path d="M93.6349 73.3502C94.3814 73.9835 94.8406 74.5589 95.0125 75.019C95.1844 75.4791 95.1263 75.9389 94.7809 76.3409C94.4355 76.7429 94.0329 76.9148 93.5732 76.7993C93.1134 76.6838 92.4815 76.3381 91.735 75.7048C90.9884 75.0715 90.5293 74.4961 90.3574 74.036C90.1855 73.5759 90.2435 73.1161 90.5889 72.7716C90.9343 72.3696 91.3369 72.1977 91.7967 72.3132C92.2565 72.3138 92.8884 72.717 93.6349 73.3502ZM92.3684 74.8433C92.9426 75.3614 93.3446 75.6493 93.6319 75.7646C93.8617 75.8799 94.0342 75.8801 94.1494 75.7078C94.207 75.5929 94.2646 75.478 94.2073 75.3629C94.1499 75.2479 94.0352 75.0753 93.8629 74.9026C93.6907 74.73 93.4036 74.4422 93.0016 74.0968C92.4274 73.6362 92.0254 73.2908 91.7381 73.1754C91.5083 73.0602 91.2784 73.0599 91.1632 73.1747C91.0481 73.2896 91.0478 73.5195 91.22 73.7497C91.3922 73.9798 91.7941 74.3827 92.3684 74.8433Z" fill="white"/>
<path d="M75.9607 95.5205C76.2479 95.6933 76.4775 95.9235 76.5922 96.1536C76.7068 96.4411 76.7065 96.7286 76.6487 97.0159C76.879 96.7288 77.109 96.6141 77.3965 96.557C77.684 96.4998 77.9714 96.5577 78.3161 96.7306C78.7757 96.9611 79.0052 97.3063 79.1197 97.7088C79.2342 98.1114 79.1186 98.5711 78.8881 99.0307C78.6577 99.4328 78.3698 99.7774 78.0822 99.9495L77.2779 99.4886C77.4505 99.3738 77.6231 99.2591 77.7383 99.1442C77.9109 99.0295 78.026 98.8572 78.0837 98.6848C78.2565 98.4551 78.2568 98.2251 78.257 97.9952C78.1998 97.8226 78.085 97.65 77.7978 97.4772C77.3383 97.1892 76.9357 97.3612 76.59 97.9356L76.4172 98.2228L75.7854 97.8197L75.9581 97.5899C76.1309 97.3602 76.1311 97.1303 76.1314 96.9003C76.0742 96.6703 75.9595 96.4977 75.7297 96.3825C75.5573 96.2673 75.385 96.2096 75.2124 96.2668C75.0399 96.3241 74.9249 96.3815 74.8672 96.5538C74.7519 96.7836 74.6941 97.071 74.7511 97.416L73.9463 97.4725C73.8319 96.955 73.89 96.4952 74.1781 95.9781C74.4085 95.576 74.6962 95.3464 75.0413 95.2319C75.2711 95.2897 75.616 95.3476 75.9607 95.5205Z" fill="white"/>
<path d="M79.1237 93.1078C79.9853 93.6263 80.5596 94.0869 80.7891 94.4895C81.076 94.8923 81.0754 95.3522 80.7874 95.8117C80.4994 96.2712 80.1542 96.5008 79.6369 96.4426C79.1196 96.442 78.4876 96.1538 77.6259 95.6928C76.7642 95.1744 76.2474 94.7139 75.9605 94.3111C75.6735 93.9084 75.6741 93.4485 75.9621 92.9889C76.2501 92.5294 76.5953 92.2999 77.1126 92.358C77.5725 92.3586 78.262 92.5894 79.1237 93.1078ZM78.1444 94.7737C78.7762 95.1769 79.2358 95.4074 79.5232 95.4652C79.8105 95.5231 79.983 95.5233 80.0407 95.3509C80.0983 95.236 80.0984 95.121 80.0411 95.006C79.9838 94.8909 79.8114 94.7758 79.6392 94.6031C79.4095 94.4303 79.0648 94.2575 78.6052 93.9695C77.9734 93.5663 77.5137 93.3933 77.2264 93.2779C76.9391 93.2201 76.7666 93.2199 76.7089 93.3923C76.5937 93.5646 76.651 93.7371 76.8807 93.9098C77.0529 94.14 77.5124 94.428 78.1444 94.7737Z" fill="white"/>
<path d="M69.6086 119.37L68.6279 122.128L67.9384 121.897L66.9628 120.516C66.6759 120.113 66.5037 119.883 66.389 119.711C66.2742 119.538 66.1019 119.423 65.9871 119.308C65.8722 119.193 65.6998 119.135 65.5275 119.077C65.3551 119.019 65.1826 119.019 65.0676 119.019C64.9526 119.076 64.8375 119.191 64.7799 119.306C64.7222 119.421 64.7221 119.536 64.7794 119.709C64.7792 119.824 64.894 119.996 65.0087 120.226L64.2609 120.57C64.0889 120.225 63.9743 119.938 63.9171 119.708C63.9174 119.478 63.9177 119.19 64.033 118.96C64.2059 118.558 64.4362 118.271 64.7239 118.099C65.0689 117.984 65.4138 117.985 65.8736 118.1C66.046 118.158 66.2183 118.273 66.3906 118.388C66.5629 118.504 66.6777 118.619 66.85 118.791C67.0222 118.964 67.137 119.137 67.3092 119.309C67.424 119.482 67.7683 120 68.2272 120.805L68.8616 119.139L69.6086 119.37Z" fill="white"/>
<path d="M68.2899 115.056C69.2092 115.402 69.8411 115.748 70.1856 116.151C70.5301 116.496 70.587 116.956 70.4139 117.473C70.2408 117.99 69.8956 118.22 69.3781 118.334C68.8606 118.391 68.1709 118.275 67.2516 117.929C66.3323 117.583 65.7003 117.237 65.3559 116.835C65.0115 116.432 64.9545 116.029 65.1275 115.57C65.3006 115.052 65.6458 114.823 66.1059 114.708C66.6234 114.594 67.3131 114.71 68.2899 115.056ZM67.5978 116.895C68.2873 117.183 68.8045 117.299 69.0918 117.357C69.3793 117.357 69.5518 117.3 69.6095 117.127C69.6671 117.012 69.6098 116.897 69.5524 116.782C69.4951 116.667 69.3228 116.552 69.093 116.437C68.8632 116.322 68.461 116.149 68.0013 115.976C67.3118 115.745 66.7946 115.572 66.5072 115.571C66.2198 115.571 66.0472 115.628 65.9895 115.801C65.9318 115.973 65.9891 116.146 66.2188 116.318C66.4486 116.433 66.9082 116.664 67.5978 116.895Z" fill="white"/>
<path d="M63.3695 143.104L63.1959 144.081L60.0349 143.502C59.69 143.445 59.2878 143.329 58.8855 143.214C58.8855 143.214 58.9429 143.329 59.0577 143.444C59.1725 143.559 59.3446 143.847 59.6316 144.192L58.9412 144.651L57.8511 142.982L58.0246 142.12L63.3695 143.104Z" fill="white"/>
<path d="M61.42 138.619C62.3971 138.792 63.0866 139.023 63.4311 139.368C63.8332 139.656 63.9476 140.116 63.8894 140.634C63.7738 141.151 63.486 141.495 63.0259 141.61C62.5658 141.782 61.8186 141.723 60.8416 141.55C59.8645 141.376 59.175 141.145 58.773 140.8C58.371 140.512 58.1991 140.052 58.3146 139.592C58.4302 139.075 58.6606 138.73 59.1781 138.616C59.6957 138.444 60.443 138.445 61.42 138.619ZM61.0728 140.515C61.82 140.631 62.3373 140.689 62.6247 140.69C62.9121 140.69 63.0272 140.575 63.0849 140.403C63.0851 140.288 63.0852 140.173 62.9703 140.115C62.8555 140 62.6831 139.942 62.4532 139.885C62.2233 139.827 61.8211 139.711 61.3038 139.653C60.5566 139.537 60.0393 139.479 59.7519 139.479C59.4645 139.478 59.2919 139.593 59.2916 139.766C59.2339 139.938 59.3487 140.111 59.636 140.226C59.8084 140.284 60.3256 140.399 61.0728 140.515Z" fill="white"/>
<path d="M58.7439 164.597C59.7212 164.599 60.4109 164.714 60.8705 164.945C61.3301 165.175 61.502 165.578 61.5014 166.095C61.5008 166.613 61.2703 167.015 60.8101 167.244C60.35 167.474 59.66 167.588 58.6828 167.586C57.7055 167.585 57.0158 167.469 56.5562 167.239C56.0966 167.008 55.8672 166.606 55.8678 166.088C55.8684 165.571 56.0989 165.169 56.5016 164.939C57.0192 164.71 57.7092 164.596 58.7439 164.597ZM58.7415 166.552C59.4888 166.553 60.0063 166.496 60.2938 166.439C60.5813 166.382 60.6964 166.267 60.6966 166.094C60.6967 165.979 60.6394 165.864 60.5245 165.807C60.4096 165.749 60.2372 165.691 59.9499 165.634C59.6625 165.576 59.2601 165.575 58.7427 165.575C57.9954 165.574 57.478 165.63 57.1905 165.688C56.903 165.745 56.7879 165.86 56.7876 166.089C56.7874 166.262 56.9022 166.377 57.1895 166.435C57.4769 166.493 57.9942 166.551 58.7415 166.552Z" fill="white"/>
<path d="M220.036 37.6936C220.438 37.7516 220.783 37.9245 220.955 38.2121C221.184 38.4998 221.242 38.8448 221.184 39.2471C221.126 39.477 221.068 39.7069 220.895 39.8791C220.723 40.0514 220.493 40.2235 220.205 40.3382C220.492 40.6259 220.664 40.8561 220.721 41.1436C220.836 41.3737 220.836 41.6611 220.778 41.9485C220.72 42.4083 220.489 42.6954 220.202 42.925C219.914 43.1546 219.512 43.2116 219.052 43.1535C218.592 43.0955 218.247 42.8651 218.018 42.5774C217.788 42.2897 217.731 41.8872 217.789 41.4274C217.847 41.14 217.962 40.8528 218.135 40.623C218.308 40.3933 218.538 40.2211 218.826 40.1065C218.596 39.8763 218.481 39.6462 218.367 39.4161C218.309 39.1861 218.31 38.9562 218.31 38.6687C218.368 38.2664 218.541 37.9792 218.886 37.7497C219.231 37.6926 219.633 37.6356 220.036 37.6936ZM218.766 41.6585C218.708 41.8884 218.766 42.0609 218.823 42.176C218.88 42.291 218.995 42.4061 219.168 42.4064C219.34 42.4641 219.513 42.4068 219.628 42.292C219.743 42.1771 219.8 42.0047 219.858 41.7749C219.858 41.6024 219.859 41.4874 219.801 41.3149C219.744 41.1424 219.629 40.9698 219.457 40.7971L219.4 40.7396C219.227 40.8543 219.054 40.9691 218.939 41.0839C218.882 41.2563 218.824 41.4287 218.766 41.6585ZM219.862 38.4982C219.747 38.498 219.632 38.4979 219.517 38.6127C219.402 38.7276 219.345 38.8425 219.344 39.0149C219.344 39.1874 219.344 39.3023 219.344 39.4748C219.401 39.5898 219.458 39.7624 219.631 39.935C219.803 39.8203 219.918 39.7055 220.033 39.6481C220.091 39.5332 220.149 39.4183 220.206 39.2459C220.264 38.7861 220.15 38.556 219.862 38.4982Z" fill="white"/>
<path d="M224.458 41.3207C224.284 42.2978 224.053 42.9873 223.708 43.3318C223.42 43.7339 222.96 43.8483 222.443 43.7901C221.926 43.6745 221.581 43.3867 221.467 42.9266C221.295 42.4666 221.353 41.7193 221.527 40.7423C221.7 39.7652 221.931 39.0757 222.277 38.6737C222.565 38.2717 223.025 38.0998 223.484 38.2153C224.002 38.3309 224.346 38.5613 224.461 39.0788C224.632 39.5964 224.631 40.3437 224.458 41.3207ZM222.504 40.9734C222.388 41.7206 222.33 42.2379 222.329 42.5253C222.329 42.8127 222.444 42.9279 222.616 42.9856C222.731 42.9857 222.846 42.9858 222.904 42.8709C223.019 42.7561 223.077 42.5837 223.134 42.3539C223.192 42.124 223.308 41.7217 223.366 41.2044C223.482 40.4573 223.54 39.94 223.54 39.6525C223.54 39.3651 223.426 39.1925 223.253 39.1923C223.081 39.1346 222.908 39.2493 222.793 39.5366C222.793 39.7666 222.677 40.2263 222.504 40.9734Z" fill="white"/>
<path d="M239.051 48.0642L242.045 44.3313L240.264 43.6968L240.552 42.8349L243.311 43.8155L243.08 44.4476L240.028 48.4103L239.051 48.0642Z" fill="white"/>
<path d="M245.72 47.6125C245.374 48.5318 245.028 49.1637 244.625 49.5082C244.28 49.8526 243.82 49.9096 243.303 49.7365C242.786 49.5634 242.556 49.2182 242.442 48.7007C242.385 48.1832 242.501 47.4935 242.847 46.5742C243.193 45.6548 243.539 45.0229 243.942 44.6785C244.344 44.3341 244.747 44.2771 245.207 44.4501C245.724 44.6232 245.953 44.9684 246.068 45.4285C246.239 45.946 246.066 46.6357 245.72 47.6125ZM243.881 46.9204C243.593 47.6099 243.477 48.1271 243.42 48.4144C243.419 48.7019 243.476 48.8744 243.649 48.9321C243.764 48.9897 243.879 48.9324 243.994 48.875C244.109 48.8177 244.224 48.6454 244.339 48.4156C244.455 48.1858 244.628 47.7836 244.801 47.3239C245.031 46.6344 245.204 46.1172 245.205 45.8298C245.205 45.5424 245.148 45.3698 244.976 45.3121C244.803 45.2544 244.631 45.3117 244.458 45.5414C244.343 45.7712 244.17 46.2309 243.881 46.9204Z" fill="white"/>
<path d="M259.796 54.5858C260.372 53.6093 260.89 53.035 261.465 52.7483C262.04 52.4616 262.615 52.5198 263.19 52.8654C263.304 52.9231 263.362 52.9806 263.477 53.0382C263.592 53.0959 263.649 53.1534 263.649 53.2109L263.246 53.9577C263.131 53.8426 262.959 53.7274 262.844 53.6698C262.614 53.5545 262.384 53.4393 262.154 53.4965C261.924 53.4962 261.751 53.611 261.521 53.7831C261.291 53.9553 261.118 54.2425 260.83 54.5871L260.888 54.5872C261.061 54.4724 261.233 54.3576 261.406 54.3579C261.578 54.3581 261.751 54.3583 261.923 54.4735C262.21 54.6463 262.382 54.9339 262.439 55.2789C262.439 55.6238 262.323 56.0261 262.093 56.5432C261.805 57.0602 261.459 57.3472 261.057 57.5191C260.654 57.6911 260.252 57.6331 259.85 57.4027C259.448 57.1722 259.218 56.827 259.219 56.3097C259.219 55.8498 259.392 55.2751 259.796 54.5858ZM260.311 56.6559C260.425 56.7136 260.598 56.7138 260.771 56.599C260.943 56.4843 261.116 56.312 261.289 56.0248C261.404 55.795 261.519 55.5652 261.519 55.3927C261.52 55.2203 261.462 55.1052 261.347 54.9901C261.232 54.9325 261.06 54.9323 260.945 54.9896C260.772 55.0469 260.657 55.2192 260.542 55.3915C260.369 55.6787 260.254 55.966 260.254 56.196C260.138 56.4258 260.196 56.5408 260.311 56.6559Z" fill="white"/>
<path d="M265.598 57.4673C265.08 58.329 264.619 58.9033 264.216 59.1327C263.814 59.4197 263.354 59.4191 262.894 59.1311C262.435 58.8431 262.205 58.4979 262.263 57.9806C262.264 57.4632 262.552 56.8312 263.013 55.9695C263.531 55.1079 263.992 54.5911 264.395 54.3041C264.797 54.0172 265.257 54.0178 265.717 54.3058C266.176 54.5938 266.406 54.939 266.348 55.4563C266.347 55.9162 266.116 56.6057 265.598 57.4673ZM263.932 56.488C263.529 57.1199 263.298 57.5795 263.241 57.8668C263.183 58.1542 263.183 58.3266 263.355 58.3843C263.47 58.442 263.585 58.4421 263.7 58.3848C263.815 58.3274 263.93 58.1551 264.103 57.9829C264.275 57.7531 264.448 57.4084 264.736 56.9489C265.14 56.3171 265.313 55.8574 265.428 55.5701C265.486 55.2827 265.486 55.1103 265.314 55.0526C265.141 54.9374 264.969 54.9947 264.796 55.2244C264.566 55.3966 264.278 55.8561 263.932 56.488Z" fill="white"/>
<path d="M279.441 66.6832C279.728 66.971 279.9 67.2586 279.899 67.661C279.899 68.0059 279.726 68.4081 279.438 68.8102C279.035 69.2696 278.632 69.499 278.23 69.556C277.77 69.6129 277.368 69.4975 276.966 69.152C276.621 68.8642 276.392 68.519 276.277 68.1739L276.91 67.4274C276.968 67.5999 277.025 67.7725 277.14 67.9451C277.254 68.1177 277.369 68.2903 277.484 68.4054C277.886 68.7508 278.288 68.6938 278.691 68.2344C279.037 67.7749 279.037 67.43 278.635 67.0846C278.463 66.9694 278.291 66.8542 278.061 66.739L277.946 66.3365L279.846 64.3843L281.626 65.8811L281.05 66.5702L279.959 65.6491L279.153 66.5104C279.153 66.5104 279.326 66.5681 279.441 66.6832Z" fill="white"/>
<path d="M282.77 70.3664C282.137 71.1129 281.562 71.5721 281.102 71.744C280.641 71.9159 280.182 71.8578 279.78 71.5124C279.378 71.167 279.206 70.7644 279.321 70.3046C279.437 69.8449 279.783 69.213 280.416 68.4664C281.049 67.7199 281.624 67.2607 282.085 67.0888C282.545 66.9169 283.004 66.975 283.349 67.3203C283.751 67.6657 283.923 68.0684 283.807 68.5281C283.807 68.988 283.404 69.6198 282.77 70.3664ZM281.277 69.0998C280.759 69.6741 280.471 70.0761 280.356 70.3634C280.241 70.5932 280.24 70.7656 280.413 70.8808C280.528 70.9385 280.643 70.9961 280.758 70.9387C280.873 70.8814 281.045 70.7666 281.218 70.5944C281.391 70.4221 281.678 70.1351 282.024 69.7331C282.484 69.1588 282.83 68.7568 282.945 68.4696C283.06 68.2398 283.061 68.0098 282.946 67.8947C282.831 67.7796 282.601 67.7793 282.371 67.9515C282.083 68.1811 281.738 68.5255 281.277 69.0998Z" fill="white"/>
<path d="M295.399 85.1555L295.055 84.7527L294.192 85.499L293.56 84.7509L294.424 84.0046L293.276 82.6235L293.909 82.1069L297.646 81.1343L298.335 81.9399L295.688 84.1786L296.033 84.5815L295.399 85.1555ZM295.057 83.4305L295.92 82.6843L296.323 82.3974L296.725 82.1104C296.438 82.225 296.208 82.2822 295.978 82.3394L294.483 82.74L295.057 83.4305Z" fill="white"/>
<path d="M298.789 86.7122C298.04 87.3437 297.408 87.6878 296.948 87.8022C296.488 87.9166 296.028 87.7436 295.683 87.3407C295.339 86.9379 295.282 86.5355 295.455 86.0758C295.628 85.6161 296.089 85.0993 296.894 84.468C297.642 83.8365 298.275 83.4924 298.793 83.3781C299.31 83.2637 299.712 83.4367 300.057 83.8395C300.401 84.2423 300.458 84.6448 300.285 85.1045C299.997 85.5065 299.537 86.0808 298.789 86.7122ZM297.526 85.2161C296.95 85.7327 296.547 86.0771 296.432 86.2494C296.259 86.4792 296.259 86.6516 296.374 86.7667C296.431 86.8818 296.546 86.8819 296.719 86.8821C296.834 86.8823 297.006 86.7675 297.236 86.6528C297.467 86.4807 297.754 86.2511 298.157 85.9067C298.733 85.4475 299.078 85.0455 299.251 84.8158C299.423 84.586 299.424 84.4136 299.309 84.241C299.194 84.1259 299.022 84.0682 298.734 84.2403C298.504 84.4125 298.101 84.6994 297.526 85.2161Z" fill="white"/>
<path d="M310.499 101.213C310.211 101.385 309.923 101.442 309.636 101.442C309.349 101.442 309.119 101.269 308.889 101.039C309.004 101.384 309.003 101.671 308.946 101.901C308.83 102.188 308.657 102.418 308.312 102.59C307.852 102.819 307.45 102.876 307.047 102.761C306.645 102.645 306.301 102.358 306.014 101.897C305.784 101.495 305.67 101.092 305.613 100.747L306.418 100.288C306.418 100.461 306.418 100.691 306.475 100.863C306.532 101.036 306.59 101.208 306.647 101.381C306.819 101.611 306.934 101.784 307.164 101.841C307.336 101.899 307.566 101.842 307.796 101.727C308.256 101.44 308.314 101.038 308.028 100.463L307.855 100.175L308.488 99.7734L308.66 100.004C308.833 100.234 309.005 100.406 309.177 100.464C309.35 100.522 309.58 100.522 309.81 100.35C309.982 100.235 310.097 100.12 310.155 99.948C310.213 99.8331 310.156 99.6605 310.098 99.488C309.984 99.2579 309.696 99.0851 309.409 98.9698L309.755 98.2229C310.272 98.3385 310.674 98.6839 310.903 99.1441C311.133 99.5468 311.19 99.8917 311.132 100.237C311.074 100.754 310.844 101.041 310.499 101.213Z" fill="white"/>
<path d="M311.068 105.18C310.205 105.696 309.515 105.926 309.055 105.925C308.538 105.924 308.193 105.694 307.906 105.291C307.62 104.831 307.62 104.371 307.908 103.969C308.196 103.567 308.714 103.108 309.577 102.591C310.44 102.075 311.13 101.846 311.59 101.847C312.107 101.847 312.452 102.078 312.739 102.48C313.026 102.941 313.025 103.343 312.737 103.803C312.449 104.205 311.931 104.664 311.068 105.18ZM310.036 103.512C309.403 103.913 308.942 104.2 308.77 104.372C308.597 104.545 308.539 104.717 308.597 104.89C308.654 105.005 308.769 105.062 308.884 105.062C308.999 105.063 309.229 105.005 309.459 104.891C309.689 104.776 310.034 104.604 310.494 104.317C311.127 103.916 311.587 103.686 311.76 103.456C311.99 103.284 311.991 103.112 311.933 102.939C311.819 102.767 311.646 102.766 311.416 102.824C311.186 102.881 310.726 103.11 310.036 103.512Z" fill="white"/>
<path d="M316.163 123.065L315.189 120.305L315.879 120.076L317.488 120.538C317.948 120.653 318.235 120.711 318.465 120.769C318.695 120.826 318.867 120.827 319.04 120.769C319.212 120.77 319.385 120.712 319.557 120.655C319.73 120.598 319.902 120.483 319.96 120.368C320.018 120.253 320.018 120.138 319.96 119.966C319.903 119.851 319.846 119.736 319.731 119.678C319.616 119.62 319.444 119.505 319.214 119.39L319.56 118.643C319.904 118.758 320.192 118.931 320.364 119.104C320.536 119.277 320.651 119.507 320.766 119.737C320.937 120.139 320.937 120.542 320.764 120.829C320.591 121.174 320.304 121.403 319.901 121.518C319.729 121.575 319.498 121.632 319.326 121.632C319.154 121.632 318.924 121.632 318.751 121.631C318.521 121.631 318.349 121.573 318.061 121.516C317.832 121.458 317.257 121.285 316.395 120.996L317.025 122.664L316.163 123.065Z" fill="white"/>
<path d="M319.896 125.541C318.976 125.885 318.286 125.999 317.769 125.941C317.252 125.883 316.965 125.595 316.735 125.077C316.564 124.56 316.622 124.157 316.967 123.813C317.312 123.468 317.945 123.124 318.865 122.781C319.785 122.437 320.475 122.323 320.993 122.381C321.51 122.439 321.854 122.727 322.026 123.244C322.198 123.762 322.14 124.164 321.795 124.509C321.507 124.796 320.874 125.197 319.896 125.541ZM319.267 123.643C318.576 123.93 318.059 124.102 317.829 124.274C317.598 124.446 317.541 124.561 317.598 124.734C317.655 124.849 317.713 124.906 317.885 124.964C318 124.964 318.23 124.964 318.46 124.907C318.69 124.85 319.093 124.735 319.61 124.564C320.3 124.334 320.761 124.105 320.991 123.933C321.221 123.761 321.336 123.588 321.221 123.416C321.164 123.243 320.992 123.186 320.704 123.185C320.474 123.3 319.957 123.414 319.267 123.643Z" fill="white"/>
<path d="M321.771 143.538L321.6 142.561L324.762 141.99C325.107 141.933 325.51 141.876 325.97 141.819C325.97 141.819 325.855 141.761 325.74 141.646C325.625 141.531 325.338 141.358 324.936 141.128L325.454 140.438L327.005 141.647L327.176 142.51L321.771 143.538Z" fill="white"/>
<path d="M325.159 147.106C324.181 147.277 323.491 147.276 322.974 147.103C322.515 146.93 322.228 146.585 322.113 146.067C321.999 145.55 322.172 145.148 322.575 144.861C322.977 144.574 323.668 144.345 324.587 144.173C325.565 144.002 326.255 144.003 326.772 144.176C327.232 144.349 327.519 144.694 327.633 145.154C327.747 145.672 327.574 146.074 327.172 146.361C326.826 146.648 326.136 146.935 325.159 147.106ZM324.816 145.151C324.069 145.265 323.551 145.379 323.321 145.494C323.091 145.609 322.976 145.724 322.976 145.954C322.976 146.068 323.09 146.184 323.205 146.184C323.32 146.241 323.55 146.242 323.78 146.242C324.068 146.242 324.413 146.185 324.988 146.071C325.735 145.957 326.195 145.843 326.483 145.728C326.713 145.613 326.828 145.441 326.828 145.268C326.771 145.096 326.656 144.981 326.369 144.98C326.024 144.98 325.564 145.037 324.816 145.151Z" fill="white"/>
<path d="M326.512 167.63C325.535 167.629 324.845 167.513 324.386 167.283C323.926 167.052 323.754 166.65 323.755 166.132C323.755 165.615 323.986 165.213 324.446 164.983C324.906 164.754 325.596 164.64 326.573 164.641C327.551 164.642 328.24 164.758 328.7 164.989C329.16 165.219 329.389 165.622 329.388 166.139C329.388 166.657 329.157 167.059 328.755 167.288C328.237 167.517 327.547 167.632 326.512 167.63ZM326.515 165.618C325.767 165.617 325.25 165.674 324.963 165.731C324.675 165.789 324.56 165.903 324.56 166.076C324.56 166.191 324.617 166.306 324.732 166.363C324.847 166.421 325.019 166.479 325.306 166.537C325.594 166.594 325.996 166.595 326.514 166.596C327.261 166.597 327.778 166.54 328.066 166.483C328.353 166.425 328.468 166.311 328.469 166.081C328.469 165.908 328.354 165.793 328.067 165.735C327.779 165.677 327.262 165.619 326.515 165.618Z" fill="white"/>
<path d="M74.7776 168.412L74.7764 169.389L71.6147 169.385C71.2698 169.385 70.8674 169.384 70.4076 169.326C70.4076 169.326 70.5225 169.384 70.6373 169.499C70.7521 169.614 70.9818 169.844 71.3264 170.132L70.6933 170.706L69.3729 169.267L69.3741 168.348L74.7777 168.354L74.7776 168.412Z" fill="white"/>
<path d="M69.262 165.818C69.2625 165.415 69.3778 165.071 69.6081 164.783C69.8384 164.496 70.1835 164.382 70.5859 164.382C70.8158 164.383 71.0457 164.44 71.2755 164.556C71.5053 164.671 71.6775 164.901 71.8497 165.131C72.08 164.786 72.3102 164.614 72.5403 164.442C72.7704 164.327 73.0579 164.27 73.2879 164.271C73.7478 164.271 74.0925 164.387 74.3796 164.674C74.6667 164.962 74.7812 165.307 74.7806 165.767C74.7801 166.227 74.6646 166.629 74.3769 166.859C74.1466 167.146 73.7441 167.26 73.2842 167.26C72.9967 167.259 72.7094 167.202 72.4796 167.086C72.2498 166.971 72.0201 166.741 71.848 166.453C71.6178 166.683 71.4451 166.913 71.215 167.027C70.9849 167.142 70.7549 167.199 70.5249 167.199C70.1225 167.198 69.7778 167.083 69.5482 166.795C69.376 166.565 69.2615 166.22 69.262 165.818ZM70.0668 165.819C70.0666 165.934 70.124 166.049 70.2388 166.164C70.3537 166.221 70.4686 166.279 70.6985 166.279C70.871 166.28 70.986 166.222 71.1011 166.165C71.2161 166.108 71.3312 165.993 71.5039 165.82C71.3891 165.648 71.2743 165.533 71.1019 165.475C70.987 165.417 70.8146 165.36 70.6422 165.36C70.2397 165.417 70.0671 165.531 70.0668 165.819ZM73.3428 166.34C73.5727 166.34 73.7453 166.283 73.8603 166.226C73.9754 166.111 74.033 165.996 74.0333 165.824C74.0335 165.651 73.9762 165.479 73.8613 165.421C73.7465 165.306 73.574 165.306 73.3441 165.305C73.1716 165.305 73.0566 165.363 72.884 165.42C72.769 165.477 72.5963 165.649 72.4237 165.822L72.3661 165.879C72.4809 166.052 72.5957 166.167 72.7681 166.224C72.9404 166.34 73.1129 166.34 73.3428 166.34Z" fill="white"/>
<path d="M72.0276 160.82C73.0049 160.821 73.6946 160.937 74.1542 161.167C74.6138 161.398 74.7857 161.801 74.7851 162.318C74.7844 162.835 74.554 163.237 74.0938 163.467C73.6337 163.696 72.9437 163.81 71.9664 163.809C70.9892 163.808 70.2995 163.692 69.8399 163.462C69.3803 163.231 69.1509 162.828 69.1515 162.311C69.1521 161.794 69.3826 161.392 69.7853 161.162C70.3029 160.933 71.0504 160.819 72.0276 160.82ZM72.0252 162.774C72.7725 162.775 73.29 162.719 73.5775 162.661C73.865 162.604 73.9801 162.489 73.9803 162.317C73.9804 162.202 73.9231 162.087 73.8082 162.029C73.6933 161.972 73.5209 161.914 73.2335 161.856C72.9462 161.798 72.5438 161.798 72.0264 161.797C71.2791 161.796 70.7617 161.853 70.4742 161.91C70.1867 161.967 70.0715 162.082 70.0713 162.312C70.071 162.485 70.1859 162.6 70.4732 162.658C70.7606 162.715 71.2779 162.774 72.0252 162.774Z" fill="white"/>
<path d="M76.2422 146.741L76.0686 147.718L72.9076 147.139C72.5627 147.081 72.1605 146.966 71.7582 146.85C71.7582 146.85 71.8155 146.965 71.9304 147.08C72.0452 147.196 72.2173 147.483 72.5043 147.829L71.8139 148.288L70.7238 146.619L70.8973 145.757L76.2422 146.741Z" fill="white"/>
<path d="M76.5313 145.303L72.3377 142.999L71.9905 144.838L71.1284 144.664L71.6493 141.791L72.339 141.906L76.7626 144.211L76.5313 145.303Z" fill="white"/>
<path d="M74.9283 138.806C75.9054 138.98 76.5949 139.211 76.9394 139.556C77.3414 139.844 77.4558 140.304 77.3977 140.821C77.2821 141.338 76.9942 141.683 76.5342 141.797C76.0741 141.969 75.3269 141.911 74.3498 141.737C73.3728 141.563 72.6833 141.333 72.2813 140.987C71.8792 140.699 71.7073 140.239 71.8229 139.779C71.9385 139.262 72.1689 138.918 72.6864 138.803C73.204 138.631 73.8938 138.632 74.9283 138.806ZM74.5811 140.703C75.3282 140.819 75.8455 140.877 76.133 140.877C76.4204 140.877 76.5355 140.763 76.5932 140.59C76.5933 140.475 76.5935 140.36 76.4786 140.303C76.3638 140.187 76.1914 140.13 75.9615 140.072C75.7316 140.014 75.3294 139.899 74.8121 139.841C74.0649 139.725 73.5476 139.667 73.2602 139.666C72.9727 139.666 72.8001 139.781 72.7999 139.953C72.7422 140.126 72.857 140.298 73.1443 140.413C73.3167 140.471 73.8339 140.587 74.5811 140.703Z" fill="white"/>
<path d="M81.4989 125.65L81.1528 126.569L78.1649 125.473C77.8201 125.358 77.4754 125.185 77.0732 125.012C77.0732 125.012 77.1306 125.127 77.2454 125.242C77.3027 125.415 77.4749 125.645 77.6468 126.105L76.899 126.449L76.154 124.608L76.4425 123.746L81.4989 125.65Z" fill="white"/>
<path d="M79.6608 123.865C78.6265 123.461 77.9372 123.058 77.5354 122.54C77.1912 122.022 77.1344 121.447 77.3651 120.815C77.4228 120.7 77.4229 120.586 77.4804 120.528C77.5381 120.413 77.5956 120.356 77.5957 120.298L78.4001 120.587C78.285 120.759 78.2273 120.874 78.1696 121.046C78.0543 121.334 78.054 121.564 78.1113 121.736C78.1685 121.966 78.2833 122.139 78.513 122.311C78.6852 122.484 79.0299 122.657 79.4321 122.83L79.4322 122.772C79.2599 122.6 79.1452 122.427 79.0879 122.255C79.0306 122.082 79.0309 121.91 79.1461 121.68C79.2615 121.335 79.4917 121.105 79.8367 121.048C80.1818 120.934 80.6416 120.992 81.1587 121.222C81.6758 121.396 82.0779 121.683 82.3073 122.086C82.5368 122.431 82.5363 122.834 82.4208 123.294C82.2478 123.753 81.96 124.04 81.5 124.097C81.04 124.212 80.4077 124.153 79.6608 123.865ZM81.6164 123.005C81.674 122.89 81.6167 122.718 81.5019 122.603C81.3871 122.487 81.1573 122.315 80.8126 122.199C80.5253 122.084 80.3528 122.084 80.1229 122.083C79.9504 122.083 79.8353 122.198 79.7776 122.37C79.72 122.485 79.7772 122.658 79.8921 122.773C80.0069 122.888 80.1792 123.003 80.409 123.119C80.7538 123.234 81.0412 123.292 81.2136 123.292C81.4436 123.235 81.5587 123.12 81.6164 123.005Z" fill="white"/>
<path d="M81.5086 117.602C82.4279 117.948 83.0598 118.294 83.4043 118.639C83.7488 118.985 83.8057 119.445 83.6326 119.962C83.4595 120.479 83.1143 120.708 82.5968 120.823C82.0794 120.88 81.3897 120.764 80.4703 120.418C79.551 120.072 78.9191 119.726 78.5747 119.323C78.2302 118.92 78.1733 118.518 78.3463 118.058C78.5194 117.541 78.8646 117.311 79.3246 117.197C79.8995 117.14 80.5892 117.256 81.5086 117.602ZM80.8739 119.441C81.5634 119.729 82.0806 119.845 82.368 119.903C82.6554 119.903 82.828 119.846 82.8857 119.673C82.9433 119.558 82.8859 119.443 82.8286 119.328C82.7713 119.213 82.5989 119.098 82.3691 118.983C82.1393 118.868 81.7371 118.695 81.2775 118.522C80.5879 118.291 80.0708 118.118 79.7833 118.117C79.4959 118.117 79.3234 118.174 79.2657 118.347C79.208 118.519 79.2653 118.692 79.495 118.864C79.6673 118.98 80.1269 119.21 80.8739 119.441Z" fill="white"/>
<path d="M90.3194 105.827L89.8009 106.689L87.0436 105.076C86.7564 104.903 86.4118 104.673 86.0097 104.442C86.0097 104.442 86.067 104.557 86.1243 104.73C86.1815 104.902 86.2387 105.19 86.4106 105.65L85.6055 105.822L85.148 103.924L85.6089 103.12L90.3194 105.827Z" fill="white"/>
<path d="M88.7153 101.801C88.9456 101.457 89.2333 101.227 89.5783 101.17C89.9233 101.113 90.3256 101.171 90.7852 101.459C91.3022 101.747 91.6467 102.092 91.7611 102.553C91.8755 102.955 91.8175 103.415 91.587 103.874C91.3565 104.277 91.0688 104.564 90.7811 104.736L89.9769 104.275C90.0919 104.218 90.2645 104.103 90.4371 103.988C90.6097 103.873 90.7249 103.701 90.7825 103.586C91.0705 103.127 90.8986 102.724 90.3816 102.436C89.8645 102.148 89.5196 102.205 89.2316 102.664C89.1164 102.837 89.0586 103.067 89.0008 103.296L88.6557 103.468L86.3581 101.971L87.5103 99.9604L88.3146 100.421L87.5657 101.685L88.5422 102.319C88.5424 102.089 88.6001 101.974 88.7153 101.801Z" fill="white"/>
<path d="M91.7666 97.8959C92.6282 98.4143 93.2025 98.8749 93.4319 99.2776C93.7189 99.6804 93.7183 100.14 93.4303 100.6C93.1423 101.059 92.7971 101.289 92.2798 101.231C91.7624 101.23 91.1305 100.942 90.2687 100.481C89.4071 99.9625 88.8903 99.502 88.6034 99.0992C88.3164 98.6964 88.317 98.2366 88.605 97.777C88.893 97.3175 89.2382 97.088 89.7555 97.1461C90.2154 97.1467 90.8474 97.3774 91.7666 97.8959ZM90.7297 99.6192C91.3615 100.022 91.8211 100.253 92.1085 100.311C92.3958 100.369 92.5683 100.369 92.626 100.196C92.6836 100.081 92.6838 99.9665 92.6264 99.8515C92.5691 99.7364 92.3968 99.6213 92.2245 99.4486C91.9948 99.2758 91.6501 99.103 91.1906 98.815C90.5587 98.4118 90.099 98.2388 89.8118 98.1234C89.5244 98.0656 89.352 98.0654 89.2943 98.2378C89.1791 98.4101 89.2363 98.5826 89.4661 98.7554C89.6958 98.9281 90.0978 99.216 90.7297 99.6192Z" fill="white"/>
<path d="M102.414 87.7928L101.78 88.5393L99.311 86.4668C99.0239 86.2365 98.7368 85.9487 98.4497 85.6609C98.4497 85.7184 98.4496 85.7759 98.5069 85.9484C98.5066 86.1209 98.5638 86.4084 98.6207 86.8683L97.7583 86.9248L97.6458 84.9701L98.2215 84.281L102.414 87.7928Z" fill="white"/>
<path d="M104.258 83.8283L103.913 84.2302L104.774 84.9786L104.141 85.7251L103.279 84.9768L102.128 86.355L101.496 85.8368L99.891 82.3282L100.582 81.5243L103.223 83.7695L103.569 83.3675L104.258 83.8283ZM102.648 84.4586L101.786 83.7102L101.384 83.3648L101.04 83.0195C101.212 83.2496 101.327 83.4797 101.441 83.7098L102.072 85.0902L102.648 84.4586Z" fill="white"/>
<path d="M105.24 80.2653C105.986 80.8985 106.445 81.474 106.617 81.9341C106.789 82.3942 106.731 82.854 106.386 83.2559C106.04 83.6579 105.638 83.8299 105.178 83.7143C104.718 83.5988 104.086 83.2531 103.34 82.6198C102.593 81.9866 102.134 81.4112 101.962 80.9511C101.79 80.491 101.848 80.0311 102.194 79.6867C102.539 79.2847 102.942 79.1127 103.402 79.2283C103.804 79.2288 104.436 79.6319 105.24 80.2653ZM103.973 81.7583C104.547 82.2764 104.95 82.5643 105.237 82.6797C105.467 82.7949 105.639 82.7951 105.754 82.6228C105.812 82.5079 105.869 82.393 105.812 82.278C105.755 82.1629 105.64 81.9903 105.468 81.8177C105.296 81.645 105.008 81.3572 104.607 81.0118C104.032 80.5512 103.63 80.2058 103.343 80.0905C103.113 79.9752 102.883 79.9749 102.768 80.0898C102.653 80.2046 102.653 80.4345 102.825 80.6647C102.997 80.9523 103.399 81.2977 103.973 81.7583Z" fill="white"/>
<path d="M117.495 72.1744L116.747 72.8059L114.681 70.3314C114.451 70.0437 114.222 69.756 113.935 69.3532C113.935 69.4107 113.935 69.4682 113.934 69.6407C113.934 69.8131 113.934 70.1006 113.876 70.5604L113.071 70.4444L113.303 68.4902L113.994 67.9162L117.495 72.1744Z" fill="white"/>
<path d="M117.79 66.4836C118.019 66.7713 118.134 67.0014 118.134 67.2888C118.133 67.5763 118.075 67.8636 117.903 68.0933C118.19 67.9212 118.478 67.8641 118.765 67.8645C119.053 67.9223 119.282 68.095 119.512 68.3253C119.856 68.7281 119.971 69.1306 119.913 69.533C119.855 69.9353 119.624 70.3374 119.222 70.6818C118.876 70.9688 118.474 71.1983 118.129 71.2553L117.555 70.5648C117.727 70.5075 117.957 70.5078 118.13 70.3931C118.302 70.3358 118.475 70.221 118.59 70.1062C118.82 69.934 118.935 69.7042 118.936 69.5318C118.936 69.3593 118.879 69.1293 118.706 68.8991C118.362 68.4963 117.902 68.4957 117.442 68.8976L117.212 69.0697L116.752 68.4943L116.983 68.3222C117.213 68.15 117.328 67.9202 117.386 67.7478C117.443 67.5179 117.329 67.3453 117.157 67.1152C117.042 66.9426 116.869 66.8849 116.754 66.8272C116.582 66.827 116.467 66.8844 116.294 66.9991C116.064 67.1713 115.949 67.4586 115.891 67.8034L115.086 67.5725C115.145 67.0552 115.375 66.5956 115.778 66.2512C116.123 65.9642 116.468 65.7921 116.813 65.8501C117.215 65.9655 117.503 66.1383 117.79 66.4836Z" fill="white"/>
<path d="M121.528 65.2228C122.159 65.9709 122.503 66.6037 122.618 67.0637C122.732 67.5238 122.559 67.9834 122.156 68.3278C121.753 68.6723 121.351 68.7293 120.891 68.5562C120.431 68.3832 119.915 67.9227 119.283 67.1171C118.652 66.369 118.308 65.7362 118.193 65.2187C118.079 64.7012 118.252 64.299 118.655 63.9546C119.058 63.6102 119.46 63.5532 119.92 63.7262C120.379 64.0142 120.896 64.4747 121.528 65.2228ZM120.031 66.4857C120.548 67.0612 120.892 67.464 121.122 67.5793C121.352 67.752 121.524 67.7522 121.64 67.6374C121.755 67.58 121.755 67.4651 121.755 67.3501C121.755 67.2351 121.64 67.0625 121.526 66.8324C121.353 66.6023 121.124 66.3146 120.779 65.9117C120.32 65.3363 119.918 64.9909 119.689 64.8182C119.459 64.6454 119.286 64.6452 119.114 64.76C118.999 64.8748 118.941 65.0472 119.113 65.3348C119.285 65.5075 119.572 65.9103 120.031 66.4857Z" fill="white"/>
<path d="M135.044 59.4349L134.181 59.9512L132.575 57.1899C132.402 56.9023 132.23 56.5571 132.001 56.1544C132.001 56.2119 132.001 56.2694 131.943 56.4418C131.885 56.6142 131.828 56.9015 131.712 57.3613L130.908 57.1303L131.485 55.234L132.29 54.7751L135.044 59.4349Z" fill="white"/>
<path d="M138.496 57.4262L135.965 58.8602L135.563 58.2274L135.737 56.5605C135.796 56.1007 135.796 55.7558 135.796 55.5833C135.796 55.3534 135.739 55.1808 135.739 55.0084C135.682 54.8359 135.625 54.6633 135.568 54.5483C135.453 54.3757 135.338 54.2606 135.223 54.2029C135.108 54.1453 134.936 54.2026 134.821 54.2599C134.706 54.3173 134.59 54.4321 134.533 54.547C134.475 54.6619 134.417 54.8343 134.36 55.0642L133.555 54.8332C133.613 54.4309 133.728 54.1436 133.901 53.9714C134.016 53.7416 134.247 53.5694 134.419 53.4546C134.822 53.2252 135.167 53.1681 135.512 53.2835C135.856 53.3989 136.144 53.6292 136.373 54.0319C136.488 54.2045 136.545 54.377 136.602 54.5496C136.66 54.7221 136.717 54.9521 136.717 55.1246C136.716 55.3545 136.716 55.5845 136.716 55.8144C136.715 56.0443 136.6 56.6191 136.484 57.5387L138.037 56.6783L138.496 57.4262Z" fill="white"/>
<path d="M140.225 53.2901C140.741 54.153 140.97 54.8431 140.97 55.303C140.969 55.8204 140.739 56.165 140.336 56.4519C139.876 56.7388 139.416 56.7382 139.014 56.4503C138.612 56.1624 138.152 55.6444 137.636 54.7815C137.12 53.9186 136.891 53.2285 136.891 52.7686C136.892 52.2512 137.122 51.9066 137.525 51.6197C137.985 51.3328 138.388 51.3333 138.847 51.6213C139.307 51.8518 139.766 52.4272 140.225 53.2901ZM138.556 54.2653C138.958 54.8981 139.245 55.3584 139.417 55.531C139.589 55.7037 139.762 55.7614 139.934 55.7041C140.049 55.6468 140.107 55.5319 140.107 55.4169C140.107 55.3019 140.05 55.0719 139.935 54.8418C139.821 54.6118 139.649 54.2666 139.362 53.8064C138.96 53.1736 138.731 52.7134 138.501 52.5406C138.329 52.3105 138.156 52.3103 137.984 52.3676C137.811 52.4823 137.811 52.6548 137.868 52.8848C137.926 53.1148 138.155 53.575 138.556 54.2653Z" fill="white"/>
<path d="M154.544 49.8581L153.624 50.2018L152.535 47.2112C152.421 46.8662 152.306 46.5211 152.192 46.0611C152.192 46.1186 152.134 46.176 152.076 46.3484C152.019 46.5208 151.903 46.8081 151.73 47.2102L150.984 46.8069L151.906 45.0835L152.768 44.7971L154.544 49.8581Z" fill="white"/>
<path d="M157.823 48.6549L156.902 48.9987L155.814 46.0081C155.699 45.6631 155.585 45.318 155.47 44.858C155.47 44.9155 155.413 44.9729 155.355 45.1453C155.297 45.3176 155.182 45.6049 155.009 46.0071L154.262 45.6038L155.184 43.8804L156.047 43.594L157.823 48.6549Z" fill="white"/>
<path d="M160.758 44.7485C161.102 45.6687 161.216 46.3587 161.158 46.876C161.1 47.3933 160.812 47.6803 160.295 47.9096C159.777 48.0815 159.375 48.0235 159.03 47.6781C158.686 47.3328 158.342 46.7 157.998 45.7798C157.654 44.8596 157.54 44.1697 157.598 43.6524C157.656 43.1351 157.944 42.7905 158.462 42.6187C158.979 42.4469 159.381 42.5049 159.726 42.8502C160.071 43.138 160.415 43.7708 160.758 44.7485ZM158.918 45.3786C159.205 46.0688 159.376 46.5863 159.549 46.8165C159.721 47.0466 159.836 47.1043 160.008 47.047C160.123 46.9897 160.181 46.9322 160.238 46.7599C160.239 46.6449 160.239 46.4149 160.182 46.1849C160.125 45.9549 160.01 45.5524 159.838 45.0348C159.609 44.3447 159.38 43.8845 159.208 43.6544C159.035 43.4242 158.863 43.309 158.69 43.4238C158.518 43.481 158.46 43.6534 158.46 43.9409C158.517 44.1709 158.631 44.6884 158.918 45.3786Z" fill="white"/>
<path d="M175.13 43.9026L174.153 44.0739L173.582 40.9114C173.525 40.5664 173.468 40.164 173.411 39.704C173.411 39.704 173.353 39.8189 173.238 39.9337C173.123 40.0486 172.95 40.3358 172.72 40.7379L172.031 40.2197L173.24 38.6691L174.102 38.4977L175.13 43.9026Z" fill="white"/>
<path d="M178.641 40.5165C178.813 41.494 178.812 42.1838 178.639 42.7009C178.466 43.1606 178.12 43.4476 177.603 43.5619C177.085 43.6763 176.683 43.5033 176.396 43.1006C176.109 42.6978 175.88 42.0077 175.709 41.0877C175.538 40.1103 175.538 39.4204 175.711 38.9033C175.885 38.4436 176.23 38.1566 176.69 38.0422C177.207 37.9279 177.61 38.1008 177.896 38.5036C178.241 38.8489 178.47 39.539 178.641 40.5165ZM176.744 40.8591C176.858 41.6065 176.972 42.124 177.087 42.3541C177.202 42.5842 177.316 42.6993 177.546 42.6996C177.661 42.6997 177.776 42.5849 177.777 42.4699C177.834 42.355 177.834 42.1251 177.835 41.8951C177.835 41.6077 177.778 41.2627 177.664 40.6877C177.55 39.9403 177.435 39.4803 177.321 39.1927C177.206 38.9626 177.034 38.8474 176.861 38.8472C176.689 38.9045 176.574 39.0193 176.573 39.3067C176.515 39.5941 176.572 40.1115 176.744 40.8591Z" fill="white"/>
<path d="M182.148 39.9462C182.319 40.9236 182.319 41.6135 182.146 42.1306C181.973 42.5903 181.627 42.8773 181.11 42.9916C180.592 43.106 180.19 42.933 179.903 42.5303C179.616 42.1275 179.387 41.4374 179.216 40.5174C179.044 39.5399 179.045 38.8501 179.218 38.333C179.391 37.8733 179.737 37.5863 180.197 37.4719C180.714 37.3575 181.116 37.5305 181.403 37.9333C181.748 38.2786 181.977 38.9112 182.148 39.9462ZM180.193 40.2887C180.307 41.0361 180.422 41.5536 180.536 41.7837C180.651 42.0138 180.766 42.1289 180.996 42.1292C181.111 42.1294 181.226 42.0145 181.226 41.8995C181.284 41.7846 181.284 41.5547 181.284 41.3248C181.285 41.0373 181.228 40.6924 181.113 40.1174C180.999 39.3699 180.885 38.9099 180.77 38.6223C180.656 38.3922 180.483 38.277 180.311 38.2768C180.138 38.3341 180.023 38.4489 180.023 38.7363C180.022 39.0238 180.079 39.5412 180.193 40.2887Z" fill="white"/>
<path d="M87.2552 165.552L76.3904 165.539L76.3895 166.344L87.2542 166.357L87.2552 165.552Z" fill="white"/>
<path d="M78.3705 144.198L78.2298 144.99L88.9271 146.89L89.0678 146.097L78.3705 144.198Z" fill="white"/>
<path d="M84.0123 123.546L83.7361 124.302L93.9412 128.03L94.2174 127.274L84.0123 123.546Z" fill="white"/>
<path d="M93.1256 104.199L92.7223 104.896L102.125 110.34L102.528 109.643L93.1256 104.199Z" fill="white"/>
<path d="M105.512 86.6565L104.994 87.2725L113.309 94.2666L113.827 93.6507L105.512 86.6565Z" fill="white"/>
<path d="M120.678 71.6006L120.061 72.1172L127.034 80.4482L127.651 79.9317L120.678 71.6006Z" fill="white"/>
<path d="M138.303 59.3983L137.606 59.7998L143.026 69.2154L143.724 68.8139L138.303 59.3983Z" fill="white"/>
<path d="M157.783 50.4571L157.027 50.7314L160.73 60.9457L161.486 60.6714L157.783 50.4571Z" fill="white"/>
<path d="M178.482 44.9628L177.69 45.1016L179.563 55.8035L180.355 55.6648L178.482 44.9628Z" fill="white"/>
<path d="M199.85 43.1875L199.045 43.1865L199.032 54.0513L199.837 54.0523L199.85 43.1875Z" fill="white"/>
<path d="M200.531 163.658L198.537 163.655L198.526 173.258L200.519 173.26L200.531 163.658Z" fill="white"/>
<path d="M220.377 45.039L218.475 55.7363L219.268 55.8772L221.169 45.1799L220.377 45.039Z" fill="white"/>
<path d="M241.084 50.5341L237.357 60.7402L238.113 61.0163L241.84 50.8102L241.084 50.5341Z" fill="white"/>
<path d="M260.522 59.5568L255.078 68.959L255.774 69.3622L261.218 59.9601L260.522 59.5568Z" fill="white"/>
<path d="M278.095 71.7786L271.105 80.0957L271.721 80.6135L278.712 72.2965L278.095 71.7786Z" fill="white"/>
<path d="M293.257 86.9554L284.923 93.9258L285.439 94.5431L293.773 87.5728L293.257 86.9554Z" fill="white"/>
<path d="M305.576 104.417L296.16 109.838L296.562 110.535L305.977 105.115L305.576 104.417Z" fill="white"/>
<path d="M314.645 123.824L304.43 127.526L304.705 128.283L314.919 124.581L314.645 123.824Z" fill="white"/>
<path d="M320.239 144.509L309.537 146.384L309.676 147.177L320.378 145.301L320.239 144.509Z" fill="white"/>
<path d="M322.146 165.843L311.281 165.829L311.28 166.634L322.145 166.647L322.146 165.843Z" fill="white"/>
</svg>
