<svg width="92" height="48" viewBox="0 0 92 48" fill="none" xmlns="http://www.w3.org/2000/svg">
<path d="M33.7743 22.416H40.2303V24.408H33.7743V22.416Z" fill="#2F2F2F"/>
<path d="M79.6236 19.808H90.3756V21.704H79.6236V19.808ZM79.6236 25.496H90.3756V27.392H79.6236V25.496Z" fill="#2F2F2F"/>
<path d="M16.964 10.376C17.624 10.676 18.128 11.084 18.476 11.6C18.836 12.104 19.016 12.698 19.016 13.382C19.016 14.15 18.8 14.822 18.368 15.398C17.948 15.974 17.348 16.418 16.568 16.73C15.788 17.03 14.882 17.18 13.85 17.18C12.818 17.18 11.912 17.03 11.132 16.73C10.364 16.418 9.77 15.974 9.35 15.398C8.93 14.822 8.72 14.15 8.72 13.382C8.72 12.698 8.894 12.104 9.242 11.6C9.59 11.084 10.088 10.676 10.736 10.376C10.232 10.1 9.842 9.74 9.566 9.296C9.302 8.84 9.17 8.318 9.17 7.73C9.17 7.022 9.362 6.404 9.746 5.876C10.142 5.348 10.694 4.94 11.402 4.652C12.11 4.364 12.926 4.22 13.85 4.22C14.786 4.22 15.608 4.364 16.316 4.652C17.024 4.94 17.576 5.348 17.972 5.876C18.368 6.404 18.566 7.022 18.566 7.73C18.566 8.318 18.428 8.834 18.152 9.278C17.876 9.722 17.48 10.088 16.964 10.376ZM13.85 6.056C13.118 6.056 12.536 6.212 12.104 6.524C11.684 6.836 11.474 7.274 11.474 7.838C11.474 8.378 11.684 8.81 12.104 9.134C12.536 9.446 13.118 9.602 13.85 9.602C14.594 9.602 15.182 9.446 15.614 9.134C16.046 8.81 16.262 8.378 16.262 7.838C16.262 7.274 16.04 6.836 15.596 6.524C15.164 6.212 14.582 6.056 13.85 6.056ZM13.85 15.344C14.714 15.344 15.398 15.164 15.902 14.804C16.406 14.444 16.658 13.946 16.658 13.31C16.658 12.686 16.406 12.194 15.902 11.834C15.398 11.474 14.714 11.294 13.85 11.294C12.986 11.294 12.308 11.474 11.816 11.834C11.324 12.194 11.078 12.686 11.078 13.31C11.078 13.946 11.324 14.444 11.816 14.804C12.308 15.164 12.986 15.344 13.85 15.344Z" fill="#2F2F2F"/>
<line x1="0.5" y1="23.5" x2="26.5" y2="23.5" stroke="#2F2F2F" stroke-linecap="round"/>
<path d="M12.04 30.22C13.768 30.22 15.106 30.76 16.054 31.84C17.014 32.92 17.494 34.468 17.494 36.484C17.494 37.9 17.236 39.112 16.72 40.12C16.204 41.116 15.478 41.878 14.542 42.406C13.618 42.922 12.544 43.18 11.32 43.18C10.672 43.18 10.06 43.114 9.484 42.982C8.92 42.838 8.428 42.634 8.008 42.37L8.872 40.606C9.496 41.014 10.294 41.218 11.266 41.218C12.478 41.218 13.426 40.846 14.11 40.102C14.794 39.358 15.136 38.284 15.136 36.88V36.862C14.764 37.294 14.29 37.624 13.714 37.852C13.138 38.068 12.49 38.176 11.77 38.176C10.942 38.176 10.198 38.02 9.538 37.708C8.878 37.384 8.362 36.928 7.99 36.34C7.618 35.752 7.432 35.074 7.432 34.306C7.432 33.49 7.636 32.776 8.044 32.164C8.452 31.54 9.004 31.06 9.7 30.724C10.396 30.388 11.176 30.22 12.04 30.22ZM12.22 36.34C12.976 36.34 13.588 36.136 14.056 35.728C14.536 35.32 14.776 34.804 14.776 34.18C14.776 33.568 14.542 33.064 14.074 32.668C13.618 32.26 12.982 32.056 12.166 32.056C11.434 32.056 10.84 32.254 10.384 32.65C9.928 33.034 9.7 33.55 9.7 34.198C9.7 34.858 9.928 35.38 10.384 35.764C10.84 36.148 11.452 36.34 12.22 36.34Z" fill="#2F2F2F"/>
<path d="M64.918 15.02V17H55.63V15.434L60.634 10.682C61.198 10.142 61.576 9.674 61.768 9.278C61.972 8.87 62.074 8.468 62.074 8.072C62.074 7.484 61.876 7.034 61.48 6.722C61.084 6.41 60.502 6.254 59.734 6.254C58.45 6.254 57.466 6.692 56.782 7.568L55.144 6.308C55.636 5.648 56.296 5.138 57.124 4.778C57.964 4.406 58.9 4.22 59.932 4.22C61.3 4.22 62.392 4.544 63.208 5.192C64.024 5.84 64.432 6.722 64.432 7.838C64.432 8.522 64.288 9.164 64 9.764C63.712 10.364 63.16 11.048 62.344 11.816L58.978 15.02H64.918Z" fill="#2F2F2F"/>
<line x1="47.5" y1="23.5" x2="73.5" y2="23.5" stroke="#2F2F2F" stroke-linecap="round"/>
<path d="M60.156 35.602C61.32 35.746 62.208 36.142 62.82 36.79C63.432 37.438 63.738 38.248 63.738 39.22C63.738 39.952 63.552 40.618 63.18 41.218C62.808 41.818 62.244 42.298 61.488 42.658C60.744 43.006 59.832 43.18 58.752 43.18C57.852 43.18 56.982 43.054 56.142 42.802C55.314 42.538 54.606 42.178 54.018 41.722L55.026 39.904C55.482 40.288 56.034 40.594 56.682 40.822C57.342 41.038 58.02 41.146 58.716 41.146C59.544 41.146 60.192 40.978 60.66 40.642C61.14 40.294 61.38 39.826 61.38 39.238C61.38 38.65 61.152 38.194 60.696 37.87C60.252 37.534 59.568 37.366 58.644 37.366H57.492V35.764L60.354 32.362H54.63V30.4H63.216V31.966L60.156 35.602Z" fill="#2F2F2F"/>
</svg>
