<svg width="93" height="48" viewBox="0 0 93 48" fill="none" xmlns="http://www.w3.org/2000/svg">
<path d="M80.6236 19.808H91.3756V21.704H80.6236V19.808ZM80.6236 25.496H91.3756V27.392H80.6236V25.496Z" fill="#2F2F2F"/>
<path d="M42.3756 25.56H38.0076V29.856H35.9916V25.56H31.6236V23.664H35.9916V19.344H38.0076V23.664H42.3756V25.56Z" fill="#2F2F2F"/>
<path d="M20.024 14.138H17.792V17H15.524V14.138H8.612V12.518L14.822 4.4H17.324L11.474 12.158H15.596V9.62H17.792V12.158H20.024V14.138Z" fill="#2F2F2F"/>
<line x1="0.5" y1="23.5" x2="26.5" y2="23.5" stroke="#2F2F2F" stroke-linecap="round"/>
<path d="M17.296 30.4V31.966L12.4 43H9.898L14.632 32.38H9.682V34.522H7.504V30.4H17.296Z" fill="#2F2F2F"/>
<path d="M64.918 15.02V17H55.63V15.434L60.634 10.682C61.198 10.142 61.576 9.674 61.768 9.278C61.972 8.87 62.074 8.468 62.074 8.072C62.074 7.484 61.876 7.034 61.48 6.722C61.084 6.41 60.502 6.254 59.734 6.254C58.45 6.254 57.466 6.692 56.782 7.568L55.144 6.308C55.636 5.648 56.296 5.138 57.124 4.778C57.964 4.406 58.9 4.22 59.932 4.22C61.3 4.22 62.392 4.544 63.208 5.192C64.024 5.84 64.432 6.722 64.432 7.838C64.432 8.522 64.288 9.164 64 9.764C63.712 10.364 63.16 11.048 62.344 11.816L58.978 15.02H64.918Z" fill="#2F2F2F"/>
<line x1="47.5" y1="23.5" x2="73.5" y2="23.5" stroke="#2F2F2F" stroke-linecap="round"/>
<path d="M64.296 30.4V31.966L59.4 43H56.898L61.632 32.38H56.682V34.522H54.504V30.4H64.296Z" fill="#2F2F2F"/>
</svg>
