<svg width="93" height="48" viewBox="0 0 93 48" fill="none" xmlns="http://www.w3.org/2000/svg">
<path d="M80.6236 16.808H91.3756V18.704H80.6236V16.808ZM80.6236 22.496H91.3756V24.392H80.6236V22.496Z" fill="#2F2F2F"/>
<path d="M42.3756 22.56H38.0076V26.856H35.9916V22.56H31.6236V20.664H35.9916V16.344H38.0076V20.664H42.3756V22.56Z" fill="#2F2F2F"/>
<path d="M17.918 15.02V17H8.63V15.434L13.634 10.682C14.198 10.142 14.576 9.674 14.768 9.278C14.972 8.87 15.074 8.468 15.074 8.072C15.074 7.484 14.876 7.034 14.48 6.722C14.084 6.41 13.502 6.254 12.734 6.254C11.45 6.254 10.466 6.692 9.782 7.568L8.144 6.308C8.636 5.648 9.296 5.138 10.124 4.778C10.964 4.406 11.9 4.22 12.932 4.22C14.3 4.22 15.392 4.544 16.208 5.192C17.024 5.84 17.432 6.722 17.432 7.838C17.432 8.522 17.288 9.164 17 9.764C16.712 10.364 16.16 11.048 15.344 11.816L11.978 15.02H17.918Z" fill="#2F2F2F"/>
<line x1="0.5" y1="23.5" x2="26.5" y2="23.5" stroke="#2F2F2F" stroke-linecap="round"/>
<path d="M11.734 35.278C13.51 35.278 14.824 35.626 15.676 36.322C16.528 37.006 16.954 37.942 16.954 39.13C16.954 39.886 16.768 40.57 16.396 41.182C16.024 41.794 15.466 42.28 14.722 42.64C13.978 43 13.06 43.18 11.968 43.18C11.068 43.18 10.198 43.054 9.358 42.802C8.518 42.538 7.81 42.178 7.234 41.722L8.224 39.904C8.692 40.288 9.25 40.594 9.898 40.822C10.558 41.038 11.236 41.146 11.932 41.146C12.76 41.146 13.408 40.978 13.876 40.642C14.356 40.294 14.596 39.82 14.596 39.22C14.596 38.572 14.338 38.086 13.822 37.762C13.318 37.426 12.448 37.258 11.212 37.258H8.17L8.818 30.4H16.216V32.362H10.798L10.528 35.278H11.734Z" fill="#2F2F2F"/>
<path d="M60.148 4.4V17H57.808V6.362H55.144V4.4H60.148Z" fill="#2F2F2F"/>
<line x1="47.5" y1="23.5" x2="73.5" y2="23.5" stroke="#2F2F2F" stroke-linecap="round"/>
<path d="M58.734 35.278C60.51 35.278 61.824 35.626 62.676 36.322C63.528 37.006 63.954 37.942 63.954 39.13C63.954 39.886 63.768 40.57 63.396 41.182C63.024 41.794 62.466 42.28 61.722 42.64C60.978 43 60.06 43.18 58.968 43.18C58.068 43.18 57.198 43.054 56.358 42.802C55.518 42.538 54.81 42.178 54.234 41.722L55.224 39.904C55.692 40.288 56.25 40.594 56.898 40.822C57.558 41.038 58.236 41.146 58.932 41.146C59.76 41.146 60.408 40.978 60.876 40.642C61.356 40.294 61.596 39.82 61.596 39.22C61.596 38.572 61.338 38.086 60.822 37.762C60.318 37.426 59.448 37.258 58.212 37.258H55.17L55.818 30.4H63.216V32.362H57.798L57.528 35.278H58.734Z" fill="#2F2F2F"/>
</svg>
