<svg width="92" height="48" viewBox="0 0 92 48" fill="none" xmlns="http://www.w3.org/2000/svg">
<path d="M79.6236 17.808H90.3756V19.704H79.6236V17.808ZM79.6236 23.496H90.3756V25.392H79.6236V23.496Z" fill="#2F2F2F"/>
<path d="M33.7743 22.416H40.2303V24.408H33.7743V22.416Z" fill="#2F2F2F"/>
<path d="M14.156 9.602C15.32 9.746 16.208 10.142 16.82 10.79C17.432 11.438 17.738 12.248 17.738 13.22C17.738 13.952 17.552 14.618 17.18 15.218C16.808 15.818 16.244 16.298 15.488 16.658C14.744 17.006 13.832 17.18 12.752 17.18C11.852 17.18 10.982 17.054 10.142 16.802C9.314 16.538 8.606 16.178 8.018 15.722L9.026 13.904C9.482 14.288 10.034 14.594 10.682 14.822C11.342 15.038 12.02 15.146 12.716 15.146C13.544 15.146 14.192 14.978 14.66 14.642C15.14 14.294 15.38 13.826 15.38 13.238C15.38 12.65 15.152 12.194 14.696 11.87C14.252 11.534 13.568 11.366 12.644 11.366H11.492V9.764L14.354 6.362H8.63V4.4H17.216V5.966L14.156 9.602Z" fill="#2F2F2F"/>
<line x1="0.5" y1="23.5" x2="26.5" y2="23.5" stroke="#2F2F2F" stroke-linecap="round"/>
<path d="M19.024 40.138H16.792V43H14.524V40.138H7.612V38.518L13.822 30.4H16.324L10.474 38.158H14.596V35.62H16.792V38.158H19.024V40.138Z" fill="#2F2F2F"/>
<path d="M59.734 9.278C61.51 9.278 62.824 9.626 63.676 10.322C64.528 11.006 64.954 11.942 64.954 13.13C64.954 13.886 64.768 14.57 64.396 15.182C64.024 15.794 63.466 16.28 62.722 16.64C61.978 17 61.06 17.18 59.968 17.18C59.068 17.18 58.198 17.054 57.358 16.802C56.518 16.538 55.81 16.178 55.234 15.722L56.224 13.904C56.692 14.288 57.25 14.594 57.898 14.822C58.558 15.038 59.236 15.146 59.932 15.146C60.76 15.146 61.408 14.978 61.876 14.642C62.356 14.294 62.596 13.82 62.596 13.22C62.596 12.572 62.338 12.086 61.822 11.762C61.318 11.426 60.448 11.258 59.212 11.258H56.17L56.818 4.4H64.216V6.362H58.798L58.528 9.278H59.734Z" fill="#2F2F2F"/>
<line x1="47.5" y1="23.5" x2="73.5" y2="23.5" stroke="#2F2F2F" stroke-linecap="round"/>
<path d="M62.964 36.376C63.624 36.676 64.128 37.084 64.476 37.6C64.836 38.104 65.016 38.698 65.016 39.382C65.016 40.15 64.8 40.822 64.368 41.398C63.948 41.974 63.348 42.418 62.568 42.73C61.788 43.03 60.882 43.18 59.85 43.18C58.818 43.18 57.912 43.03 57.132 42.73C56.364 42.418 55.77 41.974 55.35 41.398C54.93 40.822 54.72 40.15 54.72 39.382C54.72 38.698 54.894 38.104 55.242 37.6C55.59 37.084 56.088 36.676 56.736 36.376C56.232 36.1 55.842 35.74 55.566 35.296C55.302 34.84 55.17 34.318 55.17 33.73C55.17 33.022 55.362 32.404 55.746 31.876C56.142 31.348 56.694 30.94 57.402 30.652C58.11 30.364 58.926 30.22 59.85 30.22C60.786 30.22 61.608 30.364 62.316 30.652C63.024 30.94 63.576 31.348 63.972 31.876C64.368 32.404 64.566 33.022 64.566 33.73C64.566 34.318 64.428 34.834 64.152 35.278C63.876 35.722 63.48 36.088 62.964 36.376ZM59.85 32.056C59.118 32.056 58.536 32.212 58.104 32.524C57.684 32.836 57.474 33.274 57.474 33.838C57.474 34.378 57.684 34.81 58.104 35.134C58.536 35.446 59.118 35.602 59.85 35.602C60.594 35.602 61.182 35.446 61.614 35.134C62.046 34.81 62.262 34.378 62.262 33.838C62.262 33.274 62.04 32.836 61.596 32.524C61.164 32.212 60.582 32.056 59.85 32.056ZM59.85 41.344C60.714 41.344 61.398 41.164 61.902 40.804C62.406 40.444 62.658 39.946 62.658 39.31C62.658 38.686 62.406 38.194 61.902 37.834C61.398 37.474 60.714 37.294 59.85 37.294C58.986 37.294 58.308 37.474 57.816 37.834C57.324 38.194 57.078 38.686 57.078 39.31C57.078 39.946 57.324 40.444 57.816 40.804C58.308 41.164 58.986 41.344 59.85 41.344Z" fill="#2F2F2F"/>
</svg>
