<svg width="467" height="204" viewBox="0 0 467 204" fill="none" xmlns="http://www.w3.org/2000/svg">
<path d="M392.624 18.808H403.376V20.704H392.624V18.808ZM392.624 24.496H403.376V26.392H392.624V24.496Z" fill="#2F2F2F"/>
<path d="M354.376 23.56H350.008V27.856H347.992V23.56H343.624V21.664H347.992V17.344H350.008V21.664H354.376V23.56Z" fill="#2F2F2F"/>
<path d="M326.156 9.602C327.32 9.746 328.208 10.142 328.82 10.79C329.432 11.438 329.738 12.248 329.738 13.22C329.738 13.952 329.552 14.618 329.18 15.218C328.808 15.818 328.244 16.298 327.488 16.658C326.744 17.006 325.832 17.18 324.752 17.18C323.852 17.18 322.982 17.054 322.142 16.802C321.314 16.538 320.606 16.178 320.018 15.722L321.026 13.904C321.482 14.288 322.034 14.594 322.682 14.822C323.342 15.038 324.02 15.146 324.716 15.146C325.544 15.146 326.192 14.978 326.66 14.642C327.14 14.294 327.38 13.826 327.38 13.238C327.38 12.65 327.152 12.194 326.696 11.87C326.252 11.534 325.568 11.366 324.644 11.366H323.492V9.764L326.354 6.362H320.63V4.4H329.216V5.966L326.156 9.602Z" fill="#2F2F2F"/>
<line x1="312.5" y1="23.5" x2="338.5" y2="23.5" stroke="#2F2F2F" stroke-linecap="round"/>
<path d="M325.516 35.224C326.344 35.224 327.088 35.386 327.748 35.71C328.408 36.022 328.924 36.472 329.296 37.06C329.668 37.648 329.854 38.326 329.854 39.094C329.854 39.91 329.65 40.63 329.242 41.254C328.834 41.866 328.282 42.34 327.586 42.676C326.89 43.012 326.11 43.18 325.246 43.18C323.518 43.18 322.174 42.64 321.214 41.56C320.266 40.48 319.792 38.932 319.792 36.916C319.792 35.5 320.05 34.294 320.566 33.298C321.082 32.29 321.802 31.528 322.726 31.012C323.662 30.484 324.742 30.22 325.966 30.22C326.614 30.22 327.22 30.292 327.784 30.436C328.36 30.568 328.858 30.766 329.278 31.03L328.414 32.794C327.79 32.386 326.992 32.182 326.02 32.182C324.808 32.182 323.86 32.554 323.176 33.298C322.492 34.042 322.15 35.116 322.15 36.52V36.538C322.522 36.106 322.996 35.782 323.572 35.566C324.148 35.338 324.796 35.224 325.516 35.224ZM325.12 41.344C325.852 41.344 326.446 41.152 326.902 40.768C327.358 40.372 327.586 39.85 327.586 39.202C327.586 38.542 327.358 38.02 326.902 37.636C326.446 37.252 325.834 37.06 325.066 37.06C324.31 37.06 323.692 37.264 323.212 37.672C322.744 38.08 322.51 38.596 322.51 39.22C322.51 39.832 322.738 40.342 323.194 40.75C323.662 41.146 324.304 41.344 325.12 41.344Z" fill="#2F2F2F"/>
<path d="M372.148 4.4V17H369.808V6.362H367.144V4.4H372.148Z" fill="#2F2F2F"/>
<line x1="359.5" y1="23.5" x2="385.5" y2="23.5" stroke="#2F2F2F" stroke-linecap="round"/>
<path d="M371.148 30.4V43H368.808V32.362H366.144V30.4H371.148ZM382.773 41.02V43H373.485V41.434L378.489 36.682C379.053 36.142 379.431 35.674 379.623 35.278C379.827 34.87 379.929 34.468 379.929 34.072C379.929 33.484 379.731 33.034 379.335 32.722C378.939 32.41 378.357 32.254 377.589 32.254C376.305 32.254 375.321 32.692 374.637 33.568L372.999 32.308C373.491 31.648 374.151 31.138 374.979 30.778C375.819 30.406 376.755 30.22 377.787 30.22C379.155 30.22 380.247 30.544 381.063 31.192C381.879 31.84 382.287 32.722 382.287 33.838C382.287 34.522 382.143 35.164 381.855 35.764C381.567 36.364 381.015 37.048 380.199 37.816L376.833 41.02H382.773Z" fill="#2F2F2F"/>
<path d="M425.852 20.5328C427.652 20.528 428.973 20.8664 429.817 21.5481C430.672 22.2178 431.103 23.1407 431.109 24.3166C431.113 25.0606 430.937 25.7331 430.58 26.3341C430.235 26.923 429.703 27.3924 428.985 27.7424C428.279 28.0803 427.403 28.2506 426.359 28.2535C425.471 28.2559 424.613 28.1262 423.783 27.8644C422.954 27.5906 422.268 27.2145 421.726 26.7359L422.546 25.3117C422.98 25.7186 423.534 26.0471 424.207 26.2973C424.881 26.5354 425.589 26.6535 426.333 26.6515C427.281 26.649 428.012 26.449 428.526 26.0516C429.052 25.6422 429.313 25.0895 429.31 24.3935C429.306 23.6375 429.015 23.0683 428.437 22.6859C427.859 22.2914 426.874 22.0961 425.482 22.0998L422.62 22.1075L423.252 15.5178L430.362 15.4987L430.37 17.0646L424.772 17.0797L424.448 20.5366L425.852 20.5328ZM437.121 12.9244L438.687 12.9202L432.834 29.892L431.268 29.8962L437.121 12.9244ZM443.341 15.4637L443.406 28.0635L441.624 28.0683L441.567 17.0344L438.723 17.0421L438.715 15.4761L443.341 15.4637ZM455.01 26.4662L455.018 28.0322L445.964 28.0566L445.957 26.8326L451.062 21.8688C451.683 21.2672 452.1 20.75 452.314 20.3175C452.528 19.8729 452.633 19.4286 452.631 18.9846C452.628 18.3246 452.391 17.8153 451.921 17.4565C451.463 17.0858 450.802 16.9015 449.938 16.9039C448.546 16.9076 447.475 17.3665 446.723 18.2805L445.494 17.2219C445.983 16.6205 446.623 16.1508 447.413 15.8127C448.215 15.4745 449.108 15.3041 450.092 15.3015C451.412 15.2979 452.464 15.6131 453.247 16.2469C454.03 16.8688 454.425 17.7198 454.43 18.7998C454.434 19.4718 454.293 20.1081 454.008 20.7089C453.723 21.3097 453.181 21.9951 452.381 22.7653L448.548 26.4836L455.01 26.4662Z" fill="#2F2F2F"/>
<path d="M415.005 8.13983L461.851 8.01351L461.841 6.01354L414.995 6.13985L415.005 8.13983ZM465.872 12.0027L465.974 32.0026L467.974 31.9972L467.872 11.9973L465.872 12.0027ZM461.995 36.0133L415.149 36.1396L415.159 38.1396L462.005 38.0133L461.995 36.0133ZM411.128 32.1505L411.026 12.1506L409.026 12.156L409.128 32.1559L411.128 32.1505ZM415.149 36.1396C412.94 36.1456 411.14 34.3596 411.128 32.1505L409.128 32.1559C409.146 35.4695 411.846 38.1486 415.159 38.1396L415.149 36.1396ZM465.974 32.0026C465.986 34.2117 464.204 36.0074 461.995 36.0133L462.005 38.0133C465.319 38.0044 467.991 35.3109 467.974 31.9972L465.974 32.0026ZM461.851 8.01351C464.06 8.00755 465.86 9.79356 465.872 12.0027L467.872 11.9973C467.854 8.68361 465.154 6.0046 461.841 6.01354L461.851 8.01351ZM414.995 6.13985C411.681 6.14879 409.009 8.84229 409.026 12.156L411.026 12.1506C411.014 9.94145 412.796 8.14578 415.005 8.13983L414.995 6.13985Z" fill="#2F2F2F"/>
<path d="M392.624 96.808H403.376V98.704H392.624V96.808ZM392.624 102.496H403.376V104.392H392.624V102.496Z" fill="#2F2F2F"/>
<path d="M354.376 101.56H350.008V105.856H347.992V101.56H343.624V99.664H347.992V95.344H350.008V99.664H354.376V101.56Z" fill="#2F2F2F"/>
<path d="M329.918 93.02V95H320.63V93.434L325.634 88.682C326.198 88.142 326.576 87.674 326.768 87.278C326.972 86.87 327.074 86.468 327.074 86.072C327.074 85.484 326.876 85.034 326.48 84.722C326.084 84.41 325.502 84.254 324.734 84.254C323.45 84.254 322.466 84.692 321.782 85.568L320.144 84.308C320.636 83.648 321.296 83.138 322.124 82.778C322.964 82.406 323.9 82.22 324.932 82.22C326.3 82.22 327.392 82.544 328.208 83.192C329.024 83.84 329.432 84.722 329.432 85.838C329.432 86.522 329.288 87.164 329 87.764C328.712 88.364 328.16 89.048 327.344 89.816L323.978 93.02H329.918Z" fill="#2F2F2F"/>
<line x1="312.5" y1="101.5" x2="338.5" y2="101.5" stroke="#2F2F2F" stroke-linecap="round"/>
<path d="M323.734 113.278C325.51 113.278 326.824 113.626 327.676 114.322C328.528 115.006 328.954 115.942 328.954 117.13C328.954 117.886 328.768 118.57 328.396 119.182C328.024 119.794 327.466 120.28 326.722 120.64C325.978 121 325.06 121.18 323.968 121.18C323.068 121.18 322.198 121.054 321.358 120.802C320.518 120.538 319.81 120.178 319.234 119.722L320.224 117.904C320.692 118.288 321.25 118.594 321.898 118.822C322.558 119.038 323.236 119.146 323.932 119.146C324.76 119.146 325.408 118.978 325.876 118.642C326.356 118.294 326.596 117.82 326.596 117.22C326.596 116.572 326.338 116.086 325.822 115.762C325.318 115.426 324.448 115.258 323.212 115.258H320.17L320.818 108.4H328.216V110.362H322.798L322.528 113.278H323.734Z" fill="#2F2F2F"/>
<path d="M372.148 82.4V95H369.808V84.362H367.144V82.4H372.148Z" fill="#2F2F2F"/>
<line x1="359.5" y1="101.5" x2="385.5" y2="101.5" stroke="#2F2F2F" stroke-linecap="round"/>
<path d="M370.734 113.278C372.51 113.278 373.824 113.626 374.676 114.322C375.528 115.006 375.954 115.942 375.954 117.13C375.954 117.886 375.768 118.57 375.396 119.182C375.024 119.794 374.466 120.28 373.722 120.64C372.978 121 372.06 121.18 370.968 121.18C370.068 121.18 369.198 121.054 368.358 120.802C367.518 120.538 366.81 120.178 366.234 119.722L367.224 117.904C367.692 118.288 368.25 118.594 368.898 118.822C369.558 119.038 370.236 119.146 370.932 119.146C371.76 119.146 372.408 118.978 372.876 118.642C373.356 118.294 373.596 117.82 373.596 117.22C373.596 116.572 373.338 116.086 372.822 115.762C372.318 115.426 371.448 115.258 370.212 115.258H367.17L367.818 108.4H375.216V110.362H369.798L369.528 113.278H370.734Z" fill="#2F2F2F"/>
<path d="M430.698 96.7898C431.935 96.9065 432.879 97.2879 433.53 97.9342C434.181 98.5684 434.51 99.3835 434.515 100.38C434.518 101.099 434.342 101.754 433.985 102.343C433.628 102.92 433.09 103.383 432.372 103.733C431.666 104.071 430.797 104.242 429.765 104.244C428.865 104.247 428 104.117 427.17 103.855C426.341 103.582 425.661 103.205 425.131 102.727L425.951 101.303C426.385 101.709 426.939 102.038 427.612 102.288C428.286 102.526 429 102.644 429.756 102.642C430.692 102.64 431.417 102.44 431.931 102.042C432.457 101.645 432.718 101.098 432.715 100.402C432.711 99.7064 432.45 99.1671 431.932 98.7845C431.415 98.4019 430.634 98.212 429.59 98.2148L428.582 98.2175L428.575 96.9575L431.723 93.061L425.657 93.0774L425.649 91.5114L433.965 91.489L433.971 92.713L430.698 96.7898ZM440.707 88.9148L442.273 88.9106L436.42 105.882L434.854 105.887L440.707 88.9148ZM446.102 96.4783C447.902 96.4734 449.223 96.8118 450.067 97.4936C450.922 98.1633 451.353 99.0861 451.359 100.262C451.363 101.006 451.186 101.679 450.83 102.28C450.485 102.868 449.953 103.338 449.235 103.688C448.528 104.026 447.653 104.196 446.609 104.199C445.721 104.201 444.863 104.072 444.033 103.81C443.204 103.536 442.518 103.16 441.976 102.681L442.796 101.257C443.23 101.664 443.784 101.993 444.457 102.243C445.131 102.481 445.839 102.599 446.583 102.597C447.531 102.594 448.262 102.394 448.776 101.997C449.302 101.588 449.563 101.035 449.56 100.339C449.556 99.5829 449.265 99.0137 448.687 98.6313C448.109 98.2369 447.124 98.0415 445.732 98.0453L442.87 98.053L443.502 91.4633L450.612 91.4441L450.62 93.0101L445.022 93.0252L444.698 96.482L446.102 96.4783Z" fill="#2F2F2F"/>
<path d="M415.005 84.1398L461.851 84.0135L461.841 82.0135L414.995 82.1399L415.005 84.1398ZM465.872 88.0027L465.974 108.003L467.974 107.997L467.872 87.9973L465.872 88.0027ZM461.995 112.013L415.149 112.14L415.159 114.14L462.005 114.013L461.995 112.013ZM411.128 108.15L411.026 88.1506L409.026 88.156L409.128 108.156L411.128 108.15ZM415.149 112.14C412.94 112.146 411.14 110.36 411.128 108.15L409.128 108.156C409.146 111.47 411.846 114.149 415.159 114.14L415.149 112.14ZM465.974 108.003C465.986 110.212 464.204 112.007 461.995 112.013L462.005 114.013C465.319 114.004 467.991 111.311 467.974 107.997L465.974 108.003ZM461.851 84.0135C464.06 84.0076 465.86 85.7936 465.872 88.0027L467.872 87.9973C467.854 84.6836 465.154 82.0046 461.841 82.0135L461.851 84.0135ZM414.995 82.1399C411.681 82.1488 409.009 84.8423 409.026 88.156L411.026 88.1506C411.014 85.9414 412.796 84.1458 415.005 84.1398L414.995 82.1399Z" fill="#2F2F2F"/>
<path d="M392.624 174.808H403.376V176.704H392.624V174.808ZM392.624 180.496H403.376V182.392H392.624V180.496Z" fill="#2F2F2F"/>
<path d="M354.376 179.56H350.008V183.856H347.992V179.56H343.624V177.664H347.992V173.344H350.008V177.664H354.376V179.56Z" fill="#2F2F2F"/>
<path d="M332.024 170.138H329.792V173H327.524V170.138H320.612V168.518L326.822 160.4H329.324L323.474 168.158H327.596V165.62H329.792V168.158H332.024V170.138Z" fill="#2F2F2F"/>
<line x1="312.5" y1="179.5" x2="338.5" y2="179.5" stroke="#2F2F2F" stroke-linecap="round"/>
<path d="M329.296 186.4V187.966L324.4 199H321.898L326.632 188.38H321.682V190.522H319.504V186.4H329.296Z" fill="#2F2F2F"/>
<path d="M376.918 171.02V173H367.63V171.434L372.634 166.682C373.198 166.142 373.576 165.674 373.768 165.278C373.972 164.87 374.074 164.468 374.074 164.072C374.074 163.484 373.876 163.034 373.48 162.722C373.084 162.41 372.502 162.254 371.734 162.254C370.45 162.254 369.466 162.692 368.782 163.568L367.144 162.308C367.636 161.648 368.296 161.138 369.124 160.778C369.964 160.406 370.9 160.22 371.932 160.22C373.3 160.22 374.392 160.544 375.208 161.192C376.024 161.84 376.432 162.722 376.432 163.838C376.432 164.522 376.288 165.164 376 165.764C375.712 166.364 375.16 167.048 374.344 167.816L370.978 171.02H376.918Z" fill="#2F2F2F"/>
<line x1="359.5" y1="179.5" x2="385.5" y2="179.5" stroke="#2F2F2F" stroke-linecap="round"/>
<path d="M376.296 186.4V187.966L371.4 199H368.898L373.632 188.38H368.682V190.522H366.504V186.4H376.296Z" fill="#2F2F2F"/>
<path d="M430.5 174.449C431.328 174.446 432.067 174.6 432.716 174.911C433.378 175.221 433.896 175.669 434.271 176.256C434.646 176.831 434.836 177.497 434.839 178.253C434.844 179.045 434.649 179.741 434.256 180.342C433.875 180.943 433.344 181.413 432.661 181.751C431.991 182.077 431.236 182.241 430.396 182.243C428.704 182.247 427.393 181.705 426.464 180.615C425.546 179.526 425.082 177.979 425.072 175.975C425.064 174.571 425.304 173.377 425.791 172.391C426.29 171.394 426.982 170.642 427.868 170.136C428.765 169.617 429.808 169.356 430.996 169.353C431.608 169.352 432.184 169.416 432.725 169.547C433.265 169.665 433.734 169.844 434.131 170.083L433.455 171.489C432.853 171.094 432.048 170.898 431.04 170.901C429.732 170.905 428.708 171.315 427.968 172.133C427.228 172.939 426.862 174.116 426.87 175.664C426.871 175.856 426.878 176.006 426.89 176.114C427.248 175.573 427.738 175.164 428.36 174.886C428.995 174.597 429.708 174.451 430.5 174.449ZM430.316 180.785C431.144 180.783 431.815 180.559 432.329 180.114C432.843 179.668 433.098 179.074 433.094 178.33C433.09 177.586 432.823 176.998 432.293 176.568C431.774 176.125 431.077 175.905 430.201 175.907C429.637 175.909 429.134 176.018 428.691 176.235C428.26 176.453 427.92 176.748 427.67 177.12C427.431 177.493 427.314 177.907 427.316 178.363C427.318 178.807 427.434 179.215 427.664 179.586C427.906 179.946 428.25 180.239 428.695 180.465C429.152 180.68 429.692 180.787 430.316 180.785ZM440.882 166.915L442.448 166.91L436.596 183.882L435.03 183.886L440.882 166.915ZM452.043 169.44L452.049 170.664L447.013 182.054L445.105 182.059L450.035 171.012L444.275 171.027L444.286 173.277L442.558 173.282L442.539 169.466L452.043 169.44Z" fill="#2F2F2F"/>
<path d="M415.005 162.14L461.851 162.014L461.841 160.014L414.995 160.14L415.005 162.14ZM465.872 166.003L465.974 186.003L467.974 185.997L467.872 165.997L465.872 166.003ZM461.995 190.013L415.149 190.14L415.159 192.14L462.005 192.013L461.995 190.013ZM411.128 186.15L411.026 166.151L409.026 166.156L409.128 186.156L411.128 186.15ZM415.149 190.14C412.94 190.146 411.14 188.36 411.128 186.15L409.128 186.156C409.146 189.47 411.846 192.149 415.159 192.14L415.149 190.14ZM465.974 186.003C465.986 188.212 464.204 190.007 461.995 190.013L462.005 192.013C465.319 192.004 467.991 189.311 467.974 185.997L465.974 186.003ZM461.851 162.014C464.06 162.008 465.86 163.794 465.872 166.003L467.872 165.997C467.854 162.684 465.154 160.005 461.841 160.014L461.851 162.014ZM414.995 160.14C411.681 160.149 409.009 162.842 409.026 166.156L411.026 166.151C411.014 163.941 412.796 162.146 415.005 162.14L414.995 160.14Z" fill="#2F2F2F"/>
<path d="M80.6236 18.808H91.3756V20.704H80.6236V18.808ZM80.6236 24.496H91.3756V26.392H80.6236V24.496Z" fill="#2F2F2F"/>
<path d="M33.7743 23.416H40.2303V25.408H33.7743V23.416Z" fill="#2F2F2F"/>
<path d="M14.156 9.602C15.32 9.746 16.208 10.142 16.82 10.79C17.432 11.438 17.738 12.248 17.738 13.22C17.738 13.952 17.552 14.618 17.18 15.218C16.808 15.818 16.244 16.298 15.488 16.658C14.744 17.006 13.832 17.18 12.752 17.18C11.852 17.18 10.982 17.054 10.142 16.802C9.314 16.538 8.606 16.178 8.018 15.722L9.026 13.904C9.482 14.288 10.034 14.594 10.682 14.822C11.342 15.038 12.02 15.146 12.716 15.146C13.544 15.146 14.192 14.978 14.66 14.642C15.14 14.294 15.38 13.826 15.38 13.238C15.38 12.65 15.152 12.194 14.696 11.87C14.252 11.534 13.568 11.366 12.644 11.366H11.492V9.764L14.354 6.362H8.63V4.4H17.216V5.966L14.156 9.602Z" fill="#2F2F2F"/>
<line x1="0.5" y1="23.5" x2="26.5" y2="23.5" stroke="#2F2F2F" stroke-linecap="round"/>
<path d="M11.734 35.278C13.51 35.278 14.824 35.626 15.676 36.322C16.528 37.006 16.954 37.942 16.954 39.13C16.954 39.886 16.768 40.57 16.396 41.182C16.024 41.794 15.466 42.28 14.722 42.64C13.978 43 13.06 43.18 11.968 43.18C11.068 43.18 10.198 43.054 9.358 42.802C8.518 42.538 7.81 42.178 7.234 41.722L8.224 39.904C8.692 40.288 9.25 40.594 9.898 40.822C10.558 41.038 11.236 41.146 11.932 41.146C12.76 41.146 13.408 40.978 13.876 40.642C14.356 40.294 14.596 39.82 14.596 39.22C14.596 38.572 14.338 38.086 13.822 37.762C13.318 37.426 12.448 37.258 11.212 37.258H8.17L8.818 30.4H16.216V32.362H10.798L10.528 35.278H11.734Z" fill="#2F2F2F"/>
<path d="M61.156 9.602C62.32 9.746 63.208 10.142 63.82 10.79C64.432 11.438 64.738 12.248 64.738 13.22C64.738 13.952 64.552 14.618 64.18 15.218C63.808 15.818 63.244 16.298 62.488 16.658C61.744 17.006 60.832 17.18 59.752 17.18C58.852 17.18 57.982 17.054 57.142 16.802C56.314 16.538 55.606 16.178 55.018 15.722L56.026 13.904C56.482 14.288 57.034 14.594 57.682 14.822C58.342 15.038 59.02 15.146 59.716 15.146C60.544 15.146 61.192 14.978 61.66 14.642C62.14 14.294 62.38 13.826 62.38 13.238C62.38 12.65 62.152 12.194 61.696 11.87C61.252 11.534 60.568 11.366 59.644 11.366H58.492V9.764L61.354 6.362H55.63V4.4H64.216V5.966L61.156 9.602Z" fill="#2F2F2F"/>
<line x1="47.5" y1="23.5" x2="73.5" y2="23.5" stroke="#2F2F2F" stroke-linecap="round"/>
<path d="M56.148 30.4V43H53.808V32.362H51.144V30.4H56.148ZM63.9035 43.18C62.8955 43.18 61.9955 42.928 61.2035 42.424C60.4115 41.908 59.7875 41.164 59.3315 40.192C58.8755 39.208 58.6475 38.044 58.6475 36.7C58.6475 35.356 58.8755 34.198 59.3315 33.226C59.7875 32.242 60.4115 31.498 61.2035 30.994C61.9955 30.478 62.8955 30.22 63.9035 30.22C64.9115 30.22 65.8115 30.478 66.6035 30.994C67.4075 31.498 68.0375 32.242 68.4935 33.226C68.9495 34.198 69.1775 35.356 69.1775 36.7C69.1775 38.044 68.9495 39.208 68.4935 40.192C68.0375 41.164 67.4075 41.908 66.6035 42.424C65.8115 42.928 64.9115 43.18 63.9035 43.18ZM63.9035 41.146C64.8035 41.146 65.5115 40.774 66.0275 40.03C66.5555 39.286 66.8195 38.176 66.8195 36.7C66.8195 35.224 66.5555 34.114 66.0275 33.37C65.5115 32.626 64.8035 32.254 63.9035 32.254C63.0155 32.254 62.3075 32.626 61.7795 33.37C61.2635 34.114 61.0055 35.224 61.0055 36.7C61.0055 38.176 61.2635 39.286 61.7795 40.03C62.3075 40.774 63.0155 41.146 63.9035 41.146Z" fill="#2F2F2F"/>
<path d="M114.26 20.8013C115.496 20.918 116.44 21.2995 117.092 21.9457C117.743 22.58 118.071 23.3951 118.076 24.3911C118.08 25.1111 117.903 25.7655 117.546 26.3545C117.189 26.9315 116.652 27.3949 115.933 27.7448C115.227 28.0827 114.358 28.2531 113.326 28.2559C112.426 28.2583 111.561 28.1286 110.732 27.8669C109.903 27.5931 109.223 27.2169 108.692 26.7384L109.513 25.3142C109.947 25.721 110.501 26.0495 111.174 26.2997C111.847 26.5379 112.562 26.6559 113.318 26.6539C114.254 26.6514 114.979 26.4514 115.493 26.054C116.019 25.6566 116.28 25.1099 116.276 24.4139C116.273 23.7179 116.012 23.1786 115.494 22.796C114.976 22.4134 114.195 22.2235 113.151 22.2263L112.143 22.2291L112.137 20.9691L115.285 17.0726L109.219 17.0889L109.211 15.523L117.527 15.5005L117.533 16.7245L114.26 20.8013ZM124.268 12.9264L125.834 12.9221L119.981 29.8939L118.415 29.8981L124.268 12.9264ZM130.488 15.4656L130.553 28.0654L128.771 28.0702L128.714 17.0364L125.87 17.044L125.862 15.4781L130.488 15.4656ZM138.458 28.1881C137.462 28.1908 136.573 27.9412 135.79 27.4393C135.019 26.9254 134.41 26.183 133.961 25.2122C133.512 24.2414 133.284 23.0901 133.277 21.7581C133.27 20.4261 133.486 19.2735 133.925 18.3003C134.364 17.3271 134.966 16.5875 135.732 16.0814C136.509 15.5634 137.396 15.303 138.392 15.3003C139.376 15.2976 140.253 15.5533 141.024 16.0672C141.806 16.5691 142.422 17.3054 142.871 18.2762C143.32 19.247 143.548 20.3984 143.555 21.7304C143.562 23.0623 143.346 24.2149 142.907 25.1881C142.468 26.1613 141.859 26.9069 141.082 27.425C140.317 27.9311 139.442 28.1855 138.458 28.1881ZM138.45 26.5861C139.458 26.5834 140.26 26.1672 140.855 25.3376C141.463 24.508 141.763 23.3072 141.755 21.7352C141.747 20.1632 141.435 18.9641 140.818 18.1377C140.214 17.3114 139.408 16.8995 138.4 16.9023C137.38 16.905 136.566 17.3212 135.958 18.1508C135.363 18.9804 135.069 20.1812 135.077 21.7532C135.085 23.3252 135.391 24.5244 135.995 25.3507C136.612 26.1771 137.43 26.5889 138.45 26.5861Z" fill="#2F2F2F"/>
<path d="M103.005 8.13983L149.851 8.01351L149.841 6.01354L102.995 6.13985L103.005 8.13983ZM153.872 12.0027L153.974 32.0026L155.974 31.9972L155.872 11.9973L153.872 12.0027ZM149.995 36.0133L103.149 36.1396L103.159 38.1396L150.005 38.0133L149.995 36.0133ZM99.1285 32.1505L99.0257 12.1506L97.0257 12.156L97.1285 32.1559L99.1285 32.1505ZM103.149 36.1396C100.94 36.1456 99.1398 34.3596 99.1285 32.1505L97.1285 32.1559C97.1455 35.4695 99.8456 38.1486 103.159 38.1396L103.149 36.1396ZM153.974 32.0026C153.986 34.2117 152.204 36.0074 149.995 36.0133L150.005 38.0133C153.319 38.0044 155.991 35.3109 155.974 31.9972L153.974 32.0026ZM149.851 8.01351C152.06 8.00755 153.86 9.79356 153.872 12.0027L155.872 11.9973C155.854 8.68361 153.154 6.0046 149.841 6.01354L149.851 8.01351ZM102.995 6.13985C99.6811 6.14879 97.0087 8.84229 97.0257 12.156L99.0257 12.1506C99.0143 9.94145 100.796 8.14578 103.005 8.13983L102.995 6.13985Z" fill="#2F2F2F"/>
<path d="M80.6236 96.808H91.3756V98.704H80.6236V96.808ZM80.6236 102.496H91.3756V104.392H80.6236V102.496Z" fill="#2F2F2F"/>
<path d="M33.7743 101.416H40.2303V103.408H33.7743V101.416Z" fill="#2F2F2F"/>
<path d="M14.156 87.602C15.32 87.746 16.208 88.142 16.82 88.79C17.432 89.438 17.738 90.248 17.738 91.22C17.738 91.952 17.552 92.618 17.18 93.218C16.808 93.818 16.244 94.298 15.488 94.658C14.744 95.006 13.832 95.18 12.752 95.18C11.852 95.18 10.982 95.054 10.142 94.802C9.314 94.538 8.606 94.178 8.018 93.722L9.026 91.904C9.482 92.288 10.034 92.594 10.682 92.822C11.342 93.038 12.02 93.146 12.716 93.146C13.544 93.146 14.192 92.978 14.66 92.642C15.14 92.294 15.38 91.826 15.38 91.238C15.38 90.65 15.152 90.194 14.696 89.87C14.252 89.534 13.568 89.366 12.644 89.366H11.492V87.764L14.354 84.362H8.63V82.4H17.216V83.966L14.156 87.602Z" fill="#2F2F2F"/>
<line x1="0.5" y1="101.5" x2="26.5" y2="101.5" stroke="#2F2F2F" stroke-linecap="round"/>
<path d="M19.024 118.138H16.792V121H14.524V118.138H7.612V116.518L13.822 108.4H16.324L10.474 116.158H14.596V113.62H16.792V116.158H19.024V118.138Z" fill="#2F2F2F"/>
<path d="M59.734 87.278C61.51 87.278 62.824 87.626 63.676 88.322C64.528 89.006 64.954 89.942 64.954 91.13C64.954 91.886 64.768 92.57 64.396 93.182C64.024 93.794 63.466 94.28 62.722 94.64C61.978 95 61.06 95.18 59.968 95.18C59.068 95.18 58.198 95.054 57.358 94.802C56.518 94.538 55.81 94.178 55.234 93.722L56.224 91.904C56.692 92.288 57.25 92.594 57.898 92.822C58.558 93.038 59.236 93.146 59.932 93.146C60.76 93.146 61.408 92.978 61.876 92.642C62.356 92.294 62.596 91.82 62.596 91.22C62.596 90.572 62.338 90.086 61.822 89.762C61.318 89.426 60.448 89.258 59.212 89.258H56.17L56.818 82.4H64.216V84.362H58.798L58.528 87.278H59.734Z" fill="#2F2F2F"/>
<line x1="47.5" y1="101.5" x2="73.5" y2="101.5" stroke="#2F2F2F" stroke-linecap="round"/>
<path d="M62.964 114.376C63.624 114.676 64.128 115.084 64.476 115.6C64.836 116.104 65.016 116.698 65.016 117.382C65.016 118.15 64.8 118.822 64.368 119.398C63.948 119.974 63.348 120.418 62.568 120.73C61.788 121.03 60.882 121.18 59.85 121.18C58.818 121.18 57.912 121.03 57.132 120.73C56.364 120.418 55.77 119.974 55.35 119.398C54.93 118.822 54.72 118.15 54.72 117.382C54.72 116.698 54.894 116.104 55.242 115.6C55.59 115.084 56.088 114.676 56.736 114.376C56.232 114.1 55.842 113.74 55.566 113.296C55.302 112.84 55.17 112.318 55.17 111.73C55.17 111.022 55.362 110.404 55.746 109.876C56.142 109.348 56.694 108.94 57.402 108.652C58.11 108.364 58.926 108.22 59.85 108.22C60.786 108.22 61.608 108.364 62.316 108.652C63.024 108.94 63.576 109.348 63.972 109.876C64.368 110.404 64.566 111.022 64.566 111.73C64.566 112.318 64.428 112.834 64.152 113.278C63.876 113.722 63.48 114.088 62.964 114.376ZM59.85 110.056C59.118 110.056 58.536 110.212 58.104 110.524C57.684 110.836 57.474 111.274 57.474 111.838C57.474 112.378 57.684 112.81 58.104 113.134C58.536 113.446 59.118 113.602 59.85 113.602C60.594 113.602 61.182 113.446 61.614 113.134C62.046 112.81 62.262 112.378 62.262 111.838C62.262 111.274 62.04 110.836 61.596 110.524C61.164 110.212 60.582 110.056 59.85 110.056ZM59.85 119.344C60.714 119.344 61.398 119.164 61.902 118.804C62.406 118.444 62.658 117.946 62.658 117.31C62.658 116.686 62.406 116.194 61.902 115.834C61.398 115.474 60.714 115.294 59.85 115.294C58.986 115.294 58.308 115.474 57.816 115.834C57.324 116.194 57.078 116.686 57.078 117.31C57.078 117.946 57.324 118.444 57.816 118.804C58.308 119.164 58.986 119.344 59.85 119.344Z" fill="#2F2F2F"/>
<path d="M119.159 91.4963L119.224 104.096L117.442 104.101L117.385 93.0671L114.541 93.0748L114.533 91.5088L119.159 91.4963ZM126.474 88.9206L128.04 88.9164L122.187 105.888L120.621 105.892L126.474 88.9206ZM135.556 97.4461C136.278 97.7202 136.832 98.1147 137.218 98.6296C137.605 99.1446 137.8 99.7621 137.804 100.482C137.808 101.238 137.607 101.899 137.202 102.464C136.797 103.017 136.217 103.444 135.463 103.746C134.708 104.048 133.821 104.201 132.801 104.204C131.793 104.206 130.91 104.059 130.153 103.761C129.407 103.463 128.829 103.038 128.418 102.487C128.007 101.924 127.8 101.265 127.796 100.509C127.792 99.789 127.975 99.1705 128.345 98.6536C128.726 98.1365 129.276 97.739 129.994 97.4611C129.417 97.1867 128.977 96.8218 128.675 96.3667C128.372 95.9115 128.22 95.3719 128.216 94.7479C128.213 94.0519 128.396 93.4454 128.765 92.9284C129.146 92.4114 129.678 92.014 130.361 91.7361C131.044 91.4583 131.835 91.3181 132.735 91.3157C133.647 91.3133 134.446 91.4491 135.131 91.7232C135.828 91.9974 136.364 92.3919 136.739 92.9069C137.126 93.4219 137.321 94.0273 137.324 94.7233C137.328 95.3353 137.174 95.8757 136.865 96.3446C136.567 96.8014 136.131 97.1686 135.556 97.4461ZM132.742 92.7737C131.89 92.776 131.219 92.9638 130.729 93.3371C130.239 93.6984 129.996 94.1911 129.999 94.8151C130.002 95.4391 130.245 95.9304 130.726 96.2891C131.22 96.6478 131.899 96.826 132.763 96.8236C133.639 96.8213 134.322 96.6394 134.812 96.2781C135.315 95.9168 135.564 95.4241 135.561 94.8001C135.558 94.1761 135.297 93.6848 134.779 93.3262C134.273 92.9556 133.594 92.7714 132.742 92.7737ZM132.794 102.746C133.79 102.743 134.575 102.537 135.148 102.127C135.722 101.706 136.007 101.141 136.004 100.433C136 99.7369 135.709 99.1917 135.131 98.7973C134.553 98.3908 133.766 98.1889 132.77 98.1916C131.774 98.1943 130.995 98.4004 130.433 98.8099C129.871 99.2074 129.592 99.7542 129.596 100.45C129.599 101.158 129.884 101.721 130.45 102.14C131.017 102.546 131.798 102.748 132.794 102.746Z" fill="#2F2F2F"/>
<path d="M103.005 84.1398L149.851 84.0135L149.841 82.0135L102.995 82.1399L103.005 84.1398ZM153.872 88.0027L153.974 108.003L155.974 107.997L155.872 87.9973L153.872 88.0027ZM149.995 112.013L103.149 112.14L103.159 114.14L150.005 114.013L149.995 112.013ZM99.1285 108.15L99.0257 88.1506L97.0257 88.156L97.1285 108.156L99.1285 108.15ZM103.149 112.14C100.94 112.146 99.1398 110.36 99.1285 108.15L97.1285 108.156C97.1455 111.47 99.8456 114.149 103.159 114.14L103.149 112.14ZM153.974 108.003C153.986 110.212 152.204 112.007 149.995 112.013L150.005 114.013C153.319 114.004 155.991 111.311 155.974 107.997L153.974 108.003ZM149.851 84.0135C152.06 84.0076 153.86 85.7936 153.872 88.0027L155.872 87.9973C155.854 84.6836 153.154 82.0046 149.841 82.0135L149.851 84.0135ZM102.995 82.1399C99.6811 82.1488 97.0087 84.8423 97.0257 88.156L99.0257 88.1506C99.0143 85.9414 100.796 84.1458 103.005 84.1398L102.995 82.1399Z" fill="#2F2F2F"/>
<path d="M80.6236 174.808H91.3756V176.704H80.6236V174.808ZM80.6236 180.496H91.3756V182.392H80.6236V180.496Z" fill="#2F2F2F"/>
<path d="M33.7743 179.416H40.2303V181.408H33.7743V179.416Z" fill="#2F2F2F"/>
<path d="M16.964 166.376C17.624 166.676 18.128 167.084 18.476 167.6C18.836 168.104 19.016 168.698 19.016 169.382C19.016 170.15 18.8 170.822 18.368 171.398C17.948 171.974 17.348 172.418 16.568 172.73C15.788 173.03 14.882 173.18 13.85 173.18C12.818 173.18 11.912 173.03 11.132 172.73C10.364 172.418 9.77 171.974 9.35 171.398C8.93 170.822 8.72 170.15 8.72 169.382C8.72 168.698 8.894 168.104 9.242 167.6C9.59 167.084 10.088 166.676 10.736 166.376C10.232 166.1 9.842 165.74 9.566 165.296C9.302 164.84 9.17 164.318 9.17 163.73C9.17 163.022 9.362 162.404 9.746 161.876C10.142 161.348 10.694 160.94 11.402 160.652C12.11 160.364 12.926 160.22 13.85 160.22C14.786 160.22 15.608 160.364 16.316 160.652C17.024 160.94 17.576 161.348 17.972 161.876C18.368 162.404 18.566 163.022 18.566 163.73C18.566 164.318 18.428 164.834 18.152 165.278C17.876 165.722 17.48 166.088 16.964 166.376ZM13.85 162.056C13.118 162.056 12.536 162.212 12.104 162.524C11.684 162.836 11.474 163.274 11.474 163.838C11.474 164.378 11.684 164.81 12.104 165.134C12.536 165.446 13.118 165.602 13.85 165.602C14.594 165.602 15.182 165.446 15.614 165.134C16.046 164.81 16.262 164.378 16.262 163.838C16.262 163.274 16.04 162.836 15.596 162.524C15.164 162.212 14.582 162.056 13.85 162.056ZM13.85 171.344C14.714 171.344 15.398 171.164 15.902 170.804C16.406 170.444 16.658 169.946 16.658 169.31C16.658 168.686 16.406 168.194 15.902 167.834C15.398 167.474 14.714 167.294 13.85 167.294C12.986 167.294 12.308 167.474 11.816 167.834C11.324 168.194 11.078 168.686 11.078 169.31C11.078 169.946 11.324 170.444 11.816 170.804C12.308 171.164 12.986 171.344 13.85 171.344Z" fill="#2F2F2F"/>
<line x1="0.5" y1="179.5" x2="26.5" y2="179.5" stroke="#2F2F2F" stroke-linecap="round"/>
<path d="M12.04 186.22C13.768 186.22 15.106 186.76 16.054 187.84C17.014 188.92 17.494 190.468 17.494 192.484C17.494 193.9 17.236 195.112 16.72 196.12C16.204 197.116 15.478 197.878 14.542 198.406C13.618 198.922 12.544 199.18 11.32 199.18C10.672 199.18 10.06 199.114 9.484 198.982C8.92 198.838 8.428 198.634 8.008 198.37L8.872 196.606C9.496 197.014 10.294 197.218 11.266 197.218C12.478 197.218 13.426 196.846 14.11 196.102C14.794 195.358 15.136 194.284 15.136 192.88V192.862C14.764 193.294 14.29 193.624 13.714 193.852C13.138 194.068 12.49 194.176 11.77 194.176C10.942 194.176 10.198 194.02 9.538 193.708C8.878 193.384 8.362 192.928 7.99 192.34C7.618 191.752 7.432 191.074 7.432 190.306C7.432 189.49 7.636 188.776 8.044 188.164C8.452 187.54 9.004 187.06 9.7 186.724C10.396 186.388 11.176 186.22 12.04 186.22ZM12.22 192.34C12.976 192.34 13.588 192.136 14.056 191.728C14.536 191.32 14.776 190.804 14.776 190.18C14.776 189.568 14.542 189.064 14.074 188.668C13.618 188.26 12.982 188.056 12.166 188.056C11.434 188.056 10.84 188.254 10.384 188.65C9.928 189.034 9.7 189.55 9.7 190.198C9.7 190.858 9.928 191.38 10.384 191.764C10.84 192.148 11.452 192.34 12.22 192.34Z" fill="#2F2F2F"/>
<path d="M64.918 171.02V173H55.63V171.434L60.634 166.682C61.198 166.142 61.576 165.674 61.768 165.278C61.972 164.87 62.074 164.468 62.074 164.072C62.074 163.484 61.876 163.034 61.48 162.722C61.084 162.41 60.502 162.254 59.734 162.254C58.45 162.254 57.466 162.692 56.782 163.568L55.144 162.308C55.636 161.648 56.296 161.138 57.124 160.778C57.964 160.406 58.9 160.22 59.932 160.22C61.3 160.22 62.392 160.544 63.208 161.192C64.024 161.84 64.432 162.722 64.432 163.838C64.432 164.522 64.288 165.164 64 165.764C63.712 166.364 63.16 167.048 62.344 167.816L58.978 171.02H64.918Z" fill="#2F2F2F"/>
<line x1="47.5" y1="179.5" x2="73.5" y2="179.5" stroke="#2F2F2F" stroke-linecap="round"/>
<path d="M60.156 191.602C61.32 191.746 62.208 192.142 62.82 192.79C63.432 193.438 63.738 194.248 63.738 195.22C63.738 195.952 63.552 196.618 63.18 197.218C62.808 197.818 62.244 198.298 61.488 198.658C60.744 199.006 59.832 199.18 58.752 199.18C57.852 199.18 56.982 199.054 56.142 198.802C55.314 198.538 54.606 198.178 54.018 197.722L55.026 195.904C55.482 196.288 56.034 196.594 56.682 196.822C57.342 197.038 58.02 197.146 58.716 197.146C59.544 197.146 60.192 196.978 60.66 196.642C61.14 196.294 61.38 195.826 61.38 195.238C61.38 194.65 61.152 194.194 60.696 193.87C60.252 193.534 59.568 193.366 58.644 193.366H57.492V191.764L60.354 188.362H54.63V186.4H63.216V187.966L60.156 191.602Z" fill="#2F2F2F"/>
<path d="M122.268 180.522L122.276 182.088L113.222 182.112L113.215 180.888L118.32 175.924C118.941 175.323 119.358 174.806 119.572 174.373C119.786 173.928 119.891 173.484 119.889 173.04C119.886 172.38 119.649 171.871 119.179 171.512C118.721 171.141 118.06 170.957 117.196 170.959C115.804 170.963 114.733 171.422 113.981 172.336L112.752 171.277C113.241 170.676 113.88 170.206 114.671 169.868C115.473 169.53 116.366 169.36 117.35 169.357C118.67 169.353 119.722 169.669 120.505 170.303C121.288 170.924 121.683 171.775 121.688 172.855C121.692 173.527 121.551 174.164 121.266 174.765C120.981 175.365 120.439 176.051 119.638 176.821L115.806 180.539L122.268 180.522ZM128.425 166.915L129.991 166.911L124.139 183.883L122.573 183.887L128.425 166.915ZM134.28 169.311C135.972 169.307 137.277 169.849 138.194 170.939C139.124 172.028 139.594 173.575 139.604 175.579C139.611 176.983 139.366 178.184 138.867 179.181C138.38 180.166 137.688 180.918 136.79 181.437C135.905 181.943 134.868 182.198 133.68 182.201C133.068 182.203 132.492 182.144 131.951 182.026C131.411 181.895 130.942 181.71 130.544 181.471L131.221 180.066C131.835 180.46 132.646 180.656 133.654 180.653C134.962 180.65 135.98 180.245 136.708 179.439C137.448 178.621 137.814 177.438 137.806 175.89L137.803 175.44C137.446 175.981 136.95 176.396 136.316 176.686C135.681 176.964 134.968 177.104 134.176 177.106C133.348 177.108 132.603 176.954 131.942 176.644C131.292 176.333 130.78 175.891 130.405 175.316C130.042 174.729 129.858 174.057 129.854 173.301C129.85 172.509 130.039 171.813 130.42 171.212C130.813 170.611 131.344 170.147 132.014 169.822C132.685 169.484 133.44 169.314 134.28 169.311ZM134.474 175.647C135.038 175.645 135.542 175.536 135.985 175.319C136.428 175.102 136.768 174.807 137.006 174.434C137.256 174.061 137.38 173.647 137.378 173.191C137.376 172.747 137.253 172.345 137.012 171.986C136.782 171.615 136.438 171.322 135.981 171.107C135.536 170.88 134.995 170.767 134.359 170.769C133.531 170.771 132.861 170.995 132.347 171.441C131.845 171.886 131.596 172.481 131.6 173.225C131.604 173.969 131.865 174.562 132.383 175.005C132.901 175.435 133.598 175.649 134.474 175.647Z" fill="#2F2F2F"/>
<path d="M103.005 162.14L149.851 162.014L149.841 160.014L102.995 160.14L103.005 162.14ZM153.872 166.003L153.974 186.003L155.974 185.997L155.872 165.997L153.872 166.003ZM149.995 190.013L103.149 190.14L103.159 192.14L150.005 192.013L149.995 190.013ZM99.1285 186.15L99.0257 166.151L97.0257 166.156L97.1285 186.156L99.1285 186.15ZM103.149 190.14C100.94 190.146 99.1398 188.36 99.1285 186.15L97.1285 186.156C97.1455 189.47 99.8456 192.149 103.159 192.14L103.149 190.14ZM153.974 186.003C153.986 188.212 152.204 190.007 149.995 190.013L150.005 192.013C153.319 192.004 155.991 189.311 155.974 185.997L153.974 186.003ZM149.851 162.014C152.06 162.008 153.86 163.794 153.872 166.003L155.872 165.997C155.854 162.684 153.154 160.005 149.841 160.014L149.851 162.014ZM102.995 160.14C99.6811 160.149 97.0087 162.842 97.0257 166.156L99.0257 166.151C99.0143 163.941 100.796 162.146 103.005 162.14L102.995 160.14Z" fill="#2F2F2F"/>
</svg>
