<svg width="193" height="30" viewBox="0 0 193 30" fill="none" xmlns="http://www.w3.org/2000/svg">
<path d="M86.44 22.12C85.36 22.12 84.3933 21.8867 83.54 21.42C82.7 20.9533 82.04 20.3133 81.56 19.5C81.08 18.6733 80.84 17.74 80.84 16.7C80.84 15.66 81.08 14.7333 81.56 13.92C82.04 13.0933 82.7 12.4533 83.54 12C84.3933 11.5333 85.36 11.3 86.44 11.3C87.4 11.3 88.2533 11.4933 89 11.88C89.76 12.2667 90.3467 12.8267 90.76 13.56L89.3 14.5C88.9667 13.9933 88.5533 13.6133 88.06 13.36C87.5667 13.1067 87.02 12.98 86.42 12.98C85.7267 12.98 85.1 13.1333 84.54 13.44C83.9933 13.7467 83.56 14.1867 83.24 14.76C82.9333 15.32 82.78 15.9667 82.78 16.7C82.78 17.4467 82.9333 18.1067 83.24 18.68C83.56 19.24 83.9933 19.6733 84.54 19.98C85.1 20.2867 85.7267 20.44 86.42 20.44C87.02 20.44 87.5667 20.3133 88.06 20.06C88.5533 19.8067 88.9667 19.4267 89.3 18.92L90.76 19.84C90.3467 20.5733 89.76 21.14 89 21.54C88.2533 21.9267 87.4 22.12 86.44 22.12ZM103.126 11.4V22H101.306V20.4C100.919 20.9467 100.406 21.3733 99.7658 21.68C99.1391 21.9733 98.4524 22.12 97.7058 22.12C96.2924 22.12 95.1791 21.7333 94.3658 20.96C93.5524 20.1733 93.1458 19.02 93.1458 17.5V11.4H95.0658V17.28C95.0658 18.3067 95.3124 19.0867 95.8058 19.62C96.2991 20.14 97.0058 20.4 97.9258 20.4C98.9391 20.4 99.7391 20.0933 100.326 19.48C100.912 18.8667 101.206 18 101.206 16.88V11.4H103.126ZM112.401 11.3C113.428 11.3 114.348 11.5267 115.161 11.98C115.974 12.4333 116.608 13.0667 117.061 13.88C117.528 14.6933 117.761 15.6333 117.761 16.7C117.761 17.7667 117.528 18.7133 117.061 19.54C116.608 20.3533 115.974 20.9867 115.161 21.44C114.348 21.8933 113.428 22.12 112.401 22.12C111.614 22.12 110.894 21.9667 110.241 21.66C109.588 21.3533 109.048 20.9067 108.621 20.32V22H106.781V7.16H108.701V13C109.128 12.44 109.661 12.02 110.301 11.74C110.941 11.4467 111.641 11.3 112.401 11.3ZM112.241 20.44C112.921 20.44 113.528 20.2867 114.061 19.98C114.608 19.66 115.034 19.22 115.341 18.66C115.661 18.0867 115.821 17.4333 115.821 16.7C115.821 15.9667 115.661 15.32 115.341 14.76C115.034 14.1867 114.608 13.7467 114.061 13.44C113.528 13.1333 112.921 12.98 112.241 12.98C111.574 12.98 110.968 13.1333 110.421 13.44C109.874 13.7467 109.448 14.1867 109.141 14.76C108.834 15.32 108.681 15.9667 108.681 16.7C108.681 17.4333 108.834 18.0867 109.141 18.66C109.448 19.22 109.874 19.66 110.421 19.98C110.968 20.2867 111.574 20.44 112.241 20.44ZM120.414 11.4H122.334V22H120.414V11.4ZM121.374 9.36C121 9.36 120.687 9.24 120.434 9C120.194 8.76 120.074 8.46667 120.074 8.12C120.074 7.77333 120.194 7.48 120.434 7.24C120.687 6.98667 121 6.86 121.374 6.86C121.747 6.86 122.054 6.98 122.294 7.22C122.547 7.44667 122.674 7.73333 122.674 8.08C122.674 8.44 122.547 8.74667 122.294 9C122.054 9.24 121.747 9.36 121.374 9.36ZM130.62 22.12C129.54 22.12 128.573 21.8867 127.72 21.42C126.88 20.9533 126.22 20.3133 125.74 19.5C125.26 18.6733 125.02 17.74 125.02 16.7C125.02 15.66 125.26 14.7333 125.74 13.92C126.22 13.0933 126.88 12.4533 127.72 12C128.573 11.5333 129.54 11.3 130.62 11.3C131.58 11.3 132.433 11.4933 133.18 11.88C133.94 12.2667 134.526 12.8267 134.94 13.56L133.48 14.5C133.146 13.9933 132.733 13.6133 132.24 13.36C131.746 13.1067 131.2 12.98 130.6 12.98C129.906 12.98 129.28 13.1333 128.72 13.44C128.173 13.7467 127.74 14.1867 127.42 14.76C127.113 15.32 126.96 15.9667 126.96 16.7C126.96 17.4467 127.113 18.1067 127.42 18.68C127.74 19.24 128.173 19.6733 128.72 19.98C129.28 20.2867 129.906 20.44 130.6 20.44C131.2 20.44 131.746 20.3133 132.24 20.06C132.733 19.8067 133.146 19.4267 133.48 18.92L134.94 19.84C134.526 20.5733 133.94 21.14 133.18 21.54C132.433 21.9267 131.58 22.12 130.62 22.12ZM152.677 11.4V22H150.857V20.4C150.47 20.9467 149.957 21.3733 149.317 21.68C148.69 21.9733 148.003 22.12 147.257 22.12C145.843 22.12 144.73 21.7333 143.917 20.96C143.103 20.1733 142.697 19.02 142.697 17.5V11.4H144.617V17.28C144.617 18.3067 144.863 19.0867 145.357 19.62C145.85 20.14 146.557 20.4 147.477 20.4C148.49 20.4 149.29 20.0933 149.877 19.48C150.463 18.8667 150.757 18 150.757 16.88V11.4H152.677ZM161.992 11.3C163.338 11.3 164.405 11.6933 165.192 12.48C165.992 13.2533 166.392 14.3933 166.392 15.9V22H164.472V16.12C164.472 15.0933 164.225 14.32 163.732 13.8C163.238 13.28 162.532 13.02 161.612 13.02C160.572 13.02 159.752 13.3267 159.152 13.94C158.552 14.54 158.252 15.4067 158.252 16.54V22H156.332V11.4H158.172V13C158.558 12.4533 159.078 12.0333 159.732 11.74C160.398 11.4467 161.152 11.3 161.992 11.3ZM169.945 11.4H171.865V22H169.945V11.4ZM170.905 9.36C170.532 9.36 170.218 9.24 169.965 9C169.725 8.76 169.605 8.46667 169.605 8.12C169.605 7.77333 169.725 7.48 169.965 7.24C170.218 6.98667 170.532 6.86 170.905 6.86C171.278 6.86 171.585 6.98 171.825 7.22C172.078 7.44667 172.205 7.73333 172.205 8.08C172.205 8.44 172.078 8.74667 171.825 9C171.585 9.24 171.278 9.36 170.905 9.36ZM181.491 21.38C181.211 21.62 180.864 21.8067 180.451 21.94C180.038 22.06 179.611 22.12 179.171 22.12C178.104 22.12 177.278 21.8333 176.691 21.26C176.104 20.6867 175.811 19.8667 175.811 18.8V12.98H174.011V11.4H175.811V9.08H177.731V11.4H180.771V12.98H177.731V18.72C177.731 19.2933 177.871 19.7333 178.151 20.04C178.444 20.3467 178.858 20.5 179.391 20.5C179.978 20.5 180.478 20.3333 180.891 20L181.491 21.38ZM186.852 22.12C185.986 22.12 185.152 22.0067 184.352 21.78C183.552 21.54 182.926 21.24 182.472 20.88L183.272 19.36C183.739 19.6933 184.306 19.96 184.972 20.16C185.639 20.36 186.312 20.46 186.992 20.46C188.672 20.46 189.512 19.98 189.512 19.02C189.512 18.7 189.399 18.4467 189.172 18.26C188.946 18.0733 188.659 17.94 188.312 17.86C187.979 17.7667 187.499 17.6667 186.872 17.56C186.019 17.4267 185.319 17.2733 184.772 17.1C184.239 16.9267 183.779 16.6333 183.392 16.22C183.006 15.8067 182.812 15.2267 182.812 14.48C182.812 13.52 183.212 12.7533 184.012 12.18C184.812 11.5933 185.886 11.3 187.232 11.3C187.939 11.3 188.646 11.3867 189.352 11.56C190.059 11.7333 190.639 11.9667 191.092 12.26L190.272 13.78C189.406 13.22 188.386 12.94 187.212 12.94C186.399 12.94 185.779 13.0733 185.352 13.34C184.926 13.6067 184.712 13.96 184.712 14.4C184.712 14.7467 184.832 15.02 185.072 15.22C185.312 15.42 185.606 15.5667 185.952 15.66C186.312 15.7533 186.812 15.86 187.452 15.98C188.306 16.1267 188.992 16.2867 189.512 16.46C190.046 16.62 190.499 16.9 190.872 17.3C191.246 17.7 191.432 18.26 191.432 18.98C191.432 19.94 191.019 20.7067 190.192 21.28C189.379 21.84 188.266 22.12 186.852 22.12Z" fill="#2F2F2F"/>
<path d="M5 1H65V-1H5V1ZM69 5V25H71V5H69ZM65 29H5V31H65V29ZM1 25V5H-1V25H1ZM5 29C2.79086 29 1 27.2091 1 25H-1C-1 28.3137 1.68629 31 5 31V29ZM69 25C69 27.2091 67.2091 29 65 29V31C68.3137 31 71 28.3137 71 25H69ZM65 1C67.2091 1 69 2.79086 69 5H71C71 1.68629 68.3137 -1 65 -1V1ZM5 -1C1.68629 -1 -1 1.68629 -1 5H1C1 2.79086 2.79086 1 5 1V-1Z" fill="#2F2F2F"/>
<path d="M37.984 14.394C38.704 14.67 39.256 15.066 39.64 15.582C40.024 16.098 40.216 16.716 40.216 17.436C40.216 18.192 40.012 18.852 39.604 19.416C39.196 19.968 38.614 20.394 37.858 20.694C37.102 20.994 36.214 21.144 35.194 21.144C34.186 21.144 33.304 20.994 32.548 20.694C31.804 20.394 31.228 19.968 30.82 19.416C30.412 18.852 30.208 18.192 30.208 17.436C30.208 16.716 30.394 16.098 30.766 15.582C31.15 15.066 31.702 14.67 32.422 14.394C31.846 14.118 31.408 13.752 31.108 13.296C30.808 12.84 30.658 12.3 30.658 11.676C30.658 10.98 30.844 10.374 31.216 9.858C31.6 9.342 32.134 8.946 32.818 8.67C33.502 8.394 34.294 8.256 35.194 8.256C36.106 8.256 36.904 8.394 37.588 8.67C38.284 8.946 38.818 9.342 39.19 9.858C39.574 10.374 39.766 10.98 39.766 11.676C39.766 12.288 39.61 12.828 39.298 13.296C38.998 13.752 38.56 14.118 37.984 14.394ZM35.194 9.714C34.342 9.714 33.67 9.9 33.178 10.272C32.686 10.632 32.44 11.124 32.44 11.748C32.44 12.372 32.68 12.864 33.16 13.224C33.652 13.584 34.33 13.764 35.194 13.764C36.07 13.764 36.754 13.584 37.246 13.224C37.75 12.864 38.002 12.372 38.002 11.748C38.002 11.124 37.744 10.632 37.228 10.272C36.724 9.9 36.046 9.714 35.194 9.714ZM35.194 19.686C36.19 19.686 36.976 19.482 37.552 19.074C38.128 18.654 38.416 18.09 38.416 17.382C38.416 16.686 38.128 16.14 37.552 15.744C36.976 15.336 36.19 15.132 35.194 15.132C34.198 15.132 33.418 15.336 32.854 15.744C32.29 16.14 32.008 16.686 32.008 17.382C32.008 18.09 32.29 18.654 32.854 19.074C33.418 19.482 34.198 19.686 35.194 19.686Z" fill="#2F2F2F"/>
</svg>
