<svg width="94" height="48" viewBox="0 0 94 48" fill="none" xmlns="http://www.w3.org/2000/svg">
<path d="M14.156 9.602C15.32 9.746 16.208 10.142 16.82 10.79C17.432 11.438 17.738 12.248 17.738 13.22C17.738 13.952 17.552 14.618 17.18 15.218C16.808 15.818 16.244 16.298 15.488 16.658C14.744 17.006 13.832 17.18 12.752 17.18C11.852 17.18 10.982 17.054 10.142 16.802C9.314 16.538 8.606 16.178 8.018 15.722L9.026 13.904C9.482 14.288 10.034 14.594 10.682 14.822C11.342 15.038 12.02 15.146 12.716 15.146C13.544 15.146 14.192 14.978 14.66 14.642C15.14 14.294 15.38 13.826 15.38 13.238C15.38 12.65 15.152 12.194 14.696 11.87C14.252 11.534 13.568 11.366 12.644 11.366H11.492V9.764L14.354 6.362H8.63V4.4H17.216V5.966L14.156 9.602Z" fill="#2F2F2F"/>
<line x1="0.5" y1="23.5" x2="26.5" y2="23.5" stroke="#2F2F2F" stroke-linecap="round"/>
<path d="M11.734 35.278C13.51 35.278 14.824 35.626 15.676 36.322C16.528 37.006 16.954 37.942 16.954 39.13C16.954 39.886 16.768 40.57 16.396 41.182C16.024 41.794 15.466 42.28 14.722 42.64C13.978 43 13.06 43.18 11.968 43.18C11.068 43.18 10.198 43.054 9.358 42.802C8.518 42.538 7.81 42.178 7.234 41.722L8.224 39.904C8.692 40.288 9.25 40.594 9.898 40.822C10.558 41.038 11.236 41.146 11.932 41.146C12.76 41.146 13.408 40.978 13.876 40.642C14.356 40.294 14.596 39.82 14.596 39.22C14.596 38.572 14.338 38.086 13.822 37.762C13.318 37.426 12.448 37.258 11.212 37.258H8.17L8.818 30.4H16.216V32.362H10.798L10.528 35.278H11.734Z" fill="#2F2F2F"/>
<path d="M61.156 9.602C62.32 9.746 63.208 10.142 63.82 10.79C64.432 11.438 64.738 12.248 64.738 13.22C64.738 13.952 64.552 14.618 64.18 15.218C63.808 15.818 63.244 16.298 62.488 16.658C61.744 17.006 60.832 17.18 59.752 17.18C58.852 17.18 57.982 17.054 57.142 16.802C56.314 16.538 55.606 16.178 55.018 15.722L56.026 13.904C56.482 14.288 57.034 14.594 57.682 14.822C58.342 15.038 59.02 15.146 59.716 15.146C60.544 15.146 61.192 14.978 61.66 14.642C62.14 14.294 62.38 13.826 62.38 13.238C62.38 12.65 62.152 12.194 61.696 11.87C61.252 11.534 60.568 11.366 59.644 11.366H58.492V9.764L61.354 6.362H55.63V4.4H64.216V5.966L61.156 9.602Z" fill="#2F2F2F"/>
<line x1="47.5" y1="23.5" x2="73.5" y2="23.5" stroke="#2F2F2F" stroke-linecap="round"/>
<path d="M56.148 30.4V43H53.808V32.362H51.144V30.4H56.148ZM63.9035 43.18C62.8955 43.18 61.9955 42.928 61.2035 42.424C60.4115 41.908 59.7875 41.164 59.3315 40.192C58.8755 39.208 58.6475 38.044 58.6475 36.7C58.6475 35.356 58.8755 34.198 59.3315 33.226C59.7875 32.242 60.4115 31.498 61.2035 30.994C61.9955 30.478 62.8955 30.22 63.9035 30.22C64.9115 30.22 65.8115 30.478 66.6035 30.994C67.4075 31.498 68.0375 32.242 68.4935 33.226C68.9495 34.198 69.1775 35.356 69.1775 36.7C69.1775 38.044 68.9495 39.208 68.4935 40.192C68.0375 41.164 67.4075 41.908 66.6035 42.424C65.8115 42.928 64.9115 43.18 63.9035 43.18ZM63.9035 41.146C64.8035 41.146 65.5115 40.774 66.0275 40.03C66.5555 39.286 66.8195 38.176 66.8195 36.7C66.8195 35.224 66.5555 34.114 66.0275 33.37C65.5115 32.626 64.8035 32.254 63.9035 32.254C63.0155 32.254 62.3075 32.626 61.7795 33.37C61.2635 34.114 61.0055 35.224 61.0055 36.7C61.0055 38.176 61.2635 39.286 61.7795 40.03C62.3075 40.774 63.0155 41.146 63.9035 41.146Z" fill="#2F2F2F"/>
<path d="M33.7743 23.416H40.2303V25.408H33.7743V23.416Z" fill="#2F2F2F"/>
<path d="M79.7777 21.12H90.2177V22.536H79.7777V21.12ZM79.7777 26.664H90.2177V28.08H79.7777V26.664Z" fill="black"/>
</svg>
