<svg width="93" height="48" viewBox="0 0 93 48" fill="none" xmlns="http://www.w3.org/2000/svg">
<path d="M80.6236 19.808H91.3756V21.704H80.6236V19.808ZM80.6236 25.496H91.3756V27.392H80.6236V25.496Z" fill="#2F2F2F"/>
<path d="M42.3756 24.56H38.0076V28.856H35.9916V24.56H31.6236V22.664H35.9916V18.344H38.0076V22.664H42.3756V24.56Z" fill="#2F2F2F"/>
<path d="M14.156 9.602C15.32 9.746 16.208 10.142 16.82 10.79C17.432 11.438 17.738 12.248 17.738 13.22C17.738 13.952 17.552 14.618 17.18 15.218C16.808 15.818 16.244 16.298 15.488 16.658C14.744 17.006 13.832 17.18 12.752 17.18C11.852 17.18 10.982 17.054 10.142 16.802C9.314 16.538 8.606 16.178 8.018 15.722L9.026 13.904C9.482 14.288 10.034 14.594 10.682 14.822C11.342 15.038 12.02 15.146 12.716 15.146C13.544 15.146 14.192 14.978 14.66 14.642C15.14 14.294 15.38 13.826 15.38 13.238C15.38 12.65 15.152 12.194 14.696 11.87C14.252 11.534 13.568 11.366 12.644 11.366H11.492V9.764L14.354 6.362H8.63V4.4H17.216V5.966L14.156 9.602Z" fill="#2F2F2F"/>
<line x1="0.5" y1="23.5" x2="26.5" y2="23.5" stroke="#2F2F2F" stroke-linecap="round"/>
<path d="M13.516 35.224C14.344 35.224 15.088 35.386 15.748 35.71C16.408 36.022 16.924 36.472 17.296 37.06C17.668 37.648 17.854 38.326 17.854 39.094C17.854 39.91 17.65 40.63 17.242 41.254C16.834 41.866 16.282 42.34 15.586 42.676C14.89 43.012 14.11 43.18 13.246 43.18C11.518 43.18 10.174 42.64 9.214 41.56C8.266 40.48 7.792 38.932 7.792 36.916C7.792 35.5 8.05 34.294 8.566 33.298C9.082 32.29 9.802 31.528 10.726 31.012C11.662 30.484 12.742 30.22 13.966 30.22C14.614 30.22 15.22 30.292 15.784 30.436C16.36 30.568 16.858 30.766 17.278 31.03L16.414 32.794C15.79 32.386 14.992 32.182 14.02 32.182C12.808 32.182 11.86 32.554 11.176 33.298C10.492 34.042 10.15 35.116 10.15 36.52V36.538C10.522 36.106 10.996 35.782 11.572 35.566C12.148 35.338 12.796 35.224 13.516 35.224ZM13.12 41.344C13.852 41.344 14.446 41.152 14.902 40.768C15.358 40.372 15.586 39.85 15.586 39.202C15.586 38.542 15.358 38.02 14.902 37.636C14.446 37.252 13.834 37.06 13.066 37.06C12.31 37.06 11.692 37.264 11.212 37.672C10.744 38.08 10.51 38.596 10.51 39.22C10.51 39.832 10.738 40.342 11.194 40.75C11.662 41.146 12.304 41.344 13.12 41.344Z" fill="#2F2F2F"/>
<path d="M60.148 4.4V17H57.808V6.362H55.144V4.4H60.148Z" fill="#2F2F2F"/>
<line x1="47.5" y1="23.5" x2="73.5" y2="23.5" stroke="#2F2F2F" stroke-linecap="round"/>
<path d="M59.148 30.4V43H56.808V32.362H54.144V30.4H59.148ZM70.7735 41.02V43H61.4855V41.434L66.4895 36.682C67.0535 36.142 67.4315 35.674 67.6235 35.278C67.8275 34.87 67.9295 34.468 67.9295 34.072C67.9295 33.484 67.7315 33.034 67.3355 32.722C66.9395 32.41 66.3575 32.254 65.5895 32.254C64.3055 32.254 63.3215 32.692 62.6375 33.568L60.9995 32.308C61.4915 31.648 62.1515 31.138 62.9795 30.778C63.8195 30.406 64.7555 30.22 65.7875 30.22C67.1555 30.22 68.2475 30.544 69.0635 31.192C69.8795 31.84 70.2875 32.722 70.2875 33.838C70.2875 34.522 70.1435 35.164 69.8555 35.764C69.5675 36.364 69.0155 37.048 68.1995 37.816L64.8335 41.02H70.7735Z" fill="#2F2F2F"/>
</svg>
