<svg width="428" height="405" viewBox="0 0 428 405" fill="none" xmlns="http://www.w3.org/2000/svg">
<rect x="32.5" y="33.5" width="220.212" height="136" fill="#ABE9FF" stroke="#0995E3"/>
<rect x="123.5" y="86.5" width="39" height="29" rx="4.5" fill="white"/>
<path d="M131.739 99.35C132.567 99.35 133.305 99.506 133.953 99.818C134.613 100.13 135.129 100.58 135.501 101.168C135.873 101.744 136.059 102.41 136.059 103.166C136.059 103.958 135.861 104.654 135.465 105.254C135.081 105.854 134.547 106.322 133.863 106.658C133.191 106.982 132.435 107.144 131.595 107.144C129.903 107.144 128.595 106.598 127.671 105.506C126.759 104.414 126.303 102.866 126.303 100.862C126.303 99.458 126.549 98.264 127.041 97.28C127.545 96.284 128.241 95.534 129.129 95.03C130.029 94.514 131.073 94.256 132.261 94.256C132.873 94.256 133.449 94.322 133.989 94.454C134.529 94.574 134.997 94.754 135.393 94.994L134.709 96.398C134.109 96.002 133.305 95.804 132.297 95.804C130.989 95.804 129.963 96.212 129.219 97.028C128.475 97.832 128.103 99.008 128.103 100.556C128.103 100.748 128.109 100.898 128.121 101.006C128.481 100.466 128.973 100.058 129.597 99.782C130.233 99.494 130.947 99.35 131.739 99.35ZM131.523 105.686C132.351 105.686 133.023 105.464 133.539 105.02C134.055 104.576 134.313 103.982 134.313 103.238C134.313 102.494 134.049 101.906 133.521 101.474C133.005 101.03 132.309 100.808 131.433 100.808C130.869 100.808 130.365 100.916 129.921 101.132C129.489 101.348 129.147 101.642 128.895 102.014C128.655 102.386 128.535 102.8 128.535 103.256C128.535 103.7 128.649 104.108 128.877 104.48C129.117 104.84 129.459 105.134 129.903 105.362C130.359 105.578 130.899 105.686 131.523 105.686ZM142.561 107.144C141.565 107.144 140.677 106.892 139.897 106.388C139.129 105.872 138.523 105.128 138.079 104.156C137.635 103.184 137.413 102.032 137.413 100.7C137.413 99.368 137.635 98.216 138.079 97.244C138.523 96.272 139.129 95.534 139.897 95.03C140.677 94.514 141.565 94.256 142.561 94.256C143.545 94.256 144.421 94.514 145.189 95.03C145.969 95.534 146.581 96.272 147.025 97.244C147.469 98.216 147.691 99.368 147.691 100.7C147.691 102.032 147.469 103.184 147.025 104.156C146.581 105.128 145.969 105.872 145.189 106.388C144.421 106.892 143.545 107.144 142.561 107.144ZM142.561 105.542C143.569 105.542 144.373 105.128 144.973 104.3C145.585 103.472 145.891 102.272 145.891 100.7C145.891 99.128 145.585 97.928 144.973 97.1C144.373 96.272 143.569 95.858 142.561 95.858C141.541 95.858 140.725 96.272 140.113 97.1C139.513 97.928 139.213 99.128 139.213 100.7C139.213 102.272 139.513 103.472 140.113 104.3C140.725 105.128 141.541 105.542 142.561 105.542ZM154.567 107.144C153.571 107.144 152.683 106.892 151.903 106.388C151.135 105.872 150.529 105.128 150.085 104.156C149.641 103.184 149.419 102.032 149.419 100.7C149.419 99.368 149.641 98.216 150.085 97.244C150.529 96.272 151.135 95.534 151.903 95.03C152.683 94.514 153.571 94.256 154.567 94.256C155.551 94.256 156.427 94.514 157.195 95.03C157.975 95.534 158.587 96.272 159.031 97.244C159.475 98.216 159.697 99.368 159.697 100.7C159.697 102.032 159.475 103.184 159.031 104.156C158.587 105.128 157.975 105.872 157.195 106.388C156.427 106.892 155.551 107.144 154.567 107.144ZM154.567 105.542C155.575 105.542 156.379 105.128 156.979 104.3C157.591 103.472 157.897 102.272 157.897 100.7C157.897 99.128 157.591 97.928 156.979 97.1C156.379 96.272 155.575 95.858 154.567 95.858C153.547 95.858 152.731 96.272 152.119 97.1C151.519 97.928 151.219 99.128 151.219 100.7C151.219 102.272 151.519 103.472 152.119 104.3C152.731 105.128 153.547 105.542 154.567 105.542Z" fill="#2F2F2F"/>
<rect x="123.5" y="86.5" width="39" height="29" rx="4.5" stroke="#0995E3"/>
<path d="M137.035 7.692C138.271 7.812 139.213 8.196 139.861 8.844C140.509 9.48 140.833 10.296 140.833 11.292C140.833 12.012 140.653 12.666 140.293 13.254C139.933 13.83 139.393 14.292 138.673 14.64C137.965 14.976 137.095 15.144 136.063 15.144C135.163 15.144 134.299 15.012 133.471 14.748C132.643 14.472 131.965 14.094 131.437 13.614L132.265 12.192C132.697 12.6 133.249 12.93 133.921 13.182C134.593 13.422 135.307 13.542 136.063 13.542C136.999 13.542 137.725 13.344 138.241 12.948C138.769 12.552 139.033 12.006 139.033 11.31C139.033 10.614 138.775 10.074 138.259 9.69C137.743 9.306 136.963 9.114 135.919 9.114H134.911V7.854L138.079 3.966H132.013V2.4H140.329V3.624L137.035 7.692ZM147.659 15.144C146.663 15.144 145.775 14.892 144.995 14.388C144.227 13.872 143.621 13.128 143.177 12.156C142.733 11.184 142.511 10.032 142.511 8.7C142.511 7.368 142.733 6.216 143.177 5.244C143.621 4.272 144.227 3.534 144.995 3.03C145.775 2.514 146.663 2.256 147.659 2.256C148.643 2.256 149.519 2.514 150.287 3.03C151.067 3.534 151.679 4.272 152.123 5.244C152.567 6.216 152.789 7.368 152.789 8.7C152.789 10.032 152.567 11.184 152.123 12.156C151.679 13.128 151.067 13.872 150.287 14.388C149.519 14.892 148.643 15.144 147.659 15.144ZM147.659 13.542C148.667 13.542 149.471 13.128 150.071 12.3C150.683 11.472 150.989 10.272 150.989 8.7C150.989 7.128 150.683 5.928 150.071 5.1C149.471 4.272 148.667 3.858 147.659 3.858C146.639 3.858 145.823 4.272 145.211 5.1C144.611 5.928 144.311 7.128 144.311 8.7C144.311 10.272 144.611 11.472 145.211 12.3C145.823 13.128 146.639 13.542 147.659 13.542Z" fill="#2F2F2F"/>
<path d="M343.745 7.35C344.573 7.35 345.311 7.506 345.959 7.818C346.619 8.13 347.135 8.58 347.507 9.168C347.879 9.744 348.065 10.41 348.065 11.166C348.065 11.958 347.867 12.654 347.471 13.254C347.087 13.854 346.553 14.322 345.869 14.658C345.197 14.982 344.441 15.144 343.601 15.144C341.909 15.144 340.601 14.598 339.677 13.506C338.765 12.414 338.309 10.866 338.309 8.862C338.309 7.458 338.555 6.264 339.047 5.28C339.551 4.284 340.247 3.534 341.135 3.03C342.035 2.514 343.079 2.256 344.267 2.256C344.879 2.256 345.455 2.322 345.995 2.454C346.535 2.574 347.003 2.754 347.399 2.994L346.715 4.398C346.115 4.002 345.311 3.804 344.303 3.804C342.995 3.804 341.969 4.212 341.225 5.028C340.481 5.832 340.109 7.008 340.109 8.556C340.109 8.748 340.115 8.898 340.127 9.006C340.487 8.466 340.979 8.058 341.603 7.782C342.239 7.494 342.953 7.35 343.745 7.35ZM343.529 13.686C344.357 13.686 345.029 13.464 345.545 13.02C346.061 12.576 346.319 11.982 346.319 11.238C346.319 10.494 346.055 9.906 345.527 9.474C345.011 9.03 344.315 8.808 343.439 8.808C342.875 8.808 342.371 8.916 341.927 9.132C341.495 9.348 341.153 9.642 340.901 10.014C340.661 10.386 340.541 10.8 340.541 11.256C340.541 11.7 340.655 12.108 340.883 12.48C341.123 12.84 341.465 13.134 341.909 13.362C342.365 13.578 342.905 13.686 343.529 13.686Z" fill="#2F2F2F"/>
<path d="M10.0755 105.434V107H1.02147V105.776L6.15147 100.826C6.77547 100.226 7.19547 99.71 7.41147 99.278C7.62747 98.834 7.73547 98.39 7.73547 97.946C7.73547 97.286 7.50147 96.776 7.03347 96.416C6.57747 96.044 5.91747 95.858 5.05347 95.858C3.66147 95.858 2.58747 96.314 1.83147 97.226L0.607469 96.164C1.09947 95.564 1.74147 95.096 2.53347 94.76C3.33747 94.424 4.23147 94.256 5.21547 94.256C6.53547 94.256 7.58547 94.574 8.36547 95.21C9.14547 95.834 9.53547 96.686 9.53547 97.766C9.53547 98.438 9.39147 99.074 9.10347 99.674C8.81547 100.274 8.26947 100.958 7.46547 101.726L3.61347 105.434H10.0755ZM16.6507 107.144C15.6547 107.144 14.7667 106.892 13.9867 106.388C13.2187 105.872 12.6127 105.128 12.1687 104.156C11.7247 103.184 11.5027 102.032 11.5027 100.7C11.5027 99.368 11.7247 98.216 12.1687 97.244C12.6127 96.272 13.2187 95.534 13.9867 95.03C14.7667 94.514 15.6547 94.256 16.6507 94.256C17.6347 94.256 18.5107 94.514 19.2787 95.03C20.0587 95.534 20.6707 96.272 21.1147 97.244C21.5587 98.216 21.7807 99.368 21.7807 100.7C21.7807 102.032 21.5587 103.184 21.1147 104.156C20.6707 105.128 20.0587 105.872 19.2787 106.388C18.5107 106.892 17.6347 107.144 16.6507 107.144ZM16.6507 105.542C17.6587 105.542 18.4627 105.128 19.0627 104.3C19.6747 103.472 19.9807 102.272 19.9807 100.7C19.9807 99.128 19.6747 97.928 19.0627 97.1C18.4627 96.272 17.6587 95.858 16.6507 95.858C15.6307 95.858 14.8147 96.272 14.2027 97.1C13.6027 97.928 13.3027 99.128 13.3027 100.7C13.3027 102.272 13.6027 103.472 14.2027 104.3C14.8147 105.128 15.6307 105.542 16.6507 105.542Z" fill="#2F2F2F"/>
<rect x="259.5" y="33.5" width="168" height="136" fill="#C6FFAB" stroke="#09E31E"/>
<rect x="32.5" y="176.5" width="220.212" height="136" fill="#ABE9FF" stroke="#0995E3"/>
<rect x="123.5" y="229.5" width="39" height="29" rx="4.5" fill="white"/>
<path d="M136.392 237.256C138.084 237.256 139.386 237.802 140.298 238.894C141.222 239.986 141.684 241.534 141.684 243.538C141.684 244.942 141.432 246.142 140.928 247.138C140.436 248.122 139.74 248.872 138.84 249.388C137.952 249.892 136.914 250.144 135.726 250.144C135.114 250.144 134.538 250.084 133.998 249.964C133.458 249.832 132.99 249.646 132.594 249.406L133.278 248.002C133.89 248.398 134.7 248.596 135.708 248.596C137.016 248.596 138.036 248.194 138.768 247.39C139.512 246.574 139.884 245.392 139.884 243.844V243.394C139.524 243.934 139.026 244.348 138.39 244.636C137.754 244.912 137.04 245.05 136.248 245.05C135.42 245.05 134.676 244.894 134.016 244.582C133.368 244.27 132.858 243.826 132.486 243.25C132.126 242.662 131.946 241.99 131.946 241.234C131.946 240.442 132.138 239.746 132.522 239.146C132.918 238.546 133.452 238.084 134.124 237.76C134.796 237.424 135.552 237.256 136.392 237.256ZM136.554 243.592C137.118 243.592 137.622 243.484 138.066 243.268C138.51 243.052 138.852 242.758 139.092 242.386C139.344 242.014 139.47 241.6 139.47 241.144C139.47 240.7 139.35 240.298 139.11 239.938C138.882 239.566 138.54 239.272 138.084 239.056C137.64 238.828 137.1 238.714 136.464 238.714C135.636 238.714 134.964 238.936 134.448 239.38C133.944 239.824 133.692 240.418 133.692 241.162C133.692 241.906 133.95 242.5 134.466 242.944C134.982 243.376 135.678 243.592 136.554 243.592ZM148.564 250.144C147.568 250.144 146.68 249.892 145.9 249.388C145.132 248.872 144.526 248.128 144.082 247.156C143.638 246.184 143.416 245.032 143.416 243.7C143.416 242.368 143.638 241.216 144.082 240.244C144.526 239.272 145.132 238.534 145.9 238.03C146.68 237.514 147.568 237.256 148.564 237.256C149.548 237.256 150.424 237.514 151.192 238.03C151.972 238.534 152.584 239.272 153.028 240.244C153.472 241.216 153.694 242.368 153.694 243.7C153.694 245.032 153.472 246.184 153.028 247.156C152.584 248.128 151.972 248.872 151.192 249.388C150.424 249.892 149.548 250.144 148.564 250.144ZM148.564 248.542C149.572 248.542 150.376 248.128 150.976 247.3C151.588 246.472 151.894 245.272 151.894 243.7C151.894 242.128 151.588 240.928 150.976 240.1C150.376 239.272 149.572 238.858 148.564 238.858C147.544 238.858 146.728 239.272 146.116 240.1C145.516 240.928 145.216 242.128 145.216 243.7C145.216 245.272 145.516 246.472 146.116 247.3C146.728 248.128 147.544 248.542 148.564 248.542Z" fill="#2F2F2F"/>
<rect x="123.5" y="229.5" width="39" height="29" rx="4.5" stroke="#0995E3"/>
<path d="M12.0376 242.692C13.2736 242.812 14.2156 243.196 14.8636 243.844C15.5116 244.48 15.8356 245.296 15.8356 246.292C15.8356 247.012 15.6556 247.666 15.2956 248.254C14.9356 248.83 14.3956 249.292 13.6756 249.64C12.9676 249.976 12.0976 250.144 11.0656 250.144C10.1656 250.144 9.30161 250.012 8.47361 249.748C7.64561 249.472 6.96761 249.094 6.43961 248.614L7.26761 247.192C7.69961 247.6 8.25161 247.93 8.92361 248.182C9.59561 248.422 10.3096 248.542 11.0656 248.542C12.0016 248.542 12.7276 248.344 13.2436 247.948C13.7716 247.552 14.0356 247.006 14.0356 246.31C14.0356 245.614 13.7776 245.074 13.2616 244.69C12.7456 244.306 11.9656 244.114 10.9216 244.114H9.91361V242.854L13.0816 238.966H7.01561V237.4H15.3316V238.624L12.0376 242.692Z" fill="#2F2F2F"/>
<rect x="259.5" y="176.5" width="168" height="136" fill="#C6FFAB" stroke="#09E31E"/>
<rect x="323.5" y="229.5" width="39" height="29" rx="4.5" fill="white"/>
<path d="M338.647 237.4V250H336.865V238.966H334.021V237.4H338.647ZM349.107 243.394C349.827 243.67 350.379 244.066 350.763 244.582C351.147 245.098 351.339 245.716 351.339 246.436C351.339 247.192 351.135 247.852 350.727 248.416C350.319 248.968 349.737 249.394 348.981 249.694C348.225 249.994 347.337 250.144 346.317 250.144C345.309 250.144 344.427 249.994 343.671 249.694C342.927 249.394 342.351 248.968 341.943 248.416C341.535 247.852 341.331 247.192 341.331 246.436C341.331 245.716 341.517 245.098 341.889 244.582C342.273 244.066 342.825 243.67 343.545 243.394C342.969 243.118 342.531 242.752 342.231 242.296C341.931 241.84 341.781 241.3 341.781 240.676C341.781 239.98 341.967 239.374 342.339 238.858C342.723 238.342 343.257 237.946 343.941 237.67C344.625 237.394 345.417 237.256 346.317 237.256C347.229 237.256 348.027 237.394 348.711 237.67C349.407 237.946 349.941 238.342 350.313 238.858C350.697 239.374 350.889 239.98 350.889 240.676C350.889 241.288 350.733 241.828 350.421 242.296C350.121 242.752 349.683 243.118 349.107 243.394ZM346.317 238.714C345.465 238.714 344.793 238.9 344.301 239.272C343.809 239.632 343.563 240.124 343.563 240.748C343.563 241.372 343.803 241.864 344.283 242.224C344.775 242.584 345.453 242.764 346.317 242.764C347.193 242.764 347.877 242.584 348.369 242.224C348.873 241.864 349.125 241.372 349.125 240.748C349.125 240.124 348.867 239.632 348.351 239.272C347.847 238.9 347.169 238.714 346.317 238.714ZM346.317 248.686C347.313 248.686 348.099 248.482 348.675 248.074C349.251 247.654 349.539 247.09 349.539 246.382C349.539 245.686 349.251 245.14 348.675 244.744C348.099 244.336 347.313 244.132 346.317 244.132C345.321 244.132 344.541 244.336 343.977 244.744C343.413 245.14 343.131 245.686 343.131 246.382C343.131 247.09 343.413 247.654 343.977 248.074C344.541 248.482 345.321 248.686 346.317 248.686Z" fill="#2F2F2F"/>
<rect x="323.5" y="229.5" width="39" height="29" rx="4.5" stroke="#09E31E"/>
<path d="M164.741 394.434V396H155.687V394.776L160.817 389.826C161.441 389.226 161.861 388.71 162.077 388.278C162.293 387.834 162.401 387.39 162.401 386.946C162.401 386.286 162.167 385.776 161.699 385.416C161.243 385.044 160.583 384.858 159.719 384.858C158.327 384.858 157.253 385.314 156.497 386.226L155.273 385.164C155.765 384.564 156.407 384.096 157.199 383.76C158.003 383.424 158.897 383.256 159.881 383.256C161.201 383.256 162.251 383.574 163.031 384.21C163.811 384.834 164.201 385.686 164.201 386.766C164.201 387.438 164.057 388.074 163.769 388.674C163.481 389.274 162.935 389.958 162.131 390.726L158.279 394.434H164.741ZM171.045 388.692C172.281 388.812 173.223 389.196 173.871 389.844C174.519 390.48 174.843 391.296 174.843 392.292C174.843 393.012 174.663 393.666 174.303 394.254C173.943 394.83 173.403 395.292 172.683 395.64C171.975 395.976 171.105 396.144 170.073 396.144C169.173 396.144 168.309 396.012 167.481 395.748C166.653 395.472 165.975 395.094 165.447 394.614L166.275 393.192C166.707 393.6 167.259 393.93 167.931 394.182C168.603 394.422 169.317 394.542 170.073 394.542C171.009 394.542 171.735 394.344 172.251 393.948C172.779 393.552 173.043 393.006 173.043 392.31C173.043 391.614 172.785 391.074 172.269 390.69C171.753 390.306 170.973 390.114 169.929 390.114H168.921V388.854L172.089 384.966H166.023V383.4H174.339V384.624L171.045 388.692ZM188.214 396L185.46 392.346L182.67 396H180.744L184.506 391.122L180.924 386.46H182.85L185.478 389.898L188.088 386.46H189.978L186.378 391.122L190.176 396H188.214ZM200.946 388.692C202.182 388.812 203.124 389.196 203.772 389.844C204.42 390.48 204.744 391.296 204.744 392.292C204.744 393.012 204.564 393.666 204.204 394.254C203.844 394.83 203.304 395.292 202.584 395.64C201.876 395.976 201.006 396.144 199.974 396.144C199.074 396.144 198.21 396.012 197.382 395.748C196.554 395.472 195.876 395.094 195.348 394.614L196.176 393.192C196.608 393.6 197.16 393.93 197.832 394.182C198.504 394.422 199.218 394.542 199.974 394.542C200.91 394.542 201.636 394.344 202.152 393.948C202.68 393.552 202.944 393.006 202.944 392.31C202.944 391.614 202.686 391.074 202.17 390.69C201.654 390.306 200.874 390.114 199.83 390.114H198.822V388.854L201.99 384.966H195.924V383.4H204.24V384.624L200.946 388.692ZM211.859 388.35C212.687 388.35 213.425 388.506 214.073 388.818C214.733 389.13 215.249 389.58 215.621 390.168C215.993 390.744 216.179 391.41 216.179 392.166C216.179 392.958 215.981 393.654 215.585 394.254C215.201 394.854 214.667 395.322 213.983 395.658C213.311 395.982 212.555 396.144 211.715 396.144C210.023 396.144 208.715 395.598 207.791 394.506C206.879 393.414 206.423 391.866 206.423 389.862C206.423 388.458 206.669 387.264 207.161 386.28C207.665 385.284 208.361 384.534 209.249 384.03C210.149 383.514 211.193 383.256 212.381 383.256C212.993 383.256 213.569 383.322 214.109 383.454C214.649 383.574 215.117 383.754 215.513 383.994L214.829 385.398C214.229 385.002 213.425 384.804 212.417 384.804C211.109 384.804 210.083 385.212 209.339 386.028C208.595 386.832 208.223 388.008 208.223 389.556C208.223 389.748 208.229 389.898 208.241 390.006C208.601 389.466 209.093 389.058 209.717 388.782C210.353 388.494 211.067 388.35 211.859 388.35ZM211.643 394.686C212.471 394.686 213.143 394.464 213.659 394.02C214.175 393.576 214.433 392.982 214.433 392.238C214.433 391.494 214.169 390.906 213.641 390.474C213.125 390.03 212.429 389.808 211.553 389.808C210.989 389.808 210.485 389.916 210.041 390.132C209.609 390.348 209.267 390.642 209.015 391.014C208.775 391.386 208.655 391.8 208.655 392.256C208.655 392.7 208.769 393.108 208.997 393.48C209.237 393.84 209.579 394.134 210.023 394.362C210.479 394.578 211.019 394.686 211.643 394.686ZM222.708 386.856H230.772V388.278H222.708V386.856ZM222.708 391.122H230.772V392.544H222.708V391.122Z" fill="#2F2F2F"/>
<path d="M251.816 389.394C252.536 389.67 253.088 390.066 253.472 390.582C253.856 391.098 254.048 391.716 254.048 392.436C254.048 393.192 253.844 393.852 253.436 394.416C253.028 394.968 252.446 395.394 251.69 395.694C250.934 395.994 250.046 396.144 249.026 396.144C248.018 396.144 247.136 395.994 246.38 395.694C245.636 395.394 245.06 394.968 244.652 394.416C244.244 393.852 244.04 393.192 244.04 392.436C244.04 391.716 244.226 391.098 244.598 390.582C244.982 390.066 245.534 389.67 246.254 389.394C245.678 389.118 245.24 388.752 244.94 388.296C244.64 387.84 244.49 387.3 244.49 386.676C244.49 385.98 244.676 385.374 245.048 384.858C245.432 384.342 245.966 383.946 246.65 383.67C247.334 383.394 248.126 383.256 249.026 383.256C249.938 383.256 250.736 383.394 251.42 383.67C252.116 383.946 252.65 384.342 253.022 384.858C253.406 385.374 253.598 385.98 253.598 386.676C253.598 387.288 253.442 387.828 253.13 388.296C252.83 388.752 252.392 389.118 251.816 389.394ZM249.026 384.714C248.174 384.714 247.502 384.9 247.01 385.272C246.518 385.632 246.272 386.124 246.272 386.748C246.272 387.372 246.512 387.864 246.992 388.224C247.484 388.584 248.162 388.764 249.026 388.764C249.902 388.764 250.586 388.584 251.078 388.224C251.582 387.864 251.834 387.372 251.834 386.748C251.834 386.124 251.576 385.632 251.06 385.272C250.556 384.9 249.878 384.714 249.026 384.714ZM249.026 394.686C250.022 394.686 250.808 394.482 251.384 394.074C251.96 393.654 252.248 393.09 252.248 392.382C252.248 391.686 251.96 391.14 251.384 390.744C250.808 390.336 250.022 390.132 249.026 390.132C248.03 390.132 247.25 390.336 246.686 390.744C246.122 391.14 245.84 391.686 245.84 392.382C245.84 393.09 246.122 393.654 246.686 394.074C247.25 394.482 248.03 394.686 249.026 394.686ZM264.552 394.434V396H255.498V394.776L260.628 389.826C261.252 389.226 261.672 388.71 261.888 388.278C262.104 387.834 262.212 387.39 262.212 386.946C262.212 386.286 261.978 385.776 261.51 385.416C261.054 385.044 260.394 384.858 259.53 384.858C258.138 384.858 257.064 385.314 256.308 386.226L255.084 385.164C255.576 384.564 256.218 384.096 257.01 383.76C257.814 383.424 258.708 383.256 259.692 383.256C261.012 383.256 262.062 383.574 262.842 384.21C263.622 384.834 264.012 385.686 264.012 386.766C264.012 387.438 263.868 388.074 263.58 388.674C263.292 389.274 262.746 389.958 261.942 390.726L258.09 394.434H264.552ZM273.736 389.394C274.456 389.67 275.008 390.066 275.392 390.582C275.776 391.098 275.968 391.716 275.968 392.436C275.968 393.192 275.764 393.852 275.356 394.416C274.948 394.968 274.366 395.394 273.61 395.694C272.854 395.994 271.966 396.144 270.946 396.144C269.938 396.144 269.056 395.994 268.3 395.694C267.556 395.394 266.98 394.968 266.572 394.416C266.164 393.852 265.96 393.192 265.96 392.436C265.96 391.716 266.146 391.098 266.518 390.582C266.902 390.066 267.454 389.67 268.174 389.394C267.598 389.118 267.16 388.752 266.86 388.296C266.56 387.84 266.41 387.3 266.41 386.676C266.41 385.98 266.596 385.374 266.968 384.858C267.352 384.342 267.886 383.946 268.57 383.67C269.254 383.394 270.046 383.256 270.946 383.256C271.858 383.256 272.656 383.394 273.34 383.67C274.036 383.946 274.57 384.342 274.942 384.858C275.326 385.374 275.518 385.98 275.518 386.676C275.518 387.288 275.362 387.828 275.05 388.296C274.75 388.752 274.312 389.118 273.736 389.394ZM270.946 384.714C270.094 384.714 269.422 384.9 268.93 385.272C268.438 385.632 268.192 386.124 268.192 386.748C268.192 387.372 268.432 387.864 268.912 388.224C269.404 388.584 270.082 388.764 270.946 388.764C271.822 388.764 272.506 388.584 272.998 388.224C273.502 387.864 273.754 387.372 273.754 386.748C273.754 386.124 273.496 385.632 272.98 385.272C272.476 384.9 271.798 384.714 270.946 384.714ZM270.946 394.686C271.942 394.686 272.728 394.482 273.304 394.074C273.88 393.654 274.168 393.09 274.168 392.382C274.168 391.686 273.88 391.14 273.304 390.744C272.728 390.336 271.942 390.132 270.946 390.132C269.95 390.132 269.17 390.336 268.606 390.744C268.042 391.14 267.76 391.686 267.76 392.382C267.76 393.09 268.042 393.654 268.606 394.074C269.17 394.482 269.95 394.686 270.946 394.686Z" fill="#2F2F2F"/>
<path d="M245 376H275V374H245V376ZM279 380V400H281V380H279ZM275 404H245V406H275V404ZM241 400V380H239V400H241ZM245 404C242.791 404 241 402.209 241 400H239C239 403.314 241.686 406 245 406V404ZM279 400C279 402.209 277.209 404 275 404V406C278.314 406 281 403.314 281 400H279ZM275 376C277.209 376 279 377.791 279 380H281C281 376.686 278.314 374 275 374V376ZM245 374C241.686 374 239 376.686 239 380H241C241 377.791 242.791 376 245 376V374Z" fill="#2F2F2F"/>
<rect x="323.5" y="86.5" width="39" height="29" rx="4.5" fill="white"/>
<path d="M333.294 94.4V107H331.512V95.966H328.668V94.4H333.294ZM344.907 105.434V107H335.853V105.776L340.983 100.826C341.607 100.226 342.027 99.71 342.243 99.278C342.459 98.834 342.567 98.39 342.567 97.946C342.567 97.286 342.333 96.776 341.865 96.416C341.409 96.044 340.749 95.858 339.885 95.858C338.493 95.858 337.419 96.314 336.663 97.226L335.439 96.164C335.931 95.564 336.573 95.096 337.365 94.76C338.169 94.424 339.063 94.256 340.047 94.256C341.367 94.256 342.417 94.574 343.197 95.21C343.977 95.834 344.367 96.686 344.367 97.766C344.367 98.438 344.223 99.074 343.935 99.674C343.647 100.274 343.101 100.958 342.297 101.726L338.445 105.434H344.907ZM351.482 107.144C350.486 107.144 349.598 106.892 348.818 106.388C348.05 105.872 347.444 105.128 347 104.156C346.556 103.184 346.334 102.032 346.334 100.7C346.334 99.368 346.556 98.216 347 97.244C347.444 96.272 348.05 95.534 348.818 95.03C349.598 94.514 350.486 94.256 351.482 94.256C352.466 94.256 353.342 94.514 354.11 95.03C354.89 95.534 355.502 96.272 355.946 97.244C356.39 98.216 356.612 99.368 356.612 100.7C356.612 102.032 356.39 103.184 355.946 104.156C355.502 105.128 354.89 105.872 354.11 106.388C353.342 106.892 352.466 107.144 351.482 107.144ZM351.482 105.542C352.49 105.542 353.294 105.128 353.894 104.3C354.506 103.472 354.812 102.272 354.812 100.7C354.812 99.128 354.506 97.928 353.894 97.1C353.294 96.272 352.49 95.858 351.482 95.858C350.462 95.858 349.646 96.272 349.034 97.1C348.434 97.928 348.134 99.128 348.134 100.7C348.134 102.272 348.434 103.472 349.034 104.3C349.646 105.128 350.462 105.542 351.482 105.542Z" fill="#2F2F2F"/>
<rect x="323.5" y="86.5" width="39" height="29" rx="4.5" stroke="#09E31E"/>
</svg>
