<svg width="197" height="141" viewBox="0 0 197 141" fill="none" xmlns="http://www.w3.org/2000/svg">
<path d="M6.156 14.6782C7.32 14.8222 8.208 15.2182 8.82 15.8662C9.432 16.5142 9.738 17.3242 9.738 18.2962C9.738 19.0282 9.552 19.6942 9.18 20.2942C8.808 20.8942 8.244 21.3742 7.488 21.7342C6.744 22.0822 5.832 22.2562 4.752 22.2562C3.852 22.2562 2.982 22.1302 2.142 21.8782C1.314 21.6142 0.606 21.2542 0.018 20.7982L1.026 18.9802C1.482 19.3642 2.034 19.6702 2.682 19.8982C3.342 20.1142 4.02 20.2222 4.716 20.2222C5.544 20.2222 6.192 20.0542 6.66 19.7182C7.14 19.3702 7.38 18.9022 7.38 18.3142C7.38 17.7262 7.152 17.2702 6.696 16.9462C6.252 16.6102 5.568 16.4422 4.644 16.4422H3.492V14.8402L6.354 11.4382H0.63V9.47617H9.216V11.0422L6.156 14.6782ZM22.7712 15.0762L25.3112 17.6362L23.9312 19.0962L21.3512 16.4962L18.7712 19.0962L17.4312 17.6362L19.9512 15.0762L17.4312 12.5162L18.7712 11.0562L21.3512 13.6562L23.9312 11.0562L25.3112 12.5162L22.7712 15.0762ZM38.2707 22.2562C37.2627 22.2562 36.3627 22.0042 35.5707 21.5002C34.7787 20.9842 34.1547 20.2402 33.6987 19.2682C33.2427 18.2842 33.0147 17.1202 33.0147 15.7762C33.0147 14.4322 33.2427 13.2742 33.6987 12.3022C34.1547 11.3182 34.7787 10.5742 35.5707 10.0702C36.3627 9.55417 37.2627 9.29617 38.2707 9.29617C39.2787 9.29617 40.1787 9.55417 40.9707 10.0702C41.7747 10.5742 42.4047 11.3182 42.8607 12.3022C43.3167 13.2742 43.5447 14.4322 43.5447 15.7762C43.5447 17.1202 43.3167 18.2842 42.8607 19.2682C42.4047 20.2402 41.7747 20.9842 40.9707 21.5002C40.1787 22.0042 39.2787 22.2562 38.2707 22.2562ZM38.2707 20.2222C39.1707 20.2222 39.8787 19.8502 40.3947 19.1062C40.9227 18.3622 41.1867 17.2522 41.1867 15.7762C41.1867 14.3002 40.9227 13.1902 40.3947 12.4462C39.8787 11.7022 39.1707 11.3302 38.2707 11.3302C37.3827 11.3302 36.6747 11.7022 36.1467 12.4462C35.6307 13.1902 35.3727 14.3002 35.3727 15.7762C35.3727 17.2522 35.6307 18.3622 36.1467 19.1062C36.6747 19.8502 37.3827 20.2222 38.2707 20.2222ZM46.319 22.2022C45.911 22.2022 45.563 22.0642 45.275 21.7882C44.987 21.5002 44.843 21.1402 44.843 20.7082C44.843 20.2642 44.981 19.9042 45.257 19.6282C45.545 19.3522 45.899 19.2142 46.319 19.2142C46.739 19.2142 47.087 19.3522 47.363 19.6282C47.651 19.9042 47.795 20.2642 47.795 20.7082C47.795 21.1402 47.651 21.5002 47.363 21.7882C47.075 22.0642 46.727 22.2022 46.319 22.2022ZM53.2516 14.3542C55.0276 14.3542 56.3416 14.7022 57.1936 15.3982C58.0456 16.0822 58.4716 17.0182 58.4716 18.2062C58.4716 18.9622 58.2856 19.6462 57.9136 20.2582C57.5416 20.8702 56.9836 21.3562 56.2396 21.7162C55.4956 22.0762 54.5776 22.2562 53.4856 22.2562C52.5856 22.2562 51.7156 22.1302 50.8756 21.8782C50.0356 21.6142 49.3276 21.2542 48.7516 20.7982L49.7416 18.9802C50.2096 19.3642 50.7676 19.6702 51.4156 19.8982C52.0756 20.1142 52.7536 20.2222 53.4496 20.2222C54.2776 20.2222 54.9256 20.0542 55.3936 19.7182C55.8736 19.3702 56.1136 18.8962 56.1136 18.2962C56.1136 17.6482 55.8556 17.1622 55.3396 16.8382C54.8356 16.5022 53.9656 16.3342 52.7296 16.3342H49.6876L50.3356 9.47617H57.7336V11.4382H52.3156L52.0456 14.3542H53.2516ZM63.6754 14.3542C65.4514 14.3542 66.7654 14.7022 67.6174 15.3982C68.4694 16.0822 68.8954 17.0182 68.8954 18.2062C68.8954 18.9622 68.7094 19.6462 68.3374 20.2582C67.9654 20.8702 67.4074 21.3562 66.6634 21.7162C65.9194 22.0762 65.0014 22.2562 63.9094 22.2562C63.0094 22.2562 62.1394 22.1302 61.2994 21.8782C60.4594 21.6142 59.7514 21.2542 59.1754 20.7982L60.1654 18.9802C60.6334 19.3642 61.1914 19.6702 61.8394 19.8982C62.4994 20.1142 63.1774 20.2222 63.8734 20.2222C64.7014 20.2222 65.3494 20.0542 65.8174 19.7182C66.2974 19.3702 66.5374 18.8962 66.5374 18.2962C66.5374 17.6482 66.2794 17.1622 65.7634 16.8382C65.2594 16.5022 64.3894 16.3342 63.1534 16.3342H60.1114L60.7594 9.47617H68.1574V11.4382H62.7394L62.4694 14.3542H63.6754ZM81.7477 15.0762L84.2877 17.6362L82.9077 19.0962L80.3277 16.4962L77.7477 19.0962L76.4077 17.6362L78.9277 15.0762L76.4077 12.5162L77.7477 11.0562L80.3277 13.6562L82.9077 11.0562L84.2877 12.5162L81.7477 15.0762ZM103.223 19.2142H100.991V22.0762H98.7232V19.2142H91.8112V17.5942L98.0212 9.47617H100.523L94.6732 17.2342H98.7952V14.6962H100.991V17.2342H103.223V19.2142Z" fill="#2F2F2F"/>
<path d="M115.624 11.8842H126.376V13.7802H115.624V11.8842ZM115.624 17.5722H126.376V19.4682H115.624V17.5722Z" fill="#2F2F2F"/>
<path d="M143.005 1.13983L189.851 1.01351L189.841 -0.986463L142.995 -0.860148L143.005 1.13983ZM193.872 5.00267L193.974 25.0026L195.974 24.9972L195.872 4.99728L193.872 5.00267ZM189.995 29.0133L143.149 29.1396L143.159 31.1396L190.005 31.0133L189.995 29.0133ZM139.128 25.1505L139.026 5.15056L137.026 5.15595L137.128 25.1559L139.128 25.1505ZM143.149 29.1396C140.94 29.1456 139.14 27.3596 139.128 25.1505L137.128 25.1559C137.146 28.4695 139.846 31.1486 143.159 31.1396L143.149 29.1396ZM193.974 25.0026C193.986 27.2117 192.204 29.0074 189.995 29.0133L190.005 31.0133C193.319 31.0044 195.991 28.3109 195.974 24.9972L193.974 25.0026ZM189.851 1.01351C192.06 1.00755 193.86 2.79356 193.872 5.00267L195.872 4.99728C195.854 1.68361 193.154 -0.995398 189.841 -0.986463L189.851 1.01351ZM142.995 -0.860148C139.681 -0.851213 137.009 1.84229 137.026 5.15595L139.026 5.15056C139.014 2.94145 140.796 1.14578 143.005 1.13983L142.995 -0.860148Z" fill="#2F2F2F"/>
<path d="M5.148 64.6295V77.2295H2.808V66.5915H0.144V64.6295H5.148ZM12.9035 77.4095C11.8955 77.4095 10.9955 77.1575 10.2035 76.6535C9.41147 76.1375 8.78747 75.3935 8.33147 74.4215C7.87547 73.4375 7.64747 72.2735 7.64747 70.9295C7.64747 69.5855 7.87547 68.4275 8.33147 67.4555C8.78747 66.4715 9.41147 65.7275 10.2035 65.2235C10.9955 64.7075 11.8955 64.4495 12.9035 64.4495C13.9115 64.4495 14.8115 64.7075 15.6035 65.2235C16.4075 65.7275 17.0375 66.4715 17.4935 67.4555C17.9495 68.4275 18.1775 69.5855 18.1775 70.9295C18.1775 72.2735 17.9495 73.4375 17.4935 74.4215C17.0375 75.3935 16.4075 76.1375 15.6035 76.6535C14.8115 77.1575 13.9115 77.4095 12.9035 77.4095ZM12.9035 75.3755C13.8035 75.3755 14.5115 75.0035 15.0275 74.2595C15.5555 73.5155 15.8195 72.4055 15.8195 70.9295C15.8195 69.4535 15.5555 68.3435 15.0275 67.5995C14.5115 66.8555 13.8035 66.4835 12.9035 66.4835C12.0155 66.4835 11.3075 66.8555 10.7795 67.5995C10.2635 68.3435 10.0055 69.4535 10.0055 70.9295C10.0055 72.4055 10.2635 73.5155 10.7795 74.2595C11.3075 75.0035 12.0155 75.3755 12.9035 75.3755ZM31.2614 70.2295L33.8014 72.7895L32.4214 74.2495L29.8414 71.6495L27.2614 74.2495L25.9214 72.7895L28.4414 70.2295L25.9214 67.6695L27.2614 66.2095L29.8414 68.8095L32.4214 66.2095L33.8014 67.6695L31.2614 70.2295ZM51.0089 64.6295V66.1955L46.1129 77.2295H43.6109L48.3449 66.6095H43.3949V68.7515H41.2169V64.6295H51.0089ZM52.9636 77.3555C52.5556 77.3555 52.2076 77.2175 51.9196 76.9415C51.6316 76.6535 51.4876 76.2935 51.4876 75.8615C51.4876 75.4175 51.6256 75.0575 51.9016 74.7815C52.1896 74.5055 52.5436 74.3675 52.9636 74.3675C53.3836 74.3675 53.7316 74.5055 54.0076 74.7815C54.2956 75.0575 54.4396 75.4175 54.4396 75.8615C54.4396 76.2935 54.2956 76.6535 54.0076 76.9415C53.7196 77.2175 53.3716 77.3555 52.9636 77.3555ZM61.4939 69.8315C62.6579 69.9755 63.5459 70.3715 64.1579 71.0195C64.7699 71.6675 65.0759 72.4775 65.0759 73.4495C65.0759 74.1815 64.8899 74.8475 64.5179 75.4475C64.1459 76.0475 63.5819 76.5275 62.8259 76.8875C62.0819 77.2355 61.1699 77.4095 60.0899 77.4095C59.1899 77.4095 58.3199 77.2835 57.4799 77.0315C56.6519 76.7675 55.9439 76.4075 55.3559 75.9515L56.3639 74.1335C56.8199 74.5175 57.3719 74.8235 58.0199 75.0515C58.6799 75.2675 59.3579 75.3755 60.0539 75.3755C60.8819 75.3755 61.5299 75.2075 61.9979 74.8715C62.4779 74.5235 62.7179 74.0555 62.7179 73.4675C62.7179 72.8795 62.4899 72.4235 62.0339 72.0995C61.5899 71.7635 60.9059 71.5955 59.9819 71.5955H58.8299V69.9935L61.6919 66.5915H55.9679V64.6295H64.5539V66.1955L61.4939 69.8315ZM78.1091 70.2295L80.6491 72.7895L79.2691 74.2495L76.6891 71.6495L74.1091 74.2495L72.7691 72.7895L75.2891 70.2295L72.7691 67.6695L74.1091 66.2095L76.6891 68.8095L79.2691 66.2095L80.6491 67.6695L78.1091 70.2295ZM99.5845 74.3675H97.3525V77.2295H95.0845V74.3675H88.1725V72.7475L94.3825 64.6295H96.8845L91.0345 72.3875H95.1565V69.8495H97.3525V72.3875H99.5845V74.3675Z" fill="#2F2F2F"/>
<path d="M111.624 67.0375H122.376V68.9335H111.624V67.0375ZM111.624 72.7255H122.376V74.6215H111.624V72.7255Z" fill="#2F2F2F"/>
<path d="M139.005 56.2931L185.851 56.1668L185.841 54.1669L138.995 54.2932L139.005 56.2931ZM189.872 60.156L189.974 80.1559L191.974 80.1505L191.872 60.1506L189.872 60.156ZM185.995 84.1667L139.149 84.293L139.159 86.2929L186.005 86.1666L185.995 84.1667ZM135.128 80.3038L135.026 60.3039L133.026 60.3093L133.128 80.3092L135.128 80.3038ZM139.149 84.293C136.94 84.2989 135.14 82.5129 135.128 80.3038L133.128 80.3092C133.146 83.6229 135.846 86.3019 139.159 86.2929L139.149 84.293ZM189.974 80.1559C189.986 82.365 188.204 84.1607 185.995 84.1667L186.005 86.1666C189.319 86.1577 191.991 83.4642 191.974 80.1505L189.974 80.1559ZM185.851 56.1668C188.06 56.1609 189.86 57.9469 189.872 60.156L191.872 60.1506C191.854 56.8369 189.154 54.1579 185.841 54.1669L185.851 56.1668ZM138.995 54.2932C135.681 54.3021 133.009 56.9956 133.026 60.3093L135.026 60.3039C135.014 58.0948 136.796 56.2991 139.005 56.2931L138.995 54.2932Z" fill="#2F2F2F"/>
<path d="M4.734 124.66C6.51 124.66 7.824 125.008 8.676 125.704C9.528 126.388 9.954 127.324 9.954 128.512C9.954 129.268 9.768 129.952 9.396 130.564C9.024 131.176 8.466 131.662 7.722 132.022C6.978 132.382 6.06 132.562 4.968 132.562C4.068 132.562 3.198 132.436 2.358 132.184C1.518 131.92 0.81 131.56 0.234 131.104L1.224 129.286C1.692 129.67 2.25 129.976 2.898 130.204C3.558 130.42 4.236 130.528 4.932 130.528C5.76 130.528 6.408 130.36 6.876 130.024C7.356 129.676 7.596 129.202 7.596 128.602C7.596 127.954 7.338 127.468 6.822 127.144C6.318 126.808 5.448 126.64 4.212 126.64H1.17L1.818 119.782H9.216V121.744H3.798L3.528 124.66H4.734ZM22.8063 125.382L25.3463 127.942L23.9663 129.402L21.3863 126.802L18.8063 129.402L17.4663 127.942L19.9863 125.382L17.4663 122.822L18.8063 121.362L21.3863 123.962L23.9663 121.362L25.3463 122.822L22.8063 125.382ZM44.2818 129.52H42.0498V132.382H39.7818V129.52H32.8698V127.9L39.0798 119.782H41.5818L35.7318 127.54H39.8538V125.002H42.0498V127.54H44.2818V129.52ZM47.0222 132.508C46.6142 132.508 46.2662 132.37 45.9782 132.094C45.6902 131.806 45.5462 131.446 45.5462 131.014C45.5462 130.57 45.6842 130.21 45.9602 129.934C46.2482 129.658 46.6022 129.52 47.0222 129.52C47.4422 129.52 47.7902 129.658 48.0662 129.934C48.3542 130.21 48.4982 130.57 48.4982 131.014C48.4982 131.446 48.3542 131.806 48.0662 132.094C47.7782 132.37 47.4302 132.508 47.0222 132.508ZM55.0578 132.562C54.0498 132.562 53.1498 132.31 52.3578 131.806C51.5658 131.29 50.9418 130.546 50.4858 129.574C50.0298 128.59 49.8018 127.426 49.8018 126.082C49.8018 124.738 50.0298 123.58 50.4858 122.608C50.9418 121.624 51.5658 120.88 52.3578 120.376C53.1498 119.86 54.0498 119.602 55.0578 119.602C56.0658 119.602 56.9658 119.86 57.7578 120.376C58.5618 120.88 59.1918 121.624 59.6478 122.608C60.1038 123.58 60.3318 124.738 60.3318 126.082C60.3318 127.426 60.1038 128.59 59.6478 129.574C59.1918 130.546 58.5618 131.29 57.7578 131.806C56.9658 132.31 56.0658 132.562 55.0578 132.562ZM55.0578 130.528C55.9578 130.528 56.6658 130.156 57.1818 129.412C57.7098 128.668 57.9738 127.558 57.9738 126.082C57.9738 124.606 57.7098 123.496 57.1818 122.752C56.6658 122.008 55.9578 121.636 55.0578 121.636C54.1698 121.636 53.4618 122.008 52.9338 122.752C52.4178 123.496 52.1598 124.606 52.1598 126.082C52.1598 127.558 52.4178 128.668 52.9338 129.412C53.4618 130.156 54.1698 130.528 55.0578 130.528ZM66.1611 119.602C67.8891 119.602 69.2271 120.142 70.1751 121.222C71.1351 122.302 71.6151 123.85 71.6151 125.866C71.6151 127.282 71.3571 128.494 70.8411 129.502C70.3251 130.498 69.5991 131.26 68.6631 131.788C67.7391 132.304 66.6651 132.562 65.4411 132.562C64.7931 132.562 64.1811 132.496 63.6051 132.364C63.0411 132.22 62.5491 132.016 62.1291 131.752L62.9931 129.988C63.6171 130.396 64.4151 130.6 65.3871 130.6C66.5991 130.6 67.5471 130.228 68.2311 129.484C68.9151 128.74 69.2571 127.666 69.2571 126.262V126.244C68.8851 126.676 68.4111 127.006 67.8351 127.234C67.2591 127.45 66.6111 127.558 65.8911 127.558C65.0631 127.558 64.3191 127.402 63.6591 127.09C62.9991 126.766 62.4831 126.31 62.1111 125.722C61.7391 125.134 61.5531 124.456 61.5531 123.688C61.5531 122.872 61.7571 122.158 62.1651 121.546C62.5731 120.922 63.1251 120.442 63.8211 120.106C64.5171 119.77 65.2971 119.602 66.1611 119.602ZM66.3411 125.722C67.0971 125.722 67.7091 125.518 68.1771 125.11C68.6571 124.702 68.8971 124.186 68.8971 123.562C68.8971 122.95 68.6631 122.446 68.1951 122.05C67.7391 121.642 67.1031 121.438 66.2871 121.438C65.5551 121.438 64.9611 121.636 64.5051 122.032C64.0491 122.416 63.8211 122.932 63.8211 123.58C63.8211 124.24 64.0491 124.762 64.5051 125.146C64.9611 125.53 65.5731 125.722 66.3411 125.722ZM84.7009 125.382L87.2409 127.942L85.8609 129.402L83.2809 126.802L80.7009 129.402L79.3609 127.942L81.8809 125.382L79.3609 122.822L80.7009 121.362L83.2809 123.962L85.8609 121.362L87.2409 122.822L84.7009 125.382ZM100.668 124.606C101.496 124.606 102.24 124.768 102.9 125.092C103.56 125.404 104.076 125.854 104.448 126.442C104.82 127.03 105.006 127.708 105.006 128.476C105.006 129.292 104.802 130.012 104.394 130.636C103.986 131.248 103.434 131.722 102.738 132.058C102.042 132.394 101.262 132.562 100.398 132.562C98.6703 132.562 97.3263 132.022 96.3663 130.942C95.4183 129.862 94.9443 128.314 94.9443 126.298C94.9443 124.882 95.2023 123.676 95.7183 122.68C96.2343 121.672 96.9543 120.91 97.8783 120.394C98.8143 119.866 99.8943 119.602 101.118 119.602C101.766 119.602 102.372 119.674 102.936 119.818C103.512 119.95 104.01 120.148 104.43 120.412L103.566 122.176C102.942 121.768 102.144 121.564 101.172 121.564C99.9603 121.564 99.0123 121.936 98.3283 122.68C97.6443 123.424 97.3023 124.498 97.3023 125.902V125.92C97.6743 125.488 98.1483 125.164 98.7243 124.948C99.3003 124.72 99.9483 124.606 100.668 124.606ZM100.272 130.726C101.004 130.726 101.598 130.534 102.054 130.15C102.51 129.754 102.738 129.232 102.738 128.584C102.738 127.924 102.51 127.402 102.054 127.018C101.598 126.634 100.986 126.442 100.218 126.442C99.4623 126.442 98.8443 126.646 98.3643 127.054C97.8963 127.462 97.6623 127.978 97.6623 128.602C97.6623 129.214 97.8903 129.724 98.3463 130.132C98.8143 130.528 99.4563 130.726 100.272 130.726Z" fill="#2F2F2F"/>
<path d="M117.624 122.19H128.376V124.086H117.624V122.19ZM117.624 127.878H128.376V129.774H117.624V127.878Z" fill="#2F2F2F"/>
<path d="M145.005 111.445L191.851 111.319L191.841 109.319L144.995 109.446L145.005 111.445ZM195.872 115.308L195.974 135.308L197.974 135.303L197.872 115.303L195.872 115.308ZM191.995 139.319L145.149 139.445L145.159 141.445L192.005 141.319L191.995 139.319ZM141.128 135.456L141.026 115.456L139.026 115.462L139.128 135.462L141.128 135.456ZM145.149 139.445C142.94 139.451 141.14 137.665 141.128 135.456L139.128 135.462C139.146 138.775 141.846 141.454 145.159 141.445L145.149 139.445ZM195.974 135.308C195.986 137.517 194.204 139.313 191.995 139.319L192.005 141.319C195.319 141.31 197.991 138.617 197.974 135.303L195.974 135.308ZM191.851 111.319C194.06 111.313 195.86 113.099 195.872 115.308L197.872 115.303C197.854 111.989 195.154 109.31 191.841 109.319L191.851 111.319ZM144.995 109.446C141.681 109.454 139.009 112.148 139.026 115.462L141.026 115.456C141.014 113.247 142.796 111.451 145.005 111.445L144.995 109.446Z" fill="#2F2F2F"/>
<path d="M159.978 13.35C160.806 13.35 161.544 13.506 162.192 13.818C162.852 14.13 163.368 14.58 163.74 15.168C164.112 15.744 164.298 16.41 164.298 17.166C164.298 17.958 164.1 18.654 163.704 19.254C163.32 19.854 162.786 20.322 162.102 20.658C161.43 20.982 160.674 21.144 159.834 21.144C158.142 21.144 156.834 20.598 155.91 19.506C154.998 18.414 154.542 16.866 154.542 14.862C154.542 13.458 154.788 12.264 155.28 11.28C155.784 10.284 156.48 9.534 157.368 9.03C158.268 8.514 159.312 8.256 160.5 8.256C161.112 8.256 161.688 8.322 162.228 8.454C162.768 8.574 163.236 8.754 163.632 8.994L162.948 10.398C162.348 10.002 161.544 9.804 160.536 9.804C159.228 9.804 158.202 10.212 157.458 11.028C156.714 11.832 156.342 13.008 156.342 14.556C156.342 14.748 156.348 14.898 156.36 15.006C156.72 14.466 157.212 14.058 157.836 13.782C158.472 13.494 159.186 13.35 159.978 13.35ZM159.762 19.686C160.59 19.686 161.262 19.464 161.778 19.02C162.294 18.576 162.552 17.982 162.552 17.238C162.552 16.494 162.288 15.906 161.76 15.474C161.244 15.03 160.548 14.808 159.672 14.808C159.108 14.808 158.604 14.916 158.16 15.132C157.728 15.348 157.386 15.642 157.134 16.014C156.894 16.386 156.774 16.8 156.774 17.256C156.774 17.7 156.888 18.108 157.116 18.48C157.356 18.84 157.698 19.134 158.142 19.362C158.598 19.578 159.138 19.686 159.762 19.686ZM168.545 21.108C168.209 21.108 167.921 20.994 167.681 20.766C167.441 20.526 167.321 20.226 167.321 19.866C167.321 19.518 167.441 19.23 167.681 19.002C167.921 18.762 168.209 18.642 168.545 18.642C168.881 18.642 169.163 18.756 169.391 18.984C169.619 19.212 169.733 19.506 169.733 19.866C169.733 20.226 169.613 20.526 169.373 20.766C169.145 20.994 168.869 21.108 168.545 21.108ZM178.191 13.35C179.019 13.35 179.757 13.506 180.405 13.818C181.065 14.13 181.581 14.58 181.953 15.168C182.325 15.744 182.511 16.41 182.511 17.166C182.511 17.958 182.313 18.654 181.917 19.254C181.533 19.854 180.999 20.322 180.315 20.658C179.643 20.982 178.887 21.144 178.047 21.144C176.355 21.144 175.047 20.598 174.123 19.506C173.211 18.414 172.755 16.866 172.755 14.862C172.755 13.458 173.001 12.264 173.493 11.28C173.997 10.284 174.693 9.534 175.581 9.03C176.481 8.514 177.525 8.256 178.713 8.256C179.325 8.256 179.901 8.322 180.441 8.454C180.981 8.574 181.449 8.754 181.845 8.994L181.161 10.398C180.561 10.002 179.757 9.804 178.749 9.804C177.441 9.804 176.415 10.212 175.671 11.028C174.927 11.832 174.555 13.008 174.555 14.556C174.555 14.748 174.561 14.898 174.573 15.006C174.933 14.466 175.425 14.058 176.049 13.782C176.685 13.494 177.399 13.35 178.191 13.35ZM177.975 19.686C178.803 19.686 179.475 19.464 179.991 19.02C180.507 18.576 180.765 17.982 180.765 17.238C180.765 16.494 180.501 15.906 179.973 15.474C179.457 15.03 178.761 14.808 177.885 14.808C177.321 14.808 176.817 14.916 176.373 15.132C175.941 15.348 175.599 15.642 175.347 16.014C175.107 16.386 174.987 16.8 174.987 17.256C174.987 17.7 175.101 18.108 175.329 18.48C175.569 18.84 175.911 19.134 176.355 19.362C176.811 19.578 177.351 19.686 177.975 19.686Z" fill="#2F2F2F"/>
<path d="M157.931 74.434V76H148.877V74.776L154.007 69.826C154.631 69.226 155.051 68.71 155.267 68.278C155.483 67.834 155.591 67.39 155.591 66.946C155.591 66.286 155.357 65.776 154.889 65.416C154.433 65.044 153.773 64.858 152.909 64.858C151.517 64.858 150.443 65.314 149.687 66.226L148.463 65.164C148.955 64.564 149.597 64.096 150.389 63.76C151.193 63.424 152.087 63.256 153.071 63.256C154.391 63.256 155.441 63.574 156.221 64.21C157.001 64.834 157.391 65.686 157.391 66.766C157.391 67.438 157.247 68.074 156.959 68.674C156.671 69.274 156.125 69.958 155.321 70.726L151.469 74.434H157.931ZM165.027 63.256C166.719 63.256 168.021 63.802 168.933 64.894C169.857 65.986 170.319 67.534 170.319 69.538C170.319 70.942 170.067 72.142 169.563 73.138C169.071 74.122 168.375 74.872 167.475 75.388C166.587 75.892 165.549 76.144 164.361 76.144C163.749 76.144 163.173 76.084 162.633 75.964C162.093 75.832 161.625 75.646 161.229 75.406L161.913 74.002C162.525 74.398 163.335 74.596 164.343 74.596C165.651 74.596 166.671 74.194 167.403 73.39C168.147 72.574 168.519 71.392 168.519 69.844V69.394C168.159 69.934 167.661 70.348 167.025 70.636C166.389 70.912 165.675 71.05 164.883 71.05C164.055 71.05 163.311 70.894 162.651 70.582C162.003 70.27 161.493 69.826 161.121 69.25C160.761 68.662 160.581 67.99 160.581 67.234C160.581 66.442 160.773 65.746 161.157 65.146C161.553 64.546 162.087 64.084 162.759 63.76C163.431 63.424 164.187 63.256 165.027 63.256ZM165.189 69.592C165.753 69.592 166.257 69.484 166.701 69.268C167.145 69.052 167.487 68.758 167.727 68.386C167.979 68.014 168.105 67.6 168.105 67.144C168.105 66.7 167.985 66.298 167.745 65.938C167.517 65.566 167.175 65.272 166.719 65.056C166.275 64.828 165.735 64.714 165.099 64.714C164.271 64.714 163.599 64.936 163.083 65.38C162.579 65.824 162.327 66.418 162.327 67.162C162.327 67.906 162.585 68.5 163.101 68.944C163.617 69.376 164.313 69.592 165.189 69.592ZM182.384 74.434V76H173.33V74.776L178.46 69.826C179.084 69.226 179.504 68.71 179.72 68.278C179.936 67.834 180.044 67.39 180.044 66.946C180.044 66.286 179.81 65.776 179.342 65.416C178.886 65.044 178.226 64.858 177.362 64.858C175.97 64.858 174.896 65.314 174.14 66.226L172.916 65.164C173.408 64.564 174.05 64.096 174.842 63.76C175.646 63.424 176.54 63.256 177.524 63.256C178.844 63.256 179.894 63.574 180.674 64.21C181.454 64.834 181.844 65.686 181.844 66.766C181.844 67.438 181.7 68.074 181.412 68.674C181.124 69.274 180.578 69.958 179.774 70.726L175.922 74.434H182.384Z" fill="#2F2F2F"/>
<path d="M147.533 119.4V132H145.751V120.966H142.907V119.4H147.533ZM160.675 130.434V132H151.621V130.776L156.751 125.826C157.375 125.226 157.795 124.71 158.011 124.278C158.227 123.834 158.335 123.39 158.335 122.946C158.335 122.286 158.101 121.776 157.633 121.416C157.177 121.044 156.517 120.858 155.653 120.858C154.261 120.858 153.187 121.314 152.431 122.226L151.207 121.164C151.699 120.564 152.341 120.096 153.133 119.76C153.937 119.424 154.831 119.256 155.815 119.256C157.135 119.256 158.185 119.574 158.965 120.21C159.745 120.834 160.135 121.686 160.135 122.766C160.135 123.438 159.991 124.074 159.703 124.674C159.415 125.274 158.869 125.958 158.065 126.726L154.213 130.434H160.675ZM172.541 130.434V132H163.487V130.776L168.617 125.826C169.241 125.226 169.661 124.71 169.877 124.278C170.093 123.834 170.201 123.39 170.201 122.946C170.201 122.286 169.967 121.776 169.499 121.416C169.043 121.044 168.383 120.858 167.519 120.858C166.127 120.858 165.053 121.314 164.297 122.226L163.073 121.164C163.565 120.564 164.207 120.096 164.999 119.76C165.803 119.424 166.697 119.256 167.681 119.256C169.001 119.256 170.051 119.574 170.831 120.21C171.611 120.834 172.001 121.686 172.001 122.766C172.001 123.438 171.857 124.074 171.569 124.674C171.281 125.274 170.735 125.958 169.931 126.726L166.079 130.434H172.541ZM176.915 132.108C176.579 132.108 176.291 131.994 176.051 131.766C175.811 131.526 175.691 131.226 175.691 130.866C175.691 130.518 175.811 130.23 176.051 130.002C176.291 129.762 176.579 129.642 176.915 129.642C177.251 129.642 177.533 129.756 177.761 129.984C177.989 130.212 178.103 130.506 178.103 130.866C178.103 131.226 177.983 131.526 177.743 131.766C177.515 131.994 177.239 132.108 176.915 132.108ZM190.286 119.4V120.624L185.192 132H183.284L188.27 120.966H182.51V123.216H180.782V119.4H190.286Z" fill="#2F2F2F"/>
</svg>
