<svg width="126" height="22" viewBox="0 0 126 22" fill="none" xmlns="http://www.w3.org/2000/svg">
<path d="M6.156 9.602C7.32 9.746 8.208 10.142 8.82 10.79C9.432 11.438 9.738 12.248 9.738 13.22C9.738 13.952 9.552 14.618 9.18 15.218C8.808 15.818 8.244 16.298 7.488 16.658C6.744 17.006 5.832 17.18 4.752 17.18C3.852 17.18 2.982 17.054 2.142 16.802C1.314 16.538 0.606 16.178 0.018 15.722L1.026 13.904C1.482 14.288 2.034 14.594 2.682 14.822C3.342 15.038 4.02 15.146 4.716 15.146C5.544 15.146 6.192 14.978 6.66 14.642C7.14 14.294 7.38 13.826 7.38 13.238C7.38 12.65 7.152 12.194 6.696 11.87C6.252 11.534 5.568 11.366 4.644 11.366H3.492V9.764L6.354 6.362H0.63V4.4H9.216V5.966L6.156 9.602ZM22.0392 10.7L24.3252 13.004L23.0832 14.318L20.7612 11.978L18.4392 14.318L17.2332 13.004L19.5012 10.7L17.2332 8.396L18.4392 7.082L20.7612 9.422L23.0832 7.082L24.3252 8.396L22.0392 10.7ZM37.091 17.18C36.083 17.18 35.183 16.928 34.391 16.424C33.599 15.908 32.975 15.164 32.519 14.192C32.063 13.208 31.835 12.044 31.835 10.7C31.835 9.356 32.063 8.198 32.519 7.226C32.975 6.242 33.599 5.498 34.391 4.994C35.183 4.478 36.083 4.22 37.091 4.22C38.099 4.22 38.999 4.478 39.791 4.994C40.595 5.498 41.225 6.242 41.681 7.226C42.137 8.198 42.365 9.356 42.365 10.7C42.365 12.044 42.137 13.208 41.681 14.192C41.225 15.164 40.595 15.908 39.791 16.424C38.999 16.928 38.099 17.18 37.091 17.18ZM37.091 15.146C37.991 15.146 38.699 14.774 39.215 14.03C39.743 13.286 40.007 12.176 40.007 10.7C40.007 9.224 39.743 8.114 39.215 7.37C38.699 6.626 37.991 6.254 37.091 6.254C36.203 6.254 35.495 6.626 34.967 7.37C34.451 8.114 34.193 9.224 34.193 10.7C34.193 12.176 34.451 13.286 34.967 14.03C35.495 14.774 36.203 15.146 37.091 15.146ZM45.1394 17.126C44.7314 17.126 44.3834 16.988 44.0954 16.712C43.8074 16.424 43.6634 16.064 43.6634 15.632C43.6634 15.188 43.8014 14.828 44.0774 14.552C44.3654 14.276 44.7194 14.138 45.1394 14.138C45.5594 14.138 45.9074 14.276 46.1834 14.552C46.4714 14.828 46.6154 15.188 46.6154 15.632C46.6154 16.064 46.4714 16.424 46.1834 16.712C45.8954 16.988 45.5474 17.126 45.1394 17.126ZM52.0719 9.278C53.8479 9.278 55.1619 9.626 56.0139 10.322C56.8659 11.006 57.2919 11.942 57.2919 13.13C57.2919 13.886 57.1059 14.57 56.7339 15.182C56.3619 15.794 55.8039 16.28 55.0599 16.64C54.3159 17 53.3979 17.18 52.3059 17.18C51.4059 17.18 50.5359 17.054 49.6959 16.802C48.8559 16.538 48.1479 16.178 47.5719 15.722L48.5619 13.904C49.0299 14.288 49.5879 14.594 50.2359 14.822C50.8959 15.038 51.5739 15.146 52.2699 15.146C53.0979 15.146 53.7459 14.978 54.2139 14.642C54.6939 14.294 54.9339 13.82 54.9339 13.22C54.9339 12.572 54.6759 12.086 54.1599 11.762C53.6559 11.426 52.7859 11.258 51.5499 11.258H48.5079L49.1559 4.4H56.5539V6.362H51.1359L50.8659 9.278H52.0719ZM62.4957 9.278C64.2717 9.278 65.5857 9.626 66.4377 10.322C67.2897 11.006 67.7157 11.942 67.7157 13.13C67.7157 13.886 67.5297 14.57 67.1577 15.182C66.7857 15.794 66.2277 16.28 65.4837 16.64C64.7397 17 63.8217 17.18 62.7297 17.18C61.8297 17.18 60.9597 17.054 60.1197 16.802C59.2797 16.538 58.5717 16.178 57.9957 15.722L58.9857 13.904C59.4537 14.288 60.0117 14.594 60.6597 14.822C61.3197 15.038 61.9977 15.146 62.6937 15.146C63.5217 15.146 64.1697 14.978 64.6377 14.642C65.1177 14.294 65.3577 13.82 65.3577 13.22C65.3577 12.572 65.0997 12.086 64.5837 11.762C64.0797 11.426 63.2097 11.258 61.9737 11.258H58.9317L59.5797 4.4H66.9777V6.362H61.5597L61.2897 9.278H62.4957ZM79.836 10.7L82.122 13.004L80.88 14.318L78.558 11.978L76.236 14.318L75.03 13.004L77.298 10.7L75.03 8.396L76.236 7.082L78.558 9.422L80.88 7.082L82.122 8.396L79.836 10.7ZM100.864 14.138H98.6318V17H96.3638V14.138H89.4518V12.518L95.6618 4.4H98.1638L92.3138 12.158H96.4358V9.62H98.6318V12.158H100.864V14.138Z" fill="#2F2F2F"/>
<path d="M113.624 7.808H124.376V9.704H113.624V7.808ZM113.624 13.496H124.376V15.392H113.624V13.496Z" fill="#2F2F2F"/>
</svg>
