<svg width="122" height="22" viewBox="0 0 122 22" fill="none" xmlns="http://www.w3.org/2000/svg">
<path d="M5.148 4.4V17H2.808V6.362H0.144V4.4H5.148ZM12.9035 17.18C11.8955 17.18 10.9955 16.928 10.2035 16.424C9.41147 15.908 8.78747 15.164 8.33147 14.192C7.87547 13.208 7.64747 12.044 7.64747 10.7C7.64747 9.356 7.87547 8.198 8.33147 7.226C8.78747 6.242 9.41147 5.498 10.2035 4.994C10.9955 4.478 11.8955 4.22 12.9035 4.22C13.9115 4.22 14.8115 4.478 15.6035 4.994C16.4075 5.498 17.0375 6.242 17.4935 7.226C17.9495 8.198 18.1775 9.356 18.1775 10.7C18.1775 12.044 17.9495 13.208 17.4935 14.192C17.0375 15.164 16.4075 15.908 15.6035 16.424C14.8115 16.928 13.9115 17.18 12.9035 17.18ZM12.9035 15.146C13.8035 15.146 14.5115 14.774 15.0275 14.03C15.5555 13.286 15.8195 12.176 15.8195 10.7C15.8195 9.224 15.5555 8.114 15.0275 7.37C14.5115 6.626 13.8035 6.254 12.9035 6.254C12.0155 6.254 11.3075 6.626 10.7795 7.37C10.2635 8.114 10.0055 9.224 10.0055 10.7C10.0055 12.176 10.2635 13.286 10.7795 14.03C11.3075 14.774 12.0155 15.146 12.9035 15.146ZM30.5294 10.7L32.8154 13.004L31.5734 14.318L29.2514 11.978L26.9294 14.318L25.7234 13.004L27.9914 10.7L25.7234 8.396L26.9294 7.082L29.2514 9.422L31.5734 7.082L32.8154 8.396L30.5294 10.7ZM49.8292 4.4V5.966L44.9332 17H42.4312L47.1652 6.38H42.2152V8.522H40.0372V4.4H49.8292ZM51.7839 17.126C51.3759 17.126 51.0279 16.988 50.7399 16.712C50.4519 16.424 50.3079 16.064 50.3079 15.632C50.3079 15.188 50.4459 14.828 50.7219 14.552C51.0099 14.276 51.3639 14.138 51.7839 14.138C52.2039 14.138 52.5519 14.276 52.8279 14.552C53.1159 14.828 53.2599 15.188 53.2599 15.632C53.2599 16.064 53.1159 16.424 52.8279 16.712C52.5399 16.988 52.1919 17.126 51.7839 17.126ZM60.3142 9.602C61.4782 9.746 62.3662 10.142 62.9782 10.79C63.5902 11.438 63.8962 12.248 63.8962 13.22C63.8962 13.952 63.7102 14.618 63.3382 15.218C62.9662 15.818 62.4022 16.298 61.6462 16.658C60.9022 17.006 59.9902 17.18 58.9102 17.18C58.0102 17.18 57.1402 17.054 56.3002 16.802C55.4722 16.538 54.7642 16.178 54.1762 15.722L55.1842 13.904C55.6402 14.288 56.1922 14.594 56.8402 14.822C57.5002 15.038 58.1782 15.146 58.8742 15.146C59.7022 15.146 60.3502 14.978 60.8182 14.642C61.2982 14.294 61.5382 13.826 61.5382 13.238C61.5382 12.65 61.3102 12.194 60.8542 11.87C60.4102 11.534 59.7262 11.366 58.8022 11.366H57.6502V9.764L60.5122 6.362H54.7882V4.4H63.3742V5.966L60.3142 9.602ZM76.1974 10.7L78.4834 13.004L77.2414 14.318L74.9194 11.978L72.5974 14.318L71.3914 13.004L73.6594 10.7L71.3914 8.396L72.5974 7.082L74.9194 9.422L77.2414 7.082L78.4834 8.396L76.1974 10.7ZM97.2252 14.138H94.9932V17H92.7252V14.138H85.8132V12.518L92.0232 4.4H94.5252L88.6752 12.158H92.7972V9.62H94.9932V12.158H97.2252V14.138Z" fill="#2F2F2F"/>
<path d="M109.624 7.808H120.376V9.704H109.624V7.808ZM109.624 13.496H120.376V15.392H109.624V13.496Z" fill="#2F2F2F"/>
</svg>
