<svg width="128" height="22" viewBox="0 0 128 22" fill="none" xmlns="http://www.w3.org/2000/svg">
<path d="M4.734 9.278C6.51 9.278 7.824 9.626 8.676 10.322C9.528 11.006 9.954 11.942 9.954 13.13C9.954 13.886 9.768 14.57 9.396 15.182C9.024 15.794 8.466 16.28 7.722 16.64C6.978 17 6.06 17.18 4.968 17.18C4.068 17.18 3.198 17.054 2.358 16.802C1.518 16.538 0.81 16.178 0.234 15.722L1.224 13.904C1.692 14.288 2.25 14.594 2.898 14.822C3.558 15.038 4.236 15.146 4.932 15.146C5.76 15.146 6.408 14.978 6.876 14.642C7.356 14.294 7.596 13.82 7.596 13.22C7.596 12.572 7.338 12.086 6.822 11.762C6.318 11.426 5.448 11.258 4.212 11.258H1.17L1.818 4.4H9.216V6.362H3.798L3.528 9.278H4.734ZM22.0743 10.7L24.3603 13.004L23.1183 14.318L20.7963 11.978L18.4743 14.318L17.2683 13.004L19.5363 10.7L17.2683 8.396L18.4743 7.082L20.7963 9.422L23.1183 7.082L24.3603 8.396L22.0743 10.7ZM43.1021 14.138H40.8701V17H38.6021V14.138H31.6901V12.518L37.9001 4.4H40.4021L34.5521 12.158H38.6741V9.62H40.8701V12.158H43.1021V14.138ZM45.8425 17.126C45.4345 17.126 45.0865 16.988 44.7985 16.712C44.5105 16.424 44.3665 16.064 44.3665 15.632C44.3665 15.188 44.5045 14.828 44.7805 14.552C45.0685 14.276 45.4225 14.138 45.8425 14.138C46.2625 14.138 46.6105 14.276 46.8865 14.552C47.1745 14.828 47.3185 15.188 47.3185 15.632C47.3185 16.064 47.1745 16.424 46.8865 16.712C46.5985 16.988 46.2505 17.126 45.8425 17.126ZM53.8781 17.18C52.8701 17.18 51.9701 16.928 51.1781 16.424C50.3861 15.908 49.7621 15.164 49.3061 14.192C48.8501 13.208 48.6221 12.044 48.6221 10.7C48.6221 9.356 48.8501 8.198 49.3061 7.226C49.7621 6.242 50.3861 5.498 51.1781 4.994C51.9701 4.478 52.8701 4.22 53.8781 4.22C54.8861 4.22 55.7861 4.478 56.5781 4.994C57.3821 5.498 58.0121 6.242 58.4681 7.226C58.9241 8.198 59.1521 9.356 59.1521 10.7C59.1521 12.044 58.9241 13.208 58.4681 14.192C58.0121 15.164 57.3821 15.908 56.5781 16.424C55.7861 16.928 54.8861 17.18 53.8781 17.18ZM53.8781 15.146C54.7781 15.146 55.4861 14.774 56.0021 14.03C56.5301 13.286 56.7941 12.176 56.7941 10.7C56.7941 9.224 56.5301 8.114 56.0021 7.37C55.4861 6.626 54.7781 6.254 53.8781 6.254C52.9901 6.254 52.2821 6.626 51.7541 7.37C51.2381 8.114 50.9801 9.224 50.9801 10.7C50.9801 12.176 51.2381 13.286 51.7541 14.03C52.2821 14.774 52.9901 15.146 53.8781 15.146ZM64.9814 4.22C66.7094 4.22 68.0474 4.76 68.9954 5.84C69.9554 6.92 70.4354 8.468 70.4354 10.484C70.4354 11.9 70.1774 13.112 69.6614 14.12C69.1454 15.116 68.4194 15.878 67.4834 16.406C66.5594 16.922 65.4854 17.18 64.2614 17.18C63.6134 17.18 63.0014 17.114 62.4254 16.982C61.8614 16.838 61.3694 16.634 60.9494 16.37L61.8134 14.606C62.4374 15.014 63.2354 15.218 64.2074 15.218C65.4194 15.218 66.3674 14.846 67.0514 14.102C67.7354 13.358 68.0774 12.284 68.0774 10.88V10.862C67.7054 11.294 67.2314 11.624 66.6554 11.852C66.0794 12.068 65.4314 12.176 64.7114 12.176C63.8834 12.176 63.1394 12.02 62.4794 11.708C61.8194 11.384 61.3034 10.928 60.9314 10.34C60.5594 9.752 60.3734 9.074 60.3734 8.306C60.3734 7.49 60.5774 6.776 60.9854 6.164C61.3934 5.54 61.9454 5.06 62.6414 4.724C63.3374 4.388 64.1174 4.22 64.9814 4.22ZM65.1614 10.34C65.9174 10.34 66.5294 10.136 66.9974 9.728C67.4774 9.32 67.7174 8.804 67.7174 8.18C67.7174 7.568 67.4834 7.064 67.0154 6.668C66.5594 6.26 65.9234 6.056 65.1074 6.056C64.3754 6.056 63.7814 6.254 63.3254 6.65C62.8694 7.034 62.6414 7.55 62.6414 8.198C62.6414 8.858 62.8694 9.38 63.3254 9.764C63.7814 10.148 64.3934 10.34 65.1614 10.34ZM82.7892 10.7L85.0752 13.004L83.8332 14.318L81.5112 11.978L79.1892 14.318L77.9832 13.004L80.2512 10.7L77.9832 8.396L79.1892 7.082L81.5112 9.422L83.8332 7.082L85.0752 8.396L82.7892 10.7ZM98.309 9.224C99.137 9.224 99.881 9.386 100.541 9.71C101.201 10.022 101.717 10.472 102.089 11.06C102.461 11.648 102.647 12.326 102.647 13.094C102.647 13.91 102.443 14.63 102.035 15.254C101.627 15.866 101.075 16.34 100.379 16.676C99.683 17.012 98.903 17.18 98.039 17.18C96.311 17.18 94.967 16.64 94.007 15.56C93.059 14.48 92.585 12.932 92.585 10.916C92.585 9.5 92.843 8.294 93.359 7.298C93.875 6.29 94.595 5.528 95.519 5.012C96.455 4.484 97.535 4.22 98.759 4.22C99.407 4.22 100.013 4.292 100.577 4.436C101.153 4.568 101.651 4.766 102.071 5.03L101.207 6.794C100.583 6.386 99.785 6.182 98.813 6.182C97.601 6.182 96.653 6.554 95.969 7.298C95.285 8.042 94.943 9.116 94.943 10.52V10.538C95.315 10.106 95.789 9.782 96.365 9.566C96.941 9.338 97.589 9.224 98.309 9.224ZM97.913 15.344C98.645 15.344 99.239 15.152 99.695 14.768C100.151 14.372 100.379 13.85 100.379 13.202C100.379 12.542 100.151 12.02 99.695 11.636C99.239 11.252 98.627 11.06 97.859 11.06C97.103 11.06 96.485 11.264 96.005 11.672C95.537 12.08 95.303 12.596 95.303 13.22C95.303 13.832 95.531 14.342 95.987 14.75C96.455 15.146 97.097 15.344 97.913 15.344Z" fill="#2F2F2F"/>
<path d="M115.624 7.808H126.376V9.704H115.624V7.808ZM115.624 13.496H126.376V15.392H115.624V13.496Z" fill="#2F2F2F"/>
</svg>
