<svg width="810" height="102" viewBox="0 0 810 102" fill="none" xmlns="http://www.w3.org/2000/svg">
<path d="M463.399 8.256C465.091 8.256 466.393 8.802 467.305 9.894C468.229 10.986 468.691 12.534 468.691 14.538C468.691 15.942 468.439 17.142 467.935 18.138C467.443 19.122 466.747 19.872 465.847 20.388C464.959 20.892 463.921 21.144 462.733 21.144C462.121 21.144 461.545 21.084 461.005 20.964C460.465 20.832 459.997 20.646 459.601 20.406L460.285 19.002C460.897 19.398 461.707 19.596 462.715 19.596C464.023 19.596 465.043 19.194 465.775 18.39C466.519 17.574 466.891 16.392 466.891 14.844V14.394C466.531 14.934 466.033 15.348 465.397 15.636C464.761 15.912 464.047 16.05 463.255 16.05C462.427 16.05 461.683 15.894 461.023 15.582C460.375 15.27 459.865 14.826 459.493 14.25C459.133 13.662 458.953 12.99 458.953 12.234C458.953 11.442 459.145 10.746 459.529 10.146C459.925 9.546 460.459 9.084 461.131 8.76C461.803 8.424 462.559 8.256 463.399 8.256ZM463.561 14.592C464.125 14.592 464.629 14.484 465.073 14.268C465.517 14.052 465.859 13.758 466.099 13.386C466.351 13.014 466.477 12.6 466.477 12.144C466.477 11.7 466.357 11.298 466.117 10.938C465.889 10.566 465.547 10.272 465.091 10.056C464.647 9.828 464.107 9.714 463.471 9.714C462.643 9.714 461.971 9.936 461.455 10.38C460.951 10.824 460.699 11.418 460.699 12.162C460.699 12.906 460.957 13.5 461.473 13.944C461.989 14.376 462.685 14.592 463.561 14.592ZM487.965 11.37C489.165 11.37 490.113 11.718 490.809 12.414C491.517 13.11 491.871 14.142 491.871 15.51V21H490.143V15.708C490.143 14.784 489.927 14.088 489.495 13.62C489.075 13.152 488.469 12.918 487.677 12.918C486.801 12.918 486.105 13.194 485.589 13.746C485.073 14.286 484.815 15.066 484.815 16.086V21H483.087V15.708C483.087 14.784 482.871 14.088 482.439 13.62C482.019 13.152 481.413 12.918 480.621 12.918C479.745 12.918 479.049 13.194 478.533 13.746C478.017 14.286 477.759 15.066 477.759 16.086V21H476.031V11.46H477.687V12.882C478.035 12.39 478.491 12.018 479.055 11.766C479.619 11.502 480.261 11.37 480.981 11.37C481.725 11.37 482.385 11.52 482.961 11.82C483.537 12.12 483.981 12.558 484.293 13.134C484.653 12.582 485.151 12.15 485.787 11.838C486.435 11.526 487.161 11.37 487.965 11.37ZM495.05 11.46H496.778V21H495.05V11.46ZM495.914 9.624C495.578 9.624 495.296 9.516 495.068 9.3C494.852 9.084 494.744 8.82 494.744 8.508C494.744 8.196 494.852 7.932 495.068 7.716C495.296 7.488 495.578 7.374 495.914 7.374C496.25 7.374 496.526 7.482 496.742 7.698C496.97 7.902 497.084 8.16 497.084 8.472C497.084 8.796 496.97 9.072 496.742 9.3C496.526 9.516 496.25 9.624 495.914 9.624ZM505.171 11.37C506.383 11.37 507.343 11.724 508.051 12.432C508.771 13.128 509.131 14.154 509.131 15.51V21H507.403V15.708C507.403 14.784 507.181 14.088 506.737 13.62C506.293 13.152 505.657 12.918 504.829 12.918C503.893 12.918 503.155 13.194 502.615 13.746C502.075 14.286 501.805 15.066 501.805 16.086V21H500.077V11.46H501.733V12.9C502.081 12.408 502.549 12.03 503.137 11.766C503.737 11.502 504.415 11.37 505.171 11.37ZM521.221 11.46V21H519.583V19.56C519.235 20.052 518.773 20.436 518.197 20.712C517.633 20.976 517.015 21.108 516.343 21.108C515.071 21.108 514.069 20.76 513.337 20.064C512.605 19.356 512.239 18.318 512.239 16.95V11.46H513.967V16.752C513.967 17.676 514.189 18.378 514.633 18.858C515.077 19.326 515.713 19.56 516.541 19.56C517.453 19.56 518.173 19.284 518.701 18.732C519.229 18.18 519.493 17.4 519.493 16.392V11.46H521.221ZM529.875 20.442C529.623 20.658 529.311 20.826 528.939 20.946C528.567 21.054 528.183 21.108 527.787 21.108C526.827 21.108 526.083 20.85 525.555 20.334C525.027 19.818 524.763 19.08 524.763 18.12V12.882H523.143V11.46H524.763V9.372H526.491V11.46H529.227V12.882H526.491V18.048C526.491 18.564 526.617 18.96 526.869 19.236C527.133 19.512 527.505 19.65 527.985 19.65C528.513 19.65 528.963 19.5 529.335 19.2L529.875 20.442ZM540.27 16.284C540.27 16.416 540.258 16.59 540.234 16.806H532.494C532.602 17.646 532.968 18.324 533.592 18.84C534.228 19.344 535.014 19.596 535.95 19.596C537.09 19.596 538.008 19.212 538.704 18.444L539.658 19.56C539.226 20.064 538.686 20.448 538.038 20.712C537.402 20.976 536.688 21.108 535.896 21.108C534.888 21.108 533.994 20.904 533.214 20.496C532.434 20.076 531.828 19.494 531.396 18.75C530.976 18.006 530.766 17.166 530.766 16.23C530.766 15.306 530.97 14.472 531.378 13.728C531.798 12.984 532.368 12.408 533.088 12C533.82 11.58 534.642 11.37 535.554 11.37C536.466 11.37 537.276 11.58 537.984 12C538.704 12.408 539.262 12.984 539.658 13.728C540.066 14.472 540.27 15.324 540.27 16.284ZM535.554 12.828C534.726 12.828 534.03 13.08 533.466 13.584C532.914 14.088 532.59 14.748 532.494 15.564H538.614C538.518 14.76 538.188 14.106 537.624 13.602C537.072 13.086 536.382 12.828 535.554 12.828ZM545.405 21.108C544.625 21.108 543.875 21.006 543.155 20.802C542.435 20.586 541.871 20.316 541.463 19.992L542.183 18.624C542.603 18.924 543.113 19.164 543.713 19.344C544.313 19.524 544.919 19.614 545.531 19.614C547.043 19.614 547.799 19.182 547.799 18.318C547.799 18.03 547.697 17.802 547.493 17.634C547.289 17.466 547.031 17.346 546.719 17.274C546.419 17.19 545.987 17.1 545.423 17.004C544.655 16.884 544.025 16.746 543.533 16.59C543.053 16.434 542.639 16.17 542.291 15.798C541.943 15.426 541.769 14.904 541.769 14.232C541.769 13.368 542.129 12.678 542.849 12.162C543.569 11.634 544.535 11.37 545.747 11.37C546.383 11.37 547.019 11.448 547.655 11.604C548.291 11.76 548.813 11.97 549.221 12.234L548.483 13.602C547.703 13.098 546.785 12.846 545.729 12.846C544.997 12.846 544.439 12.966 544.055 13.206C543.671 13.446 543.479 13.764 543.479 14.16C543.479 14.472 543.587 14.718 543.803 14.898C544.019 15.078 544.283 15.21 544.595 15.294C544.919 15.378 545.369 15.474 545.945 15.582C546.713 15.714 547.331 15.858 547.799 16.014C548.279 16.158 548.687 16.41 549.023 16.77C549.359 17.13 549.527 17.634 549.527 18.282C549.527 19.146 549.155 19.836 548.411 20.352C547.679 20.856 546.677 21.108 545.405 21.108ZM559.653 8.4V21H557.871V9.966H555.027V8.4H559.653ZM566.315 8.4V21H564.533V9.966H561.689V8.4H566.315ZM577.415 21.108C576.635 21.108 575.885 21.006 575.165 20.802C574.445 20.586 573.881 20.316 573.473 19.992L574.193 18.624C574.613 18.924 575.123 19.164 575.723 19.344C576.323 19.524 576.929 19.614 577.541 19.614C579.053 19.614 579.809 19.182 579.809 18.318C579.809 18.03 579.707 17.802 579.503 17.634C579.299 17.466 579.041 17.346 578.729 17.274C578.429 17.19 577.997 17.1 577.433 17.004C576.665 16.884 576.035 16.746 575.543 16.59C575.063 16.434 574.649 16.17 574.301 15.798C573.953 15.426 573.779 14.904 573.779 14.232C573.779 13.368 574.139 12.678 574.859 12.162C575.579 11.634 576.545 11.37 577.757 11.37C578.393 11.37 579.029 11.448 579.665 11.604C580.301 11.76 580.823 11.97 581.231 12.234L580.493 13.602C579.713 13.098 578.795 12.846 577.739 12.846C577.007 12.846 576.449 12.966 576.065 13.206C575.681 13.446 575.489 13.764 575.489 14.16C575.489 14.472 575.597 14.718 575.813 14.898C576.029 15.078 576.293 15.21 576.605 15.294C576.929 15.378 577.379 15.474 577.955 15.582C578.723 15.714 579.341 15.858 579.809 16.014C580.289 16.158 580.697 16.41 581.033 16.77C581.369 17.13 581.537 17.634 581.537 18.282C581.537 19.146 581.165 19.836 580.421 20.352C579.689 20.856 578.687 21.108 577.415 21.108ZM592.319 16.284C592.319 16.416 592.307 16.59 592.283 16.806H584.543C584.651 17.646 585.017 18.324 585.641 18.84C586.277 19.344 587.063 19.596 587.999 19.596C589.139 19.596 590.057 19.212 590.753 18.444L591.707 19.56C591.275 20.064 590.735 20.448 590.087 20.712C589.451 20.976 588.737 21.108 587.945 21.108C586.937 21.108 586.043 20.904 585.263 20.496C584.483 20.076 583.877 19.494 583.445 18.75C583.025 18.006 582.815 17.166 582.815 16.23C582.815 15.306 583.019 14.472 583.427 13.728C583.847 12.984 584.417 12.408 585.137 12C585.869 11.58 586.691 11.37 587.603 11.37C588.515 11.37 589.325 11.58 590.033 12C590.753 12.408 591.311 12.984 591.707 13.728C592.115 14.472 592.319 15.324 592.319 16.284ZM587.603 12.828C586.775 12.828 586.079 13.08 585.515 13.584C584.963 14.088 584.639 14.748 584.543 15.564H590.663C590.567 14.76 590.237 14.106 589.673 13.602C589.121 13.086 588.431 12.828 587.603 12.828ZM598.876 21.108C597.904 21.108 597.034 20.898 596.266 20.478C595.51 20.058 594.916 19.482 594.484 18.75C594.052 18.006 593.836 17.166 593.836 16.23C593.836 15.294 594.052 14.46 594.484 13.728C594.916 12.984 595.51 12.408 596.266 12C597.034 11.58 597.904 11.37 598.876 11.37C599.74 11.37 600.508 11.544 601.18 11.892C601.864 12.24 602.392 12.744 602.764 13.404L601.45 14.25C601.15 13.794 600.778 13.452 600.334 13.224C599.89 12.996 599.398 12.882 598.858 12.882C598.234 12.882 597.67 13.02 597.166 13.296C596.674 13.572 596.284 13.968 595.996 14.484C595.72 14.988 595.582 15.57 595.582 16.23C595.582 16.902 595.72 17.496 595.996 18.012C596.284 18.516 596.674 18.906 597.166 19.182C597.67 19.458 598.234 19.596 598.858 19.596C599.398 19.596 599.89 19.482 600.334 19.254C600.778 19.026 601.15 18.684 601.45 18.228L602.764 19.056C602.392 19.716 601.864 20.226 601.18 20.586C600.508 20.934 599.74 21.108 598.876 21.108ZM608.947 21.108C607.999 21.108 607.147 20.898 606.391 20.478C605.635 20.058 605.041 19.482 604.609 18.75C604.189 18.006 603.979 17.166 603.979 16.23C603.979 15.294 604.189 14.46 604.609 13.728C605.041 12.984 605.635 12.408 606.391 12C607.147 11.58 607.999 11.37 608.947 11.37C609.895 11.37 610.741 11.58 611.485 12C612.241 12.408 612.829 12.984 613.249 13.728C613.681 14.46 613.897 15.294 613.897 16.23C613.897 17.166 613.681 18.006 613.249 18.75C612.829 19.482 612.241 20.058 611.485 20.478C610.741 20.898 609.895 21.108 608.947 21.108ZM608.947 19.596C609.559 19.596 610.105 19.458 610.585 19.182C611.077 18.894 611.461 18.498 611.737 17.994C612.013 17.478 612.151 16.89 612.151 16.23C612.151 15.57 612.013 14.988 611.737 14.484C611.461 13.968 611.077 13.572 610.585 13.296C610.105 13.02 609.559 12.882 608.947 12.882C608.335 12.882 607.783 13.02 607.291 13.296C606.811 13.572 606.427 13.968 606.139 14.484C605.863 14.988 605.725 15.57 605.725 16.23C605.725 16.89 605.863 17.478 606.139 17.994C606.427 18.498 606.811 18.894 607.291 19.182C607.783 19.458 608.335 19.596 608.947 19.596ZM621.38 11.37C622.592 11.37 623.552 11.724 624.26 12.432C624.98 13.128 625.34 14.154 625.34 15.51V21H623.612V15.708C623.612 14.784 623.39 14.088 622.946 13.62C622.502 13.152 621.866 12.918 621.038 12.918C620.102 12.918 619.364 13.194 618.824 13.746C618.284 14.286 618.014 15.066 618.014 16.086V21H616.286V11.46H617.942V12.9C618.29 12.408 618.758 12.03 619.346 11.766C619.946 11.502 620.624 11.37 621.38 11.37ZM637.591 7.644V21H635.935V19.488C635.551 20.016 635.065 20.418 634.477 20.694C633.889 20.97 633.241 21.108 632.533 21.108C631.609 21.108 630.781 20.904 630.049 20.496C629.317 20.088 628.741 19.518 628.321 18.786C627.913 18.042 627.709 17.19 627.709 16.23C627.709 15.27 627.913 14.424 628.321 13.692C628.741 12.96 629.317 12.39 630.049 11.982C630.781 11.574 631.609 11.37 632.533 11.37C633.217 11.37 633.847 11.502 634.423 11.766C634.999 12.018 635.479 12.396 635.863 12.9V7.644H637.591ZM632.677 19.596C633.277 19.596 633.823 19.458 634.315 19.182C634.807 18.894 635.191 18.498 635.467 17.994C635.743 17.478 635.881 16.89 635.881 16.23C635.881 15.57 635.743 14.988 635.467 14.484C635.191 13.968 634.807 13.572 634.315 13.296C633.823 13.02 633.277 12.882 632.677 12.882C632.065 12.882 631.513 13.02 631.021 13.296C630.541 13.572 630.157 13.968 629.869 14.484C629.593 14.988 629.455 15.57 629.455 16.23C629.455 16.89 629.593 17.478 629.869 17.994C630.157 18.498 630.541 18.894 631.021 19.182C631.513 19.458 632.065 19.596 632.677 19.596ZM643.597 21.108C642.817 21.108 642.067 21.006 641.347 20.802C640.627 20.586 640.063 20.316 639.655 19.992L640.375 18.624C640.795 18.924 641.305 19.164 641.905 19.344C642.505 19.524 643.111 19.614 643.723 19.614C645.235 19.614 645.991 19.182 645.991 18.318C645.991 18.03 645.889 17.802 645.685 17.634C645.481 17.466 645.223 17.346 644.911 17.274C644.611 17.19 644.179 17.1 643.615 17.004C642.847 16.884 642.217 16.746 641.725 16.59C641.245 16.434 640.831 16.17 640.483 15.798C640.135 15.426 639.961 14.904 639.961 14.232C639.961 13.368 640.321 12.678 641.041 12.162C641.761 11.634 642.727 11.37 643.939 11.37C644.575 11.37 645.211 11.448 645.847 11.604C646.483 11.76 647.005 11.97 647.413 12.234L646.675 13.602C645.895 13.098 644.977 12.846 643.921 12.846C643.189 12.846 642.631 12.966 642.247 13.206C641.863 13.446 641.671 13.764 641.671 14.16C641.671 14.472 641.779 14.718 641.995 14.898C642.211 15.078 642.475 15.21 642.787 15.294C643.111 15.378 643.561 15.474 644.137 15.582C644.905 15.714 645.523 15.858 645.991 16.014C646.471 16.158 646.879 16.41 647.215 16.77C647.551 17.13 647.719 17.634 647.719 18.282C647.719 19.146 647.347 19.836 646.603 20.352C645.871 20.856 644.869 21.108 643.597 21.108ZM654.28 11.856H662.344V13.278H654.28V11.856ZM654.28 16.122H662.344V17.544H654.28V16.122Z" fill="#2F2F2F"/>
<path d="M685.842 13.422C687.642 13.422 688.962 13.764 689.802 14.448C690.654 15.12 691.08 16.044 691.08 17.22C691.08 17.964 690.9 18.636 690.54 19.236C690.192 19.824 689.658 20.292 688.938 20.64C688.23 20.976 687.354 21.144 686.31 21.144C685.422 21.144 684.564 21.012 683.736 20.748C682.908 20.472 682.224 20.094 681.684 19.614L682.512 18.192C682.944 18.6 683.496 18.93 684.168 19.182C684.84 19.422 685.548 19.542 686.292 19.542C687.24 19.542 687.972 19.344 688.488 18.948C689.016 18.54 689.28 17.988 689.28 17.292C689.28 16.536 688.992 15.966 688.416 15.582C687.84 15.186 686.856 14.988 685.464 14.988H682.602L683.268 8.4H690.378V9.966H684.78L684.438 13.422H685.842ZM703.54 17.904H701.146V21H699.4V17.904H692.398V16.644L698.842 8.4H700.786L694.612 16.356H699.454V13.62H701.146V16.356H703.54V17.904ZM708.068 8.4V21H706.286V9.966H703.442V8.4H708.068ZM714.73 8.4V21H712.948V9.966H710.104V8.4H714.73Z" fill="#2F2F2F"/>
<path d="M679 1H719V-1H679V1ZM723 5V25H725V5H723ZM719 29H679V31H719V29ZM675 25V5H673V25H675ZM679 29C676.791 29 675 27.2091 675 25H673C673 28.3137 675.686 31 679 31V29ZM723 25C723 27.2091 721.209 29 719 29V31C722.314 31 725 28.3137 725 25H723ZM719 1C721.209 1 723 2.79086 723 5H725C725 1.68629 722.314 -1 719 -1V1ZM679 -1C675.686 -1 673 1.68629 673 5H675C675 2.79086 676.791 1 679 1V-1Z" fill="#2F2F2F"/>
<path d="M738.774 21.108C737.994 21.108 737.244 21.006 736.524 20.802C735.804 20.586 735.24 20.316 734.832 19.992L735.552 18.624C735.972 18.924 736.482 19.164 737.082 19.344C737.682 19.524 738.288 19.614 738.9 19.614C740.412 19.614 741.168 19.182 741.168 18.318C741.168 18.03 741.066 17.802 740.862 17.634C740.658 17.466 740.4 17.346 740.088 17.274C739.788 17.19 739.356 17.1 738.792 17.004C738.024 16.884 737.394 16.746 736.902 16.59C736.422 16.434 736.008 16.17 735.66 15.798C735.312 15.426 735.138 14.904 735.138 14.232C735.138 13.368 735.498 12.678 736.218 12.162C736.938 11.634 737.904 11.37 739.116 11.37C739.752 11.37 740.388 11.448 741.024 11.604C741.66 11.76 742.182 11.97 742.59 12.234L741.852 13.602C741.072 13.098 740.154 12.846 739.098 12.846C738.366 12.846 737.808 12.966 737.424 13.206C737.04 13.446 736.848 13.764 736.848 14.16C736.848 14.472 736.956 14.718 737.172 14.898C737.388 15.078 737.652 15.21 737.964 15.294C738.288 15.378 738.738 15.474 739.314 15.582C740.082 15.714 740.7 15.858 741.168 16.014C741.648 16.158 742.056 16.41 742.392 16.77C742.728 17.13 742.896 17.634 742.896 18.282C742.896 19.146 742.524 19.836 741.78 20.352C741.048 20.856 740.046 21.108 738.774 21.108ZM753.678 16.284C753.678 16.416 753.666 16.59 753.642 16.806H745.902C746.01 17.646 746.376 18.324 747 18.84C747.636 19.344 748.422 19.596 749.358 19.596C750.498 19.596 751.416 19.212 752.112 18.444L753.066 19.56C752.634 20.064 752.094 20.448 751.446 20.712C750.81 20.976 750.096 21.108 749.304 21.108C748.296 21.108 747.402 20.904 746.622 20.496C745.842 20.076 745.236 19.494 744.804 18.75C744.384 18.006 744.174 17.166 744.174 16.23C744.174 15.306 744.378 14.472 744.786 13.728C745.206 12.984 745.776 12.408 746.496 12C747.228 11.58 748.05 11.37 748.962 11.37C749.874 11.37 750.684 11.58 751.392 12C752.112 12.408 752.67 12.984 753.066 13.728C753.474 14.472 753.678 15.324 753.678 16.284ZM748.962 12.828C748.134 12.828 747.438 13.08 746.874 13.584C746.322 14.088 745.998 14.748 745.902 15.564H752.022C751.926 14.76 751.596 14.106 751.032 13.602C750.48 13.086 749.79 12.828 748.962 12.828ZM760.235 21.108C759.263 21.108 758.393 20.898 757.625 20.478C756.869 20.058 756.275 19.482 755.843 18.75C755.411 18.006 755.195 17.166 755.195 16.23C755.195 15.294 755.411 14.46 755.843 13.728C756.275 12.984 756.869 12.408 757.625 12C758.393 11.58 759.263 11.37 760.235 11.37C761.099 11.37 761.867 11.544 762.539 11.892C763.223 12.24 763.751 12.744 764.123 13.404L762.809 14.25C762.509 13.794 762.137 13.452 761.693 13.224C761.249 12.996 760.757 12.882 760.217 12.882C759.593 12.882 759.029 13.02 758.525 13.296C758.033 13.572 757.643 13.968 757.355 14.484C757.079 14.988 756.941 15.57 756.941 16.23C756.941 16.902 757.079 17.496 757.355 18.012C757.643 18.516 758.033 18.906 758.525 19.182C759.029 19.458 759.593 19.596 760.217 19.596C760.757 19.596 761.249 19.482 761.693 19.254C762.137 19.026 762.509 18.684 762.809 18.228L764.123 19.056C763.751 19.716 763.223 20.226 762.539 20.586C761.867 20.934 761.099 21.108 760.235 21.108ZM770.306 21.108C769.358 21.108 768.506 20.898 767.75 20.478C766.994 20.058 766.4 19.482 765.968 18.75C765.548 18.006 765.338 17.166 765.338 16.23C765.338 15.294 765.548 14.46 765.968 13.728C766.4 12.984 766.994 12.408 767.75 12C768.506 11.58 769.358 11.37 770.306 11.37C771.254 11.37 772.1 11.58 772.844 12C773.6 12.408 774.188 12.984 774.608 13.728C775.04 14.46 775.256 15.294 775.256 16.23C775.256 17.166 775.04 18.006 774.608 18.75C774.188 19.482 773.6 20.058 772.844 20.478C772.1 20.898 771.254 21.108 770.306 21.108ZM770.306 19.596C770.918 19.596 771.464 19.458 771.944 19.182C772.436 18.894 772.82 18.498 773.096 17.994C773.372 17.478 773.51 16.89 773.51 16.23C773.51 15.57 773.372 14.988 773.096 14.484C772.82 13.968 772.436 13.572 771.944 13.296C771.464 13.02 770.918 12.882 770.306 12.882C769.694 12.882 769.142 13.02 768.65 13.296C768.17 13.572 767.786 13.968 767.498 14.484C767.222 14.988 767.084 15.57 767.084 16.23C767.084 16.89 767.222 17.478 767.498 17.994C767.786 18.498 768.17 18.894 768.65 19.182C769.142 19.458 769.694 19.596 770.306 19.596ZM782.74 11.37C783.952 11.37 784.912 11.724 785.62 12.432C786.34 13.128 786.7 14.154 786.7 15.51V21H784.972V15.708C784.972 14.784 784.75 14.088 784.306 13.62C783.862 13.152 783.226 12.918 782.398 12.918C781.462 12.918 780.724 13.194 780.184 13.746C779.644 14.286 779.374 15.066 779.374 16.086V21H777.646V11.46H779.302V12.9C779.65 12.408 780.118 12.03 780.706 11.766C781.306 11.502 781.984 11.37 782.74 11.37ZM798.951 7.644V21H797.295V19.488C796.911 20.016 796.425 20.418 795.837 20.694C795.249 20.97 794.601 21.108 793.893 21.108C792.969 21.108 792.141 20.904 791.409 20.496C790.677 20.088 790.101 19.518 789.681 18.786C789.273 18.042 789.069 17.19 789.069 16.23C789.069 15.27 789.273 14.424 789.681 13.692C790.101 12.96 790.677 12.39 791.409 11.982C792.141 11.574 792.969 11.37 793.893 11.37C794.577 11.37 795.207 11.502 795.783 11.766C796.359 12.018 796.839 12.396 797.223 12.9V7.644H798.951ZM794.037 19.596C794.637 19.596 795.183 19.458 795.675 19.182C796.167 18.894 796.551 18.498 796.827 17.994C797.103 17.478 797.241 16.89 797.241 16.23C797.241 15.57 797.103 14.988 796.827 14.484C796.551 13.968 796.167 13.572 795.675 13.296C795.183 13.02 794.637 12.882 794.037 12.882C793.425 12.882 792.873 13.02 792.381 13.296C791.901 13.572 791.517 13.968 791.229 14.484C790.953 14.988 790.815 15.57 790.815 16.23C790.815 16.89 790.953 17.478 791.229 17.994C791.517 18.498 791.901 18.894 792.381 19.182C792.873 19.458 793.425 19.596 794.037 19.596ZM804.956 21.108C804.176 21.108 803.426 21.006 802.706 20.802C801.986 20.586 801.422 20.316 801.014 19.992L801.734 18.624C802.154 18.924 802.664 19.164 803.264 19.344C803.864 19.524 804.47 19.614 805.082 19.614C806.594 19.614 807.35 19.182 807.35 18.318C807.35 18.03 807.248 17.802 807.044 17.634C806.84 17.466 806.582 17.346 806.27 17.274C805.97 17.19 805.538 17.1 804.974 17.004C804.206 16.884 803.576 16.746 803.084 16.59C802.604 16.434 802.19 16.17 801.842 15.798C801.494 15.426 801.32 14.904 801.32 14.232C801.32 13.368 801.68 12.678 802.4 12.162C803.12 11.634 804.086 11.37 805.298 11.37C805.934 11.37 806.57 11.448 807.206 11.604C807.842 11.76 808.364 11.97 808.772 12.234L808.034 13.602C807.254 13.098 806.336 12.846 805.28 12.846C804.548 12.846 803.99 12.966 803.606 13.206C803.222 13.446 803.03 13.764 803.03 14.16C803.03 14.472 803.138 14.718 803.354 14.898C803.57 15.078 803.834 15.21 804.146 15.294C804.47 15.378 804.92 15.474 805.496 15.582C806.264 15.714 806.882 15.858 807.35 16.014C807.83 16.158 808.238 16.41 808.574 16.77C808.91 17.13 809.078 17.634 809.078 18.282C809.078 19.146 808.706 19.836 807.962 20.352C807.23 20.856 806.228 21.108 804.956 21.108Z" fill="#2F2F2F"/>
<path d="M462.922 85.422C464.722 85.422 466.042 85.764 466.882 86.448C467.734 87.12 468.16 88.044 468.16 89.22C468.16 89.964 467.98 90.636 467.62 91.236C467.272 91.824 466.738 92.292 466.018 92.64C465.31 92.976 464.434 93.144 463.39 93.144C462.502 93.144 461.644 93.012 460.816 92.748C459.988 92.472 459.304 92.094 458.764 91.614L459.592 90.192C460.024 90.6 460.576 90.93 461.248 91.182C461.92 91.422 462.628 91.542 463.372 91.542C464.32 91.542 465.052 91.344 465.568 90.948C466.096 90.54 466.36 89.988 466.36 89.292C466.36 88.536 466.072 87.966 465.496 87.582C464.92 87.186 463.936 86.988 462.544 86.988H459.682L460.348 80.4H467.458V81.966H461.86L461.518 85.422H462.922ZM484.266 79.644V93H482.61V91.488C482.226 92.016 481.74 92.418 481.152 92.694C480.564 92.97 479.916 93.108 479.208 93.108C478.284 93.108 477.456 92.904 476.724 92.496C475.992 92.088 475.416 91.518 474.996 90.786C474.588 90.042 474.384 89.19 474.384 88.23C474.384 87.27 474.588 86.424 474.996 85.692C475.416 84.96 475.992 84.39 476.724 83.982C477.456 83.574 478.284 83.37 479.208 83.37C479.892 83.37 480.522 83.502 481.098 83.766C481.674 84.018 482.154 84.396 482.538 84.9V79.644H484.266ZM479.352 91.596C479.952 91.596 480.498 91.458 480.99 91.182C481.482 90.894 481.866 90.498 482.142 89.994C482.418 89.478 482.556 88.89 482.556 88.23C482.556 87.57 482.418 86.988 482.142 86.484C481.866 85.968 481.482 85.572 480.99 85.296C480.498 85.02 479.952 84.882 479.352 84.882C478.74 84.882 478.188 85.02 477.696 85.296C477.216 85.572 476.832 85.968 476.544 86.484C476.268 86.988 476.13 87.57 476.13 88.23C476.13 88.89 476.268 89.478 476.544 89.994C476.832 90.498 477.216 90.894 477.696 91.182C478.188 91.458 478.74 91.596 479.352 91.596ZM491.009 83.37C492.329 83.37 493.337 83.694 494.033 84.342C494.741 84.99 495.095 85.956 495.095 87.24V93H493.457V91.74C493.169 92.184 492.755 92.526 492.215 92.766C491.687 92.994 491.057 93.108 490.325 93.108C489.257 93.108 488.399 92.85 487.751 92.334C487.115 91.818 486.797 91.14 486.797 90.3C486.797 89.46 487.103 88.788 487.715 88.284C488.327 87.768 489.299 87.51 490.631 87.51H493.367V87.168C493.367 86.424 493.151 85.854 492.719 85.458C492.287 85.062 491.651 84.864 490.811 84.864C490.247 84.864 489.695 84.96 489.155 85.152C488.615 85.332 488.159 85.578 487.787 85.89L487.067 84.594C487.559 84.198 488.147 83.898 488.831 83.694C489.515 83.478 490.241 83.37 491.009 83.37ZM490.613 91.776C491.273 91.776 491.843 91.632 492.323 91.344C492.803 91.044 493.151 90.624 493.367 90.084V88.752H490.703C489.239 88.752 488.507 89.244 488.507 90.228C488.507 90.708 488.693 91.086 489.065 91.362C489.437 91.638 489.953 91.776 490.613 91.776ZM506.559 83.46L501.933 93.954C501.525 94.926 501.045 95.61 500.493 96.006C499.953 96.402 499.299 96.6 498.531 96.6C498.063 96.6 497.607 96.522 497.163 96.366C496.731 96.222 496.371 96.006 496.083 95.718L496.821 94.422C497.313 94.89 497.883 95.124 498.531 95.124C498.951 95.124 499.299 95.01 499.575 94.782C499.863 94.566 500.121 94.188 500.349 93.648L500.655 92.982L496.443 83.46H498.243L501.573 91.092L504.867 83.46H506.559ZM510.785 93.108C510.005 93.108 509.255 93.006 508.535 92.802C507.815 92.586 507.251 92.316 506.843 91.992L507.563 90.624C507.983 90.924 508.493 91.164 509.093 91.344C509.693 91.524 510.299 91.614 510.911 91.614C512.423 91.614 513.179 91.182 513.179 90.318C513.179 90.03 513.077 89.802 512.873 89.634C512.669 89.466 512.411 89.346 512.099 89.274C511.799 89.19 511.367 89.1 510.803 89.004C510.035 88.884 509.405 88.746 508.913 88.59C508.433 88.434 508.019 88.17 507.671 87.798C507.323 87.426 507.149 86.904 507.149 86.232C507.149 85.368 507.509 84.678 508.229 84.162C508.949 83.634 509.915 83.37 511.127 83.37C511.763 83.37 512.399 83.448 513.035 83.604C513.671 83.76 514.193 83.97 514.601 84.234L513.863 85.602C513.083 85.098 512.165 84.846 511.109 84.846C510.377 84.846 509.819 84.966 509.435 85.206C509.051 85.446 508.859 85.764 508.859 86.16C508.859 86.472 508.967 86.718 509.183 86.898C509.399 87.078 509.663 87.21 509.975 87.294C510.299 87.378 510.749 87.474 511.325 87.582C512.093 87.714 512.711 87.858 513.179 88.014C513.659 88.158 514.067 88.41 514.403 88.77C514.739 89.13 514.907 89.634 514.907 90.282C514.907 91.146 514.535 91.836 513.791 92.352C513.059 92.856 512.057 93.108 510.785 93.108ZM532.089 89.904H529.695V93H527.949V89.904H520.947V88.644L527.391 80.4H529.335L523.161 88.356H528.003V85.62H529.695V88.356H532.089V89.904ZM543.87 83.37C545.082 83.37 546.042 83.724 546.75 84.432C547.47 85.128 547.83 86.154 547.83 87.51V93H546.102V87.708C546.102 86.784 545.88 86.088 545.436 85.62C544.992 85.152 544.356 84.918 543.528 84.918C542.592 84.918 541.854 85.194 541.314 85.746C540.774 86.286 540.504 87.066 540.504 88.086V93H538.776V79.644H540.504V84.81C540.864 84.354 541.332 84 541.908 83.748C542.496 83.496 543.15 83.37 543.87 83.37ZM555.166 93.108C554.218 93.108 553.366 92.898 552.61 92.478C551.854 92.058 551.26 91.482 550.828 90.75C550.408 90.006 550.198 89.166 550.198 88.23C550.198 87.294 550.408 86.46 550.828 85.728C551.26 84.984 551.854 84.408 552.61 84C553.366 83.58 554.218 83.37 555.166 83.37C556.114 83.37 556.96 83.58 557.704 84C558.46 84.408 559.048 84.984 559.468 85.728C559.9 86.46 560.116 87.294 560.116 88.23C560.116 89.166 559.9 90.006 559.468 90.75C559.048 91.482 558.46 92.058 557.704 92.478C556.96 92.898 556.114 93.108 555.166 93.108ZM555.166 91.596C555.778 91.596 556.324 91.458 556.804 91.182C557.296 90.894 557.68 90.498 557.956 89.994C558.232 89.478 558.37 88.89 558.37 88.23C558.37 87.57 558.232 86.988 557.956 86.484C557.68 85.968 557.296 85.572 556.804 85.296C556.324 85.02 555.778 84.882 555.166 84.882C554.554 84.882 554.002 85.02 553.51 85.296C553.03 85.572 552.646 85.968 552.358 86.484C552.082 86.988 551.944 87.57 551.944 88.23C551.944 88.89 552.082 89.478 552.358 89.994C552.646 90.498 553.03 90.894 553.51 91.182C554.002 91.458 554.554 91.596 555.166 91.596ZM571.398 83.46V93H569.76V91.56C569.412 92.052 568.95 92.436 568.374 92.712C567.81 92.976 567.192 93.108 566.52 93.108C565.248 93.108 564.246 92.76 563.514 92.064C562.782 91.356 562.416 90.318 562.416 88.95V83.46H564.144V88.752C564.144 89.676 564.366 90.378 564.81 90.858C565.254 91.326 565.89 91.56 566.718 91.56C567.63 91.56 568.35 91.284 568.878 90.732C569.406 90.18 569.67 89.4 569.67 88.392V83.46H571.398ZM576.344 85.062C576.644 84.51 577.088 84.09 577.676 83.802C578.264 83.514 578.978 83.37 579.818 83.37V85.044C579.722 85.032 579.59 85.026 579.422 85.026C578.486 85.026 577.748 85.308 577.208 85.872C576.68 86.424 576.416 87.216 576.416 88.248V93H574.688V83.46H576.344V85.062ZM584.754 93.108C583.974 93.108 583.224 93.006 582.504 92.802C581.784 92.586 581.22 92.316 580.812 91.992L581.532 90.624C581.952 90.924 582.462 91.164 583.062 91.344C583.662 91.524 584.268 91.614 584.88 91.614C586.392 91.614 587.148 91.182 587.148 90.318C587.148 90.03 587.046 89.802 586.842 89.634C586.638 89.466 586.38 89.346 586.068 89.274C585.768 89.19 585.336 89.1 584.772 89.004C584.004 88.884 583.374 88.746 582.882 88.59C582.402 88.434 581.988 88.17 581.64 87.798C581.292 87.426 581.118 86.904 581.118 86.232C581.118 85.368 581.478 84.678 582.198 84.162C582.918 83.634 583.884 83.37 585.096 83.37C585.732 83.37 586.368 83.448 587.004 83.604C587.64 83.76 588.162 83.97 588.57 84.234L587.832 85.602C587.052 85.098 586.134 84.846 585.078 84.846C584.346 84.846 583.788 84.966 583.404 85.206C583.02 85.446 582.828 85.764 582.828 86.16C582.828 86.472 582.936 86.718 583.152 86.898C583.368 87.078 583.632 87.21 583.944 87.294C584.268 87.378 584.718 87.474 585.294 87.582C586.062 87.714 586.68 87.858 587.148 88.014C587.628 88.158 588.036 88.41 588.372 88.77C588.708 89.13 588.876 89.634 588.876 90.282C588.876 91.146 588.504 91.836 587.76 92.352C587.028 92.856 586.026 93.108 584.754 93.108ZM600.271 83.856H608.335V85.278H600.271V83.856ZM600.271 88.122H608.335V89.544H600.271V88.122Z" fill="#2F2F2F"/>
<path d="M630.417 80.4V93H628.635V81.966H625.791V80.4H630.417ZM642.03 91.434V93H632.976V91.776L638.106 86.826C638.73 86.226 639.15 85.71 639.366 85.278C639.582 84.834 639.69 84.39 639.69 83.946C639.69 83.286 639.456 82.776 638.988 82.416C638.532 82.044 637.872 81.858 637.008 81.858C635.616 81.858 634.542 82.314 633.786 83.226L632.562 82.164C633.054 81.564 633.696 81.096 634.488 80.76C635.292 80.424 636.186 80.256 637.17 80.256C638.49 80.256 639.54 80.574 640.32 81.21C641.1 81.834 641.49 82.686 641.49 83.766C641.49 84.438 641.346 85.074 641.058 85.674C640.77 86.274 640.224 86.958 639.42 87.726L635.568 91.434H642.03ZM654.138 89.904H651.744V93H649.998V89.904H642.996V88.644L649.44 80.4H651.384L645.21 88.356H650.052V85.62H651.744V88.356H654.138V89.904Z" fill="#2F2F2F"/>
<path d="M625 73H655V71H625V73ZM659 77V97H661V77H659ZM655 101H625V103H655V101ZM621 97V77H619V97H621ZM625 101C622.791 101 621 99.2091 621 97H619C619 100.314 621.686 103 625 103V101ZM659 97C659 99.2091 657.209 101 655 101V103C658.314 103 661 100.314 661 97H659ZM655 73C657.209 73 659 74.7909 659 77H661C661 73.6863 658.314 71 655 71V73ZM625 71C621.686 71 619 73.6863 619 77H621C621 74.7909 622.791 73 625 73V71Z" fill="#2F2F2F"/>
<path d="M677.102 83.37C678.314 83.37 679.274 83.724 679.982 84.432C680.702 85.128 681.062 86.154 681.062 87.51V93H679.334V87.708C679.334 86.784 679.112 86.088 678.668 85.62C678.224 85.152 677.588 84.918 676.76 84.918C675.824 84.918 675.086 85.194 674.546 85.746C674.006 86.286 673.736 87.066 673.736 88.086V93H672.008V79.644H673.736V84.81C674.096 84.354 674.564 84 675.14 83.748C675.728 83.496 676.382 83.37 677.102 83.37ZM688.399 93.108C687.451 93.108 686.599 92.898 685.843 92.478C685.087 92.058 684.493 91.482 684.061 90.75C683.641 90.006 683.431 89.166 683.431 88.23C683.431 87.294 683.641 86.46 684.061 85.728C684.493 84.984 685.087 84.408 685.843 84C686.599 83.58 687.451 83.37 688.399 83.37C689.347 83.37 690.193 83.58 690.937 84C691.693 84.408 692.281 84.984 692.701 85.728C693.133 86.46 693.349 87.294 693.349 88.23C693.349 89.166 693.133 90.006 692.701 90.75C692.281 91.482 691.693 92.058 690.937 92.478C690.193 92.898 689.347 93.108 688.399 93.108ZM688.399 91.596C689.011 91.596 689.557 91.458 690.037 91.182C690.529 90.894 690.913 90.498 691.189 89.994C691.465 89.478 691.603 88.89 691.603 88.23C691.603 87.57 691.465 86.988 691.189 86.484C690.913 85.968 690.529 85.572 690.037 85.296C689.557 85.02 689.011 84.882 688.399 84.882C687.787 84.882 687.235 85.02 686.743 85.296C686.263 85.572 685.879 85.968 685.591 86.484C685.315 86.988 685.177 87.57 685.177 88.23C685.177 88.89 685.315 89.478 685.591 89.994C685.879 90.498 686.263 90.894 686.743 91.182C687.235 91.458 687.787 91.596 688.399 91.596ZM704.631 83.46V93H702.993V91.56C702.645 92.052 702.183 92.436 701.607 92.712C701.043 92.976 700.425 93.108 699.753 93.108C698.481 93.108 697.479 92.76 696.747 92.064C696.015 91.356 695.649 90.318 695.649 88.95V83.46H697.377V88.752C697.377 89.676 697.599 90.378 698.043 90.858C698.487 91.326 699.123 91.56 699.951 91.56C700.863 91.56 701.583 91.284 702.111 90.732C702.639 90.18 702.903 89.4 702.903 88.392V83.46H704.631ZM709.576 85.062C709.876 84.51 710.32 84.09 710.908 83.802C711.496 83.514 712.21 83.37 713.05 83.37V85.044C712.954 85.032 712.822 85.026 712.654 85.026C711.718 85.026 710.98 85.308 710.44 85.872C709.912 86.424 709.648 87.216 709.648 88.248V93H707.92V83.46H709.576V85.062ZM717.986 93.108C717.206 93.108 716.456 93.006 715.736 92.802C715.016 92.586 714.452 92.316 714.044 91.992L714.764 90.624C715.184 90.924 715.694 91.164 716.294 91.344C716.894 91.524 717.5 91.614 718.112 91.614C719.624 91.614 720.38 91.182 720.38 90.318C720.38 90.03 720.278 89.802 720.074 89.634C719.87 89.466 719.612 89.346 719.3 89.274C719 89.19 718.568 89.1 718.004 89.004C717.236 88.884 716.606 88.746 716.114 88.59C715.634 88.434 715.22 88.17 714.872 87.798C714.524 87.426 714.35 86.904 714.35 86.232C714.35 85.368 714.71 84.678 715.43 84.162C716.15 83.634 717.116 83.37 718.328 83.37C718.964 83.37 719.6 83.448 720.236 83.604C720.872 83.76 721.394 83.97 721.802 84.234L721.064 85.602C720.284 85.098 719.366 84.846 718.31 84.846C717.578 84.846 717.02 84.966 716.636 85.206C716.252 85.446 716.06 85.764 716.06 86.16C716.06 86.472 716.168 86.718 716.384 86.898C716.6 87.078 716.864 87.21 717.176 87.294C717.5 87.378 717.95 87.474 718.526 87.582C719.294 87.714 719.912 87.858 720.38 88.014C720.86 88.158 721.268 88.41 721.604 88.77C721.94 89.13 722.108 89.634 722.108 90.282C722.108 91.146 721.736 91.836 720.992 92.352C720.26 92.856 719.258 93.108 717.986 93.108Z" fill="#2F2F2F"/>
<path d="M10.0567 8.4V9.624L4.9627 21H3.0547L8.0407 9.966H2.2807V12.216H0.552695V8.4H10.0567ZM29.1765 11.37C30.3765 11.37 31.3245 11.718 32.0205 12.414C32.7285 13.11 33.0825 14.142 33.0825 15.51V21H31.3545V15.708C31.3545 14.784 31.1385 14.088 30.7065 13.62C30.2865 13.152 29.6805 12.918 28.8885 12.918C28.0125 12.918 27.3165 13.194 26.8005 13.746C26.2845 14.286 26.0265 15.066 26.0265 16.086V21H24.2985V15.708C24.2985 14.784 24.0825 14.088 23.6505 13.62C23.2305 13.152 22.6245 12.918 21.8325 12.918C20.9565 12.918 20.2605 13.194 19.7445 13.746C19.2285 14.286 18.9705 15.066 18.9705 16.086V21H17.2425V11.46H18.8985V12.882C19.2465 12.39 19.7025 12.018 20.2665 11.766C20.8305 11.502 21.4725 11.37 22.1925 11.37C22.9365 11.37 23.5965 11.52 24.1725 11.82C24.7485 12.12 25.1925 12.558 25.5045 13.134C25.8645 12.582 26.3625 12.15 26.9985 11.838C27.6465 11.526 28.3725 11.37 29.1765 11.37ZM36.262 11.46H37.99V21H36.262V11.46ZM37.126 9.624C36.79 9.624 36.508 9.516 36.28 9.3C36.064 9.084 35.956 8.82 35.956 8.508C35.956 8.196 36.064 7.932 36.28 7.716C36.508 7.488 36.79 7.374 37.126 7.374C37.462 7.374 37.738 7.482 37.954 7.698C38.182 7.902 38.296 8.16 38.296 8.472C38.296 8.796 38.182 9.072 37.954 9.3C37.738 9.516 37.462 9.624 37.126 9.624ZM46.3834 11.37C47.5954 11.37 48.5554 11.724 49.2634 12.432C49.9834 13.128 50.3434 14.154 50.3434 15.51V21H48.6154V15.708C48.6154 14.784 48.3934 14.088 47.9494 13.62C47.5054 13.152 46.8694 12.918 46.0414 12.918C45.1054 12.918 44.3674 13.194 43.8274 13.746C43.2874 14.286 43.0174 15.066 43.0174 16.086V21H41.2894V11.46H42.9454V12.9C43.2934 12.408 43.7614 12.03 44.3494 11.766C44.9494 11.502 45.6274 11.37 46.3834 11.37ZM62.4333 11.46V21H60.7953V19.56C60.4473 20.052 59.9853 20.436 59.4093 20.712C58.8453 20.976 58.2273 21.108 57.5553 21.108C56.2833 21.108 55.2813 20.76 54.5493 20.064C53.8173 19.356 53.4513 18.318 53.4513 16.95V11.46H55.1793V16.752C55.1793 17.676 55.4013 18.378 55.8453 18.858C56.2893 19.326 56.9253 19.56 57.7533 19.56C58.6653 19.56 59.3853 19.284 59.9133 18.732C60.4413 18.18 60.7053 17.4 60.7053 16.392V11.46H62.4333ZM71.087 20.442C70.835 20.658 70.523 20.826 70.151 20.946C69.779 21.054 69.395 21.108 68.999 21.108C68.039 21.108 67.295 20.85 66.767 20.334C66.239 19.818 65.975 19.08 65.975 18.12V12.882H64.355V11.46H65.975V9.372H67.703V11.46H70.439V12.882H67.703V18.048C67.703 18.564 67.829 18.96 68.081 19.236C68.345 19.512 68.717 19.65 69.197 19.65C69.725 19.65 70.175 19.5 70.547 19.2L71.087 20.442ZM81.4817 16.284C81.4817 16.416 81.4697 16.59 81.4457 16.806H73.7057C73.8137 17.646 74.1797 18.324 74.8037 18.84C75.4397 19.344 76.2257 19.596 77.1617 19.596C78.3017 19.596 79.2197 19.212 79.9157 18.444L80.8697 19.56C80.4377 20.064 79.8977 20.448 79.2497 20.712C78.6137 20.976 77.8997 21.108 77.1077 21.108C76.0997 21.108 75.2057 20.904 74.4257 20.496C73.6457 20.076 73.0397 19.494 72.6077 18.75C72.1877 18.006 71.9777 17.166 71.9777 16.23C71.9777 15.306 72.1817 14.472 72.5897 13.728C73.0097 12.984 73.5797 12.408 74.2997 12C75.0317 11.58 75.8537 11.37 76.7657 11.37C77.6777 11.37 78.4877 11.58 79.1957 12C79.9157 12.408 80.4737 12.984 80.8697 13.728C81.2777 14.472 81.4817 15.324 81.4817 16.284ZM76.7657 12.828C75.9377 12.828 75.2417 13.08 74.6777 13.584C74.1257 14.088 73.8017 14.748 73.7057 15.564H79.8257C79.7297 14.76 79.3997 14.106 78.8357 13.602C78.2837 13.086 77.5937 12.828 76.7657 12.828ZM86.6172 21.108C85.8372 21.108 85.0872 21.006 84.3672 20.802C83.6472 20.586 83.0832 20.316 82.6752 19.992L83.3952 18.624C83.8152 18.924 84.3252 19.164 84.9252 19.344C85.5252 19.524 86.1312 19.614 86.7432 19.614C88.2552 19.614 89.0112 19.182 89.0112 18.318C89.0112 18.03 88.9092 17.802 88.7052 17.634C88.5012 17.466 88.2432 17.346 87.9312 17.274C87.6312 17.19 87.1992 17.1 86.6352 17.004C85.8672 16.884 85.2372 16.746 84.7452 16.59C84.2652 16.434 83.8512 16.17 83.5032 15.798C83.1552 15.426 82.9812 14.904 82.9812 14.232C82.9812 13.368 83.3412 12.678 84.0612 12.162C84.7812 11.634 85.7472 11.37 86.9592 11.37C87.5952 11.37 88.2312 11.448 88.8672 11.604C89.5032 11.76 90.0252 11.97 90.4332 12.234L89.6952 13.602C88.9152 13.098 87.9972 12.846 86.9412 12.846C86.2092 12.846 85.6512 12.966 85.2672 13.206C84.8832 13.446 84.6912 13.764 84.6912 14.16C84.6912 14.472 84.7992 14.718 85.0152 14.898C85.2312 15.078 85.4952 15.21 85.8072 15.294C86.1312 15.378 86.5812 15.474 87.1572 15.582C87.9252 15.714 88.5432 15.858 89.0112 16.014C89.4912 16.158 89.8992 16.41 90.2352 16.77C90.5712 17.13 90.7392 17.634 90.7392 18.282C90.7392 19.146 90.3672 19.836 89.6232 20.352C88.8912 20.856 87.8892 21.108 86.6172 21.108ZM101.783 13.692C103.019 13.812 103.961 14.196 104.609 14.844C105.257 15.48 105.581 16.296 105.581 17.292C105.581 18.012 105.401 18.666 105.041 19.254C104.681 19.83 104.141 20.292 103.421 20.64C102.713 20.976 101.843 21.144 100.811 21.144C99.9107 21.144 99.0467 21.012 98.2187 20.748C97.3907 20.472 96.7127 20.094 96.1847 19.614L97.0127 18.192C97.4447 18.6 97.9967 18.93 98.6687 19.182C99.3407 19.422 100.055 19.542 100.811 19.542C101.747 19.542 102.473 19.344 102.989 18.948C103.517 18.552 103.781 18.006 103.781 17.31C103.781 16.614 103.523 16.074 103.007 15.69C102.491 15.306 101.711 15.114 100.667 15.114H99.6587V13.854L102.827 9.966H96.7607V8.4H105.077V9.624L101.783 13.692ZM116.028 19.434V21H106.974V19.776L112.104 14.826C112.728 14.226 113.148 13.71 113.364 13.278C113.58 12.834 113.688 12.39 113.688 11.946C113.688 11.286 113.454 10.776 112.986 10.416C112.53 10.044 111.87 9.858 111.006 9.858C109.614 9.858 108.54 10.314 107.784 11.226L106.56 10.164C107.052 9.564 107.694 9.096 108.486 8.76C109.29 8.424 110.184 8.256 111.168 8.256C112.488 8.256 113.538 8.574 114.318 9.21C115.098 9.834 115.488 10.686 115.488 11.766C115.488 12.438 115.344 13.074 115.056 13.674C114.768 14.274 114.222 14.958 113.418 15.726L109.566 19.434H116.028ZM125.852 21.108C125.072 21.108 124.322 21.006 123.602 20.802C122.882 20.586 122.318 20.316 121.91 19.992L122.63 18.624C123.05 18.924 123.56 19.164 124.16 19.344C124.76 19.524 125.366 19.614 125.978 19.614C127.49 19.614 128.246 19.182 128.246 18.318C128.246 18.03 128.144 17.802 127.94 17.634C127.736 17.466 127.478 17.346 127.166 17.274C126.866 17.19 126.434 17.1 125.87 17.004C125.102 16.884 124.472 16.746 123.98 16.59C123.5 16.434 123.086 16.17 122.738 15.798C122.39 15.426 122.216 14.904 122.216 14.232C122.216 13.368 122.576 12.678 123.296 12.162C124.016 11.634 124.982 11.37 126.194 11.37C126.83 11.37 127.466 11.448 128.102 11.604C128.738 11.76 129.26 11.97 129.668 12.234L128.93 13.602C128.15 13.098 127.232 12.846 126.176 12.846C125.444 12.846 124.886 12.966 124.502 13.206C124.118 13.446 123.926 13.764 123.926 14.16C123.926 14.472 124.034 14.718 124.25 14.898C124.466 15.078 124.73 15.21 125.042 15.294C125.366 15.378 125.816 15.474 126.392 15.582C127.16 15.714 127.778 15.858 128.246 16.014C128.726 16.158 129.134 16.41 129.47 16.77C129.806 17.13 129.974 17.634 129.974 18.282C129.974 19.146 129.602 19.836 128.858 20.352C128.126 20.856 127.124 21.108 125.852 21.108ZM140.755 16.284C140.755 16.416 140.743 16.59 140.719 16.806H132.979C133.087 17.646 133.453 18.324 134.077 18.84C134.713 19.344 135.499 19.596 136.435 19.596C137.575 19.596 138.493 19.212 139.189 18.444L140.143 19.56C139.711 20.064 139.171 20.448 138.523 20.712C137.887 20.976 137.173 21.108 136.381 21.108C135.373 21.108 134.479 20.904 133.699 20.496C132.919 20.076 132.313 19.494 131.881 18.75C131.461 18.006 131.251 17.166 131.251 16.23C131.251 15.306 131.455 14.472 131.863 13.728C132.283 12.984 132.853 12.408 133.573 12C134.305 11.58 135.127 11.37 136.039 11.37C136.951 11.37 137.761 11.58 138.469 12C139.189 12.408 139.747 12.984 140.143 13.728C140.551 14.472 140.755 15.324 140.755 16.284ZM136.039 12.828C135.211 12.828 134.515 13.08 133.951 13.584C133.399 14.088 133.075 14.748 132.979 15.564H139.099C139.003 14.76 138.673 14.106 138.109 13.602C137.557 13.086 136.867 12.828 136.039 12.828ZM147.313 21.108C146.341 21.108 145.471 20.898 144.703 20.478C143.947 20.058 143.353 19.482 142.921 18.75C142.489 18.006 142.273 17.166 142.273 16.23C142.273 15.294 142.489 14.46 142.921 13.728C143.353 12.984 143.947 12.408 144.703 12C145.471 11.58 146.341 11.37 147.313 11.37C148.177 11.37 148.945 11.544 149.617 11.892C150.301 12.24 150.829 12.744 151.201 13.404L149.887 14.25C149.587 13.794 149.215 13.452 148.771 13.224C148.327 12.996 147.835 12.882 147.295 12.882C146.671 12.882 146.107 13.02 145.603 13.296C145.111 13.572 144.721 13.968 144.433 14.484C144.157 14.988 144.019 15.57 144.019 16.23C144.019 16.902 144.157 17.496 144.433 18.012C144.721 18.516 145.111 18.906 145.603 19.182C146.107 19.458 146.671 19.596 147.295 19.596C147.835 19.596 148.327 19.482 148.771 19.254C149.215 19.026 149.587 18.684 149.887 18.228L151.201 19.056C150.829 19.716 150.301 20.226 149.617 20.586C148.945 20.934 148.177 21.108 147.313 21.108ZM157.383 21.108C156.435 21.108 155.583 20.898 154.827 20.478C154.071 20.058 153.477 19.482 153.045 18.75C152.625 18.006 152.415 17.166 152.415 16.23C152.415 15.294 152.625 14.46 153.045 13.728C153.477 12.984 154.071 12.408 154.827 12C155.583 11.58 156.435 11.37 157.383 11.37C158.331 11.37 159.177 11.58 159.921 12C160.677 12.408 161.265 12.984 161.685 13.728C162.117 14.46 162.333 15.294 162.333 16.23C162.333 17.166 162.117 18.006 161.685 18.75C161.265 19.482 160.677 20.058 159.921 20.478C159.177 20.898 158.331 21.108 157.383 21.108ZM157.383 19.596C157.995 19.596 158.541 19.458 159.021 19.182C159.513 18.894 159.897 18.498 160.173 17.994C160.449 17.478 160.587 16.89 160.587 16.23C160.587 15.57 160.449 14.988 160.173 14.484C159.897 13.968 159.513 13.572 159.021 13.296C158.541 13.02 157.995 12.882 157.383 12.882C156.771 12.882 156.219 13.02 155.727 13.296C155.247 13.572 154.863 13.968 154.575 14.484C154.299 14.988 154.161 15.57 154.161 16.23C154.161 16.89 154.299 17.478 154.575 17.994C154.863 18.498 155.247 18.894 155.727 19.182C156.219 19.458 156.771 19.596 157.383 19.596ZM169.817 11.37C171.029 11.37 171.989 11.724 172.697 12.432C173.417 13.128 173.777 14.154 173.777 15.51V21H172.049V15.708C172.049 14.784 171.827 14.088 171.383 13.62C170.939 13.152 170.303 12.918 169.475 12.918C168.539 12.918 167.801 13.194 167.261 13.746C166.721 14.286 166.451 15.066 166.451 16.086V21H164.723V11.46H166.379V12.9C166.727 12.408 167.195 12.03 167.783 11.766C168.383 11.502 169.061 11.37 169.817 11.37ZM186.028 7.644V21H184.372V19.488C183.988 20.016 183.502 20.418 182.914 20.694C182.326 20.97 181.678 21.108 180.97 21.108C180.046 21.108 179.218 20.904 178.486 20.496C177.754 20.088 177.178 19.518 176.758 18.786C176.35 18.042 176.146 17.19 176.146 16.23C176.146 15.27 176.35 14.424 176.758 13.692C177.178 12.96 177.754 12.39 178.486 11.982C179.218 11.574 180.046 11.37 180.97 11.37C181.654 11.37 182.284 11.502 182.86 11.766C183.436 12.018 183.916 12.396 184.3 12.9V7.644H186.028ZM181.114 19.596C181.714 19.596 182.26 19.458 182.752 19.182C183.244 18.894 183.628 18.498 183.904 17.994C184.18 17.478 184.318 16.89 184.318 16.23C184.318 15.57 184.18 14.988 183.904 14.484C183.628 13.968 183.244 13.572 182.752 13.296C182.26 13.02 181.714 12.882 181.114 12.882C180.502 12.882 179.95 13.02 179.458 13.296C178.978 13.572 178.594 13.968 178.306 14.484C178.03 14.988 177.892 15.57 177.892 16.23C177.892 16.89 178.03 17.478 178.306 17.994C178.594 18.498 178.978 18.894 179.458 19.182C179.95 19.458 180.502 19.596 181.114 19.596ZM192.033 21.108C191.253 21.108 190.503 21.006 189.783 20.802C189.063 20.586 188.499 20.316 188.091 19.992L188.811 18.624C189.231 18.924 189.741 19.164 190.341 19.344C190.941 19.524 191.547 19.614 192.159 19.614C193.671 19.614 194.427 19.182 194.427 18.318C194.427 18.03 194.325 17.802 194.121 17.634C193.917 17.466 193.659 17.346 193.347 17.274C193.047 17.19 192.615 17.1 192.051 17.004C191.283 16.884 190.653 16.746 190.161 16.59C189.681 16.434 189.267 16.17 188.919 15.798C188.571 15.426 188.397 14.904 188.397 14.232C188.397 13.368 188.757 12.678 189.477 12.162C190.197 11.634 191.163 11.37 192.375 11.37C193.011 11.37 193.647 11.448 194.283 11.604C194.919 11.76 195.441 11.97 195.849 12.234L195.111 13.602C194.331 13.098 193.413 12.846 192.357 12.846C191.625 12.846 191.067 12.966 190.683 13.206C190.299 13.446 190.107 13.764 190.107 14.16C190.107 14.472 190.215 14.718 190.431 14.898C190.647 15.078 190.911 15.21 191.223 15.294C191.547 15.378 191.997 15.474 192.573 15.582C193.341 15.714 193.959 15.858 194.427 16.014C194.907 16.158 195.315 16.41 195.651 16.77C195.987 17.13 196.155 17.634 196.155 18.282C196.155 19.146 195.783 19.836 195.039 20.352C194.307 20.856 193.305 21.108 192.033 21.108ZM202.717 11.856H210.781V13.278H202.717V11.856ZM202.717 16.122H210.781V17.544H202.717V16.122Z" fill="#2F2F2F"/>
<path d="M237.54 17.904H235.146V21H233.4V17.904H226.398V16.644L232.842 8.4H234.786L228.612 16.356H233.454V13.62H235.146V16.356H237.54V17.904ZM242.166 13.422C243.966 13.422 245.286 13.764 246.126 14.448C246.978 15.12 247.404 16.044 247.404 17.22C247.404 17.964 247.224 18.636 246.864 19.236C246.516 19.824 245.982 20.292 245.262 20.64C244.554 20.976 243.678 21.144 242.634 21.144C241.746 21.144 240.888 21.012 240.06 20.748C239.232 20.472 238.548 20.094 238.008 19.614L238.836 18.192C239.268 18.6 239.82 18.93 240.492 19.182C241.164 19.422 241.872 19.542 242.616 19.542C243.564 19.542 244.296 19.344 244.812 18.948C245.34 18.54 245.604 17.988 245.604 17.292C245.604 16.536 245.316 15.966 244.74 15.582C244.164 15.186 243.18 14.988 241.788 14.988H238.926L239.592 8.4H246.702V9.966H241.104L240.762 13.422H242.166ZM257.67 19.434V21H248.616V19.776L253.746 14.826C254.37 14.226 254.79 13.71 255.006 13.278C255.222 12.834 255.33 12.39 255.33 11.946C255.33 11.286 255.096 10.776 254.628 10.416C254.172 10.044 253.512 9.858 252.648 9.858C251.256 9.858 250.182 10.314 249.426 11.226L248.202 10.164C248.694 9.564 249.336 9.096 250.128 8.76C250.932 8.424 251.826 8.256 252.81 8.256C254.13 8.256 255.18 8.574 255.96 9.21C256.74 9.834 257.13 10.686 257.13 11.766C257.13 12.438 256.986 13.074 256.698 13.674C256.41 14.274 255.864 14.958 255.06 15.726L251.208 19.434H257.67Z" fill="#2F2F2F"/>
<path d="M227 1H257V-1H227V1ZM261 5V25H263V5H261ZM257 29H227V31H257V29ZM223 25V5H221V25H223ZM227 29C224.791 29 223 27.2091 223 25H221C221 28.3137 223.686 31 227 31V29ZM261 25C261 27.2091 259.209 29 257 29V31C260.314 31 263 28.3137 263 25H261ZM257 1C259.209 1 261 2.79086 261 5H263C263 1.68629 260.314 -1 257 -1V1ZM227 -1C223.686 -1 221 1.68629 221 5H223C223 2.79086 224.791 1 227 1V-1Z" fill="#2F2F2F"/>
<path d="M276.774 21.108C275.994 21.108 275.244 21.006 274.524 20.802C273.804 20.586 273.24 20.316 272.832 19.992L273.552 18.624C273.972 18.924 274.482 19.164 275.082 19.344C275.682 19.524 276.288 19.614 276.9 19.614C278.412 19.614 279.168 19.182 279.168 18.318C279.168 18.03 279.066 17.802 278.862 17.634C278.658 17.466 278.4 17.346 278.088 17.274C277.788 17.19 277.356 17.1 276.792 17.004C276.024 16.884 275.394 16.746 274.902 16.59C274.422 16.434 274.008 16.17 273.66 15.798C273.312 15.426 273.138 14.904 273.138 14.232C273.138 13.368 273.498 12.678 274.218 12.162C274.938 11.634 275.904 11.37 277.116 11.37C277.752 11.37 278.388 11.448 279.024 11.604C279.66 11.76 280.182 11.97 280.59 12.234L279.852 13.602C279.072 13.098 278.154 12.846 277.098 12.846C276.366 12.846 275.808 12.966 275.424 13.206C275.04 13.446 274.848 13.764 274.848 14.16C274.848 14.472 274.956 14.718 275.172 14.898C275.388 15.078 275.652 15.21 275.964 15.294C276.288 15.378 276.738 15.474 277.314 15.582C278.082 15.714 278.7 15.858 279.168 16.014C279.648 16.158 280.056 16.41 280.392 16.77C280.728 17.13 280.896 17.634 280.896 18.282C280.896 19.146 280.524 19.836 279.78 20.352C279.048 20.856 278.046 21.108 276.774 21.108ZM291.678 16.284C291.678 16.416 291.666 16.59 291.642 16.806H283.902C284.01 17.646 284.376 18.324 285 18.84C285.636 19.344 286.422 19.596 287.358 19.596C288.498 19.596 289.416 19.212 290.112 18.444L291.066 19.56C290.634 20.064 290.094 20.448 289.446 20.712C288.81 20.976 288.096 21.108 287.304 21.108C286.296 21.108 285.402 20.904 284.622 20.496C283.842 20.076 283.236 19.494 282.804 18.75C282.384 18.006 282.174 17.166 282.174 16.23C282.174 15.306 282.378 14.472 282.786 13.728C283.206 12.984 283.776 12.408 284.496 12C285.228 11.58 286.05 11.37 286.962 11.37C287.874 11.37 288.684 11.58 289.392 12C290.112 12.408 290.67 12.984 291.066 13.728C291.474 14.472 291.678 15.324 291.678 16.284ZM286.962 12.828C286.134 12.828 285.438 13.08 284.874 13.584C284.322 14.088 283.998 14.748 283.902 15.564H290.022C289.926 14.76 289.596 14.106 289.032 13.602C288.48 13.086 287.79 12.828 286.962 12.828ZM298.235 21.108C297.263 21.108 296.393 20.898 295.625 20.478C294.869 20.058 294.275 19.482 293.843 18.75C293.411 18.006 293.195 17.166 293.195 16.23C293.195 15.294 293.411 14.46 293.843 13.728C294.275 12.984 294.869 12.408 295.625 12C296.393 11.58 297.263 11.37 298.235 11.37C299.099 11.37 299.867 11.544 300.539 11.892C301.223 12.24 301.751 12.744 302.123 13.404L300.809 14.25C300.509 13.794 300.137 13.452 299.693 13.224C299.249 12.996 298.757 12.882 298.217 12.882C297.593 12.882 297.029 13.02 296.525 13.296C296.033 13.572 295.643 13.968 295.355 14.484C295.079 14.988 294.941 15.57 294.941 16.23C294.941 16.902 295.079 17.496 295.355 18.012C295.643 18.516 296.033 18.906 296.525 19.182C297.029 19.458 297.593 19.596 298.217 19.596C298.757 19.596 299.249 19.482 299.693 19.254C300.137 19.026 300.509 18.684 300.809 18.228L302.123 19.056C301.751 19.716 301.223 20.226 300.539 20.586C299.867 20.934 299.099 21.108 298.235 21.108ZM308.306 21.108C307.358 21.108 306.506 20.898 305.75 20.478C304.994 20.058 304.4 19.482 303.968 18.75C303.548 18.006 303.338 17.166 303.338 16.23C303.338 15.294 303.548 14.46 303.968 13.728C304.4 12.984 304.994 12.408 305.75 12C306.506 11.58 307.358 11.37 308.306 11.37C309.254 11.37 310.1 11.58 310.844 12C311.6 12.408 312.188 12.984 312.608 13.728C313.04 14.46 313.256 15.294 313.256 16.23C313.256 17.166 313.04 18.006 312.608 18.75C312.188 19.482 311.6 20.058 310.844 20.478C310.1 20.898 309.254 21.108 308.306 21.108ZM308.306 19.596C308.918 19.596 309.464 19.458 309.944 19.182C310.436 18.894 310.82 18.498 311.096 17.994C311.372 17.478 311.51 16.89 311.51 16.23C311.51 15.57 311.372 14.988 311.096 14.484C310.82 13.968 310.436 13.572 309.944 13.296C309.464 13.02 308.918 12.882 308.306 12.882C307.694 12.882 307.142 13.02 306.65 13.296C306.17 13.572 305.786 13.968 305.498 14.484C305.222 14.988 305.084 15.57 305.084 16.23C305.084 16.89 305.222 17.478 305.498 17.994C305.786 18.498 306.17 18.894 306.65 19.182C307.142 19.458 307.694 19.596 308.306 19.596ZM320.74 11.37C321.952 11.37 322.912 11.724 323.62 12.432C324.34 13.128 324.7 14.154 324.7 15.51V21H322.972V15.708C322.972 14.784 322.75 14.088 322.306 13.62C321.862 13.152 321.226 12.918 320.398 12.918C319.462 12.918 318.724 13.194 318.184 13.746C317.644 14.286 317.374 15.066 317.374 16.086V21H315.646V11.46H317.302V12.9C317.65 12.408 318.118 12.03 318.706 11.766C319.306 11.502 319.984 11.37 320.74 11.37ZM336.951 7.644V21H335.295V19.488C334.911 20.016 334.425 20.418 333.837 20.694C333.249 20.97 332.601 21.108 331.893 21.108C330.969 21.108 330.141 20.904 329.409 20.496C328.677 20.088 328.101 19.518 327.681 18.786C327.273 18.042 327.069 17.19 327.069 16.23C327.069 15.27 327.273 14.424 327.681 13.692C328.101 12.96 328.677 12.39 329.409 11.982C330.141 11.574 330.969 11.37 331.893 11.37C332.577 11.37 333.207 11.502 333.783 11.766C334.359 12.018 334.839 12.396 335.223 12.9V7.644H336.951ZM332.037 19.596C332.637 19.596 333.183 19.458 333.675 19.182C334.167 18.894 334.551 18.498 334.827 17.994C335.103 17.478 335.241 16.89 335.241 16.23C335.241 15.57 335.103 14.988 334.827 14.484C334.551 13.968 334.167 13.572 333.675 13.296C333.183 13.02 332.637 12.882 332.037 12.882C331.425 12.882 330.873 13.02 330.381 13.296C329.901 13.572 329.517 13.968 329.229 14.484C328.953 14.988 328.815 15.57 328.815 16.23C328.815 16.89 328.953 17.478 329.229 17.994C329.517 18.498 329.901 18.894 330.381 19.182C330.873 19.458 331.425 19.596 332.037 19.596ZM342.956 21.108C342.176 21.108 341.426 21.006 340.706 20.802C339.986 20.586 339.422 20.316 339.014 19.992L339.734 18.624C340.154 18.924 340.664 19.164 341.264 19.344C341.864 19.524 342.47 19.614 343.082 19.614C344.594 19.614 345.35 19.182 345.35 18.318C345.35 18.03 345.248 17.802 345.044 17.634C344.84 17.466 344.582 17.346 344.27 17.274C343.97 17.19 343.538 17.1 342.974 17.004C342.206 16.884 341.576 16.746 341.084 16.59C340.604 16.434 340.19 16.17 339.842 15.798C339.494 15.426 339.32 14.904 339.32 14.232C339.32 13.368 339.68 12.678 340.4 12.162C341.12 11.634 342.086 11.37 343.298 11.37C343.934 11.37 344.57 11.448 345.206 11.604C345.842 11.76 346.364 11.97 346.772 12.234L346.034 13.602C345.254 13.098 344.336 12.846 343.28 12.846C342.548 12.846 341.99 12.966 341.606 13.206C341.222 13.446 341.03 13.764 341.03 14.16C341.03 14.472 341.138 14.718 341.354 14.898C341.57 15.078 341.834 15.21 342.146 15.294C342.47 15.378 342.92 15.474 343.496 15.582C344.264 15.714 344.882 15.858 345.35 16.014C345.83 16.158 346.238 16.41 346.574 16.77C346.91 17.13 347.078 17.634 347.078 18.282C347.078 19.146 346.706 19.836 345.962 20.352C345.23 20.856 344.228 21.108 342.956 21.108Z" fill="#2F2F2F"/>
<path d="M12.0545 89.904H9.66052V93H7.91452V89.904H0.912516V88.644L7.35652 80.4H9.30052L3.12652 88.356H7.96852V85.62H9.66052V88.356H12.0545V89.904ZM33.1775 83.46L29.6135 93H27.9575L25.2035 85.764L22.4135 93H20.7575L17.2115 83.46H18.8495L21.6215 91.056L24.5015 83.46H25.9595L28.7855 91.092L31.6295 83.46H33.1775ZM43.2893 88.284C43.2893 88.416 43.2773 88.59 43.2533 88.806H35.5133C35.6213 89.646 35.9873 90.324 36.6113 90.84C37.2473 91.344 38.0333 91.596 38.9693 91.596C40.1093 91.596 41.0273 91.212 41.7233 90.444L42.6773 91.56C42.2453 92.064 41.7053 92.448 41.0573 92.712C40.4213 92.976 39.7073 93.108 38.9153 93.108C37.9073 93.108 37.0133 92.904 36.2333 92.496C35.4533 92.076 34.8473 91.494 34.4153 90.75C33.9953 90.006 33.7853 89.166 33.7853 88.23C33.7853 87.306 33.9893 86.472 34.3973 85.728C34.8173 84.984 35.3873 84.408 36.1073 84C36.8393 83.58 37.6613 83.37 38.5733 83.37C39.4853 83.37 40.2953 83.58 41.0033 84C41.7233 84.408 42.2813 84.984 42.6773 85.728C43.0853 86.472 43.2893 87.324 43.2893 88.284ZM38.5733 84.828C37.7453 84.828 37.0493 85.08 36.4853 85.584C35.9333 86.088 35.6093 86.748 35.5133 87.564H41.6333C41.5373 86.76 41.2073 86.106 40.6433 85.602C40.0913 85.086 39.4013 84.828 38.5733 84.828ZM54.3108 88.284C54.3108 88.416 54.2988 88.59 54.2748 88.806H46.5348C46.6428 89.646 47.0088 90.324 47.6328 90.84C48.2688 91.344 49.0548 91.596 49.9908 91.596C51.1308 91.596 52.0488 91.212 52.7448 90.444L53.6988 91.56C53.2668 92.064 52.7268 92.448 52.0788 92.712C51.4428 92.976 50.7288 93.108 49.9368 93.108C48.9288 93.108 48.0348 92.904 47.2548 92.496C46.4748 92.076 45.8688 91.494 45.4368 90.75C45.0168 90.006 44.8068 89.166 44.8068 88.23C44.8068 87.306 45.0108 86.472 45.4188 85.728C45.8388 84.984 46.4088 84.408 47.1288 84C47.8608 83.58 48.6828 83.37 49.5948 83.37C50.5068 83.37 51.3168 83.58 52.0248 84C52.7448 84.408 53.3028 84.984 53.6988 85.728C54.1068 86.472 54.3108 87.324 54.3108 88.284ZM49.5948 84.828C48.7668 84.828 48.0708 85.08 47.5068 85.584C46.9548 86.088 46.6308 86.748 46.5348 87.564H52.6548C52.5588 86.76 52.2288 86.106 51.6648 85.602C51.1128 85.086 50.4228 84.828 49.5948 84.828ZM60.4183 88.554L58.4383 90.39V93H56.7103V79.644H58.4383V88.212L63.6403 83.46H65.7283L61.7143 87.402L66.1243 93H64.0003L60.4183 88.554ZM70.2392 93.108C69.4592 93.108 68.7092 93.006 67.9892 92.802C67.2692 92.586 66.7052 92.316 66.2972 91.992L67.0172 90.624C67.4372 90.924 67.9472 91.164 68.5472 91.344C69.1472 91.524 69.7532 91.614 70.3652 91.614C71.8772 91.614 72.6332 91.182 72.6332 90.318C72.6332 90.03 72.5312 89.802 72.3272 89.634C72.1232 89.466 71.8652 89.346 71.5532 89.274C71.2532 89.19 70.8212 89.1 70.2572 89.004C69.4892 88.884 68.8592 88.746 68.3672 88.59C67.8872 88.434 67.4732 88.17 67.1252 87.798C66.7772 87.426 66.6032 86.904 66.6032 86.232C66.6032 85.368 66.9632 84.678 67.6832 84.162C68.4032 83.634 69.3692 83.37 70.5812 83.37C71.2172 83.37 71.8532 83.448 72.4892 83.604C73.1252 83.76 73.6472 83.97 74.0552 84.234L73.3172 85.602C72.5372 85.098 71.6192 84.846 70.5632 84.846C69.8312 84.846 69.2732 84.966 68.8892 85.206C68.5052 85.446 68.3132 85.764 68.3132 86.16C68.3132 86.472 68.4212 86.718 68.6372 86.898C68.8532 87.078 69.1172 87.21 69.4292 87.294C69.7532 87.378 70.2032 87.474 70.7792 87.582C71.5472 87.714 72.1652 87.858 72.6332 88.014C73.1132 88.158 73.5212 88.41 73.8572 88.77C74.1932 89.13 74.3612 89.634 74.3612 90.282C74.3612 91.146 73.9892 91.836 73.2452 92.352C72.5132 92.856 71.5112 93.108 70.2392 93.108ZM86.0168 85.35C86.8448 85.35 87.5828 85.506 88.2308 85.818C88.8908 86.13 89.4068 86.58 89.7788 87.168C90.1508 87.744 90.3368 88.41 90.3368 89.166C90.3368 89.958 90.1388 90.654 89.7428 91.254C89.3588 91.854 88.8248 92.322 88.1408 92.658C87.4688 92.982 86.7128 93.144 85.8728 93.144C84.1808 93.144 82.8728 92.598 81.9488 91.506C81.0368 90.414 80.5808 88.866 80.5808 86.862C80.5808 85.458 80.8268 84.264 81.3188 83.28C81.8228 82.284 82.5188 81.534 83.4068 81.03C84.3068 80.514 85.3508 80.256 86.5388 80.256C87.1508 80.256 87.7268 80.322 88.2668 80.454C88.8068 80.574 89.2748 80.754 89.6708 80.994L88.9868 82.398C88.3868 82.002 87.5828 81.804 86.5748 81.804C85.2668 81.804 84.2408 82.212 83.4968 83.028C82.7528 83.832 82.3808 85.008 82.3808 86.556C82.3808 86.748 82.3868 86.898 82.3988 87.006C82.7588 86.466 83.2508 86.058 83.8748 85.782C84.5108 85.494 85.2248 85.35 86.0168 85.35ZM85.8008 91.686C86.6288 91.686 87.3008 91.464 87.8168 91.02C88.3328 90.576 88.5908 89.982 88.5908 89.238C88.5908 88.494 88.3268 87.906 87.7988 87.474C87.2828 87.03 86.5868 86.808 85.7108 86.808C85.1468 86.808 84.6428 86.916 84.1988 87.132C83.7668 87.348 83.4248 87.642 83.1728 88.014C82.9328 88.386 82.8128 88.8 82.8128 89.256C82.8128 89.7 82.9268 90.108 83.1548 90.48C83.3948 90.84 83.7368 91.134 84.1808 91.362C84.6368 91.578 85.1768 91.686 85.8008 91.686ZM106.298 79.644V93H104.642V91.488C104.258 92.016 103.772 92.418 103.184 92.694C102.596 92.97 101.948 93.108 101.24 93.108C100.316 93.108 99.4882 92.904 98.7562 92.496C98.0242 92.088 97.4482 91.518 97.0282 90.786C96.6202 90.042 96.4162 89.19 96.4162 88.23C96.4162 87.27 96.6202 86.424 97.0282 85.692C97.4482 84.96 98.0242 84.39 98.7562 83.982C99.4882 83.574 100.316 83.37 101.24 83.37C101.924 83.37 102.554 83.502 103.13 83.766C103.706 84.018 104.186 84.396 104.57 84.9V79.644H106.298ZM101.384 91.596C101.984 91.596 102.53 91.458 103.022 91.182C103.514 90.894 103.898 90.498 104.174 89.994C104.45 89.478 104.588 88.89 104.588 88.23C104.588 87.57 104.45 86.988 104.174 86.484C103.898 85.968 103.514 85.572 103.022 85.296C102.53 85.02 101.984 84.882 101.384 84.882C100.772 84.882 100.22 85.02 99.7282 85.296C99.2482 85.572 98.8642 85.968 98.5762 86.484C98.3002 86.988 98.1622 87.57 98.1622 88.23C98.1622 88.89 98.3002 89.478 98.5762 89.994C98.8642 90.498 99.2482 90.894 99.7282 91.182C100.22 91.458 100.772 91.596 101.384 91.596ZM113.042 83.37C114.362 83.37 115.37 83.694 116.066 84.342C116.774 84.99 117.128 85.956 117.128 87.24V93H115.49V91.74C115.202 92.184 114.788 92.526 114.248 92.766C113.72 92.994 113.09 93.108 112.358 93.108C111.29 93.108 110.432 92.85 109.784 92.334C109.148 91.818 108.83 91.14 108.83 90.3C108.83 89.46 109.136 88.788 109.748 88.284C110.36 87.768 111.332 87.51 112.664 87.51H115.4V87.168C115.4 86.424 115.184 85.854 114.752 85.458C114.32 85.062 113.684 84.864 112.844 84.864C112.28 84.864 111.728 84.96 111.188 85.152C110.648 85.332 110.192 85.578 109.82 85.89L109.1 84.594C109.592 84.198 110.18 83.898 110.864 83.694C111.548 83.478 112.274 83.37 113.042 83.37ZM112.646 91.776C113.306 91.776 113.876 91.632 114.356 91.344C114.836 91.044 115.184 90.624 115.4 90.084V88.752H112.736C111.272 88.752 110.54 89.244 110.54 90.228C110.54 90.708 110.726 91.086 111.098 91.362C111.47 91.638 111.986 91.776 112.646 91.776ZM128.592 83.46L123.966 93.954C123.558 94.926 123.078 95.61 122.526 96.006C121.986 96.402 121.332 96.6 120.564 96.6C120.096 96.6 119.64 96.522 119.196 96.366C118.764 96.222 118.404 96.006 118.116 95.718L118.854 94.422C119.346 94.89 119.916 95.124 120.564 95.124C120.984 95.124 121.332 95.01 121.608 94.782C121.896 94.566 122.154 94.188 122.382 93.648L122.688 92.982L118.476 83.46H120.276L123.606 91.092L126.9 83.46H128.592ZM132.817 93.108C132.037 93.108 131.287 93.006 130.567 92.802C129.847 92.586 129.283 92.316 128.875 91.992L129.595 90.624C130.015 90.924 130.525 91.164 131.125 91.344C131.725 91.524 132.331 91.614 132.943 91.614C134.455 91.614 135.211 91.182 135.211 90.318C135.211 90.03 135.109 89.802 134.905 89.634C134.701 89.466 134.443 89.346 134.131 89.274C133.831 89.19 133.399 89.1 132.835 89.004C132.067 88.884 131.437 88.746 130.945 88.59C130.465 88.434 130.051 88.17 129.703 87.798C129.355 87.426 129.181 86.904 129.181 86.232C129.181 85.368 129.541 84.678 130.261 84.162C130.981 83.634 131.947 83.37 133.159 83.37C133.795 83.37 134.431 83.448 135.067 83.604C135.703 83.76 136.225 83.97 136.633 84.234L135.895 85.602C135.115 85.098 134.197 84.846 133.141 84.846C132.409 84.846 131.851 84.966 131.467 85.206C131.083 85.446 130.891 85.764 130.891 86.16C130.891 86.472 130.999 86.718 131.215 86.898C131.431 87.078 131.695 87.21 132.007 87.294C132.331 87.378 132.781 87.474 133.357 87.582C134.125 87.714 134.743 87.858 135.211 88.014C135.691 88.158 136.099 88.41 136.435 88.77C136.771 89.13 136.939 89.634 136.939 90.282C136.939 91.146 136.567 91.836 135.823 92.352C135.091 92.856 134.089 93.108 132.817 93.108ZM143.501 83.856H151.565V85.278H143.501V83.856ZM143.501 88.122H151.565V89.544H143.501V88.122Z" fill="#2F2F2F"/>
<path d="M177.517 85.692C178.753 85.812 179.695 86.196 180.343 86.844C180.991 87.48 181.315 88.296 181.315 89.292C181.315 90.012 181.135 90.666 180.775 91.254C180.415 91.83 179.875 92.292 179.155 92.64C178.447 92.976 177.577 93.144 176.545 93.144C175.645 93.144 174.781 93.012 173.953 92.748C173.125 92.472 172.447 92.094 171.919 91.614L172.747 90.192C173.179 90.6 173.731 90.93 174.403 91.182C175.075 91.422 175.789 91.542 176.545 91.542C177.481 91.542 178.207 91.344 178.723 90.948C179.251 90.552 179.515 90.006 179.515 89.31C179.515 88.614 179.257 88.074 178.741 87.69C178.225 87.306 177.445 87.114 176.401 87.114H175.393V85.854L178.561 81.966H172.495V80.4H180.811V81.624L177.517 85.692ZM193.956 89.904H191.562V93H189.816V89.904H182.814V88.644L189.258 80.4H191.202L185.028 88.356H189.87V85.62H191.562V88.356H193.956V89.904Z" fill="#2F2F2F"/>
<path d="M168 73H198V71H168V73ZM202 77V97H204V77H202ZM198 101H168V103H198V101ZM164 97V77H162V97H164ZM168 101C165.791 101 164 99.2091 164 97H162C162 100.314 164.686 103 168 103V101ZM202 97C202 99.2091 200.209 101 198 101V103C201.314 103 204 100.314 204 97H202ZM198 73C200.209 73 202 74.7909 202 77H204C204 73.6863 201.314 71 198 71V73ZM168 71C164.686 71 162 73.6863 162 77H164C164 74.7909 165.791 73 168 73V71Z" fill="#2F2F2F"/>
<path d="M177.517 85.692C178.753 85.812 179.695 86.196 180.343 86.844C180.991 87.48 181.315 88.296 181.315 89.292C181.315 90.012 181.135 90.666 180.775 91.254C180.415 91.83 179.875 92.292 179.155 92.64C178.447 92.976 177.577 93.144 176.545 93.144C175.645 93.144 174.781 93.012 173.953 92.748C173.125 92.472 172.447 92.094 171.919 91.614L172.747 90.192C173.179 90.6 173.731 90.93 174.403 91.182C175.075 91.422 175.789 91.542 176.545 91.542C177.481 91.542 178.207 91.344 178.723 90.948C179.251 90.552 179.515 90.006 179.515 89.31C179.515 88.614 179.257 88.074 178.741 87.69C178.225 87.306 177.445 87.114 176.401 87.114H175.393V85.854L178.561 81.966H172.495V80.4H180.811V81.624L177.517 85.692ZM193.956 89.904H191.562V93H189.816V89.904H182.814V88.644L189.258 80.4H191.202L185.028 88.356H189.87V85.62H191.562V88.356H193.956V89.904Z" fill="#2F2F2F"/>
<path d="M223.738 79.644V93H222.082V91.488C221.698 92.016 221.212 92.418 220.624 92.694C220.036 92.97 219.388 93.108 218.68 93.108C217.756 93.108 216.928 92.904 216.196 92.496C215.464 92.088 214.888 91.518 214.468 90.786C214.06 90.042 213.856 89.19 213.856 88.23C213.856 87.27 214.06 86.424 214.468 85.692C214.888 84.96 215.464 84.39 216.196 83.982C216.928 83.574 217.756 83.37 218.68 83.37C219.364 83.37 219.994 83.502 220.57 83.766C221.146 84.018 221.626 84.396 222.01 84.9V79.644H223.738ZM218.824 91.596C219.424 91.596 219.97 91.458 220.462 91.182C220.954 90.894 221.338 90.498 221.614 89.994C221.89 89.478 222.028 88.89 222.028 88.23C222.028 87.57 221.89 86.988 221.614 86.484C221.338 85.968 220.954 85.572 220.462 85.296C219.97 85.02 219.424 84.882 218.824 84.882C218.212 84.882 217.66 85.02 217.168 85.296C216.688 85.572 216.304 85.968 216.016 86.484C215.74 86.988 215.602 87.57 215.602 88.23C215.602 88.89 215.74 89.478 216.016 89.994C216.304 90.498 216.688 90.894 217.168 91.182C217.66 91.458 218.212 91.596 218.824 91.596ZM230.481 83.37C231.801 83.37 232.809 83.694 233.505 84.342C234.213 84.99 234.567 85.956 234.567 87.24V93H232.929V91.74C232.641 92.184 232.227 92.526 231.687 92.766C231.159 92.994 230.529 93.108 229.797 93.108C228.729 93.108 227.871 92.85 227.223 92.334C226.587 91.818 226.269 91.14 226.269 90.3C226.269 89.46 226.575 88.788 227.187 88.284C227.799 87.768 228.771 87.51 230.103 87.51H232.839V87.168C232.839 86.424 232.623 85.854 232.191 85.458C231.759 85.062 231.123 84.864 230.283 84.864C229.719 84.864 229.167 84.96 228.627 85.152C228.087 85.332 227.631 85.578 227.259 85.89L226.539 84.594C227.031 84.198 227.619 83.898 228.303 83.694C228.987 83.478 229.713 83.37 230.481 83.37ZM230.085 91.776C230.745 91.776 231.315 91.632 231.795 91.344C232.275 91.044 232.623 90.624 232.839 90.084V88.752H230.175C228.711 88.752 227.979 89.244 227.979 90.228C227.979 90.708 228.165 91.086 228.537 91.362C228.909 91.638 229.425 91.776 230.085 91.776ZM246.031 83.46L241.405 93.954C240.997 94.926 240.517 95.61 239.965 96.006C239.425 96.402 238.771 96.6 238.003 96.6C237.535 96.6 237.079 96.522 236.635 96.366C236.203 96.222 235.843 96.006 235.555 95.718L236.293 94.422C236.785 94.89 237.355 95.124 238.003 95.124C238.423 95.124 238.771 95.01 239.047 94.782C239.335 94.566 239.593 94.188 239.821 93.648L240.127 92.982L235.915 83.46H237.715L241.045 91.092L244.339 83.46H246.031ZM250.257 93.108C249.477 93.108 248.727 93.006 248.007 92.802C247.287 92.586 246.723 92.316 246.315 91.992L247.035 90.624C247.455 90.924 247.965 91.164 248.565 91.344C249.165 91.524 249.771 91.614 250.383 91.614C251.895 91.614 252.651 91.182 252.651 90.318C252.651 90.03 252.549 89.802 252.345 89.634C252.141 89.466 251.883 89.346 251.571 89.274C251.271 89.19 250.839 89.1 250.275 89.004C249.507 88.884 248.877 88.746 248.385 88.59C247.905 88.434 247.491 88.17 247.143 87.798C246.795 87.426 246.621 86.904 246.621 86.232C246.621 85.368 246.981 84.678 247.701 84.162C248.421 83.634 249.387 83.37 250.599 83.37C251.235 83.37 251.871 83.448 252.507 83.604C253.143 83.76 253.665 83.97 254.073 84.234L253.335 85.602C252.555 85.098 251.637 84.846 250.581 84.846C249.849 84.846 249.291 84.966 248.907 85.206C248.523 85.446 248.331 85.764 248.331 86.16C248.331 86.472 248.439 86.718 248.655 86.898C248.871 87.078 249.135 87.21 249.447 87.294C249.771 87.378 250.221 87.474 250.797 87.582C251.565 87.714 252.183 87.858 252.651 88.014C253.131 88.158 253.539 88.41 253.875 88.77C254.211 89.13 254.379 89.634 254.379 90.282C254.379 91.146 254.007 91.836 253.263 92.352C252.531 92.856 251.529 93.108 250.257 93.108Z" fill="#2F2F2F"/>
</svg>
