<svg width="703" height="175" viewBox="0 0 703 175" fill="none" xmlns="http://www.w3.org/2000/svg">
<path d="M10.3126 15.9V17.124L5.21855 28.5H3.31055L8.29655 17.466H2.53655V19.716H0.808555V15.9H10.3126ZM17.4984 15.144H19.2264V28.5H17.4984V15.144ZM22.5257 18.96H24.2537V28.5H22.5257V18.96ZM23.3897 17.124C23.0537 17.124 22.7717 17.016 22.5437 16.8C22.3277 16.584 22.2197 16.32 22.2197 16.008C22.2197 15.696 22.3277 15.432 22.5437 15.216C22.7717 14.988 23.0537 14.874 23.3897 14.874C23.7257 14.874 24.0017 14.982 24.2177 15.198C24.4457 15.402 24.5597 15.66 24.5597 15.972C24.5597 16.296 24.4457 16.572 24.2177 16.8C24.0017 17.016 23.7257 17.124 23.3897 17.124ZM32.917 27.942C32.665 28.158 32.353 28.326 31.981 28.446C31.609 28.554 31.225 28.608 30.829 28.608C29.869 28.608 29.125 28.35 28.597 27.834C28.069 27.318 27.805 26.58 27.805 25.62V20.382H26.185V18.96H27.805V16.872H29.533V18.96H32.269V20.382H29.533V25.548C29.533 26.064 29.659 26.46 29.911 26.736C30.175 27.012 30.547 27.15 31.027 27.15C31.555 27.15 32.005 27 32.377 26.7L32.917 27.942ZM43.3118 23.784C43.3118 23.916 43.2998 24.09 43.2758 24.306H35.5358C35.6438 25.146 36.0098 25.824 36.6338 26.34C37.2698 26.844 38.0558 27.096 38.9918 27.096C40.1318 27.096 41.0498 26.712 41.7458 25.944L42.6998 27.06C42.2678 27.564 41.7278 27.948 41.0798 28.212C40.4438 28.476 39.7298 28.608 38.9378 28.608C37.9298 28.608 37.0358 28.404 36.2558 27.996C35.4758 27.576 34.8698 26.994 34.4378 26.25C34.0178 25.506 33.8078 24.666 33.8078 23.73C33.8078 22.806 34.0118 21.972 34.4198 21.228C34.8398 20.484 35.4098 19.908 36.1298 19.5C36.8618 19.08 37.6838 18.87 38.5958 18.87C39.5078 18.87 40.3178 19.08 41.0258 19.5C41.7458 19.908 42.3038 20.484 42.6998 21.228C43.1078 21.972 43.3118 22.824 43.3118 23.784ZM38.5958 20.328C37.7678 20.328 37.0718 20.58 36.5078 21.084C35.9558 21.588 35.6318 22.248 35.5358 23.064H41.6558C41.5598 22.26 41.2298 21.606 40.6658 21.102C40.1138 20.586 39.4238 20.328 38.5958 20.328ZM47.3672 20.562C47.6672 20.01 48.1112 19.59 48.6992 19.302C49.2872 19.014 50.0012 18.87 50.8412 18.87V20.544C50.7452 20.532 50.6132 20.526 50.4452 20.526C49.5092 20.526 48.7712 20.808 48.2312 21.372C47.7032 21.924 47.4392 22.716 47.4392 23.748V28.5H45.7112V18.96H47.3672V20.562ZM55.7773 28.608C54.9973 28.608 54.2473 28.506 53.5273 28.302C52.8073 28.086 52.2433 27.816 51.8353 27.492L52.5553 26.124C52.9753 26.424 53.4853 26.664 54.0853 26.844C54.6853 27.024 55.2913 27.114 55.9033 27.114C57.4153 27.114 58.1713 26.682 58.1713 25.818C58.1713 25.53 58.0693 25.302 57.8653 25.134C57.6613 24.966 57.4033 24.846 57.0913 24.774C56.7913 24.69 56.3593 24.6 55.7953 24.504C55.0273 24.384 54.3973 24.246 53.9053 24.09C53.4253 23.934 53.0113 23.67 52.6633 23.298C52.3153 22.926 52.1413 22.404 52.1413 21.732C52.1413 20.868 52.5013 20.178 53.2213 19.662C53.9413 19.134 54.9073 18.87 56.1193 18.87C56.7553 18.87 57.3913 18.948 58.0273 19.104C58.6633 19.26 59.1853 19.47 59.5933 19.734L58.8553 21.102C58.0753 20.598 57.1573 20.346 56.1013 20.346C55.3693 20.346 54.8113 20.466 54.4273 20.706C54.0433 20.946 53.8513 21.264 53.8513 21.66C53.8513 21.972 53.9593 22.218 54.1753 22.398C54.3913 22.578 54.6553 22.71 54.9673 22.794C55.2913 22.878 55.7413 22.974 56.3173 23.082C57.0853 23.214 57.7033 23.358 58.1713 23.514C58.6513 23.658 59.0593 23.91 59.3953 24.27C59.7313 24.63 59.8993 25.134 59.8993 25.782C59.8993 26.646 59.5273 27.336 58.7833 27.852C58.0513 28.356 57.0493 28.608 55.7773 28.608ZM66.4609 19.356H74.5249V20.778H66.4609V19.356ZM66.4609 23.622H74.5249V25.044H66.4609V23.622Z" fill="#2F2F2F"/>
<path d="M91 5C91 2.23858 93.2386 0 96 0H156C158.761 0 161 2.23858 161 5V40C161 42.7614 158.761 45 156 45H96C93.2386 45 91 42.7614 91 40V5Z" fill="#369CB7"/>
<path d="M111.01 15.9V17.466L106.114 28.5H103.612L108.346 17.88H103.396V20.022H101.218V15.9H111.01ZM112.983 25.638C113.403 25.638 113.751 25.776 114.027 26.052C114.303 26.328 114.441 26.688 114.441 27.132C114.441 27.324 114.411 27.528 114.351 27.744C114.303 27.948 114.195 28.26 114.027 28.68L113.109 31.218H111.651L112.371 28.464C112.107 28.356 111.897 28.188 111.741 27.96C111.597 27.72 111.525 27.444 111.525 27.132C111.525 26.688 111.663 26.328 111.939 26.052C112.215 25.776 112.563 25.638 112.983 25.638ZM121 28.68C119.992 28.68 119.092 28.428 118.3 27.924C117.508 27.408 116.884 26.664 116.428 25.692C115.972 24.708 115.744 23.544 115.744 22.2C115.744 20.856 115.972 19.698 116.428 18.726C116.884 17.742 117.508 16.998 118.3 16.494C119.092 15.978 119.992 15.72 121 15.72C122.008 15.72 122.908 15.978 123.7 16.494C124.504 16.998 125.134 17.742 125.59 18.726C126.046 19.698 126.274 20.856 126.274 22.2C126.274 23.544 126.046 24.708 125.59 25.692C125.134 26.664 124.504 27.408 123.7 27.924C122.908 28.428 122.008 28.68 121 28.68ZM121 26.646C121.9 26.646 122.608 26.274 123.124 25.53C123.652 24.786 123.916 23.676 123.916 22.2C123.916 20.724 123.652 19.614 123.124 18.87C122.608 18.126 121.9 17.754 121 17.754C120.112 17.754 119.404 18.126 118.876 18.87C118.36 19.614 118.102 20.724 118.102 22.2C118.102 23.676 118.36 24.786 118.876 25.53C119.404 26.274 120.112 26.646 121 26.646ZM133.111 28.68C132.103 28.68 131.203 28.428 130.411 27.924C129.619 27.408 128.995 26.664 128.539 25.692C128.083 24.708 127.855 23.544 127.855 22.2C127.855 20.856 128.083 19.698 128.539 18.726C128.995 17.742 129.619 16.998 130.411 16.494C131.203 15.978 132.103 15.72 133.111 15.72C134.119 15.72 135.019 15.978 135.811 16.494C136.615 16.998 137.245 17.742 137.701 18.726C138.157 19.698 138.385 20.856 138.385 22.2C138.385 23.544 138.157 24.708 137.701 25.692C137.245 26.664 136.615 27.408 135.811 27.924C135.019 28.428 134.119 28.68 133.111 28.68ZM133.111 26.646C134.011 26.646 134.719 26.274 135.235 25.53C135.763 24.786 136.027 23.676 136.027 22.2C136.027 20.724 135.763 19.614 135.235 18.87C134.719 18.126 134.011 17.754 133.111 17.754C132.223 17.754 131.515 18.126 130.987 18.87C130.471 19.614 130.213 20.724 130.213 22.2C130.213 23.676 130.471 24.786 130.987 25.53C131.515 26.274 132.223 26.646 133.111 26.646ZM145.223 28.68C144.215 28.68 143.315 28.428 142.523 27.924C141.731 27.408 141.107 26.664 140.651 25.692C140.195 24.708 139.967 23.544 139.967 22.2C139.967 20.856 140.195 19.698 140.651 18.726C141.107 17.742 141.731 16.998 142.523 16.494C143.315 15.978 144.215 15.72 145.223 15.72C146.231 15.72 147.131 15.978 147.923 16.494C148.727 16.998 149.357 17.742 149.813 18.726C150.269 19.698 150.497 20.856 150.497 22.2C150.497 23.544 150.269 24.708 149.813 25.692C149.357 26.664 148.727 27.408 147.923 27.924C147.131 28.428 146.231 28.68 145.223 28.68ZM145.223 26.646C146.123 26.646 146.831 26.274 147.347 25.53C147.875 24.786 148.139 23.676 148.139 22.2C148.139 20.724 147.875 19.614 147.347 18.87C146.831 18.126 146.123 17.754 145.223 17.754C144.335 17.754 143.627 18.126 143.099 18.87C142.583 19.614 142.325 20.724 142.325 22.2C142.325 23.676 142.583 24.786 143.099 25.53C143.627 26.274 144.335 26.646 145.223 26.646Z" fill="white"/>
<path d="M96 1H156V-1H96V1ZM160 5V40H162V5H160ZM156 44H96V46H156V44ZM92 40V5H90V40H92ZM96 44C93.7909 44 92 42.2091 92 40H90C90 43.3137 92.6863 46 96 46V44ZM160 40C160 42.2091 158.209 44 156 44V46C159.314 46 162 43.3137 162 40H160ZM156 1C158.209 1 160 2.79086 160 5H162C162 1.68629 159.314 -1 156 -1V1ZM96 -1C92.6863 -1 90 1.68629 90 5H92C92 2.79086 93.7909 1 96 1V-1Z" fill="#369CB7"/>
<path d="M189.727 18.87C190.927 18.87 191.875 19.218 192.571 19.914C193.279 20.61 193.633 21.642 193.633 23.01V28.5H191.905V23.208C191.905 22.284 191.689 21.588 191.257 21.12C190.837 20.652 190.231 20.418 189.439 20.418C188.563 20.418 187.867 20.694 187.351 21.246C186.835 21.786 186.577 22.566 186.577 23.586V28.5H184.849V23.208C184.849 22.284 184.633 21.588 184.201 21.12C183.781 20.652 183.175 20.418 182.383 20.418C181.507 20.418 180.811 20.694 180.295 21.246C179.779 21.786 179.521 22.566 179.521 23.586V28.5H177.793V18.96H179.449V20.382C179.797 19.89 180.253 19.518 180.817 19.266C181.381 19.002 182.023 18.87 182.743 18.87C183.487 18.87 184.147 19.02 184.723 19.32C185.299 19.62 185.743 20.058 186.055 20.634C186.415 20.082 186.913 19.65 187.549 19.338C188.197 19.026 188.923 18.87 189.727 18.87ZM196.813 18.96H198.541V28.5H196.813V18.96ZM197.677 17.124C197.341 17.124 197.059 17.016 196.831 16.8C196.615 16.584 196.507 16.32 196.507 16.008C196.507 15.696 196.615 15.432 196.831 15.216C197.059 14.988 197.341 14.874 197.677 14.874C198.013 14.874 198.289 14.982 198.505 15.198C198.733 15.402 198.847 15.66 198.847 15.972C198.847 16.296 198.733 16.572 198.505 16.8C198.289 17.016 198.013 17.124 197.677 17.124ZM201.84 15.144H203.568V28.5H201.84V15.144ZM206.867 15.144H208.595V28.5H206.867V15.144ZM211.895 18.96H213.623V28.5H211.895V18.96ZM212.759 17.124C212.423 17.124 212.141 17.016 211.913 16.8C211.697 16.584 211.589 16.32 211.589 16.008C211.589 15.696 211.697 15.432 211.913 15.216C212.141 14.988 212.423 14.874 212.759 14.874C213.095 14.874 213.371 14.982 213.587 15.198C213.815 15.402 213.929 15.66 213.929 15.972C213.929 16.296 213.815 16.572 213.587 16.8C213.371 17.016 213.095 17.124 212.759 17.124ZM216.922 15.144H218.65V28.5H216.922V15.144ZM221.95 18.96H223.678V28.5H221.95V18.96ZM222.814 17.124C222.478 17.124 222.196 17.016 221.968 16.8C221.752 16.584 221.644 16.32 221.644 16.008C221.644 15.696 221.752 15.432 221.968 15.216C222.196 14.988 222.478 14.874 222.814 14.874C223.15 14.874 223.426 14.982 223.642 15.198C223.87 15.402 223.984 15.66 223.984 15.972C223.984 16.296 223.87 16.572 223.642 16.8C223.426 17.016 223.15 17.124 222.814 17.124ZM232.341 27.942C232.089 28.158 231.777 28.326 231.405 28.446C231.033 28.554 230.649 28.608 230.253 28.608C229.293 28.608 228.549 28.35 228.021 27.834C227.493 27.318 227.229 26.58 227.229 25.62V20.382H225.609V18.96H227.229V16.872H228.957V18.96H231.693V20.382H228.957V25.548C228.957 26.064 229.083 26.46 229.335 26.736C229.599 27.012 229.971 27.15 230.451 27.15C230.979 27.15 231.429 27 231.801 26.7L232.341 27.942ZM242.736 23.784C242.736 23.916 242.724 24.09 242.7 24.306H234.96C235.068 25.146 235.434 25.824 236.058 26.34C236.694 26.844 237.48 27.096 238.416 27.096C239.556 27.096 240.474 26.712 241.17 25.944L242.124 27.06C241.692 27.564 241.152 27.948 240.504 28.212C239.868 28.476 239.154 28.608 238.362 28.608C237.354 28.608 236.46 28.404 235.68 27.996C234.9 27.576 234.294 26.994 233.862 26.25C233.442 25.506 233.232 24.666 233.232 23.73C233.232 22.806 233.436 21.972 233.844 21.228C234.264 20.484 234.834 19.908 235.554 19.5C236.286 19.08 237.108 18.87 238.02 18.87C238.932 18.87 239.742 19.08 240.45 19.5C241.17 19.908 241.728 20.484 242.124 21.228C242.532 21.972 242.736 22.824 242.736 23.784ZM238.02 20.328C237.192 20.328 236.496 20.58 235.932 21.084C235.38 21.588 235.056 22.248 234.96 23.064H241.08C240.984 22.26 240.654 21.606 240.09 21.102C239.538 20.586 238.848 20.328 238.02 20.328ZM246.791 20.562C247.091 20.01 247.535 19.59 248.123 19.302C248.711 19.014 249.425 18.87 250.265 18.87V20.544C250.169 20.532 250.037 20.526 249.869 20.526C248.933 20.526 248.195 20.808 247.655 21.372C247.127 21.924 246.863 22.716 246.863 23.748V28.5H245.135V18.96H246.791V20.562ZM255.201 28.608C254.421 28.608 253.671 28.506 252.951 28.302C252.231 28.086 251.667 27.816 251.259 27.492L251.979 26.124C252.399 26.424 252.909 26.664 253.509 26.844C254.109 27.024 254.715 27.114 255.327 27.114C256.839 27.114 257.595 26.682 257.595 25.818C257.595 25.53 257.493 25.302 257.289 25.134C257.085 24.966 256.827 24.846 256.515 24.774C256.215 24.69 255.783 24.6 255.219 24.504C254.451 24.384 253.821 24.246 253.329 24.09C252.849 23.934 252.435 23.67 252.087 23.298C251.739 22.926 251.565 22.404 251.565 21.732C251.565 20.868 251.925 20.178 252.645 19.662C253.365 19.134 254.331 18.87 255.543 18.87C256.179 18.87 256.815 18.948 257.451 19.104C258.087 19.26 258.609 19.47 259.017 19.734L258.279 21.102C257.499 20.598 256.581 20.346 255.525 20.346C254.793 20.346 254.235 20.466 253.851 20.706C253.467 20.946 253.275 21.264 253.275 21.66C253.275 21.972 253.383 22.218 253.599 22.398C253.815 22.578 254.079 22.71 254.391 22.794C254.715 22.878 255.165 22.974 255.741 23.082C256.509 23.214 257.127 23.358 257.595 23.514C258.075 23.658 258.483 23.91 258.819 24.27C259.155 24.63 259.323 25.134 259.323 25.782C259.323 26.646 258.951 27.336 258.207 27.852C257.475 28.356 256.473 28.608 255.201 28.608Z" fill="#2F2F2F"/>
<path d="M0 70C0 67.2386 2.23858 65 5 65H65C67.7614 65 70 67.2386 70 70V105C70 107.761 67.7614 110 65 110H5C2.23858 110 0 107.761 0 105V70Z" fill="#369CB7"/>
<path d="M14.2194 85.778C15.9954 85.778 17.3094 86.126 18.1614 86.822C19.0134 87.506 19.4394 88.442 19.4394 89.63C19.4394 90.386 19.2534 91.07 18.8814 91.682C18.5094 92.294 17.9514 92.78 17.2074 93.14C16.4634 93.5 15.5454 93.68 14.4534 93.68C13.5534 93.68 12.6834 93.554 11.8434 93.302C11.0034 93.038 10.2954 92.678 9.71935 92.222L10.7094 90.404C11.1774 90.788 11.7354 91.094 12.3834 91.322C13.0434 91.538 13.7214 91.646 14.4174 91.646C15.2454 91.646 15.8934 91.478 16.3614 91.142C16.8414 90.794 17.0814 90.32 17.0814 89.72C17.0814 89.072 16.8234 88.586 16.3074 88.262C15.8034 87.926 14.9334 87.758 13.6974 87.758H10.6554L11.3034 80.9H18.7014V82.862H13.2834L13.0134 85.778H14.2194ZM22.2111 90.638C22.6311 90.638 22.9791 90.776 23.2551 91.052C23.5311 91.328 23.6691 91.688 23.6691 92.132C23.6691 92.324 23.6391 92.528 23.5791 92.744C23.5311 92.948 23.4231 93.26 23.2551 93.68L22.3371 96.218H20.8791L21.5991 93.464C21.3351 93.356 21.1251 93.188 20.9691 92.96C20.8251 92.72 20.7531 92.444 20.7531 92.132C20.7531 91.688 20.8911 91.328 21.1671 91.052C21.4431 90.776 21.7911 90.638 22.2111 90.638ZM30.2287 93.68C29.2207 93.68 28.3207 93.428 27.5287 92.924C26.7367 92.408 26.1127 91.664 25.6567 90.692C25.2007 89.708 24.9727 88.544 24.9727 87.2C24.9727 85.856 25.2007 84.698 25.6567 83.726C26.1127 82.742 26.7367 81.998 27.5287 81.494C28.3207 80.978 29.2207 80.72 30.2287 80.72C31.2367 80.72 32.1367 80.978 32.9287 81.494C33.7327 81.998 34.3627 82.742 34.8187 83.726C35.2747 84.698 35.5027 85.856 35.5027 87.2C35.5027 88.544 35.2747 89.708 34.8187 90.692C34.3627 91.664 33.7327 92.408 32.9287 92.924C32.1367 93.428 31.2367 93.68 30.2287 93.68ZM30.2287 91.646C31.1287 91.646 31.8367 91.274 32.3527 90.53C32.8807 89.786 33.1447 88.676 33.1447 87.2C33.1447 85.724 32.8807 84.614 32.3527 83.87C31.8367 83.126 31.1287 82.754 30.2287 82.754C29.3407 82.754 28.6327 83.126 28.1047 83.87C27.5887 84.614 27.3307 85.724 27.3307 87.2C27.3307 88.676 27.5887 89.786 28.1047 90.53C28.6327 91.274 29.3407 91.646 30.2287 91.646ZM42.34 93.68C41.332 93.68 40.432 93.428 39.64 92.924C38.848 92.408 38.224 91.664 37.768 90.692C37.312 89.708 37.084 88.544 37.084 87.2C37.084 85.856 37.312 84.698 37.768 83.726C38.224 82.742 38.848 81.998 39.64 81.494C40.432 80.978 41.332 80.72 42.34 80.72C43.348 80.72 44.248 80.978 45.04 81.494C45.844 81.998 46.474 82.742 46.93 83.726C47.386 84.698 47.614 85.856 47.614 87.2C47.614 88.544 47.386 89.708 46.93 90.692C46.474 91.664 45.844 92.408 45.04 92.924C44.248 93.428 43.348 93.68 42.34 93.68ZM42.34 91.646C43.24 91.646 43.948 91.274 44.464 90.53C44.992 89.786 45.256 88.676 45.256 87.2C45.256 85.724 44.992 84.614 44.464 83.87C43.948 83.126 43.24 82.754 42.34 82.754C41.452 82.754 40.744 83.126 40.216 83.87C39.7 84.614 39.442 85.724 39.442 87.2C39.442 88.676 39.7 89.786 40.216 90.53C40.744 91.274 41.452 91.646 42.34 91.646ZM54.4513 93.68C53.4433 93.68 52.5433 93.428 51.7513 92.924C50.9593 92.408 50.3353 91.664 49.8793 90.692C49.4233 89.708 49.1953 88.544 49.1953 87.2C49.1953 85.856 49.4233 84.698 49.8793 83.726C50.3353 82.742 50.9593 81.998 51.7513 81.494C52.5433 80.978 53.4433 80.72 54.4513 80.72C55.4593 80.72 56.3593 80.978 57.1513 81.494C57.9553 81.998 58.5853 82.742 59.0413 83.726C59.4973 84.698 59.7253 85.856 59.7253 87.2C59.7253 88.544 59.4973 89.708 59.0413 90.692C58.5853 91.664 57.9553 92.408 57.1513 92.924C56.3593 93.428 55.4593 93.68 54.4513 93.68ZM54.4513 91.646C55.3513 91.646 56.0593 91.274 56.5753 90.53C57.1033 89.786 57.3673 88.676 57.3673 87.2C57.3673 85.724 57.1033 84.614 56.5753 83.87C56.0593 83.126 55.3513 82.754 54.4513 82.754C53.5633 82.754 52.8553 83.126 52.3273 83.87C51.8113 84.614 51.5533 85.724 51.5533 87.2C51.5533 88.676 51.8113 89.786 52.3273 90.53C52.8553 91.274 53.5633 91.646 54.4513 91.646Z" fill="white"/>
<path d="M5 66H65V64H5V66ZM69 70V105H71V70H69ZM65 109H5V111H65V109ZM1 105V70H-1V105H1ZM5 109C2.79086 109 1 107.209 1 105H-1C-1 108.314 1.68629 111 5 111V109ZM69 105C69 107.209 67.2091 109 65 109V111C68.3137 111 71 108.314 71 105H69ZM65 66C67.2091 66 69 67.7909 69 70H71C71 66.6863 68.3137 64 65 64V66ZM5 64C1.68629 64 -1 66.6863 -1 70H1C1 67.7909 2.79086 66 5 66V64Z" fill="#369CB7"/>
<path d="M98.655 83.87C99.855 83.87 100.803 84.218 101.499 84.914C102.207 85.61 102.561 86.642 102.561 88.01V93.5H100.833V88.208C100.833 87.284 100.617 86.588 100.185 86.12C99.765 85.652 99.159 85.418 98.367 85.418C97.491 85.418 96.795 85.694 96.279 86.246C95.763 86.786 95.505 87.566 95.505 88.586V93.5H93.777V88.208C93.777 87.284 93.561 86.588 93.129 86.12C92.709 85.652 92.103 85.418 91.311 85.418C90.435 85.418 89.739 85.694 89.223 86.246C88.707 86.786 88.449 87.566 88.449 88.586V93.5H86.721V83.96H88.377V85.382C88.725 84.89 89.181 84.518 89.745 84.266C90.309 84.002 90.951 83.87 91.671 83.87C92.415 83.87 93.075 84.02 93.651 84.32C94.227 84.62 94.671 85.058 94.983 85.634C95.343 85.082 95.841 84.65 96.477 84.338C97.125 84.026 97.851 83.87 98.655 83.87ZM105.741 83.96H107.469V93.5H105.741V83.96ZM106.605 82.124C106.269 82.124 105.987 82.016 105.759 81.8C105.543 81.584 105.435 81.32 105.435 81.008C105.435 80.696 105.543 80.432 105.759 80.216C105.987 79.988 106.269 79.874 106.605 79.874C106.941 79.874 107.217 79.982 107.433 80.198C107.661 80.402 107.775 80.66 107.775 80.972C107.775 81.296 107.661 81.572 107.433 81.8C107.217 82.016 106.941 82.124 106.605 82.124ZM110.768 80.144H112.496V93.5H110.768V80.144ZM115.795 80.144H117.523V93.5H115.795V80.144ZM120.823 83.96H122.551V93.5H120.823V83.96ZM121.687 82.124C121.351 82.124 121.069 82.016 120.841 81.8C120.625 81.584 120.517 81.32 120.517 81.008C120.517 80.696 120.625 80.432 120.841 80.216C121.069 79.988 121.351 79.874 121.687 79.874C122.023 79.874 122.299 79.982 122.515 80.198C122.743 80.402 122.857 80.66 122.857 80.972C122.857 81.296 122.743 81.572 122.515 81.8C122.299 82.016 122.023 82.124 121.687 82.124ZM125.85 80.144H127.578V93.5H125.85V80.144ZM130.877 83.96H132.605V93.5H130.877V83.96ZM131.741 82.124C131.405 82.124 131.123 82.016 130.895 81.8C130.679 81.584 130.571 81.32 130.571 81.008C130.571 80.696 130.679 80.432 130.895 80.216C131.123 79.988 131.405 79.874 131.741 79.874C132.077 79.874 132.353 79.982 132.569 80.198C132.797 80.402 132.911 80.66 132.911 80.972C132.911 81.296 132.797 81.572 132.569 81.8C132.353 82.016 132.077 82.124 131.741 82.124ZM141.269 92.942C141.017 93.158 140.705 93.326 140.333 93.446C139.961 93.554 139.577 93.608 139.181 93.608C138.221 93.608 137.477 93.35 136.949 92.834C136.421 92.318 136.157 91.58 136.157 90.62V85.382H134.537V83.96H136.157V81.872H137.885V83.96H140.621V85.382H137.885V90.548C137.885 91.064 138.011 91.46 138.263 91.736C138.527 92.012 138.899 92.15 139.379 92.15C139.907 92.15 140.357 92 140.729 91.7L141.269 92.942ZM151.663 88.784C151.663 88.916 151.651 89.09 151.627 89.306H143.887C143.995 90.146 144.361 90.824 144.985 91.34C145.621 91.844 146.407 92.096 147.343 92.096C148.483 92.096 149.401 91.712 150.097 90.944L151.051 92.06C150.619 92.564 150.079 92.948 149.431 93.212C148.795 93.476 148.081 93.608 147.289 93.608C146.281 93.608 145.387 93.404 144.607 92.996C143.827 92.576 143.221 91.994 142.789 91.25C142.369 90.506 142.159 89.666 142.159 88.73C142.159 87.806 142.363 86.972 142.771 86.228C143.191 85.484 143.761 84.908 144.481 84.5C145.213 84.08 146.035 83.87 146.947 83.87C147.859 83.87 148.669 84.08 149.377 84.5C150.097 84.908 150.655 85.484 151.051 86.228C151.459 86.972 151.663 87.824 151.663 88.784ZM146.947 85.328C146.119 85.328 145.423 85.58 144.859 86.084C144.307 86.588 143.983 87.248 143.887 88.064H150.007C149.911 87.26 149.581 86.606 149.017 86.102C148.465 85.586 147.775 85.328 146.947 85.328ZM155.719 85.562C156.019 85.01 156.463 84.59 157.051 84.302C157.639 84.014 158.353 83.87 159.193 83.87V85.544C159.097 85.532 158.965 85.526 158.797 85.526C157.861 85.526 157.123 85.808 156.583 86.372C156.055 86.924 155.791 87.716 155.791 88.748V93.5H154.063V83.96H155.719V85.562ZM164.129 93.608C163.349 93.608 162.599 93.506 161.879 93.302C161.159 93.086 160.595 92.816 160.187 92.492L160.907 91.124C161.327 91.424 161.837 91.664 162.437 91.844C163.037 92.024 163.643 92.114 164.255 92.114C165.767 92.114 166.523 91.682 166.523 90.818C166.523 90.53 166.421 90.302 166.217 90.134C166.013 89.966 165.755 89.846 165.443 89.774C165.143 89.69 164.711 89.6 164.147 89.504C163.379 89.384 162.749 89.246 162.257 89.09C161.777 88.934 161.363 88.67 161.015 88.298C160.667 87.926 160.493 87.404 160.493 86.732C160.493 85.868 160.853 85.178 161.573 84.662C162.293 84.134 163.259 83.87 164.471 83.87C165.107 83.87 165.743 83.948 166.379 84.104C167.015 84.26 167.537 84.47 167.945 84.734L167.207 86.102C166.427 85.598 165.509 85.346 164.453 85.346C163.721 85.346 163.163 85.466 162.779 85.706C162.395 85.946 162.203 86.264 162.203 86.66C162.203 86.972 162.311 87.218 162.527 87.398C162.743 87.578 163.007 87.71 163.319 87.794C163.643 87.878 164.093 87.974 164.669 88.082C165.437 88.214 166.055 88.358 166.523 88.514C167.003 88.658 167.411 88.91 167.747 89.27C168.083 89.63 168.251 90.134 168.251 90.782C168.251 91.646 167.879 92.336 167.135 92.852C166.403 93.356 165.401 93.608 164.129 93.608ZM179.646 84.356H187.71V85.778H179.646V84.356ZM179.646 88.622H187.71V90.044H179.646V88.622Z" fill="#2F2F2F"/>
<path d="M208.599 85.922C210.399 85.922 211.719 86.264 212.559 86.948C213.411 87.62 213.837 88.544 213.837 89.72C213.837 90.464 213.657 91.136 213.297 91.736C212.949 92.324 212.415 92.792 211.695 93.14C210.987 93.476 210.111 93.644 209.067 93.644C208.179 93.644 207.321 93.512 206.493 93.248C205.665 92.972 204.981 92.594 204.441 92.114L205.269 90.692C205.701 91.1 206.253 91.43 206.925 91.682C207.597 91.922 208.305 92.042 209.049 92.042C209.997 92.042 210.729 91.844 211.245 91.448C211.773 91.04 212.037 90.488 212.037 89.792C212.037 89.036 211.749 88.466 211.173 88.082C210.597 87.686 209.613 87.488 208.221 87.488H205.359L206.025 80.9H213.135V82.466H207.537L207.195 85.922H208.599ZM220.943 80.144H222.671V93.5H220.943V80.144ZM225.97 83.96H227.698V93.5H225.97V83.96ZM226.834 82.124C226.498 82.124 226.216 82.016 225.988 81.8C225.772 81.584 225.664 81.32 225.664 81.008C225.664 80.696 225.772 80.432 225.988 80.216C226.216 79.988 226.498 79.874 226.834 79.874C227.17 79.874 227.446 79.982 227.662 80.198C227.89 80.402 228.004 80.66 228.004 80.972C228.004 81.296 227.89 81.572 227.662 81.8C227.446 82.016 227.17 82.124 226.834 82.124ZM236.361 92.942C236.109 93.158 235.797 93.326 235.425 93.446C235.053 93.554 234.669 93.608 234.273 93.608C233.313 93.608 232.569 93.35 232.041 92.834C231.513 92.318 231.249 91.58 231.249 90.62V85.382H229.629V83.96H231.249V81.872H232.977V83.96H235.713V85.382H232.977V90.548C232.977 91.064 233.103 91.46 233.355 91.736C233.619 92.012 233.991 92.15 234.471 92.15C234.999 92.15 235.449 92 235.821 91.7L236.361 92.942ZM246.756 88.784C246.756 88.916 246.744 89.09 246.72 89.306H238.98C239.088 90.146 239.454 90.824 240.078 91.34C240.714 91.844 241.5 92.096 242.436 92.096C243.576 92.096 244.494 91.712 245.19 90.944L246.144 92.06C245.712 92.564 245.172 92.948 244.524 93.212C243.888 93.476 243.174 93.608 242.382 93.608C241.374 93.608 240.48 93.404 239.7 92.996C238.92 92.576 238.314 91.994 237.882 91.25C237.462 90.506 237.252 89.666 237.252 88.73C237.252 87.806 237.456 86.972 237.864 86.228C238.284 85.484 238.854 84.908 239.574 84.5C240.306 84.08 241.128 83.87 242.04 83.87C242.952 83.87 243.762 84.08 244.47 84.5C245.19 84.908 245.748 85.484 246.144 86.228C246.552 86.972 246.756 87.824 246.756 88.784ZM242.04 85.328C241.212 85.328 240.516 85.58 239.952 86.084C239.4 86.588 239.076 87.248 238.98 88.064H245.1C245.004 87.26 244.674 86.606 244.11 86.102C243.558 85.586 242.868 85.328 242.04 85.328ZM250.812 85.562C251.112 85.01 251.556 84.59 252.144 84.302C252.732 84.014 253.446 83.87 254.286 83.87V85.544C254.19 85.532 254.058 85.526 253.89 85.526C252.954 85.526 252.216 85.808 251.676 86.372C251.148 86.924 250.884 87.716 250.884 88.748V93.5H249.156V83.96H250.812V85.562ZM259.222 93.608C258.442 93.608 257.692 93.506 256.972 93.302C256.252 93.086 255.688 92.816 255.28 92.492L256 91.124C256.42 91.424 256.93 91.664 257.53 91.844C258.13 92.024 258.736 92.114 259.348 92.114C260.86 92.114 261.616 91.682 261.616 90.818C261.616 90.53 261.514 90.302 261.31 90.134C261.106 89.966 260.848 89.846 260.536 89.774C260.236 89.69 259.804 89.6 259.24 89.504C258.472 89.384 257.842 89.246 257.35 89.09C256.87 88.934 256.456 88.67 256.108 88.298C255.76 87.926 255.586 87.404 255.586 86.732C255.586 85.868 255.946 85.178 256.666 84.662C257.386 84.134 258.352 83.87 259.564 83.87C260.2 83.87 260.836 83.948 261.472 84.104C262.108 84.26 262.63 84.47 263.038 84.734L262.3 86.102C261.52 85.598 260.602 85.346 259.546 85.346C258.814 85.346 258.256 85.466 257.872 85.706C257.488 85.946 257.296 86.264 257.296 86.66C257.296 86.972 257.404 87.218 257.62 87.398C257.836 87.578 258.1 87.71 258.412 87.794C258.736 87.878 259.186 87.974 259.762 88.082C260.53 88.214 261.148 88.358 261.616 88.514C262.096 88.658 262.504 88.91 262.84 89.27C263.176 89.63 263.344 90.134 263.344 90.782C263.344 91.646 262.972 92.336 262.228 92.852C261.496 93.356 260.494 93.608 259.222 93.608Z" fill="#2F2F2F"/>
<path d="M6.79805 150.85C7.62605 150.85 8.36405 151.006 9.01205 151.318C9.67205 151.63 10.188 152.08 10.56 152.668C10.932 153.244 11.118 153.91 11.118 154.666C11.118 155.458 10.92 156.154 10.524 156.754C10.14 157.354 9.60605 157.822 8.92205 158.158C8.25005 158.482 7.49405 158.644 6.65405 158.644C4.96205 158.644 3.65405 158.098 2.73005 157.006C1.81805 155.914 1.36205 154.366 1.36205 152.362C1.36205 150.958 1.60805 149.764 2.10005 148.78C2.60405 147.784 3.30005 147.034 4.18805 146.53C5.08805 146.014 6.13205 145.756 7.32005 145.756C7.93205 145.756 8.50805 145.822 9.04805 145.954C9.58805 146.074 10.056 146.254 10.452 146.494L9.76805 147.898C9.16805 147.502 8.36405 147.304 7.35605 147.304C6.04805 147.304 5.02205 147.712 4.27805 148.528C3.53405 149.332 3.16205 150.508 3.16205 152.056C3.16205 152.248 3.16805 152.398 3.18005 152.506C3.54005 151.966 4.03205 151.558 4.65605 151.282C5.29205 150.994 6.00605 150.85 6.79805 150.85ZM6.58205 157.186C7.41005 157.186 8.08205 156.964 8.59805 156.52C9.11405 156.076 9.37205 155.482 9.37205 154.738C9.37205 153.994 9.10805 153.406 8.58005 152.974C8.06405 152.53 7.36805 152.308 6.49205 152.308C5.92805 152.308 5.42405 152.416 4.98005 152.632C4.54805 152.848 4.20605 153.142 3.95405 153.514C3.71405 153.886 3.59405 154.3 3.59405 154.756C3.59405 155.2 3.70805 155.608 3.93605 155.98C4.17605 156.34 4.51805 156.634 4.96205 156.862C5.41805 157.078 5.95805 157.186 6.58205 157.186ZM13.8532 156.142C14.1892 156.142 14.4652 156.262 14.6812 156.502C14.9092 156.73 15.0232 157.018 15.0232 157.366C15.0232 157.546 14.9992 157.72 14.9512 157.888C14.9152 158.056 14.8372 158.314 14.7172 158.662L13.8712 161.164H12.7372L13.4032 158.482C13.1752 158.398 12.9892 158.26 12.8452 158.068C12.7132 157.864 12.6472 157.63 12.6472 157.366C12.6472 157.006 12.7612 156.712 12.9892 156.484C13.2172 156.256 13.5052 156.142 13.8532 156.142ZM21.6624 158.644C20.6664 158.644 19.7784 158.392 18.9984 157.888C18.2304 157.372 17.6244 156.628 17.1804 155.656C16.7364 154.684 16.5144 153.532 16.5144 152.2C16.5144 150.868 16.7364 149.716 17.1804 148.744C17.6244 147.772 18.2304 147.034 18.9984 146.53C19.7784 146.014 20.6664 145.756 21.6624 145.756C22.6464 145.756 23.5224 146.014 24.2904 146.53C25.0704 147.034 25.6824 147.772 26.1264 148.744C26.5704 149.716 26.7924 150.868 26.7924 152.2C26.7924 153.532 26.5704 154.684 26.1264 155.656C25.6824 156.628 25.0704 157.372 24.2904 157.888C23.5224 158.392 22.6464 158.644 21.6624 158.644ZM21.6624 157.042C22.6704 157.042 23.4744 156.628 24.0744 155.8C24.6864 154.972 24.9924 153.772 24.9924 152.2C24.9924 150.628 24.6864 149.428 24.0744 148.6C23.4744 147.772 22.6704 147.358 21.6624 147.358C20.6424 147.358 19.8264 147.772 19.2144 148.6C18.6144 149.428 18.3144 150.628 18.3144 152.2C18.3144 153.772 18.6144 154.972 19.2144 155.8C19.8264 156.628 20.6424 157.042 21.6624 157.042ZM33.6683 158.644C32.6723 158.644 31.7843 158.392 31.0043 157.888C30.2363 157.372 29.6303 156.628 29.1863 155.656C28.7423 154.684 28.5203 153.532 28.5203 152.2C28.5203 150.868 28.7423 149.716 29.1863 148.744C29.6303 147.772 30.2363 147.034 31.0043 146.53C31.7843 146.014 32.6723 145.756 33.6683 145.756C34.6523 145.756 35.5283 146.014 36.2963 146.53C37.0763 147.034 37.6883 147.772 38.1323 148.744C38.5763 149.716 38.7983 150.868 38.7983 152.2C38.7983 153.532 38.5763 154.684 38.1323 155.656C37.6883 156.628 37.0763 157.372 36.2963 157.888C35.5283 158.392 34.6523 158.644 33.6683 158.644ZM33.6683 157.042C34.6763 157.042 35.4803 156.628 36.0803 155.8C36.6923 154.972 36.9983 153.772 36.9983 152.2C36.9983 150.628 36.6923 149.428 36.0803 148.6C35.4803 147.772 34.6763 147.358 33.6683 147.358C32.6483 147.358 31.8323 147.772 31.2203 148.6C30.6203 149.428 30.3203 150.628 30.3203 152.2C30.3203 153.772 30.6203 154.972 31.2203 155.8C31.8323 156.628 32.6483 157.042 33.6683 157.042ZM45.6741 158.644C44.6781 158.644 43.7901 158.392 43.0101 157.888C42.2421 157.372 41.6361 156.628 41.1921 155.656C40.7481 154.684 40.5261 153.532 40.5261 152.2C40.5261 150.868 40.7481 149.716 41.1921 148.744C41.6361 147.772 42.2421 147.034 43.0101 146.53C43.7901 146.014 44.6781 145.756 45.6741 145.756C46.6581 145.756 47.5341 146.014 48.3021 146.53C49.0821 147.034 49.6941 147.772 50.1381 148.744C50.5821 149.716 50.8041 150.868 50.8041 152.2C50.8041 153.532 50.5821 154.684 50.1381 155.656C49.6941 156.628 49.0821 157.372 48.3021 157.888C47.5341 158.392 46.6581 158.644 45.6741 158.644ZM45.6741 157.042C46.6821 157.042 47.4861 156.628 48.0861 155.8C48.6981 154.972 49.0041 153.772 49.0041 152.2C49.0041 150.628 48.6981 149.428 48.0861 148.6C47.4861 147.772 46.6821 147.358 45.6741 147.358C44.6541 147.358 43.8381 147.772 43.2261 148.6C42.6261 149.428 42.3261 150.628 42.3261 152.2C42.3261 153.772 42.6261 154.972 43.2261 155.8C43.8381 156.628 44.6541 157.042 45.6741 157.042ZM70.074 148.87C71.274 148.87 72.222 149.218 72.918 149.914C73.626 150.61 73.98 151.642 73.98 153.01V158.5H72.252V153.208C72.252 152.284 72.036 151.588 71.604 151.12C71.184 150.652 70.578 150.418 69.786 150.418C68.91 150.418 68.214 150.694 67.698 151.246C67.182 151.786 66.924 152.566 66.924 153.586V158.5H65.196V153.208C65.196 152.284 64.98 151.588 64.548 151.12C64.128 150.652 63.522 150.418 62.73 150.418C61.854 150.418 61.158 150.694 60.642 151.246C60.126 151.786 59.868 152.566 59.868 153.586V158.5H58.14V148.96H59.796V150.382C60.144 149.89 60.6 149.518 61.164 149.266C61.728 149.002 62.37 148.87 63.09 148.87C63.834 148.87 64.494 149.02 65.07 149.32C65.646 149.62 66.09 150.058 66.402 150.634C66.762 150.082 67.26 149.65 67.896 149.338C68.544 149.026 69.27 148.87 70.074 148.87ZM77.1595 148.96H78.8875V158.5H77.1595V148.96ZM78.0235 147.124C77.6875 147.124 77.4055 147.016 77.1775 146.8C76.9615 146.584 76.8535 146.32 76.8535 146.008C76.8535 145.696 76.9615 145.432 77.1775 145.216C77.4055 144.988 77.6875 144.874 78.0235 144.874C78.3595 144.874 78.6355 144.982 78.8515 145.198C79.0795 145.402 79.1935 145.66 79.1935 145.972C79.1935 146.296 79.0795 146.572 78.8515 146.8C78.6355 147.016 78.3595 147.124 78.0235 147.124ZM82.1868 145.144H83.9148V158.5H82.1868V145.144ZM87.2142 145.144H88.9422V158.5H87.2142V145.144ZM92.2415 148.96H93.9695V158.5H92.2415V148.96ZM93.1055 147.124C92.7695 147.124 92.4875 147.016 92.2595 146.8C92.0435 146.584 91.9355 146.32 91.9355 146.008C91.9355 145.696 92.0435 145.432 92.2595 145.216C92.4875 144.988 92.7695 144.874 93.1055 144.874C93.4415 144.874 93.7175 144.982 93.9335 145.198C94.1615 145.402 94.2755 145.66 94.2755 145.972C94.2755 146.296 94.1615 146.572 93.9335 146.8C93.7175 147.016 93.4415 147.124 93.1055 147.124ZM97.2689 145.144H98.9969V158.5H97.2689V145.144ZM102.296 148.96H104.024V158.5H102.296V148.96ZM103.16 147.124C102.824 147.124 102.542 147.016 102.314 146.8C102.098 146.584 101.99 146.32 101.99 146.008C101.99 145.696 102.098 145.432 102.314 145.216C102.542 144.988 102.824 144.874 103.16 144.874C103.496 144.874 103.772 144.982 103.988 145.198C104.216 145.402 104.33 145.66 104.33 145.972C104.33 146.296 104.216 146.572 103.988 146.8C103.772 147.016 103.496 147.124 103.16 147.124ZM112.688 157.942C112.436 158.158 112.124 158.326 111.752 158.446C111.38 158.554 110.996 158.608 110.6 158.608C109.64 158.608 108.896 158.35 108.368 157.834C107.84 157.318 107.576 156.58 107.576 155.62V150.382H105.956V148.96H107.576V146.872H109.304V148.96H112.04V150.382H109.304V155.548C109.304 156.064 109.43 156.46 109.682 156.736C109.946 157.012 110.318 157.15 110.798 157.15C111.326 157.15 111.776 157 112.148 156.7L112.688 157.942ZM123.082 153.784C123.082 153.916 123.07 154.09 123.046 154.306H115.306C115.414 155.146 115.78 155.824 116.404 156.34C117.04 156.844 117.826 157.096 118.762 157.096C119.902 157.096 120.82 156.712 121.516 155.944L122.47 157.06C122.038 157.564 121.498 157.948 120.85 158.212C120.214 158.476 119.5 158.608 118.708 158.608C117.7 158.608 116.806 158.404 116.026 157.996C115.246 157.576 114.64 156.994 114.208 156.25C113.788 155.506 113.578 154.666 113.578 153.73C113.578 152.806 113.782 151.972 114.19 151.228C114.61 150.484 115.18 149.908 115.9 149.5C116.632 149.08 117.454 148.87 118.366 148.87C119.278 148.87 120.088 149.08 120.796 149.5C121.516 149.908 122.074 150.484 122.47 151.228C122.878 151.972 123.082 152.824 123.082 153.784ZM118.366 150.328C117.538 150.328 116.842 150.58 116.278 151.084C115.726 151.588 115.402 152.248 115.306 153.064H121.426C121.33 152.26 121 151.606 120.436 151.102C119.884 150.586 119.194 150.328 118.366 150.328ZM127.138 150.562C127.438 150.01 127.882 149.59 128.47 149.302C129.058 149.014 129.772 148.87 130.612 148.87V150.544C130.516 150.532 130.384 150.526 130.216 150.526C129.28 150.526 128.542 150.808 128.002 151.372C127.474 151.924 127.21 152.716 127.21 153.748V158.5H125.482V148.96H127.138V150.562ZM135.548 158.608C134.768 158.608 134.018 158.506 133.298 158.302C132.578 158.086 132.014 157.816 131.606 157.492L132.326 156.124C132.746 156.424 133.256 156.664 133.856 156.844C134.456 157.024 135.062 157.114 135.674 157.114C137.186 157.114 137.942 156.682 137.942 155.818C137.942 155.53 137.84 155.302 137.636 155.134C137.432 154.966 137.174 154.846 136.862 154.774C136.562 154.69 136.13 154.6 135.566 154.504C134.798 154.384 134.168 154.246 133.676 154.09C133.196 153.934 132.782 153.67 132.434 153.298C132.086 152.926 131.912 152.404 131.912 151.732C131.912 150.868 132.272 150.178 132.992 149.662C133.712 149.134 134.678 148.87 135.89 148.87C136.526 148.87 137.162 148.948 137.798 149.104C138.434 149.26 138.956 149.47 139.364 149.734L138.626 151.102C137.846 150.598 136.928 150.346 135.872 150.346C135.14 150.346 134.582 150.466 134.198 150.706C133.814 150.946 133.622 151.264 133.622 151.66C133.622 151.972 133.73 152.218 133.946 152.398C134.162 152.578 134.426 152.71 134.738 152.794C135.062 152.878 135.512 152.974 136.088 153.082C136.856 153.214 137.474 153.358 137.942 153.514C138.422 153.658 138.83 153.91 139.166 154.27C139.502 154.63 139.67 155.134 139.67 155.782C139.67 156.646 139.298 157.336 138.554 157.852C137.822 158.356 136.82 158.608 135.548 158.608ZM146.231 149.356H154.295V150.778H146.231V149.356ZM146.231 153.622H154.295V155.044H146.231V153.622Z" fill="#2F2F2F"/>
<path d="M171 135C171 132.239 173.239 130 176 130H236C238.761 130 241 132.239 241 135V170C241 172.761 238.761 175 236 175H176C173.239 175 171 172.761 171 170V135Z" fill="#369CB7"/>
<path d="M206.873 150.724C207.701 150.724 208.445 150.886 209.105 151.21C209.765 151.522 210.281 151.972 210.653 152.56C211.025 153.148 211.211 153.826 211.211 154.594C211.211 155.41 211.007 156.13 210.599 156.754C210.191 157.366 209.639 157.84 208.943 158.176C208.247 158.512 207.467 158.68 206.603 158.68C204.875 158.68 203.531 158.14 202.571 157.06C201.623 155.98 201.149 154.432 201.149 152.416C201.149 151 201.407 149.794 201.923 148.798C202.439 147.79 203.159 147.028 204.083 146.512C205.019 145.984 206.099 145.72 207.323 145.72C207.971 145.72 208.577 145.792 209.141 145.936C209.717 146.068 210.215 146.266 210.635 146.53L209.771 148.294C209.147 147.886 208.349 147.682 207.377 147.682C206.165 147.682 205.217 148.054 204.533 148.798C203.849 149.542 203.507 150.616 203.507 152.02V152.038C203.879 151.606 204.353 151.282 204.929 151.066C205.505 150.838 206.153 150.724 206.873 150.724ZM206.477 156.844C207.209 156.844 207.803 156.652 208.259 156.268C208.715 155.872 208.943 155.35 208.943 154.702C208.943 154.042 208.715 153.52 208.259 153.136C207.803 152.752 207.191 152.56 206.423 152.56C205.667 152.56 205.049 152.764 204.569 153.172C204.101 153.58 203.867 154.096 203.867 154.72C203.867 155.332 204.095 155.842 204.551 156.25C205.019 156.646 205.661 156.844 206.477 156.844Z" fill="white"/>
<path d="M176 131H236V129H176V131ZM240 135V170H242V135H240ZM236 174H176V176H236V174ZM172 170V135H170V170H172ZM176 174C173.791 174 172 172.209 172 170H170C170 173.314 172.686 176 176 176V174ZM240 170C240 172.209 238.209 174 236 174V176C239.314 176 242 173.314 242 170H240ZM236 131C238.209 131 240 132.791 240 135H242C242 131.686 239.314 129 236 129V131ZM176 129C172.686 129 170 131.686 170 135H172C172 132.791 173.791 131 176 131V129Z" fill="#369CB7"/>
<path d="M257.858 145.144H259.586V158.5H257.858V145.144ZM262.885 148.96H264.613V158.5H262.885V148.96ZM263.749 147.124C263.413 147.124 263.131 147.016 262.903 146.8C262.687 146.584 262.579 146.32 262.579 146.008C262.579 145.696 262.687 145.432 262.903 145.216C263.131 144.988 263.413 144.874 263.749 144.874C264.085 144.874 264.361 144.982 264.577 145.198C264.805 145.402 264.919 145.66 264.919 145.972C264.919 146.296 264.805 146.572 264.577 146.8C264.361 147.016 264.085 147.124 263.749 147.124ZM273.276 157.942C273.024 158.158 272.712 158.326 272.34 158.446C271.968 158.554 271.584 158.608 271.188 158.608C270.228 158.608 269.484 158.35 268.956 157.834C268.428 157.318 268.164 156.58 268.164 155.62V150.382H266.544V148.96H268.164V146.872H269.892V148.96H272.628V150.382H269.892V155.548C269.892 156.064 270.018 156.46 270.27 156.736C270.534 157.012 270.906 157.15 271.386 157.15C271.914 157.15 272.364 157 272.736 156.7L273.276 157.942ZM283.671 153.784C283.671 153.916 283.659 154.09 283.635 154.306H275.895C276.003 155.146 276.369 155.824 276.993 156.34C277.629 156.844 278.415 157.096 279.351 157.096C280.491 157.096 281.409 156.712 282.105 155.944L283.059 157.06C282.627 157.564 282.087 157.948 281.439 158.212C280.803 158.476 280.089 158.608 279.297 158.608C278.289 158.608 277.395 158.404 276.615 157.996C275.835 157.576 275.229 156.994 274.797 156.25C274.377 155.506 274.167 154.666 274.167 153.73C274.167 152.806 274.371 151.972 274.779 151.228C275.199 150.484 275.769 149.908 276.489 149.5C277.221 149.08 278.043 148.87 278.955 148.87C279.867 148.87 280.677 149.08 281.385 149.5C282.105 149.908 282.663 150.484 283.059 151.228C283.467 151.972 283.671 152.824 283.671 153.784ZM278.955 150.328C278.127 150.328 277.431 150.58 276.867 151.084C276.315 151.588 275.991 152.248 275.895 153.064H282.015C281.919 152.26 281.589 151.606 281.025 151.102C280.473 150.586 279.783 150.328 278.955 150.328ZM287.727 150.562C288.027 150.01 288.471 149.59 289.059 149.302C289.647 149.014 290.361 148.87 291.201 148.87V150.544C291.105 150.532 290.973 150.526 290.805 150.526C289.869 150.526 289.131 150.808 288.591 151.372C288.063 151.924 287.799 152.716 287.799 153.748V158.5H286.071V148.96H287.727V150.562ZM296.137 158.608C295.357 158.608 294.607 158.506 293.887 158.302C293.167 158.086 292.603 157.816 292.195 157.492L292.915 156.124C293.335 156.424 293.845 156.664 294.445 156.844C295.045 157.024 295.651 157.114 296.263 157.114C297.775 157.114 298.531 156.682 298.531 155.818C298.531 155.53 298.429 155.302 298.225 155.134C298.021 154.966 297.763 154.846 297.451 154.774C297.151 154.69 296.719 154.6 296.155 154.504C295.387 154.384 294.757 154.246 294.265 154.09C293.785 153.934 293.371 153.67 293.023 153.298C292.675 152.926 292.501 152.404 292.501 151.732C292.501 150.868 292.861 150.178 293.581 149.662C294.301 149.134 295.267 148.87 296.479 148.87C297.115 148.87 297.751 148.948 298.387 149.104C299.023 149.26 299.545 149.47 299.953 149.734L299.215 151.102C298.435 150.598 297.517 150.346 296.461 150.346C295.729 150.346 295.171 150.466 294.787 150.706C294.403 150.946 294.211 151.264 294.211 151.66C294.211 151.972 294.319 152.218 294.535 152.398C294.751 152.578 295.015 152.71 295.327 152.794C295.651 152.878 296.101 152.974 296.677 153.082C297.445 153.214 298.063 153.358 298.531 153.514C299.011 153.658 299.419 153.91 299.755 154.27C300.091 154.63 300.259 155.134 300.259 155.782C300.259 156.646 299.887 157.336 299.143 157.852C298.411 158.356 297.409 158.608 296.137 158.608Z" fill="#2F2F2F"/>
<path d="M401 5C401 2.23858 403.239 0 406 0H466C468.761 0 471 2.23858 471 5V40C471 42.7614 468.761 45 466 45H406C403.239 45 401 42.7614 401 40V5Z" fill="#369CB7"/>
<path d="M418.746 21.876C419.406 22.176 419.91 22.584 420.258 23.1C420.618 23.604 420.798 24.198 420.798 24.882C420.798 25.65 420.582 26.322 420.15 26.898C419.73 27.474 419.13 27.918 418.35 28.23C417.57 28.53 416.664 28.68 415.632 28.68C414.6 28.68 413.694 28.53 412.914 28.23C412.146 27.918 411.552 27.474 411.132 26.898C410.712 26.322 410.502 25.65 410.502 24.882C410.502 24.198 410.676 23.604 411.024 23.1C411.372 22.584 411.87 22.176 412.518 21.876C412.014 21.6 411.624 21.24 411.348 20.796C411.084 20.34 410.952 19.818 410.952 19.23C410.952 18.522 411.144 17.904 411.528 17.376C411.924 16.848 412.476 16.44 413.184 16.152C413.892 15.864 414.708 15.72 415.632 15.72C416.568 15.72 417.39 15.864 418.098 16.152C418.806 16.44 419.358 16.848 419.754 17.376C420.15 17.904 420.348 18.522 420.348 19.23C420.348 19.818 420.21 20.334 419.934 20.778C419.658 21.222 419.262 21.588 418.746 21.876ZM415.632 17.556C414.9 17.556 414.318 17.712 413.886 18.024C413.466 18.336 413.256 18.774 413.256 19.338C413.256 19.878 413.466 20.31 413.886 20.634C414.318 20.946 414.9 21.102 415.632 21.102C416.376 21.102 416.964 20.946 417.396 20.634C417.828 20.31 418.044 19.878 418.044 19.338C418.044 18.774 417.822 18.336 417.378 18.024C416.946 17.712 416.364 17.556 415.632 17.556ZM415.632 26.844C416.496 26.844 417.18 26.664 417.684 26.304C418.188 25.944 418.44 25.446 418.44 24.81C418.44 24.186 418.188 23.694 417.684 23.334C417.18 22.974 416.496 22.794 415.632 22.794C414.768 22.794 414.09 22.974 413.598 23.334C413.106 23.694 412.86 24.186 412.86 24.81C412.86 25.446 413.106 25.944 413.598 26.304C414.09 26.664 414.768 26.844 415.632 26.844ZM423.914 25.638C424.334 25.638 424.682 25.776 424.958 26.052C425.234 26.328 425.372 26.688 425.372 27.132C425.372 27.324 425.342 27.528 425.282 27.744C425.234 27.948 425.126 28.26 424.958 28.68L424.04 31.218H422.582L423.302 28.464C423.038 28.356 422.828 28.188 422.672 27.96C422.528 27.72 422.456 27.444 422.456 27.132C422.456 26.688 422.594 26.328 422.87 26.052C423.146 25.776 423.494 25.638 423.914 25.638ZM431.932 28.68C430.924 28.68 430.024 28.428 429.232 27.924C428.44 27.408 427.816 26.664 427.36 25.692C426.904 24.708 426.676 23.544 426.676 22.2C426.676 20.856 426.904 19.698 427.36 18.726C427.816 17.742 428.44 16.998 429.232 16.494C430.024 15.978 430.924 15.72 431.932 15.72C432.94 15.72 433.84 15.978 434.632 16.494C435.436 16.998 436.066 17.742 436.522 18.726C436.978 19.698 437.206 20.856 437.206 22.2C437.206 23.544 436.978 24.708 436.522 25.692C436.066 26.664 435.436 27.408 434.632 27.924C433.84 28.428 432.94 28.68 431.932 28.68ZM431.932 26.646C432.832 26.646 433.54 26.274 434.056 25.53C434.584 24.786 434.848 23.676 434.848 22.2C434.848 20.724 434.584 19.614 434.056 18.87C433.54 18.126 432.832 17.754 431.932 17.754C431.044 17.754 430.336 18.126 429.808 18.87C429.292 19.614 429.034 20.724 429.034 22.2C429.034 23.676 429.292 24.786 429.808 25.53C430.336 26.274 431.044 26.646 431.932 26.646ZM444.043 28.68C443.035 28.68 442.135 28.428 441.343 27.924C440.551 27.408 439.927 26.664 439.471 25.692C439.015 24.708 438.787 23.544 438.787 22.2C438.787 20.856 439.015 19.698 439.471 18.726C439.927 17.742 440.551 16.998 441.343 16.494C442.135 15.978 443.035 15.72 444.043 15.72C445.051 15.72 445.951 15.978 446.743 16.494C447.547 16.998 448.177 17.742 448.633 18.726C449.089 19.698 449.317 20.856 449.317 22.2C449.317 23.544 449.089 24.708 448.633 25.692C448.177 26.664 447.547 27.408 446.743 27.924C445.951 28.428 445.051 28.68 444.043 28.68ZM444.043 26.646C444.943 26.646 445.651 26.274 446.167 25.53C446.695 24.786 446.959 23.676 446.959 22.2C446.959 20.724 446.695 19.614 446.167 18.87C445.651 18.126 444.943 17.754 444.043 17.754C443.155 17.754 442.447 18.126 441.919 18.87C441.403 19.614 441.145 20.724 441.145 22.2C441.145 23.676 441.403 24.786 441.919 25.53C442.447 26.274 443.155 26.646 444.043 26.646ZM456.154 28.68C455.146 28.68 454.246 28.428 453.454 27.924C452.662 27.408 452.038 26.664 451.582 25.692C451.126 24.708 450.898 23.544 450.898 22.2C450.898 20.856 451.126 19.698 451.582 18.726C452.038 17.742 452.662 16.998 453.454 16.494C454.246 15.978 455.146 15.72 456.154 15.72C457.162 15.72 458.062 15.978 458.854 16.494C459.658 16.998 460.288 17.742 460.744 18.726C461.2 19.698 461.428 20.856 461.428 22.2C461.428 23.544 461.2 24.708 460.744 25.692C460.288 26.664 459.658 27.408 458.854 27.924C458.062 28.428 457.162 28.68 456.154 28.68ZM456.154 26.646C457.054 26.646 457.762 26.274 458.278 25.53C458.806 24.786 459.07 23.676 459.07 22.2C459.07 20.724 458.806 19.614 458.278 18.87C457.762 18.126 457.054 17.754 456.154 17.754C455.266 17.754 454.558 18.126 454.03 18.87C453.514 19.614 453.256 20.724 453.256 22.2C453.256 23.676 453.514 24.786 454.03 25.53C454.558 26.274 455.266 26.646 456.154 26.646Z" fill="white"/>
<path d="M406 1H466V-1H406V1ZM470 5V40H472V5H470ZM466 44H406V46H466V44ZM402 40V5H400V40H402ZM406 44C403.791 44 402 42.2091 402 40H400C400 43.3137 402.686 46 406 46V44ZM470 40C470 42.2091 468.209 44 466 44V46C469.314 46 472 43.3137 472 40H470ZM466 1C468.209 1 470 2.79086 470 5H472C472 1.68629 469.314 -1 466 -1V1ZM406 -1C402.686 -1 400 1.68629 400 5H402C402 2.79086 403.791 1 406 1V-1Z" fill="#369CB7"/>
<path d="M499.655 18.87C500.855 18.87 501.803 19.218 502.499 19.914C503.207 20.61 503.561 21.642 503.561 23.01V28.5H501.833V23.208C501.833 22.284 501.617 21.588 501.185 21.12C500.765 20.652 500.159 20.418 499.367 20.418C498.491 20.418 497.795 20.694 497.279 21.246C496.763 21.786 496.505 22.566 496.505 23.586V28.5H494.777V23.208C494.777 22.284 494.561 21.588 494.129 21.12C493.709 20.652 493.103 20.418 492.311 20.418C491.435 20.418 490.739 20.694 490.223 21.246C489.707 21.786 489.449 22.566 489.449 23.586V28.5H487.721V18.96H489.377V20.382C489.725 19.89 490.181 19.518 490.745 19.266C491.309 19.002 491.951 18.87 492.671 18.87C493.415 18.87 494.075 19.02 494.651 19.32C495.227 19.62 495.671 20.058 495.983 20.634C496.343 20.082 496.841 19.65 497.477 19.338C498.125 19.026 498.851 18.87 499.655 18.87ZM506.741 18.96H508.469V28.5H506.741V18.96ZM507.605 17.124C507.269 17.124 506.987 17.016 506.759 16.8C506.543 16.584 506.435 16.32 506.435 16.008C506.435 15.696 506.543 15.432 506.759 15.216C506.987 14.988 507.269 14.874 507.605 14.874C507.941 14.874 508.217 14.982 508.433 15.198C508.661 15.402 508.775 15.66 508.775 15.972C508.775 16.296 508.661 16.572 508.433 16.8C508.217 17.016 507.941 17.124 507.605 17.124ZM511.768 15.144H513.496V28.5H511.768V15.144ZM516.795 15.144H518.523V28.5H516.795V15.144ZM521.823 18.96H523.551V28.5H521.823V18.96ZM522.687 17.124C522.351 17.124 522.069 17.016 521.841 16.8C521.625 16.584 521.517 16.32 521.517 16.008C521.517 15.696 521.625 15.432 521.841 15.216C522.069 14.988 522.351 14.874 522.687 14.874C523.023 14.874 523.299 14.982 523.515 15.198C523.743 15.402 523.857 15.66 523.857 15.972C523.857 16.296 523.743 16.572 523.515 16.8C523.299 17.016 523.023 17.124 522.687 17.124ZM526.85 15.144H528.578V28.5H526.85V15.144ZM531.877 18.96H533.605V28.5H531.877V18.96ZM532.741 17.124C532.405 17.124 532.123 17.016 531.895 16.8C531.679 16.584 531.571 16.32 531.571 16.008C531.571 15.696 531.679 15.432 531.895 15.216C532.123 14.988 532.405 14.874 532.741 14.874C533.077 14.874 533.353 14.982 533.569 15.198C533.797 15.402 533.911 15.66 533.911 15.972C533.911 16.296 533.797 16.572 533.569 16.8C533.353 17.016 533.077 17.124 532.741 17.124ZM542.269 27.942C542.017 28.158 541.705 28.326 541.333 28.446C540.961 28.554 540.577 28.608 540.181 28.608C539.221 28.608 538.477 28.35 537.949 27.834C537.421 27.318 537.157 26.58 537.157 25.62V20.382H535.537V18.96H537.157V16.872H538.885V18.96H541.621V20.382H538.885V25.548C538.885 26.064 539.011 26.46 539.263 26.736C539.527 27.012 539.899 27.15 540.379 27.15C540.907 27.15 541.357 27 541.729 26.7L542.269 27.942ZM552.663 23.784C552.663 23.916 552.651 24.09 552.627 24.306H544.887C544.995 25.146 545.361 25.824 545.985 26.34C546.621 26.844 547.407 27.096 548.343 27.096C549.483 27.096 550.401 26.712 551.097 25.944L552.051 27.06C551.619 27.564 551.079 27.948 550.431 28.212C549.795 28.476 549.081 28.608 548.289 28.608C547.281 28.608 546.387 28.404 545.607 27.996C544.827 27.576 544.221 26.994 543.789 26.25C543.369 25.506 543.159 24.666 543.159 23.73C543.159 22.806 543.363 21.972 543.771 21.228C544.191 20.484 544.761 19.908 545.481 19.5C546.213 19.08 547.035 18.87 547.947 18.87C548.859 18.87 549.669 19.08 550.377 19.5C551.097 19.908 551.655 20.484 552.051 21.228C552.459 21.972 552.663 22.824 552.663 23.784ZM547.947 20.328C547.119 20.328 546.423 20.58 545.859 21.084C545.307 21.588 544.983 22.248 544.887 23.064H551.007C550.911 22.26 550.581 21.606 550.017 21.102C549.465 20.586 548.775 20.328 547.947 20.328ZM556.719 20.562C557.019 20.01 557.463 19.59 558.051 19.302C558.639 19.014 559.353 18.87 560.193 18.87V20.544C560.097 20.532 559.965 20.526 559.797 20.526C558.861 20.526 558.123 20.808 557.583 21.372C557.055 21.924 556.791 22.716 556.791 23.748V28.5H555.063V18.96H556.719V20.562ZM565.129 28.608C564.349 28.608 563.599 28.506 562.879 28.302C562.159 28.086 561.595 27.816 561.187 27.492L561.907 26.124C562.327 26.424 562.837 26.664 563.437 26.844C564.037 27.024 564.643 27.114 565.255 27.114C566.767 27.114 567.523 26.682 567.523 25.818C567.523 25.53 567.421 25.302 567.217 25.134C567.013 24.966 566.755 24.846 566.443 24.774C566.143 24.69 565.711 24.6 565.147 24.504C564.379 24.384 563.749 24.246 563.257 24.09C562.777 23.934 562.363 23.67 562.015 23.298C561.667 22.926 561.493 22.404 561.493 21.732C561.493 20.868 561.853 20.178 562.573 19.662C563.293 19.134 564.259 18.87 565.471 18.87C566.107 18.87 566.743 18.948 567.379 19.104C568.015 19.26 568.537 19.47 568.945 19.734L568.207 21.102C567.427 20.598 566.509 20.346 565.453 20.346C564.721 20.346 564.163 20.466 563.779 20.706C563.395 20.946 563.203 21.264 563.203 21.66C563.203 21.972 563.311 22.218 563.527 22.398C563.743 22.578 564.007 22.71 564.319 22.794C564.643 22.878 565.093 22.974 565.669 23.082C566.437 23.214 567.055 23.358 567.523 23.514C568.003 23.658 568.411 23.91 568.747 24.27C569.083 24.63 569.251 25.134 569.251 25.782C569.251 26.646 568.879 27.336 568.135 27.852C567.403 28.356 566.401 28.608 565.129 28.608ZM580.646 19.356H588.71V20.778H580.646V19.356ZM580.646 23.622H588.71V25.044H580.646V23.622Z" fill="#2F2F2F"/>
<path d="M613.579 21.894C614.299 22.17 614.851 22.566 615.235 23.082C615.619 23.598 615.811 24.216 615.811 24.936C615.811 25.692 615.607 26.352 615.199 26.916C614.791 27.468 614.209 27.894 613.453 28.194C612.697 28.494 611.809 28.644 610.789 28.644C609.781 28.644 608.899 28.494 608.143 28.194C607.399 27.894 606.823 27.468 606.415 26.916C606.007 26.352 605.803 25.692 605.803 24.936C605.803 24.216 605.989 23.598 606.361 23.082C606.745 22.566 607.297 22.17 608.017 21.894C607.441 21.618 607.003 21.252 606.703 20.796C606.403 20.34 606.253 19.8 606.253 19.176C606.253 18.48 606.439 17.874 606.811 17.358C607.195 16.842 607.729 16.446 608.413 16.17C609.097 15.894 609.889 15.756 610.789 15.756C611.701 15.756 612.499 15.894 613.183 16.17C613.879 16.446 614.413 16.842 614.785 17.358C615.169 17.874 615.361 18.48 615.361 19.176C615.361 19.788 615.205 20.328 614.893 20.796C614.593 21.252 614.155 21.618 613.579 21.894ZM610.789 17.214C609.937 17.214 609.265 17.4 608.773 17.772C608.281 18.132 608.035 18.624 608.035 19.248C608.035 19.872 608.275 20.364 608.755 20.724C609.247 21.084 609.925 21.264 610.789 21.264C611.665 21.264 612.349 21.084 612.841 20.724C613.345 20.364 613.597 19.872 613.597 19.248C613.597 18.624 613.339 18.132 612.823 17.772C612.319 17.4 611.641 17.214 610.789 17.214ZM610.789 27.186C611.785 27.186 612.571 26.982 613.147 26.574C613.723 26.154 614.011 25.59 614.011 24.882C614.011 24.186 613.723 23.64 613.147 23.244C612.571 22.836 611.785 22.632 610.789 22.632C609.793 22.632 609.013 22.836 608.449 23.244C607.885 23.64 607.603 24.186 607.603 24.882C607.603 25.59 607.885 26.154 608.449 26.574C609.013 26.982 609.793 27.186 610.789 27.186ZM623.067 15.144H624.795V28.5H623.067V15.144ZM628.094 18.96H629.822V28.5H628.094V18.96ZM628.958 17.124C628.622 17.124 628.34 17.016 628.112 16.8C627.896 16.584 627.788 16.32 627.788 16.008C627.788 15.696 627.896 15.432 628.112 15.216C628.34 14.988 628.622 14.874 628.958 14.874C629.294 14.874 629.57 14.982 629.786 15.198C630.014 15.402 630.128 15.66 630.128 15.972C630.128 16.296 630.014 16.572 629.786 16.8C629.57 17.016 629.294 17.124 628.958 17.124ZM638.485 27.942C638.233 28.158 637.921 28.326 637.549 28.446C637.177 28.554 636.793 28.608 636.397 28.608C635.437 28.608 634.693 28.35 634.165 27.834C633.637 27.318 633.373 26.58 633.373 25.62V20.382H631.753V18.96H633.373V16.872H635.101V18.96H637.837V20.382H635.101V25.548C635.101 26.064 635.227 26.46 635.479 26.736C635.743 27.012 636.115 27.15 636.595 27.15C637.123 27.15 637.573 27 637.945 26.7L638.485 27.942ZM648.88 23.784C648.88 23.916 648.868 24.09 648.844 24.306H641.104C641.212 25.146 641.578 25.824 642.202 26.34C642.838 26.844 643.624 27.096 644.56 27.096C645.7 27.096 646.618 26.712 647.314 25.944L648.268 27.06C647.836 27.564 647.296 27.948 646.648 28.212C646.012 28.476 645.298 28.608 644.506 28.608C643.498 28.608 642.604 28.404 641.824 27.996C641.044 27.576 640.438 26.994 640.006 26.25C639.586 25.506 639.376 24.666 639.376 23.73C639.376 22.806 639.58 21.972 639.988 21.228C640.408 20.484 640.978 19.908 641.698 19.5C642.43 19.08 643.252 18.87 644.164 18.87C645.076 18.87 645.886 19.08 646.594 19.5C647.314 19.908 647.872 20.484 648.268 21.228C648.676 21.972 648.88 22.824 648.88 23.784ZM644.164 20.328C643.336 20.328 642.64 20.58 642.076 21.084C641.524 21.588 641.2 22.248 641.104 23.064H647.224C647.128 22.26 646.798 21.606 646.234 21.102C645.682 20.586 644.992 20.328 644.164 20.328ZM652.936 20.562C653.236 20.01 653.68 19.59 654.268 19.302C654.856 19.014 655.57 18.87 656.41 18.87V20.544C656.314 20.532 656.182 20.526 656.014 20.526C655.078 20.526 654.34 20.808 653.8 21.372C653.272 21.924 653.008 22.716 653.008 23.748V28.5H651.28V18.96H652.936V20.562ZM661.346 28.608C660.566 28.608 659.816 28.506 659.096 28.302C658.376 28.086 657.812 27.816 657.404 27.492L658.124 26.124C658.544 26.424 659.054 26.664 659.654 26.844C660.254 27.024 660.86 27.114 661.472 27.114C662.984 27.114 663.74 26.682 663.74 25.818C663.74 25.53 663.638 25.302 663.434 25.134C663.23 24.966 662.972 24.846 662.66 24.774C662.36 24.69 661.928 24.6 661.364 24.504C660.596 24.384 659.966 24.246 659.474 24.09C658.994 23.934 658.58 23.67 658.232 23.298C657.884 22.926 657.71 22.404 657.71 21.732C657.71 20.868 658.07 20.178 658.79 19.662C659.51 19.134 660.476 18.87 661.688 18.87C662.324 18.87 662.96 18.948 663.596 19.104C664.232 19.26 664.754 19.47 665.162 19.734L664.424 21.102C663.644 20.598 662.726 20.346 661.67 20.346C660.938 20.346 660.38 20.466 659.996 20.706C659.612 20.946 659.42 21.264 659.42 21.66C659.42 21.972 659.528 22.218 659.744 22.398C659.96 22.578 660.224 22.71 660.536 22.794C660.86 22.878 661.31 22.974 661.886 23.082C662.654 23.214 663.272 23.358 663.74 23.514C664.22 23.658 664.628 23.91 664.964 24.27C665.3 24.63 665.468 25.134 665.468 25.782C665.468 26.646 665.096 27.336 664.352 27.852C663.62 28.356 662.618 28.608 661.346 28.608Z" fill="#2F2F2F"/>
<path d="M413.27 90.404H410.876V93.5H409.13V90.404H402.128V89.144L408.572 80.9H410.516L404.342 88.856H409.184V86.12H410.876V88.856H413.27V90.404ZM415.907 91.142C416.243 91.142 416.519 91.262 416.735 91.502C416.963 91.73 417.077 92.018 417.077 92.366C417.077 92.546 417.053 92.72 417.005 92.888C416.969 93.056 416.891 93.314 416.771 93.662L415.925 96.164H414.791L415.457 93.482C415.229 93.398 415.043 93.26 414.899 93.068C414.767 92.864 414.701 92.63 414.701 92.366C414.701 92.006 414.815 91.712 415.043 91.484C415.271 91.256 415.559 91.142 415.907 91.142ZM423.716 93.644C422.72 93.644 421.832 93.392 421.052 92.888C420.284 92.372 419.678 91.628 419.234 90.656C418.79 89.684 418.568 88.532 418.568 87.2C418.568 85.868 418.79 84.716 419.234 83.744C419.678 82.772 420.284 82.034 421.052 81.53C421.832 81.014 422.72 80.756 423.716 80.756C424.7 80.756 425.576 81.014 426.344 81.53C427.124 82.034 427.736 82.772 428.18 83.744C428.624 84.716 428.846 85.868 428.846 87.2C428.846 88.532 428.624 89.684 428.18 90.656C427.736 91.628 427.124 92.372 426.344 92.888C425.576 93.392 424.7 93.644 423.716 93.644ZM423.716 92.042C424.724 92.042 425.528 91.628 426.128 90.8C426.74 89.972 427.046 88.772 427.046 87.2C427.046 85.628 426.74 84.428 426.128 83.6C425.528 82.772 424.724 82.358 423.716 82.358C422.696 82.358 421.88 82.772 421.268 83.6C420.668 84.428 420.368 85.628 420.368 87.2C420.368 88.772 420.668 89.972 421.268 90.8C421.88 91.628 422.696 92.042 423.716 92.042ZM435.722 93.644C434.726 93.644 433.838 93.392 433.058 92.888C432.29 92.372 431.684 91.628 431.24 90.656C430.796 89.684 430.574 88.532 430.574 87.2C430.574 85.868 430.796 84.716 431.24 83.744C431.684 82.772 432.29 82.034 433.058 81.53C433.838 81.014 434.726 80.756 435.722 80.756C436.706 80.756 437.582 81.014 438.35 81.53C439.13 82.034 439.742 82.772 440.186 83.744C440.63 84.716 440.852 85.868 440.852 87.2C440.852 88.532 440.63 89.684 440.186 90.656C439.742 91.628 439.13 92.372 438.35 92.888C437.582 93.392 436.706 93.644 435.722 93.644ZM435.722 92.042C436.73 92.042 437.534 91.628 438.134 90.8C438.746 89.972 439.052 88.772 439.052 87.2C439.052 85.628 438.746 84.428 438.134 83.6C437.534 82.772 436.73 82.358 435.722 82.358C434.702 82.358 433.886 82.772 433.274 83.6C432.674 84.428 432.374 85.628 432.374 87.2C432.374 88.772 432.674 89.972 433.274 90.8C433.886 91.628 434.702 92.042 435.722 92.042ZM447.728 93.644C446.732 93.644 445.844 93.392 445.064 92.888C444.296 92.372 443.69 91.628 443.246 90.656C442.802 89.684 442.58 88.532 442.58 87.2C442.58 85.868 442.802 84.716 443.246 83.744C443.69 82.772 444.296 82.034 445.064 81.53C445.844 81.014 446.732 80.756 447.728 80.756C448.712 80.756 449.588 81.014 450.356 81.53C451.136 82.034 451.748 82.772 452.192 83.744C452.636 84.716 452.858 85.868 452.858 87.2C452.858 88.532 452.636 89.684 452.192 90.656C451.748 91.628 451.136 92.372 450.356 92.888C449.588 93.392 448.712 93.644 447.728 93.644ZM447.728 92.042C448.736 92.042 449.54 91.628 450.14 90.8C450.752 89.972 451.058 88.772 451.058 87.2C451.058 85.628 450.752 84.428 450.14 83.6C449.54 82.772 448.736 82.358 447.728 82.358C446.708 82.358 445.892 82.772 445.28 83.6C444.68 84.428 444.38 85.628 444.38 87.2C444.38 88.772 444.68 89.972 445.28 90.8C445.892 91.628 446.708 92.042 447.728 92.042ZM472.128 83.87C473.328 83.87 474.276 84.218 474.972 84.914C475.68 85.61 476.034 86.642 476.034 88.01V93.5H474.306V88.208C474.306 87.284 474.09 86.588 473.658 86.12C473.238 85.652 472.632 85.418 471.84 85.418C470.964 85.418 470.268 85.694 469.752 86.246C469.236 86.786 468.978 87.566 468.978 88.586V93.5H467.25V88.208C467.25 87.284 467.034 86.588 466.602 86.12C466.182 85.652 465.576 85.418 464.784 85.418C463.908 85.418 463.212 85.694 462.696 86.246C462.18 86.786 461.922 87.566 461.922 88.586V93.5H460.194V83.96H461.85V85.382C462.198 84.89 462.654 84.518 463.218 84.266C463.782 84.002 464.424 83.87 465.144 83.87C465.888 83.87 466.548 84.02 467.124 84.32C467.7 84.62 468.144 85.058 468.456 85.634C468.816 85.082 469.314 84.65 469.95 84.338C470.598 84.026 471.324 83.87 472.128 83.87ZM479.213 83.96H480.941V93.5H479.213V83.96ZM480.077 82.124C479.741 82.124 479.459 82.016 479.231 81.8C479.015 81.584 478.907 81.32 478.907 81.008C478.907 80.696 479.015 80.432 479.231 80.216C479.459 79.988 479.741 79.874 480.077 79.874C480.413 79.874 480.689 79.982 480.905 80.198C481.133 80.402 481.247 80.66 481.247 80.972C481.247 81.296 481.133 81.572 480.905 81.8C480.689 82.016 480.413 82.124 480.077 82.124ZM484.241 80.144H485.969V93.5H484.241V80.144ZM489.268 80.144H490.996V93.5H489.268V80.144ZM494.295 83.96H496.023V93.5H494.295V83.96ZM495.159 82.124C494.823 82.124 494.541 82.016 494.313 81.8C494.097 81.584 493.989 81.32 493.989 81.008C493.989 80.696 494.097 80.432 494.313 80.216C494.541 79.988 494.823 79.874 495.159 79.874C495.495 79.874 495.771 79.982 495.987 80.198C496.215 80.402 496.329 80.66 496.329 80.972C496.329 81.296 496.215 81.572 495.987 81.8C495.771 82.016 495.495 82.124 495.159 82.124ZM499.323 80.144H501.051V93.5H499.323V80.144ZM504.35 83.96H506.078V93.5H504.35V83.96ZM505.214 82.124C504.878 82.124 504.596 82.016 504.368 81.8C504.152 81.584 504.044 81.32 504.044 81.008C504.044 80.696 504.152 80.432 504.368 80.216C504.596 79.988 504.878 79.874 505.214 79.874C505.55 79.874 505.826 79.982 506.042 80.198C506.27 80.402 506.384 80.66 506.384 80.972C506.384 81.296 506.27 81.572 506.042 81.8C505.826 82.016 505.55 82.124 505.214 82.124ZM514.741 92.942C514.489 93.158 514.177 93.326 513.805 93.446C513.433 93.554 513.049 93.608 512.653 93.608C511.693 93.608 510.949 93.35 510.421 92.834C509.893 92.318 509.629 91.58 509.629 90.62V85.382H508.009V83.96H509.629V81.872H511.357V83.96H514.093V85.382H511.357V90.548C511.357 91.064 511.483 91.46 511.735 91.736C511.999 92.012 512.371 92.15 512.851 92.15C513.379 92.15 513.829 92 514.201 91.7L514.741 92.942ZM525.136 88.784C525.136 88.916 525.124 89.09 525.1 89.306H517.36C517.468 90.146 517.834 90.824 518.458 91.34C519.094 91.844 519.88 92.096 520.816 92.096C521.956 92.096 522.874 91.712 523.57 90.944L524.524 92.06C524.092 92.564 523.552 92.948 522.904 93.212C522.268 93.476 521.554 93.608 520.762 93.608C519.754 93.608 518.86 93.404 518.08 92.996C517.3 92.576 516.694 91.994 516.262 91.25C515.842 90.506 515.632 89.666 515.632 88.73C515.632 87.806 515.836 86.972 516.244 86.228C516.664 85.484 517.234 84.908 517.954 84.5C518.686 84.08 519.508 83.87 520.42 83.87C521.332 83.87 522.142 84.08 522.85 84.5C523.57 84.908 524.128 85.484 524.524 86.228C524.932 86.972 525.136 87.824 525.136 88.784ZM520.42 85.328C519.592 85.328 518.896 85.58 518.332 86.084C517.78 86.588 517.456 87.248 517.36 88.064H523.48C523.384 87.26 523.054 86.606 522.49 86.102C521.938 85.586 521.248 85.328 520.42 85.328ZM529.191 85.562C529.491 85.01 529.935 84.59 530.523 84.302C531.111 84.014 531.825 83.87 532.665 83.87V85.544C532.569 85.532 532.437 85.526 532.269 85.526C531.333 85.526 530.595 85.808 530.055 86.372C529.527 86.924 529.263 87.716 529.263 88.748V93.5H527.535V83.96H529.191V85.562ZM537.602 93.608C536.822 93.608 536.072 93.506 535.352 93.302C534.632 93.086 534.068 92.816 533.66 92.492L534.38 91.124C534.8 91.424 535.31 91.664 535.91 91.844C536.51 92.024 537.116 92.114 537.728 92.114C539.24 92.114 539.996 91.682 539.996 90.818C539.996 90.53 539.894 90.302 539.69 90.134C539.486 89.966 539.228 89.846 538.916 89.774C538.616 89.69 538.184 89.6 537.62 89.504C536.852 89.384 536.222 89.246 535.73 89.09C535.25 88.934 534.836 88.67 534.488 88.298C534.14 87.926 533.966 87.404 533.966 86.732C533.966 85.868 534.326 85.178 535.046 84.662C535.766 84.134 536.732 83.87 537.944 83.87C538.58 83.87 539.216 83.948 539.852 84.104C540.488 84.26 541.01 84.47 541.418 84.734L540.68 86.102C539.9 85.598 538.982 85.346 537.926 85.346C537.194 85.346 536.636 85.466 536.252 85.706C535.868 85.946 535.676 86.264 535.676 86.66C535.676 86.972 535.784 87.218 536 87.398C536.216 87.578 536.48 87.71 536.792 87.794C537.116 87.878 537.566 87.974 538.142 88.082C538.91 88.214 539.528 88.358 539.996 88.514C540.476 88.658 540.884 88.91 541.22 89.27C541.556 89.63 541.724 90.134 541.724 90.782C541.724 91.646 541.352 92.336 540.608 92.852C539.876 93.356 538.874 93.608 537.602 93.608ZM548.285 84.356H556.349V85.778H548.285V84.356ZM548.285 88.622H556.349V90.044H548.285V88.622Z" fill="#2F2F2F"/>
<path d="M573 70C573 67.2386 575.239 65 578 65H638C640.761 65 643 67.2386 643 70V105C643 107.761 640.761 110 638 110H578C575.239 110 573 107.761 573 105V70Z" fill="#369CB7"/>
<path d="M613.916 90.638H611.684V93.5H609.416V90.638H602.504V89.018L608.714 80.9H611.216L605.366 88.658H609.488V86.12H611.684V88.658H613.916V90.638Z" fill="white"/>
<path d="M578 66H638V64H578V66ZM642 70V105H644V70H642ZM638 109H578V111H638V109ZM574 105V70H572V105H574ZM578 109C575.791 109 574 107.209 574 105H572C572 108.314 574.686 111 578 111V109ZM642 105C642 107.209 640.209 109 638 109V111C641.314 111 644 108.314 644 105H642ZM638 66C640.209 66 642 67.7909 642 70H644C644 66.6863 641.314 64 638 64V66ZM578 64C574.686 64 572 66.6863 572 70H574C574 67.7909 575.791 66 578 66V64Z" fill="#369CB7"/>
<path d="M659.858 80.144H661.586V93.5H659.858V80.144ZM664.885 83.96H666.613V93.5H664.885V83.96ZM665.749 82.124C665.413 82.124 665.131 82.016 664.903 81.8C664.687 81.584 664.579 81.32 664.579 81.008C664.579 80.696 664.687 80.432 664.903 80.216C665.131 79.988 665.413 79.874 665.749 79.874C666.085 79.874 666.361 79.982 666.577 80.198C666.805 80.402 666.919 80.66 666.919 80.972C666.919 81.296 666.805 81.572 666.577 81.8C666.361 82.016 666.085 82.124 665.749 82.124ZM675.276 92.942C675.024 93.158 674.712 93.326 674.34 93.446C673.968 93.554 673.584 93.608 673.188 93.608C672.228 93.608 671.484 93.35 670.956 92.834C670.428 92.318 670.164 91.58 670.164 90.62V85.382H668.544V83.96H670.164V81.872H671.892V83.96H674.628V85.382H671.892V90.548C671.892 91.064 672.018 91.46 672.27 91.736C672.534 92.012 672.906 92.15 673.386 92.15C673.914 92.15 674.364 92 674.736 91.7L675.276 92.942ZM685.671 88.784C685.671 88.916 685.659 89.09 685.635 89.306H677.895C678.003 90.146 678.369 90.824 678.993 91.34C679.629 91.844 680.415 92.096 681.351 92.096C682.491 92.096 683.409 91.712 684.105 90.944L685.059 92.06C684.627 92.564 684.087 92.948 683.439 93.212C682.803 93.476 682.089 93.608 681.297 93.608C680.289 93.608 679.395 93.404 678.615 92.996C677.835 92.576 677.229 91.994 676.797 91.25C676.377 90.506 676.167 89.666 676.167 88.73C676.167 87.806 676.371 86.972 676.779 86.228C677.199 85.484 677.769 84.908 678.489 84.5C679.221 84.08 680.043 83.87 680.955 83.87C681.867 83.87 682.677 84.08 683.385 84.5C684.105 84.908 684.663 85.484 685.059 86.228C685.467 86.972 685.671 87.824 685.671 88.784ZM680.955 85.328C680.127 85.328 679.431 85.58 678.867 86.084C678.315 86.588 677.991 87.248 677.895 88.064H684.015C683.919 87.26 683.589 86.606 683.025 86.102C682.473 85.586 681.783 85.328 680.955 85.328ZM689.727 85.562C690.027 85.01 690.471 84.59 691.059 84.302C691.647 84.014 692.361 83.87 693.201 83.87V85.544C693.105 85.532 692.973 85.526 692.805 85.526C691.869 85.526 691.131 85.808 690.591 86.372C690.063 86.924 689.799 87.716 689.799 88.748V93.5H688.071V83.96H689.727V85.562ZM698.137 93.608C697.357 93.608 696.607 93.506 695.887 93.302C695.167 93.086 694.603 92.816 694.195 92.492L694.915 91.124C695.335 91.424 695.845 91.664 696.445 91.844C697.045 92.024 697.651 92.114 698.263 92.114C699.775 92.114 700.531 91.682 700.531 90.818C700.531 90.53 700.429 90.302 700.225 90.134C700.021 89.966 699.763 89.846 699.451 89.774C699.151 89.69 698.719 89.6 698.155 89.504C697.387 89.384 696.757 89.246 696.265 89.09C695.785 88.934 695.371 88.67 695.023 88.298C694.675 87.926 694.501 87.404 694.501 86.732C694.501 85.868 694.861 85.178 695.581 84.662C696.301 84.134 697.267 83.87 698.479 83.87C699.115 83.87 699.751 83.948 700.387 84.104C701.023 84.26 701.545 84.47 701.953 84.734L701.215 86.102C700.435 85.598 699.517 85.346 698.461 85.346C697.729 85.346 697.171 85.466 696.787 85.706C696.403 85.946 696.211 86.264 696.211 86.66C696.211 86.972 696.319 87.218 696.535 87.398C696.751 87.578 697.015 87.71 697.327 87.794C697.651 87.878 698.101 87.974 698.677 88.082C699.445 88.214 700.063 88.358 700.531 88.514C701.011 88.658 701.419 88.91 701.755 89.27C702.091 89.63 702.259 90.134 702.259 90.782C702.259 91.646 701.887 92.336 701.143 92.852C700.411 93.356 699.409 93.608 698.137 93.608Z" fill="#2F2F2F"/>
<path d="M406.069 145.9V158.5H404.287V147.466H401.443V145.9H406.069ZM414.433 145.144H416.161V158.5H414.433V145.144ZM419.46 148.96H421.188V158.5H419.46V148.96ZM420.324 147.124C419.988 147.124 419.706 147.016 419.478 146.8C419.262 146.584 419.154 146.32 419.154 146.008C419.154 145.696 419.262 145.432 419.478 145.216C419.706 144.988 419.988 144.874 420.324 144.874C420.66 144.874 420.936 144.982 421.152 145.198C421.38 145.402 421.494 145.66 421.494 145.972C421.494 146.296 421.38 146.572 421.152 146.8C420.936 147.016 420.66 147.124 420.324 147.124ZM429.852 157.942C429.6 158.158 429.288 158.326 428.916 158.446C428.544 158.554 428.16 158.608 427.764 158.608C426.804 158.608 426.06 158.35 425.532 157.834C425.004 157.318 424.74 156.58 424.74 155.62V150.382H423.12V148.96H424.74V146.872H426.468V148.96H429.204V150.382H426.468V155.548C426.468 156.064 426.594 156.46 426.846 156.736C427.11 157.012 427.482 157.15 427.962 157.15C428.49 157.15 428.94 157 429.312 156.7L429.852 157.942ZM440.246 153.784C440.246 153.916 440.234 154.09 440.21 154.306H432.47C432.578 155.146 432.944 155.824 433.568 156.34C434.204 156.844 434.99 157.096 435.926 157.096C437.066 157.096 437.984 156.712 438.68 155.944L439.634 157.06C439.202 157.564 438.662 157.948 438.014 158.212C437.378 158.476 436.664 158.608 435.872 158.608C434.864 158.608 433.97 158.404 433.19 157.996C432.41 157.576 431.804 156.994 431.372 156.25C430.952 155.506 430.742 154.666 430.742 153.73C430.742 152.806 430.946 151.972 431.354 151.228C431.774 150.484 432.344 149.908 433.064 149.5C433.796 149.08 434.618 148.87 435.53 148.87C436.442 148.87 437.252 149.08 437.96 149.5C438.68 149.908 439.238 150.484 439.634 151.228C440.042 151.972 440.246 152.824 440.246 153.784ZM435.53 150.328C434.702 150.328 434.006 150.58 433.442 151.084C432.89 151.588 432.566 152.248 432.47 153.064H438.59C438.494 152.26 438.164 151.606 437.6 151.102C437.048 150.586 436.358 150.328 435.53 150.328ZM444.302 150.562C444.602 150.01 445.046 149.59 445.634 149.302C446.222 149.014 446.936 148.87 447.776 148.87V150.544C447.68 150.532 447.548 150.526 447.38 150.526C446.444 150.526 445.706 150.808 445.166 151.372C444.638 151.924 444.374 152.716 444.374 153.748V158.5H442.646V148.96H444.302V150.562ZM454.431 149.356H462.495V150.778H454.431V149.356ZM454.431 153.622H462.495V155.044H454.431V153.622Z" fill="#2F2F2F"/>
<path d="M479 135C479 132.239 481.239 130 484 130H544C546.761 130 549 132.239 549 135V170C549 172.761 546.761 175 544 175H484C481.239 175 479 172.761 479 170V135Z" fill="#369CB7"/>
<path d="M497.553 145.9V158.5H495.213V147.862H492.549V145.9H497.553ZM505.309 158.68C504.301 158.68 503.401 158.428 502.609 157.924C501.817 157.408 501.193 156.664 500.737 155.692C500.281 154.708 500.053 153.544 500.053 152.2C500.053 150.856 500.281 149.698 500.737 148.726C501.193 147.742 501.817 146.998 502.609 146.494C503.401 145.978 504.301 145.72 505.309 145.72C506.317 145.72 507.217 145.978 508.009 146.494C508.813 146.998 509.443 147.742 509.899 148.726C510.355 149.698 510.583 150.856 510.583 152.2C510.583 153.544 510.355 154.708 509.899 155.692C509.443 156.664 508.813 157.408 508.009 157.924C507.217 158.428 506.317 158.68 505.309 158.68ZM505.309 156.646C506.209 156.646 506.917 156.274 507.433 155.53C507.961 154.786 508.225 153.676 508.225 152.2C508.225 150.724 507.961 149.614 507.433 148.87C506.917 148.126 506.209 147.754 505.309 147.754C504.421 147.754 503.713 148.126 503.185 148.87C502.669 149.614 502.411 150.724 502.411 152.2C502.411 153.676 502.669 154.786 503.185 155.53C503.713 156.274 504.421 156.646 505.309 156.646ZM517.42 158.68C516.412 158.68 515.512 158.428 514.72 157.924C513.928 157.408 513.304 156.664 512.848 155.692C512.392 154.708 512.164 153.544 512.164 152.2C512.164 150.856 512.392 149.698 512.848 148.726C513.304 147.742 513.928 146.998 514.72 146.494C515.512 145.978 516.412 145.72 517.42 145.72C518.428 145.72 519.328 145.978 520.12 146.494C520.924 146.998 521.554 147.742 522.01 148.726C522.466 149.698 522.694 150.856 522.694 152.2C522.694 153.544 522.466 154.708 522.01 155.692C521.554 156.664 520.924 157.408 520.12 157.924C519.328 158.428 518.428 158.68 517.42 158.68ZM517.42 156.646C518.32 156.646 519.028 156.274 519.544 155.53C520.072 154.786 520.336 153.676 520.336 152.2C520.336 150.724 520.072 149.614 519.544 148.87C519.028 148.126 518.32 147.754 517.42 147.754C516.532 147.754 515.824 148.126 515.296 148.87C514.78 149.614 514.522 150.724 514.522 152.2C514.522 153.676 514.78 154.786 515.296 155.53C515.824 156.274 516.532 156.646 517.42 156.646ZM529.531 158.68C528.523 158.68 527.623 158.428 526.831 157.924C526.039 157.408 525.415 156.664 524.959 155.692C524.503 154.708 524.275 153.544 524.275 152.2C524.275 150.856 524.503 149.698 524.959 148.726C525.415 147.742 526.039 146.998 526.831 146.494C527.623 145.978 528.523 145.72 529.531 145.72C530.539 145.72 531.439 145.978 532.231 146.494C533.035 146.998 533.665 147.742 534.121 148.726C534.577 149.698 534.805 150.856 534.805 152.2C534.805 153.544 534.577 154.708 534.121 155.692C533.665 156.664 533.035 157.408 532.231 157.924C531.439 158.428 530.539 158.68 529.531 158.68ZM529.531 156.646C530.431 156.646 531.139 156.274 531.655 155.53C532.183 154.786 532.447 153.676 532.447 152.2C532.447 150.724 532.183 149.614 531.655 148.87C531.139 148.126 530.431 147.754 529.531 147.754C528.643 147.754 527.935 148.126 527.407 148.87C526.891 149.614 526.633 150.724 526.633 152.2C526.633 153.676 526.891 154.786 527.407 155.53C527.935 156.274 528.643 156.646 529.531 156.646Z" fill="white"/>
<path d="M484 131H544V129H484V131ZM548 135V170H550V135H548ZM544 174H484V176H544V174ZM480 170V135H478V170H480ZM484 174C481.791 174 480 172.209 480 170H478C478 173.314 480.686 176 484 176V174ZM548 170C548 172.209 546.209 174 544 174V176C547.314 176 550 173.314 550 170H548ZM544 131C546.209 131 548 132.791 548 135H550C550 131.686 547.314 129 544 129V131ZM484 129C480.686 129 478 131.686 478 135H480C480 132.791 481.791 131 484 131V129Z" fill="#369CB7"/>
<path d="M577.727 148.87C578.927 148.87 579.875 149.218 580.571 149.914C581.279 150.61 581.633 151.642 581.633 153.01V158.5H579.905V153.208C579.905 152.284 579.689 151.588 579.257 151.12C578.837 150.652 578.231 150.418 577.439 150.418C576.563 150.418 575.867 150.694 575.351 151.246C574.835 151.786 574.577 152.566 574.577 153.586V158.5H572.849V153.208C572.849 152.284 572.633 151.588 572.201 151.12C571.781 150.652 571.175 150.418 570.383 150.418C569.507 150.418 568.811 150.694 568.295 151.246C567.779 151.786 567.521 152.566 567.521 153.586V158.5H565.793V148.96H567.449V150.382C567.797 149.89 568.253 149.518 568.817 149.266C569.381 149.002 570.023 148.87 570.743 148.87C571.487 148.87 572.147 149.02 572.723 149.32C573.299 149.62 573.743 150.058 574.055 150.634C574.415 150.082 574.913 149.65 575.549 149.338C576.197 149.026 576.923 148.87 577.727 148.87ZM584.813 148.96H586.541V158.5H584.813V148.96ZM585.677 147.124C585.341 147.124 585.059 147.016 584.831 146.8C584.615 146.584 584.507 146.32 584.507 146.008C584.507 145.696 584.615 145.432 584.831 145.216C585.059 144.988 585.341 144.874 585.677 144.874C586.013 144.874 586.289 144.982 586.505 145.198C586.733 145.402 586.847 145.66 586.847 145.972C586.847 146.296 586.733 146.572 586.505 146.8C586.289 147.016 586.013 147.124 585.677 147.124ZM589.84 145.144H591.568V158.5H589.84V145.144ZM594.867 145.144H596.595V158.5H594.867V145.144ZM599.895 148.96H601.623V158.5H599.895V148.96ZM600.759 147.124C600.423 147.124 600.141 147.016 599.913 146.8C599.697 146.584 599.589 146.32 599.589 146.008C599.589 145.696 599.697 145.432 599.913 145.216C600.141 144.988 600.423 144.874 600.759 144.874C601.095 144.874 601.371 144.982 601.587 145.198C601.815 145.402 601.929 145.66 601.929 145.972C601.929 146.296 601.815 146.572 601.587 146.8C601.371 147.016 601.095 147.124 600.759 147.124ZM604.922 145.144H606.65V158.5H604.922V145.144ZM609.95 148.96H611.678V158.5H609.95V148.96ZM610.814 147.124C610.478 147.124 610.196 147.016 609.968 146.8C609.752 146.584 609.644 146.32 609.644 146.008C609.644 145.696 609.752 145.432 609.968 145.216C610.196 144.988 610.478 144.874 610.814 144.874C611.15 144.874 611.426 144.982 611.642 145.198C611.87 145.402 611.984 145.66 611.984 145.972C611.984 146.296 611.87 146.572 611.642 146.8C611.426 147.016 611.15 147.124 610.814 147.124ZM620.341 157.942C620.089 158.158 619.777 158.326 619.405 158.446C619.033 158.554 618.649 158.608 618.253 158.608C617.293 158.608 616.549 158.35 616.021 157.834C615.493 157.318 615.229 156.58 615.229 155.62V150.382H613.609V148.96H615.229V146.872H616.957V148.96H619.693V150.382H616.957V155.548C616.957 156.064 617.083 156.46 617.335 156.736C617.599 157.012 617.971 157.15 618.451 157.15C618.979 157.15 619.429 157 619.801 156.7L620.341 157.942ZM630.736 153.784C630.736 153.916 630.724 154.09 630.7 154.306H622.96C623.068 155.146 623.434 155.824 624.058 156.34C624.694 156.844 625.48 157.096 626.416 157.096C627.556 157.096 628.474 156.712 629.17 155.944L630.124 157.06C629.692 157.564 629.152 157.948 628.504 158.212C627.868 158.476 627.154 158.608 626.362 158.608C625.354 158.608 624.46 158.404 623.68 157.996C622.9 157.576 622.294 156.994 621.862 156.25C621.442 155.506 621.232 154.666 621.232 153.73C621.232 152.806 621.436 151.972 621.844 151.228C622.264 150.484 622.834 149.908 623.554 149.5C624.286 149.08 625.108 148.87 626.02 148.87C626.932 148.87 627.742 149.08 628.45 149.5C629.17 149.908 629.728 150.484 630.124 151.228C630.532 151.972 630.736 152.824 630.736 153.784ZM626.02 150.328C625.192 150.328 624.496 150.58 623.932 151.084C623.38 151.588 623.056 152.248 622.96 153.064H629.08C628.984 152.26 628.654 151.606 628.09 151.102C627.538 150.586 626.848 150.328 626.02 150.328ZM634.791 150.562C635.091 150.01 635.535 149.59 636.123 149.302C636.711 149.014 637.425 148.87 638.265 148.87V150.544C638.169 150.532 638.037 150.526 637.869 150.526C636.933 150.526 636.195 150.808 635.655 151.372C635.127 151.924 634.863 152.716 634.863 153.748V158.5H633.135V148.96H634.791V150.562ZM643.201 158.608C642.421 158.608 641.671 158.506 640.951 158.302C640.231 158.086 639.667 157.816 639.259 157.492L639.979 156.124C640.399 156.424 640.909 156.664 641.509 156.844C642.109 157.024 642.715 157.114 643.327 157.114C644.839 157.114 645.595 156.682 645.595 155.818C645.595 155.53 645.493 155.302 645.289 155.134C645.085 154.966 644.827 154.846 644.515 154.774C644.215 154.69 643.783 154.6 643.219 154.504C642.451 154.384 641.821 154.246 641.329 154.09C640.849 153.934 640.435 153.67 640.087 153.298C639.739 152.926 639.565 152.404 639.565 151.732C639.565 150.868 639.925 150.178 640.645 149.662C641.365 149.134 642.331 148.87 643.543 148.87C644.179 148.87 644.815 148.948 645.451 149.104C646.087 149.26 646.609 149.47 647.017 149.734L646.279 151.102C645.499 150.598 644.581 150.346 643.525 150.346C642.793 150.346 642.235 150.466 641.851 150.706C641.467 150.946 641.275 151.264 641.275 151.66C641.275 151.972 641.383 152.218 641.599 152.398C641.815 152.578 642.079 152.71 642.391 152.794C642.715 152.878 643.165 152.974 643.741 153.082C644.509 153.214 645.127 153.358 645.595 153.514C646.075 153.658 646.483 153.91 646.819 154.27C647.155 154.63 647.323 155.134 647.323 155.782C647.323 156.646 646.951 157.336 646.207 157.852C645.475 158.356 644.473 158.608 643.201 158.608Z" fill="#2F2F2F"/>
</svg>
