<svg width="447" height="244" viewBox="0 0 447 244" fill="none" xmlns="http://www.w3.org/2000/svg">
<rect x="25.5" y="27.5" width="277" height="136" fill="#ABE9FF" stroke="#0995E3"/>
<rect x="136.5" y="80.5" width="49.2685" height="29" rx="4.5" fill="white"/>
<path d="M160.937 97.904H158.543V101H156.797V97.904H149.795V96.644L156.239 88.4H158.183L152.009 96.356H156.851V93.62H158.543V96.356H160.937V97.904ZM167.164 101.144C166.168 101.144 165.28 100.892 164.5 100.388C163.732 99.872 163.126 99.128 162.682 98.156C162.238 97.184 162.016 96.032 162.016 94.7C162.016 93.368 162.238 92.216 162.682 91.244C163.126 90.272 163.732 89.534 164.5 89.03C165.28 88.514 166.168 88.256 167.164 88.256C168.148 88.256 169.024 88.514 169.792 89.03C170.572 89.534 171.184 90.272 171.628 91.244C172.072 92.216 172.294 93.368 172.294 94.7C172.294 96.032 172.072 97.184 171.628 98.156C171.184 99.128 170.572 99.872 169.792 100.388C169.024 100.892 168.148 101.144 167.164 101.144ZM167.164 99.542C168.172 99.542 168.976 99.128 169.576 98.3C170.188 97.472 170.494 96.272 170.494 94.7C170.494 93.128 170.188 91.928 169.576 91.1C168.976 90.272 168.172 89.858 167.164 89.858C166.144 89.858 165.328 90.272 164.716 91.1C164.116 91.928 163.816 93.128 163.816 94.7C163.816 96.272 164.116 97.472 164.716 98.3C165.328 99.128 166.144 99.542 167.164 99.542Z" fill="#2F2F2F"/>
<rect x="136.5" y="80.5" width="49.2685" height="29" rx="4.5" stroke="#0995E3"/>
<path d="M159.075 13.434V15H150.021V13.776L155.151 8.826C155.775 8.226 156.195 7.71 156.411 7.278C156.627 6.834 156.735 6.39 156.735 5.946C156.735 5.286 156.501 4.776 156.033 4.416C155.577 4.044 154.917 3.858 154.053 3.858C152.661 3.858 151.587 4.314 150.831 5.226L149.607 4.164C150.099 3.564 150.741 3.096 151.533 2.76C152.337 2.424 153.231 2.256 154.215 2.256C155.535 2.256 156.585 2.574 157.365 3.21C158.145 3.834 158.535 4.686 158.535 5.766C158.535 6.438 158.391 7.074 158.103 7.674C157.815 8.274 157.269 8.958 156.465 9.726L152.613 13.434H159.075ZM165.651 15.144C164.655 15.144 163.767 14.892 162.987 14.388C162.219 13.872 161.613 13.128 161.169 12.156C160.725 11.184 160.503 10.032 160.503 8.7C160.503 7.368 160.725 6.216 161.169 5.244C161.613 4.272 162.219 3.534 162.987 3.03C163.767 2.514 164.655 2.256 165.651 2.256C166.635 2.256 167.511 2.514 168.279 3.03C169.059 3.534 169.671 4.272 170.115 5.244C170.559 6.216 170.781 7.368 170.781 8.7C170.781 10.032 170.559 11.184 170.115 12.156C169.671 13.128 169.059 13.872 168.279 14.388C167.511 14.892 166.635 15.144 165.651 15.144ZM165.651 13.542C166.659 13.542 167.463 13.128 168.063 12.3C168.675 11.472 168.981 10.272 168.981 8.7C168.981 7.128 168.675 5.928 168.063 5.1C167.463 4.272 166.659 3.858 165.651 3.858C164.631 3.858 163.815 4.272 163.203 5.1C162.603 5.928 162.303 7.128 162.303 8.7C162.303 10.272 162.603 11.472 163.203 12.3C163.815 13.128 164.631 13.542 165.651 13.542Z" fill="#2F2F2F"/>
<path d="M10.052 103.434V105H0.998031V103.776L6.12803 98.826C6.75203 98.226 7.17203 97.71 7.38803 97.278C7.60403 96.834 7.71203 96.39 7.71203 95.946C7.71203 95.286 7.47803 94.776 7.01003 94.416C6.55403 94.044 5.89403 93.858 5.03003 93.858C3.63803 93.858 2.56403 94.314 1.80803 95.226L0.584031 94.164C1.07603 93.564 1.71803 93.096 2.51003 92.76C3.31403 92.424 4.20803 92.256 5.19203 92.256C6.51203 92.256 7.56203 92.574 8.34203 93.21C9.12203 93.834 9.51203 94.686 9.51203 95.766C9.51203 96.438 9.36803 97.074 9.08003 97.674C8.79203 98.274 8.24603 98.958 7.44203 99.726L3.59003 103.434H10.052Z" fill="#2F2F2F"/>
<rect x="308.5" y="27.5" width="137.258" height="136" fill="#C6FFAB" stroke="#09E31E"/>
<rect x="357.5" y="80.5" width="39" height="29" rx="4.5" fill="white"/>
<path d="M373.271 88.4V101H371.489V89.966H368.645V88.4H373.271ZM384.883 99.434V101H375.829V99.776L380.959 94.826C381.583 94.226 382.003 93.71 382.219 93.278C382.435 92.834 382.543 92.39 382.543 91.946C382.543 91.286 382.309 90.776 381.841 90.416C381.385 90.044 380.725 89.858 379.861 89.858C378.469 89.858 377.395 90.314 376.639 91.226L375.415 90.164C375.907 89.564 376.549 89.096 377.341 88.76C378.145 88.424 379.039 88.256 380.023 88.256C381.343 88.256 382.393 88.574 383.173 89.21C383.953 89.834 384.343 90.686 384.343 91.766C384.343 92.438 384.199 93.074 383.911 93.674C383.623 94.274 383.077 94.958 382.273 95.726L378.421 99.434H384.883Z" fill="#2F2F2F"/>
<rect x="357.5" y="80.5" width="39" height="29" rx="4.5" stroke="#09E31E"/>
<path d="M183.901 232.434V234H174.847V232.776L179.977 227.826C180.601 227.226 181.021 226.71 181.237 226.278C181.453 225.834 181.561 225.39 181.561 224.946C181.561 224.286 181.327 223.776 180.859 223.416C180.403 223.044 179.743 222.858 178.879 222.858C177.487 222.858 176.413 223.314 175.657 224.226L174.433 223.164C174.925 222.564 175.567 222.096 176.359 221.76C177.163 221.424 178.057 221.256 179.041 221.256C180.361 221.256 181.411 221.574 182.191 222.21C182.971 222.834 183.361 223.686 183.361 224.766C183.361 225.438 183.217 226.074 182.929 226.674C182.641 227.274 182.095 227.958 181.291 228.726L177.439 232.434H183.901ZM197.073 234L194.319 230.346L191.529 234H189.603L193.365 229.122L189.783 224.46H191.709L194.337 227.898L196.947 224.46H198.837L195.237 229.122L199.035 234H197.073ZM213.836 232.434V234H204.782V232.776L209.912 227.826C210.536 227.226 210.956 226.71 211.172 226.278C211.388 225.834 211.496 225.39 211.496 224.946C211.496 224.286 211.262 223.776 210.794 223.416C210.338 223.044 209.678 222.858 208.814 222.858C207.422 222.858 206.348 223.314 205.592 224.226L204.368 223.164C204.86 222.564 205.502 222.096 206.294 221.76C207.098 221.424 207.992 221.256 208.976 221.256C210.296 221.256 211.346 221.574 212.126 222.21C212.906 222.834 213.296 223.686 213.296 224.766C213.296 225.438 213.152 226.074 212.864 226.674C212.576 227.274 212.03 227.958 211.226 228.726L207.374 232.434H213.836ZM220.699 226.35C221.527 226.35 222.265 226.506 222.913 226.818C223.573 227.13 224.089 227.58 224.461 228.168C224.833 228.744 225.019 229.41 225.019 230.166C225.019 230.958 224.821 231.654 224.425 232.254C224.041 232.854 223.507 233.322 222.823 233.658C222.151 233.982 221.395 234.144 220.555 234.144C218.863 234.144 217.555 233.598 216.631 232.506C215.719 231.414 215.263 229.866 215.263 227.862C215.263 226.458 215.509 225.264 216.001 224.28C216.505 223.284 217.201 222.534 218.089 222.03C218.989 221.514 220.033 221.256 221.221 221.256C221.833 221.256 222.409 221.322 222.949 221.454C223.489 221.574 223.957 221.754 224.353 221.994L223.669 223.398C223.069 223.002 222.265 222.804 221.257 222.804C219.949 222.804 218.923 223.212 218.179 224.028C217.435 224.832 217.063 226.008 217.063 227.556C217.063 227.748 217.069 227.898 217.081 228.006C217.441 227.466 217.933 227.058 218.557 226.782C219.193 226.494 219.907 226.35 220.699 226.35ZM220.483 232.686C221.311 232.686 221.983 232.464 222.499 232.02C223.015 231.576 223.273 230.982 223.273 230.238C223.273 229.494 223.009 228.906 222.481 228.474C221.965 228.03 221.269 227.808 220.393 227.808C219.829 227.808 219.325 227.916 218.881 228.132C218.449 228.348 218.107 228.642 217.855 229.014C217.615 229.386 217.495 229.8 217.495 230.256C217.495 230.7 217.609 231.108 217.837 231.48C218.077 231.84 218.419 232.134 218.863 232.362C219.319 232.578 219.859 232.686 220.483 232.686ZM231.549 224.856H239.613V226.278H231.549V224.856ZM231.549 229.122H239.613V230.544H231.549V229.122Z" fill="#2F2F2F"/>
<path d="M256 215H286V213H256V215ZM290 219V239H292V219H290ZM286 243H256V245H286V243ZM252 239V219H250V239H252ZM256 243C253.791 243 252 241.209 252 239H250C250 242.314 252.686 245 256 245V243ZM290 239C290 241.209 288.209 243 286 243V245C289.314 245 292 242.314 292 239H290ZM286 215C288.209 215 290 216.791 290 219H292C292 215.686 289.314 213 286 213V215ZM256 213C252.686 213 250 215.686 250 219H252C252 216.791 253.791 215 256 215V213Z" fill="#2F2F2F"/>
<path d="M377.245 7.35C378.073 7.35 378.811 7.506 379.459 7.818C380.119 8.13 380.635 8.58 381.007 9.168C381.379 9.744 381.565 10.41 381.565 11.166C381.565 11.958 381.367 12.654 380.971 13.254C380.587 13.854 380.053 14.322 379.369 14.658C378.697 14.982 377.941 15.144 377.101 15.144C375.409 15.144 374.101 14.598 373.177 13.506C372.265 12.414 371.809 10.866 371.809 8.862C371.809 7.458 372.055 6.264 372.547 5.28C373.051 4.284 373.747 3.534 374.635 3.03C375.535 2.514 376.579 2.256 377.767 2.256C378.379 2.256 378.955 2.322 379.495 2.454C380.035 2.574 380.503 2.754 380.899 2.994L380.215 4.398C379.615 4.002 378.811 3.804 377.803 3.804C376.495 3.804 375.469 4.212 374.725 5.028C373.981 5.832 373.609 7.008 373.609 8.556C373.609 8.748 373.615 8.898 373.627 9.006C373.987 8.466 374.479 8.058 375.103 7.782C375.739 7.494 376.453 7.35 377.245 7.35ZM377.029 13.686C377.857 13.686 378.529 13.464 379.045 13.02C379.561 12.576 379.819 11.982 379.819 11.238C379.819 10.494 379.555 9.906 379.027 9.474C378.511 9.03 377.815 8.808 376.939 8.808C376.375 8.808 375.871 8.916 375.427 9.132C374.995 9.348 374.653 9.642 374.401 10.014C374.161 10.386 374.041 10.8 374.041 11.256C374.041 11.7 374.155 12.108 374.383 12.48C374.623 12.84 374.965 13.134 375.409 13.362C375.865 13.578 376.405 13.686 377.029 13.686Z" fill="#2F2F2F"/>
<path d="M264.672 227.422C266.472 227.422 267.792 227.764 268.632 228.448C269.484 229.12 269.91 230.044 269.91 231.22C269.91 231.964 269.73 232.636 269.37 233.236C269.022 233.824 268.488 234.292 267.768 234.64C267.06 234.976 266.184 235.144 265.14 235.144C264.252 235.144 263.394 235.012 262.566 234.748C261.738 234.472 261.054 234.094 260.514 233.614L261.342 232.192C261.774 232.6 262.326 232.93 262.998 233.182C263.67 233.422 264.378 233.542 265.122 233.542C266.07 233.542 266.802 233.344 267.318 232.948C267.846 232.54 268.11 231.988 268.11 231.292C268.11 230.536 267.822 229.966 267.246 229.582C266.67 229.186 265.686 228.988 264.294 228.988H261.432L262.098 222.4H269.208V223.966H263.61L263.268 227.422H264.672ZM280.176 233.434V235H271.122V233.776L276.252 228.826C276.876 228.226 277.296 227.71 277.512 227.278C277.728 226.834 277.836 226.39 277.836 225.946C277.836 225.286 277.602 224.776 277.134 224.416C276.678 224.044 276.018 223.858 275.154 223.858C273.762 223.858 272.688 224.314 271.932 225.226L270.708 224.164C271.2 223.564 271.842 223.096 272.634 222.76C273.438 222.424 274.332 222.256 275.316 222.256C276.636 222.256 277.686 222.574 278.466 223.21C279.246 223.834 279.636 224.686 279.636 225.766C279.636 226.438 279.492 227.074 279.204 227.674C278.916 228.274 278.37 228.958 277.566 229.726L273.714 233.434H280.176Z" fill="#2F2F2F"/>
</svg>
