<svg width="391" height="170" viewBox="0 0 391 170" fill="none" xmlns="http://www.w3.org/2000/svg">
<rect x="26.5" y="33.5" width="220.212" height="136" fill="#ABE9FF" stroke="#0995E3"/>
<path d="M135.075 13.434V15H126.021V13.776L131.151 8.826C131.775 8.226 132.195 7.71 132.411 7.278C132.627 6.834 132.735 6.39 132.735 5.946C132.735 5.286 132.501 4.776 132.033 4.416C131.577 4.044 130.917 3.858 130.053 3.858C128.661 3.858 127.587 4.314 126.831 5.226L125.607 4.164C126.099 3.564 126.741 3.096 127.533 2.76C128.337 2.424 129.231 2.256 130.215 2.256C131.535 2.256 132.585 2.574 133.365 3.21C134.145 3.834 134.535 4.686 134.535 5.766C134.535 6.438 134.391 7.074 134.103 7.674C133.815 8.274 133.269 8.958 132.465 9.726L128.613 13.434H135.075ZM141.651 15.144C140.655 15.144 139.767 14.892 138.987 14.388C138.219 13.872 137.613 13.128 137.169 12.156C136.725 11.184 136.503 10.032 136.503 8.7C136.503 7.368 136.725 6.216 137.169 5.244C137.613 4.272 138.219 3.534 138.987 3.03C139.767 2.514 140.655 2.256 141.651 2.256C142.635 2.256 143.511 2.514 144.279 3.03C145.059 3.534 145.671 4.272 146.115 5.244C146.559 6.216 146.781 7.368 146.781 8.7C146.781 10.032 146.559 11.184 146.115 12.156C145.671 13.128 145.059 13.872 144.279 14.388C143.511 14.892 142.635 15.144 141.651 15.144ZM141.651 13.542C142.659 13.542 143.463 13.128 144.063 12.3C144.675 11.472 144.981 10.272 144.981 8.7C144.981 7.128 144.675 5.928 144.063 5.1C143.463 4.272 142.659 3.858 141.651 3.858C140.631 3.858 139.815 4.272 139.203 5.1C138.603 5.928 138.303 7.128 138.303 8.7C138.303 10.272 138.603 11.472 139.203 12.3C139.815 13.128 140.631 13.542 141.651 13.542Z" fill="#2F2F2F"/>
<path d="M322.745 7.35C323.573 7.35 324.311 7.506 324.959 7.818C325.619 8.13 326.135 8.58 326.507 9.168C326.879 9.744 327.065 10.41 327.065 11.166C327.065 11.958 326.867 12.654 326.471 13.254C326.087 13.854 325.553 14.322 324.869 14.658C324.197 14.982 323.441 15.144 322.601 15.144C320.909 15.144 319.601 14.598 318.677 13.506C317.765 12.414 317.309 10.866 317.309 8.862C317.309 7.458 317.555 6.264 318.047 5.28C318.551 4.284 319.247 3.534 320.135 3.03C321.035 2.514 322.079 2.256 323.267 2.256C323.879 2.256 324.455 2.322 324.995 2.454C325.535 2.574 326.003 2.754 326.399 2.994L325.715 4.398C325.115 4.002 324.311 3.804 323.303 3.804C321.995 3.804 320.969 4.212 320.225 5.028C319.481 5.832 319.109 7.008 319.109 8.556C319.109 8.748 319.115 8.898 319.127 9.006C319.487 8.466 319.979 8.058 320.603 7.782C321.239 7.494 321.953 7.35 322.745 7.35ZM322.529 13.686C323.357 13.686 324.029 13.464 324.545 13.02C325.061 12.576 325.319 11.982 325.319 11.238C325.319 10.494 325.055 9.906 324.527 9.474C324.011 9.03 323.315 8.808 322.439 8.808C321.875 8.808 321.371 8.916 320.927 9.132C320.495 9.348 320.153 9.642 319.901 10.014C319.661 10.386 319.541 10.8 319.541 11.256C319.541 11.7 319.655 12.108 319.883 12.48C320.123 12.84 320.465 13.134 320.909 13.362C321.365 13.578 321.905 13.686 322.529 13.686Z" fill="#2F2F2F"/>
<path d="M10.052 105.434V107H0.998031V105.776L6.12803 100.826C6.75203 100.226 7.17203 99.71 7.38803 99.278C7.60403 98.834 7.71203 98.39 7.71203 97.946C7.71203 97.286 7.47803 96.776 7.01003 96.416C6.55403 96.044 5.89403 95.858 5.03003 95.858C3.63803 95.858 2.56403 96.314 1.80803 97.226L0.584031 96.164C1.07603 95.564 1.71803 95.096 2.51003 94.76C3.31403 94.424 4.20803 94.256 5.19203 94.256C6.51203 94.256 7.56203 94.574 8.34203 95.21C9.12203 95.834 9.51203 96.686 9.51203 97.766C9.51203 98.438 9.36803 99.074 9.08003 99.674C8.79203 100.274 8.24603 100.958 7.44203 101.726L3.59003 105.434H10.052Z" fill="#2F2F2F"/>
<rect x="253.242" y="33.5" width="137.258" height="136" fill="#C6FFAB" stroke="#09E31E"/>
</svg>
