<svg width="497" height="240" viewBox="0 0 497 240" fill="none" xmlns="http://www.w3.org/2000/svg">
<path d="M16.1831 216.192C17.4191 216.312 18.3611 216.696 19.0091 217.344C19.6571 217.98 19.9811 218.796 19.9811 219.792C19.9811 220.512 19.8011 221.166 19.4411 221.754C19.0811 222.33 18.5411 222.792 17.8211 223.14C17.1131 223.476 16.2431 223.644 15.2111 223.644C14.3111 223.644 13.4471 223.512 12.6191 223.248C11.7911 222.972 11.1131 222.594 10.5851 222.114L11.4131 220.692C11.8451 221.1 12.3971 221.43 13.0691 221.682C13.7411 221.922 14.4551 222.042 15.2111 222.042C16.1471 222.042 16.8731 221.844 17.3891 221.448C17.9171 221.052 18.1811 220.506 18.1811 219.81C18.1811 219.114 17.9231 218.574 17.4071 218.19C16.8911 217.806 16.1111 217.614 15.0671 217.614H14.0591V216.354L17.2271 212.466H11.1611V210.9H19.4771V212.124L16.1831 216.192ZM33.3519 223.5L30.5979 219.846L27.8079 223.5H25.8819L29.6439 218.622L26.0619 213.96H27.9879L30.6159 217.398L33.2259 213.96H35.1159L31.5159 218.622L35.3139 223.5H33.3519ZM45.1655 210.9V223.5H43.3835V212.466H40.5395V210.9H45.1655ZM51.8276 210.9V223.5H50.0456V212.466H47.2016V210.9H51.8276ZM71.1097 223.5L68.3557 219.846L65.5657 223.5H63.6397L67.4017 218.622L63.8197 213.96H65.7457L68.3737 217.398L70.9837 213.96H72.8737L69.2737 218.622L73.0717 223.5H71.1097ZM89.9793 220.404H87.5853V223.5H85.8393V220.404H78.8373V219.144L85.2813 210.9H87.2253L81.0513 218.856H85.8933V216.12H87.5853V218.856H89.9793V220.404ZM96.2343 214.356H104.298V215.778H96.2343V214.356ZM96.2343 218.622H104.298V220.044H96.2343V218.622Z" fill="#2F2F2F"/>
<path d="M121 200C121 197.239 123.239 195 126 195H186C188.761 195 191 197.239 191 200V235C191 237.761 188.761 240 186 240H126C123.239 240 121 237.761 121 235V200Z" fill="#369CB7"/>
<path d="M147.288 210.9V223.5H144.948V212.862H142.284V210.9H147.288ZM155.151 216.102C156.315 216.246 157.203 216.642 157.815 217.29C158.427 217.938 158.733 218.748 158.733 219.72C158.733 220.452 158.547 221.118 158.175 221.718C157.803 222.318 157.239 222.798 156.483 223.158C155.739 223.506 154.827 223.68 153.747 223.68C152.847 223.68 151.977 223.554 151.137 223.302C150.309 223.038 149.601 222.678 149.013 222.222L150.021 220.404C150.477 220.788 151.029 221.094 151.677 221.322C152.337 221.538 153.015 221.646 153.711 221.646C154.539 221.646 155.187 221.478 155.655 221.142C156.135 220.794 156.375 220.326 156.375 219.738C156.375 219.15 156.147 218.694 155.691 218.37C155.247 218.034 154.563 217.866 153.639 217.866H152.487V216.264L155.349 212.862H149.625V210.9H158.211V212.466L155.151 216.102ZM169.302 221.52V223.5H160.014V221.934L165.018 217.182C165.582 216.642 165.96 216.174 166.152 215.778C166.356 215.37 166.458 214.968 166.458 214.572C166.458 213.984 166.26 213.534 165.864 213.222C165.468 212.91 164.886 212.754 164.118 212.754C162.834 212.754 161.85 213.192 161.166 214.068L159.528 212.808C160.02 212.148 160.68 211.638 161.508 211.278C162.348 210.906 163.284 210.72 164.316 210.72C165.684 210.72 166.776 211.044 167.592 211.692C168.408 212.34 168.816 213.222 168.816 214.338C168.816 215.022 168.672 215.664 168.384 216.264C168.096 216.864 167.544 217.548 166.728 218.316L163.362 221.52H169.302Z" fill="white"/>
<path d="M126 196H186V194H126V196ZM190 200V235H192V200H190ZM186 239H126V241H186V239ZM122 235V200H120V235H122ZM126 239C123.791 239 122 237.209 122 235H120C120 238.314 122.686 241 126 241V239ZM190 235C190 237.209 188.209 239 186 239V241C189.314 241 192 238.314 192 235H190ZM186 196C188.209 196 190 197.791 190 200H192C192 196.686 189.314 194 186 194V196ZM126 194C122.686 194 120 196.686 120 200H122C122 197.791 123.791 196 126 196V194Z" fill="#369CB7"/>
<path d="M29.9634 145.9V158.5H28.1814V147.466H25.3374V145.9H29.9634ZM41.5755 156.934V158.5H32.5215V157.276L37.6515 152.326C38.2755 151.726 38.6955 151.21 38.9115 150.778C39.1275 150.334 39.2355 149.89 39.2355 149.446C39.2355 148.786 39.0015 148.276 38.5335 147.916C38.0775 147.544 37.4175 147.358 36.5535 147.358C35.1615 147.358 34.0875 147.814 33.3315 148.726L32.1075 147.664C32.5995 147.064 33.2415 146.596 34.0335 146.26C34.8375 145.924 35.7315 145.756 36.7155 145.756C38.0355 145.756 39.0855 146.074 39.8655 146.71C40.6455 147.334 41.0355 148.186 41.0355 149.266C41.0355 149.938 40.8915 150.574 40.6035 151.174C40.3155 151.774 39.7695 152.458 38.9655 153.226L35.1135 156.934H41.5755ZM53.6834 155.404H51.2894V158.5H49.5434V155.404H42.5414V154.144L48.9854 145.9H50.9294L44.7554 153.856H49.5974V151.12H51.2894V153.856H53.6834V155.404ZM66.4544 158.5L63.7004 154.846L60.9104 158.5H58.9844L62.7464 153.622L59.1644 148.96H61.0904L63.7184 152.398L66.3284 148.96H68.2184L64.6184 153.622L68.4164 158.5H66.4544ZM78.268 145.9V158.5H76.486V147.466H73.642V145.9H78.268ZM89.8802 156.934V158.5H80.8262V157.276L85.9562 152.326C86.5802 151.726 87.0002 151.21 87.2162 150.778C87.4322 150.334 87.5402 149.89 87.5402 149.446C87.5402 148.786 87.3062 148.276 86.8382 147.916C86.3822 147.544 85.7222 147.358 84.8582 147.358C83.4662 147.358 82.3922 147.814 81.6362 148.726L80.4122 147.664C80.9042 147.064 81.5462 146.596 82.3382 146.26C83.1422 145.924 84.0362 145.756 85.0202 145.756C86.3402 145.756 87.3902 146.074 88.1702 146.71C88.9502 147.334 89.3402 148.186 89.3402 149.266C89.3402 149.938 89.1962 150.574 88.9082 151.174C88.6202 151.774 88.0742 152.458 87.2702 153.226L83.4182 156.934H89.8802ZM96.5361 149.356H104.6V150.778H96.5361V149.356ZM96.5361 153.622H104.6V155.044H96.5361V153.622Z" fill="#2F2F2F"/>
<path d="M121 135C121 132.239 123.239 130 126 130H186C188.761 130 191 132.239 191 135V170C191 172.761 188.761 175 186 175H126C123.239 175 121 172.761 121 170V135Z" fill="#369CB7"/>
<path d="M139.782 145.9V158.5H137.442V147.862H134.778V145.9H139.782ZM153.513 155.638H151.281V158.5H149.013V155.638H142.101V154.018L148.311 145.9H150.813L144.963 153.658H149.085V151.12H151.281V153.658H153.513V155.638ZM162.846 151.876C163.506 152.176 164.01 152.584 164.358 153.1C164.718 153.604 164.898 154.198 164.898 154.882C164.898 155.65 164.682 156.322 164.25 156.898C163.83 157.474 163.23 157.918 162.45 158.23C161.67 158.53 160.764 158.68 159.732 158.68C158.7 158.68 157.794 158.53 157.014 158.23C156.246 157.918 155.652 157.474 155.232 156.898C154.812 156.322 154.602 155.65 154.602 154.882C154.602 154.198 154.776 153.604 155.124 153.1C155.472 152.584 155.97 152.176 156.618 151.876C156.114 151.6 155.724 151.24 155.448 150.796C155.184 150.34 155.052 149.818 155.052 149.23C155.052 148.522 155.244 147.904 155.628 147.376C156.024 146.848 156.576 146.44 157.284 146.152C157.992 145.864 158.808 145.72 159.732 145.72C160.668 145.72 161.49 145.864 162.198 146.152C162.906 146.44 163.458 146.848 163.854 147.376C164.25 147.904 164.448 148.522 164.448 149.23C164.448 149.818 164.31 150.334 164.034 150.778C163.758 151.222 163.362 151.588 162.846 151.876ZM159.732 147.556C159 147.556 158.418 147.712 157.986 148.024C157.566 148.336 157.356 148.774 157.356 149.338C157.356 149.878 157.566 150.31 157.986 150.634C158.418 150.946 159 151.102 159.732 151.102C160.476 151.102 161.064 150.946 161.496 150.634C161.928 150.31 162.144 149.878 162.144 149.338C162.144 148.774 161.922 148.336 161.478 148.024C161.046 147.712 160.464 147.556 159.732 147.556ZM159.732 156.844C160.596 156.844 161.28 156.664 161.784 156.304C162.288 155.944 162.54 155.446 162.54 154.81C162.54 154.186 162.288 153.694 161.784 153.334C161.28 152.974 160.596 152.794 159.732 152.794C158.868 152.794 158.19 152.974 157.698 153.334C157.206 153.694 156.96 154.186 156.96 154.81C156.96 155.446 157.206 155.944 157.698 156.304C158.19 156.664 158.868 156.844 159.732 156.844ZM174.588 151.876C175.248 152.176 175.752 152.584 176.1 153.1C176.46 153.604 176.64 154.198 176.64 154.882C176.64 155.65 176.424 156.322 175.992 156.898C175.572 157.474 174.972 157.918 174.192 158.23C173.412 158.53 172.506 158.68 171.474 158.68C170.442 158.68 169.536 158.53 168.756 158.23C167.988 157.918 167.394 157.474 166.974 156.898C166.554 156.322 166.344 155.65 166.344 154.882C166.344 154.198 166.518 153.604 166.866 153.1C167.214 152.584 167.712 152.176 168.36 151.876C167.856 151.6 167.466 151.24 167.19 150.796C166.926 150.34 166.794 149.818 166.794 149.23C166.794 148.522 166.986 147.904 167.37 147.376C167.766 146.848 168.318 146.44 169.026 146.152C169.734 145.864 170.55 145.72 171.474 145.72C172.41 145.72 173.232 145.864 173.94 146.152C174.648 146.44 175.2 146.848 175.596 147.376C175.992 147.904 176.19 148.522 176.19 149.23C176.19 149.818 176.052 150.334 175.776 150.778C175.5 151.222 175.104 151.588 174.588 151.876ZM171.474 147.556C170.742 147.556 170.16 147.712 169.728 148.024C169.308 148.336 169.098 148.774 169.098 149.338C169.098 149.878 169.308 150.31 169.728 150.634C170.16 150.946 170.742 151.102 171.474 151.102C172.218 151.102 172.806 150.946 173.238 150.634C173.67 150.31 173.886 149.878 173.886 149.338C173.886 148.774 173.664 148.336 173.22 148.024C172.788 147.712 172.206 147.556 171.474 147.556ZM171.474 156.844C172.338 156.844 173.022 156.664 173.526 156.304C174.03 155.944 174.282 155.446 174.282 154.81C174.282 154.186 174.03 153.694 173.526 153.334C173.022 152.974 172.338 152.794 171.474 152.794C170.61 152.794 169.932 152.974 169.44 153.334C168.948 153.694 168.702 154.186 168.702 154.81C168.702 155.446 168.948 155.944 169.44 156.304C169.932 156.664 170.61 156.844 171.474 156.844Z" fill="white"/>
<path d="M126 131H186V129H126V131ZM190 135V170H192V135H190ZM186 174H126V176H186V174ZM122 170V135H120V170H122ZM126 174C123.791 174 122 172.209 122 170H120C120 173.314 122.686 176 126 176V174ZM190 170C190 172.209 188.209 174 186 174V176C189.314 176 192 173.314 192 170H190ZM186 131C188.209 131 190 132.791 190 135H192C192 131.686 189.314 129 186 129V131ZM126 129C122.686 129 120 131.686 120 135H122C122 132.791 123.791 131 126 131V129Z" fill="#369CB7"/>
<path d="M38.9771 86.192C40.2131 86.312 41.1551 86.696 41.8031 87.344C42.4511 87.98 42.7751 88.796 42.7751 89.792C42.7751 90.512 42.5951 91.166 42.2351 91.754C41.8751 92.33 41.3351 92.792 40.6151 93.14C39.9071 93.476 39.0371 93.644 38.0051 93.644C37.1051 93.644 36.2411 93.512 35.4131 93.248C34.5851 92.972 33.9071 92.594 33.3791 92.114L34.2071 90.692C34.6391 91.1 35.1911 91.43 35.8631 91.682C36.5351 91.922 37.2491 92.042 38.0051 92.042C38.9411 92.042 39.6671 91.844 40.1831 91.448C40.7111 91.052 40.9751 90.506 40.9751 89.81C40.9751 89.114 40.7171 88.574 40.2011 88.19C39.6851 87.806 38.9051 87.614 37.8611 87.614H36.8531V86.354L40.0211 82.466H33.9551V80.9H42.2711V82.124L38.9771 86.192ZM53.222 91.934V93.5H44.168V92.276L49.298 87.326C49.922 86.726 50.342 86.21 50.558 85.778C50.774 85.334 50.882 84.89 50.882 84.446C50.882 83.786 50.648 83.276 50.18 82.916C49.724 82.544 49.064 82.358 48.2 82.358C46.808 82.358 45.734 82.814 44.978 83.726L43.754 82.664C44.246 82.064 44.888 81.596 45.68 81.26C46.484 80.924 47.378 80.756 48.362 80.756C49.682 80.756 50.732 81.074 51.512 81.71C52.292 82.334 52.682 83.186 52.682 84.266C52.682 84.938 52.538 85.574 52.25 86.174C51.962 86.774 51.416 87.458 50.612 88.226L46.76 91.934H53.222ZM66.3939 93.5L63.6399 89.846L60.8499 93.5H58.9239L62.6859 88.622L59.1039 83.96H61.0299L63.6579 87.398L66.2679 83.96H68.1579L64.5579 88.622L68.3559 93.5H66.3939ZM78.2075 80.9V93.5H76.4255V82.466H73.5815V80.9H78.2075ZM85.7876 86.192C87.0236 86.312 87.9656 86.696 88.6136 87.344C89.2616 87.98 89.5856 88.796 89.5856 89.792C89.5856 90.512 89.4056 91.166 89.0456 91.754C88.6856 92.33 88.1456 92.792 87.4256 93.14C86.7176 93.476 85.8476 93.644 84.8156 93.644C83.9156 93.644 83.0516 93.512 82.2236 93.248C81.3956 92.972 80.7176 92.594 80.1896 92.114L81.0176 90.692C81.4496 91.1 82.0016 91.43 82.6736 91.682C83.3456 91.922 84.0596 92.042 84.8156 92.042C85.7516 92.042 86.4776 91.844 86.9936 91.448C87.5216 91.052 87.7856 90.506 87.7856 89.81C87.7856 89.114 87.5276 88.574 87.0116 88.19C86.4956 87.806 85.7156 87.614 84.6716 87.614H83.6636V86.354L86.8316 82.466H80.7656V80.9H89.0816V82.124L85.7876 86.192ZM96.4404 84.356H104.504V85.778H96.4404V84.356ZM96.4404 88.622H104.504V90.044H96.4404V88.622Z" fill="#2F2F2F"/>
<path d="M121 70C121 67.2386 123.239 65 126 65H186C188.761 65 191 67.2386 191 70V105C191 107.761 188.761 110 186 110H126C123.239 110 121 107.761 121 105V70Z" fill="#369CB7"/>
<path d="M153.074 90.638H150.842V93.5H148.574V90.638H141.662V89.018L147.872 80.9H150.374L144.524 88.658H148.646V86.12H150.842V88.658H153.074V90.638ZM157.958 80.9V93.5H155.618V82.862H152.954V80.9H157.958ZM166.181 85.724C167.009 85.724 167.753 85.886 168.413 86.21C169.073 86.522 169.589 86.972 169.961 87.56C170.333 88.148 170.519 88.826 170.519 89.594C170.519 90.41 170.315 91.13 169.907 91.754C169.499 92.366 168.947 92.84 168.251 93.176C167.555 93.512 166.775 93.68 165.911 93.68C164.183 93.68 162.839 93.14 161.879 92.06C160.931 90.98 160.457 89.432 160.457 87.416C160.457 86 160.715 84.794 161.231 83.798C161.747 82.79 162.467 82.028 163.391 81.512C164.327 80.984 165.407 80.72 166.631 80.72C167.279 80.72 167.885 80.792 168.449 80.936C169.025 81.068 169.523 81.266 169.943 81.53L169.079 83.294C168.455 82.886 167.657 82.682 166.685 82.682C165.473 82.682 164.525 83.054 163.841 83.798C163.157 84.542 162.815 85.616 162.815 87.02V87.038C163.187 86.606 163.661 86.282 164.237 86.066C164.813 85.838 165.461 85.724 166.181 85.724ZM165.785 91.844C166.517 91.844 167.111 91.652 167.567 91.268C168.023 90.872 168.251 90.35 168.251 89.702C168.251 89.042 168.023 88.52 167.567 88.136C167.111 87.752 166.499 87.56 165.731 87.56C164.975 87.56 164.357 87.764 163.877 88.172C163.409 88.58 163.175 89.096 163.175 89.72C163.175 90.332 163.403 90.842 163.859 91.25C164.327 91.646 164.969 91.844 165.785 91.844Z" fill="white"/>
<path d="M126 66H186V64H126V66ZM190 70V105H192V70H190ZM186 109H126V111H186V109ZM122 105V70H120V105H122ZM126 109C123.791 109 122 107.209 122 105H120C120 108.314 122.686 111 126 111V109ZM190 105C190 107.209 188.209 109 186 109V111C189.314 111 192 108.314 192 105H190ZM186 66C188.209 66 190 67.7909 190 70H192C192 66.6863 189.314 64 186 64V66ZM126 64C122.686 64 120 66.6863 120 70H122C122 67.7909 123.791 66 126 66V64Z" fill="#369CB7"/>
<path d="M10.0647 26.934V28.5H1.01073V27.276L6.14073 22.326C6.76473 21.726 7.18473 21.21 7.40073 20.778C7.61673 20.334 7.72473 19.89 7.72473 19.446C7.72473 18.786 7.49073 18.276 7.02273 17.916C6.56673 17.544 5.90673 17.358 5.04273 17.358C3.65073 17.358 2.57673 17.814 1.82073 18.726L0.596727 17.664C1.08873 17.064 1.73073 16.596 2.52273 16.26C3.32673 15.924 4.22073 15.756 5.20473 15.756C6.52473 15.756 7.57473 16.074 8.35473 16.71C9.13473 17.334 9.52473 18.186 9.52473 19.266C9.52473 19.938 9.38073 20.574 9.09273 21.174C8.80473 21.774 8.25873 22.458 7.45473 23.226L3.60273 26.934H10.0647ZM23.2366 28.5L20.4826 24.846L17.6926 28.5H15.7666L19.5286 23.622L15.9466 18.96H17.8726L20.5006 22.398L23.1106 18.96H25.0006L21.4006 23.622L25.1986 28.5H23.2366ZM35.0503 15.9V28.5H33.2683V17.466H30.4243V15.9H35.0503ZM42.9544 28.644C41.9584 28.644 41.0704 28.392 40.2904 27.888C39.5224 27.372 38.9164 26.628 38.4724 25.656C38.0284 24.684 37.8064 23.532 37.8064 22.2C37.8064 20.868 38.0284 19.716 38.4724 18.744C38.9164 17.772 39.5224 17.034 40.2904 16.53C41.0704 16.014 41.9584 15.756 42.9544 15.756C43.9384 15.756 44.8144 16.014 45.5824 16.53C46.3624 17.034 46.9744 17.772 47.4184 18.744C47.8624 19.716 48.0844 20.868 48.0844 22.2C48.0844 23.532 47.8624 24.684 47.4184 25.656C46.9744 26.628 46.3624 27.372 45.5824 27.888C44.8144 28.392 43.9384 28.644 42.9544 28.644ZM42.9544 27.042C43.9624 27.042 44.7664 26.628 45.3664 25.8C45.9784 24.972 46.2844 23.772 46.2844 22.2C46.2844 20.628 45.9784 19.428 45.3664 18.6C44.7664 17.772 43.9624 17.358 42.9544 17.358C41.9344 17.358 41.1184 17.772 40.5064 18.6C39.9064 19.428 39.6064 20.628 39.6064 22.2C39.6064 23.772 39.9064 24.972 40.5064 25.8C41.1184 26.628 41.9344 27.042 42.9544 27.042ZM66.3382 28.5L63.5842 24.846L60.7942 28.5H58.8682L62.6302 23.622L59.0482 18.96H60.9742L63.6022 22.398L66.2122 18.96H68.1022L64.5022 23.622L68.3002 28.5H66.3382ZM78.1518 15.9V28.5H76.3698V17.466H73.5258V15.9H78.1518ZM85.7319 21.192C86.9679 21.312 87.9099 21.696 88.5579 22.344C89.2059 22.98 89.5299 23.796 89.5299 24.792C89.5299 25.512 89.3499 26.166 88.9899 26.754C88.6299 27.33 88.0899 27.792 87.3699 28.14C86.6619 28.476 85.7919 28.644 84.7599 28.644C83.8599 28.644 82.9959 28.512 82.1679 28.248C81.3399 27.972 80.6619 27.594 80.1339 27.114L80.9619 25.692C81.3939 26.1 81.9459 26.43 82.6179 26.682C83.2899 26.922 84.0039 27.042 84.7599 27.042C85.6959 27.042 86.4219 26.844 86.9379 26.448C87.4659 26.052 87.7299 25.506 87.7299 24.81C87.7299 24.114 87.4719 23.574 86.9559 23.19C86.4399 22.806 85.6599 22.614 84.6159 22.614H83.6079V21.354L86.7759 17.466H80.7099V15.9H89.0259V17.124L85.7319 21.192ZM96.3847 19.356H104.449V20.778H96.3847V19.356ZM96.3847 23.622H104.449V25.044H96.3847V23.622Z" fill="#2F2F2F"/>
<path d="M121 5C121 2.23858 123.239 0 126 0H186C188.761 0 191 2.23858 191 5V40C191 42.7614 188.761 45 186 45H126C123.239 45 121 42.7614 121 40V5Z" fill="#369CB7"/>
<path d="M149.008 26.52V28.5H139.72V26.934L144.724 22.182C145.288 21.642 145.666 21.174 145.858 20.778C146.062 20.37 146.164 19.968 146.164 19.572C146.164 18.984 145.966 18.534 145.57 18.222C145.174 17.91 144.592 17.754 143.824 17.754C142.54 17.754 141.556 18.192 140.872 19.068L139.234 17.808C139.726 17.148 140.386 16.638 141.214 16.278C142.054 15.906 142.99 15.72 144.022 15.72C145.39 15.72 146.482 16.044 147.298 16.692C148.114 17.34 148.522 18.222 148.522 19.338C148.522 20.022 148.378 20.664 148.09 21.264C147.802 21.864 147.25 22.548 146.434 23.316L143.068 26.52H149.008ZM156.03 20.724C156.858 20.724 157.602 20.886 158.262 21.21C158.922 21.522 159.438 21.972 159.81 22.56C160.182 23.148 160.368 23.826 160.368 24.594C160.368 25.41 160.164 26.13 159.756 26.754C159.348 27.366 158.796 27.84 158.1 28.176C157.404 28.512 156.624 28.68 155.76 28.68C154.032 28.68 152.688 28.14 151.728 27.06C150.78 25.98 150.306 24.432 150.306 22.416C150.306 21 150.564 19.794 151.08 18.798C151.596 17.79 152.316 17.028 153.24 16.512C154.176 15.984 155.256 15.72 156.48 15.72C157.128 15.72 157.734 15.792 158.298 15.936C158.874 16.068 159.372 16.266 159.792 16.53L158.928 18.294C158.304 17.886 157.506 17.682 156.534 17.682C155.322 17.682 154.374 18.054 153.69 18.798C153.006 19.542 152.664 20.616 152.664 22.02V22.038C153.036 21.606 153.51 21.282 154.086 21.066C154.662 20.838 155.31 20.724 156.03 20.724ZM155.634 26.844C156.366 26.844 156.96 26.652 157.416 26.268C157.872 25.872 158.1 25.35 158.1 24.702C158.1 24.042 157.872 23.52 157.416 23.136C156.96 22.752 156.348 22.56 155.58 22.56C154.824 22.56 154.206 22.764 153.726 23.172C153.258 23.58 153.024 24.096 153.024 24.72C153.024 25.332 153.252 25.842 153.708 26.25C154.176 26.646 154.818 26.844 155.634 26.844ZM166.847 28.68C165.839 28.68 164.939 28.428 164.147 27.924C163.355 27.408 162.731 26.664 162.275 25.692C161.819 24.708 161.591 23.544 161.591 22.2C161.591 20.856 161.819 19.698 162.275 18.726C162.731 17.742 163.355 16.998 164.147 16.494C164.939 15.978 165.839 15.72 166.847 15.72C167.855 15.72 168.755 15.978 169.547 16.494C170.351 16.998 170.981 17.742 171.437 18.726C171.893 19.698 172.121 20.856 172.121 22.2C172.121 23.544 171.893 24.708 171.437 25.692C170.981 26.664 170.351 27.408 169.547 27.924C168.755 28.428 167.855 28.68 166.847 28.68ZM166.847 26.646C167.747 26.646 168.455 26.274 168.971 25.53C169.499 24.786 169.763 23.676 169.763 22.2C169.763 20.724 169.499 19.614 168.971 18.87C168.455 18.126 167.747 17.754 166.847 17.754C165.959 17.754 165.251 18.126 164.723 18.87C164.207 19.614 163.949 20.724 163.949 22.2C163.949 23.676 164.207 24.786 164.723 25.53C165.251 26.274 165.959 26.646 166.847 26.646Z" fill="white"/>
<path d="M126 1H186V-1H126V1ZM190 5V40H192V5H190ZM186 44H126V46H186V44ZM122 40V5H120V40H122ZM126 44C123.791 44 122 42.2091 122 40H120C120 43.3137 122.686 46 126 46V44ZM190 40C190 42.2091 188.209 44 186 44V46C189.314 46 192 43.3137 192 40H190ZM186 1C188.209 1 190 2.79086 190 5H192C192 1.68629 189.314 -1 186 -1V1ZM126 -1C122.686 -1 120 1.68629 120 5H122C122 2.79086 123.791 1 126 1V-1Z" fill="#369CB7"/>
<path d="M344.368 215.85C345.196 215.85 345.934 216.006 346.582 216.318C347.242 216.63 347.758 217.08 348.13 217.668C348.502 218.244 348.688 218.91 348.688 219.666C348.688 220.458 348.49 221.154 348.094 221.754C347.71 222.354 347.176 222.822 346.492 223.158C345.82 223.482 345.064 223.644 344.224 223.644C342.532 223.644 341.224 223.098 340.3 222.006C339.388 220.914 338.932 219.366 338.932 217.362C338.932 215.958 339.178 214.764 339.67 213.78C340.174 212.784 340.87 212.034 341.758 211.53C342.658 211.014 343.702 210.756 344.89 210.756C345.502 210.756 346.078 210.822 346.618 210.954C347.158 211.074 347.626 211.254 348.022 211.494L347.338 212.898C346.738 212.502 345.934 212.304 344.926 212.304C343.618 212.304 342.592 212.712 341.848 213.528C341.104 214.332 340.732 215.508 340.732 217.056C340.732 217.248 340.738 217.398 340.75 217.506C341.11 216.966 341.602 216.558 342.226 216.282C342.862 215.994 343.576 215.85 344.368 215.85ZM344.152 222.186C344.98 222.186 345.652 221.964 346.168 221.52C346.684 221.076 346.942 220.482 346.942 219.738C346.942 218.994 346.678 218.406 346.15 217.974C345.634 217.53 344.938 217.308 344.062 217.308C343.498 217.308 342.994 217.416 342.55 217.632C342.118 217.848 341.776 218.142 341.524 218.514C341.284 218.886 341.164 219.3 341.164 219.756C341.164 220.2 341.278 220.608 341.506 220.98C341.746 221.34 342.088 221.634 342.532 221.862C342.988 222.078 343.528 222.186 344.152 222.186ZM353.642 215.922C355.442 215.922 356.762 216.264 357.602 216.948C358.454 217.62 358.88 218.544 358.88 219.72C358.88 220.464 358.7 221.136 358.34 221.736C357.992 222.324 357.458 222.792 356.738 223.14C356.03 223.476 355.154 223.644 354.11 223.644C353.222 223.644 352.364 223.512 351.536 223.248C350.708 222.972 350.024 222.594 349.484 222.114L350.312 220.692C350.744 221.1 351.296 221.43 351.968 221.682C352.64 221.922 353.348 222.042 354.092 222.042C355.04 222.042 355.772 221.844 356.288 221.448C356.816 221.04 357.08 220.488 357.08 219.792C357.08 219.036 356.792 218.466 356.216 218.082C355.64 217.686 354.656 217.488 353.264 217.488H350.402L351.068 210.9H358.178V212.466H352.58L352.238 215.922H353.642ZM364.284 210.9V223.5H362.502V212.466H359.658V210.9H364.284ZM376.248 214.734C375.96 214.734 375.714 214.632 375.51 214.428C375.318 214.212 375.222 213.954 375.222 213.654C375.222 213.342 375.318 213.084 375.51 212.88C375.714 212.676 375.96 212.574 376.248 212.574C376.548 212.574 376.794 212.676 376.986 212.88C377.19 213.084 377.292 213.342 377.292 213.654C377.292 213.966 377.19 214.224 376.986 214.428C376.794 214.632 376.548 214.734 376.248 214.734ZM372.216 216.498H380.28V217.92H372.216V216.498ZM376.248 221.826C375.96 221.826 375.714 221.724 375.51 221.52C375.318 221.304 375.222 221.04 375.222 220.728C375.222 220.428 375.318 220.176 375.51 219.972C375.714 219.768 375.96 219.666 376.248 219.666C376.548 219.666 376.794 219.768 376.986 219.972C377.19 220.176 377.292 220.428 377.292 220.728C377.292 221.04 377.19 221.304 376.986 221.52C376.794 221.724 376.548 221.826 376.248 221.826ZM392.008 216.192C393.244 216.312 394.186 216.696 394.834 217.344C395.482 217.98 395.806 218.796 395.806 219.792C395.806 220.512 395.626 221.166 395.266 221.754C394.906 222.33 394.366 222.792 393.646 223.14C392.938 223.476 392.068 223.644 391.036 223.644C390.136 223.644 389.272 223.512 388.444 223.248C387.616 222.972 386.938 222.594 386.41 222.114L387.238 220.692C387.67 221.1 388.222 221.43 388.894 221.682C389.566 221.922 390.28 222.042 391.036 222.042C391.972 222.042 392.698 221.844 393.214 221.448C393.742 221.052 394.006 220.506 394.006 219.81C394.006 219.114 393.748 218.574 393.232 218.19C392.716 217.806 391.936 217.614 390.892 217.614H389.884V216.354L393.052 212.466H386.986V210.9H395.302V212.124L392.008 216.192ZM402.661 214.356H410.725V215.778H402.661V214.356ZM402.661 218.622H410.725V220.044H402.661V218.622Z" fill="#2F2F2F"/>
<path d="M427 200C427 197.239 429.239 195 432 195H492C494.761 195 497 197.239 497 200V235C497 237.761 494.761 240 492 240H432C429.239 240 427 237.761 427 235V200Z" fill="#369CB7"/>
<path d="M457.776 221.52V223.5H448.488V221.934L453.492 217.182C454.056 216.642 454.434 216.174 454.626 215.778C454.83 215.37 454.932 214.968 454.932 214.572C454.932 213.984 454.734 213.534 454.338 213.222C453.942 212.91 453.36 212.754 452.592 212.754C451.308 212.754 450.324 213.192 449.64 214.068L448.002 212.808C448.494 212.148 449.154 211.638 449.982 211.278C450.822 210.906 451.758 210.72 452.79 210.72C454.158 210.72 455.25 211.044 456.066 211.692C456.882 212.34 457.29 213.222 457.29 214.338C457.29 215.022 457.146 215.664 456.858 216.264C456.57 216.864 456.018 217.548 455.202 218.316L451.836 221.52H457.776ZM463.483 210.9V223.5H461.143V212.862H458.479V210.9H463.483ZM475.486 210.9V212.466L470.59 223.5H468.088L472.822 212.88H467.872V215.022H465.694V210.9H475.486Z" fill="white"/>
<path d="M432 196H492V194H432V196ZM496 200V235H498V200H496ZM492 239H432V241H492V239ZM428 235V200H426V235H428ZM432 239C429.791 239 428 237.209 428 235H426C426 238.314 428.686 241 432 241V239ZM496 235C496 237.209 494.209 239 492 239V241C495.314 241 498 238.314 498 235H496ZM492 196C494.209 196 496 197.791 496 200H498C498 196.686 495.314 194 492 194V196ZM432 194C428.686 194 426 196.686 426 200H428C428 197.791 429.791 196 432 196V194Z" fill="#369CB7"/>
<path d="M336.413 150.85C337.241 150.85 337.979 151.006 338.627 151.318C339.287 151.63 339.803 152.08 340.175 152.668C340.547 153.244 340.733 153.91 340.733 154.666C340.733 155.458 340.535 156.154 340.139 156.754C339.755 157.354 339.221 157.822 338.537 158.158C337.865 158.482 337.109 158.644 336.269 158.644C334.577 158.644 333.269 158.098 332.345 157.006C331.433 155.914 330.977 154.366 330.977 152.362C330.977 150.958 331.223 149.764 331.715 148.78C332.219 147.784 332.915 147.034 333.803 146.53C334.703 146.014 335.747 145.756 336.935 145.756C337.547 145.756 338.123 145.822 338.663 145.954C339.203 146.074 339.671 146.254 340.067 146.494L339.383 147.898C338.783 147.502 337.979 147.304 336.971 147.304C335.663 147.304 334.637 147.712 333.893 148.528C333.149 149.332 332.777 150.508 332.777 152.056C332.777 152.248 332.783 152.398 332.795 152.506C333.155 151.966 333.647 151.558 334.271 151.282C334.907 150.994 335.621 150.85 336.413 150.85ZM336.197 157.186C337.025 157.186 337.697 156.964 338.213 156.52C338.729 156.076 338.987 155.482 338.987 154.738C338.987 153.994 338.723 153.406 338.195 152.974C337.679 152.53 336.983 152.308 336.107 152.308C335.543 152.308 335.039 152.416 334.595 152.632C334.163 152.848 333.821 153.142 333.569 153.514C333.329 153.886 333.209 154.3 333.209 154.756C333.209 155.2 333.323 155.608 333.551 155.98C333.791 156.34 334.133 156.634 334.577 156.862C335.033 157.078 335.573 157.186 336.197 157.186ZM349.791 151.894C350.511 152.17 351.063 152.566 351.447 153.082C351.831 153.598 352.023 154.216 352.023 154.936C352.023 155.692 351.819 156.352 351.411 156.916C351.003 157.468 350.421 157.894 349.665 158.194C348.909 158.494 348.021 158.644 347.001 158.644C345.993 158.644 345.111 158.494 344.355 158.194C343.611 157.894 343.035 157.468 342.627 156.916C342.219 156.352 342.015 155.692 342.015 154.936C342.015 154.216 342.201 153.598 342.573 153.082C342.957 152.566 343.509 152.17 344.229 151.894C343.653 151.618 343.215 151.252 342.915 150.796C342.615 150.34 342.465 149.8 342.465 149.176C342.465 148.48 342.651 147.874 343.023 147.358C343.407 146.842 343.941 146.446 344.625 146.17C345.309 145.894 346.101 145.756 347.001 145.756C347.913 145.756 348.711 145.894 349.395 146.17C350.091 146.446 350.625 146.842 350.997 147.358C351.381 147.874 351.573 148.48 351.573 149.176C351.573 149.788 351.417 150.328 351.105 150.796C350.805 151.252 350.367 151.618 349.791 151.894ZM347.001 147.214C346.149 147.214 345.477 147.4 344.985 147.772C344.493 148.132 344.247 148.624 344.247 149.248C344.247 149.872 344.487 150.364 344.967 150.724C345.459 151.084 346.137 151.264 347.001 151.264C347.877 151.264 348.561 151.084 349.053 150.724C349.557 150.364 349.809 149.872 349.809 149.248C349.809 148.624 349.551 148.132 349.035 147.772C348.531 147.4 347.853 147.214 347.001 147.214ZM347.001 157.186C347.997 157.186 348.783 156.982 349.359 156.574C349.935 156.154 350.223 155.59 350.223 154.882C350.223 154.186 349.935 153.64 349.359 153.244C348.783 152.836 347.997 152.632 347.001 152.632C346.005 152.632 345.225 152.836 344.661 153.244C344.097 153.64 343.815 154.186 343.815 154.882C343.815 155.59 344.097 156.154 344.661 156.574C345.225 156.982 346.005 157.186 347.001 157.186ZM361.375 151.894C362.095 152.17 362.647 152.566 363.031 153.082C363.415 153.598 363.607 154.216 363.607 154.936C363.607 155.692 363.403 156.352 362.995 156.916C362.587 157.468 362.005 157.894 361.249 158.194C360.493 158.494 359.605 158.644 358.585 158.644C357.577 158.644 356.695 158.494 355.939 158.194C355.195 157.894 354.619 157.468 354.211 156.916C353.803 156.352 353.599 155.692 353.599 154.936C353.599 154.216 353.785 153.598 354.157 153.082C354.541 152.566 355.093 152.17 355.813 151.894C355.237 151.618 354.799 151.252 354.499 150.796C354.199 150.34 354.049 149.8 354.049 149.176C354.049 148.48 354.235 147.874 354.607 147.358C354.991 146.842 355.525 146.446 356.209 146.17C356.893 145.894 357.685 145.756 358.585 145.756C359.497 145.756 360.295 145.894 360.979 146.17C361.675 146.446 362.209 146.842 362.581 147.358C362.965 147.874 363.157 148.48 363.157 149.176C363.157 149.788 363.001 150.328 362.689 150.796C362.389 151.252 361.951 151.618 361.375 151.894ZM358.585 147.214C357.733 147.214 357.061 147.4 356.569 147.772C356.077 148.132 355.831 148.624 355.831 149.248C355.831 149.872 356.071 150.364 356.551 150.724C357.043 151.084 357.721 151.264 358.585 151.264C359.461 151.264 360.145 151.084 360.637 150.724C361.141 150.364 361.393 149.872 361.393 149.248C361.393 148.624 361.135 148.132 360.619 147.772C360.115 147.4 359.437 147.214 358.585 147.214ZM358.585 157.186C359.581 157.186 360.367 156.982 360.943 156.574C361.519 156.154 361.807 155.59 361.807 154.882C361.807 154.186 361.519 153.64 360.943 153.244C360.367 152.836 359.581 152.632 358.585 152.632C357.589 152.632 356.809 152.836 356.245 153.244C355.681 153.64 355.399 154.186 355.399 154.882C355.399 155.59 355.681 156.154 356.245 156.574C356.809 156.982 357.589 157.186 358.585 157.186ZM374.463 149.734C374.175 149.734 373.929 149.632 373.725 149.428C373.533 149.212 373.437 148.954 373.437 148.654C373.437 148.342 373.533 148.084 373.725 147.88C373.929 147.676 374.175 147.574 374.463 147.574C374.763 147.574 375.009 147.676 375.201 147.88C375.405 148.084 375.507 148.342 375.507 148.654C375.507 148.966 375.405 149.224 375.201 149.428C375.009 149.632 374.763 149.734 374.463 149.734ZM370.431 151.498H378.495V152.92H370.431V151.498ZM374.463 156.826C374.175 156.826 373.929 156.724 373.725 156.52C373.533 156.304 373.437 156.04 373.437 155.728C373.437 155.428 373.533 155.176 373.725 154.972C373.929 154.768 374.175 154.666 374.463 154.666C374.763 154.666 375.009 154.768 375.201 154.972C375.405 155.176 375.507 155.428 375.507 155.728C375.507 156.04 375.405 156.304 375.201 156.52C375.009 156.724 374.763 156.826 374.463 156.826ZM396.361 155.404H393.967V158.5H392.221V155.404H385.219V154.144L391.663 145.9H393.607L387.433 153.856H392.275V151.12H393.967V153.856H396.361V155.404ZM402.616 149.356H410.68V150.778H402.616V149.356ZM402.616 153.622H410.68V155.044H402.616V153.622Z" fill="#2F2F2F"/>
<path d="M427 135C427 132.239 429.239 130 432 130H492C494.761 130 497 132.239 497 135V170C497 172.761 494.761 175 492 175H432C429.239 175 427 172.761 427 170V135Z" fill="#369CB7"/>
<path d="M453.006 145.9V158.5H450.666V147.862H448.002V145.9H453.006ZM465.01 145.9V147.466L460.114 158.5H457.612L462.346 147.88H457.396V150.022H455.218V145.9H465.01ZM475.583 156.52V158.5H466.295V156.934L471.299 152.182C471.863 151.642 472.241 151.174 472.433 150.778C472.637 150.37 472.739 149.968 472.739 149.572C472.739 148.984 472.541 148.534 472.145 148.222C471.749 147.91 471.167 147.754 470.399 147.754C469.115 147.754 468.131 148.192 467.447 149.068L465.809 147.808C466.301 147.148 466.961 146.638 467.789 146.278C468.629 145.906 469.565 145.72 470.597 145.72C471.965 145.72 473.057 146.044 473.873 146.692C474.689 147.34 475.097 148.222 475.097 149.338C475.097 150.022 474.953 150.664 474.665 151.264C474.377 151.864 473.825 152.548 473.009 153.316L469.643 156.52H475.583Z" fill="white"/>
<path d="M432 131H492V129H432V131ZM496 135V170H498V135H496ZM492 174H432V176H492V174ZM428 170V135H426V170H428ZM432 174C429.791 174 428 172.209 428 170H426C426 173.314 428.686 176 432 176V174ZM496 170C496 172.209 494.209 174 492 174V176C495.314 176 498 173.314 498 170H496ZM492 131C494.209 131 496 132.791 496 135H498C498 131.686 495.314 129 492 129V131ZM432 129C428.686 129 426 131.686 426 135H428C428 132.791 429.791 131 432 131V129Z" fill="#369CB7"/>
<path d="M341.992 86.894C342.712 87.17 343.264 87.566 343.648 88.082C344.032 88.598 344.224 89.216 344.224 89.936C344.224 90.692 344.02 91.352 343.612 91.916C343.204 92.468 342.622 92.894 341.866 93.194C341.11 93.494 340.222 93.644 339.202 93.644C338.194 93.644 337.312 93.494 336.556 93.194C335.812 92.894 335.236 92.468 334.828 91.916C334.42 91.352 334.216 90.692 334.216 89.936C334.216 89.216 334.402 88.598 334.774 88.082C335.158 87.566 335.71 87.17 336.43 86.894C335.854 86.618 335.416 86.252 335.116 85.796C334.816 85.34 334.666 84.8 334.666 84.176C334.666 83.48 334.852 82.874 335.224 82.358C335.608 81.842 336.142 81.446 336.826 81.17C337.51 80.894 338.302 80.756 339.202 80.756C340.114 80.756 340.912 80.894 341.596 81.17C342.292 81.446 342.826 81.842 343.198 82.358C343.582 82.874 343.774 83.48 343.774 84.176C343.774 84.788 343.618 85.328 343.306 85.796C343.006 86.252 342.568 86.618 341.992 86.894ZM339.202 82.214C338.35 82.214 337.678 82.4 337.186 82.772C336.694 83.132 336.448 83.624 336.448 84.248C336.448 84.872 336.688 85.364 337.168 85.724C337.66 86.084 338.338 86.264 339.202 86.264C340.078 86.264 340.762 86.084 341.254 85.724C341.758 85.364 342.01 84.872 342.01 84.248C342.01 83.624 341.752 83.132 341.236 82.772C340.732 82.4 340.054 82.214 339.202 82.214ZM339.202 92.186C340.198 92.186 340.984 91.982 341.56 91.574C342.136 91.154 342.424 90.59 342.424 89.882C342.424 89.186 342.136 88.64 341.56 88.244C340.984 87.836 340.198 87.632 339.202 87.632C338.206 87.632 337.426 87.836 336.862 88.244C336.298 88.64 336.016 89.186 336.016 89.882C336.016 90.59 336.298 91.154 336.862 91.574C337.426 91.982 338.206 92.186 339.202 92.186ZM355.052 80.9V82.124L349.958 93.5H348.05L353.036 82.466H347.276V84.716H345.548V80.9H355.052ZM359.913 85.922C361.713 85.922 363.033 86.264 363.873 86.948C364.725 87.62 365.151 88.544 365.151 89.72C365.151 90.464 364.971 91.136 364.611 91.736C364.263 92.324 363.729 92.792 363.009 93.14C362.301 93.476 361.425 93.644 360.381 93.644C359.493 93.644 358.635 93.512 357.807 93.248C356.979 92.972 356.295 92.594 355.755 92.114L356.583 90.692C357.015 91.1 357.567 91.43 358.239 91.682C358.911 91.922 359.619 92.042 360.363 92.042C361.311 92.042 362.043 91.844 362.559 91.448C363.087 91.04 363.351 90.488 363.351 89.792C363.351 89.036 363.063 88.466 362.487 88.082C361.911 87.686 360.927 87.488 359.535 87.488H356.673L357.339 80.9H364.449V82.466H358.851L358.509 85.922H359.913ZM375.857 84.734C375.569 84.734 375.323 84.632 375.119 84.428C374.927 84.212 374.831 83.954 374.831 83.654C374.831 83.342 374.927 83.084 375.119 82.88C375.323 82.676 375.569 82.574 375.857 82.574C376.157 82.574 376.403 82.676 376.595 82.88C376.799 83.084 376.901 83.342 376.901 83.654C376.901 83.966 376.799 84.224 376.595 84.428C376.403 84.632 376.157 84.734 375.857 84.734ZM371.825 86.498H379.889V87.92H371.825V86.498ZM375.857 91.826C375.569 91.826 375.323 91.724 375.119 91.52C374.927 91.304 374.831 91.04 374.831 90.728C374.831 90.428 374.927 90.176 375.119 89.972C375.323 89.768 375.569 89.666 375.857 89.666C376.157 89.666 376.403 89.768 376.595 89.972C376.799 90.176 376.901 90.428 376.901 90.728C376.901 91.04 376.799 91.304 376.595 91.52C376.403 91.724 376.157 91.826 375.857 91.826ZM390.394 85.922C392.194 85.922 393.514 86.264 394.354 86.948C395.206 87.62 395.632 88.544 395.632 89.72C395.632 90.464 395.452 91.136 395.092 91.736C394.744 92.324 394.21 92.792 393.49 93.14C392.782 93.476 391.906 93.644 390.862 93.644C389.974 93.644 389.116 93.512 388.288 93.248C387.46 92.972 386.776 92.594 386.236 92.114L387.064 90.692C387.496 91.1 388.048 91.43 388.72 91.682C389.392 91.922 390.1 92.042 390.844 92.042C391.792 92.042 392.524 91.844 393.04 91.448C393.568 91.04 393.832 90.488 393.832 89.792C393.832 89.036 393.544 88.466 392.968 88.082C392.392 87.686 391.408 87.488 390.016 87.488H387.154L387.82 80.9H394.93V82.466H389.332L388.99 85.922H390.394ZM402.306 84.356H410.37V85.778H402.306V84.356ZM402.306 88.622H410.37V90.044H402.306V88.622Z" fill="#2F2F2F"/>
<path d="M427 70C427 67.2386 429.239 65 432 65H492C494.761 65 497 67.2386 497 70V105C497 107.761 494.761 110 492 110H432C429.239 110 427 107.761 427 105V70Z" fill="#369CB7"/>
<path d="M453.147 80.9V93.5H450.807V82.862H448.143V80.9H453.147ZM465.15 80.9V82.466L460.254 93.5H457.752L462.486 82.88H457.536V85.022H455.358V80.9H465.15ZM470.223 85.778C471.999 85.778 473.313 86.126 474.165 86.822C475.017 87.506 475.443 88.442 475.443 89.63C475.443 90.386 475.257 91.07 474.885 91.682C474.513 92.294 473.955 92.78 473.211 93.14C472.467 93.5 471.549 93.68 470.457 93.68C469.557 93.68 468.687 93.554 467.847 93.302C467.007 93.038 466.299 92.678 465.723 92.222L466.713 90.404C467.181 90.788 467.739 91.094 468.387 91.322C469.047 91.538 469.725 91.646 470.421 91.646C471.249 91.646 471.897 91.478 472.365 91.142C472.845 90.794 473.085 90.32 473.085 89.72C473.085 89.072 472.827 88.586 472.311 88.262C471.807 87.926 470.937 87.758 469.701 87.758H466.659L467.307 80.9H474.705V82.862H469.287L469.017 85.778H470.223Z" fill="white"/>
<path d="M432 66H492V64H432V66ZM496 70V105H498V70H496ZM492 109H432V111H492V109ZM428 105V70H426V105H428ZM432 109C429.791 109 428 107.209 428 105H426C426 108.314 428.686 111 432 111V109ZM496 105C496 107.209 494.209 109 492 109V111C495.314 111 498 108.314 498 105H496ZM492 66C494.209 66 496 67.7909 496 70H498C498 66.6863 495.314 64 492 64V66ZM432 64C428.686 64 426 66.6863 426 70H428C428 67.7909 429.791 66 432 66V64Z" fill="#369CB7"/>
<path d="M340.465 15.9V17.124L335.371 28.5H333.463L338.449 17.466H332.689V19.716H330.961V15.9H340.465ZM351.827 25.404H349.433V28.5H347.687V25.404H340.685V24.144L347.129 15.9H349.073L342.899 23.856H347.741V21.12H349.433V23.856H351.827V25.404ZM363.868 25.404H361.474V28.5H359.728V25.404H352.726V24.144L359.17 15.9H361.114L354.94 23.856H359.782V21.12H361.474V23.856H363.868V25.404ZM374.155 19.734C373.867 19.734 373.621 19.632 373.417 19.428C373.225 19.212 373.129 18.954 373.129 18.654C373.129 18.342 373.225 18.084 373.417 17.88C373.621 17.676 373.867 17.574 374.155 17.574C374.455 17.574 374.701 17.676 374.893 17.88C375.097 18.084 375.199 18.342 375.199 18.654C375.199 18.966 375.097 19.224 374.893 19.428C374.701 19.632 374.455 19.734 374.155 19.734ZM370.123 21.498H378.187V22.92H370.123V21.498ZM374.155 26.826C373.867 26.826 373.621 26.724 373.417 26.52C373.225 26.304 373.129 26.04 373.129 25.728C373.129 25.428 373.225 25.176 373.417 24.972C373.621 24.768 373.867 24.666 374.155 24.666C374.455 24.666 374.701 24.768 374.893 24.972C375.097 25.176 375.199 25.428 375.199 25.728C375.199 26.04 375.097 26.304 374.893 26.52C374.701 26.724 374.455 26.826 374.155 26.826ZM396.054 25.404H393.66V28.5H391.914V25.404H384.912V24.144L391.356 15.9H393.3L387.126 23.856H391.968V21.12H393.66V23.856H396.054V25.404ZM402.309 19.356H410.373V20.778H402.309V19.356ZM402.309 23.622H410.373V25.044H402.309V23.622Z" fill="#2F2F2F"/>
<path d="M427 5C427 2.23858 429.239 0 432 0H492C494.761 0 497 2.23858 497 5V40C497 42.7614 494.761 45 492 45H432C429.239 45 427 42.7614 427 40V5Z" fill="#369CB7"/>
<path d="M452.207 15.9V28.5H449.867V17.862H447.203V15.9H452.207ZM462.878 21.876C463.538 22.176 464.042 22.584 464.39 23.1C464.75 23.604 464.93 24.198 464.93 24.882C464.93 25.65 464.714 26.322 464.282 26.898C463.862 27.474 463.262 27.918 462.482 28.23C461.702 28.53 460.796 28.68 459.764 28.68C458.732 28.68 457.826 28.53 457.046 28.23C456.278 27.918 455.684 27.474 455.264 26.898C454.844 26.322 454.634 25.65 454.634 24.882C454.634 24.198 454.808 23.604 455.156 23.1C455.504 22.584 456.002 22.176 456.65 21.876C456.146 21.6 455.756 21.24 455.48 20.796C455.216 20.34 455.084 19.818 455.084 19.23C455.084 18.522 455.276 17.904 455.66 17.376C456.056 16.848 456.608 16.44 457.316 16.152C458.024 15.864 458.84 15.72 459.764 15.72C460.7 15.72 461.522 15.864 462.23 16.152C462.938 16.44 463.49 16.848 463.886 17.376C464.282 17.904 464.48 18.522 464.48 19.23C464.48 19.818 464.342 20.334 464.066 20.778C463.79 21.222 463.394 21.588 462.878 21.876ZM459.764 17.556C459.032 17.556 458.45 17.712 458.018 18.024C457.598 18.336 457.388 18.774 457.388 19.338C457.388 19.878 457.598 20.31 458.018 20.634C458.45 20.946 459.032 21.102 459.764 21.102C460.508 21.102 461.096 20.946 461.528 20.634C461.96 20.31 462.176 19.878 462.176 19.338C462.176 18.774 461.954 18.336 461.51 18.024C461.078 17.712 460.496 17.556 459.764 17.556ZM459.764 26.844C460.628 26.844 461.312 26.664 461.816 26.304C462.32 25.944 462.572 25.446 462.572 24.81C462.572 24.186 462.32 23.694 461.816 23.334C461.312 22.974 460.628 22.794 459.764 22.794C458.9 22.794 458.222 22.974 457.73 23.334C457.238 23.694 456.992 24.186 456.992 24.81C456.992 25.446 457.238 25.944 457.73 26.304C458.222 26.664 458.9 26.844 459.764 26.844ZM472.172 20.724C473 20.724 473.744 20.886 474.404 21.21C475.064 21.522 475.58 21.972 475.952 22.56C476.324 23.148 476.51 23.826 476.51 24.594C476.51 25.41 476.306 26.13 475.898 26.754C475.49 27.366 474.938 27.84 474.242 28.176C473.546 28.512 472.766 28.68 471.902 28.68C470.174 28.68 468.83 28.14 467.87 27.06C466.922 25.98 466.448 24.432 466.448 22.416C466.448 21 466.706 19.794 467.222 18.798C467.738 17.79 468.458 17.028 469.382 16.512C470.318 15.984 471.398 15.72 472.622 15.72C473.27 15.72 473.876 15.792 474.44 15.936C475.016 16.068 475.514 16.266 475.934 16.53L475.07 18.294C474.446 17.886 473.648 17.682 472.676 17.682C471.464 17.682 470.516 18.054 469.832 18.798C469.148 19.542 468.806 20.616 468.806 22.02V22.038C469.178 21.606 469.652 21.282 470.228 21.066C470.804 20.838 471.452 20.724 472.172 20.724ZM471.776 26.844C472.508 26.844 473.102 26.652 473.558 26.268C474.014 25.872 474.242 25.35 474.242 24.702C474.242 24.042 474.014 23.52 473.558 23.136C473.102 22.752 472.49 22.56 471.722 22.56C470.966 22.56 470.348 22.764 469.868 23.172C469.4 23.58 469.166 24.096 469.166 24.72C469.166 25.332 469.394 25.842 469.85 26.25C470.318 26.646 470.96 26.844 471.776 26.844Z" fill="white"/>
<path d="M432 1H492V-1H432V1ZM496 5V40H498V5H496ZM492 44H432V46H492V44ZM428 40V5H426V40H428ZM432 44C429.791 44 428 42.2091 428 40H426C426 43.3137 428.686 46 432 46V44ZM496 40C496 42.2091 494.209 44 492 44V46C495.314 46 498 43.3137 498 40H496ZM492 1C494.209 1 496 2.79086 496 5H498C498 1.68629 495.314 -1 492 -1V1ZM432 -1C428.686 -1 426 1.68629 426 5H428C428 2.79086 429.791 1 432 1V-1Z" fill="#369CB7"/>
</svg>
