<svg width="146" height="31" viewBox="0 0 146 31" fill="none" xmlns="http://www.w3.org/2000/svg">
<path d="M68.6724 22.1964C67.5924 22.1964 66.6258 21.9631 65.7724 21.4964C64.9324 21.0297 64.2724 20.3897 63.7924 19.5764C63.3124 18.7497 63.0724 17.8164 63.0724 16.7764C63.0724 15.7364 63.3124 14.8097 63.7924 13.9964C64.2724 13.1697 64.9324 12.5297 65.7724 12.0764C66.6258 11.6097 67.5924 11.3764 68.6724 11.3764C69.6324 11.3764 70.4858 11.5697 71.2324 11.9564C71.9924 12.3431 72.5791 12.9031 72.9924 13.6364L71.5324 14.5764C71.1991 14.0697 70.7858 13.6897 70.2924 13.4364C69.7991 13.1831 69.2524 13.0564 68.6524 13.0564C67.9591 13.0564 67.3324 13.2097 66.7724 13.5164C66.2258 13.8231 65.7924 14.2631 65.4724 14.8364C65.1658 15.3964 65.0124 16.0431 65.0124 16.7764C65.0124 17.5231 65.1658 18.1831 65.4724 18.7564C65.7924 19.3164 66.2258 19.7497 66.7724 20.0564C67.3324 20.3631 67.9591 20.5164 68.6524 20.5164C69.2524 20.5164 69.7991 20.3897 70.2924 20.1364C70.7858 19.8831 71.1991 19.5031 71.5324 18.9964L72.9924 19.9164C72.5791 20.6497 71.9924 21.2164 71.2324 21.6164C70.4858 22.0031 69.6324 22.1964 68.6724 22.1964ZM81.0015 11.3764C82.3482 11.3764 83.4148 11.7697 84.2015 12.5564C85.0015 13.3297 85.4015 14.4697 85.4015 15.9764V22.0764H83.4815V16.1964C83.4815 15.1697 83.2348 14.3964 82.7415 13.8764C82.2482 13.3564 81.5415 13.0964 80.6215 13.0964C79.5815 13.0964 78.7615 13.4031 78.1615 14.0164C77.5615 14.6164 77.2615 15.4831 77.2615 16.6164V22.0764H75.3415V7.23642H77.2615V12.9764C77.6615 12.4697 78.1815 12.0764 78.8215 11.7964C79.4748 11.5164 80.2015 11.3764 81.0015 11.3764ZM88.9548 11.4764H90.8748V22.0764H88.9548V11.4764ZM89.9148 9.43642C89.5414 9.43642 89.2281 9.31642 88.9748 9.07642C88.7348 8.83642 88.6148 8.54308 88.6148 8.19642C88.6148 7.84975 88.7348 7.55642 88.9748 7.31642C89.2281 7.06308 89.5414 6.93642 89.9148 6.93642C90.2881 6.93642 90.5948 7.05642 90.8348 7.29642C91.0881 7.52308 91.2148 7.80975 91.2148 8.15642C91.2148 8.51642 91.0881 8.82308 90.8348 9.07642C90.5948 9.31642 90.2881 9.43642 89.9148 9.43642ZM94.5407 7.23642H96.4607V22.0764H94.5407V7.23642ZM110.127 7.23642V22.0764H108.287V20.3964C107.86 20.9831 107.32 21.4297 106.667 21.7364C106.013 22.0431 105.293 22.1964 104.507 22.1964C103.48 22.1964 102.56 21.9697 101.747 21.5164C100.933 21.0631 100.293 20.4297 99.8266 19.6164C99.3733 18.7897 99.1466 17.8431 99.1466 16.7764C99.1466 15.7097 99.3733 14.7697 99.8266 13.9564C100.293 13.1431 100.933 12.5097 101.747 12.0564C102.56 11.6031 103.48 11.3764 104.507 11.3764C105.267 11.3764 105.967 11.5231 106.607 11.8164C107.247 12.0964 107.78 12.5164 108.207 13.0764V7.23642H110.127ZM104.667 20.5164C105.333 20.5164 105.94 20.3631 106.487 20.0564C107.033 19.7364 107.46 19.2964 107.767 18.7364C108.073 18.1631 108.227 17.5097 108.227 16.7764C108.227 16.0431 108.073 15.3964 107.767 14.8364C107.46 14.2631 107.033 13.8231 106.487 13.5164C105.94 13.2097 105.333 13.0564 104.667 13.0564C103.987 13.0564 103.373 13.2097 102.827 13.5164C102.293 13.8231 101.867 14.2631 101.547 14.8364C101.24 15.3964 101.087 16.0431 101.087 16.7764C101.087 17.5097 101.24 18.1631 101.547 18.7364C101.867 19.2964 102.293 19.7364 102.827 20.0564C103.373 20.3631 103.987 20.5164 104.667 20.5164ZM115.599 13.2564C115.933 12.6431 116.426 12.1764 117.079 11.8564C117.733 11.5364 118.526 11.3764 119.459 11.3764V13.2364C119.353 13.2231 119.206 13.2164 119.019 13.2164C117.979 13.2164 117.159 13.5297 116.559 14.1564C115.973 14.7697 115.679 15.6497 115.679 16.7964V22.0764H113.759V11.4764H115.599V13.2564ZM131.308 16.8364C131.308 16.9831 131.295 17.1764 131.268 17.4164H122.668C122.788 18.3497 123.195 19.1031 123.888 19.6764C124.595 20.2364 125.468 20.5164 126.508 20.5164C127.775 20.5164 128.795 20.0897 129.568 19.2364L130.628 20.4764C130.148 21.0364 129.548 21.4631 128.828 21.7564C128.122 22.0497 127.328 22.1964 126.448 22.1964C125.328 22.1964 124.335 21.9697 123.468 21.5164C122.602 21.0497 121.928 20.4031 121.448 19.5764C120.982 18.7497 120.748 17.8164 120.748 16.7764C120.748 15.7497 120.975 14.8231 121.428 13.9964C121.895 13.1697 122.528 12.5297 123.328 12.0764C124.142 11.6097 125.055 11.3764 126.068 11.3764C127.082 11.3764 127.982 11.6097 128.768 12.0764C129.568 12.5297 130.188 13.1697 130.628 13.9964C131.082 14.8231 131.308 15.7697 131.308 16.8364ZM126.068 12.9964C125.148 12.9964 124.375 13.2764 123.748 13.8364C123.135 14.3964 122.775 15.1297 122.668 16.0364H129.468C129.362 15.1431 128.995 14.4164 128.368 13.8564C127.755 13.2831 126.988 12.9964 126.068 12.9964ZM139.634 11.3764C140.981 11.3764 142.048 11.7697 142.834 12.5564C143.634 13.3297 144.034 14.4697 144.034 15.9764V22.0764H142.114V16.1964C142.114 15.1697 141.868 14.3964 141.374 13.8764C140.881 13.3564 140.174 13.0964 139.254 13.0964C138.214 13.0964 137.394 13.4031 136.794 14.0164C136.194 14.6164 135.894 15.4831 135.894 16.6164V22.0764H133.974V11.4764H135.814V13.0764C136.201 12.5297 136.721 12.1097 137.374 11.8164C138.041 11.5231 138.794 11.3764 139.634 11.3764Z" fill="#2F2F2F"/>
<path d="M51.9949 1.13983L5.14902 1.01351L5.15929 -0.986463L52.0052 -0.860148L51.9949 1.13983ZM1.12848 5.00267L1.02569 25.0026L-0.974302 24.9972L-0.871517 4.99728L1.12848 5.00267ZM5.00512 29.0133L51.851 29.1396L51.8407 31.1396L4.99484 31.0133L5.00512 29.0133ZM55.8715 25.1505L55.9743 5.15056L57.9743 5.15595L57.8715 25.1559L55.8715 25.1505ZM51.851 29.1396C54.0601 29.1456 55.8602 27.3596 55.8715 25.1505L57.8715 25.1559C57.8545 28.4695 55.1544 31.1486 51.8407 31.1396L51.851 29.1396ZM1.02569 25.0026C1.01434 27.2117 2.79599 29.0074 5.00512 29.0133L4.99484 31.0133C1.68114 31.0044 -0.991332 28.3109 -0.974302 24.9972L1.02569 25.0026ZM5.14902 1.01351C2.93989 1.00755 1.13983 2.79356 1.12848 5.00267L-0.871517 4.99728C-0.854487 1.68361 1.8456 -0.995398 5.15929 -0.986463L5.14902 1.01351ZM52.0052 -0.860148C55.3189 -0.851213 57.9913 1.84229 57.9743 5.15595L55.9743 5.15056C55.9857 2.94145 54.204 1.14578 51.9949 1.13983L52.0052 -0.860148Z" fill="#2F2F2F"/>
<path d="M33.3872 13.692C34.6232 13.812 35.5652 14.196 36.2132 14.844C36.8612 15.48 37.1852 16.296 37.1852 17.292C37.1852 18.012 37.0052 18.666 36.6452 19.254C36.2852 19.83 35.7452 20.292 35.0252 20.64C34.3172 20.976 33.4472 21.144 32.4152 21.144C31.5152 21.144 30.6512 21.012 29.8232 20.748C28.9952 20.472 28.3172 20.094 27.7892 19.614L28.6172 18.192C29.0492 18.6 29.6012 18.93 30.2732 19.182C30.9452 19.422 31.6592 19.542 32.4152 19.542C33.3512 19.542 34.0772 19.344 34.5932 18.948C35.1212 18.552 35.3852 18.006 35.3852 17.31C35.3852 16.614 35.1272 16.074 34.6112 15.69C34.0952 15.306 33.3152 15.114 32.2712 15.114H31.2632V13.854L34.4312 9.966H28.3652V8.4H36.6812V9.624L33.3872 13.692Z" fill="#2F2F2F"/>
</svg>
