<svg width="419" height="376" viewBox="0 0 419 376" fill="none" xmlns="http://www.w3.org/2000/svg">
<line x1="52.957" y1="313.747" x2="417.957" y2="313.747" stroke="#A1B9BC" stroke-width="1.08811" stroke-dasharray="2.18 2.18"/>
<line x1="52.957" y1="272.399" x2="417.957" y2="272.399" stroke="#A1B9BC" stroke-width="1.08811" stroke-dasharray="2.18 2.18"/>
<line x1="52.957" y1="231.05" x2="417.957" y2="231.05" stroke="#A1B9BC" stroke-width="1.08811" stroke-dasharray="2.18 2.18"/>
<line x1="52.957" y1="189.703" x2="417.957" y2="189.703" stroke="#A1B9BC" stroke-width="1.08811" stroke-dasharray="2.18 2.18"/>
<line x1="52.957" y1="148.354" x2="417.957" y2="148.354" stroke="#A1B9BC" stroke-width="1.08811" stroke-dasharray="2.18 2.18"/>
<line x1="52.957" y1="105.919" x2="417.957" y2="105.919" stroke="#A1B9BC" stroke-width="1.08811" stroke-dasharray="2.18 2.18"/>
<line x1="52.9561" y1="64.5702" x2="354.362" y2="64.5702" stroke="#A1B9BC" stroke-width="1.08811" stroke-dasharray="2.18 2.18"/>
<line x1="52.957" y1="64.5702" x2="417.957" y2="64.5702" stroke="#A1B9BC" stroke-width="1.08811" stroke-dasharray="2.18 2.18"/>
<line x1="52.957" y1="23.4559" x2="417.957" y2="23.4559" stroke="#A1B9BC" stroke-width="1.08811" stroke-dasharray="2.18 2.18"/>
<path d="M50.0477 355.7C50.0477 357.145 49.776 358.237 49.2327 358.974C48.6939 359.706 47.872 360.072 46.7669 360.072C45.6802 360.072 44.8606 359.715 44.308 359.001C43.7601 358.283 43.4792 357.221 43.4654 355.817V354.077C43.4654 352.631 43.7347 351.546 44.2735 350.823C44.8168 350.1 45.6434 349.739 46.7531 349.739C47.8536 349.739 48.6732 350.091 49.2119 350.796C49.7553 351.5 50.0339 352.555 50.0477 353.959V355.7ZM48.3693 353.821C48.3693 352.877 48.2404 352.186 47.9825 351.749C47.7246 351.307 47.3148 351.086 46.7531 351.086C46.2051 351.086 45.8022 351.295 45.5444 351.714C45.2865 352.129 45.1507 352.778 45.1368 353.662V355.941C45.1368 356.881 45.2681 357.581 45.5305 358.041C45.793 358.502 46.2051 358.732 46.7669 358.732C47.3056 358.732 47.7039 358.52 47.9618 358.096C48.2196 357.668 48.3555 357 48.3693 356.093V353.821Z" fill="#637173"/>
<path d="M48.2649 308.409V318.5H46.6003V310.384L44.1345 311.22V309.846L48.0646 308.409H48.2649Z" fill="#637173"/>
<path d="M50.4613 276.174V277.5H43.7201V276.36L46.994 272.789C47.3531 272.384 47.6363 272.034 47.8435 271.74C48.0507 271.445 48.1958 271.18 48.2787 270.945C48.3662 270.706 48.4099 270.473 48.4099 270.248C48.4099 269.93 48.35 269.651 48.2303 269.412C48.1152 269.168 47.9448 268.977 47.7192 268.839C47.4936 268.696 47.2196 268.625 46.8973 268.625C46.5243 268.625 46.2112 268.705 45.9579 268.866C45.7047 269.027 45.5136 269.251 45.3847 269.536C45.2557 269.817 45.1913 270.14 45.1913 270.503H43.5267C43.5267 269.918 43.6602 269.384 43.9273 268.901C44.1944 268.413 44.5812 268.026 45.0877 267.741C45.5942 267.45 46.2043 267.305 46.918 267.305C47.5903 267.305 48.1613 267.418 48.6309 267.644C49.1006 267.869 49.4575 268.189 49.7015 268.604C49.9501 269.018 50.0745 269.509 50.0745 270.075C50.0745 270.388 50.0238 270.699 49.9225 271.007C49.8212 271.316 49.6762 271.625 49.4874 271.933C49.3032 272.237 49.0845 272.543 48.8312 272.852C48.578 273.156 48.2994 273.464 47.9955 273.777L45.8198 276.174H50.4613Z" fill="#637173"/>
<path d="M45.6748 229.719H46.6694C47.0561 229.719 47.3762 229.652 47.6294 229.519C47.8873 229.385 48.0784 229.201 48.2027 228.966C48.327 228.731 48.3892 228.462 48.3892 228.158C48.3892 227.84 48.3316 227.569 48.2165 227.343C48.106 227.113 47.9356 226.935 47.7054 226.811C47.4798 226.687 47.192 226.625 46.842 226.625C46.5473 226.625 46.2803 226.684 46.0408 226.804C45.806 226.919 45.6195 227.085 45.4814 227.301C45.3432 227.513 45.2742 227.767 45.2742 228.061H43.6027C43.6027 227.527 43.7431 227.053 44.024 226.638C44.3049 226.224 44.6871 225.899 45.1705 225.665C45.6586 225.425 46.2066 225.305 46.8144 225.305C47.4637 225.305 48.03 225.414 48.5135 225.63C49.0016 225.842 49.3815 226.16 49.6531 226.583C49.9248 227.007 50.0607 227.532 50.0607 228.158C50.0607 228.443 49.9939 228.734 49.8604 229.028C49.7268 229.323 49.5288 229.592 49.2664 229.836C49.0039 230.076 48.677 230.271 48.2856 230.423C47.8942 230.571 47.4406 230.644 46.9249 230.644H45.6748V229.719ZM45.6748 231.017V230.106H46.9249C47.5143 230.106 48.0162 230.175 48.4306 230.313C48.8496 230.451 49.1904 230.642 49.4528 230.886C49.7153 231.126 49.9064 231.4 50.0261 231.708C50.1504 232.017 50.2126 232.344 50.2126 232.689C50.2126 233.159 50.1274 233.578 49.9571 233.946C49.7913 234.31 49.5541 234.618 49.2456 234.871C48.9371 235.125 48.5757 235.316 48.1613 235.445C47.7514 235.574 47.3048 235.638 46.8213 235.638C46.3885 235.638 45.9741 235.578 45.5781 235.459C45.1821 235.339 44.8275 235.162 44.5144 234.927C44.2013 234.687 43.9526 234.39 43.7684 234.036C43.5889 233.677 43.4991 233.262 43.4991 232.792H45.1636C45.1636 233.092 45.2327 233.357 45.3708 233.587C45.5136 233.812 45.7116 233.99 45.9648 234.119C46.2227 234.248 46.5174 234.312 46.8489 234.312C47.1989 234.312 47.5005 234.25 47.7537 234.126C48.007 234.001 48.2004 233.817 48.3339 233.573C48.4721 233.329 48.5411 233.034 48.5411 232.689C48.5411 232.297 48.4652 231.98 48.3132 231.736C48.1613 231.492 47.9448 231.312 47.664 231.197C47.3831 231.077 47.0515 231.017 46.6694 231.017H45.6748Z" fill="#637173"/>
<path d="M50.6477 190.915V192.241H43.3955L43.3402 191.24L47.6778 184.444H49.0108L47.5673 186.916L45.0739 190.915H50.6477ZM49.3907 184.444V194.5H47.7261V184.444H49.3907Z" fill="#637173"/>
<path d="M45.4675 148.824L44.1414 148.499L44.6871 143.444H50.109V144.853H46.0684L45.7922 147.318C45.9487 147.226 46.1651 147.136 46.4414 147.049C46.7177 146.957 47.0331 146.911 47.3877 146.911C47.8619 146.911 48.2856 146.989 48.6585 147.146C49.0361 147.298 49.3562 147.521 49.6186 147.816C49.8811 148.106 50.0814 148.46 50.2195 148.879C50.3577 149.294 50.4267 149.761 50.4267 150.281C50.4267 150.746 50.3577 151.182 50.2195 151.587C50.086 151.992 49.8834 152.349 49.6117 152.657C49.34 152.966 48.997 153.208 48.5826 153.383C48.1728 153.553 47.687 153.638 47.1252 153.638C46.7062 153.638 46.3033 153.578 45.9165 153.459C45.5343 153.334 45.1913 153.152 44.8874 152.913C44.5835 152.669 44.3394 152.37 44.1552 152.015C43.971 151.656 43.8651 151.244 43.8375 150.779H45.4675C45.509 151.106 45.5988 151.384 45.7369 151.614C45.8797 151.84 46.0684 152.013 46.3033 152.132C46.5381 152.252 46.8098 152.312 47.1183 152.312C47.3992 152.312 47.6409 152.264 47.8435 152.167C48.0461 152.066 48.2142 151.923 48.3477 151.739C48.4859 151.55 48.5872 151.329 48.6516 151.076C48.7207 150.822 48.7552 150.542 48.7552 150.233C48.7552 149.938 48.7161 149.669 48.6378 149.425C48.5642 149.181 48.4513 148.969 48.2994 148.789C48.152 148.61 47.9656 148.472 47.7399 148.375C47.5143 148.274 47.2541 148.223 46.9594 148.223C46.5634 148.223 46.2595 148.281 46.0477 148.396C45.8405 148.511 45.6471 148.654 45.4675 148.824Z" fill="#637173"/>
<path d="M48.7483 100.381H48.9555V101.742H48.8381C48.2441 101.742 47.7307 101.834 47.2979 102.018C46.8697 102.202 46.5174 102.456 46.2411 102.778C45.9648 103.1 45.7576 103.478 45.6195 103.911C45.486 104.339 45.4192 104.795 45.4192 105.278V106.86C45.4192 107.261 45.4629 107.615 45.5504 107.924C45.6379 108.228 45.7599 108.483 45.9165 108.69C46.0777 108.893 46.2618 109.047 46.4691 109.153C46.6763 109.259 46.8996 109.312 47.139 109.312C47.3877 109.312 47.6133 109.261 47.8159 109.16C48.0185 109.054 48.1912 108.909 48.3339 108.725C48.4767 108.541 48.5849 108.322 48.6585 108.069C48.7322 107.816 48.7691 107.539 48.7691 107.24C48.7691 106.954 48.7322 106.687 48.6585 106.439C48.5895 106.185 48.4859 105.964 48.3477 105.776C48.2096 105.582 48.0369 105.433 47.8297 105.327C47.6271 105.216 47.3923 105.161 47.1252 105.161C46.7937 105.161 46.4921 105.239 46.2204 105.396C45.9533 105.552 45.7369 105.757 45.5712 106.01C45.41 106.259 45.3225 106.524 45.3087 106.805L44.6732 106.598C44.7101 106.169 44.8045 105.785 44.9564 105.444C45.113 105.103 45.3179 104.813 45.5712 104.574C45.8244 104.334 46.1168 104.153 46.4483 104.028C46.7845 103.899 47.1528 103.835 47.5534 103.835C48.0415 103.835 48.4652 103.927 48.8243 104.111C49.1835 104.295 49.4805 104.546 49.7153 104.864C49.9548 105.177 50.132 105.536 50.2471 105.941C50.3669 106.342 50.4267 106.761 50.4267 107.198C50.4267 107.682 50.3531 108.133 50.2057 108.552C50.0584 108.967 49.8419 109.33 49.5565 109.644C49.2756 109.957 48.9325 110.201 48.5273 110.376C48.1267 110.551 47.6709 110.638 47.1597 110.638C46.621 110.638 46.1398 110.535 45.7162 110.327C45.2972 110.12 44.9403 109.835 44.6456 109.471C44.3555 109.107 44.1345 108.688 43.9826 108.214C43.8306 107.74 43.7546 107.238 43.7546 106.708V106.017C43.7546 105.253 43.8513 104.532 44.0447 103.856C44.2381 103.174 44.5351 102.573 44.9357 102.053C45.3409 101.532 45.8589 101.125 46.4898 100.83C47.1206 100.531 47.8735 100.381 48.7483 100.381Z" fill="#637173"/>
<path d="M50.3991 59.4435V60.3552L46.3793 69.5H44.6249L48.6378 60.7696H43.43V59.4435H50.3991Z" fill="#637173"/>
<path d="M50.2955 26.2579C50.2955 26.8842 50.1504 27.4114 49.8604 27.8396C49.5703 28.2679 49.1743 28.5925 48.6724 28.8135C48.1751 29.0299 47.6133 29.1381 46.9871 29.1381C46.3608 29.1381 45.7968 29.0299 45.2949 28.8135C44.793 28.5925 44.397 28.2679 44.1069 27.8396C43.8168 27.4114 43.6717 26.8842 43.6717 26.2579C43.6717 25.8435 43.7523 25.4683 43.9135 25.1321C44.0746 24.7914 44.3026 24.499 44.5973 24.2549C44.8966 24.0063 45.2465 23.8152 45.6471 23.6817C46.0523 23.5481 46.4944 23.4814 46.9733 23.4814C47.6087 23.4814 48.1774 23.5988 48.6793 23.8336C49.1812 24.0684 49.5749 24.3931 49.8604 24.8075C50.1504 25.2219 50.2955 25.7054 50.2955 26.2579ZM48.624 26.1751C48.624 25.8389 48.5549 25.5442 48.4168 25.291C48.2787 25.0377 48.0853 24.842 47.8366 24.7039C47.588 24.5657 47.3002 24.4967 46.9733 24.4967C46.6417 24.4967 46.3539 24.5657 46.1099 24.7039C45.8658 24.842 45.6748 25.0377 45.5366 25.291C45.4031 25.5442 45.3363 25.8389 45.3363 26.1751C45.3363 26.5158 45.4031 26.8105 45.5366 27.0592C45.6701 27.3032 45.8612 27.4897 46.1099 27.6186C46.3585 27.7475 46.6509 27.812 46.9871 27.812C47.3232 27.812 47.6133 27.7475 47.8573 27.6186C48.1014 27.4897 48.2902 27.3032 48.4237 27.0592C48.5572 26.8105 48.624 26.5158 48.624 26.1751ZM50.0676 21.5889C50.0676 22.0908 49.934 22.5374 49.667 22.9288C49.4045 23.3202 49.0407 23.6287 48.5757 23.8543C48.1106 24.0754 47.5811 24.1859 46.9871 24.1859C46.3885 24.1859 45.8543 24.0754 45.3847 23.8543C44.9196 23.6287 44.5535 23.3202 44.2865 22.9288C44.024 22.5374 43.8928 22.0908 43.8928 21.5889C43.8928 20.9903 44.024 20.4861 44.2865 20.0762C44.5535 19.6618 44.9196 19.3464 45.3847 19.13C45.8497 18.9136 46.3816 18.8054 46.9802 18.8054C47.5788 18.8054 48.1106 18.9136 48.5757 19.13C49.0407 19.3464 49.4045 19.6618 49.667 20.0762C49.934 20.4861 50.0676 20.9903 50.0676 21.5889ZM48.403 21.6441C48.403 21.3448 48.3431 21.0824 48.2234 20.8567C48.1083 20.6265 47.9448 20.4469 47.733 20.318C47.5212 20.1891 47.2703 20.1246 46.9802 20.1246C46.6901 20.1246 46.4391 20.1868 46.2273 20.3111C46.0155 20.4354 45.852 20.6104 45.7369 20.836C45.6218 21.0616 45.5642 21.331 45.5642 21.6441C45.5642 21.9526 45.6218 22.222 45.7369 22.4522C45.852 22.6779 46.0155 22.8551 46.2273 22.9841C46.4437 23.113 46.697 23.1775 46.9871 23.1775C47.2772 23.1775 47.5281 23.113 47.7399 22.9841C47.9517 22.8551 48.1152 22.6779 48.2303 22.4522C48.3454 22.222 48.403 21.9526 48.403 21.6441Z" fill="#637173"/>
<path d="M11.3577 226.511L3.67031 224.418V221.703L13.7268 225.095V226.849L11.3577 226.511ZM3.67031 228.41L11.3577 226.317L13.7268 225.965V227.74L3.67031 231.111V228.41ZM10.0661 221.683H9.92109C9.37314 221.683 8.86893 221.604 8.40847 221.448C7.9434 221.291 7.5405 221.061 7.19975 220.757C6.85901 220.453 6.59425 220.078 6.40546 219.631C6.21206 219.185 6.11537 218.669 6.11537 218.084C6.11537 217.495 6.21206 216.977 6.40546 216.53C6.59425 216.079 6.85901 215.701 7.19975 215.397C7.5405 215.093 7.9434 214.863 8.40847 214.707C8.86893 214.55 9.37314 214.472 9.92109 214.472H10.0661C10.6095 214.472 11.1137 214.55 11.5788 214.707C12.0392 214.863 12.4421 215.093 12.7875 215.397C13.1282 215.701 13.393 216.077 13.5818 216.523C13.7706 216.97 13.8649 217.486 13.8649 218.07C13.8649 218.655 13.7706 219.173 13.5818 219.624C13.393 220.076 13.1282 220.453 12.7875 220.757C12.4421 221.061 12.0392 221.291 11.5788 221.448C11.1137 221.604 10.6095 221.683 10.0661 221.683ZM9.92109 219.355H10.0661C10.347 219.355 10.6095 219.334 10.8535 219.293C11.0976 219.251 11.3117 219.182 11.4959 219.086C11.6754 218.989 11.8159 218.858 11.9172 218.692C12.0185 218.526 12.0691 218.319 12.0691 218.07C12.0691 217.826 12.0185 217.624 11.9172 217.463C11.8159 217.297 11.6754 217.166 11.4959 217.069C11.3117 216.972 11.0976 216.903 10.8535 216.862C10.6095 216.82 10.347 216.799 10.0661 216.799H9.92109C9.64941 216.799 9.39386 216.82 9.15442 216.862C8.91037 216.903 8.69626 216.972 8.51207 217.069C8.32328 217.166 8.17593 217.297 8.07003 217.463C7.96412 217.628 7.91117 217.836 7.91117 218.084C7.91117 218.328 7.96412 218.533 8.07003 218.699C8.17593 218.86 8.32328 218.989 8.51207 219.086C8.69626 219.182 8.91037 219.251 9.15442 219.293C9.39386 219.334 9.64941 219.355 9.92109 219.355ZM6.2535 209.499H7.86973L7.86973 214.002H6.2535L6.2535 209.499ZM4.39554 213.056V210.728H11.2887C11.4867 210.728 11.6409 210.705 11.7514 210.659C11.8573 210.613 11.9333 210.535 11.9794 210.424C12.0208 210.309 12.0415 210.157 12.0415 209.969C12.0415 209.835 12.0392 209.724 12.0346 209.637C12.0254 209.549 12.0139 209.467 12.0001 209.388H13.6646C13.7291 209.586 13.7775 209.794 13.8097 210.01C13.8465 210.226 13.8649 210.457 13.8649 210.701C13.8649 211.198 13.7867 211.624 13.6301 211.978C13.4736 212.328 13.2272 212.595 12.8911 212.78C12.5549 212.964 12.1175 213.056 11.5788 213.056H4.39554ZM13.8649 204.954C13.8649 205.562 13.7706 206.105 13.5818 206.584C13.3884 207.063 13.1236 207.468 12.7875 207.8C12.4513 208.127 12.0645 208.378 11.6271 208.553C11.1897 208.723 10.7269 208.808 10.2388 208.808H9.97634C9.42839 208.808 8.92188 208.732 8.45682 208.58C7.98714 208.428 7.57733 208.203 7.22738 207.903C6.87743 207.604 6.60576 207.229 6.41236 206.778C6.21436 206.326 6.11537 205.801 6.11537 205.203C6.11537 204.673 6.20055 204.199 6.37092 203.78C6.54129 203.361 6.78534 203.006 7.10306 202.716C7.42078 202.422 7.80526 202.198 8.25651 202.046C8.70777 201.89 9.21428 201.811 9.77604 201.811H10.7223V207.917H9.26493V204.084H9.08535C8.8367 204.079 8.62488 204.123 8.44991 204.215C8.27493 204.303 8.1414 204.431 8.04931 204.602C7.95721 204.772 7.91117 204.979 7.91117 205.223C7.91117 205.477 7.96642 205.686 8.07693 205.852C8.18745 206.013 8.3394 206.14 8.53279 206.232C8.72158 206.319 8.9403 206.382 9.18895 206.418C9.4376 206.455 9.70006 206.474 9.97634 206.474H10.2388C10.5151 206.474 10.766 206.437 10.9917 206.363C11.2173 206.285 11.4107 206.174 11.5718 206.032C11.7284 205.884 11.8504 205.709 11.9379 205.507C12.0254 205.299 12.0691 205.065 12.0691 204.802C12.0691 204.484 12.0093 204.171 11.8896 203.863C11.7698 203.554 11.5718 203.289 11.2956 203.068L12.5526 202.012C12.769 202.164 12.9786 202.38 13.1812 202.661C13.3838 202.937 13.5495 203.269 13.6785 203.656C13.8028 204.042 13.8649 204.475 13.8649 204.954ZM11.6271 196.949C11.4982 196.949 11.3877 196.993 11.2956 197.08C11.1989 197.163 11.1114 197.31 11.0331 197.522C10.9502 197.734 10.8673 198.031 10.7845 198.413C10.7062 198.777 10.6026 199.12 10.4736 199.442C10.3447 199.76 10.1882 200.039 10.004 200.278C9.81978 200.518 9.60106 200.706 9.34781 200.844C9.09456 200.978 8.80446 201.045 8.47754 201.045C8.15982 201.045 7.86052 200.978 7.57964 200.844C7.29415 200.706 7.0432 200.506 6.82678 200.244C6.60576 199.976 6.43308 199.652 6.30876 199.27C6.17983 198.887 6.11537 198.452 6.11537 197.964C6.11537 197.292 6.21897 196.712 6.42618 196.224C6.62878 195.736 6.91427 195.36 7.28264 195.098C7.6464 194.831 8.06773 194.697 8.54661 194.697L8.54661 197.025C8.35782 197.025 8.19665 197.057 8.06312 197.122C7.92959 197.181 7.82828 197.28 7.75922 197.419C7.68554 197.557 7.6487 197.741 7.6487 197.971C7.6487 198.132 7.67863 198.28 7.73849 198.413C7.79835 198.542 7.88124 198.646 7.98714 198.724C8.09305 198.802 8.21738 198.841 8.36012 198.841C8.46142 198.841 8.55351 198.818 8.6364 198.772C8.71467 198.722 8.78835 198.646 8.85742 198.544C8.92188 198.443 8.98174 198.314 9.037 198.158C9.08765 198.001 9.1337 197.812 9.17514 197.591C9.26723 197.089 9.39846 196.62 9.56883 196.182C9.7392 195.745 9.98095 195.39 10.2941 195.119C10.6072 194.842 11.0285 194.704 11.558 194.704C11.8896 194.704 12.1958 194.78 12.4767 194.932C12.7529 195.084 12.997 195.303 13.2088 195.588C13.416 195.874 13.5772 196.217 13.6923 196.617C13.8074 197.018 13.8649 197.469 13.8649 197.971C13.8649 198.685 13.7383 199.288 13.4851 199.781C13.2272 200.273 12.9049 200.646 12.5181 200.9C12.1267 201.148 11.7307 201.273 11.3301 201.273V199.104C11.5603 199.095 11.7491 199.039 11.8965 198.938C12.0438 198.832 12.152 198.692 12.2211 198.517C12.2902 198.342 12.3247 198.139 12.3247 197.909C12.3247 197.697 12.2948 197.522 12.2349 197.384C12.175 197.241 12.0945 197.133 11.9932 197.059C11.8873 196.986 11.7652 196.949 11.6271 196.949Z" fill="#637173"/>
<path d="M80.1669 361.834L76.8377 371H75.4771L79.3104 360.944H80.1876L80.1669 361.834ZM82.9573 371L79.6212 361.834L79.6005 360.944H80.4777L84.3248 371H82.9573ZM82.7846 367.277V368.368H77.1347V367.277H82.7846ZM86.7561 364.963V373.873H85.4714V363.527H86.6456L86.7561 364.963ZM91.7912 367.201V367.346C91.7912 367.89 91.7268 368.394 91.5978 368.859C91.4689 369.319 91.2801 369.72 91.0315 370.061C90.7874 370.401 90.4858 370.666 90.1267 370.855C89.7675 371.044 89.3554 371.138 88.8903 371.138C88.4161 371.138 87.997 371.06 87.6333 370.903C87.2695 370.747 86.961 370.519 86.7077 370.22C86.4545 369.92 86.2519 369.561 86.0999 369.142C85.9526 368.723 85.8513 368.251 85.796 367.726V366.953C85.8513 366.4 85.9549 365.905 86.1068 365.468C86.2588 365.03 86.4591 364.657 86.7077 364.349C86.961 364.036 87.2672 363.798 87.6264 363.637C87.9855 363.471 88.3999 363.389 88.8696 363.389C89.3393 363.389 89.756 363.481 90.1198 363.665C90.4835 363.844 90.7897 364.102 91.0384 364.438C91.287 364.775 91.4735 365.177 91.5978 365.647C91.7268 366.112 91.7912 366.63 91.7912 367.201ZM90.5066 367.346V367.201C90.5066 366.828 90.4674 366.478 90.3891 366.151C90.3109 365.82 90.1888 365.53 90.0231 365.281C89.8619 365.028 89.6547 364.83 89.4014 364.687C89.1482 364.54 88.8466 364.466 88.4966 364.466C88.1743 364.466 87.8934 364.521 87.654 364.632C87.4192 364.742 87.2189 364.892 87.0531 365.081C86.8873 365.265 86.7515 365.477 86.6456 365.716C86.5443 365.951 86.4683 366.195 86.4176 366.448V368.237C86.5097 368.56 86.6387 368.863 86.8044 369.149C86.9702 369.43 87.1912 369.658 87.4675 369.833C87.7438 370.003 88.0914 370.088 88.5104 370.088C88.8558 370.088 89.1528 370.017 89.4014 369.874C89.6547 369.727 89.8619 369.527 90.0231 369.273C90.1888 369.02 90.3109 368.73 90.3891 368.403C90.4674 368.071 90.5066 367.719 90.5066 367.346ZM94.6991 364.963V373.873H93.4144V363.527H94.5886L94.6991 364.963ZM99.7342 367.201V367.346C99.7342 367.89 99.6698 368.394 99.5408 368.859C99.4119 369.319 99.2231 369.72 98.9745 370.061C98.7304 370.401 98.4288 370.666 98.0696 370.855C97.7105 371.044 97.2984 371.138 96.8333 371.138C96.359 371.138 95.94 371.06 95.5762 370.903C95.2125 370.747 94.904 370.519 94.6507 370.22C94.3975 369.92 94.1949 369.561 94.0429 369.142C93.8956 368.723 93.7943 368.251 93.739 367.726V366.953C93.7943 366.4 93.8979 365.905 94.0498 365.468C94.2018 365.03 94.4021 364.657 94.6507 364.349C94.904 364.036 95.2102 363.798 95.5693 363.637C95.9285 363.471 96.3429 363.389 96.8126 363.389C97.2823 363.389 97.699 363.481 98.0627 363.665C98.4265 363.844 98.7327 364.102 98.9814 364.438C99.23 364.775 99.4165 365.177 99.5408 365.647C99.6698 366.112 99.7342 366.63 99.7342 367.201ZM98.4495 367.346V367.201C98.4495 366.828 98.4104 366.478 98.3321 366.151C98.2538 365.82 98.1318 365.53 97.966 365.281C97.8049 365.028 97.5977 364.83 97.3444 364.687C97.0912 364.54 96.7896 364.466 96.4396 364.466C96.1173 364.466 95.8364 364.521 95.597 364.632C95.3621 364.742 95.1618 364.892 94.9961 365.081C94.8303 365.265 94.6945 365.477 94.5886 365.716C94.4872 365.951 94.4113 366.195 94.3606 366.448V368.237C94.4527 368.56 94.5816 368.863 94.7474 369.149C94.9132 369.43 95.1342 369.658 95.4105 369.833C95.6868 370.003 96.0344 370.088 96.4534 370.088C96.7988 370.088 97.0958 370.017 97.3444 369.874C97.5977 369.727 97.8049 369.527 97.966 369.273C98.1318 369.02 98.2538 368.73 98.3321 368.403C98.4104 368.071 98.4495 367.719 98.4495 367.346ZM102.753 360.391V371H101.468V360.391H102.753ZM107.905 371.138C107.385 371.138 106.913 371.051 106.489 370.876C106.07 370.696 105.709 370.445 105.405 370.123C105.106 369.8 104.875 369.418 104.714 368.976C104.553 368.534 104.472 368.051 104.472 367.526V367.236C104.472 366.628 104.562 366.087 104.742 365.613C104.921 365.134 105.165 364.729 105.474 364.397C105.782 364.065 106.132 363.814 106.524 363.644C106.915 363.474 107.32 363.389 107.739 363.389C108.273 363.389 108.734 363.481 109.121 363.665C109.512 363.849 109.832 364.107 110.081 364.438C110.329 364.765 110.514 365.152 110.633 365.599C110.753 366.041 110.813 366.524 110.813 367.049V367.623H105.232V366.58H109.535V366.483C109.517 366.151 109.448 365.829 109.328 365.516C109.213 365.203 109.029 364.945 108.775 364.742C108.522 364.54 108.177 364.438 107.739 364.438C107.449 364.438 107.182 364.501 106.938 364.625C106.694 364.745 106.485 364.924 106.31 365.164C106.135 365.403 105.999 365.695 105.902 366.041C105.805 366.386 105.757 366.784 105.757 367.236V367.526C105.757 367.88 105.805 368.214 105.902 368.527C106.003 368.836 106.148 369.108 106.337 369.342C106.531 369.577 106.763 369.761 107.035 369.895C107.311 370.028 107.624 370.095 107.974 370.095C108.425 370.095 108.808 370.003 109.121 369.819C109.434 369.635 109.708 369.388 109.943 369.08L110.716 369.695C110.555 369.939 110.35 370.171 110.102 370.392C109.853 370.613 109.547 370.793 109.183 370.931C108.824 371.069 108.398 371.138 107.905 371.138ZM117.091 364.963V373.873H115.807V363.527H116.981L117.091 364.963ZM122.126 367.201V367.346C122.126 367.89 122.062 368.394 121.933 368.859C121.804 369.319 121.615 369.72 121.367 370.061C121.123 370.401 120.821 370.666 120.462 370.855C120.103 371.044 119.691 371.138 119.226 371.138C118.751 371.138 118.332 371.06 117.969 370.903C117.605 370.747 117.296 370.519 117.043 370.22C116.79 369.92 116.587 369.561 116.435 369.142C116.288 368.723 116.187 368.251 116.131 367.726V366.953C116.187 366.4 116.29 365.905 116.442 365.468C116.594 365.03 116.794 364.657 117.043 364.349C117.296 364.036 117.602 363.798 117.962 363.637C118.321 363.471 118.735 363.389 119.205 363.389C119.675 363.389 120.091 363.481 120.455 363.665C120.819 363.844 121.125 364.102 121.374 364.438C121.622 364.775 121.809 365.177 121.933 365.647C122.062 366.112 122.126 366.63 122.126 367.201ZM120.842 367.346V367.201C120.842 366.828 120.803 366.478 120.724 366.151C120.646 365.82 120.524 365.53 120.358 365.281C120.197 365.028 119.99 364.83 119.737 364.687C119.483 364.54 119.182 364.466 118.832 364.466C118.51 364.466 118.229 364.521 117.989 364.632C117.754 364.742 117.554 364.892 117.388 365.081C117.223 365.265 117.087 365.477 116.981 365.716C116.88 365.951 116.804 366.195 116.753 366.448V368.237C116.845 368.56 116.974 368.863 117.14 369.149C117.305 369.43 117.526 369.658 117.803 369.833C118.079 370.003 118.427 370.088 118.846 370.088C119.191 370.088 119.488 370.017 119.737 369.874C119.99 369.727 120.197 369.527 120.358 369.273C120.524 369.02 120.646 368.73 120.724 368.403C120.803 368.071 120.842 367.719 120.842 367.346ZM125.145 363.527V371H123.86V363.527H125.145ZM123.763 361.544C123.763 361.337 123.826 361.162 123.95 361.019C124.079 360.877 124.268 360.805 124.516 360.805C124.76 360.805 124.947 360.877 125.076 361.019C125.209 361.162 125.276 361.337 125.276 361.544C125.276 361.742 125.209 361.913 125.076 362.056C124.947 362.194 124.76 362.263 124.516 362.263C124.268 362.263 124.079 362.194 123.95 362.056C123.826 361.913 123.763 361.742 123.763 361.544ZM130.297 371.138C129.777 371.138 129.305 371.051 128.881 370.876C128.462 370.696 128.101 370.445 127.797 370.123C127.498 369.8 127.268 369.418 127.106 368.976C126.945 368.534 126.865 368.051 126.865 367.526V367.236C126.865 366.628 126.954 366.087 127.134 365.613C127.314 365.134 127.558 364.729 127.866 364.397C128.175 364.065 128.525 363.814 128.916 363.644C129.307 363.474 129.713 363.389 130.132 363.389C130.666 363.389 131.126 363.481 131.513 363.665C131.904 363.849 132.224 364.107 132.473 364.438C132.722 364.765 132.906 365.152 133.026 365.599C133.145 366.041 133.205 366.524 133.205 367.049V367.623H127.624V366.58H131.927V366.483C131.909 366.151 131.84 365.829 131.72 365.516C131.605 365.203 131.421 364.945 131.168 364.742C130.914 364.54 130.569 364.438 130.132 364.438C129.842 364.438 129.574 364.501 129.33 364.625C129.086 364.745 128.877 364.924 128.702 365.164C128.527 365.403 128.391 365.695 128.294 366.041C128.198 366.386 128.149 366.784 128.149 367.236V367.526C128.149 367.88 128.198 368.214 128.294 368.527C128.396 368.836 128.541 369.108 128.73 369.342C128.923 369.577 129.155 369.761 129.427 369.895C129.703 370.028 130.017 370.095 130.366 370.095C130.818 370.095 131.2 370.003 131.513 369.819C131.826 369.635 132.1 369.388 132.335 369.08L133.109 369.695C132.947 369.939 132.742 370.171 132.494 370.392C132.245 370.613 131.939 370.793 131.575 370.931C131.216 371.069 130.79 371.138 130.297 371.138Z" fill="#637173"/>
<path d="M160.643 367.802H161.969C161.9 368.438 161.718 369.006 161.423 369.508C161.129 370.01 160.712 370.408 160.173 370.703C159.634 370.993 158.962 371.138 158.156 371.138C157.567 371.138 157.031 371.028 156.547 370.807C156.068 370.586 155.656 370.272 155.311 369.867C154.965 369.457 154.698 368.967 154.509 368.396C154.325 367.821 154.233 367.18 154.233 366.476V365.474C154.233 364.77 154.325 364.132 154.509 363.561C154.698 362.986 154.968 362.493 155.318 362.083C155.672 361.673 156.098 361.358 156.595 361.137C157.093 360.916 157.652 360.805 158.274 360.805C159.034 360.805 159.676 360.948 160.201 361.234C160.726 361.519 161.133 361.915 161.423 362.422C161.718 362.923 161.9 363.506 161.969 364.169H160.643C160.578 363.699 160.459 363.296 160.284 362.96C160.109 362.62 159.86 362.357 159.538 362.173C159.215 361.989 158.794 361.897 158.274 361.897C157.827 361.897 157.433 361.982 157.093 362.152C156.757 362.323 156.473 362.564 156.243 362.877C156.017 363.191 155.847 363.566 155.732 364.003C155.617 364.441 155.559 364.927 155.559 365.461V366.476C155.559 366.969 155.61 367.431 155.711 367.864C155.817 368.297 155.976 368.677 156.188 369.004C156.4 369.331 156.669 369.589 156.996 369.777C157.323 369.962 157.71 370.054 158.156 370.054C158.723 370.054 159.174 369.964 159.51 369.784C159.846 369.605 160.099 369.347 160.27 369.011C160.445 368.675 160.569 368.272 160.643 367.802ZM167.999 369.722V365.875C167.999 365.58 167.939 365.325 167.819 365.108C167.704 364.887 167.529 364.717 167.294 364.597C167.059 364.478 166.769 364.418 166.424 364.418C166.102 364.418 165.818 364.473 165.574 364.583C165.335 364.694 165.146 364.839 165.008 365.019C164.874 365.198 164.808 365.392 164.808 365.599H163.53C163.53 365.332 163.599 365.067 163.737 364.804C163.875 364.542 164.073 364.305 164.331 364.093C164.594 363.877 164.907 363.706 165.27 363.582C165.639 363.453 166.049 363.389 166.5 363.389C167.043 363.389 167.522 363.481 167.937 363.665C168.356 363.849 168.682 364.128 168.917 364.501C169.157 364.869 169.276 365.332 169.276 365.889V369.37C169.276 369.619 169.297 369.883 169.339 370.164C169.385 370.445 169.451 370.687 169.539 370.889V371H168.206C168.141 370.853 168.091 370.657 168.054 370.413C168.017 370.164 167.999 369.934 167.999 369.722ZM168.22 366.469L168.234 367.367H166.942C166.578 367.367 166.254 367.397 165.968 367.457C165.683 367.512 165.443 367.597 165.25 367.712C165.056 367.827 164.909 367.972 164.808 368.147C164.706 368.318 164.656 368.518 164.656 368.748C164.656 368.983 164.709 369.197 164.815 369.391C164.921 369.584 165.079 369.738 165.291 369.853C165.508 369.964 165.772 370.019 166.085 370.019C166.477 370.019 166.822 369.936 167.122 369.771C167.421 369.605 167.658 369.402 167.833 369.163C168.013 368.923 168.109 368.691 168.123 368.465L168.669 369.08C168.636 369.273 168.549 369.487 168.406 369.722C168.263 369.957 168.072 370.183 167.833 370.399C167.598 370.611 167.317 370.788 166.99 370.931C166.668 371.069 166.304 371.138 165.899 371.138C165.392 371.138 164.948 371.039 164.566 370.841C164.188 370.643 163.894 370.378 163.682 370.047C163.475 369.711 163.371 369.335 163.371 368.921C163.371 368.52 163.449 368.168 163.606 367.864C163.762 367.556 163.988 367.3 164.283 367.098C164.577 366.89 164.932 366.734 165.346 366.628C165.761 366.522 166.224 366.469 166.735 366.469H168.22ZM172.564 364.701V371H171.286V363.527H172.53L172.564 364.701ZM174.899 363.485L174.892 364.673C174.786 364.65 174.685 364.636 174.588 364.632C174.496 364.623 174.39 364.618 174.27 364.618C173.976 364.618 173.715 364.664 173.49 364.756C173.264 364.848 173.073 364.977 172.916 365.143C172.76 365.309 172.636 365.507 172.543 365.737C172.456 365.963 172.398 366.211 172.371 366.483L172.012 366.69C172.012 366.239 172.055 365.815 172.143 365.419C172.235 365.023 172.375 364.673 172.564 364.369C172.753 364.061 172.992 363.821 173.283 363.651C173.577 363.476 173.927 363.389 174.332 363.389C174.424 363.389 174.53 363.4 174.65 363.423C174.77 363.442 174.853 363.462 174.899 363.485ZM177.358 364.701V371H176.08V363.527H177.323L177.358 364.701ZM179.692 363.485L179.685 364.673C179.579 364.65 179.478 364.636 179.381 364.632C179.289 364.623 179.183 364.618 179.064 364.618C178.769 364.618 178.509 364.664 178.283 364.756C178.058 364.848 177.866 364.977 177.71 365.143C177.553 365.309 177.429 365.507 177.337 365.737C177.249 365.963 177.192 366.211 177.164 366.483L176.805 366.69C176.805 366.239 176.849 365.815 176.936 365.419C177.028 365.023 177.169 364.673 177.358 364.369C177.546 364.061 177.786 363.821 178.076 363.651C178.371 363.476 178.721 363.389 179.126 363.389C179.218 363.389 179.324 363.4 179.444 363.423C179.563 363.442 179.646 363.462 179.692 363.485ZM180.397 367.346V367.187C180.397 366.649 180.475 366.149 180.631 365.689C180.788 365.224 181.014 364.821 181.308 364.48C181.603 364.135 181.96 363.867 182.379 363.679C182.798 363.485 183.268 363.389 183.788 363.389C184.313 363.389 184.785 363.485 185.204 363.679C185.628 363.867 185.987 364.135 186.281 364.48C186.581 364.821 186.809 365.224 186.965 365.689C187.122 366.149 187.2 366.649 187.2 367.187V367.346C187.2 367.885 187.122 368.385 186.965 368.845C186.809 369.305 186.581 369.708 186.281 370.054C185.987 370.394 185.63 370.662 185.211 370.855C184.796 371.044 184.327 371.138 183.802 371.138C183.277 371.138 182.805 371.044 182.386 370.855C181.967 370.662 181.608 370.394 181.308 370.054C181.014 369.708 180.788 369.305 180.631 368.845C180.475 368.385 180.397 367.885 180.397 367.346ZM181.674 367.187V367.346C181.674 367.719 181.718 368.071 181.806 368.403C181.893 368.73 182.024 369.02 182.199 369.273C182.379 369.527 182.602 369.727 182.869 369.874C183.136 370.017 183.447 370.088 183.802 370.088C184.152 370.088 184.458 370.017 184.72 369.874C184.987 369.727 185.208 369.527 185.383 369.273C185.558 369.02 185.69 368.73 185.777 368.403C185.869 368.071 185.915 367.719 185.915 367.346V367.187C185.915 366.819 185.869 366.471 185.777 366.144C185.69 365.813 185.556 365.52 185.377 365.267C185.202 365.009 184.981 364.807 184.713 364.659C184.451 364.512 184.143 364.438 183.788 364.438C183.438 364.438 183.13 364.512 182.862 364.659C182.6 364.807 182.379 365.009 182.199 365.267C182.024 365.52 181.893 365.813 181.806 366.144C181.718 366.471 181.674 366.819 181.674 367.187ZM191.931 363.527V364.507H187.891V363.527H191.931ZM189.258 361.71H190.536V369.149C190.536 369.402 190.575 369.593 190.653 369.722C190.732 369.851 190.833 369.936 190.957 369.978C191.082 370.019 191.215 370.04 191.358 370.04C191.464 370.04 191.574 370.031 191.689 370.012C191.809 369.989 191.899 369.971 191.959 369.957L191.966 371C191.864 371.032 191.731 371.062 191.565 371.09C191.404 371.122 191.208 371.138 190.978 371.138C190.665 371.138 190.377 371.076 190.115 370.952C189.852 370.827 189.643 370.62 189.486 370.33C189.334 370.035 189.258 369.639 189.258 369.142V361.71ZM199.929 370.088C200.233 370.088 200.514 370.026 200.772 369.902C201.03 369.777 201.242 369.607 201.408 369.391C201.573 369.17 201.668 368.919 201.691 368.638H202.906C202.883 369.08 202.734 369.492 202.457 369.874C202.186 370.252 201.829 370.558 201.387 370.793C200.945 371.023 200.459 371.138 199.929 371.138C199.368 371.138 198.877 371.039 198.458 370.841C198.044 370.643 197.699 370.371 197.422 370.026C197.151 369.681 196.946 369.285 196.808 368.838C196.674 368.387 196.607 367.91 196.607 367.408V367.118C196.607 366.616 196.674 366.142 196.808 365.695C196.946 365.244 197.151 364.846 197.422 364.501C197.699 364.155 198.044 363.884 198.458 363.686C198.877 363.488 199.368 363.389 199.929 363.389C200.514 363.389 201.025 363.508 201.463 363.748C201.9 363.983 202.243 364.305 202.492 364.715C202.745 365.12 202.883 365.58 202.906 366.096H201.691C201.668 365.788 201.58 365.509 201.428 365.26C201.281 365.012 201.078 364.814 200.82 364.666C200.567 364.514 200.27 364.438 199.929 364.438C199.538 364.438 199.209 364.517 198.942 364.673C198.679 364.825 198.47 365.032 198.313 365.295C198.161 365.553 198.051 365.841 197.982 366.158C197.917 366.471 197.885 366.791 197.885 367.118V367.408C197.885 367.735 197.917 368.058 197.982 368.375C198.046 368.693 198.154 368.981 198.306 369.239C198.463 369.497 198.672 369.704 198.935 369.86C199.202 370.012 199.533 370.088 199.929 370.088ZM208.75 369.722V365.875C208.75 365.58 208.69 365.325 208.57 365.108C208.455 364.887 208.28 364.717 208.045 364.597C207.81 364.478 207.52 364.418 207.175 364.418C206.853 364.418 206.569 364.473 206.325 364.583C206.086 364.694 205.897 364.839 205.759 365.019C205.625 365.198 205.559 365.392 205.559 365.599H204.281C204.281 365.332 204.35 365.067 204.488 364.804C204.626 364.542 204.824 364.305 205.082 364.093C205.345 363.877 205.658 363.706 206.021 363.582C206.39 363.453 206.8 363.389 207.251 363.389C207.794 363.389 208.273 363.481 208.687 363.665C209.106 363.849 209.433 364.128 209.668 364.501C209.908 364.869 210.027 365.332 210.027 365.889V369.37C210.027 369.619 210.048 369.883 210.09 370.164C210.136 370.445 210.202 370.687 210.29 370.889V371H208.957C208.892 370.853 208.842 370.657 208.805 370.413C208.768 370.164 208.75 369.934 208.75 369.722ZM208.971 366.469L208.984 367.367H207.693C207.329 367.367 207.004 367.397 206.719 367.457C206.433 367.512 206.194 367.597 206.001 367.712C205.807 367.827 205.66 367.972 205.559 368.147C205.457 368.318 205.407 368.518 205.407 368.748C205.407 368.983 205.46 369.197 205.566 369.391C205.671 369.584 205.83 369.738 206.042 369.853C206.259 369.964 206.523 370.019 206.836 370.019C207.228 370.019 207.573 369.936 207.872 369.771C208.172 369.605 208.409 369.402 208.584 369.163C208.763 368.923 208.86 368.691 208.874 368.465L209.42 369.08C209.387 369.273 209.3 369.487 209.157 369.722C209.014 369.957 208.823 370.183 208.584 370.399C208.349 370.611 208.068 370.788 207.741 370.931C207.419 371.069 207.055 371.138 206.65 371.138C206.143 371.138 205.699 371.039 205.317 370.841C204.939 370.643 204.645 370.378 204.433 370.047C204.226 369.711 204.122 369.335 204.122 368.921C204.122 368.52 204.2 368.168 204.357 367.864C204.513 367.556 204.739 367.3 205.034 367.098C205.328 366.89 205.683 366.734 206.097 366.628C206.512 366.522 206.975 366.469 207.486 366.469H208.971ZM213.322 360.391V371H212.037V360.391H213.322ZM217.887 363.527L214.627 367.015L212.804 368.907L212.7 367.547L214.006 365.986L216.327 363.527H217.887ZM216.72 371L214.054 367.436L214.717 366.296L218.226 371H216.72ZM222.17 371.138C221.649 371.138 221.178 371.051 220.754 370.876C220.335 370.696 219.973 370.445 219.669 370.123C219.37 369.8 219.14 369.418 218.979 368.976C218.818 368.534 218.737 368.051 218.737 367.526V367.236C218.737 366.628 218.827 366.087 219.006 365.613C219.186 365.134 219.43 364.729 219.739 364.397C220.047 364.065 220.397 363.814 220.788 363.644C221.18 363.474 221.585 363.389 222.004 363.389C222.538 363.389 222.999 363.481 223.385 363.665C223.777 363.849 224.097 364.107 224.345 364.438C224.594 364.765 224.778 365.152 224.898 365.599C225.018 366.041 225.078 366.524 225.078 367.049V367.623H219.497V366.58H223.8V366.483C223.781 366.151 223.712 365.829 223.593 365.516C223.478 365.203 223.293 364.945 223.04 364.742C222.787 364.54 222.441 364.438 222.004 364.438C221.714 364.438 221.447 364.501 221.203 364.625C220.959 364.745 220.749 364.924 220.574 365.164C220.399 365.403 220.263 365.695 220.167 366.041C220.07 366.386 220.022 366.784 220.022 367.236V367.526C220.022 367.88 220.07 368.214 220.167 368.527C220.268 368.836 220.413 369.108 220.602 369.342C220.795 369.577 221.028 369.761 221.3 369.895C221.576 370.028 221.889 370.095 222.239 370.095C222.69 370.095 223.072 370.003 223.385 369.819C223.699 369.635 223.973 369.388 224.207 369.08L224.981 369.695C224.82 369.939 224.615 370.171 224.366 370.392C224.118 370.613 223.811 370.793 223.448 370.931C223.088 371.069 222.662 371.138 222.17 371.138Z" fill="#637173"/>
<path d="M243.515 367.802H244.842C244.773 368.438 244.591 369.006 244.296 369.508C244.001 370.01 243.585 370.408 243.046 370.703C242.507 370.993 241.835 371.138 241.029 371.138C240.44 371.138 239.903 371.028 239.42 370.807C238.941 370.586 238.529 370.272 238.183 369.867C237.838 369.457 237.571 368.967 237.382 368.396C237.198 367.821 237.106 367.18 237.106 366.476V365.474C237.106 364.77 237.198 364.132 237.382 363.561C237.571 362.986 237.84 362.493 238.19 362.083C238.545 361.673 238.971 361.358 239.468 361.137C239.965 360.916 240.525 360.805 241.146 360.805C241.906 360.805 242.549 360.948 243.073 361.234C243.598 361.519 244.006 361.915 244.296 362.422C244.591 362.923 244.773 363.506 244.842 364.169H243.515C243.451 363.699 243.331 363.296 243.156 362.96C242.981 362.62 242.733 362.357 242.41 362.173C242.088 361.989 241.667 361.897 241.146 361.897C240.7 361.897 240.306 361.982 239.965 362.152C239.629 362.323 239.346 362.564 239.116 362.877C238.89 363.191 238.72 363.566 238.605 364.003C238.49 364.441 238.432 364.927 238.432 365.461V366.476C238.432 366.969 238.483 367.431 238.584 367.864C238.69 368.297 238.849 368.677 239.061 369.004C239.272 369.331 239.542 369.589 239.869 369.777C240.196 369.962 240.582 370.054 241.029 370.054C241.595 370.054 242.047 369.964 242.383 369.784C242.719 369.605 242.972 369.347 243.143 369.011C243.317 368.675 243.442 368.272 243.515 367.802ZM247.743 360.391V371H246.465V360.391H247.743ZM247.439 366.98L246.907 366.959C246.911 366.448 246.987 365.976 247.135 365.544C247.282 365.106 247.489 364.726 247.756 364.404C248.023 364.082 248.341 363.833 248.71 363.658C249.082 363.478 249.495 363.389 249.946 363.389C250.314 363.389 250.646 363.439 250.94 363.541C251.235 363.637 251.486 363.794 251.693 364.01C251.905 364.227 252.066 364.507 252.177 364.853C252.287 365.194 252.343 365.61 252.343 366.103V371H251.058V366.089C251.058 365.698 251 365.385 250.885 365.15C250.77 364.91 250.602 364.738 250.381 364.632C250.16 364.521 249.888 364.466 249.566 364.466C249.248 364.466 248.958 364.533 248.696 364.666C248.438 364.8 248.215 364.984 248.026 365.219C247.842 365.454 247.696 365.723 247.591 366.027C247.489 366.326 247.439 366.644 247.439 366.98ZM257.357 371.138C256.837 371.138 256.365 371.051 255.941 370.876C255.522 370.696 255.161 370.445 254.857 370.123C254.557 369.8 254.327 369.418 254.166 368.976C254.005 368.534 253.924 368.051 253.924 367.526V367.236C253.924 366.628 254.014 366.087 254.194 365.613C254.373 365.134 254.617 364.729 254.926 364.397C255.234 364.065 255.584 363.814 255.976 363.644C256.367 363.474 256.772 363.389 257.191 363.389C257.725 363.389 258.186 363.481 258.573 363.665C258.964 363.849 259.284 364.107 259.533 364.438C259.781 364.765 259.966 365.152 260.085 365.599C260.205 366.041 260.265 366.524 260.265 367.049V367.623H254.684V366.58H258.987V366.483C258.969 366.151 258.9 365.829 258.78 365.516C258.665 365.203 258.481 364.945 258.227 364.742C257.974 364.54 257.629 364.438 257.191 364.438C256.901 364.438 256.634 364.501 256.39 364.625C256.146 364.745 255.936 364.924 255.761 365.164C255.587 365.403 255.451 365.695 255.354 366.041C255.257 366.386 255.209 366.784 255.209 367.236V367.526C255.209 367.88 255.257 368.214 255.354 368.527C255.455 368.836 255.6 369.108 255.789 369.342C255.983 369.577 256.215 369.761 256.487 369.895C256.763 370.028 257.076 370.095 257.426 370.095C257.877 370.095 258.259 370.003 258.573 369.819C258.886 369.635 259.16 369.388 259.395 369.08L260.168 369.695C260.007 369.939 259.802 370.171 259.553 370.392C259.305 370.613 258.999 370.793 258.635 370.931C258.276 371.069 257.85 371.138 257.357 371.138ZM264.858 371.138C264.338 371.138 263.866 371.051 263.442 370.876C263.023 370.696 262.662 370.445 262.358 370.123C262.058 369.8 261.828 369.418 261.667 368.976C261.506 368.534 261.425 368.051 261.425 367.526V367.236C261.425 366.628 261.515 366.087 261.695 365.613C261.874 365.134 262.118 364.729 262.427 364.397C262.735 364.065 263.085 363.814 263.477 363.644C263.868 363.474 264.273 363.389 264.692 363.389C265.226 363.389 265.687 363.481 266.074 363.665C266.465 363.849 266.785 364.107 267.034 364.438C267.282 364.765 267.466 365.152 267.586 365.599C267.706 366.041 267.766 366.524 267.766 367.049V367.623H262.185V366.58H266.488V366.483C266.47 366.151 266.4 365.829 266.281 365.516C266.166 365.203 265.981 364.945 265.728 364.742C265.475 364.54 265.13 364.438 264.692 364.438C264.402 364.438 264.135 364.501 263.891 364.625C263.647 364.745 263.437 364.924 263.262 365.164C263.087 365.403 262.952 365.695 262.855 366.041C262.758 366.386 262.71 366.784 262.71 367.236V367.526C262.71 367.88 262.758 368.214 262.855 368.527C262.956 368.836 263.101 369.108 263.29 369.342C263.483 369.577 263.716 369.761 263.988 369.895C264.264 370.028 264.577 370.095 264.927 370.095C265.378 370.095 265.76 370.003 266.074 369.819C266.387 369.635 266.661 369.388 266.895 369.08L267.669 369.695C267.508 369.939 267.303 370.171 267.054 370.392C266.806 370.613 266.499 370.793 266.136 370.931C265.777 371.069 265.351 371.138 264.858 371.138ZM273.609 369.018C273.609 368.834 273.568 368.663 273.485 368.507C273.406 368.345 273.243 368.2 272.994 368.071C272.75 367.938 272.382 367.823 271.889 367.726C271.475 367.639 271.099 367.535 270.763 367.415C270.432 367.296 270.149 367.151 269.914 366.98C269.684 366.81 269.506 366.609 269.382 366.379C269.258 366.149 269.195 365.88 269.195 365.571C269.195 365.276 269.26 364.998 269.389 364.735C269.522 364.473 269.709 364.24 269.948 364.038C270.192 363.835 270.485 363.676 270.826 363.561C271.166 363.446 271.546 363.389 271.965 363.389C272.564 363.389 273.075 363.494 273.498 363.706C273.922 363.918 274.247 364.201 274.472 364.556C274.698 364.906 274.811 365.295 274.811 365.723H273.533C273.533 365.516 273.471 365.316 273.347 365.122C273.227 364.924 273.05 364.761 272.815 364.632C272.584 364.503 272.301 364.438 271.965 364.438C271.611 364.438 271.323 364.494 271.102 364.604C270.885 364.71 270.727 364.846 270.625 365.012C270.529 365.177 270.48 365.352 270.48 365.537C270.48 365.675 270.503 365.799 270.549 365.91C270.6 366.015 270.687 366.114 270.812 366.207C270.936 366.294 271.111 366.377 271.337 366.455C271.562 366.534 271.85 366.612 272.2 366.69C272.812 366.828 273.317 366.994 273.713 367.187C274.109 367.381 274.403 367.618 274.597 367.899C274.79 368.18 274.887 368.52 274.887 368.921C274.887 369.248 274.818 369.547 274.68 369.819C274.546 370.091 274.35 370.325 274.092 370.523C273.839 370.717 273.535 370.869 273.181 370.979C272.831 371.085 272.437 371.138 272 371.138C271.341 371.138 270.784 371.021 270.328 370.786C269.872 370.551 269.527 370.247 269.292 369.874C269.057 369.501 268.94 369.108 268.94 368.693H270.225C270.243 369.043 270.344 369.322 270.529 369.529C270.713 369.731 270.938 369.876 271.205 369.964C271.472 370.047 271.737 370.088 272 370.088C272.35 370.088 272.642 370.042 272.877 369.95C273.116 369.858 273.298 369.731 273.423 369.57C273.547 369.409 273.609 369.225 273.609 369.018ZM279.666 371.138C279.146 371.138 278.674 371.051 278.25 370.876C277.831 370.696 277.47 370.445 277.166 370.123C276.867 369.8 276.637 369.418 276.475 368.976C276.314 368.534 276.234 368.051 276.234 367.526V367.236C276.234 366.628 276.323 366.087 276.503 365.613C276.683 365.134 276.927 364.729 277.235 364.397C277.544 364.065 277.894 363.814 278.285 363.644C278.676 363.474 279.082 363.389 279.501 363.389C280.035 363.389 280.495 363.481 280.882 363.665C281.273 363.849 281.593 364.107 281.842 364.438C282.091 364.765 282.275 365.152 282.395 365.599C282.514 366.041 282.574 366.524 282.574 367.049V367.623H276.993V366.58H281.296V366.483C281.278 366.151 281.209 365.829 281.089 365.516C280.974 365.203 280.79 364.945 280.537 364.742C280.283 364.54 279.938 364.438 279.501 364.438C279.211 364.438 278.943 364.501 278.699 364.625C278.455 364.745 278.246 364.924 278.071 365.164C277.896 365.403 277.76 365.695 277.663 366.041C277.567 366.386 277.518 366.784 277.518 367.236V367.526C277.518 367.88 277.567 368.214 277.663 368.527C277.765 368.836 277.91 369.108 278.099 369.342C278.292 369.577 278.524 369.761 278.796 369.895C279.072 370.028 279.386 370.095 279.735 370.095C280.187 370.095 280.569 370.003 280.882 369.819C281.195 369.635 281.469 369.388 281.704 369.08L282.478 369.695C282.316 369.939 282.111 370.171 281.863 370.392C281.614 370.613 281.308 370.793 280.944 370.931C280.585 371.069 280.159 371.138 279.666 371.138ZM287.057 370.088C287.361 370.088 287.642 370.026 287.899 369.902C288.157 369.777 288.369 369.607 288.535 369.391C288.701 369.17 288.795 368.919 288.818 368.638H290.034C290.011 369.08 289.861 369.492 289.585 369.874C289.313 370.252 288.956 370.558 288.514 370.793C288.072 371.023 287.586 371.138 287.057 371.138C286.495 371.138 286.005 371.039 285.586 370.841C285.171 370.643 284.826 370.371 284.55 370.026C284.278 369.681 284.073 369.285 283.935 368.838C283.801 368.387 283.735 367.91 283.735 367.408V367.118C283.735 366.616 283.801 366.142 283.935 365.695C284.073 365.244 284.278 364.846 284.55 364.501C284.826 364.155 285.171 363.884 285.586 363.686C286.005 363.488 286.495 363.389 287.057 363.389C287.642 363.389 288.153 363.508 288.59 363.748C289.028 363.983 289.371 364.305 289.619 364.715C289.873 365.12 290.011 365.58 290.034 366.096H288.818C288.795 365.788 288.708 365.509 288.556 365.26C288.408 365.012 288.206 364.814 287.948 364.666C287.695 364.514 287.398 364.438 287.057 364.438C286.665 364.438 286.336 364.517 286.069 364.673C285.807 364.825 285.597 365.032 285.441 365.295C285.289 365.553 285.178 365.841 285.109 366.158C285.045 366.471 285.012 366.791 285.012 367.118V367.408C285.012 367.735 285.045 368.058 285.109 368.375C285.174 368.693 285.282 368.981 285.434 369.239C285.59 369.497 285.8 369.704 286.062 369.86C286.329 370.012 286.661 370.088 287.057 370.088ZM295.877 369.722V365.875C295.877 365.58 295.817 365.325 295.697 365.108C295.582 364.887 295.407 364.717 295.172 364.597C294.938 364.478 294.648 364.418 294.302 364.418C293.98 364.418 293.697 364.473 293.453 364.583C293.213 364.694 293.024 364.839 292.886 365.019C292.753 365.198 292.686 365.392 292.686 365.599H291.408C291.408 365.332 291.477 365.067 291.615 364.804C291.754 364.542 291.952 364.305 292.209 364.093C292.472 363.877 292.785 363.706 293.149 363.582C293.517 363.453 293.927 363.389 294.378 363.389C294.922 363.389 295.4 363.481 295.815 363.665C296.234 363.849 296.561 364.128 296.796 364.501C297.035 364.869 297.155 365.332 297.155 365.889V369.37C297.155 369.619 297.175 369.883 297.217 370.164C297.263 370.445 297.33 370.687 297.417 370.889V371H296.084C296.02 370.853 295.969 370.657 295.932 370.413C295.895 370.164 295.877 369.934 295.877 369.722ZM296.098 366.469L296.112 367.367H294.82C294.456 367.367 294.132 367.397 293.846 367.457C293.561 367.512 293.321 367.597 293.128 367.712C292.935 367.827 292.787 367.972 292.686 368.147C292.585 368.318 292.534 368.518 292.534 368.748C292.534 368.983 292.587 369.197 292.693 369.391C292.799 369.584 292.958 369.738 293.169 369.853C293.386 369.964 293.651 370.019 293.964 370.019C294.355 370.019 294.7 369.936 295 369.771C295.299 369.605 295.536 369.402 295.711 369.163C295.891 368.923 295.987 368.691 296.001 368.465L296.547 369.08C296.515 369.273 296.427 369.487 296.284 369.722C296.142 369.957 295.951 370.183 295.711 370.399C295.476 370.611 295.195 370.788 294.869 370.931C294.546 371.069 294.182 371.138 293.777 371.138C293.271 371.138 292.826 371.039 292.444 370.841C292.067 370.643 291.772 370.378 291.56 370.047C291.353 369.711 291.249 369.335 291.249 368.921C291.249 368.52 291.328 368.168 291.484 367.864C291.641 367.556 291.866 367.3 292.161 367.098C292.456 366.89 292.81 366.734 293.225 366.628C293.639 366.522 294.102 366.469 294.613 366.469H296.098ZM300.449 360.391V371H299.165V360.391H300.449ZM305.015 363.527L301.755 367.015L299.931 368.907L299.828 367.547L301.133 365.986L303.454 363.527H305.015ZM303.848 371L301.181 367.436L301.845 366.296L305.353 371H303.848ZM309.297 371.138C308.777 371.138 308.305 371.051 307.881 370.876C307.462 370.696 307.101 370.445 306.797 370.123C306.498 369.8 306.267 369.418 306.106 368.976C305.945 368.534 305.864 368.051 305.864 367.526V367.236C305.864 366.628 305.954 366.087 306.134 365.613C306.313 365.134 306.557 364.729 306.866 364.397C307.174 364.065 307.524 363.814 307.916 363.644C308.307 363.474 308.712 363.389 309.131 363.389C309.666 363.389 310.126 363.481 310.513 363.665C310.904 363.849 311.224 364.107 311.473 364.438C311.721 364.765 311.906 365.152 312.025 365.599C312.145 366.041 312.205 366.524 312.205 367.049V367.623H306.624V366.58H310.927V366.483C310.909 366.151 310.84 365.829 310.72 365.516C310.605 365.203 310.421 364.945 310.167 364.742C309.914 364.54 309.569 364.438 309.131 364.438C308.841 364.438 308.574 364.501 308.33 364.625C308.086 364.745 307.877 364.924 307.702 365.164C307.527 365.403 307.391 365.695 307.294 366.041C307.197 366.386 307.149 366.784 307.149 367.236V367.526C307.149 367.88 307.197 368.214 307.294 368.527C307.395 368.836 307.54 369.108 307.729 369.342C307.923 369.577 308.155 369.761 308.427 369.895C308.703 370.028 309.016 370.095 309.366 370.095C309.817 370.095 310.2 370.003 310.513 369.819C310.826 369.635 311.1 369.388 311.335 369.08L312.108 369.695C311.947 369.939 311.742 370.171 311.494 370.392C311.245 370.613 310.939 370.793 310.575 370.931C310.216 371.069 309.79 371.138 309.297 371.138Z" fill="#637173"/>
<rect x="77" y="231" width="55" height="124" fill="#B5D94A"/>
<rect x="162" y="314" width="55" height="41" fill="#87D7E3"/>
<rect x="248" y="150" width="53" height="205" fill="#D634FF" stroke="#D634FF" stroke-width="2" stroke-dasharray="4 4"/>
<path d="M336.633 360.944V371H335.3V360.944H336.633ZM341.855 370.088C342.159 370.088 342.44 370.026 342.698 369.902C342.955 369.777 343.167 369.607 343.333 369.391C343.499 369.17 343.593 368.919 343.616 368.638H344.832C344.809 369.08 344.659 369.492 344.383 369.874C344.111 370.252 343.754 370.558 343.312 370.793C342.87 371.023 342.384 371.138 341.855 371.138C341.293 371.138 340.803 371.039 340.384 370.841C339.969 370.643 339.624 370.371 339.348 370.026C339.076 369.681 338.871 369.285 338.733 368.838C338.599 368.387 338.533 367.91 338.533 367.408V367.118C338.533 366.616 338.599 366.142 338.733 365.695C338.871 365.244 339.076 364.846 339.348 364.501C339.624 364.155 339.969 363.884 340.384 363.686C340.803 363.488 341.293 363.389 341.855 363.389C342.44 363.389 342.951 363.508 343.388 363.748C343.826 363.983 344.169 364.305 344.417 364.715C344.671 365.12 344.809 365.58 344.832 366.096H343.616C343.593 365.788 343.506 365.509 343.354 365.26C343.206 365.012 343.004 364.814 342.746 364.666C342.493 364.514 342.196 364.438 341.855 364.438C341.463 364.438 341.134 364.517 340.867 364.673C340.605 364.825 340.395 365.032 340.239 365.295C340.087 365.553 339.976 365.841 339.907 366.158C339.843 366.471 339.81 366.791 339.81 367.118V367.408C339.81 367.735 339.843 368.058 339.907 368.375C339.972 368.693 340.08 368.981 340.232 369.239C340.388 369.497 340.598 369.704 340.86 369.86C341.127 370.012 341.459 370.088 341.855 370.088ZM349.37 371.138C348.849 371.138 348.377 371.051 347.954 370.876C347.535 370.696 347.173 370.445 346.869 370.123C346.57 369.8 346.34 369.418 346.179 368.976C346.017 368.534 345.937 368.051 345.937 367.526V367.236C345.937 366.628 346.027 366.087 346.206 365.613C346.386 365.134 346.63 364.729 346.938 364.397C347.247 364.065 347.597 363.814 347.988 363.644C348.38 363.474 348.785 363.389 349.204 363.389C349.738 363.389 350.198 363.481 350.585 363.665C350.977 363.849 351.297 364.107 351.545 364.438C351.794 364.765 351.978 365.152 352.098 365.599C352.218 366.041 352.277 366.524 352.277 367.049V367.623H346.697V366.58H351V366.483C350.981 366.151 350.912 365.829 350.792 365.516C350.677 365.203 350.493 364.945 350.24 364.742C349.987 364.54 349.641 364.438 349.204 364.438C348.914 364.438 348.647 364.501 348.403 364.625C348.159 364.745 347.949 364.924 347.774 365.164C347.599 365.403 347.463 365.695 347.367 366.041C347.27 366.386 347.222 366.784 347.222 367.236V367.526C347.222 367.88 347.27 368.214 347.367 368.527C347.468 368.836 347.613 369.108 347.802 369.342C347.995 369.577 348.228 369.761 348.499 369.895C348.776 370.028 349.089 370.095 349.439 370.095C349.89 370.095 350.272 370.003 350.585 369.819C350.898 369.635 351.172 369.388 351.407 369.08L352.181 369.695C352.02 369.939 351.815 370.171 351.566 370.392C351.317 370.613 351.011 370.793 350.647 370.931C350.288 371.069 349.862 371.138 349.37 371.138ZM360.269 370.088C360.573 370.088 360.854 370.026 361.111 369.902C361.369 369.777 361.581 369.607 361.747 369.391C361.913 369.17 362.007 368.919 362.03 368.638H363.246C363.223 369.08 363.073 369.492 362.797 369.874C362.525 370.252 362.168 370.558 361.726 370.793C361.284 371.023 360.798 371.138 360.269 371.138C359.707 371.138 359.217 371.039 358.798 370.841C358.383 370.643 358.038 370.371 357.762 370.026C357.49 369.681 357.285 369.285 357.147 368.838C357.013 368.387 356.947 367.91 356.947 367.408V367.118C356.947 366.616 357.013 366.142 357.147 365.695C357.285 365.244 357.49 364.846 357.762 364.501C358.038 364.155 358.383 363.884 358.798 363.686C359.217 363.488 359.707 363.389 360.269 363.389C360.854 363.389 361.365 363.508 361.802 363.748C362.24 363.983 362.583 364.305 362.831 364.715C363.084 365.12 363.223 365.58 363.246 366.096H362.03C362.007 365.788 361.92 365.509 361.768 365.26C361.62 365.012 361.418 364.814 361.16 364.666C360.906 364.514 360.609 364.438 360.269 364.438C359.877 364.438 359.548 364.517 359.281 364.673C359.019 364.825 358.809 365.032 358.653 365.295C358.501 365.553 358.39 365.841 358.321 366.158C358.257 366.471 358.224 366.791 358.224 367.118V367.408C358.224 367.735 358.257 368.058 358.321 368.375C358.385 368.693 358.494 368.981 358.646 369.239C358.802 369.497 359.012 369.704 359.274 369.86C359.541 370.012 359.873 370.088 360.269 370.088ZM365.96 364.701V371H364.682V363.527H365.926L365.96 364.701ZM368.295 363.485L368.288 364.673C368.182 364.65 368.08 364.636 367.984 364.632C367.892 364.623 367.786 364.618 367.666 364.618C367.371 364.618 367.111 364.664 366.886 364.756C366.66 364.848 366.469 364.977 366.312 365.143C366.156 365.309 366.031 365.507 365.939 365.737C365.852 365.963 365.794 366.211 365.767 366.483L365.408 366.69C365.408 366.239 365.451 365.815 365.539 365.419C365.631 365.023 365.771 364.673 365.96 364.369C366.149 364.061 366.388 363.821 366.678 363.651C366.973 363.476 367.323 363.389 367.728 363.389C367.82 363.389 367.926 363.4 368.046 363.423C368.166 363.442 368.249 363.462 368.295 363.485ZM372.439 371.138C371.918 371.138 371.446 371.051 371.023 370.876C370.604 370.696 370.242 370.445 369.938 370.123C369.639 369.8 369.409 369.418 369.248 368.976C369.087 368.534 369.006 368.051 369.006 367.526V367.236C369.006 366.628 369.096 366.087 369.275 365.613C369.455 365.134 369.699 364.729 370.008 364.397C370.316 364.065 370.666 363.814 371.057 363.644C371.449 363.474 371.854 363.389 372.273 363.389C372.807 363.389 373.268 363.481 373.654 363.665C374.046 363.849 374.366 364.107 374.614 364.438C374.863 364.765 375.047 365.152 375.167 365.599C375.287 366.041 375.347 366.524 375.347 367.049V367.623H369.766V366.58H374.069V366.483C374.05 366.151 373.981 365.829 373.862 365.516C373.746 365.203 373.562 364.945 373.309 364.742C373.056 364.54 372.71 364.438 372.273 364.438C371.983 364.438 371.716 364.501 371.472 364.625C371.228 364.745 371.018 364.924 370.843 365.164C370.668 365.403 370.532 365.695 370.436 366.041C370.339 366.386 370.291 366.784 370.291 367.236V367.526C370.291 367.88 370.339 368.214 370.436 368.527C370.537 368.836 370.682 369.108 370.871 369.342C371.064 369.577 371.297 369.761 371.568 369.895C371.845 370.028 372.158 370.095 372.508 370.095C372.959 370.095 373.341 370.003 373.654 369.819C373.968 369.635 374.241 369.388 374.476 369.08L375.25 369.695C375.089 369.939 374.884 370.171 374.635 370.392C374.387 370.613 374.08 370.793 373.717 370.931C373.357 371.069 372.931 371.138 372.439 371.138ZM381.245 369.722V365.875C381.245 365.58 381.185 365.325 381.066 365.108C380.95 364.887 380.775 364.717 380.541 364.597C380.306 364.478 380.016 364.418 379.67 364.418C379.348 364.418 379.065 364.473 378.821 364.583C378.581 364.694 378.393 364.839 378.254 365.019C378.121 365.198 378.054 365.392 378.054 365.599H376.776C376.776 365.332 376.845 365.067 376.984 364.804C377.122 364.542 377.32 364.305 377.578 364.093C377.84 363.877 378.153 363.706 378.517 363.582C378.885 363.453 379.295 363.389 379.746 363.389C380.29 363.389 380.769 363.481 381.183 363.665C381.602 363.849 381.929 364.128 382.164 364.501C382.403 364.869 382.523 365.332 382.523 365.889V369.37C382.523 369.619 382.544 369.883 382.585 370.164C382.631 370.445 382.698 370.687 382.785 370.889V371H381.452C381.388 370.853 381.337 370.657 381.3 370.413C381.264 370.164 381.245 369.934 381.245 369.722ZM381.466 366.469L381.48 367.367H380.188C379.825 367.367 379.5 367.397 379.214 367.457C378.929 367.512 378.69 367.597 378.496 367.712C378.303 367.827 378.155 367.972 378.054 368.147C377.953 368.318 377.902 368.518 377.902 368.748C377.902 368.983 377.955 369.197 378.061 369.391C378.167 369.584 378.326 369.738 378.538 369.853C378.754 369.964 379.019 370.019 379.332 370.019C379.723 370.019 380.069 369.936 380.368 369.771C380.667 369.605 380.904 369.402 381.079 369.163C381.259 368.923 381.356 368.691 381.369 368.465L381.915 369.08C381.883 369.273 381.795 369.487 381.653 369.722C381.51 369.957 381.319 370.183 381.079 370.399C380.845 370.611 380.564 370.788 380.237 370.931C379.914 371.069 379.551 371.138 379.145 371.138C378.639 371.138 378.195 371.039 377.812 370.841C377.435 370.643 377.14 370.378 376.928 370.047C376.721 369.711 376.617 369.335 376.617 368.921C376.617 368.52 376.696 368.168 376.852 367.864C377.009 367.556 377.234 367.3 377.529 367.098C377.824 366.89 378.178 366.734 378.593 366.628C379.007 366.522 379.47 366.469 379.981 366.469H381.466ZM385.804 365.012V371H384.519V363.527H385.735L385.804 365.012ZM385.541 366.98L384.947 366.959C384.952 366.448 385.019 365.976 385.148 365.544C385.276 365.106 385.468 364.726 385.721 364.404C385.974 364.082 386.289 363.833 386.667 363.658C387.045 363.478 387.482 363.389 387.979 363.389C388.329 363.389 388.652 363.439 388.946 363.541C389.241 363.637 389.497 363.791 389.713 364.003C389.929 364.215 390.097 364.487 390.217 364.818C390.337 365.15 390.397 365.55 390.397 366.02V371H389.119V366.082C389.119 365.691 389.052 365.378 388.919 365.143C388.79 364.908 388.606 364.738 388.366 364.632C388.127 364.521 387.846 364.466 387.524 364.466C387.146 364.466 386.831 364.533 386.577 364.666C386.324 364.8 386.121 364.984 385.969 365.219C385.817 365.454 385.707 365.723 385.638 366.027C385.573 366.326 385.541 366.644 385.541 366.98ZM390.383 366.276L389.527 366.538C389.531 366.128 389.598 365.735 389.727 365.357C389.86 364.979 390.051 364.643 390.3 364.349C390.553 364.054 390.864 363.821 391.233 363.651C391.601 363.476 392.022 363.389 392.497 363.389C392.897 363.389 393.252 363.442 393.56 363.547C393.873 363.653 394.136 363.817 394.348 364.038C394.564 364.254 394.727 364.533 394.838 364.874C394.948 365.214 395.004 365.619 395.004 366.089V371H393.719V366.075C393.719 365.656 393.652 365.332 393.519 365.101C393.39 364.867 393.206 364.703 392.966 364.611C392.731 364.514 392.45 364.466 392.124 364.466C391.843 364.466 391.594 364.514 391.378 364.611C391.161 364.708 390.979 364.841 390.832 365.012C390.685 365.177 390.572 365.369 390.493 365.585C390.42 365.801 390.383 366.032 390.383 366.276Z" fill="#637173"/>
<rect x="337" y="64" width="55" height="291" fill="#138DFD"/>
<path d="M53.3847 -0.384674C53.1722 -0.59714 52.8277 -0.59714 52.6153 -0.384674L49.1529 3.07766C48.9405 3.29013 48.9405 3.63461 49.1529 3.84707C49.3654 4.05954 49.7099 4.05954 49.9224 3.84707L53 0.769439L56.0776 3.84707C56.2901 4.05954 56.6346 4.05954 56.847 3.84707C57.0595 3.63461 57.0595 3.29013 56.847 3.07766L53.3847 -0.384674ZM53.5441 356L53.544 3.04938e-05L52.4559 3.05414e-05L52.4559 356L53.5441 356Z" fill="#637173"/>
<path d="M418.385 355.382C418.597 355.169 418.597 354.825 418.384 354.613L414.916 351.157C414.703 350.945 414.358 350.945 414.146 351.158C413.934 351.371 413.935 351.715 414.148 351.927L417.231 355L414.158 358.083C413.946 358.295 413.947 358.64 414.16 358.852C414.373 359.064 414.717 359.064 414.929 358.851L418.385 355.382ZM52.958 356.183L418.001 355.542L417.999 354.454L52.9561 355.095L52.958 356.183Z" fill="#637173"/>
</svg>
