<svg width="370" height="376" viewBox="0 0 370 376" fill="none" xmlns="http://www.w3.org/2000/svg">
<g clip-path="url(#clip0_3_3541)">
<line x1="54.9561" y1="313.747" x2="356.362" y2="313.747" stroke="#A1B9BC" stroke-width="1.08811" stroke-dasharray="2.18 2.18"/>
<line x1="54.9561" y1="272.399" x2="356.362" y2="272.399" stroke="#A1B9BC" stroke-width="1.08811" stroke-dasharray="2.18 2.18"/>
<line x1="54.9561" y1="231.05" x2="356.362" y2="231.05" stroke="#A1B9BC" stroke-width="1.08811" stroke-dasharray="2.18 2.18"/>
<line x1="54.9561" y1="189.703" x2="356.362" y2="189.703" stroke="#A1B9BC" stroke-width="1.08811" stroke-dasharray="2.18 2.18"/>
<line x1="54.9561" y1="148.354" x2="356.362" y2="148.354" stroke="#A1B9BC" stroke-width="1.08811" stroke-dasharray="2.18 2.18"/>
<line x1="54.9561" y1="105.919" x2="356.362" y2="105.919" stroke="#A1B9BC" stroke-width="1.08811" stroke-dasharray="2.18 2.18"/>
<line x1="54.9561" y1="64.5702" x2="356.362" y2="64.5702" stroke="#A1B9BC" stroke-width="1.08811" stroke-dasharray="2.18 2.18"/>
<line x1="54.9561" y1="64.5702" x2="356.362" y2="64.5702" stroke="#A1B9BC" stroke-width="1.08811" stroke-dasharray="2.18 2.18"/>
<line x1="54.9561" y1="23.4559" x2="356.362" y2="23.4559" stroke="#A1B9BC" stroke-width="1.08811" stroke-dasharray="2.18 2.18"/>
<path d="M52.0477 355.7C52.0477 357.145 51.776 358.237 51.2327 358.974C50.6939 359.706 49.872 360.072 48.7669 360.072C47.6802 360.072 46.8606 359.715 46.308 359.001C45.7601 358.283 45.4792 357.221 45.4654 355.817V354.077C45.4654 352.631 45.7347 351.546 46.2735 350.823C46.8168 350.1 47.6434 349.739 48.7531 349.739C49.8536 349.739 50.6732 350.091 51.2119 350.796C51.7553 351.5 52.0339 352.555 52.0477 353.959V355.7ZM50.3693 353.821C50.3693 352.877 50.2404 352.186 49.9825 351.749C49.7246 351.307 49.3148 351.086 48.7531 351.086C48.2051 351.086 47.8022 351.295 47.5444 351.714C47.2865 352.129 47.1507 352.778 47.1368 353.662V355.941C47.1368 356.881 47.2681 357.581 47.5305 358.041C47.793 358.502 48.2051 358.732 48.7669 358.732C49.3056 358.732 49.7039 358.52 49.9618 358.096C50.2196 357.668 50.3555 357 50.3693 356.093V353.821Z" fill="#637173"/>
<path d="M50.2649 308.409V318.5H48.6003V310.384L46.1345 311.22V309.846L50.0646 308.409H50.2649Z" fill="#637173"/>
<path d="M52.4613 276.174V277.5H45.7201V276.36L48.994 272.789C49.3531 272.384 49.6363 272.034 49.8435 271.74C50.0507 271.445 50.1958 271.18 50.2787 270.945C50.3662 270.706 50.4099 270.473 50.4099 270.248C50.4099 269.93 50.35 269.651 50.2303 269.412C50.1152 269.168 49.9448 268.977 49.7192 268.839C49.4936 268.696 49.2196 268.625 48.8973 268.625C48.5243 268.625 48.2112 268.705 47.9579 268.866C47.7047 269.027 47.5136 269.251 47.3847 269.536C47.2557 269.817 47.1913 270.14 47.1913 270.503H45.5267C45.5267 269.918 45.6602 269.384 45.9273 268.901C46.1944 268.413 46.5812 268.026 47.0877 267.741C47.5942 267.45 48.2043 267.305 48.918 267.305C49.5903 267.305 50.1613 267.418 50.6309 267.644C51.1006 267.869 51.4575 268.189 51.7015 268.604C51.9501 269.018 52.0745 269.509 52.0745 270.075C52.0745 270.388 52.0238 270.699 51.9225 271.007C51.8212 271.316 51.6762 271.625 51.4874 271.933C51.3032 272.237 51.0845 272.543 50.8312 272.852C50.578 273.156 50.2994 273.464 49.9955 273.777L47.8198 276.174H52.4613Z" fill="#637173"/>
<path d="M47.6748 229.719H48.6694C49.0561 229.719 49.3762 229.652 49.6294 229.519C49.8873 229.385 50.0784 229.201 50.2027 228.966C50.327 228.731 50.3892 228.462 50.3892 228.158C50.3892 227.84 50.3316 227.569 50.2165 227.343C50.106 227.113 49.9356 226.935 49.7054 226.811C49.4798 226.687 49.192 226.625 48.842 226.625C48.5473 226.625 48.2803 226.684 48.0408 226.804C47.806 226.919 47.6195 227.085 47.4814 227.301C47.3432 227.513 47.2742 227.767 47.2742 228.061H45.6027C45.6027 227.527 45.7431 227.053 46.024 226.638C46.3049 226.224 46.6871 225.899 47.1705 225.665C47.6586 225.425 48.2066 225.305 48.8144 225.305C49.4637 225.305 50.03 225.414 50.5135 225.63C51.0016 225.842 51.3815 226.16 51.6531 226.583C51.9248 227.007 52.0607 227.532 52.0607 228.158C52.0607 228.443 51.9939 228.734 51.8604 229.028C51.7268 229.323 51.5288 229.592 51.2664 229.836C51.0039 230.076 50.677 230.271 50.2856 230.423C49.8942 230.571 49.4406 230.644 48.9249 230.644H47.6748V229.719ZM47.6748 231.017V230.106H48.9249C49.5143 230.106 50.0162 230.175 50.4306 230.313C50.8496 230.451 51.1904 230.642 51.4528 230.886C51.7153 231.126 51.9064 231.4 52.0261 231.708C52.1504 232.017 52.2126 232.344 52.2126 232.689C52.2126 233.159 52.1274 233.578 51.9571 233.946C51.7913 234.31 51.5541 234.618 51.2456 234.871C50.9371 235.125 50.5757 235.316 50.1613 235.445C49.7514 235.574 49.3048 235.638 48.8213 235.638C48.3885 235.638 47.9741 235.578 47.5781 235.459C47.1821 235.339 46.8275 235.162 46.5144 234.927C46.2013 234.687 45.9526 234.39 45.7684 234.036C45.5889 233.677 45.4991 233.262 45.4991 232.792H47.1636C47.1636 233.092 47.2327 233.357 47.3708 233.587C47.5136 233.812 47.7116 233.99 47.9648 234.119C48.2227 234.248 48.5174 234.312 48.8489 234.312C49.1989 234.312 49.5005 234.25 49.7537 234.126C50.007 234.001 50.2004 233.817 50.3339 233.573C50.4721 233.329 50.5411 233.034 50.5411 232.689C50.5411 232.297 50.4652 231.98 50.3132 231.736C50.1613 231.492 49.9448 231.312 49.664 231.197C49.3831 231.077 49.0515 231.017 48.6694 231.017H47.6748Z" fill="#637173"/>
<path d="M52.6477 190.915V192.241H45.3955L45.3402 191.24L49.6778 184.444H51.0108L49.5673 186.916L47.0739 190.915H52.6477ZM51.3907 184.444V194.5H49.7261V184.444H51.3907Z" fill="#637173"/>
<path d="M47.4675 148.824L46.1414 148.499L46.6871 143.444H52.109V144.853H48.0684L47.7922 147.318C47.9487 147.226 48.1651 147.136 48.4414 147.049C48.7177 146.957 49.0331 146.911 49.3877 146.911C49.8619 146.911 50.2856 146.989 50.6585 147.146C51.0361 147.298 51.3562 147.521 51.6186 147.816C51.8811 148.106 52.0814 148.46 52.2195 148.879C52.3577 149.294 52.4267 149.761 52.4267 150.281C52.4267 150.746 52.3577 151.182 52.2195 151.587C52.086 151.992 51.8834 152.349 51.6117 152.657C51.34 152.966 50.997 153.208 50.5826 153.383C50.1728 153.553 49.687 153.638 49.1252 153.638C48.7062 153.638 48.3033 153.578 47.9165 153.459C47.5343 153.334 47.1913 153.152 46.8874 152.913C46.5835 152.669 46.3394 152.37 46.1552 152.015C45.971 151.656 45.8651 151.244 45.8375 150.779H47.4675C47.509 151.106 47.5988 151.384 47.7369 151.614C47.8797 151.84 48.0684 152.013 48.3033 152.132C48.5381 152.252 48.8098 152.312 49.1183 152.312C49.3992 152.312 49.6409 152.264 49.8435 152.167C50.0461 152.066 50.2142 151.923 50.3477 151.739C50.4859 151.55 50.5872 151.329 50.6516 151.076C50.7207 150.822 50.7552 150.542 50.7552 150.233C50.7552 149.938 50.7161 149.669 50.6378 149.425C50.5642 149.181 50.4513 148.969 50.2994 148.789C50.152 148.61 49.9656 148.472 49.7399 148.375C49.5143 148.274 49.2541 148.223 48.9594 148.223C48.5634 148.223 48.2595 148.281 48.0477 148.396C47.8405 148.511 47.6471 148.654 47.4675 148.824Z" fill="#637173"/>
<path d="M50.7483 100.381H50.9555V101.742H50.8381C50.2441 101.742 49.7307 101.834 49.2979 102.018C48.8697 102.202 48.5174 102.456 48.2411 102.778C47.9648 103.1 47.7576 103.478 47.6195 103.911C47.486 104.339 47.4192 104.795 47.4192 105.278V106.86C47.4192 107.261 47.4629 107.615 47.5504 107.924C47.6379 108.228 47.7599 108.483 47.9165 108.69C48.0777 108.893 48.2618 109.047 48.4691 109.153C48.6763 109.259 48.8996 109.312 49.139 109.312C49.3877 109.312 49.6133 109.261 49.8159 109.16C50.0185 109.054 50.1912 108.909 50.3339 108.725C50.4767 108.541 50.5849 108.322 50.6585 108.069C50.7322 107.816 50.7691 107.539 50.7691 107.24C50.7691 106.954 50.7322 106.687 50.6585 106.439C50.5895 106.185 50.4859 105.964 50.3477 105.776C50.2096 105.582 50.0369 105.433 49.8297 105.327C49.6271 105.216 49.3923 105.161 49.1252 105.161C48.7937 105.161 48.4921 105.239 48.2204 105.396C47.9533 105.552 47.7369 105.757 47.5712 106.01C47.41 106.259 47.3225 106.524 47.3087 106.805L46.6732 106.598C46.7101 106.169 46.8045 105.785 46.9564 105.444C47.113 105.103 47.3179 104.813 47.5712 104.574C47.8244 104.334 48.1168 104.153 48.4483 104.028C48.7845 103.899 49.1528 103.835 49.5534 103.835C50.0415 103.835 50.4652 103.927 50.8243 104.111C51.1835 104.295 51.4805 104.546 51.7153 104.864C51.9548 105.177 52.132 105.536 52.2471 105.941C52.3669 106.342 52.4267 106.761 52.4267 107.198C52.4267 107.682 52.3531 108.133 52.2057 108.552C52.0584 108.967 51.8419 109.33 51.5565 109.644C51.2756 109.957 50.9325 110.201 50.5273 110.376C50.1267 110.551 49.6709 110.638 49.1597 110.638C48.621 110.638 48.1398 110.535 47.7162 110.327C47.2972 110.12 46.9403 109.835 46.6456 109.471C46.3555 109.107 46.1345 108.688 45.9826 108.214C45.8306 107.74 45.7546 107.238 45.7546 106.708V106.017C45.7546 105.253 45.8513 104.532 46.0447 103.856C46.2381 103.174 46.5351 102.573 46.9357 102.053C47.3409 101.532 47.8589 101.125 48.4898 100.83C49.1206 100.531 49.8735 100.381 50.7483 100.381Z" fill="#637173"/>
<path d="M52.3991 59.4435V60.3552L48.3793 69.5H46.6249L50.6378 60.7696H45.43V59.4435H52.3991Z" fill="#637173"/>
<path d="M52.2955 26.2579C52.2955 26.8842 52.1504 27.4114 51.8604 27.8396C51.5703 28.2679 51.1743 28.5925 50.6724 28.8135C50.1751 29.0299 49.6133 29.1381 48.9871 29.1381C48.3608 29.1381 47.7968 29.0299 47.2949 28.8135C46.793 28.5925 46.397 28.2679 46.1069 27.8396C45.8168 27.4114 45.6717 26.8842 45.6717 26.2579C45.6717 25.8435 45.7523 25.4683 45.9135 25.1321C46.0746 24.7914 46.3026 24.499 46.5973 24.2549C46.8966 24.0063 47.2465 23.8152 47.6471 23.6817C48.0523 23.5481 48.4944 23.4814 48.9733 23.4814C49.6087 23.4814 50.1774 23.5988 50.6793 23.8336C51.1812 24.0684 51.5749 24.3931 51.8604 24.8075C52.1504 25.2219 52.2955 25.7054 52.2955 26.2579ZM50.624 26.1751C50.624 25.8389 50.5549 25.5442 50.4168 25.291C50.2787 25.0377 50.0853 24.842 49.8366 24.7039C49.588 24.5657 49.3002 24.4967 48.9733 24.4967C48.6417 24.4967 48.3539 24.5657 48.1099 24.7039C47.8658 24.842 47.6748 25.0377 47.5366 25.291C47.4031 25.5442 47.3363 25.8389 47.3363 26.1751C47.3363 26.5158 47.4031 26.8105 47.5366 27.0592C47.6701 27.3032 47.8612 27.4897 48.1099 27.6186C48.3585 27.7475 48.6509 27.812 48.9871 27.812C49.3232 27.812 49.6133 27.7475 49.8573 27.6186C50.1014 27.4897 50.2902 27.3032 50.4237 27.0592C50.5572 26.8105 50.624 26.5158 50.624 26.1751ZM52.0676 21.5889C52.0676 22.0908 51.934 22.5374 51.667 22.9288C51.4045 23.3202 51.0407 23.6287 50.5757 23.8543C50.1106 24.0754 49.5811 24.1859 48.9871 24.1859C48.3885 24.1859 47.8543 24.0754 47.3847 23.8543C46.9196 23.6287 46.5535 23.3202 46.2865 22.9288C46.024 22.5374 45.8928 22.0908 45.8928 21.5889C45.8928 20.9903 46.024 20.4861 46.2865 20.0762C46.5535 19.6618 46.9196 19.3464 47.3847 19.13C47.8497 18.9136 48.3816 18.8054 48.9802 18.8054C49.5788 18.8054 50.1106 18.9136 50.5757 19.13C51.0407 19.3464 51.4045 19.6618 51.667 20.0762C51.934 20.4861 52.0676 20.9903 52.0676 21.5889ZM50.403 21.6441C50.403 21.3448 50.3431 21.0824 50.2234 20.8567C50.1083 20.6265 49.9448 20.4469 49.733 20.318C49.5212 20.1891 49.2703 20.1246 48.9802 20.1246C48.6901 20.1246 48.4391 20.1868 48.2273 20.3111C48.0155 20.4354 47.852 20.6104 47.7369 20.836C47.6218 21.0616 47.5642 21.331 47.5642 21.6441C47.5642 21.9526 47.6218 22.222 47.7369 22.4522C47.852 22.6779 48.0155 22.8551 48.2273 22.9841C48.4437 23.113 48.697 23.1775 48.9871 23.1775C49.2772 23.1775 49.5281 23.113 49.7399 22.9841C49.9517 22.8551 50.1152 22.6779 50.2303 22.4522C50.3454 22.222 50.403 21.9526 50.403 21.6441Z" fill="#637173"/>
<path d="M13.3577 226.511L5.67031 224.418V221.703L15.7268 225.095V226.849L13.3577 226.511ZM5.67031 228.41L13.3577 226.317L15.7268 225.965V227.74L5.67031 231.111V228.41ZM12.0661 221.683H11.9211C11.3731 221.683 10.8689 221.604 10.4085 221.448C9.9434 221.291 9.5405 221.061 9.19975 220.757C8.85901 220.453 8.59425 220.078 8.40546 219.631C8.21206 219.185 8.11537 218.669 8.11537 218.084C8.11537 217.495 8.21206 216.977 8.40546 216.53C8.59425 216.079 8.85901 215.701 9.19975 215.397C9.5405 215.093 9.9434 214.863 10.4085 214.707C10.8689 214.55 11.3731 214.472 11.9211 214.472H12.0661C12.6095 214.472 13.1137 214.55 13.5788 214.707C14.0392 214.863 14.4421 215.093 14.7875 215.397C15.1282 215.701 15.393 216.077 15.5818 216.523C15.7706 216.97 15.8649 217.486 15.8649 218.07C15.8649 218.655 15.7706 219.173 15.5818 219.624C15.393 220.076 15.1282 220.453 14.7875 220.757C14.4421 221.061 14.0392 221.291 13.5788 221.448C13.1137 221.604 12.6095 221.683 12.0661 221.683ZM11.9211 219.355H12.0661C12.347 219.355 12.6095 219.334 12.8535 219.293C13.0976 219.251 13.3117 219.182 13.4959 219.086C13.6754 218.989 13.8159 218.858 13.9172 218.692C14.0185 218.526 14.0691 218.319 14.0691 218.07C14.0691 217.826 14.0185 217.624 13.9172 217.463C13.8159 217.297 13.6754 217.166 13.4959 217.069C13.3117 216.972 13.0976 216.903 12.8535 216.862C12.6095 216.82 12.347 216.799 12.0661 216.799H11.9211C11.6494 216.799 11.3939 216.82 11.1544 216.862C10.9104 216.903 10.6963 216.972 10.5121 217.069C10.3233 217.166 10.1759 217.297 10.07 217.463C9.96412 217.628 9.91117 217.836 9.91117 218.084C9.91117 218.328 9.96412 218.533 10.07 218.699C10.1759 218.86 10.3233 218.989 10.5121 219.086C10.6963 219.182 10.9104 219.251 11.1544 219.293C11.3939 219.334 11.6494 219.355 11.9211 219.355ZM8.2535 209.499H9.86973L9.86973 214.002H8.2535L8.2535 209.499ZM6.39554 213.056V210.728H13.2887C13.4867 210.728 13.6409 210.705 13.7514 210.659C13.8573 210.613 13.9333 210.535 13.9794 210.424C14.0208 210.309 14.0415 210.157 14.0415 209.969C14.0415 209.835 14.0392 209.724 14.0346 209.637C14.0254 209.549 14.0139 209.467 14.0001 209.388H15.6646C15.7291 209.586 15.7775 209.794 15.8097 210.01C15.8465 210.226 15.8649 210.457 15.8649 210.701C15.8649 211.198 15.7867 211.624 15.6301 211.978C15.4736 212.328 15.2272 212.595 14.8911 212.78C14.5549 212.964 14.1175 213.056 13.5788 213.056H6.39554ZM15.8649 204.954C15.8649 205.562 15.7706 206.105 15.5818 206.584C15.3884 207.063 15.1236 207.468 14.7875 207.8C14.4513 208.127 14.0645 208.378 13.6271 208.553C13.1897 208.723 12.7269 208.808 12.2388 208.808H11.9763C11.4284 208.808 10.9219 208.732 10.4568 208.58C9.98714 208.428 9.57733 208.203 9.22738 207.903C8.87743 207.604 8.60576 207.229 8.41236 206.778C8.21436 206.326 8.11537 205.801 8.11537 205.203C8.11537 204.673 8.20055 204.199 8.37092 203.78C8.54129 203.361 8.78534 203.006 9.10306 202.716C9.42078 202.422 9.80526 202.198 10.2565 202.046C10.7078 201.89 11.2143 201.811 11.776 201.811H12.7223V207.917H11.2649V204.084H11.0853C10.8367 204.079 10.6249 204.123 10.4499 204.215C10.2749 204.303 10.1414 204.431 10.0493 204.602C9.95721 204.772 9.91117 204.979 9.91117 205.223C9.91117 205.477 9.96642 205.686 10.0769 205.852C10.1874 206.013 10.3394 206.14 10.5328 206.232C10.7216 206.319 10.9403 206.382 11.189 206.418C11.4376 206.455 11.7001 206.474 11.9763 206.474H12.2388C12.5151 206.474 12.766 206.437 12.9917 206.363C13.2173 206.285 13.4107 206.174 13.5718 206.032C13.7284 205.884 13.8504 205.709 13.9379 205.507C14.0254 205.299 14.0691 205.065 14.0691 204.802C14.0691 204.484 14.0093 204.171 13.8896 203.863C13.7698 203.554 13.5718 203.289 13.2956 203.068L14.5526 202.012C14.769 202.164 14.9786 202.38 15.1812 202.661C15.3838 202.937 15.5495 203.269 15.6785 203.656C15.8028 204.042 15.8649 204.475 15.8649 204.954ZM13.6271 196.949C13.4982 196.949 13.3877 196.993 13.2956 197.08C13.1989 197.163 13.1114 197.31 13.0331 197.522C12.9502 197.734 12.8673 198.031 12.7845 198.413C12.7062 198.777 12.6026 199.12 12.4736 199.442C12.3447 199.76 12.1882 200.039 12.004 200.278C11.8198 200.518 11.6011 200.706 11.3478 200.844C11.0946 200.978 10.8045 201.045 10.4775 201.045C10.1598 201.045 9.86052 200.978 9.57964 200.844C9.29415 200.706 9.0432 200.506 8.82678 200.244C8.60576 199.976 8.43308 199.652 8.30876 199.27C8.17983 198.887 8.11537 198.452 8.11537 197.964C8.11537 197.292 8.21897 196.712 8.42618 196.224C8.62878 195.736 8.91427 195.36 9.28264 195.098C9.6464 194.831 10.0677 194.697 10.5466 194.697L10.5466 197.025C10.3578 197.025 10.1967 197.057 10.0631 197.122C9.92959 197.181 9.82828 197.28 9.75922 197.419C9.68554 197.557 9.6487 197.741 9.6487 197.971C9.6487 198.132 9.67863 198.28 9.73849 198.413C9.79835 198.542 9.88124 198.646 9.98714 198.724C10.0931 198.802 10.2174 198.841 10.3601 198.841C10.4614 198.841 10.5535 198.818 10.6364 198.772C10.7147 198.722 10.7883 198.646 10.8574 198.544C10.9219 198.443 10.9817 198.314 11.037 198.158C11.0876 198.001 11.1337 197.812 11.1751 197.591C11.2672 197.089 11.3985 196.62 11.5688 196.182C11.7392 195.745 11.9809 195.39 12.2941 195.119C12.6072 194.842 13.0285 194.704 13.558 194.704C13.8896 194.704 14.1958 194.78 14.4767 194.932C14.7529 195.084 14.997 195.303 15.2088 195.588C15.416 195.874 15.5772 196.217 15.6923 196.617C15.8074 197.018 15.8649 197.469 15.8649 197.971C15.8649 198.685 15.7383 199.288 15.4851 199.781C15.2272 200.273 14.9049 200.646 14.5181 200.9C14.1267 201.148 13.7307 201.273 13.3301 201.273V199.104C13.5603 199.095 13.7491 199.039 13.8965 198.938C14.0438 198.832 14.152 198.692 14.2211 198.517C14.2902 198.342 14.3247 198.139 14.3247 197.909C14.3247 197.697 14.2948 197.522 14.2349 197.384C14.175 197.241 14.0945 197.133 13.9932 197.059C13.8873 196.986 13.7652 196.949 13.6271 196.949Z" fill="#637173"/>
<path d="M89.3958 368.705H90.722C90.6529 369.34 90.471 369.909 90.1763 370.411C89.8816 370.913 89.4649 371.311 88.9262 371.606C88.3874 371.896 87.7152 372.041 86.9094 372.041C86.32 372.041 85.7835 371.93 85.3 371.709C84.8212 371.488 84.409 371.175 84.0637 370.77C83.7184 370.36 83.4513 369.87 83.2625 369.299C83.0783 368.723 82.9862 368.083 82.9862 367.379V366.377C82.9862 365.673 83.0783 365.035 83.2625 364.464C83.4513 363.888 83.7207 363.396 84.0706 362.986C84.4252 362.576 84.8511 362.261 85.3484 362.04C85.8457 361.819 86.4051 361.708 87.0268 361.708C87.7865 361.708 88.4289 361.851 88.9538 362.136C89.4787 362.422 89.8862 362.818 90.1763 363.324C90.471 363.826 90.6529 364.409 90.722 365.072H89.3958C89.3314 364.602 89.2117 364.199 89.0367 363.863C88.8617 363.522 88.6131 363.26 88.2907 363.076C87.9684 362.892 87.5471 362.799 87.0268 362.799C86.5801 362.799 86.1864 362.885 85.8457 363.055C85.5095 363.225 85.2264 363.467 84.9961 363.78C84.7705 364.093 84.6001 364.469 84.485 364.906C84.3699 365.344 84.3123 365.829 84.3123 366.363V367.379C84.3123 367.871 84.363 368.334 84.4643 368.767C84.5702 369.2 84.7291 369.58 84.9409 369.907C85.1527 370.234 85.4221 370.492 85.749 370.68C86.0759 370.864 86.4627 370.957 86.9094 370.957C87.4757 370.957 87.927 370.867 88.2631 370.687C88.5993 370.508 88.8525 370.25 89.0229 369.914C89.1979 369.577 89.3222 369.175 89.3958 368.705ZM96.7517 370.625V366.778C96.7517 366.483 96.6919 366.228 96.5722 366.011C96.457 365.79 96.2821 365.62 96.0472 365.5C95.8124 365.38 95.5223 365.321 95.177 365.321C94.8546 365.321 94.5714 365.376 94.3274 365.486C94.088 365.597 93.8992 365.742 93.761 365.921C93.6275 366.101 93.5607 366.294 93.5607 366.502H92.2829C92.2829 366.235 92.352 365.97 92.4902 365.707C92.6283 365.445 92.8263 365.208 93.0842 364.996C93.3466 364.779 93.6597 364.609 94.0235 364.485C94.3919 364.356 94.8017 364.291 95.2529 364.291C95.7963 364.291 96.2752 364.383 96.6896 364.568C97.1086 364.752 97.4355 365.03 97.6704 365.403C97.9098 365.772 98.0295 366.235 98.0295 366.792V370.273C98.0295 370.521 98.0502 370.786 98.0917 371.067C98.1377 371.348 98.2045 371.59 98.292 371.792V371.903H96.9589C96.8945 371.755 96.8438 371.56 96.807 371.316C96.7702 371.067 96.7517 370.837 96.7517 370.625ZM96.9728 367.372L96.9866 368.27H95.695C95.3312 368.27 95.0066 368.3 94.7211 368.36C94.4356 368.415 94.1962 368.5 94.0028 368.615C93.8094 368.73 93.662 368.875 93.5607 369.05C93.4594 369.221 93.4088 369.421 93.4088 369.651C93.4088 369.886 93.4617 370.1 93.5676 370.294C93.6735 370.487 93.8324 370.641 94.0442 370.756C94.2606 370.867 94.5254 370.922 94.8385 370.922C95.2299 370.922 95.5753 370.839 95.8746 370.673C96.1739 370.508 96.411 370.305 96.586 370.066C96.7655 369.826 96.8622 369.594 96.8761 369.368L97.4217 369.983C97.3895 370.176 97.302 370.39 97.1592 370.625C97.0165 370.86 96.8254 371.086 96.586 371.302C96.3511 371.514 96.0703 371.691 95.7433 371.834C95.421 371.972 95.0572 372.041 94.652 372.041C94.1455 372.041 93.7012 371.942 93.319 371.744C92.9414 371.546 92.6467 371.281 92.4349 370.95C92.2277 370.614 92.1241 370.238 92.1241 369.824C92.1241 369.423 92.2024 369.071 92.3589 368.767C92.5155 368.459 92.7411 368.203 93.0358 368C93.3305 367.793 93.6851 367.637 94.0995 367.531C94.5139 367.425 94.9767 367.372 95.4878 367.372H96.9728ZM103.168 364.43V365.41H99.1277V364.43H103.168ZM100.495 362.613H101.773V370.052C101.773 370.305 101.812 370.496 101.89 370.625C101.969 370.754 102.07 370.839 102.194 370.881C102.319 370.922 102.452 370.943 102.595 370.943C102.701 370.943 102.811 370.934 102.927 370.915C103.046 370.892 103.136 370.874 103.196 370.86L103.203 371.903C103.102 371.935 102.968 371.965 102.802 371.993C102.641 372.025 102.445 372.041 102.215 372.041C101.902 372.041 101.614 371.979 101.352 371.854C101.089 371.73 100.88 371.523 100.723 371.233C100.571 370.938 100.495 370.542 100.495 370.045V362.613Z" fill="#637173"/>
<path d="M161.742 371.5H159.642L159.656 370.416H161.742C162.46 370.416 163.059 370.266 163.538 369.967C164.017 369.663 164.376 369.239 164.615 368.696C164.859 368.148 164.981 367.508 164.981 366.776V366.161C164.981 365.585 164.912 365.074 164.774 364.628C164.636 364.176 164.433 363.796 164.166 363.488C163.899 363.175 163.572 362.938 163.186 362.777C162.803 362.615 162.364 362.535 161.866 362.535H159.601V361.444H161.866C162.525 361.444 163.126 361.554 163.669 361.775C164.212 361.991 164.68 362.307 165.071 362.721C165.467 363.131 165.771 363.628 165.983 364.213C166.195 364.793 166.301 365.447 166.301 366.175V366.776C166.301 367.503 166.195 368.159 165.983 368.744C165.771 369.324 165.465 369.819 165.064 370.229C164.668 370.639 164.189 370.954 163.628 371.175C163.07 371.392 162.442 371.5 161.742 371.5ZM160.354 361.444V371.5H159.021V361.444H160.354ZM167.772 367.846V367.687C167.772 367.149 167.85 366.649 168.007 366.189C168.163 365.724 168.389 365.321 168.683 364.98C168.978 364.635 169.335 364.367 169.754 364.179C170.173 363.985 170.643 363.889 171.163 363.889C171.688 363.889 172.16 363.985 172.579 364.179C173.003 364.367 173.362 364.635 173.656 364.98C173.956 365.321 174.184 365.724 174.34 366.189C174.497 366.649 174.575 367.149 174.575 367.687V367.846C174.575 368.385 174.497 368.885 174.34 369.345C174.184 369.805 173.956 370.208 173.656 370.554C173.362 370.894 173.005 371.162 172.586 371.355C172.171 371.544 171.702 371.638 171.177 371.638C170.652 371.638 170.18 371.544 169.761 371.355C169.342 371.162 168.983 370.894 168.683 370.554C168.389 370.208 168.163 369.805 168.007 369.345C167.85 368.885 167.772 368.385 167.772 367.846ZM169.05 367.687V367.846C169.05 368.219 169.093 368.571 169.181 368.903C169.268 369.23 169.399 369.52 169.574 369.773C169.754 370.027 169.977 370.227 170.244 370.374C170.512 370.517 170.822 370.588 171.177 370.588C171.527 370.588 171.833 370.517 172.096 370.374C172.363 370.227 172.584 370.027 172.759 369.773C172.934 369.52 173.065 369.23 173.152 368.903C173.244 368.571 173.29 368.219 173.29 367.846V367.687C173.29 367.319 173.244 366.971 173.152 366.644C173.065 366.313 172.931 366.02 172.752 365.767C172.577 365.509 172.356 365.307 172.089 365.159C171.826 365.012 171.518 364.938 171.163 364.938C170.813 364.938 170.505 365.012 170.238 365.159C169.975 365.307 169.754 365.509 169.574 365.767C169.399 366.02 169.268 366.313 169.181 366.644C169.093 366.971 169.05 367.319 169.05 367.687ZM181.019 364.027H182.18V371.341C182.18 372 182.046 372.561 181.779 373.026C181.512 373.491 181.139 373.844 180.66 374.083C180.186 374.327 179.638 374.449 179.016 374.449C178.758 374.449 178.454 374.408 178.105 374.325C177.759 374.247 177.418 374.111 177.082 373.917C176.751 373.729 176.472 373.473 176.247 373.151L176.917 372.391C177.23 372.769 177.557 373.031 177.897 373.178C178.243 373.326 178.583 373.399 178.92 373.399C179.325 373.399 179.675 373.323 179.969 373.171C180.264 373.02 180.492 372.794 180.653 372.495C180.819 372.2 180.902 371.836 180.902 371.403V365.671L181.019 364.027ZM175.874 367.846V367.701C175.874 367.13 175.94 366.612 176.074 366.147C176.212 365.677 176.408 365.275 176.661 364.938C176.919 364.602 177.23 364.344 177.593 364.165C177.957 363.981 178.367 363.889 178.823 363.889C179.293 363.889 179.702 363.971 180.052 364.137C180.407 364.298 180.706 364.536 180.95 364.849C181.199 365.157 181.395 365.53 181.537 365.968C181.68 366.405 181.779 366.9 181.834 367.453V368.088C181.784 368.636 181.685 369.129 181.537 369.566C181.395 370.003 181.199 370.376 180.95 370.685C180.706 370.993 180.407 371.231 180.052 371.396C179.698 371.558 179.283 371.638 178.809 371.638C178.362 371.638 177.957 371.544 177.593 371.355C177.234 371.166 176.926 370.901 176.668 370.561C176.41 370.22 176.212 369.819 176.074 369.359C175.94 368.894 175.874 368.39 175.874 367.846ZM177.151 367.701V367.846C177.151 368.219 177.188 368.569 177.262 368.896C177.34 369.223 177.458 369.511 177.614 369.759C177.775 370.008 177.98 370.204 178.229 370.347C178.478 370.485 178.775 370.554 179.12 370.554C179.543 370.554 179.893 370.464 180.17 370.284C180.446 370.105 180.665 369.868 180.826 369.573C180.992 369.278 181.121 368.958 181.213 368.613V366.948C181.162 366.695 181.084 366.451 180.978 366.216C180.877 365.977 180.743 365.765 180.577 365.581C180.416 365.392 180.216 365.242 179.976 365.132C179.737 365.021 179.456 364.966 179.134 364.966C178.784 364.966 178.482 365.04 178.229 365.187C177.98 365.33 177.775 365.528 177.614 365.781C177.458 366.03 177.34 366.32 177.262 366.651C177.188 366.978 177.151 367.328 177.151 367.701Z" fill="#637173"/>
<path d="M240.723 367.556H238.036V366.472H240.723C241.243 366.472 241.665 366.389 241.987 366.223C242.309 366.057 242.544 365.827 242.692 365.532C242.844 365.238 242.92 364.902 242.92 364.524C242.92 364.179 242.844 363.854 242.692 363.55C242.544 363.246 242.309 363.002 241.987 362.818C241.665 362.629 241.243 362.535 240.723 362.535H238.347V371.5H237.014V361.444H240.723C241.483 361.444 242.125 361.575 242.65 361.837C243.175 362.1 243.573 362.463 243.845 362.928C244.117 363.389 244.253 363.916 244.253 364.51C244.253 365.155 244.117 365.705 243.845 366.161C243.573 366.617 243.175 366.964 242.65 367.204C242.125 367.439 241.483 367.556 240.723 367.556ZM247.133 364.027V371.5H245.848V364.027H247.133ZM245.751 362.044C245.751 361.837 245.814 361.662 245.938 361.519C246.067 361.377 246.256 361.305 246.504 361.305C246.748 361.305 246.935 361.377 247.064 361.519C247.197 361.662 247.264 361.837 247.264 362.044C247.264 362.242 247.197 362.413 247.064 362.556C246.935 362.694 246.748 362.763 246.504 362.763C246.256 362.763 246.067 362.694 245.938 362.556C245.814 362.413 245.751 362.242 245.751 362.044ZM254.026 364.027H255.186V371.341C255.186 372 255.053 372.561 254.786 373.026C254.519 373.491 254.146 373.844 253.667 374.083C253.192 374.327 252.644 374.449 252.023 374.449C251.765 374.449 251.461 374.408 251.111 374.325C250.766 374.247 250.425 374.111 250.089 373.917C249.757 373.729 249.479 373.473 249.253 373.151L249.923 372.391C250.236 372.769 250.563 373.031 250.904 373.178C251.249 373.326 251.59 373.399 251.926 373.399C252.331 373.399 252.681 373.323 252.976 373.171C253.271 373.02 253.499 372.794 253.66 372.495C253.826 372.2 253.908 371.836 253.908 371.403V365.671L254.026 364.027ZM248.88 367.846V367.701C248.88 367.13 248.947 366.612 249.08 366.147C249.219 365.677 249.414 365.275 249.668 364.938C249.925 364.602 250.236 364.344 250.6 364.165C250.964 363.981 251.374 363.889 251.829 363.889C252.299 363.889 252.709 363.971 253.059 364.137C253.413 364.298 253.713 364.536 253.957 364.849C254.205 365.157 254.401 365.53 254.544 365.968C254.687 366.405 254.786 366.9 254.841 367.453V368.088C254.79 368.636 254.691 369.129 254.544 369.566C254.401 370.003 254.205 370.376 253.957 370.685C253.713 370.993 253.413 371.231 253.059 371.396C252.704 371.558 252.29 371.638 251.816 371.638C251.369 371.638 250.964 371.544 250.6 371.355C250.241 371.166 249.932 370.901 249.674 370.561C249.417 370.22 249.219 369.819 249.08 369.359C248.947 368.894 248.88 368.39 248.88 367.846ZM250.158 367.701V367.846C250.158 368.219 250.195 368.569 250.268 368.896C250.347 369.223 250.464 369.511 250.621 369.759C250.782 370.008 250.987 370.204 251.235 370.347C251.484 370.485 251.781 370.554 252.126 370.554C252.55 370.554 252.9 370.464 253.176 370.284C253.453 370.105 253.671 369.868 253.832 369.573C253.998 369.278 254.127 368.958 254.219 368.613V366.948C254.169 366.695 254.09 366.451 253.984 366.216C253.883 365.977 253.75 365.765 253.584 365.581C253.423 365.392 253.222 365.242 252.983 365.132C252.743 365.021 252.463 364.966 252.14 364.966C251.79 364.966 251.489 365.04 251.235 365.187C250.987 365.33 250.782 365.528 250.621 365.781C250.464 366.03 250.347 366.32 250.268 366.651C250.195 366.978 250.158 367.328 250.158 367.701Z" fill="#637173"/>
<rect x="67" y="232" width="52" height="124" fill="#B5D94A"/>
<rect x="143" y="314.5" width="52" height="41" fill="#87D7E3"/>
<rect x="222" y="150" width="51" height="205" fill="#D634FF" stroke="#D634FF" stroke-width="2" stroke-dasharray="4 4"/>
<path d="M303.985 361.444H307.314C308.07 361.444 308.707 361.559 309.228 361.789C309.752 362.019 310.151 362.36 310.422 362.811C310.699 363.258 310.837 363.808 310.837 364.462C310.837 364.922 310.742 365.344 310.554 365.726C310.37 366.103 310.102 366.426 309.752 366.693C309.407 366.955 308.993 367.151 308.509 367.28L308.136 367.425H305.007L304.994 366.341H307.356C307.835 366.341 308.233 366.258 308.551 366.092C308.868 365.921 309.108 365.694 309.269 365.408C309.43 365.123 309.511 364.807 309.511 364.462C309.511 364.075 309.435 363.737 309.283 363.447C309.131 363.156 308.891 362.933 308.565 362.777C308.242 362.615 307.825 362.535 307.314 362.535H305.318V371.5H303.985V361.444ZM309.863 371.5L307.418 366.941L308.806 366.935L311.286 371.417V371.5H309.863ZM316.915 370.222V366.375C316.915 366.08 316.855 365.825 316.735 365.608C316.62 365.387 316.445 365.217 316.21 365.097C315.976 364.978 315.686 364.918 315.34 364.918C315.018 364.918 314.735 364.973 314.491 365.083C314.251 365.194 314.062 365.339 313.924 365.519C313.791 365.698 313.724 365.892 313.724 366.099H312.446C312.446 365.832 312.515 365.567 312.653 365.304C312.792 365.042 312.99 364.805 313.247 364.593C313.51 364.377 313.823 364.206 314.187 364.082C314.555 363.953 314.965 363.889 315.416 363.889C315.96 363.889 316.438 363.981 316.853 364.165C317.272 364.349 317.599 364.628 317.834 365.001C318.073 365.369 318.193 365.832 318.193 366.389V369.87C318.193 370.119 318.213 370.383 318.255 370.664C318.301 370.945 318.368 371.187 318.455 371.389V371.5H317.122C317.058 371.353 317.007 371.157 316.97 370.913C316.933 370.664 316.915 370.434 316.915 370.222ZM317.136 366.969L317.15 367.867H315.858C315.494 367.867 315.17 367.897 314.884 367.957C314.599 368.012 314.359 368.097 314.166 368.212C313.973 368.327 313.825 368.472 313.724 368.647C313.623 368.818 313.572 369.018 313.572 369.248C313.572 369.483 313.625 369.697 313.731 369.891C313.837 370.084 313.996 370.238 314.207 370.353C314.424 370.464 314.689 370.519 315.002 370.519C315.393 370.519 315.739 370.436 316.038 370.271C316.337 370.105 316.574 369.902 316.749 369.663C316.929 369.423 317.026 369.191 317.039 368.965L317.585 369.58C317.553 369.773 317.465 369.987 317.322 370.222C317.18 370.457 316.989 370.683 316.749 370.899C316.514 371.111 316.234 371.288 315.907 371.431C315.584 371.569 315.22 371.638 314.815 371.638C314.309 371.638 313.864 371.539 313.482 371.341C313.105 371.143 312.81 370.878 312.598 370.547C312.391 370.211 312.287 369.835 312.287 369.421C312.287 369.02 312.366 368.668 312.522 368.364C312.679 368.056 312.904 367.8 313.199 367.598C313.494 367.39 313.848 367.234 314.263 367.128C314.677 367.022 315.14 366.969 315.651 366.969H317.136ZM320.196 360.891H321.48V370.05L321.37 371.5H320.196V360.891ZM326.529 367.701V367.846C326.529 368.39 326.465 368.894 326.336 369.359C326.207 369.819 326.018 370.22 325.77 370.561C325.521 370.901 325.217 371.166 324.858 371.355C324.499 371.544 324.087 371.638 323.622 371.638C323.147 371.638 322.731 371.558 322.371 371.396C322.017 371.231 321.718 370.993 321.474 370.685C321.23 370.376 321.034 370.003 320.886 369.566C320.744 369.129 320.645 368.636 320.589 368.088V367.453C320.645 366.9 320.744 366.405 320.886 365.968C321.034 365.53 321.23 365.157 321.474 364.849C321.718 364.536 322.017 364.298 322.371 364.137C322.726 363.971 323.138 363.889 323.608 363.889C324.077 363.889 324.494 363.981 324.858 364.165C325.222 364.344 325.526 364.602 325.77 364.938C326.018 365.275 326.207 365.677 326.336 366.147C326.465 366.612 326.529 367.13 326.529 367.701ZM325.245 367.846V367.701C325.245 367.328 325.21 366.978 325.141 366.651C325.072 366.32 324.962 366.03 324.81 365.781C324.658 365.528 324.457 365.33 324.209 365.187C323.96 365.04 323.654 364.966 323.29 364.966C322.968 364.966 322.687 365.021 322.447 365.132C322.213 365.242 322.012 365.392 321.847 365.581C321.681 365.765 321.545 365.977 321.439 366.216C321.338 366.451 321.262 366.695 321.211 366.948V368.613C321.285 368.935 321.404 369.246 321.57 369.545C321.741 369.84 321.966 370.082 322.247 370.271C322.533 370.459 322.885 370.554 323.304 370.554C323.649 370.554 323.944 370.485 324.188 370.347C324.437 370.204 324.637 370.008 324.789 369.759C324.945 369.511 325.061 369.223 325.134 368.896C325.208 368.569 325.245 368.219 325.245 367.846ZM328.139 360.891H329.423V370.05L329.313 371.5H328.139V360.891ZM334.472 367.701V367.846C334.472 368.39 334.408 368.894 334.279 369.359C334.15 369.819 333.961 370.22 333.713 370.561C333.464 370.901 333.16 371.166 332.801 371.355C332.442 371.544 332.03 371.638 331.565 371.638C331.09 371.638 330.674 371.558 330.314 371.396C329.96 371.231 329.661 370.993 329.417 370.685C329.172 370.376 328.977 370.003 328.829 369.566C328.687 369.129 328.588 368.636 328.532 368.088V367.453C328.588 366.9 328.687 366.405 328.829 365.968C328.977 365.53 329.172 365.157 329.417 364.849C329.661 364.536 329.96 364.298 330.314 364.137C330.669 363.971 331.081 363.889 331.551 363.889C332.02 363.889 332.437 363.981 332.801 364.165C333.165 364.344 333.469 364.602 333.713 364.938C333.961 365.275 334.15 365.677 334.279 366.147C334.408 366.612 334.472 367.13 334.472 367.701ZM333.188 367.846V367.701C333.188 367.328 333.153 366.978 333.084 366.651C333.015 366.32 332.905 366.03 332.753 365.781C332.601 365.528 332.4 365.33 332.152 365.187C331.903 365.04 331.597 364.966 331.233 364.966C330.911 364.966 330.63 365.021 330.39 365.132C330.156 365.242 329.955 365.392 329.79 365.581C329.624 365.765 329.488 365.977 329.382 366.216C329.281 366.451 329.205 366.695 329.154 366.948V368.613C329.228 368.935 329.347 369.246 329.513 369.545C329.684 369.84 329.909 370.082 330.19 370.271C330.476 370.459 330.828 370.554 331.247 370.554C331.592 370.554 331.887 370.485 332.131 370.347C332.38 370.204 332.58 370.008 332.732 369.759C332.888 369.511 333.004 369.223 333.077 368.896C333.151 368.569 333.188 368.219 333.188 367.846ZM337.477 364.027V371.5H336.192V364.027H337.477ZM336.096 362.044C336.096 361.837 336.158 361.662 336.282 361.519C336.411 361.377 336.6 361.305 336.848 361.305C337.092 361.305 337.279 361.377 337.408 361.519C337.541 361.662 337.608 361.837 337.608 362.044C337.608 362.242 337.541 362.413 337.408 362.556C337.279 362.694 337.092 362.763 336.848 362.763C336.6 362.763 336.411 362.694 336.282 362.556C336.158 362.413 336.096 362.242 336.096 362.044ZM342.657 364.027V365.007H338.617V364.027H342.657ZM339.984 362.21H341.262V369.649C341.262 369.902 341.301 370.093 341.379 370.222C341.458 370.351 341.559 370.436 341.683 370.478C341.808 370.519 341.941 370.54 342.084 370.54C342.19 370.54 342.3 370.531 342.415 370.512C342.535 370.489 342.625 370.471 342.685 370.457L342.692 371.5C342.59 371.532 342.457 371.562 342.291 371.59C342.13 371.622 341.934 371.638 341.704 371.638C341.391 371.638 341.103 371.576 340.841 371.452C340.578 371.327 340.369 371.12 340.212 370.83C340.06 370.535 339.984 370.139 339.984 369.642V362.21Z" fill="#637173"/>
<rect x="298" y="65" width="53" height="291" fill="#138DFD"/>
<path d="M55.3847 -0.384674C55.1722 -0.597137 54.8277 -0.597137 54.6153 -0.384674L51.1529 3.07767C50.9405 3.29013 50.9405 3.63461 51.1529 3.84708C51.3654 4.05954 51.7099 4.05954 51.9224 3.84708L55 0.76944L58.0776 3.84708C58.2901 4.05954 58.6346 4.05954 58.847 3.84708C59.0595 3.63461 59.0595 3.29013 58.847 3.07767L55.3847 -0.384674ZM55.5441 356L55.544 3.04938e-05L54.4559 3.05414e-05L54.4559 356L55.5441 356Z" fill="#637173"/>
<path d="M369.804 356.024C370.016 355.811 370.016 355.467 369.804 355.254L366.342 351.792C366.129 351.58 365.785 351.58 365.572 351.792C365.36 352.005 365.36 352.349 365.572 352.562L368.65 355.639L365.572 358.717C365.36 358.929 365.36 359.274 365.572 359.486C365.785 359.699 366.129 359.699 366.342 359.486L369.804 356.024ZM54.9561 356.183L369.419 356.183L369.419 355.095L54.9561 355.095L54.9561 356.183Z" fill="#637173"/>
</g>
<defs>
<clipPath id="clip0_3_3541">
<rect width="370" height="376" rx="5.44054" fill="white"/>
</clipPath>
</defs>
</svg>
