<svg width="69" height="293" viewBox="0 0 69 293" fill="none" xmlns="http://www.w3.org/2000/svg">
<rect opacity="0.4" x="0.5" y="0.5" width="68" height="292" fill="#FFE6F2" stroke="#A1B9BC" stroke-dasharray="4 4"/>
<rect y="210" width="69" height="83" fill="#EA368C"/>
<path d="M35 194.25L35.6163 193.462L35 192.98L34.3837 193.462L35 194.25ZM41.3837 200.516C41.8186 200.856 42.4471 200.779 42.7875 200.345C43.1279 199.91 43.0512 199.281 42.6163 198.941L41.3837 200.516ZM27.3837 198.941C26.9488 199.281 26.8721 199.91 27.2125 200.345C27.5529 200.779 28.1814 200.856 28.6163 200.516L27.3837 198.941ZM34.3837 195.038L41.3837 200.516L42.6163 198.941L35.6163 193.462L34.3837 195.038ZM34.3837 193.462L27.3837 198.941L28.6163 200.516L35.6163 195.038L34.3837 193.462Z" fill="#A1B9BC"/>
<path d="M35 199.271L35.6163 198.484L35 198.002L34.3837 198.484L35 199.271ZM41.3837 205.537C41.8186 205.878 42.4471 205.801 42.7875 205.366C43.1279 204.931 43.0512 204.303 42.6163 203.962L41.3837 205.537ZM27.3837 203.962C26.9488 204.303 26.8721 204.931 27.2125 205.366C27.5529 205.801 28.1814 205.878 28.6163 205.537L27.3837 203.962ZM34.3837 200.059L41.3837 205.537L42.6163 203.962L35.6163 198.484L34.3837 200.059ZM34.3837 198.484L27.3837 203.962L28.6163 205.537L35.6163 200.059L34.3837 198.484Z" fill="#A1B9BC"/>
<path d="M35 226.75L35.6163 227.538L35 228.02L34.3837 227.538L35 226.75ZM41.3837 220.484C41.8186 220.144 42.4471 220.221 42.7875 220.655C43.1279 221.09 43.0512 221.719 42.6163 222.059L41.3837 220.484ZM27.3837 222.059C26.9488 221.719 26.8721 221.09 27.2125 220.655C27.5529 220.221 28.1814 220.144 28.6163 220.484L27.3837 222.059ZM34.3837 225.962L41.3837 220.484L42.6163 222.059L35.6163 227.538L34.3837 225.962ZM34.3837 227.538L27.3837 222.059L28.6163 220.484L35.6163 225.962L34.3837 227.538Z" fill="#FFF5FA"/>
<path d="M35 221.729L35.6163 222.516L35 222.998L34.3837 222.516L35 221.729ZM41.3837 215.463C41.8186 215.122 42.4471 215.199 42.7875 215.634C43.1279 216.069 43.0512 216.697 42.6163 217.038L41.3837 215.463ZM27.3837 217.038C26.9488 216.697 26.8721 216.069 27.2125 215.634C27.5529 215.199 28.1814 215.122 28.6163 215.463L27.3837 217.038ZM34.3837 220.941L41.3837 215.463L42.6163 217.038L35.6163 222.516L34.3837 220.941ZM34.3837 222.516L27.3837 217.038L28.6163 215.463L35.6163 220.941L34.3837 222.516Z" fill="#FFF5FA"/>
</svg>
