<svg width="491" height="371" viewBox="0 0 491 371" fill="none" xmlns="http://www.w3.org/2000/svg">
<g clip-path="url(#clip0_6429_126717)">
<line x1="54.957" y1="274.837" x2="490.957" y2="274.837" stroke="#A1B9BC" stroke-width="1.08811" stroke-dasharray="2.18 2.18"/>
<line x1="54.957" y1="233.899" x2="490.957" y2="233.899" stroke="#A1B9BC" stroke-width="1.08811" stroke-dasharray="2.18 2.18"/>
<line x1="54.957" y1="192.55" x2="490.957" y2="192.55" stroke="#A1B9BC" stroke-width="1.08811" stroke-dasharray="2.18 2.18"/>
<line x1="54.957" y1="151.204" x2="490.957" y2="151.204" stroke="#A1B9BC" stroke-width="1.08811" stroke-dasharray="2.18 2.18"/>
<line x1="54.957" y1="109.854" x2="490.957" y2="109.854" stroke="#A1B9BC" stroke-width="1.08811" stroke-dasharray="2.18 2.18"/>
<line x1="54.957" y1="67.4188" x2="490.957" y2="67.4188" stroke="#A1B9BC" stroke-width="1.08811" stroke-dasharray="2.18 2.18"/>
<line x1="54.957" y1="26.0692" x2="490.957" y2="26.0692" stroke="#A1B9BC" stroke-width="1.08811" stroke-dasharray="2.18 2.18"/>
<path d="M52.0469 317.2C52.0469 318.645 51.7753 319.737 51.2319 320.474C50.6932 321.206 49.8713 321.572 48.7662 321.572C47.6795 321.572 46.8598 321.215 46.3073 320.501C45.7593 319.783 45.4785 318.721 45.4646 317.317V315.577C45.4646 314.131 45.734 313.046 46.2727 312.323C46.8161 311.6 47.6426 311.239 48.7523 311.239C49.8528 311.239 50.6725 311.591 51.2112 312.296C51.7546 313 52.0331 314.055 52.0469 315.459V317.2ZM50.3686 315.321C50.3686 314.377 50.2396 313.686 49.9818 313.249C49.7239 312.807 49.3141 312.586 48.7523 312.586C48.2044 312.586 47.8015 312.795 47.5436 313.214C47.2858 313.629 47.1499 314.278 47.1361 315.162V317.441C47.1361 318.381 47.2673 319.081 47.5298 319.541C47.7923 320.002 48.2044 320.232 48.7662 320.232C49.3049 320.232 49.7032 320.02 49.9611 319.596C50.2189 319.168 50.3547 318.5 50.3686 317.593V315.321Z" fill="#637173"/>
<path d="M31.3045 269.909V280H29.64V271.884L27.1742 272.72V271.346L31.1042 269.909H31.3045ZM41.3541 274.129V275.773C41.3541 276.56 41.2758 277.233 41.1193 277.79C40.9673 278.342 40.7463 278.791 40.4562 279.137C40.1661 279.482 39.8185 279.735 39.4133 279.896C39.0127 280.058 38.5637 280.138 38.0664 280.138C37.6704 280.138 37.302 280.087 36.9613 279.986C36.6252 279.885 36.3213 279.726 36.0496 279.51C35.7779 279.293 35.5454 279.015 35.352 278.674C35.1632 278.329 35.0159 277.916 34.9099 277.438C34.8086 276.959 34.758 276.404 34.758 275.773V274.129C34.758 273.337 34.8363 272.669 34.9928 272.126C35.1494 271.578 35.3727 271.134 35.6628 270.793C35.9529 270.448 36.2982 270.197 36.6988 270.04C37.104 269.884 37.5553 269.805 38.0526 269.805C38.4532 269.805 38.8216 269.856 39.1577 269.957C39.4985 270.054 39.8024 270.208 40.0694 270.42C40.3411 270.632 40.5713 270.908 40.7601 271.249C40.9535 271.585 41.1009 271.993 41.2022 272.471C41.3035 272.946 41.3541 273.498 41.3541 274.129ZM39.6895 276.008V273.88C39.6895 273.48 39.6665 273.128 39.6205 272.824C39.5744 272.515 39.5054 272.255 39.4133 272.043C39.3258 271.827 39.2153 271.652 39.0817 271.518C38.9482 271.38 38.7962 271.281 38.6259 271.221C38.4555 271.157 38.2644 271.125 38.0526 271.125C37.7947 271.125 37.5645 271.175 37.3619 271.277C37.1593 271.373 36.9889 271.53 36.8508 271.746C36.7127 271.963 36.6067 272.248 36.5331 272.603C36.464 272.953 36.4295 273.379 36.4295 273.88V276.008C36.4295 276.413 36.4525 276.77 36.4985 277.078C36.5446 277.387 36.6137 277.652 36.7057 277.873C36.7978 278.089 36.9084 278.269 37.0373 278.411C37.1708 278.55 37.3228 278.651 37.4931 278.715C37.6681 278.78 37.8592 278.812 38.0664 278.812C38.3289 278.812 38.5614 278.761 38.764 278.66C38.9666 278.559 39.137 278.398 39.2751 278.177C39.4133 277.951 39.5169 277.659 39.5859 277.299C39.655 276.94 39.6895 276.51 39.6895 276.008ZM49.3938 274.129V275.773C49.3938 276.56 49.3155 277.233 49.1589 277.79C49.007 278.342 48.786 278.791 48.4959 279.137C48.2058 279.482 47.8581 279.735 47.4529 279.896C47.0523 280.058 46.6034 280.138 46.1061 280.138C45.7101 280.138 45.3417 280.087 45.001 279.986C44.6648 279.885 44.3609 279.726 44.0893 279.51C43.8176 279.293 43.5851 279.015 43.3917 278.674C43.2029 278.329 43.0555 277.916 42.9496 277.438C42.8483 276.959 42.7977 276.404 42.7977 275.773V274.129C42.7977 273.337 42.8759 272.669 43.0325 272.126C43.1891 271.578 43.4124 271.134 43.7025 270.793C43.9926 270.448 44.3379 270.197 44.7385 270.04C45.1437 269.884 45.595 269.805 46.0923 269.805C46.4929 269.805 46.8612 269.856 47.1974 269.957C47.5381 270.054 47.842 270.208 48.1091 270.42C48.3808 270.632 48.611 270.908 48.7998 271.249C48.9932 271.585 49.1405 271.993 49.2418 272.471C49.3431 272.946 49.3938 273.498 49.3938 274.129ZM47.7292 276.008V273.88C47.7292 273.48 47.7062 273.128 47.6601 272.824C47.6141 272.515 47.545 272.255 47.4529 272.043C47.3654 271.827 47.2549 271.652 47.1214 271.518C46.9879 271.38 46.8359 271.281 46.6655 271.221C46.4952 271.157 46.3041 271.125 46.0923 271.125C45.8344 271.125 45.6042 271.175 45.4016 271.277C45.199 271.373 45.0286 271.53 44.8905 271.746C44.7523 271.963 44.6464 272.248 44.5727 272.603C44.5037 272.953 44.4691 273.379 44.4691 273.88V276.008C44.4691 276.413 44.4922 276.77 44.5382 277.078C44.5843 277.387 44.6533 277.652 44.7454 277.873C44.8375 278.089 44.948 278.269 45.077 278.411C45.2105 278.55 45.3624 278.651 45.5328 278.715C45.7078 278.78 45.8989 278.812 46.1061 278.812C46.3685 278.812 46.6011 278.761 46.8037 278.66C47.0063 278.559 47.1767 278.398 47.3148 278.177C47.4529 277.951 47.5565 277.659 47.6256 277.299C47.6947 276.94 47.7292 276.51 47.7292 276.008Z" fill="#637173"/>
<path d="M33.5009 237.674V239H26.7598V237.86L30.0336 234.289C30.3928 233.884 30.676 233.534 30.8832 233.24C31.0904 232.945 31.2355 232.68 31.3183 232.445C31.4058 232.206 31.4496 231.973 31.4496 231.748C31.4496 231.43 31.3897 231.151 31.27 230.912C31.1549 230.668 30.9845 230.477 30.7589 230.339C30.5333 230.196 30.2593 230.125 29.937 230.125C29.564 230.125 29.2509 230.205 28.9976 230.366C28.7444 230.527 28.5533 230.751 28.4243 231.036C28.2954 231.317 28.2309 231.64 28.2309 232.003H26.5664C26.5664 231.418 26.6999 230.884 26.967 230.401C27.234 229.913 27.6208 229.526 28.1273 229.241C28.6338 228.95 29.244 228.805 29.9577 228.805C30.6299 228.805 31.2009 228.918 31.6706 229.144C32.1403 229.369 32.4971 229.689 32.7412 230.104C32.9898 230.518 33.1141 231.009 33.1141 231.575C33.1141 231.888 33.0635 232.199 32.9622 232.507C32.8609 232.816 32.7158 233.125 32.5271 233.433C32.3429 233.737 32.1241 234.043 31.8709 234.352C31.6176 234.656 31.3391 234.964 31.0352 235.277L28.8595 237.674H33.5009ZM41.3541 233.129V234.773C41.3541 235.56 41.2758 236.233 41.1193 236.79C40.9673 237.342 40.7463 237.791 40.4562 238.137C40.1661 238.482 39.8185 238.735 39.4133 238.896C39.0127 239.058 38.5637 239.138 38.0664 239.138C37.6704 239.138 37.302 239.087 36.9613 238.986C36.6252 238.885 36.3213 238.726 36.0496 238.51C35.7779 238.293 35.5454 238.015 35.352 237.674C35.1632 237.329 35.0159 236.916 34.9099 236.438C34.8086 235.959 34.758 235.404 34.758 234.773V233.129C34.758 232.337 34.8363 231.669 34.9928 231.126C35.1494 230.578 35.3727 230.134 35.6628 229.793C35.9529 229.448 36.2982 229.197 36.6988 229.04C37.104 228.884 37.5553 228.805 38.0526 228.805C38.4532 228.805 38.8216 228.856 39.1577 228.957C39.4985 229.054 39.8024 229.208 40.0694 229.42C40.3411 229.632 40.5713 229.908 40.7601 230.249C40.9535 230.585 41.1009 230.993 41.2022 231.471C41.3035 231.946 41.3541 232.498 41.3541 233.129ZM39.6895 235.008V232.88C39.6895 232.48 39.6665 232.128 39.6205 231.824C39.5744 231.515 39.5054 231.255 39.4133 231.043C39.3258 230.827 39.2153 230.652 39.0817 230.518C38.9482 230.38 38.7962 230.281 38.6259 230.221C38.4555 230.157 38.2644 230.125 38.0526 230.125C37.7947 230.125 37.5645 230.175 37.3619 230.277C37.1593 230.373 36.9889 230.53 36.8508 230.746C36.7127 230.963 36.6067 231.248 36.5331 231.603C36.464 231.953 36.4295 232.379 36.4295 232.88V235.008C36.4295 235.413 36.4525 235.77 36.4985 236.078C36.5446 236.387 36.6137 236.652 36.7057 236.873C36.7978 237.089 36.9084 237.269 37.0373 237.411C37.1708 237.55 37.3228 237.651 37.4931 237.715C37.6681 237.78 37.8592 237.812 38.0664 237.812C38.3289 237.812 38.5614 237.761 38.764 237.66C38.9666 237.559 39.137 237.398 39.2751 237.177C39.4133 236.951 39.5169 236.659 39.5859 236.299C39.655 235.94 39.6895 235.51 39.6895 235.008ZM49.3938 233.129V234.773C49.3938 235.56 49.3155 236.233 49.1589 236.79C49.007 237.342 48.786 237.791 48.4959 238.137C48.2058 238.482 47.8581 238.735 47.4529 238.896C47.0523 239.058 46.6034 239.138 46.1061 239.138C45.7101 239.138 45.3417 239.087 45.001 238.986C44.6648 238.885 44.3609 238.726 44.0893 238.51C43.8176 238.293 43.5851 238.015 43.3917 237.674C43.2029 237.329 43.0555 236.916 42.9496 236.438C42.8483 235.959 42.7977 235.404 42.7977 234.773V233.129C42.7977 232.337 42.8759 231.669 43.0325 231.126C43.1891 230.578 43.4124 230.134 43.7025 229.793C43.9926 229.448 44.3379 229.197 44.7385 229.04C45.1437 228.884 45.595 228.805 46.0923 228.805C46.4929 228.805 46.8612 228.856 47.1974 228.957C47.5381 229.054 47.842 229.208 48.1091 229.42C48.3808 229.632 48.611 229.908 48.7998 230.249C48.9932 230.585 49.1405 230.993 49.2418 231.471C49.3431 231.946 49.3938 232.498 49.3938 233.129ZM47.7292 235.008V232.88C47.7292 232.48 47.7062 232.128 47.6601 231.824C47.6141 231.515 47.545 231.255 47.4529 231.043C47.3654 230.827 47.2549 230.652 47.1214 230.518C46.9879 230.38 46.8359 230.281 46.6655 230.221C46.4952 230.157 46.3041 230.125 46.0923 230.125C45.8344 230.125 45.6042 230.175 45.4016 230.277C45.199 230.373 45.0286 230.53 44.8905 230.746C44.7523 230.963 44.6464 231.248 44.5727 231.603C44.5037 231.953 44.4691 232.379 44.4691 232.88V235.008C44.4691 235.413 44.4922 235.77 44.5382 236.078C44.5843 236.387 44.6533 236.652 44.7454 236.873C44.8375 237.089 44.948 237.269 45.077 237.411C45.2105 237.55 45.3624 237.651 45.5328 237.715C45.7078 237.78 45.8989 237.812 46.1061 237.812C46.3685 237.812 46.6011 237.761 46.8037 237.66C47.0063 237.559 47.1767 237.398 47.3148 237.177C47.4529 236.951 47.5565 236.659 47.6256 236.299C47.6947 235.94 47.7292 235.51 47.7292 235.008Z" fill="#637173"/>
<path d="M28.7144 191.219H29.709C30.0958 191.219 30.4158 191.152 30.6691 191.019C30.9269 190.885 31.118 190.701 31.2424 190.466C31.3667 190.231 31.4289 189.962 31.4289 189.658C31.4289 189.34 31.3713 189.069 31.2562 188.843C31.1457 188.613 30.9753 188.435 30.7451 188.311C30.5194 188.187 30.2316 188.125 29.8817 188.125C29.587 188.125 29.3199 188.184 29.0805 188.304C28.8457 188.419 28.6592 188.585 28.521 188.801C28.3829 189.013 28.3138 189.267 28.3138 189.561H26.6423C26.6423 189.027 26.7828 188.553 27.0637 188.138C27.3445 187.724 27.7267 187.399 28.2102 187.165C28.6983 186.925 29.2463 186.805 29.8541 186.805C30.5033 186.805 31.0697 186.914 31.5532 187.13C32.0413 187.342 32.4211 187.66 32.6928 188.083C32.9645 188.507 33.1003 189.032 33.1003 189.658C33.1003 189.943 33.0336 190.234 32.9 190.528C32.7665 190.823 32.5685 191.092 32.306 191.336C32.0436 191.576 31.7166 191.771 31.3252 191.923C30.9339 192.071 30.4803 192.144 29.9646 192.144H28.7144V191.219ZM28.7144 192.517V191.606H29.9646C30.554 191.606 31.0559 191.675 31.4703 191.813C31.8893 191.951 32.2301 192.142 32.4925 192.386C32.755 192.626 32.9461 192.9 33.0658 193.208C33.1901 193.517 33.2523 193.844 33.2523 194.189C33.2523 194.659 33.1671 195.078 32.9967 195.446C32.831 195.81 32.5938 196.118 32.2853 196.371C31.9768 196.625 31.6153 196.816 31.2009 196.945C30.7911 197.074 30.3445 197.138 29.861 197.138C29.4281 197.138 29.0137 197.078 28.6177 196.959C28.2217 196.839 27.8672 196.662 27.5541 196.427C27.2409 196.187 26.9923 195.89 26.8081 195.536C26.6285 195.177 26.5387 194.762 26.5387 194.292H28.2033C28.2033 194.592 28.2724 194.857 28.4105 195.087C28.5533 195.312 28.7513 195.49 29.0045 195.619C29.2624 195.748 29.5571 195.812 29.8886 195.812C30.2386 195.812 30.5402 195.75 30.7934 195.626C31.0467 195.501 31.2401 195.317 31.3736 195.073C31.5117 194.829 31.5808 194.534 31.5808 194.189C31.5808 193.797 31.5048 193.48 31.3529 193.236C31.2009 192.992 30.9845 192.812 30.7036 192.697C30.4227 192.577 30.0912 192.517 29.709 192.517H28.7144ZM41.3541 191.129V192.773C41.3541 193.56 41.2758 194.233 41.1193 194.79C40.9673 195.342 40.7463 195.791 40.4562 196.137C40.1661 196.482 39.8185 196.735 39.4133 196.896C39.0127 197.058 38.5637 197.138 38.0664 197.138C37.6704 197.138 37.302 197.087 36.9613 196.986C36.6252 196.885 36.3213 196.726 36.0496 196.51C35.7779 196.293 35.5454 196.015 35.352 195.674C35.1632 195.329 35.0159 194.916 34.9099 194.438C34.8086 193.959 34.758 193.404 34.758 192.773V191.129C34.758 190.337 34.8363 189.669 34.9928 189.126C35.1494 188.578 35.3727 188.134 35.6628 187.793C35.9529 187.448 36.2982 187.197 36.6988 187.04C37.104 186.884 37.5553 186.805 38.0526 186.805C38.4532 186.805 38.8216 186.856 39.1577 186.957C39.4985 187.054 39.8024 187.208 40.0694 187.42C40.3411 187.632 40.5713 187.908 40.7601 188.249C40.9535 188.585 41.1009 188.993 41.2022 189.471C41.3035 189.946 41.3541 190.498 41.3541 191.129ZM39.6895 193.008V190.88C39.6895 190.48 39.6665 190.128 39.6205 189.824C39.5744 189.515 39.5054 189.255 39.4133 189.043C39.3258 188.827 39.2153 188.652 39.0817 188.518C38.9482 188.38 38.7962 188.281 38.6259 188.221C38.4555 188.157 38.2644 188.125 38.0526 188.125C37.7947 188.125 37.5645 188.175 37.3619 188.277C37.1593 188.373 36.9889 188.53 36.8508 188.746C36.7127 188.963 36.6067 189.248 36.5331 189.603C36.464 189.953 36.4295 190.379 36.4295 190.88V193.008C36.4295 193.413 36.4525 193.77 36.4985 194.078C36.5446 194.387 36.6137 194.652 36.7057 194.873C36.7978 195.089 36.9084 195.269 37.0373 195.411C37.1708 195.55 37.3228 195.651 37.4931 195.715C37.6681 195.78 37.8592 195.812 38.0664 195.812C38.3289 195.812 38.5614 195.761 38.764 195.66C38.9666 195.559 39.137 195.398 39.2751 195.177C39.4133 194.951 39.5169 194.659 39.5859 194.299C39.655 193.94 39.6895 193.51 39.6895 193.008ZM49.3938 191.129V192.773C49.3938 193.56 49.3155 194.233 49.1589 194.79C49.007 195.342 48.786 195.791 48.4959 196.137C48.2058 196.482 47.8581 196.735 47.4529 196.896C47.0523 197.058 46.6034 197.138 46.1061 197.138C45.7101 197.138 45.3417 197.087 45.001 196.986C44.6648 196.885 44.3609 196.726 44.0893 196.51C43.8176 196.293 43.5851 196.015 43.3917 195.674C43.2029 195.329 43.0555 194.916 42.9496 194.438C42.8483 193.959 42.7977 193.404 42.7977 192.773V191.129C42.7977 190.337 42.8759 189.669 43.0325 189.126C43.1891 188.578 43.4124 188.134 43.7025 187.793C43.9926 187.448 44.3379 187.197 44.7385 187.04C45.1437 186.884 45.595 186.805 46.0923 186.805C46.4929 186.805 46.8612 186.856 47.1974 186.957C47.5381 187.054 47.842 187.208 48.1091 187.42C48.3808 187.632 48.611 187.908 48.7998 188.249C48.9932 188.585 49.1405 188.993 49.2418 189.471C49.3431 189.946 49.3938 190.498 49.3938 191.129ZM47.7292 193.008V190.88C47.7292 190.48 47.7062 190.128 47.6601 189.824C47.6141 189.515 47.545 189.255 47.4529 189.043C47.3654 188.827 47.2549 188.652 47.1214 188.518C46.9879 188.38 46.8359 188.281 46.6655 188.221C46.4952 188.157 46.3041 188.125 46.0923 188.125C45.8344 188.125 45.6042 188.175 45.4016 188.277C45.199 188.373 45.0286 188.53 44.8905 188.746C44.7523 188.963 44.6464 189.248 44.5727 189.603C44.5037 189.953 44.4691 190.379 44.4691 190.88V193.008C44.4691 193.413 44.4922 193.77 44.5382 194.078C44.5843 194.387 44.6533 194.652 44.7454 194.873C44.8375 195.089 44.948 195.269 45.077 195.411C45.2105 195.55 45.3624 195.651 45.5328 195.715C45.7078 195.78 45.8989 195.812 46.1061 195.812C46.3685 195.812 46.6011 195.761 46.8037 195.66C47.0063 195.559 47.1767 195.398 47.3148 195.177C47.4529 194.951 47.5565 194.659 47.6256 194.299C47.6947 193.94 47.7292 193.51 47.7292 193.008Z" fill="#637173"/>
<path d="M33.6874 152.415V153.741H26.4351L26.3799 152.74L30.7174 145.944H32.0505L30.6069 148.416L28.1135 152.415H33.6874ZM32.4304 145.944V156H30.7658V145.944H32.4304ZM41.3541 150.129V151.773C41.3541 152.56 41.2758 153.233 41.1193 153.79C40.9673 154.342 40.7463 154.791 40.4562 155.137C40.1661 155.482 39.8185 155.735 39.4133 155.896C39.0127 156.058 38.5637 156.138 38.0664 156.138C37.6704 156.138 37.302 156.087 36.9613 155.986C36.6252 155.885 36.3213 155.726 36.0496 155.51C35.7779 155.293 35.5454 155.015 35.352 154.674C35.1632 154.329 35.0159 153.916 34.9099 153.438C34.8086 152.959 34.758 152.404 34.758 151.773V150.129C34.758 149.337 34.8363 148.669 34.9928 148.126C35.1494 147.578 35.3727 147.134 35.6628 146.793C35.9529 146.448 36.2982 146.197 36.6988 146.04C37.104 145.884 37.5553 145.805 38.0526 145.805C38.4532 145.805 38.8216 145.856 39.1577 145.957C39.4985 146.054 39.8024 146.208 40.0694 146.42C40.3411 146.632 40.5713 146.908 40.7601 147.249C40.9535 147.585 41.1009 147.993 41.2022 148.471C41.3035 148.946 41.3541 149.498 41.3541 150.129ZM39.6895 152.008V149.88C39.6895 149.48 39.6665 149.128 39.6205 148.824C39.5744 148.515 39.5054 148.255 39.4133 148.043C39.3258 147.827 39.2153 147.652 39.0817 147.518C38.9482 147.38 38.7962 147.281 38.6259 147.221C38.4555 147.157 38.2644 147.125 38.0526 147.125C37.7947 147.125 37.5645 147.175 37.3619 147.277C37.1593 147.373 36.9889 147.53 36.8508 147.746C36.7127 147.963 36.6067 148.248 36.5331 148.603C36.464 148.953 36.4295 149.379 36.4295 149.88V152.008C36.4295 152.413 36.4525 152.77 36.4985 153.078C36.5446 153.387 36.6137 153.652 36.7057 153.873C36.7978 154.089 36.9084 154.269 37.0373 154.411C37.1708 154.55 37.3228 154.651 37.4931 154.715C37.6681 154.78 37.8592 154.812 38.0664 154.812C38.3289 154.812 38.5614 154.761 38.764 154.66C38.9666 154.559 39.137 154.398 39.2751 154.177C39.4133 153.951 39.5169 153.659 39.5859 153.299C39.655 152.94 39.6895 152.51 39.6895 152.008ZM49.3938 150.129V151.773C49.3938 152.56 49.3155 153.233 49.1589 153.79C49.007 154.342 48.786 154.791 48.4959 155.137C48.2058 155.482 47.8581 155.735 47.4529 155.896C47.0523 156.058 46.6034 156.138 46.1061 156.138C45.7101 156.138 45.3417 156.087 45.001 155.986C44.6648 155.885 44.3609 155.726 44.0893 155.51C43.8176 155.293 43.5851 155.015 43.3917 154.674C43.2029 154.329 43.0555 153.916 42.9496 153.438C42.8483 152.959 42.7977 152.404 42.7977 151.773V150.129C42.7977 149.337 42.8759 148.669 43.0325 148.126C43.1891 147.578 43.4124 147.134 43.7025 146.793C43.9926 146.448 44.3379 146.197 44.7385 146.04C45.1437 145.884 45.595 145.805 46.0923 145.805C46.4929 145.805 46.8612 145.856 47.1974 145.957C47.5381 146.054 47.842 146.208 48.1091 146.42C48.3808 146.632 48.611 146.908 48.7998 147.249C48.9932 147.585 49.1405 147.993 49.2418 148.471C49.3431 148.946 49.3938 149.498 49.3938 150.129ZM47.7292 152.008V149.88C47.7292 149.48 47.7062 149.128 47.6601 148.824C47.6141 148.515 47.545 148.255 47.4529 148.043C47.3654 147.827 47.2549 147.652 47.1214 147.518C46.9879 147.38 46.8359 147.281 46.6655 147.221C46.4952 147.157 46.3041 147.125 46.0923 147.125C45.8344 147.125 45.6042 147.175 45.4016 147.277C45.199 147.373 45.0286 147.53 44.8905 147.746C44.7523 147.963 44.6464 148.248 44.5727 148.603C44.5037 148.953 44.4691 149.379 44.4691 149.88V152.008C44.4691 152.413 44.4922 152.77 44.5382 153.078C44.5843 153.387 44.6533 153.652 44.7454 153.873C44.8375 154.089 44.948 154.269 45.077 154.411C45.2105 154.55 45.3624 154.651 45.5328 154.715C45.7078 154.78 45.8989 154.812 46.1061 154.812C46.3685 154.812 46.6011 154.761 46.8037 154.66C47.0063 154.559 47.1767 154.398 47.3148 154.177C47.4529 153.951 47.5565 153.659 47.6256 153.299C47.6947 152.94 47.7292 152.51 47.7292 152.008Z" fill="#637173"/>
<path d="M28.5072 110.324L27.1811 109.999L27.7267 104.944H33.1487V106.353H29.1081L28.8318 108.818C28.9884 108.726 29.2048 108.636 29.4811 108.549C29.7574 108.457 30.0728 108.411 30.4273 108.411C30.9016 108.411 31.3252 108.489 31.6982 108.646C32.0758 108.798 32.3958 109.021 32.6583 109.316C32.9207 109.606 33.121 109.96 33.2592 110.379C33.3973 110.794 33.4664 111.261 33.4664 111.781C33.4664 112.246 33.3973 112.682 33.2592 113.087C33.1257 113.492 32.9231 113.849 32.6514 114.157C32.3797 114.466 32.0367 114.708 31.6222 114.883C31.2124 115.053 30.7266 115.138 30.1649 115.138C29.7459 115.138 29.343 115.078 28.9562 114.959C28.574 114.834 28.2309 114.652 27.927 114.413C27.6231 114.169 27.3791 113.87 27.1949 113.515C27.0107 113.156 26.9048 112.744 26.8772 112.279H28.5072C28.5487 112.606 28.6384 112.884 28.7766 113.114C28.9193 113.34 29.1081 113.513 29.343 113.632C29.5778 113.752 29.8495 113.812 30.158 113.812C30.4389 113.812 30.6806 113.764 30.8832 113.667C31.0858 113.566 31.2539 113.423 31.3874 113.239C31.5255 113.05 31.6268 112.829 31.6913 112.576C31.7604 112.322 31.7949 112.042 31.7949 111.733C31.7949 111.438 31.7558 111.169 31.6775 110.925C31.6038 110.681 31.491 110.469 31.3391 110.289C31.1917 110.11 31.0052 109.972 30.7796 109.875C30.554 109.774 30.2938 109.723 29.9991 109.723C29.6031 109.723 29.2992 109.781 29.0874 109.896C28.8802 110.011 28.6868 110.154 28.5072 110.324ZM41.3541 109.129V110.773C41.3541 111.56 41.2758 112.233 41.1193 112.79C40.9673 113.342 40.7463 113.791 40.4562 114.137C40.1661 114.482 39.8185 114.735 39.4133 114.896C39.0127 115.058 38.5637 115.138 38.0664 115.138C37.6704 115.138 37.302 115.087 36.9613 114.986C36.6252 114.885 36.3213 114.726 36.0496 114.51C35.7779 114.293 35.5454 114.015 35.352 113.674C35.1632 113.329 35.0159 112.916 34.9099 112.438C34.8086 111.959 34.758 111.404 34.758 110.773V109.129C34.758 108.337 34.8363 107.669 34.9928 107.126C35.1494 106.578 35.3727 106.134 35.6628 105.793C35.9529 105.448 36.2982 105.197 36.6988 105.04C37.104 104.884 37.5553 104.805 38.0526 104.805C38.4532 104.805 38.8216 104.856 39.1577 104.957C39.4985 105.054 39.8024 105.208 40.0694 105.42C40.3411 105.632 40.5713 105.908 40.7601 106.249C40.9535 106.585 41.1009 106.993 41.2022 107.471C41.3035 107.946 41.3541 108.498 41.3541 109.129ZM39.6895 111.008V108.88C39.6895 108.48 39.6665 108.128 39.6205 107.824C39.5744 107.515 39.5054 107.255 39.4133 107.043C39.3258 106.827 39.2153 106.652 39.0817 106.518C38.9482 106.38 38.7962 106.281 38.6259 106.221C38.4555 106.157 38.2644 106.125 38.0526 106.125C37.7947 106.125 37.5645 106.175 37.3619 106.277C37.1593 106.373 36.9889 106.53 36.8508 106.746C36.7127 106.963 36.6067 107.248 36.5331 107.603C36.464 107.953 36.4295 108.379 36.4295 108.88V111.008C36.4295 111.413 36.4525 111.77 36.4985 112.078C36.5446 112.387 36.6137 112.652 36.7057 112.873C36.7978 113.089 36.9084 113.269 37.0373 113.411C37.1708 113.55 37.3228 113.651 37.4931 113.715C37.6681 113.78 37.8592 113.812 38.0664 113.812C38.3289 113.812 38.5614 113.761 38.764 113.66C38.9666 113.559 39.137 113.398 39.2751 113.177C39.4133 112.951 39.5169 112.659 39.5859 112.299C39.655 111.94 39.6895 111.51 39.6895 111.008ZM49.3938 109.129V110.773C49.3938 111.56 49.3155 112.233 49.1589 112.79C49.007 113.342 48.786 113.791 48.4959 114.137C48.2058 114.482 47.8581 114.735 47.4529 114.896C47.0523 115.058 46.6034 115.138 46.1061 115.138C45.7101 115.138 45.3417 115.087 45.001 114.986C44.6648 114.885 44.3609 114.726 44.0893 114.51C43.8176 114.293 43.5851 114.015 43.3917 113.674C43.2029 113.329 43.0555 112.916 42.9496 112.438C42.8483 111.959 42.7977 111.404 42.7977 110.773V109.129C42.7977 108.337 42.8759 107.669 43.0325 107.126C43.1891 106.578 43.4124 106.134 43.7025 105.793C43.9926 105.448 44.3379 105.197 44.7385 105.04C45.1437 104.884 45.595 104.805 46.0923 104.805C46.4929 104.805 46.8612 104.856 47.1974 104.957C47.5381 105.054 47.842 105.208 48.1091 105.42C48.3808 105.632 48.611 105.908 48.7998 106.249C48.9932 106.585 49.1405 106.993 49.2418 107.471C49.3431 107.946 49.3938 108.498 49.3938 109.129ZM47.7292 111.008V108.88C47.7292 108.48 47.7062 108.128 47.6601 107.824C47.6141 107.515 47.545 107.255 47.4529 107.043C47.3654 106.827 47.2549 106.652 47.1214 106.518C46.9879 106.38 46.8359 106.281 46.6655 106.221C46.4952 106.157 46.3041 106.125 46.0923 106.125C45.8344 106.125 45.6042 106.175 45.4016 106.277C45.199 106.373 45.0286 106.53 44.8905 106.746C44.7523 106.963 44.6464 107.248 44.5727 107.603C44.5037 107.953 44.4691 108.379 44.4691 108.88V111.008C44.4691 111.413 44.4922 111.77 44.5382 112.078C44.5843 112.387 44.6533 112.652 44.7454 112.873C44.8375 113.089 44.948 113.269 45.077 113.411C45.2105 113.55 45.3624 113.651 45.5328 113.715C45.7078 113.78 45.8989 113.812 46.1061 113.812C46.3685 113.812 46.6011 113.761 46.8037 113.66C47.0063 113.559 47.1767 113.398 47.3148 113.177C47.4529 112.951 47.5565 112.659 47.6256 112.299C47.6947 111.94 47.7292 111.51 47.7292 111.008Z" fill="#637173"/>
<path d="M31.788 61.8813H31.9952V63.242H31.8778C31.2838 63.242 30.7704 63.3341 30.3376 63.5183C29.9093 63.7025 29.5571 63.9557 29.2808 64.278C29.0045 64.6004 28.7973 64.978 28.6592 65.4108C28.5256 65.839 28.4589 66.2949 28.4589 66.7784V68.36C28.4589 68.7606 28.5026 69.1152 28.5901 69.4237C28.6776 69.7276 28.7996 69.9832 28.9562 70.1904C29.1173 70.393 29.3015 70.5472 29.5087 70.6531C29.7159 70.7591 29.9393 70.812 30.1787 70.812C30.4273 70.812 30.653 70.7614 30.8556 70.6601C31.0582 70.5541 31.2309 70.4091 31.3736 70.2249C31.5163 70.0407 31.6245 69.822 31.6982 69.5688C31.7719 69.3155 31.8087 69.0392 31.8087 68.7399C31.8087 68.4544 31.7719 68.1874 31.6982 67.9387C31.6292 67.6855 31.5255 67.4644 31.3874 67.2757C31.2493 67.0823 31.0766 66.9326 30.8694 66.8267C30.6668 66.7162 30.4319 66.6609 30.1649 66.6609C29.8333 66.6609 29.5317 66.7392 29.2601 66.8958C28.993 67.0523 28.7766 67.2572 28.6108 67.5105C28.4497 67.7591 28.3622 68.0239 28.3484 68.3048L27.7129 68.0976C27.7498 67.6694 27.8442 67.2849 27.9961 66.9441C28.1527 66.6034 28.3576 66.3133 28.6108 66.0739C28.8641 65.8344 29.1565 65.6525 29.488 65.5282C29.8241 65.3993 30.1925 65.3348 30.5931 65.3348C31.0812 65.3348 31.5048 65.4269 31.864 65.6111C32.2231 65.7953 32.5201 66.0462 32.755 66.3639C32.9944 66.6771 33.1717 67.0362 33.2868 67.4414C33.4065 67.842 33.4664 68.261 33.4664 68.6985C33.4664 69.182 33.3927 69.6332 33.2454 70.0522C33.098 70.4667 32.8816 70.8304 32.5961 71.1435C32.3152 71.4567 31.9722 71.7007 31.567 71.8757C31.1664 72.0507 30.7105 72.1381 30.1994 72.1381C29.6607 72.1381 29.1795 72.0345 28.7559 71.8273C28.3368 71.6201 27.98 71.3346 27.6853 70.9709C27.3952 70.6071 27.1742 70.1881 27.0222 69.7138C26.8703 69.2395 26.7943 68.7376 26.7943 68.2081V67.5174C26.7943 66.753 26.891 66.0324 27.0844 65.3555C27.2778 64.674 27.5748 64.0731 27.9754 63.5528C28.3806 63.0325 28.8986 62.625 29.5294 62.3303C30.1603 62.031 30.9131 61.8813 31.788 61.8813ZM41.3541 66.1291V67.773C41.3541 68.5603 41.2758 69.2326 41.1193 69.7898C40.9673 70.3423 40.7463 70.7913 40.4562 71.1366C40.1661 71.482 39.8185 71.7352 39.4133 71.8964C39.0127 72.0576 38.5637 72.1381 38.0664 72.1381C37.6704 72.1381 37.302 72.0875 36.9613 71.9862C36.6252 71.8849 36.3213 71.726 36.0496 71.5096C35.7779 71.2932 35.5454 71.0146 35.352 70.6739C35.1632 70.3285 35.0159 69.9164 34.9099 69.4375C34.8086 68.9586 34.758 68.4038 34.758 67.773V66.1291C34.758 65.3371 34.8363 64.6694 34.9928 64.1261C35.1494 63.5781 35.3727 63.1338 35.6628 62.7931C35.9529 62.4477 36.2982 62.1968 36.6988 62.0402C37.104 61.8836 37.5553 61.8054 38.0526 61.8054C38.4532 61.8054 38.8216 61.856 39.1577 61.9573C39.4985 62.054 39.8024 62.2083 40.0694 62.4201C40.3411 62.6319 40.5713 62.9082 40.7601 63.2489C40.9535 63.5851 41.1009 63.9926 41.2022 64.4714C41.3035 64.9457 41.3541 65.4983 41.3541 66.1291ZM39.6895 68.0078V65.8805C39.6895 65.4799 39.6665 65.1276 39.6205 64.8237C39.5744 64.5152 39.5054 64.255 39.4133 64.0432C39.3258 63.8268 39.2153 63.6518 39.0817 63.5183C38.9482 63.3801 38.7962 63.2811 38.6259 63.2213C38.4555 63.1568 38.2644 63.1246 38.0526 63.1246C37.7947 63.1246 37.5645 63.1752 37.3619 63.2765C37.1593 63.3732 36.9889 63.5298 36.8508 63.7462C36.7127 63.9626 36.6067 64.2481 36.5331 64.6027C36.464 64.9526 36.4295 65.3786 36.4295 65.8805V68.0078C36.4295 68.413 36.4525 68.7699 36.4985 69.0784C36.5446 69.3869 36.6137 69.6516 36.7057 69.8727C36.7978 70.0891 36.9084 70.2687 37.0373 70.4114C37.1708 70.5495 37.3228 70.6508 37.4931 70.7153C37.6681 70.7798 37.8592 70.812 38.0664 70.812C38.3289 70.812 38.5614 70.7614 38.764 70.6601C38.9666 70.5588 39.137 70.3976 39.2751 70.1766C39.4133 69.9509 39.5169 69.6585 39.5859 69.2994C39.655 68.9402 39.6895 68.5097 39.6895 68.0078ZM49.3938 66.1291V67.773C49.3938 68.5603 49.3155 69.2326 49.1589 69.7898C49.007 70.3423 48.786 70.7913 48.4959 71.1366C48.2058 71.482 47.8581 71.7352 47.4529 71.8964C47.0523 72.0576 46.6034 72.1381 46.1061 72.1381C45.7101 72.1381 45.3417 72.0875 45.001 71.9862C44.6648 71.8849 44.3609 71.726 44.0893 71.5096C43.8176 71.2932 43.5851 71.0146 43.3917 70.6739C43.2029 70.3285 43.0555 69.9164 42.9496 69.4375C42.8483 68.9586 42.7977 68.4038 42.7977 67.773V66.1291C42.7977 65.3371 42.8759 64.6694 43.0325 64.1261C43.1891 63.5781 43.4124 63.1338 43.7025 62.7931C43.9926 62.4477 44.3379 62.1968 44.7385 62.0402C45.1437 61.8836 45.595 61.8054 46.0923 61.8054C46.4929 61.8054 46.8612 61.856 47.1974 61.9573C47.5381 62.054 47.842 62.2083 48.1091 62.4201C48.3808 62.6319 48.611 62.9082 48.7998 63.2489C48.9932 63.5851 49.1405 63.9926 49.2418 64.4714C49.3431 64.9457 49.3938 65.4983 49.3938 66.1291ZM47.7292 68.0078V65.8805C47.7292 65.4799 47.7062 65.1276 47.6601 64.8237C47.6141 64.5152 47.545 64.255 47.4529 64.0432C47.3654 63.8268 47.2549 63.6518 47.1214 63.5183C46.9879 63.3801 46.8359 63.2811 46.6655 63.2213C46.4952 63.1568 46.3041 63.1246 46.0923 63.1246C45.8344 63.1246 45.6042 63.1752 45.4016 63.2765C45.199 63.3732 45.0286 63.5298 44.8905 63.7462C44.7523 63.9626 44.6464 64.2481 44.5727 64.6027C44.5037 64.9526 44.4691 65.3786 44.4691 65.8805V68.0078C44.4691 68.413 44.4922 68.7699 44.5382 69.0784C44.5843 69.3869 44.6533 69.6516 44.7454 69.8727C44.8375 70.0891 44.948 70.2687 45.077 70.4114C45.2105 70.5495 45.3624 70.6508 45.5328 70.7153C45.7078 70.7798 45.8989 70.812 46.1061 70.812C46.3685 70.812 46.6011 70.7614 46.8037 70.6601C47.0063 70.5588 47.1767 70.3976 47.3148 70.1766C47.4529 69.9509 47.5565 69.6585 47.6256 69.2994C47.6947 68.9402 47.7292 68.5097 47.7292 68.0078Z" fill="#637173"/>
<path d="M33.4388 20.9435V21.8552L29.4189 31H27.6646L31.6775 22.2696H26.4697V20.9435H33.4388ZM41.3541 25.1291V26.773C41.3541 27.5603 41.2758 28.2326 41.1193 28.7898C40.9673 29.3423 40.7463 29.7913 40.4562 30.1366C40.1661 30.482 39.8185 30.7352 39.4133 30.8964C39.0127 31.0576 38.5637 31.1381 38.0664 31.1381C37.6704 31.1381 37.302 31.0875 36.9613 30.9862C36.6252 30.8849 36.3213 30.726 36.0496 30.5096C35.7779 30.2932 35.5454 30.0146 35.352 29.6739C35.1632 29.3285 35.0159 28.9164 34.9099 28.4375C34.8086 27.9586 34.758 27.4038 34.758 26.773V25.1291C34.758 24.3371 34.8363 23.6694 34.9928 23.1261C35.1494 22.5781 35.3727 22.1338 35.6628 21.7931C35.9529 21.4477 36.2982 21.1968 36.6988 21.0402C37.104 20.8836 37.5553 20.8054 38.0526 20.8054C38.4532 20.8054 38.8216 20.856 39.1577 20.9573C39.4985 21.054 39.8024 21.2083 40.0694 21.4201C40.3411 21.6319 40.5713 21.9082 40.7601 22.2489C40.9535 22.5851 41.1009 22.9926 41.2022 23.4714C41.3035 23.9457 41.3541 24.4983 41.3541 25.1291ZM39.6895 27.0078V24.8805C39.6895 24.4799 39.6665 24.1276 39.6205 23.8237C39.5744 23.5152 39.5054 23.255 39.4133 23.0432C39.3258 22.8268 39.2153 22.6518 39.0817 22.5183C38.9482 22.3801 38.7962 22.2811 38.6259 22.2213C38.4555 22.1568 38.2644 22.1246 38.0526 22.1246C37.7947 22.1246 37.5645 22.1752 37.3619 22.2765C37.1593 22.3732 36.9889 22.5298 36.8508 22.7462C36.7127 22.9626 36.6067 23.2481 36.5331 23.6027C36.464 23.9526 36.4295 24.3786 36.4295 24.8805V27.0078C36.4295 27.413 36.4525 27.7699 36.4985 28.0784C36.5446 28.3869 36.6137 28.6516 36.7057 28.8727C36.7978 29.0891 36.9084 29.2687 37.0373 29.4114C37.1708 29.5495 37.3228 29.6508 37.4931 29.7153C37.6681 29.7798 37.8592 29.812 38.0664 29.812C38.3289 29.812 38.5614 29.7614 38.764 29.6601C38.9666 29.5588 39.137 29.3976 39.2751 29.1766C39.4133 28.9509 39.5169 28.6585 39.5859 28.2994C39.655 27.9402 39.6895 27.5097 39.6895 27.0078ZM49.3938 25.1291V26.773C49.3938 27.5603 49.3155 28.2326 49.1589 28.7898C49.007 29.3423 48.786 29.7913 48.4959 30.1366C48.2058 30.482 47.8581 30.7352 47.4529 30.8964C47.0523 31.0576 46.6034 31.1381 46.1061 31.1381C45.7101 31.1381 45.3417 31.0875 45.001 30.9862C44.6648 30.8849 44.3609 30.726 44.0893 30.5096C43.8176 30.2932 43.5851 30.0146 43.3917 29.6739C43.2029 29.3285 43.0555 28.9164 42.9496 28.4375C42.8483 27.9586 42.7977 27.4038 42.7977 26.773V25.1291C42.7977 24.3371 42.8759 23.6694 43.0325 23.1261C43.1891 22.5781 43.4124 22.1338 43.7025 21.7931C43.9926 21.4477 44.3379 21.1968 44.7385 21.0402C45.1437 20.8836 45.595 20.8054 46.0923 20.8054C46.4929 20.8054 46.8612 20.856 47.1974 20.9573C47.5381 21.054 47.842 21.2083 48.1091 21.4201C48.3808 21.6319 48.611 21.9082 48.7998 22.2489C48.9932 22.5851 49.1405 22.9926 49.2418 23.4714C49.3431 23.9457 49.3938 24.4983 49.3938 25.1291ZM47.7292 27.0078V24.8805C47.7292 24.4799 47.7062 24.1276 47.6601 23.8237C47.6141 23.5152 47.545 23.255 47.4529 23.0432C47.3654 22.8268 47.2549 22.6518 47.1214 22.5183C46.9879 22.3801 46.8359 22.2811 46.6655 22.2213C46.4952 22.1568 46.3041 22.1246 46.0923 22.1246C45.8344 22.1246 45.6042 22.1752 45.4016 22.2765C45.199 22.3732 45.0286 22.5298 44.8905 22.7462C44.7523 22.9626 44.6464 23.2481 44.5727 23.6027C44.5037 23.9526 44.4691 24.3786 44.4691 24.8805V27.0078C44.4691 27.413 44.4922 27.7699 44.5382 28.0784C44.5843 28.3869 44.6533 28.6516 44.7454 28.8727C44.8375 29.0891 44.948 29.2687 45.077 29.4114C45.2105 29.5495 45.3624 29.6508 45.5328 29.7153C45.7078 29.7798 45.8989 29.812 46.1061 29.812C46.3685 29.812 46.6011 29.7614 46.8037 29.6601C47.0063 29.5588 47.1767 29.3976 47.3148 29.1766C47.4529 28.9509 47.5565 28.6585 47.6256 28.2994C47.6947 27.9402 47.7292 27.5097 47.7292 27.0078Z" fill="#637173"/>
<path d="M13.0536 207.288C12.897 207.288 12.7566 207.311 12.6323 207.357C12.5033 207.403 12.3836 207.489 12.2731 207.613C12.1626 207.737 12.0521 207.917 11.9416 208.152C11.8264 208.382 11.7067 208.686 11.5824 209.063C11.4351 209.505 11.2693 209.931 11.0851 210.341C10.8963 210.751 10.6776 211.117 10.4289 211.439C10.1757 211.762 9.88099 212.017 9.54486 212.206C9.20411 212.395 8.80812 212.489 8.35686 212.489C7.92403 212.489 7.53494 212.393 7.18959 212.199C6.83964 212.006 6.54264 211.736 6.2986 211.391C6.04995 211.041 5.86116 210.631 5.73223 210.162C5.59869 209.692 5.53193 209.179 5.53193 208.621C5.53193 207.885 5.66086 207.235 5.91872 206.674C6.17197 206.107 6.53343 205.665 7.0031 205.348C7.46817 205.025 8.01842 204.864 8.65386 204.864V207.275C8.40061 207.275 8.17728 207.327 7.98389 207.433C7.7905 207.535 7.63854 207.689 7.52803 207.896C7.41752 208.103 7.36227 208.364 7.36227 208.677C7.36227 208.981 7.40831 209.236 7.5004 209.443C7.5925 209.651 7.71682 209.807 7.87338 209.913C8.02533 210.019 8.1934 210.072 8.37758 210.072C8.52954 210.072 8.66768 210.03 8.792 209.948C8.91172 209.86 9.02453 209.738 9.13044 209.581C9.23635 209.42 9.33765 209.227 9.43435 209.001C9.53104 208.771 9.62544 208.513 9.71753 208.228C9.8879 207.694 10.079 207.219 10.2908 206.805C10.498 206.386 10.7352 206.034 11.0022 205.748C11.2647 205.458 11.564 205.239 11.9001 205.092C12.2363 204.94 12.6161 204.864 13.0398 204.864C13.491 204.864 13.8916 204.952 14.2416 205.126C14.5915 205.301 14.8885 205.552 15.1326 205.879C15.372 206.206 15.5539 206.598 15.6782 207.054C15.8025 207.509 15.8647 208.018 15.8647 208.58C15.8647 209.096 15.8002 209.604 15.6713 210.106C15.5378 210.604 15.3352 211.055 15.0635 211.46C14.7872 211.865 14.435 212.19 14.0067 212.434C13.5739 212.673 13.0605 212.793 12.4665 212.793V210.362C12.7612 210.362 13.0098 210.323 13.2124 210.245C13.415 210.166 13.5785 210.051 13.7028 209.899C13.8226 209.747 13.91 209.561 13.9653 209.34C14.0159 209.119 14.0413 208.865 14.0413 208.58C14.0413 208.271 13.9975 208.023 13.91 207.834C13.8179 207.645 13.6982 207.507 13.5509 207.42C13.3989 207.332 13.2332 207.288 13.0536 207.288ZM8.25326 199.787H9.86948V204.291H8.25326V199.787ZM6.39529 203.344L6.39529 201.017H13.2884C13.4864 201.017 13.6407 200.994 13.7512 200.948C13.8571 200.902 13.9331 200.823 13.9791 200.713C14.0205 200.598 14.0413 200.446 14.0413 200.257C14.0413 200.124 14.039 200.013 14.0344 199.926C14.0252 199.838 14.0136 199.755 13.9998 199.677H15.6644C15.7289 199.875 15.7772 200.082 15.8094 200.299C15.8463 200.515 15.8647 200.745 15.8647 200.989C15.8647 201.487 15.7864 201.912 15.6299 202.267C15.4733 202.617 15.227 202.884 14.8908 203.068C14.5547 203.252 14.1172 203.344 13.5785 203.344H6.39529ZM13.91 194.497H8.25326V192.162H15.7266V194.345L13.91 194.497ZM12.3905 194.276L12.3767 193.668C12.8786 193.668 13.3437 193.728 13.7719 193.847C14.1955 193.967 14.5639 194.144 14.877 194.379C15.1901 194.61 15.4342 194.895 15.6091 195.236C15.7795 195.572 15.8647 195.961 15.8647 196.403C15.8647 196.771 15.8141 197.11 15.7127 197.418C15.6068 197.722 15.4434 197.985 15.2224 198.206C14.9967 198.427 14.7089 198.599 14.359 198.724C14.0044 198.843 13.5808 198.903 13.0881 198.903H8.25326V196.576H13.1019C13.2677 196.576 13.4104 196.555 13.5302 196.514C13.6499 196.472 13.7512 196.412 13.8341 196.334C13.9123 196.256 13.9722 196.159 14.0136 196.044C14.0505 195.924 14.0689 195.788 14.0689 195.636C14.0689 195.286 13.9952 195.012 13.8479 194.814C13.7005 194.616 13.5002 194.478 13.247 194.4C12.9937 194.317 12.7082 194.276 12.3905 194.276ZM14.0136 186.581H5.11751V184.24H15.7266V186.34L14.0136 186.581ZM12.0797 191.168H11.9347C11.3683 191.168 10.8526 191.105 10.3875 190.981C9.91783 190.857 9.51493 190.673 9.17879 190.429C8.83805 190.184 8.57558 189.881 8.3914 189.517C8.20721 189.153 8.11512 188.734 8.11512 188.26C8.11512 187.836 8.21412 187.465 8.41212 187.148C8.60551 186.83 8.87719 186.558 9.22714 186.333C9.57709 186.107 9.9869 185.923 10.4566 185.78C10.9216 185.637 11.4235 185.529 11.9623 185.456H12.135C12.6415 185.529 13.1203 185.637 13.5716 185.78C14.0182 185.923 14.4142 186.107 14.7596 186.333C15.1049 186.558 15.3766 186.832 15.5746 187.155C15.768 187.472 15.8647 187.845 15.8647 188.274C15.8647 188.748 15.7703 189.167 15.5815 189.531C15.3927 189.89 15.128 190.191 14.7872 190.435C14.4465 190.675 14.0459 190.857 13.5854 190.981C13.125 191.105 12.623 191.168 12.0797 191.168ZM11.9347 188.84H12.0797C12.3606 188.84 12.6207 188.822 12.8602 188.785C13.0996 188.748 13.3114 188.686 13.4956 188.598C13.6752 188.506 13.8156 188.386 13.9169 188.239C14.0182 188.087 14.0689 187.901 14.0689 187.68C14.0689 187.38 13.9975 187.134 13.8548 186.941C13.712 186.743 13.5094 186.597 13.247 186.505C12.9845 186.409 12.676 186.367 12.3214 186.381H11.7758C11.4719 186.372 11.2048 186.393 10.9746 186.443C10.7398 186.494 10.5441 186.574 10.3875 186.685C10.2309 186.791 10.1135 186.927 10.0352 187.092C9.95237 187.254 9.91092 187.445 9.91092 187.666C9.91092 187.882 9.96157 188.066 10.0629 188.218C10.1642 188.366 10.3069 188.485 10.4911 188.577C10.6707 188.67 10.8848 188.736 11.1335 188.778C11.3775 188.819 11.6446 188.84 11.9347 188.84ZM15.8647 179.301C15.8647 179.909 15.7703 180.453 15.5815 180.931C15.3881 181.41 15.1234 181.816 14.7872 182.147C14.4511 182.474 14.0643 182.725 13.6269 182.9C13.1894 183.07 12.7267 183.156 12.2386 183.156H11.9761C11.4281 183.156 10.9216 183.08 10.4566 182.928C9.9869 182.776 9.57709 182.55 9.22714 182.251C8.87719 181.951 8.60551 181.576 8.41212 181.125C8.21412 180.674 8.11512 180.149 8.11512 179.55C8.11512 179.021 8.20031 178.546 8.37068 178.127C8.54105 177.708 8.78509 177.354 9.10281 177.064C9.42053 176.769 9.80502 176.546 10.2563 176.394C10.7075 176.237 11.214 176.159 11.7758 176.159H12.722V182.265H11.2647V178.431H11.0851C10.8365 178.427 10.6246 178.47 10.4497 178.562C10.2747 178.65 10.1412 178.779 10.0491 178.949C9.95697 179.12 9.91092 179.327 9.91092 179.571C9.91092 179.824 9.96618 180.034 10.0767 180.199C10.1872 180.361 10.3392 180.487 10.5325 180.579C10.7213 180.667 10.9401 180.729 11.1887 180.766C11.4374 180.803 11.6998 180.821 11.9761 180.821H12.2386C12.5148 180.821 12.7658 180.784 12.9914 180.71C13.217 180.632 13.4104 180.522 13.5716 180.379C13.7282 180.232 13.8502 180.057 13.9377 179.854C14.0252 179.647 14.0689 179.412 14.0689 179.15C14.0689 178.832 14.009 178.519 13.8893 178.21C13.7696 177.902 13.5716 177.637 13.2953 177.416L14.5524 176.359C14.7688 176.511 14.9783 176.727 15.1809 177.008C15.3835 177.285 15.5493 177.616 15.6782 178.003C15.8025 178.39 15.8647 178.823 15.8647 179.301ZM9.84876 172.926H15.7266V175.254H8.25326V173.071L9.84876 172.926ZM11.7344 173.203L11.7482 173.748C11.1772 173.748 10.6684 173.679 10.2217 173.541C9.77048 173.403 9.3883 173.207 9.07518 172.954C8.76207 172.701 8.52493 172.399 8.36377 172.049C8.198 171.695 8.11512 171.301 8.11512 170.868C8.11512 170.523 8.16577 170.207 8.26707 169.922C8.36838 169.632 8.53184 169.383 8.75747 169.176C8.98309 168.964 9.28239 168.803 9.65537 168.692C10.0237 168.577 10.4796 168.52 11.0229 168.52H15.7266L15.7266 170.861H11.016C10.7167 170.861 10.4888 170.903 10.3322 170.986C10.1711 171.068 10.0606 171.188 10.0007 171.345C9.94085 171.501 9.91092 171.692 9.91092 171.918C9.91092 172.157 9.95697 172.36 10.0491 172.526C10.1412 172.692 10.2701 172.825 10.4359 172.926C10.597 173.023 10.7881 173.094 11.0091 173.14C11.2301 173.182 11.4719 173.203 11.7344 173.203ZM8.25326 163.291H9.86948V167.795H8.25326V163.291ZM6.39529 166.848L6.39529 164.521H13.2884C13.4864 164.521 13.6407 164.498 13.7512 164.452C13.8571 164.406 13.9331 164.327 13.9791 164.217C14.0205 164.102 14.0413 163.95 14.0413 163.761C14.0413 163.627 14.039 163.517 14.0344 163.429C14.0252 163.342 14.0136 163.259 13.9998 163.181H15.6644C15.7289 163.379 15.7772 163.586 15.8094 163.802C15.8463 164.019 15.8647 164.249 15.8647 164.493C15.8647 164.99 15.7864 165.416 15.6299 165.771C15.4733 166.121 15.227 166.388 14.8908 166.572C14.5547 166.756 14.1172 166.848 13.5785 166.848H6.39529ZM13.6269 158.449C13.4979 158.449 13.3874 158.493 13.2953 158.581C13.1986 158.664 13.1111 158.811 13.0329 159.023C12.95 159.235 12.8671 159.532 12.7842 159.914C12.7059 160.277 12.6023 160.621 12.4734 160.943C12.3445 161.261 12.1879 161.539 12.0037 161.779C11.8195 162.018 11.6008 162.207 11.3476 162.345C11.0943 162.478 10.8042 162.545 10.4773 162.545C10.1596 162.545 9.86027 162.478 9.57939 162.345C9.2939 162.207 9.04295 162.006 8.82654 161.744C8.60551 161.477 8.43284 161.152 8.30852 160.77C8.17959 160.388 8.11512 159.953 8.11512 159.465C8.11512 158.792 8.21873 158.212 8.42593 157.724C8.62854 157.236 8.91402 156.861 9.28239 156.598C9.64616 156.331 10.0675 156.198 10.5464 156.198V158.525C10.3576 158.525 10.1964 158.558 10.0629 158.622C9.92934 158.682 9.82804 158.781 9.75897 158.919C9.6853 159.057 9.64846 159.241 9.64846 159.472C9.64846 159.633 9.67839 159.78 9.73825 159.914C9.79811 160.043 9.88099 160.146 9.9869 160.225C10.0928 160.303 10.2171 160.342 10.3599 160.342C10.4612 160.342 10.5533 160.319 10.6362 160.273C10.7144 160.222 10.7881 160.146 10.8572 160.045C10.9216 159.944 10.9815 159.815 11.0368 159.658C11.0874 159.502 11.1335 159.313 11.1749 159.092C11.267 158.59 11.3982 158.12 11.5686 157.683C11.739 157.245 11.9807 156.891 12.2938 156.619C12.6069 156.343 13.0283 156.205 13.5578 156.205C13.8893 156.205 14.1955 156.281 14.4764 156.433C14.7527 156.585 14.9967 156.803 15.2085 157.089C15.4158 157.374 15.5769 157.717 15.692 158.118C15.8071 158.518 15.8647 158.97 15.8647 159.472C15.8647 160.185 15.7381 160.789 15.4848 161.281C15.227 161.774 14.9046 162.147 14.5178 162.4C14.1265 162.649 13.7305 162.773 13.3299 162.773V160.604C13.5601 160.595 13.7489 160.54 13.8962 160.439C14.0436 160.333 14.1518 160.192 14.2209 160.017C14.2899 159.842 14.3245 159.64 14.3245 159.409C14.3245 159.198 14.2945 159.023 14.2347 158.885C14.1748 158.742 14.0942 158.634 13.9929 158.56C13.887 158.486 13.765 158.449 13.6269 158.449Z" fill="#637173"/>
<path d="M113.87 330.961L115.866 323.944H116.833L116.274 326.672L114.126 334H113.166L113.87 330.961ZM111.805 323.944L113.394 330.823L113.87 334H112.917L110.479 323.944H111.805ZM119.416 330.816L120.971 323.944H122.304L119.872 334H118.919L119.416 330.816ZM116.978 323.944L118.919 330.961L119.624 334H118.664L116.592 326.672L116.025 323.944H116.978ZM126.468 334.138C125.948 334.138 125.476 334.051 125.053 333.876C124.633 333.696 124.272 333.445 123.968 333.123C123.669 332.8 123.439 332.418 123.277 331.976C123.116 331.534 123.036 331.051 123.036 330.526V330.236C123.036 329.628 123.125 329.087 123.305 328.613C123.485 328.134 123.729 327.729 124.037 327.397C124.346 327.065 124.696 326.814 125.087 326.644C125.478 326.474 125.884 326.389 126.303 326.389C126.837 326.389 127.297 326.481 127.684 326.665C128.075 326.849 128.395 327.107 128.644 327.438C128.893 327.765 129.077 328.152 129.197 328.599C129.316 329.041 129.376 329.524 129.376 330.049V330.623H123.795V329.58H128.098V329.483C128.08 329.151 128.011 328.829 127.891 328.516C127.776 328.203 127.592 327.945 127.339 327.742C127.085 327.54 126.74 327.438 126.303 327.438C126.013 327.438 125.746 327.501 125.501 327.625C125.257 327.745 125.048 327.924 124.873 328.164C124.698 328.403 124.562 328.695 124.465 329.041C124.369 329.386 124.32 329.784 124.32 330.236V330.526C124.32 330.88 124.369 331.214 124.465 331.527C124.567 331.836 124.712 332.108 124.901 332.342C125.094 332.577 125.326 332.761 125.598 332.895C125.874 333.028 126.188 333.095 126.538 333.095C126.989 333.095 127.371 333.003 127.684 332.819C127.997 332.635 128.271 332.388 128.506 332.08L129.28 332.695C129.118 332.939 128.913 333.171 128.665 333.392C128.416 333.613 128.11 333.793 127.746 333.931C127.387 334.069 126.961 334.138 126.468 334.138ZM135.22 332.018C135.22 331.834 135.178 331.663 135.095 331.507C135.017 331.345 134.853 331.2 134.605 331.071C134.361 330.938 133.992 330.823 133.5 330.726C133.085 330.639 132.71 330.535 132.374 330.415C132.042 330.296 131.759 330.151 131.524 329.98C131.294 329.81 131.117 329.609 130.992 329.379C130.868 329.149 130.806 328.88 130.806 328.571C130.806 328.276 130.87 327.998 130.999 327.735C131.133 327.473 131.319 327.24 131.559 327.038C131.803 326.835 132.095 326.676 132.436 326.561C132.777 326.446 133.157 326.389 133.576 326.389C134.174 326.389 134.685 326.494 135.109 326.706C135.533 326.918 135.857 327.201 136.083 327.556C136.309 327.906 136.421 328.295 136.421 328.723H135.144C135.144 328.516 135.081 328.316 134.957 328.122C134.837 327.924 134.66 327.761 134.425 327.632C134.195 327.503 133.912 327.438 133.576 327.438C133.221 327.438 132.933 327.494 132.712 327.604C132.496 327.71 132.337 327.846 132.236 328.012C132.139 328.177 132.091 328.352 132.091 328.537C132.091 328.675 132.114 328.799 132.16 328.91C132.21 329.015 132.298 329.114 132.422 329.207C132.547 329.294 132.722 329.377 132.947 329.455C133.173 329.534 133.461 329.612 133.811 329.69C134.423 329.828 134.927 329.994 135.323 330.187C135.719 330.381 136.014 330.618 136.207 330.899C136.401 331.18 136.497 331.52 136.497 331.921C136.497 332.248 136.428 332.547 136.29 332.819C136.157 333.091 135.961 333.325 135.703 333.523C135.45 333.717 135.146 333.869 134.791 333.979C134.441 334.085 134.048 334.138 133.61 334.138C132.952 334.138 132.395 334.021 131.939 333.786C131.483 333.551 131.138 333.247 130.903 332.874C130.668 332.501 130.55 332.108 130.55 331.693H131.835C131.854 332.043 131.955 332.322 132.139 332.529C132.323 332.731 132.549 332.876 132.816 332.964C133.083 333.047 133.348 333.088 133.61 333.088C133.96 333.088 134.253 333.042 134.487 332.95C134.727 332.858 134.909 332.731 135.033 332.57C135.157 332.409 135.22 332.225 135.22 332.018ZM141.305 326.527V327.507H137.264V326.527H141.305ZM138.632 324.71H139.909V332.149C139.909 332.402 139.948 332.593 140.027 332.722C140.105 332.851 140.206 332.936 140.331 332.978C140.455 333.019 140.589 333.04 140.731 333.04C140.837 333.04 140.948 333.031 141.063 333.012C141.183 332.989 141.272 332.971 141.332 332.957L141.339 334C141.238 334.032 141.104 334.062 140.938 334.09C140.777 334.122 140.582 334.138 140.351 334.138C140.038 334.138 139.75 334.076 139.488 333.952C139.226 333.827 139.016 333.62 138.859 333.33C138.708 333.035 138.632 332.639 138.632 332.142V324.71ZM145.905 334.138C145.384 334.138 144.912 334.051 144.489 333.876C144.07 333.696 143.708 333.445 143.404 333.123C143.105 332.8 142.875 332.418 142.714 331.976C142.552 331.534 142.472 331.051 142.472 330.526V330.236C142.472 329.628 142.562 329.087 142.741 328.613C142.921 328.134 143.165 327.729 143.473 327.397C143.782 327.065 144.132 326.814 144.523 326.644C144.915 326.474 145.32 326.389 145.739 326.389C146.273 326.389 146.733 326.481 147.12 326.665C147.512 326.849 147.832 327.107 148.08 327.438C148.329 327.765 148.513 328.152 148.633 328.599C148.753 329.041 148.812 329.524 148.812 330.049V330.623H143.232V329.58H147.535V329.483C147.516 329.151 147.447 328.829 147.327 328.516C147.212 328.203 147.028 327.945 146.775 327.742C146.522 327.54 146.176 327.438 145.739 327.438C145.449 327.438 145.182 327.501 144.938 327.625C144.694 327.745 144.484 327.924 144.309 328.164C144.134 328.403 143.998 328.695 143.902 329.041C143.805 329.386 143.756 329.784 143.756 330.236V330.526C143.756 330.88 143.805 331.214 143.902 331.527C144.003 331.836 144.148 332.108 144.337 332.342C144.53 332.577 144.763 332.761 145.034 332.895C145.311 333.028 145.624 333.095 145.974 333.095C146.425 333.095 146.807 333.003 147.12 332.819C147.433 332.635 147.707 332.388 147.942 332.08L148.716 332.695C148.555 332.939 148.35 333.171 148.101 333.392C147.852 333.613 147.546 333.793 147.182 333.931C146.823 334.069 146.397 334.138 145.905 334.138ZM151.582 327.701V334H150.304V326.527H151.548L151.582 327.701ZM153.917 326.485L153.91 327.673C153.804 327.65 153.702 327.636 153.606 327.632C153.514 327.623 153.408 327.618 153.288 327.618C152.993 327.618 152.733 327.664 152.508 327.756C152.282 327.848 152.091 327.977 151.934 328.143C151.778 328.309 151.653 328.507 151.561 328.737C151.474 328.963 151.416 329.211 151.389 329.483L151.029 329.69C151.029 329.239 151.073 328.815 151.161 328.419C151.253 328.023 151.393 327.673 151.582 327.369C151.771 327.061 152.01 326.821 152.3 326.651C152.595 326.476 152.945 326.389 153.35 326.389C153.442 326.389 153.548 326.4 153.668 326.423C153.788 326.442 153.871 326.462 153.917 326.485ZM156.375 328.122V334H155.098V326.527H156.306L156.375 328.122ZM156.072 329.98L155.54 329.959C155.544 329.448 155.62 328.976 155.768 328.544C155.915 328.106 156.122 327.726 156.389 327.404C156.656 327.082 156.974 326.833 157.342 326.658C157.715 326.478 158.128 326.389 158.579 326.389C158.947 326.389 159.279 326.439 159.573 326.541C159.868 326.637 160.119 326.794 160.326 327.01C160.538 327.227 160.699 327.507 160.81 327.853C160.92 328.194 160.975 328.61 160.975 329.103V334H159.691V329.089C159.691 328.698 159.633 328.385 159.518 328.15C159.403 327.91 159.235 327.738 159.014 327.632C158.793 327.521 158.521 327.466 158.199 327.466C157.881 327.466 157.591 327.533 157.329 327.666C157.071 327.8 156.847 327.984 156.659 328.219C156.474 328.454 156.329 328.723 156.224 329.027C156.122 329.326 156.072 329.644 156.072 329.98ZM112.143 340.944H113.47V347.747C113.47 348.502 113.302 349.131 112.965 349.632C112.629 350.134 112.183 350.512 111.625 350.765C111.073 351.014 110.472 351.138 109.823 351.138C109.141 351.138 108.524 351.014 107.972 350.765C107.424 350.512 106.989 350.134 106.666 349.632C106.349 349.131 106.19 348.502 106.19 347.747V340.944H107.509V347.747C107.509 348.272 107.606 348.705 107.799 349.045C107.992 349.386 108.262 349.639 108.607 349.805C108.957 349.971 109.362 350.054 109.823 350.054C110.288 350.054 110.693 349.971 111.038 349.805C111.388 349.639 111.66 349.386 111.853 349.045C112.047 348.705 112.143 348.272 112.143 347.747V340.944ZM116.647 345.122V351H115.369V343.527H116.578L116.647 345.122ZM116.343 346.98L115.811 346.959C115.816 346.448 115.892 345.976 116.039 345.544C116.186 345.106 116.394 344.726 116.661 344.404C116.928 344.082 117.245 343.833 117.614 343.658C117.987 343.478 118.399 343.389 118.85 343.389C119.218 343.389 119.55 343.439 119.845 343.541C120.139 343.637 120.39 343.794 120.598 344.01C120.809 344.227 120.971 344.507 121.081 344.853C121.192 345.194 121.247 345.61 121.247 346.103V351H119.962V346.089C119.962 345.698 119.905 345.385 119.789 345.15C119.674 344.91 119.506 344.738 119.285 344.632C119.064 344.521 118.793 344.466 118.47 344.466C118.152 344.466 117.862 344.533 117.6 344.666C117.342 344.8 117.119 344.984 116.93 345.219C116.746 345.454 116.601 345.723 116.495 346.027C116.394 346.326 116.343 346.644 116.343 346.98ZM124.576 343.527V351H123.291V343.527H124.576ZM123.195 341.544C123.195 341.337 123.257 341.162 123.381 341.019C123.51 340.877 123.699 340.805 123.947 340.805C124.191 340.805 124.378 340.877 124.507 341.019C124.64 341.162 124.707 341.337 124.707 341.544C124.707 341.742 124.64 341.913 124.507 342.056C124.378 342.194 124.191 342.263 123.947 342.263C123.699 342.263 123.51 342.194 123.381 342.056C123.257 341.913 123.195 341.742 123.195 341.544ZM128.9 349.847L130.944 343.527H132.25L129.563 351H128.706L128.9 349.847ZM127.194 343.527L129.3 349.881L129.445 351H128.589L125.881 343.527H127.194ZM136.483 351.138C135.963 351.138 135.491 351.051 135.068 350.876C134.649 350.696 134.287 350.445 133.983 350.123C133.684 349.8 133.454 349.418 133.292 348.976C133.131 348.534 133.051 348.051 133.051 347.526V347.236C133.051 346.628 133.141 346.087 133.32 345.613C133.5 345.134 133.744 344.729 134.052 344.397C134.361 344.065 134.711 343.814 135.102 343.644C135.493 343.474 135.899 343.389 136.318 343.389C136.852 343.389 137.312 343.481 137.699 343.665C138.09 343.849 138.411 344.107 138.659 344.438C138.908 344.765 139.092 345.152 139.212 345.599C139.331 346.041 139.391 346.524 139.391 347.049V347.623H133.811V346.58H138.114V346.483C138.095 346.151 138.026 345.829 137.906 345.516C137.791 345.203 137.607 344.945 137.354 344.742C137.101 344.54 136.755 344.438 136.318 344.438C136.028 344.438 135.761 344.501 135.517 344.625C135.272 344.745 135.063 344.924 134.888 345.164C134.713 345.403 134.577 345.695 134.48 346.041C134.384 346.386 134.335 346.784 134.335 347.236V347.526C134.335 347.88 134.384 348.214 134.48 348.527C134.582 348.836 134.727 349.108 134.916 349.342C135.109 349.577 135.342 349.761 135.613 349.895C135.889 350.028 136.203 350.095 136.553 350.095C137.004 350.095 137.386 350.003 137.699 349.819C138.012 349.635 138.286 349.388 138.521 349.08L139.295 349.695C139.133 349.939 138.929 350.171 138.68 350.392C138.431 350.613 138.125 350.793 137.761 350.931C137.402 351.069 136.976 351.138 136.483 351.138ZM142.161 344.701V351H140.883V343.527H142.126L142.161 344.701ZM144.496 343.485L144.489 344.673C144.383 344.65 144.281 344.636 144.185 344.632C144.093 344.623 143.987 344.618 143.867 344.618C143.572 344.618 143.312 344.664 143.087 344.756C142.861 344.848 142.67 344.977 142.513 345.143C142.357 345.309 142.232 345.507 142.14 345.737C142.053 345.963 141.995 346.211 141.968 346.483L141.608 346.69C141.608 346.239 141.652 345.815 141.74 345.419C141.832 345.023 141.972 344.673 142.161 344.369C142.35 344.061 142.589 343.821 142.879 343.651C143.174 343.476 143.524 343.389 143.929 343.389C144.021 343.389 144.127 343.4 144.247 343.423C144.367 343.442 144.449 343.462 144.496 343.485ZM150.028 349.018C150.028 348.834 149.987 348.663 149.904 348.507C149.825 348.345 149.662 348.2 149.413 348.071C149.169 347.938 148.801 347.823 148.308 347.726C147.894 347.639 147.518 347.535 147.182 347.415C146.851 347.296 146.568 347.151 146.333 346.98C146.103 346.81 145.925 346.609 145.801 346.379C145.677 346.149 145.614 345.88 145.614 345.571C145.614 345.276 145.679 344.998 145.808 344.735C145.941 344.473 146.128 344.24 146.367 344.038C146.611 343.835 146.904 343.676 147.244 343.561C147.585 343.446 147.965 343.389 148.384 343.389C148.983 343.389 149.494 343.494 149.917 343.706C150.341 343.918 150.666 344.201 150.891 344.556C151.117 344.906 151.23 345.295 151.23 345.723H149.952C149.952 345.516 149.89 345.316 149.766 345.122C149.646 344.924 149.469 344.761 149.234 344.632C149.003 344.503 148.72 344.438 148.384 344.438C148.03 344.438 147.742 344.494 147.521 344.604C147.304 344.71 147.145 344.846 147.044 345.012C146.947 345.177 146.899 345.352 146.899 345.537C146.899 345.675 146.922 345.799 146.968 345.91C147.019 346.015 147.106 346.114 147.231 346.207C147.355 346.294 147.53 346.377 147.756 346.455C147.981 346.534 148.269 346.612 148.619 346.69C149.231 346.828 149.736 346.994 150.132 347.187C150.528 347.381 150.822 347.618 151.016 347.899C151.209 348.18 151.306 348.52 151.306 348.921C151.306 349.248 151.237 349.547 151.099 349.819C150.965 350.091 150.769 350.325 150.511 350.523C150.258 350.717 149.954 350.869 149.6 350.979C149.25 351.085 148.856 351.138 148.419 351.138C147.76 351.138 147.203 351.021 146.747 350.786C146.291 350.551 145.946 350.247 145.711 349.874C145.476 349.501 145.359 349.108 145.359 348.693H146.644C146.662 349.043 146.763 349.322 146.947 349.529C147.132 349.731 147.357 349.876 147.624 349.964C147.891 350.047 148.156 350.088 148.419 350.088C148.769 350.088 149.061 350.042 149.296 349.95C149.535 349.858 149.717 349.731 149.841 349.57C149.966 349.409 150.028 349.225 150.028 349.018ZM154.372 343.527V351H153.088V343.527H154.372ZM152.991 341.544C152.991 341.337 153.053 341.162 153.178 341.019C153.306 340.877 153.495 340.805 153.744 340.805C153.988 340.805 154.174 340.877 154.303 341.019C154.437 341.162 154.504 341.337 154.504 341.544C154.504 341.742 154.437 341.913 154.303 342.056C154.174 342.194 153.988 342.263 153.744 342.263C153.495 342.263 153.306 342.194 153.178 342.056C153.053 341.913 152.991 341.742 152.991 341.544ZM159.553 343.527V344.507H155.512V343.527H159.553ZM156.88 341.71H158.157V349.149C158.157 349.402 158.197 349.593 158.275 349.722C158.353 349.851 158.454 349.936 158.579 349.978C158.703 350.019 158.837 350.04 158.979 350.04C159.085 350.04 159.196 350.031 159.311 350.012C159.431 349.989 159.52 349.971 159.58 349.957L159.587 351C159.486 351.032 159.352 351.062 159.187 351.09C159.025 351.122 158.83 351.138 158.599 351.138C158.286 351.138 157.999 351.076 157.736 350.952C157.474 350.827 157.264 350.62 157.108 350.33C156.956 350.035 156.88 349.639 156.88 349.142V341.71ZM163.151 350.226L165.23 343.527H166.598L163.6 352.153C163.531 352.338 163.439 352.536 163.324 352.747C163.213 352.964 163.071 353.169 162.896 353.362C162.721 353.556 162.509 353.712 162.26 353.832C162.016 353.956 161.724 354.018 161.383 354.018C161.282 354.018 161.153 354.005 160.996 353.977C160.84 353.949 160.729 353.926 160.665 353.908L160.658 352.872C160.695 352.876 160.752 352.881 160.83 352.886C160.913 352.895 160.971 352.899 161.003 352.899C161.293 352.899 161.54 352.86 161.742 352.782C161.945 352.708 162.115 352.582 162.253 352.402C162.396 352.227 162.518 351.985 162.619 351.677L163.151 350.226ZM161.625 343.527L163.566 349.329L163.897 350.675L162.978 351.145L160.23 343.527H161.625Z" fill="#637173"/>
<path d="M212.626 334.458C212.626 334.223 212.589 334.016 212.515 333.837C212.446 333.652 212.322 333.487 212.142 333.339C211.967 333.192 211.723 333.052 211.41 332.918C211.102 332.784 210.71 332.649 210.236 332.51C209.739 332.363 209.29 332.2 208.889 332.02C208.488 331.836 208.145 331.626 207.86 331.392C207.574 331.157 207.356 330.887 207.204 330.583C207.052 330.28 206.976 329.932 206.976 329.541C206.976 329.149 207.056 328.788 207.218 328.456C207.379 328.125 207.609 327.837 207.908 327.593C208.212 327.344 208.574 327.151 208.993 327.013C209.412 326.874 209.879 326.805 210.395 326.805C211.15 326.805 211.79 326.95 212.315 327.241C212.844 327.526 213.247 327.901 213.524 328.366C213.8 328.827 213.938 329.319 213.938 329.844H212.612C212.612 329.467 212.531 329.133 212.37 328.843C212.209 328.548 211.965 328.318 211.638 328.152C211.311 327.982 210.897 327.897 210.395 327.897C209.921 327.897 209.529 327.968 209.221 328.111C208.912 328.254 208.682 328.447 208.53 328.691C208.383 328.935 208.309 329.214 208.309 329.527C208.309 329.739 208.353 329.932 208.44 330.107C208.532 330.277 208.673 330.436 208.861 330.583C209.055 330.731 209.299 330.867 209.594 330.991C209.893 331.115 210.25 331.235 210.664 331.35C211.235 331.511 211.728 331.691 212.142 331.889C212.557 332.087 212.897 332.31 213.164 332.559C213.436 332.803 213.636 333.081 213.765 333.395C213.899 333.703 213.966 334.053 213.966 334.444C213.966 334.854 213.883 335.225 213.717 335.556C213.551 335.888 213.314 336.171 213.006 336.406C212.697 336.641 212.326 336.823 211.894 336.952C211.465 337.076 210.986 337.138 210.457 337.138C209.992 337.138 209.534 337.074 209.082 336.945C208.636 336.816 208.228 336.622 207.86 336.365C207.496 336.107 207.204 335.789 206.983 335.411C206.766 335.029 206.658 334.587 206.658 334.085H207.984C207.984 334.431 208.051 334.728 208.185 334.976C208.318 335.22 208.5 335.423 208.73 335.584C208.965 335.745 209.23 335.865 209.525 335.943C209.824 336.017 210.135 336.054 210.457 336.054C210.922 336.054 211.316 335.989 211.638 335.86C211.96 335.731 212.204 335.547 212.37 335.308C212.541 335.068 212.626 334.785 212.626 334.458ZM215.133 333.346V333.187C215.133 332.649 215.211 332.149 215.368 331.689C215.524 331.224 215.75 330.821 216.045 330.48C216.339 330.135 216.696 329.867 217.115 329.679C217.534 329.485 218.004 329.389 218.524 329.389C219.049 329.389 219.521 329.485 219.94 329.679C220.364 329.867 220.723 330.135 221.018 330.48C221.317 330.821 221.545 331.224 221.701 331.689C221.858 332.149 221.936 332.649 221.936 333.187V333.346C221.936 333.885 221.858 334.385 221.701 334.845C221.545 335.305 221.317 335.708 221.018 336.054C220.723 336.394 220.366 336.662 219.947 336.855C219.533 337.044 219.063 337.138 218.538 337.138C218.013 337.138 217.541 337.044 217.122 336.855C216.703 336.662 216.344 336.394 216.045 336.054C215.75 335.708 215.524 335.305 215.368 334.845C215.211 334.385 215.133 333.885 215.133 333.346ZM216.411 333.187V333.346C216.411 333.719 216.454 334.071 216.542 334.403C216.629 334.73 216.761 335.02 216.936 335.273C217.115 335.527 217.339 335.727 217.606 335.874C217.873 336.017 218.184 336.088 218.538 336.088C218.888 336.088 219.194 336.017 219.457 335.874C219.724 335.727 219.945 335.527 220.12 335.273C220.295 335.02 220.426 334.73 220.513 334.403C220.606 334.071 220.652 333.719 220.652 333.346V333.187C220.652 332.819 220.606 332.471 220.513 332.144C220.426 331.813 220.292 331.52 220.113 331.267C219.938 331.009 219.717 330.807 219.45 330.659C219.187 330.512 218.879 330.438 218.524 330.438C218.174 330.438 217.866 330.512 217.599 330.659C217.336 330.807 217.115 331.009 216.936 331.267C216.761 331.52 216.629 331.813 216.542 332.144C216.454 332.471 216.411 332.819 216.411 333.187ZM228.111 335.273V329.527H229.396V337H228.173L228.111 335.273ZM228.353 333.698L228.885 333.685C228.885 334.182 228.832 334.642 228.726 335.066C228.625 335.485 228.459 335.849 228.229 336.157C227.998 336.466 227.697 336.708 227.324 336.883C226.951 337.053 226.497 337.138 225.963 337.138C225.599 337.138 225.265 337.085 224.962 336.979C224.662 336.873 224.404 336.71 224.188 336.489C223.972 336.268 223.803 335.98 223.684 335.626C223.569 335.271 223.511 334.845 223.511 334.348V329.527H224.789V334.362C224.789 334.698 224.826 334.976 224.899 335.197C224.978 335.414 225.081 335.586 225.21 335.715C225.344 335.84 225.491 335.927 225.652 335.978C225.818 336.028 225.988 336.054 226.163 336.054C226.707 336.054 227.137 335.95 227.455 335.743C227.773 335.531 228.001 335.248 228.139 334.893C228.281 334.534 228.353 334.136 228.353 333.698ZM234.472 329.527V330.507H230.432V329.527H234.472ZM231.799 327.71H233.077V335.149C233.077 335.402 233.116 335.593 233.195 335.722C233.273 335.851 233.374 335.936 233.498 335.978C233.623 336.019 233.756 336.04 233.899 336.04C234.005 336.04 234.116 336.031 234.231 336.012C234.35 335.989 234.44 335.971 234.5 335.957L234.507 337C234.406 337.032 234.272 337.062 234.106 337.09C233.945 337.122 233.749 337.138 233.519 337.138C233.206 337.138 232.918 337.076 232.656 336.952C232.393 336.827 232.184 336.62 232.027 336.33C231.875 336.035 231.799 335.639 231.799 335.142V327.71ZM237.249 326.391V337H235.971V326.391H237.249ZM236.945 332.98L236.413 332.959C236.418 332.448 236.494 331.976 236.641 331.544C236.788 331.106 236.996 330.726 237.263 330.404C237.53 330.082 237.848 329.833 238.216 329.658C238.589 329.478 239.001 329.389 239.452 329.389C239.821 329.389 240.152 329.439 240.447 329.541C240.742 329.637 240.993 329.794 241.2 330.01C241.412 330.227 241.573 330.507 241.683 330.853C241.794 331.194 241.849 331.61 241.849 332.103V337H240.564V332.089C240.564 331.698 240.507 331.385 240.392 331.15C240.276 330.91 240.108 330.738 239.887 330.632C239.666 330.521 239.395 330.466 239.072 330.466C238.755 330.466 238.465 330.533 238.202 330.666C237.944 330.8 237.721 330.984 237.532 331.219C237.348 331.454 237.203 331.723 237.097 332.027C236.996 332.326 236.945 332.644 236.945 332.98ZM246.863 337.138C246.343 337.138 245.871 337.051 245.447 336.876C245.028 336.696 244.667 336.445 244.363 336.123C244.064 335.8 243.834 335.418 243.672 334.976C243.511 334.534 243.431 334.051 243.431 333.526V333.236C243.431 332.628 243.52 332.087 243.7 331.613C243.88 331.134 244.124 330.729 244.432 330.397C244.741 330.065 245.091 329.814 245.482 329.644C245.873 329.474 246.279 329.389 246.698 329.389C247.232 329.389 247.692 329.481 248.079 329.665C248.47 329.849 248.79 330.107 249.039 330.438C249.288 330.765 249.472 331.152 249.592 331.599C249.711 332.041 249.771 332.524 249.771 333.049V333.623H244.19V332.58H248.493V332.483C248.475 332.151 248.406 331.829 248.286 331.516C248.171 331.203 247.987 330.945 247.734 330.742C247.48 330.54 247.135 330.438 246.698 330.438C246.408 330.438 246.14 330.501 245.896 330.625C245.652 330.745 245.443 330.924 245.268 331.164C245.093 331.403 244.957 331.695 244.86 332.041C244.764 332.386 244.715 332.784 244.715 333.236V333.526C244.715 333.88 244.764 334.214 244.86 334.527C244.962 334.836 245.107 335.108 245.296 335.342C245.489 335.577 245.721 335.761 245.993 335.895C246.269 336.028 246.583 336.095 246.932 336.095C247.384 336.095 247.766 336.003 248.079 335.819C248.392 335.635 248.666 335.388 248.901 335.08L249.675 335.695C249.513 335.939 249.308 336.171 249.06 336.392C248.811 336.613 248.505 336.793 248.141 336.931C247.782 337.069 247.356 337.138 246.863 337.138ZM252.541 330.701V337H251.263V329.527H252.506L252.541 330.701ZM254.875 329.485L254.869 330.673C254.763 330.65 254.661 330.636 254.565 330.632C254.473 330.623 254.367 330.618 254.247 330.618C253.952 330.618 253.692 330.664 253.466 330.756C253.241 330.848 253.05 330.977 252.893 331.143C252.737 331.309 252.612 331.507 252.52 331.737C252.433 331.963 252.375 332.211 252.348 332.483L251.988 332.69C251.988 332.239 252.032 331.815 252.12 331.419C252.212 331.023 252.352 330.673 252.541 330.369C252.73 330.061 252.969 329.821 253.259 329.651C253.554 329.476 253.904 329.389 254.309 329.389C254.401 329.389 254.507 329.4 254.627 329.423C254.747 329.442 254.829 329.462 254.875 329.485ZM257.334 331.122V337H256.057V329.527H257.265L257.334 331.122ZM257.03 332.98L256.499 332.959C256.503 332.448 256.579 331.976 256.727 331.544C256.874 331.106 257.081 330.726 257.348 330.404C257.615 330.082 257.933 329.833 258.301 329.658C258.674 329.478 259.086 329.389 259.538 329.389C259.906 329.389 260.238 329.439 260.532 329.541C260.827 329.637 261.078 329.794 261.285 330.01C261.497 330.227 261.658 330.507 261.769 330.853C261.879 331.194 261.934 331.61 261.934 332.103V337H260.65V332.089C260.65 331.698 260.592 331.385 260.477 331.15C260.362 330.91 260.194 330.738 259.973 330.632C259.752 330.521 259.48 330.466 259.158 330.466C258.84 330.466 258.55 330.533 258.287 330.666C258.03 330.8 257.806 330.984 257.618 331.219C257.433 331.454 257.288 331.723 257.182 332.027C257.081 332.326 257.03 332.644 257.03 332.98ZM210.643 343.944H211.97V350.747C211.97 351.502 211.802 352.131 211.465 352.632C211.129 353.134 210.683 353.512 210.125 353.765C209.573 354.014 208.972 354.138 208.323 354.138C207.641 354.138 207.024 354.014 206.472 353.765C205.924 353.512 205.489 353.134 205.166 352.632C204.849 352.131 204.69 351.502 204.69 350.747V343.944H206.009V350.747C206.009 351.272 206.106 351.705 206.299 352.045C206.492 352.386 206.762 352.639 207.107 352.805C207.457 352.971 207.862 353.054 208.323 353.054C208.788 353.054 209.193 352.971 209.538 352.805C209.888 352.639 210.16 352.386 210.353 352.045C210.547 351.705 210.643 351.272 210.643 350.747V343.944ZM215.147 348.122V354H213.869V346.527H215.078L215.147 348.122ZM214.843 349.98L214.311 349.959C214.316 349.448 214.392 348.976 214.539 348.544C214.686 348.106 214.894 347.726 215.161 347.404C215.428 347.082 215.745 346.833 216.114 346.658C216.487 346.478 216.899 346.389 217.35 346.389C217.718 346.389 218.05 346.439 218.345 346.541C218.639 346.637 218.89 346.794 219.098 347.01C219.309 347.227 219.471 347.507 219.581 347.853C219.692 348.194 219.747 348.61 219.747 349.103V354H218.462V349.089C218.462 348.698 218.405 348.385 218.289 348.15C218.174 347.91 218.006 347.738 217.785 347.632C217.564 347.521 217.293 347.466 216.97 347.466C216.652 347.466 216.362 347.533 216.1 347.666C215.842 347.8 215.619 347.984 215.43 348.219C215.246 348.454 215.101 348.723 214.995 349.027C214.894 349.326 214.843 349.644 214.843 349.98ZM223.076 346.527V354H221.791V346.527H223.076ZM221.695 344.544C221.695 344.337 221.757 344.162 221.881 344.019C222.01 343.877 222.199 343.805 222.447 343.805C222.691 343.805 222.878 343.877 223.007 344.019C223.14 344.162 223.207 344.337 223.207 344.544C223.207 344.742 223.14 344.913 223.007 345.056C222.878 345.194 222.691 345.263 222.447 345.263C222.199 345.263 222.01 345.194 221.881 345.056C221.757 344.913 221.695 344.742 221.695 344.544ZM227.4 352.847L229.444 346.527H230.75L228.063 354H227.206L227.4 352.847ZM225.694 346.527L227.8 352.881L227.945 354H227.089L224.381 346.527H225.694ZM234.983 354.138C234.463 354.138 233.991 354.051 233.568 353.876C233.149 353.696 232.787 353.445 232.483 353.123C232.184 352.8 231.954 352.418 231.792 351.976C231.631 351.534 231.551 351.051 231.551 350.526V350.236C231.551 349.628 231.641 349.087 231.82 348.613C232 348.134 232.244 347.729 232.552 347.397C232.861 347.065 233.211 346.814 233.602 346.644C233.993 346.474 234.399 346.389 234.818 346.389C235.352 346.389 235.812 346.481 236.199 346.665C236.59 346.849 236.911 347.107 237.159 347.438C237.408 347.765 237.592 348.152 237.712 348.599C237.831 349.041 237.891 349.524 237.891 350.049V350.623H232.311V349.58H236.614V349.483C236.595 349.151 236.526 348.829 236.406 348.516C236.291 348.203 236.107 347.945 235.854 347.742C235.601 347.54 235.255 347.438 234.818 347.438C234.528 347.438 234.261 347.501 234.017 347.625C233.772 347.745 233.563 347.924 233.388 348.164C233.213 348.403 233.077 348.695 232.98 349.041C232.884 349.386 232.835 349.784 232.835 350.236V350.526C232.835 350.88 232.884 351.214 232.98 351.527C233.082 351.836 233.227 352.108 233.416 352.342C233.609 352.577 233.842 352.761 234.113 352.895C234.389 353.028 234.703 353.095 235.053 353.095C235.504 353.095 235.886 353.003 236.199 352.819C236.512 352.635 236.786 352.388 237.021 352.08L237.795 352.695C237.633 352.939 237.429 353.171 237.18 353.392C236.931 353.613 236.625 353.793 236.261 353.931C235.902 354.069 235.476 354.138 234.983 354.138ZM240.661 347.701V354H239.383V346.527H240.626L240.661 347.701ZM242.996 346.485L242.989 347.673C242.883 347.65 242.781 347.636 242.685 347.632C242.593 347.623 242.487 347.618 242.367 347.618C242.072 347.618 241.812 347.664 241.587 347.756C241.361 347.848 241.17 347.977 241.013 348.143C240.857 348.309 240.732 348.507 240.64 348.737C240.553 348.963 240.495 349.211 240.468 349.483L240.108 349.69C240.108 349.239 240.152 348.815 240.24 348.419C240.332 348.023 240.472 347.673 240.661 347.369C240.85 347.061 241.089 346.821 241.379 346.651C241.674 346.476 242.024 346.389 242.429 346.389C242.521 346.389 242.627 346.4 242.747 346.423C242.867 346.442 242.949 346.462 242.996 346.485ZM248.528 352.018C248.528 351.834 248.487 351.663 248.404 351.507C248.325 351.345 248.162 351.2 247.913 351.071C247.669 350.938 247.301 350.823 246.808 350.726C246.394 350.639 246.018 350.535 245.682 350.415C245.351 350.296 245.068 350.151 244.833 349.98C244.603 349.81 244.425 349.609 244.301 349.379C244.177 349.149 244.114 348.88 244.114 348.571C244.114 348.276 244.179 347.998 244.308 347.735C244.441 347.473 244.628 347.24 244.867 347.038C245.111 346.835 245.404 346.676 245.744 346.561C246.085 346.446 246.465 346.389 246.884 346.389C247.483 346.389 247.994 346.494 248.417 346.706C248.841 346.918 249.166 347.201 249.391 347.556C249.617 347.906 249.73 348.295 249.73 348.723H248.452C248.452 348.516 248.39 348.316 248.266 348.122C248.146 347.924 247.969 347.761 247.734 347.632C247.503 347.503 247.22 347.438 246.884 347.438C246.53 347.438 246.242 347.494 246.021 347.604C245.804 347.71 245.645 347.846 245.544 348.012C245.447 348.177 245.399 348.352 245.399 348.537C245.399 348.675 245.422 348.799 245.468 348.91C245.519 349.015 245.606 349.114 245.731 349.207C245.855 349.294 246.03 349.377 246.256 349.455C246.481 349.534 246.769 349.612 247.119 349.69C247.731 349.828 248.236 349.994 248.632 350.187C249.028 350.381 249.322 350.618 249.516 350.899C249.709 351.18 249.806 351.52 249.806 351.921C249.806 352.248 249.737 352.547 249.599 352.819C249.465 353.091 249.269 353.325 249.011 353.523C248.758 353.717 248.454 353.869 248.1 353.979C247.75 354.085 247.356 354.138 246.919 354.138C246.26 354.138 245.703 354.021 245.247 353.786C244.791 353.551 244.446 353.247 244.211 352.874C243.976 352.501 243.859 352.108 243.859 351.693H245.144C245.162 352.043 245.263 352.322 245.447 352.529C245.632 352.731 245.857 352.876 246.124 352.964C246.391 353.047 246.656 353.088 246.919 353.088C247.269 353.088 247.561 353.042 247.796 352.95C248.035 352.858 248.217 352.731 248.341 352.57C248.466 352.409 248.528 352.225 248.528 352.018ZM252.872 346.527V354H251.588V346.527H252.872ZM251.491 344.544C251.491 344.337 251.553 344.162 251.678 344.019C251.806 343.877 251.995 343.805 252.244 343.805C252.488 343.805 252.674 343.877 252.803 344.019C252.937 344.162 253.004 344.337 253.004 344.544C253.004 344.742 252.937 344.913 252.803 345.056C252.674 345.194 252.488 345.263 252.244 345.263C251.995 345.263 251.806 345.194 251.678 345.056C251.553 344.913 251.491 344.742 251.491 344.544ZM258.053 346.527V347.507H254.012V346.527H258.053ZM255.38 344.71H256.657V352.149C256.657 352.402 256.697 352.593 256.775 352.722C256.853 352.851 256.954 352.936 257.079 352.978C257.203 353.019 257.337 353.04 257.479 353.04C257.585 353.04 257.696 353.031 257.811 353.012C257.931 352.989 258.02 352.971 258.08 352.957L258.087 354C257.986 354.032 257.852 354.062 257.687 354.09C257.525 354.122 257.33 354.138 257.099 354.138C256.786 354.138 256.499 354.076 256.236 353.952C255.974 353.827 255.764 353.62 255.608 353.33C255.456 353.035 255.38 352.639 255.38 352.142V344.71ZM261.651 353.226L263.73 346.527H265.098L262.1 355.153C262.031 355.338 261.939 355.536 261.824 355.747C261.713 355.964 261.571 356.169 261.396 356.362C261.221 356.556 261.009 356.712 260.76 356.832C260.516 356.956 260.224 357.018 259.883 357.018C259.782 357.018 259.653 357.005 259.496 356.977C259.34 356.949 259.229 356.926 259.165 356.908L259.158 355.872C259.195 355.876 259.252 355.881 259.33 355.886C259.413 355.895 259.471 355.899 259.503 355.899C259.793 355.899 260.04 355.86 260.242 355.782C260.445 355.708 260.615 355.582 260.753 355.402C260.896 355.227 261.018 354.985 261.119 354.677L261.651 353.226ZM260.125 346.527L262.066 352.329L262.397 353.675L261.478 354.145L258.73 346.527H260.125Z" fill="#637173"/>
<path d="M317.665 335.916V337H312.34V335.916H317.665ZM312.609 326.944V337H311.276V326.944H312.609ZM316.961 331.267V332.352H312.34V331.267H316.961ZM317.596 326.944V328.035H312.34V326.944H317.596ZM323.529 335.722V331.875C323.529 331.58 323.469 331.325 323.35 331.108C323.234 330.887 323.059 330.717 322.825 330.597C322.59 330.478 322.3 330.418 321.954 330.418C321.632 330.418 321.349 330.473 321.105 330.583C320.865 330.694 320.677 330.839 320.538 331.019C320.405 331.198 320.338 331.392 320.338 331.599H319.06C319.06 331.332 319.129 331.067 319.268 330.804C319.406 330.542 319.604 330.305 319.862 330.093C320.124 329.877 320.437 329.706 320.801 329.582C321.169 329.453 321.579 329.389 322.03 329.389C322.574 329.389 323.053 329.481 323.467 329.665C323.886 329.849 324.213 330.128 324.448 330.501C324.687 330.869 324.807 331.332 324.807 331.889V335.37C324.807 335.619 324.828 335.883 324.869 336.164C324.915 336.445 324.982 336.687 325.069 336.889V337H323.736C323.672 336.853 323.621 336.657 323.584 336.413C323.548 336.164 323.529 335.934 323.529 335.722ZM323.75 332.469L323.764 333.367H322.472C322.109 333.367 321.784 333.397 321.498 333.457C321.213 333.512 320.974 333.597 320.78 333.712C320.587 333.827 320.439 333.972 320.338 334.147C320.237 334.318 320.186 334.518 320.186 334.748C320.186 334.983 320.239 335.197 320.345 335.391C320.451 335.584 320.61 335.738 320.822 335.853C321.038 335.964 321.303 336.019 321.616 336.019C322.007 336.019 322.353 335.936 322.652 335.771C322.951 335.605 323.188 335.402 323.363 335.163C323.543 334.923 323.64 334.691 323.653 334.465L324.199 335.08C324.167 335.273 324.079 335.487 323.937 335.722C323.794 335.957 323.603 336.183 323.363 336.399C323.128 336.611 322.848 336.788 322.521 336.931C322.198 337.069 321.835 337.138 321.429 337.138C320.923 337.138 320.479 337.039 320.096 336.841C319.719 336.643 319.424 336.378 319.212 336.047C319.005 335.711 318.901 335.335 318.901 334.921C318.901 334.52 318.98 334.168 319.136 333.864C319.293 333.556 319.518 333.3 319.813 333.098C320.108 332.89 320.462 332.734 320.877 332.628C321.291 332.522 321.754 332.469 322.265 332.469H323.75ZM331.168 335.018C331.168 334.834 331.127 334.663 331.044 334.507C330.966 334.345 330.802 334.2 330.553 334.071C330.309 333.938 329.941 333.823 329.448 333.726C329.034 333.639 328.659 333.535 328.323 333.415C327.991 333.296 327.708 333.151 327.473 332.98C327.243 332.81 327.065 332.609 326.941 332.379C326.817 332.149 326.755 331.88 326.755 331.571C326.755 331.276 326.819 330.998 326.948 330.735C327.082 330.473 327.268 330.24 327.507 330.038C327.752 329.835 328.044 329.676 328.385 329.561C328.725 329.446 329.105 329.389 329.524 329.389C330.123 329.389 330.634 329.494 331.058 329.706C331.481 329.918 331.806 330.201 332.032 330.556C332.257 330.906 332.37 331.295 332.37 331.723H331.092C331.092 331.516 331.03 331.316 330.906 331.122C330.786 330.924 330.609 330.761 330.374 330.632C330.144 330.503 329.86 330.438 329.524 330.438C329.17 330.438 328.882 330.494 328.661 330.604C328.445 330.71 328.286 330.846 328.184 331.012C328.088 331.177 328.039 331.352 328.039 331.537C328.039 331.675 328.062 331.799 328.108 331.91C328.159 332.015 328.247 332.114 328.371 332.207C328.495 332.294 328.67 332.377 328.896 332.455C329.121 332.534 329.409 332.612 329.759 332.69C330.372 332.828 330.876 332.994 331.272 333.187C331.668 333.381 331.962 333.618 332.156 333.899C332.349 334.18 332.446 334.52 332.446 334.921C332.446 335.248 332.377 335.547 332.239 335.819C332.105 336.091 331.91 336.325 331.652 336.523C331.398 336.717 331.094 336.869 330.74 336.979C330.39 337.085 329.996 337.138 329.559 337.138C328.9 337.138 328.343 337.021 327.887 336.786C327.432 336.551 327.086 336.247 326.851 335.874C326.616 335.501 326.499 335.108 326.499 334.693H327.784C327.802 335.043 327.903 335.322 328.088 335.529C328.272 335.731 328.497 335.876 328.765 335.964C329.032 336.047 329.296 336.088 329.559 336.088C329.909 336.088 330.201 336.042 330.436 335.95C330.675 335.858 330.857 335.731 330.982 335.57C331.106 335.409 331.168 335.225 331.168 335.018ZM337.253 329.527V330.507H333.213V329.527H337.253ZM334.58 327.71H335.858V335.149C335.858 335.402 335.897 335.593 335.975 335.722C336.054 335.851 336.155 335.936 336.279 335.978C336.404 336.019 336.537 336.04 336.68 336.04C336.786 336.04 336.896 336.031 337.011 336.012C337.131 335.989 337.221 335.971 337.281 335.957L337.288 337C337.186 337.032 337.053 337.062 336.887 337.09C336.726 337.122 336.53 337.138 336.3 337.138C335.987 337.138 335.699 337.076 335.437 336.952C335.174 336.827 334.965 336.62 334.808 336.33C334.656 336.035 334.58 335.639 334.58 335.142V327.71ZM341.853 337.138C341.333 337.138 340.861 337.051 340.437 336.876C340.018 336.696 339.657 336.445 339.353 336.123C339.054 335.8 338.823 335.418 338.662 334.976C338.501 334.534 338.42 334.051 338.42 333.526V333.236C338.42 332.628 338.51 332.087 338.69 331.613C338.869 331.134 339.113 330.729 339.422 330.397C339.73 330.065 340.08 329.814 340.472 329.644C340.863 329.474 341.268 329.389 341.687 329.389C342.222 329.389 342.682 329.481 343.069 329.665C343.46 329.849 343.78 330.107 344.029 330.438C344.278 330.765 344.462 331.152 344.581 331.599C344.701 332.041 344.761 332.524 344.761 333.049V333.623H339.18V332.58H343.483V332.483C343.465 332.151 343.396 331.829 343.276 331.516C343.161 331.203 342.977 330.945 342.723 330.742C342.47 330.54 342.125 330.438 341.687 330.438C341.397 330.438 341.13 330.501 340.886 330.625C340.642 330.745 340.433 330.924 340.258 331.164C340.083 331.403 339.947 331.695 339.85 332.041C339.753 332.386 339.705 332.784 339.705 333.236V333.526C339.705 333.88 339.753 334.214 339.85 334.527C339.951 334.836 340.097 335.108 340.285 335.342C340.479 335.577 340.711 335.761 340.983 335.895C341.259 336.028 341.572 336.095 341.922 336.095C342.374 336.095 342.756 336.003 343.069 335.819C343.382 335.635 343.656 335.388 343.891 335.08L344.664 335.695C344.503 335.939 344.298 336.171 344.05 336.392C343.801 336.613 343.495 336.793 343.131 336.931C342.772 337.069 342.346 337.138 341.853 337.138ZM347.531 330.701V337H346.253V329.527H347.496L347.531 330.701ZM349.865 329.485L349.858 330.673C349.752 330.65 349.651 330.636 349.554 330.632C349.462 330.623 349.356 330.618 349.237 330.618C348.942 330.618 348.682 330.664 348.456 330.756C348.231 330.848 348.039 330.977 347.883 331.143C347.726 331.309 347.602 331.507 347.51 331.737C347.422 331.963 347.365 332.211 347.337 332.483L346.978 332.69C346.978 332.239 347.022 331.815 347.109 331.419C347.201 331.023 347.342 330.673 347.531 330.369C347.719 330.061 347.959 329.821 348.249 329.651C348.544 329.476 348.894 329.389 349.299 329.389C349.391 329.389 349.497 329.4 349.617 329.423C349.736 329.442 349.819 329.462 349.865 329.485ZM352.324 331.122V337H351.046V329.527H352.255L352.324 331.122ZM352.02 332.98L351.488 332.959C351.493 332.448 351.569 331.976 351.716 331.544C351.864 331.106 352.071 330.726 352.338 330.404C352.605 330.082 352.923 329.833 353.291 329.658C353.664 329.478 354.076 329.389 354.527 329.389C354.896 329.389 355.227 329.439 355.522 329.541C355.817 329.637 356.068 329.794 356.275 330.01C356.487 330.227 356.648 330.507 356.758 330.853C356.869 331.194 356.924 331.61 356.924 332.103V337H355.639V332.089C355.639 331.698 355.582 331.385 355.467 331.15C355.352 330.91 355.184 330.738 354.963 330.632C354.742 330.521 354.47 330.466 354.148 330.466C353.83 330.466 353.54 330.533 353.277 330.666C353.019 330.8 352.796 330.984 352.607 331.219C352.423 331.454 352.278 331.723 352.172 332.027C352.071 332.326 352.02 332.644 352.02 332.98ZM308.389 343.944H309.715V350.747C309.715 351.502 309.547 352.131 309.211 352.632C308.875 353.134 308.428 353.512 307.871 353.765C307.319 354.014 306.718 354.138 306.068 354.138C305.387 354.138 304.77 354.014 304.217 353.765C303.669 353.512 303.234 353.134 302.912 352.632C302.594 352.131 302.435 351.502 302.435 350.747V343.944H303.755V350.747C303.755 351.272 303.851 351.705 304.045 352.045C304.238 352.386 304.507 352.639 304.853 352.805C305.203 352.971 305.608 353.054 306.068 353.054C306.533 353.054 306.939 352.971 307.284 352.805C307.634 352.639 307.906 352.386 308.099 352.045C308.292 351.705 308.389 351.272 308.389 350.747V343.944ZM312.892 348.122V354H311.615V346.527H312.823L312.892 348.122ZM312.589 349.98L312.057 349.959C312.061 349.448 312.137 348.976 312.285 348.544C312.432 348.106 312.639 347.726 312.906 347.404C313.173 347.082 313.491 346.833 313.859 346.658C314.232 346.478 314.644 346.389 315.096 346.389C315.464 346.389 315.796 346.439 316.09 346.541C316.385 346.637 316.636 346.794 316.843 347.01C317.055 347.227 317.216 347.507 317.327 347.853C317.437 348.194 317.492 348.61 317.492 349.103V354H316.208V349.089C316.208 348.698 316.15 348.385 316.035 348.15C315.92 347.91 315.752 347.738 315.531 347.632C315.31 347.521 315.038 347.466 314.716 347.466C314.398 347.466 314.108 347.533 313.846 347.666C313.588 347.8 313.364 347.984 313.176 348.219C312.991 348.454 312.846 348.723 312.74 349.027C312.639 349.326 312.589 349.644 312.589 349.98ZM320.822 346.527V354H319.537V346.527H320.822ZM319.44 344.544C319.44 344.337 319.502 344.162 319.627 344.019C319.756 343.877 319.944 343.805 320.193 343.805C320.437 343.805 320.624 343.877 320.753 344.019C320.886 344.162 320.953 344.337 320.953 344.544C320.953 344.742 320.886 344.913 320.753 345.056C320.624 345.194 320.437 345.263 320.193 345.263C319.944 345.263 319.756 345.194 319.627 345.056C319.502 344.913 319.44 344.742 319.44 344.544ZM325.145 352.847L327.19 346.527H328.495L325.808 354H324.952L325.145 352.847ZM323.439 346.527L325.546 352.881L325.691 354H324.834L322.127 346.527H323.439ZM332.729 354.138C332.209 354.138 331.737 354.051 331.313 353.876C330.894 353.696 330.533 353.445 330.229 353.123C329.93 352.8 329.699 352.418 329.538 351.976C329.377 351.534 329.296 351.051 329.296 350.526V350.236C329.296 349.628 329.386 349.087 329.566 348.613C329.745 348.134 329.989 347.729 330.298 347.397C330.606 347.065 330.956 346.814 331.348 346.644C331.739 346.474 332.144 346.389 332.563 346.389C333.097 346.389 333.558 346.481 333.945 346.665C334.336 346.849 334.656 347.107 334.905 347.438C335.153 347.765 335.338 348.152 335.457 348.599C335.577 349.041 335.637 349.524 335.637 350.049V350.623H330.056V349.58H334.359V349.483C334.341 349.151 334.272 348.829 334.152 348.516C334.037 348.203 333.853 347.945 333.599 347.742C333.346 347.54 333.001 347.438 332.563 347.438C332.273 347.438 332.006 347.501 331.762 347.625C331.518 347.745 331.309 347.924 331.134 348.164C330.959 348.403 330.823 348.695 330.726 349.041C330.629 349.386 330.581 349.784 330.581 350.236V350.526C330.581 350.88 330.629 351.214 330.726 351.527C330.827 351.836 330.972 352.108 331.161 352.342C331.355 352.577 331.587 352.761 331.859 352.895C332.135 353.028 332.448 353.095 332.798 353.095C333.249 353.095 333.632 353.003 333.945 352.819C334.258 352.635 334.532 352.388 334.767 352.08L335.54 352.695C335.379 352.939 335.174 353.171 334.926 353.392C334.677 353.613 334.371 353.793 334.007 353.931C333.648 354.069 333.222 354.138 332.729 354.138ZM338.407 347.701V354H337.129V346.527H338.372L338.407 347.701ZM340.741 346.485L340.734 347.673C340.628 347.65 340.527 347.636 340.43 347.632C340.338 347.623 340.232 347.618 340.113 347.618C339.818 347.618 339.558 347.664 339.332 347.756C339.107 347.848 338.915 347.977 338.759 348.143C338.602 348.309 338.478 348.507 338.386 348.737C338.298 348.963 338.241 349.211 338.213 349.483L337.854 349.69C337.854 349.239 337.898 348.815 337.985 348.419C338.077 348.023 338.218 347.673 338.407 347.369C338.595 347.061 338.835 346.821 339.125 346.651C339.42 346.476 339.77 346.389 340.175 346.389C340.267 346.389 340.373 346.4 340.493 346.423C340.612 346.442 340.695 346.462 340.741 346.485ZM346.274 352.018C346.274 351.834 346.232 351.663 346.149 351.507C346.071 351.345 345.908 351.2 345.659 351.071C345.415 350.938 345.046 350.823 344.554 350.726C344.139 350.639 343.764 350.535 343.428 350.415C343.096 350.296 342.813 350.151 342.578 349.98C342.348 349.81 342.171 349.609 342.047 349.379C341.922 349.149 341.86 348.88 341.86 348.571C341.86 348.276 341.925 347.998 342.053 347.735C342.187 347.473 342.374 347.24 342.613 347.038C342.857 346.835 343.149 346.676 343.49 346.561C343.831 346.446 344.211 346.389 344.63 346.389C345.228 346.389 345.739 346.494 346.163 346.706C346.587 346.918 346.911 347.201 347.137 347.556C347.363 347.906 347.475 348.295 347.475 348.723H346.198C346.198 348.516 346.135 348.316 346.011 348.122C345.891 347.924 345.714 347.761 345.479 347.632C345.249 347.503 344.966 347.438 344.63 347.438C344.275 347.438 343.987 347.494 343.766 347.604C343.55 347.71 343.391 347.846 343.29 348.012C343.193 348.177 343.145 348.352 343.145 348.537C343.145 348.675 343.168 348.799 343.214 348.91C343.265 349.015 343.352 349.114 343.476 349.207C343.601 349.294 343.776 349.377 344.001 349.455C344.227 349.534 344.515 349.612 344.865 349.69C345.477 349.828 345.981 349.994 346.377 350.187C346.773 350.381 347.068 350.618 347.261 350.899C347.455 351.18 347.551 351.52 347.551 351.921C347.551 352.248 347.482 352.547 347.344 352.819C347.211 353.091 347.015 353.325 346.757 353.523C346.504 353.717 346.2 353.869 345.845 353.979C345.495 354.085 345.102 354.138 344.664 354.138C344.006 354.138 343.449 354.021 342.993 353.786C342.537 353.551 342.192 353.247 341.957 352.874C341.722 352.501 341.605 352.108 341.605 351.693H342.889C342.908 352.043 343.009 352.322 343.193 352.529C343.377 352.731 343.603 352.876 343.87 352.964C344.137 353.047 344.402 353.088 344.664 353.088C345.014 353.088 345.307 353.042 345.541 352.95C345.781 352.858 345.963 352.731 346.087 352.57C346.211 352.409 346.274 352.225 346.274 352.018ZM350.618 346.527V354H349.333V346.527H350.618ZM349.237 344.544C349.237 344.337 349.299 344.162 349.423 344.019C349.552 343.877 349.741 343.805 349.99 343.805C350.234 343.805 350.42 343.877 350.549 344.019C350.683 344.162 350.749 344.337 350.749 344.544C350.749 344.742 350.683 344.913 350.549 345.056C350.42 345.194 350.234 345.263 349.99 345.263C349.741 345.263 349.552 345.194 349.423 345.056C349.299 344.913 349.237 344.742 349.237 344.544ZM355.798 346.527V347.507H351.758V346.527H355.798ZM353.125 344.71H354.403V352.149C354.403 352.402 354.442 352.593 354.521 352.722C354.599 352.851 354.7 352.936 354.824 352.978C354.949 353.019 355.082 353.04 355.225 353.04C355.331 353.04 355.441 353.031 355.557 353.012C355.676 352.989 355.766 352.971 355.826 352.957L355.833 354C355.732 354.032 355.598 354.062 355.432 354.09C355.271 354.122 355.075 354.138 354.845 354.138C354.532 354.138 354.244 354.076 353.982 353.952C353.719 353.827 353.51 353.62 353.353 353.33C353.201 353.035 353.125 352.639 353.125 352.142V344.71ZM359.397 353.226L361.476 346.527H362.843L359.846 355.153C359.777 355.338 359.685 355.536 359.569 355.747C359.459 355.964 359.316 356.169 359.141 356.362C358.966 356.556 358.754 356.712 358.506 356.832C358.262 356.956 357.969 357.018 357.629 357.018C357.527 357.018 357.398 357.005 357.242 356.977C357.085 356.949 356.975 356.926 356.91 356.908L356.903 355.872C356.94 355.876 356.998 355.881 357.076 355.886C357.159 355.895 357.217 355.899 357.249 355.899C357.539 355.899 357.785 355.86 357.988 355.782C358.19 355.708 358.361 355.582 358.499 355.402C358.642 355.227 358.764 354.985 358.865 354.677L359.397 353.226ZM357.87 346.527L359.811 352.329L360.143 353.675L359.224 354.145L356.475 346.527H357.87Z" fill="#637173"/>
<rect x="102" y="236" width="65" height="83" fill="#B5D94A"/>
<rect x="200" y="278" width="73" height="41" fill="#87D7E3"/>
<rect opacity="0.4" x="300.5" y="26.5" width="68" height="292" fill="#FFE6F2" stroke="#A1B9BC" stroke-dasharray="4 4"/>
<rect x="300" y="152" width="69" height="167" fill="#EA368C"/>
<path d="M421.094 326.944V337H419.782V326.944H421.094ZM424.326 326.944V328.035H416.556V326.944H424.326ZM424.596 333.346V333.187C424.596 332.649 424.674 332.149 424.831 331.689C424.987 331.224 425.213 330.821 425.507 330.48C425.802 330.135 426.159 329.867 426.578 329.679C426.997 329.485 427.467 329.389 427.987 329.389C428.512 329.389 428.984 329.485 429.403 329.679C429.827 329.867 430.186 330.135 430.48 330.48C430.78 330.821 431.008 331.224 431.164 331.689C431.321 332.149 431.399 332.649 431.399 333.187V333.346C431.399 333.885 431.321 334.385 431.164 334.845C431.008 335.305 430.78 335.708 430.48 336.054C430.186 336.394 429.829 336.662 429.41 336.855C428.995 337.044 428.526 337.138 428.001 337.138C427.476 337.138 427.004 337.044 426.585 336.855C426.166 336.662 425.807 336.394 425.507 336.054C425.213 335.708 424.987 335.305 424.831 334.845C424.674 334.385 424.596 333.885 424.596 333.346ZM425.874 333.187V333.346C425.874 333.719 425.917 334.071 426.005 334.403C426.092 334.73 426.224 335.02 426.398 335.273C426.578 335.527 426.801 335.727 427.068 335.874C427.336 336.017 427.646 336.088 428.001 336.088C428.351 336.088 428.657 336.017 428.92 335.874C429.187 335.727 429.408 335.527 429.583 335.273C429.758 335.02 429.889 334.73 429.976 334.403C430.068 334.071 430.114 333.719 430.114 333.346V333.187C430.114 332.819 430.068 332.471 429.976 332.144C429.889 331.813 429.755 331.52 429.576 331.267C429.401 331.009 429.18 330.807 428.913 330.659C428.65 330.512 428.342 330.438 427.987 330.438C427.637 330.438 427.329 330.512 427.062 330.659C426.799 330.807 426.578 331.009 426.398 331.267C426.224 331.52 426.092 331.813 426.005 332.144C425.917 332.471 425.874 332.819 425.874 333.187ZM436.13 329.527V330.507H432.09V329.527H436.13ZM433.457 327.71H434.735V335.149C434.735 335.402 434.774 335.593 434.853 335.722C434.931 335.851 435.032 335.936 435.156 335.978C435.281 336.019 435.414 336.04 435.557 336.04C435.663 336.04 435.773 336.031 435.889 336.012C436.008 335.989 436.098 335.971 436.158 335.957L436.165 337C436.064 337.032 435.93 337.062 435.764 337.09C435.603 337.122 435.407 337.138 435.177 337.138C434.864 337.138 434.576 337.076 434.314 336.952C434.051 336.827 433.842 336.62 433.685 336.33C433.533 336.035 433.457 335.639 433.457 335.142V327.71ZM442.036 335.722V331.875C442.036 331.58 441.976 331.325 441.856 331.108C441.741 330.887 441.566 330.717 441.331 330.597C441.096 330.478 440.806 330.418 440.461 330.418C440.139 330.418 439.855 330.473 439.611 330.583C439.372 330.694 439.183 330.839 439.045 331.019C438.912 331.198 438.845 331.392 438.845 331.599H437.567C437.567 331.332 437.636 331.067 437.774 330.804C437.912 330.542 438.11 330.305 438.368 330.093C438.631 329.877 438.944 329.706 439.308 329.582C439.676 329.453 440.086 329.389 440.537 329.389C441.08 329.389 441.559 329.481 441.974 329.665C442.393 329.849 442.72 330.128 442.954 330.501C443.194 330.869 443.314 331.332 443.314 331.889V335.37C443.314 335.619 443.334 335.883 443.376 336.164C443.422 336.445 443.489 336.687 443.576 336.889V337H442.243C442.179 336.853 442.128 336.657 442.091 336.413C442.054 336.164 442.036 335.934 442.036 335.722ZM442.257 332.469L442.271 333.367H440.979C440.615 333.367 440.291 333.397 440.005 333.457C439.72 333.512 439.48 333.597 439.287 333.712C439.093 333.827 438.946 333.972 438.845 334.147C438.743 334.318 438.693 334.518 438.693 334.748C438.693 334.983 438.746 335.197 438.852 335.391C438.958 335.584 439.116 335.738 439.328 335.853C439.545 335.964 439.809 336.019 440.123 336.019C440.514 336.019 440.859 335.936 441.159 335.771C441.458 335.605 441.695 335.402 441.87 335.163C442.05 334.923 442.146 334.691 442.16 334.465L442.706 335.08C442.674 335.273 442.586 335.487 442.443 335.722C442.301 335.957 442.109 336.183 441.87 336.399C441.635 336.611 441.354 336.788 441.027 336.931C440.705 337.069 440.341 337.138 439.936 337.138C439.43 337.138 438.985 337.039 438.603 336.841C438.225 336.643 437.931 336.378 437.719 336.047C437.512 335.711 437.408 335.335 437.408 334.921C437.408 334.52 437.486 334.168 437.643 333.864C437.8 333.556 438.025 333.3 438.32 333.098C438.615 332.89 438.969 332.734 439.384 332.628C439.798 332.522 440.261 332.469 440.772 332.469H442.257ZM446.712 326.391V337H445.427V326.391H446.712Z" fill="#637173"/>
<rect x="397" y="25" width="71" height="294" fill="#138DFD"/>
<path d="M55.3417 9.90762C55.1293 9.69516 54.7848 9.69516 54.5723 9.90762L51.11 13.37C50.8975 13.5824 50.8975 13.9269 51.11 14.1394C51.3224 14.3518 51.6669 14.3518 51.8794 14.1394L54.957 11.0617L58.0347 14.1394C58.2471 14.3518 58.5916 14.3518 58.8041 14.1394C59.0165 13.9269 59.0165 13.5824 58.8041 13.37L55.3417 9.90762ZM55.5011 317.139L55.5011 10.2923L54.413 10.2923L54.413 317.139L55.5011 317.139Z" fill="#637173"/>
<path d="M491.382 320.387C491.596 320.176 491.598 319.832 491.387 319.618L487.948 316.133C487.737 315.919 487.392 315.917 487.178 316.128C486.964 316.339 486.962 316.683 487.173 316.897L490.231 319.995L487.133 323.052C486.919 323.263 486.917 323.608 487.128 323.822C487.339 324.036 487.683 324.038 487.897 323.827L491.382 320.387ZM54.9535 317.683L490.996 320.544L491.004 319.456L54.9606 316.595L54.9535 317.683Z" fill="#637173"/>
</g>
<defs>
<clipPath id="clip0_6429_126717">
<rect y="0.5" width="491" height="370" rx="5.44054" fill="white"/>
</clipPath>
</defs>
</svg>
