<svg width="339" height="265" viewBox="0 0 339 265" fill="none" xmlns="http://www.w3.org/2000/svg">
<rect x="0.5" y="0.5" width="169" height="44" fill="#ABE9FF" stroke="#0995E3"/>
<path d="M77.1568 15.4H79.4968V28H77.1568V15.4ZM88.1429 18.28C89.3549 18.28 90.3269 18.634 91.0589 19.342C91.7909 20.05 92.1569 21.1 92.1569 22.492V28H89.9069V22.78C89.9069 21.94 89.7089 21.31 89.3129 20.89C88.9169 20.458 88.3529 20.242 87.6209 20.242C86.7929 20.242 86.1389 20.494 85.6589 20.998C85.1789 21.49 84.9389 22.204 84.9389 23.14V28H82.6889V18.388H84.8309V19.63C85.2029 19.186 85.6709 18.85 86.2349 18.622C86.7989 18.394 87.4349 18.28 88.1429 18.28Z" fill="#2F2F2F"/>
<rect x="169.5" y="0.5" width="169" height="44" fill="#ABE9FF" stroke="#0995E3"/>
<path d="M243.061 28.18C241.777 28.18 240.619 27.904 239.587 27.352C238.555 26.788 237.745 26.014 237.157 25.03C236.569 24.034 236.275 22.924 236.275 21.7C236.275 20.476 236.569 19.372 237.157 18.388C237.745 17.392 238.555 16.618 239.587 16.066C240.619 15.502 241.777 15.22 243.061 15.22C244.345 15.22 245.503 15.502 246.535 16.066C247.567 16.618 248.377 17.386 248.965 18.37C249.553 19.354 249.847 20.464 249.847 21.7C249.847 22.936 249.553 24.046 248.965 25.03C248.377 26.014 247.567 26.788 246.535 27.352C245.503 27.904 244.345 28.18 243.061 28.18ZM243.061 26.128C243.901 26.128 244.657 25.942 245.329 25.57C246.001 25.186 246.529 24.658 246.913 23.986C247.297 23.302 247.489 22.54 247.489 21.7C247.489 20.86 247.297 20.104 246.913 19.432C246.529 18.748 246.001 18.22 245.329 17.848C244.657 17.464 243.901 17.272 243.061 17.272C242.221 17.272 241.465 17.464 240.793 17.848C240.121 18.22 239.593 18.748 239.209 19.432C238.825 20.104 238.633 20.86 238.633 21.7C238.633 22.54 238.825 23.302 239.209 23.986C239.593 24.658 240.121 25.186 240.793 25.57C241.465 25.942 242.221 26.128 243.061 26.128ZM261.418 18.388V28H259.276V26.776C258.916 27.208 258.466 27.544 257.926 27.784C257.386 28.012 256.804 28.126 256.18 28.126C254.896 28.126 253.882 27.772 253.138 27.064C252.406 26.344 252.04 25.282 252.04 23.878V18.388H254.29V23.572C254.29 24.436 254.482 25.084 254.866 25.516C255.262 25.936 255.82 26.146 256.54 26.146C257.344 26.146 257.98 25.9 258.448 25.408C258.928 24.904 259.168 24.184 259.168 23.248V18.388H261.418ZM270.142 27.478C269.878 27.694 269.554 27.856 269.17 27.964C268.798 28.072 268.402 28.126 267.982 28.126C266.926 28.126 266.11 27.85 265.534 27.298C264.958 26.746 264.67 25.942 264.67 24.886V20.26H263.086V18.46H264.67V16.264H266.92V18.46H269.494V20.26H266.92V24.832C266.92 25.3 267.034 25.66 267.262 25.912C267.49 26.152 267.82 26.272 268.252 26.272C268.756 26.272 269.176 26.14 269.512 25.876L270.142 27.478Z" fill="#2F2F2F"/>
<rect x="0.5" y="44.5" width="169" height="44" stroke="#0995E3"/>
<path d="M86.2203 59.4V72H83.8803V61.362H81.2163V59.4H86.2203Z" fill="#2F2F2F"/>
<rect x="169.5" y="44.5" width="169" height="44" stroke="#0995E3"/>
<path d="M259.416 69.138H257.184V72H254.916V69.138H248.004V67.518L254.214 59.4H256.716L250.866 67.158H254.988V64.62H257.184V67.158H259.416V69.138Z" fill="#2F2F2F"/>
<rect x="0.5" y="88.5" width="169" height="44" stroke="#0995E3"/>
<path d="M85.4177 108.602C86.5817 108.746 87.4697 109.142 88.0817 109.79C88.6937 110.438 88.9997 111.248 88.9997 112.22C88.9997 112.952 88.8137 113.618 88.4417 114.218C88.0697 114.818 87.5057 115.298 86.7497 115.658C86.0057 116.006 85.0937 116.18 84.0137 116.18C83.1137 116.18 82.2437 116.054 81.4037 115.802C80.5757 115.538 79.8677 115.178 79.2797 114.722L80.2877 112.904C80.7437 113.288 81.2957 113.594 81.9437 113.822C82.6037 114.038 83.2817 114.146 83.9777 114.146C84.8057 114.146 85.4537 113.978 85.9217 113.642C86.4017 113.294 86.6417 112.826 86.6417 112.238C86.6417 111.65 86.4137 111.194 85.9577 110.87C85.5137 110.534 84.8297 110.366 83.9057 110.366H82.7537V108.764L85.6157 105.362H79.8917V103.4H88.4777V104.966L85.4177 108.602Z" fill="#2F2F2F"/>
<rect x="169.5" y="88.5" width="169" height="44" stroke="#0995E3"/>
<rect x="234.5" y="95.5" width="39" height="29" rx="4.5" fill="white"/>
<path d="M250.271 103.4V116H248.489V104.966H245.645V103.4H250.271ZM261.883 114.434V116H252.829V114.776L257.959 109.826C258.583 109.226 259.003 108.71 259.219 108.278C259.435 107.834 259.543 107.39 259.543 106.946C259.543 106.286 259.309 105.776 258.841 105.416C258.385 105.044 257.725 104.858 256.861 104.858C255.469 104.858 254.395 105.314 253.639 106.226L252.415 105.164C252.907 104.564 253.549 104.096 254.341 103.76C255.145 103.424 256.039 103.256 257.023 103.256C258.343 103.256 259.393 103.574 260.173 104.21C260.953 104.834 261.343 105.686 261.343 106.766C261.343 107.438 261.199 108.074 260.911 108.674C260.623 109.274 260.077 109.958 259.273 110.726L255.421 114.434H261.883Z" fill="#2F2F2F"/>
<rect x="234.5" y="95.5" width="39" height="29" rx="4.5" stroke="#0995E3"/>
<rect x="0.5" y="132.5" width="169" height="44" stroke="#0995E3"/>
<path d="M89.3204 147.4V148.966L84.4244 160H81.9224L86.6564 149.38H81.7064V151.522H79.5284V147.4H89.3204Z" fill="#2F2F2F"/>
<rect x="169.5" y="132.5" width="169" height="44" stroke="#0995E3"/>
<rect x="234.5" y="139.5" width="39" height="29" rx="4.5" fill="white"/>
<path d="M252.76 158.434V160H243.706V158.776L248.836 153.826C249.46 153.226 249.88 152.71 250.096 152.278C250.312 151.834 250.42 151.39 250.42 150.946C250.42 150.286 250.186 149.776 249.718 149.416C249.262 149.044 248.602 148.858 247.738 148.858C246.346 148.858 245.272 149.314 244.516 150.226L243.292 149.164C243.784 148.564 244.426 148.096 245.218 147.76C246.022 147.424 246.916 147.256 247.9 147.256C249.22 147.256 250.27 147.574 251.05 148.21C251.83 148.834 252.22 149.686 252.22 150.766C252.22 151.438 252.076 152.074 251.788 152.674C251.5 153.274 250.954 153.958 250.15 154.726L246.298 158.434H252.76ZM261.944 153.394C262.664 153.67 263.216 154.066 263.6 154.582C263.984 155.098 264.176 155.716 264.176 156.436C264.176 157.192 263.972 157.852 263.564 158.416C263.156 158.968 262.574 159.394 261.818 159.694C261.062 159.994 260.174 160.144 259.154 160.144C258.146 160.144 257.264 159.994 256.508 159.694C255.764 159.394 255.188 158.968 254.78 158.416C254.372 157.852 254.168 157.192 254.168 156.436C254.168 155.716 254.354 155.098 254.726 154.582C255.11 154.066 255.662 153.67 256.382 153.394C255.806 153.118 255.368 152.752 255.068 152.296C254.768 151.84 254.618 151.3 254.618 150.676C254.618 149.98 254.804 149.374 255.176 148.858C255.56 148.342 256.094 147.946 256.778 147.67C257.462 147.394 258.254 147.256 259.154 147.256C260.066 147.256 260.864 147.394 261.548 147.67C262.244 147.946 262.778 148.342 263.15 148.858C263.534 149.374 263.726 149.98 263.726 150.676C263.726 151.288 263.57 151.828 263.258 152.296C262.958 152.752 262.52 153.118 261.944 153.394ZM259.154 148.714C258.302 148.714 257.63 148.9 257.138 149.272C256.646 149.632 256.4 150.124 256.4 150.748C256.4 151.372 256.64 151.864 257.12 152.224C257.612 152.584 258.29 152.764 259.154 152.764C260.03 152.764 260.714 152.584 261.206 152.224C261.71 151.864 261.962 151.372 261.962 150.748C261.962 150.124 261.704 149.632 261.188 149.272C260.684 148.9 260.006 148.714 259.154 148.714ZM259.154 158.686C260.15 158.686 260.936 158.482 261.512 158.074C262.088 157.654 262.376 157.09 262.376 156.382C262.376 155.686 262.088 155.14 261.512 154.744C260.936 154.336 260.15 154.132 259.154 154.132C258.158 154.132 257.378 154.336 256.814 154.744C256.25 155.14 255.968 155.686 255.968 156.382C255.968 157.09 256.25 157.654 256.814 158.074C257.378 158.482 258.158 158.686 259.154 158.686Z" fill="#2F2F2F"/>
<rect x="234.5" y="139.5" width="39" height="29" rx="4.5" stroke="#0995E3"/>
<rect x="0.5" y="176.5" width="169" height="44" stroke="#0995E3"/>
<path d="M80.1646 191.4V204H77.8246V193.362H75.1606V191.4H80.1646ZM87.9201 204.18C86.9121 204.18 86.0121 203.928 85.2201 203.424C84.4281 202.908 83.8041 202.164 83.3481 201.192C82.8921 200.208 82.6641 199.044 82.6641 197.7C82.6641 196.356 82.8921 195.198 83.3481 194.226C83.8041 193.242 84.4281 192.498 85.2201 191.994C86.0121 191.478 86.9121 191.22 87.9201 191.22C88.9281 191.22 89.8281 191.478 90.6201 191.994C91.4241 192.498 92.0541 193.242 92.5101 194.226C92.9661 195.198 93.1941 196.356 93.1941 197.7C93.1941 199.044 92.9661 200.208 92.5101 201.192C92.0541 202.164 91.4241 202.908 90.6201 203.424C89.8281 203.928 88.9281 204.18 87.9201 204.18ZM87.9201 202.146C88.8201 202.146 89.5281 201.774 90.0441 201.03C90.5721 200.286 90.8361 199.176 90.8361 197.7C90.8361 196.224 90.5721 195.114 90.0441 194.37C89.5281 193.626 88.8201 193.254 87.9201 193.254C87.0321 193.254 86.3241 193.626 85.7961 194.37C85.2801 195.114 85.0221 196.224 85.0221 197.7C85.0221 199.176 85.2801 200.286 85.7961 201.03C86.3241 201.774 87.0321 202.146 87.9201 202.146Z" fill="#2F2F2F"/>
<rect x="169.5" y="176.5" width="169" height="44" stroke="#0995E3"/>
<rect x="234.5" y="183.5" width="39" height="29" rx="4.5" fill="white"/>
<path d="M253.803 200.904H251.409V204H249.663V200.904H242.661V199.644L249.105 191.4H251.049L244.875 199.356H249.717V196.62H251.409V199.356H253.803V200.904ZM260.03 204.144C259.034 204.144 258.146 203.892 257.366 203.388C256.598 202.872 255.992 202.128 255.548 201.156C255.104 200.184 254.882 199.032 254.882 197.7C254.882 196.368 255.104 195.216 255.548 194.244C255.992 193.272 256.598 192.534 257.366 192.03C258.146 191.514 259.034 191.256 260.03 191.256C261.014 191.256 261.89 191.514 262.658 192.03C263.438 192.534 264.05 193.272 264.494 194.244C264.938 195.216 265.16 196.368 265.16 197.7C265.16 199.032 264.938 200.184 264.494 201.156C264.05 202.128 263.438 202.872 262.658 203.388C261.89 203.892 261.014 204.144 260.03 204.144ZM260.03 202.542C261.038 202.542 261.842 202.128 262.442 201.3C263.054 200.472 263.36 199.272 263.36 197.7C263.36 196.128 263.054 194.928 262.442 194.1C261.842 193.272 261.038 192.858 260.03 192.858C259.01 192.858 258.194 193.272 257.582 194.1C256.982 194.928 256.682 196.128 256.682 197.7C256.682 199.272 256.982 200.472 257.582 201.3C258.194 202.128 259.01 202.542 260.03 202.542Z" fill="#2F2F2F"/>
<rect x="234.5" y="183.5" width="39" height="29" rx="4.5" stroke="#0995E3"/>
<rect x="0.5" y="220.5" width="169" height="44" stroke="#0995E3"/>
<path d="M82.2925 235.4V248H79.9525V237.362H77.2885V235.4H82.2925ZM89.148 235.4V248H86.808V237.362H84.144V235.4H89.148Z" fill="#2F2F2F"/>
<rect x="169.5" y="220.5" width="169" height="44" stroke="#0995E3"/>
<rect x="234.5" y="227.5" width="39" height="29" rx="4.5" fill="white"/>
<path d="M253.785 244.904H251.391V248H249.645V244.904H242.643V243.644L249.087 235.4H251.031L244.857 243.356H249.699V240.62H251.391V243.356H253.785V244.904ZM265.826 244.904H263.432V248H261.686V244.904H254.684V243.644L261.128 235.4H263.072L256.898 243.356H261.74V240.62H263.432V243.356H265.826V244.904Z" fill="#2F2F2F"/>
<rect x="234.5" y="227.5" width="39" height="29" rx="4.5" stroke="#0995E3"/>
</svg>
