<svg width="870" height="179" viewBox="0 0 870 179" fill="none" xmlns="http://www.w3.org/2000/svg">
<rect x="744.5" y="39.5" width="115" height="69" rx="4.5" fill="#369CB7"/>
<path d="M823.564 51.9V64.5H821.782V53.466H818.938V51.9H823.564Z" fill="white"/>
<path d="M771.489 71.85C773.206 72.0167 774.514 72.55 775.414 73.45C776.314 74.3333 776.764 75.4667 776.764 76.85C776.764 77.85 776.514 78.7583 776.014 79.575C775.514 80.375 774.764 81.0167 773.764 81.5C772.781 81.9667 771.573 82.2 770.139 82.2C768.889 82.2 767.689 82.0167 766.539 81.65C765.389 81.2667 764.448 80.7417 763.714 80.075L764.864 78.1C765.464 78.6667 766.231 79.125 767.164 79.475C768.098 79.8083 769.089 79.975 770.139 79.975C771.439 79.975 772.448 79.7 773.164 79.15C773.898 78.6 774.264 77.8417 774.264 76.875C774.264 75.9083 773.906 75.1583 773.189 74.625C772.473 74.0917 771.389 73.825 769.939 73.825H768.539V72.075L772.939 66.675H764.514V64.5H776.064V66.2L771.489 71.85ZM793.285 73.25L796.51 76.5L795.16 77.95L791.885 74.65L788.61 77.95L787.285 76.5L790.51 73.25L787.285 70L788.61 68.55L791.885 71.85L795.16 68.55L796.51 70L793.285 73.25Z" fill="white"/>
<path d="M826.677 93.934V95.5H817.623V94.276L822.753 89.326C823.377 88.726 823.797 88.21 824.013 87.778C824.229 87.334 824.337 86.89 824.337 86.446C824.337 85.786 824.103 85.276 823.635 84.916C823.179 84.544 822.519 84.358 821.655 84.358C820.263 84.358 819.189 84.814 818.433 85.726L817.209 84.664C817.701 84.064 818.343 83.596 819.135 83.26C819.939 82.924 820.833 82.756 821.817 82.756C823.137 82.756 824.187 83.074 824.967 83.71C825.747 84.334 826.137 85.186 826.137 86.266C826.137 86.938 825.993 87.574 825.705 88.174C825.417 88.774 824.871 89.458 824.067 90.226L820.215 93.934H826.677Z" fill="white"/>
<line x1="803.625" y1="73" x2="840.625" y2="73" stroke="white"/>
<rect x="744.5" y="39.5" width="115" height="69" rx="4.5" stroke="#369CB7"/>
<rect x="144.5" y="43.5" width="115" height="69" rx="4.5" fill="#369CB7"/>
<path d="M223.564 55.9V68.5H221.782V57.466H218.938V55.9H223.564Z" fill="white"/>
<path d="M177.065 83.825V86H164.49V84.3L171.615 77.425C172.482 76.5917 173.065 75.875 173.365 75.275C173.665 74.6583 173.815 74.0417 173.815 73.425C173.815 72.5083 173.49 71.8 172.84 71.3C172.207 70.7833 171.29 70.525 170.09 70.525C168.157 70.525 166.665 71.1583 165.615 72.425L163.915 70.95C164.598 70.1167 165.49 69.4667 166.59 69C167.707 68.5333 168.948 68.3 170.315 68.3C172.148 68.3 173.607 68.7417 174.69 69.625C175.773 70.4917 176.315 71.675 176.315 73.175C176.315 74.1083 176.115 74.9917 175.715 75.825C175.315 76.6583 174.557 77.6083 173.44 78.675L168.09 83.825H177.065ZM193.309 77.25L196.534 80.5L195.184 81.95L191.909 78.65L188.634 81.95L187.309 80.5L190.534 77.25L187.309 74L188.634 72.55L191.909 75.85L195.184 72.55L196.534 74L193.309 77.25Z" fill="white"/>
<path d="M222.663 92.192C223.899 92.312 224.841 92.696 225.489 93.344C226.137 93.98 226.461 94.796 226.461 95.792C226.461 96.512 226.281 97.166 225.921 97.754C225.561 98.33 225.021 98.792 224.301 99.14C223.593 99.476 222.723 99.644 221.691 99.644C220.791 99.644 219.927 99.512 219.099 99.248C218.271 98.972 217.593 98.594 217.065 98.114L217.893 96.692C218.325 97.1 218.877 97.43 219.549 97.682C220.221 97.922 220.935 98.042 221.691 98.042C222.627 98.042 223.353 97.844 223.869 97.448C224.397 97.052 224.661 96.506 224.661 95.81C224.661 95.114 224.403 94.574 223.887 94.19C223.371 93.806 222.591 93.614 221.547 93.614H220.539V92.354L223.707 88.466H217.641V86.9H225.957V88.124L222.663 92.192Z" fill="white"/>
<line x1="203.625" y1="77" x2="240.625" y2="77" stroke="white"/>
<rect x="144.5" y="43.5" width="115" height="69" rx="4.5" stroke="#369CB7"/>
<rect x="435.5" y="48.5" width="115" height="69" rx="4.5" fill="#369CB7"/>
<path d="M511.87 65.85C512.698 65.85 513.436 66.006 514.084 66.318C514.744 66.63 515.26 67.08 515.632 67.668C516.004 68.244 516.19 68.91 516.19 69.666C516.19 70.458 515.992 71.154 515.596 71.754C515.212 72.354 514.678 72.822 513.994 73.158C513.322 73.482 512.566 73.644 511.726 73.644C510.034 73.644 508.726 73.098 507.802 72.006C506.89 70.914 506.434 69.366 506.434 67.362C506.434 65.958 506.68 64.764 507.172 63.78C507.676 62.784 508.372 62.034 509.26 61.53C510.16 61.014 511.204 60.756 512.392 60.756C513.004 60.756 513.58 60.822 514.12 60.954C514.66 61.074 515.128 61.254 515.524 61.494L514.84 62.898C514.24 62.502 513.436 62.304 512.428 62.304C511.12 62.304 510.094 62.712 509.35 63.528C508.606 64.332 508.234 65.508 508.234 67.056C508.234 67.248 508.24 67.398 508.252 67.506C508.612 66.966 509.104 66.558 509.728 66.282C510.364 65.994 511.078 65.85 511.87 65.85ZM511.654 72.186C512.482 72.186 513.154 71.964 513.67 71.52C514.186 71.076 514.444 70.482 514.444 69.738C514.444 68.994 514.18 68.406 513.652 67.974C513.136 67.53 512.44 67.308 511.564 67.308C511 67.308 510.496 67.416 510.052 67.632C509.62 67.848 509.278 68.142 509.026 68.514C508.786 68.886 508.666 69.3 508.666 69.756C508.666 70.2 508.78 70.608 509.008 70.98C509.248 71.34 509.59 71.634 510.034 71.862C510.49 72.078 511.03 72.186 511.654 72.186Z" fill="white"/>
<path d="M462.741 73.5V91H460.266V75.675H456.316V73.5H462.741ZM480.758 82.25L483.983 85.5L482.633 86.95L479.358 83.65L476.083 86.95L474.758 85.5L477.983 82.25L474.758 79L476.083 77.55L479.358 80.85L482.633 77.55L483.983 79L480.758 82.25Z" fill="white"/>
<path d="M511.87 96.85C512.698 96.85 513.436 97.006 514.084 97.318C514.744 97.63 515.26 98.08 515.632 98.668C516.004 99.244 516.19 99.91 516.19 100.666C516.19 101.458 515.992 102.154 515.596 102.754C515.212 103.354 514.678 103.822 513.994 104.158C513.322 104.482 512.566 104.644 511.726 104.644C510.034 104.644 508.726 104.098 507.802 103.006C506.89 101.914 506.434 100.366 506.434 98.362C506.434 96.958 506.68 95.764 507.172 94.78C507.676 93.784 508.372 93.034 509.26 92.53C510.16 92.014 511.204 91.756 512.392 91.756C513.004 91.756 513.58 91.822 514.12 91.954C514.66 92.074 515.128 92.254 515.524 92.494L514.84 93.898C514.24 93.502 513.436 93.304 512.428 93.304C511.12 93.304 510.094 93.712 509.35 94.528C508.606 95.332 508.234 96.508 508.234 98.056C508.234 98.248 508.24 98.398 508.252 98.506C508.612 97.966 509.104 97.558 509.728 97.282C510.364 96.994 511.078 96.85 511.87 96.85ZM511.654 103.186C512.482 103.186 513.154 102.964 513.67 102.52C514.186 102.076 514.444 101.482 514.444 100.738C514.444 99.994 514.18 99.406 513.652 98.974C513.136 98.53 512.44 98.308 511.564 98.308C511 98.308 510.496 98.416 510.052 98.632C509.62 98.848 509.278 99.142 509.026 99.514C508.786 99.886 508.666 100.3 508.666 100.756C508.666 101.2 508.78 101.608 509.008 101.98C509.248 102.34 509.59 102.634 510.034 102.862C510.49 103.078 511.03 103.186 511.654 103.186Z" fill="white"/>
<line x1="493.125" y1="82" x2="530.125" y2="82" stroke="white"/>
<rect x="435.5" y="48.5" width="115" height="69" rx="4.5" stroke="#369CB7"/>
<rect x="308.5" y="47.5" width="115" height="69" rx="4.5" fill="#369CB7"/>
<path d="M390.43 69.404H388.036V72.5H386.29V69.404H379.288V68.144L385.732 59.9H387.676L381.502 67.856H386.344V65.12H388.036V67.856H390.43V69.404Z" fill="white"/>
<path d="M335.741 72.5V90H333.266V74.675H329.316V72.5H335.741ZM353.758 81.25L356.983 84.5L355.633 85.95L352.358 82.65L349.083 85.95L347.758 84.5L350.983 81.25L347.758 78L349.083 76.55L352.358 79.85L355.633 76.55L356.983 78L353.758 81.25Z" fill="white"/>
<path d="M390.43 100.404H388.036V103.5H386.29V100.404H379.288V99.144L385.732 90.9H387.676L381.502 98.856H386.344V96.12H388.036V98.856H390.43V100.404Z" fill="white"/>
<line x1="366.125" y1="81" x2="403.125" y2="81" stroke="white"/>
<rect x="308.5" y="47.5" width="115" height="69" rx="4.5" stroke="#369CB7"/>
<rect x="8.5" y="39.5" width="115" height="69" rx="4.5" fill="#369CB7"/>
<path d="M86.0639 51.9V64.5H84.2819V53.466H81.4379V51.9H86.0639Z" fill="white"/>
<path d="M35.7412 64.5V82H33.2662V66.675H29.3162V64.5H35.7412ZM53.758 73.25L56.983 76.5L55.633 77.95L52.358 74.65L49.083 77.95L47.758 76.5L50.983 73.25L47.758 70L49.083 68.55L52.358 71.85L55.633 68.55L56.983 70L53.758 73.25Z" fill="white"/>
<path d="M83.921 87.922C85.721 87.922 87.041 88.264 87.881 88.948C88.733 89.62 89.159 90.544 89.159 91.72C89.159 92.464 88.979 93.136 88.619 93.736C88.271 94.324 87.737 94.792 87.017 95.14C86.309 95.476 85.433 95.644 84.389 95.644C83.501 95.644 82.643 95.512 81.815 95.248C80.987 94.972 80.303 94.594 79.763 94.114L80.591 92.692C81.023 93.1 81.575 93.43 82.247 93.682C82.919 93.922 83.627 94.042 84.371 94.042C85.319 94.042 86.051 93.844 86.567 93.448C87.095 93.04 87.359 92.488 87.359 91.792C87.359 91.036 87.071 90.466 86.495 90.082C85.919 89.686 84.935 89.488 83.543 89.488H80.681L81.347 82.9H88.457V84.466H82.859L82.517 87.922H83.921Z" fill="white"/>
<line x1="66.125" y1="73" x2="103.125" y2="73" stroke="white"/>
<rect x="8.5" y="39.5" width="115" height="69" rx="4.5" stroke="#369CB7"/>
<rect x="608.5" y="38.5" width="115" height="69" rx="4.5" fill="#369CB7"/>
<path d="M688.064 50.9V63.5H686.282V52.466H683.438V50.9H688.064Z" fill="white"/>
<path d="M643.306 76.7H639.981V81H637.556V76.7H627.831V74.95L636.781 63.5H639.481L630.906 74.55H637.631V70.75H639.981V74.55H643.306V76.7ZM658.993 72.25L662.218 75.5L660.868 76.95L657.593 73.65L654.318 76.95L652.993 75.5L656.218 72.25L652.993 69L654.318 67.55L657.593 70.85L660.868 67.55L662.218 69L658.993 72.25Z" fill="white"/>
<path d="M687.163 87.192C688.399 87.312 689.341 87.696 689.989 88.344C690.637 88.98 690.961 89.796 690.961 90.792C690.961 91.512 690.781 92.166 690.421 92.754C690.061 93.33 689.521 93.792 688.801 94.14C688.093 94.476 687.223 94.644 686.191 94.644C685.291 94.644 684.427 94.512 683.599 94.248C682.771 93.972 682.093 93.594 681.565 93.114L682.393 91.692C682.825 92.1 683.377 92.43 684.049 92.682C684.721 92.922 685.435 93.042 686.191 93.042C687.127 93.042 687.853 92.844 688.369 92.448C688.897 92.052 689.161 91.506 689.161 90.81C689.161 90.114 688.903 89.574 688.387 89.19C687.871 88.806 687.091 88.614 686.047 88.614H685.039V87.354L688.207 83.466H682.141V81.9H690.457V83.124L687.163 87.192Z" fill="white"/>
<line x1="668.125" y1="72" x2="705.125" y2="72" stroke="white"/>
<rect x="608.5" y="38.5" width="115" height="69" rx="4.5" stroke="#369CB7"/>
<rect x="0.5" y="0.5" width="269" height="178" rx="4.5" stroke="#D0D0D0"/>
<path d="M0 5C0 2.23858 2.23858 0 5 0H265C267.761 0 270 2.23858 270 5V28H0V5Z" fill="#205B64"/>
<path d="M87.3436 8.8H89.9356V17.888H95.5516V20H87.3436V8.8ZM105.193 15.728C105.193 15.76 105.177 15.984 105.145 16.4H98.6334C98.7507 16.9333 99.028 17.3547 99.4654 17.664C99.9027 17.9733 100.447 18.128 101.097 18.128C101.545 18.128 101.94 18.064 102.281 17.936C102.633 17.7973 102.959 17.584 103.257 17.296L104.585 18.736C103.775 19.664 102.591 20.128 101.033 20.128C100.063 20.128 99.204 19.9413 98.4574 19.568C97.7107 19.184 97.1347 18.656 96.7294 17.984C96.324 17.312 96.1214 16.5493 96.1214 15.696C96.1214 14.8533 96.3187 14.096 96.7134 13.424C97.1187 12.7413 97.668 12.2133 98.3614 11.84C99.0654 11.456 99.8494 11.264 100.713 11.264C101.556 11.264 102.319 11.4453 103.001 11.808C103.684 12.1707 104.217 12.6933 104.601 13.376C104.996 14.048 105.193 14.832 105.193 15.728ZM100.729 13.152C100.164 13.152 99.6894 13.312 99.3054 13.632C98.9214 13.952 98.6867 14.3893 98.6014 14.944H102.841C102.756 14.4 102.521 13.968 102.137 13.648C101.753 13.3173 101.284 13.152 100.729 13.152ZM109.751 20.128C109.036 20.128 108.338 20.0427 107.655 19.872C106.972 19.6907 106.428 19.4667 106.023 19.2L106.855 17.408C107.239 17.6533 107.703 17.856 108.247 18.016C108.791 18.1653 109.324 18.24 109.847 18.24C110.903 18.24 111.431 17.9787 111.431 17.456C111.431 17.2107 111.287 17.0347 110.999 16.928C110.711 16.8213 110.268 16.7307 109.671 16.656C108.967 16.5493 108.386 16.4267 107.927 16.288C107.468 16.1493 107.068 15.904 106.727 15.552C106.396 15.2 106.231 14.6987 106.231 14.048C106.231 13.504 106.386 13.024 106.695 12.608C107.015 12.1813 107.474 11.8507 108.071 11.616C108.679 11.3813 109.394 11.264 110.215 11.264C110.823 11.264 111.426 11.3333 112.023 11.472C112.631 11.6 113.132 11.7813 113.527 12.016L112.695 13.792C111.938 13.3653 111.111 13.152 110.215 13.152C109.682 13.152 109.282 13.2267 109.015 13.376C108.748 13.5253 108.615 13.7173 108.615 13.952C108.615 14.2187 108.759 14.4053 109.047 14.512C109.335 14.6187 109.794 14.72 110.423 14.816C111.127 14.9333 111.703 15.0613 112.151 15.2C112.599 15.328 112.988 15.568 113.319 15.92C113.65 16.272 113.815 16.7627 113.815 17.392C113.815 17.9253 113.655 18.4 113.335 18.816C113.015 19.232 112.546 19.5573 111.927 19.792C111.319 20.016 110.594 20.128 109.751 20.128ZM118.251 20.128C117.536 20.128 116.838 20.0427 116.155 19.872C115.472 19.6907 114.928 19.4667 114.523 19.2L115.355 17.408C115.739 17.6533 116.203 17.856 116.747 18.016C117.291 18.1653 117.824 18.24 118.347 18.24C119.403 18.24 119.931 17.9787 119.931 17.456C119.931 17.2107 119.787 17.0347 119.499 16.928C119.211 16.8213 118.768 16.7307 118.171 16.656C117.467 16.5493 116.886 16.4267 116.427 16.288C115.968 16.1493 115.568 15.904 115.227 15.552C114.896 15.2 114.731 14.6987 114.731 14.048C114.731 13.504 114.886 13.024 115.195 12.608C115.515 12.1813 115.974 11.8507 116.571 11.616C117.179 11.3813 117.894 11.264 118.715 11.264C119.323 11.264 119.926 11.3333 120.523 11.472C121.131 11.6 121.632 11.7813 122.027 12.016L121.195 13.792C120.438 13.3653 119.611 13.152 118.715 13.152C118.182 13.152 117.782 13.2267 117.515 13.376C117.248 13.5253 117.115 13.7173 117.115 13.952C117.115 14.2187 117.259 14.4053 117.547 14.512C117.835 14.6187 118.294 14.72 118.923 14.816C119.627 14.9333 120.203 15.0613 120.651 15.2C121.099 15.328 121.488 15.568 121.819 15.92C122.15 16.272 122.315 16.7627 122.315 17.392C122.315 17.9253 122.155 18.4 121.835 18.816C121.515 19.232 121.046 19.5573 120.427 19.792C119.819 20.016 119.094 20.128 118.251 20.128ZM133.938 19.584C133.693 19.7653 133.389 19.904 133.026 20C132.674 20.0853 132.301 20.128 131.906 20.128C130.882 20.128 130.088 19.8667 129.522 19.344C128.968 18.8213 128.69 18.0533 128.69 17.04V13.504H127.362V11.584H128.69V9.488H131.186V11.584H133.33V13.504H131.186V17.008C131.186 17.3707 131.277 17.6533 131.458 17.856C131.65 18.048 131.917 18.144 132.258 18.144C132.653 18.144 132.989 18.0373 133.266 17.824L133.938 19.584ZM140.572 11.264C141.638 11.264 142.497 11.584 143.148 12.224C143.809 12.864 144.14 13.8133 144.14 15.072V20H141.644V15.456C141.644 14.7733 141.494 14.2667 141.196 13.936C140.897 13.5947 140.465 13.424 139.9 13.424C139.27 13.424 138.769 13.6213 138.396 14.016C138.022 14.4 137.836 14.976 137.836 15.744V20H135.34V8.128H137.836V12.288C138.166 11.9573 138.566 11.7067 139.036 11.536C139.505 11.3547 140.017 11.264 140.572 11.264ZM149.874 11.264C151.207 11.264 152.231 11.584 152.946 12.224C153.661 12.8533 154.018 13.808 154.018 15.088V20H151.682V18.928C151.213 19.728 150.338 20.128 149.058 20.128C148.397 20.128 147.821 20.016 147.33 19.792C146.85 19.568 146.482 19.2587 146.226 18.864C145.97 18.4693 145.842 18.0213 145.842 17.52C145.842 16.72 146.141 16.0907 146.738 15.632C147.346 15.1733 148.279 14.944 149.538 14.944H151.522C151.522 14.4 151.357 13.984 151.026 13.696C150.695 13.3973 150.199 13.248 149.538 13.248C149.079 13.248 148.626 13.3227 148.178 13.472C147.741 13.6107 147.367 13.8027 147.058 14.048L146.162 12.304C146.631 11.9733 147.191 11.7173 147.842 11.536C148.503 11.3547 149.181 11.264 149.874 11.264ZM149.682 18.448C150.109 18.448 150.487 18.352 150.818 18.16C151.149 17.9573 151.383 17.664 151.522 17.28V16.4H149.81C148.786 16.4 148.274 16.736 148.274 17.408C148.274 17.728 148.397 17.984 148.642 18.176C148.898 18.3573 149.245 18.448 149.682 18.448ZM161.509 11.264C162.576 11.264 163.434 11.584 164.085 12.224C164.746 12.864 165.077 13.8133 165.077 15.072V20H162.581V15.456C162.581 14.7733 162.432 14.2667 162.133 13.936C161.834 13.5947 161.402 13.424 160.837 13.424C160.208 13.424 159.706 13.6213 159.333 14.016C158.96 14.4 158.773 14.976 158.773 15.744V20H156.277V11.392H158.661V12.4C158.992 12.0373 159.402 11.76 159.893 11.568C160.384 11.3653 160.922 11.264 161.509 11.264ZM175.663 8.8V20H173.071V10.88H170.831V8.8H175.663Z" fill="white"/>
<rect x="300.5" y="0.5" width="269" height="178" rx="4.5" stroke="#D0D0D0"/>
<path d="M300 5C300 2.23858 302.239 0 305 0H565C567.761 0 570 2.23858 570 5V28H300V5Z" fill="#205B64"/>
<path d="M405.055 17.92V20H396.383V8.8H404.847V10.88H398.959V13.312H404.159V15.328H398.959V17.92H405.055ZM415.615 11.392V23.104H413.119V19.088C412.5 19.7813 411.641 20.128 410.543 20.128C409.732 20.128 408.996 19.9467 408.335 19.584C407.684 19.2213 407.172 18.704 406.799 18.032C406.425 17.36 406.239 16.5813 406.239 15.696C406.239 14.8107 406.425 14.032 406.799 13.36C407.172 12.688 407.684 12.1707 408.335 11.808C408.996 11.4453 409.732 11.264 410.543 11.264C411.716 11.264 412.612 11.6373 413.231 12.384V11.392H415.615ZM410.975 18.08C411.604 18.08 412.127 17.8667 412.543 17.44C412.959 17.0027 413.167 16.4213 413.167 15.696C413.167 14.9707 412.959 14.3947 412.543 13.968C412.127 13.5307 411.604 13.312 410.975 13.312C410.335 13.312 409.807 13.5307 409.391 13.968C408.975 14.3947 408.767 14.9707 408.767 15.696C408.767 16.4213 408.975 17.0027 409.391 17.44C409.807 17.8667 410.335 18.08 410.975 18.08ZM426.597 11.392V20H424.229V18.976C423.899 19.3493 423.504 19.6373 423.045 19.84C422.587 20.032 422.091 20.128 421.557 20.128C420.427 20.128 419.531 19.8027 418.869 19.152C418.208 18.5013 417.877 17.536 417.877 16.256V11.392H420.373V15.888C420.373 17.2747 420.955 17.968 422.117 17.968C422.715 17.968 423.195 17.776 423.557 17.392C423.92 16.9973 424.101 16.416 424.101 15.648V11.392H426.597ZM432.382 11.264C433.715 11.264 434.739 11.584 435.454 12.224C436.168 12.8533 436.526 13.808 436.526 15.088V20H434.19V18.928C433.72 19.728 432.846 20.128 431.566 20.128C430.904 20.128 430.328 20.016 429.838 19.792C429.358 19.568 428.99 19.2587 428.734 18.864C428.478 18.4693 428.35 18.0213 428.35 17.52C428.35 16.72 428.648 16.0907 429.246 15.632C429.854 15.1733 430.787 14.944 432.046 14.944H434.03C434.03 14.4 433.864 13.984 433.534 13.696C433.203 13.3973 432.707 13.248 432.046 13.248C431.587 13.248 431.134 13.3227 430.686 13.472C430.248 13.6107 429.875 13.8027 429.566 14.048L428.67 12.304C429.139 11.9733 429.699 11.7173 430.35 11.536C431.011 11.3547 431.688 11.264 432.382 11.264ZM432.19 18.448C432.616 18.448 432.995 18.352 433.326 18.16C433.656 17.9573 433.891 17.664 434.03 17.28V16.4H432.318C431.294 16.4 430.782 16.736 430.782 17.408C430.782 17.728 430.904 17.984 431.15 18.176C431.406 18.3573 431.752 18.448 432.19 18.448ZM438.785 8.128H441.281V20H438.785V8.128ZM453.681 19.584C453.435 19.7653 453.131 19.904 452.769 20C452.417 20.0853 452.043 20.128 451.649 20.128C450.625 20.128 449.83 19.8667 449.265 19.344C448.71 18.8213 448.433 18.0533 448.433 17.04V13.504H447.105V11.584H448.433V9.488H450.929V11.584H453.073V13.504H450.929V17.008C450.929 17.3707 451.019 17.6533 451.201 17.856C451.393 18.048 451.659 18.144 452.001 18.144C452.395 18.144 452.731 18.0373 453.009 17.824L453.681 19.584ZM458.912 20.128C458.005 20.128 457.189 19.9413 456.464 19.568C455.749 19.184 455.189 18.656 454.784 17.984C454.379 17.312 454.176 16.5493 454.176 15.696C454.176 14.8427 454.379 14.08 454.784 13.408C455.189 12.736 455.749 12.2133 456.464 11.84C457.189 11.456 458.005 11.264 458.912 11.264C459.819 11.264 460.629 11.456 461.344 11.84C462.059 12.2133 462.619 12.736 463.024 13.408C463.429 14.08 463.632 14.8427 463.632 15.696C463.632 16.5493 463.429 17.312 463.024 17.984C462.619 18.656 462.059 19.184 461.344 19.568C460.629 19.9413 459.819 20.128 458.912 20.128ZM458.912 18.08C459.552 18.08 460.075 17.8667 460.48 17.44C460.896 17.0027 461.104 16.4213 461.104 15.696C461.104 14.9707 460.896 14.3947 460.48 13.968C460.075 13.5307 459.552 13.312 458.912 13.312C458.272 13.312 457.744 13.5307 457.328 13.968C456.912 14.3947 456.704 14.9707 456.704 15.696C456.704 16.4213 456.912 17.0027 457.328 17.44C457.744 17.8667 458.272 18.08 458.912 18.08ZM473.624 8.8V20H471.032V10.88H468.792V8.8H473.624Z" fill="white"/>
<rect x="600.5" y="0.5" width="269" height="178" rx="4.5" stroke="#D0D0D0"/>
<path d="M600 5C600 2.23858 602.239 0 605 0H865C867.761 0 870 2.23858 870 5V28H600V5Z" fill="#205B64"/>
<path d="M686.005 14.224H688.373V18.768C687.765 19.2267 687.061 19.5787 686.261 19.824C685.461 20.0693 684.656 20.192 683.845 20.192C682.683 20.192 681.637 19.9467 680.709 19.456C679.781 18.9547 679.051 18.2667 678.517 17.392C677.995 16.5067 677.733 15.5093 677.733 14.4C677.733 13.2907 677.995 12.2987 678.517 11.424C679.051 10.5387 679.787 9.85067 680.725 9.36C681.664 8.85867 682.72 8.608 683.893 8.608C684.875 8.608 685.765 8.77333 686.565 9.104C687.365 9.43467 688.037 9.91467 688.581 10.544L686.917 12.08C686.117 11.2373 685.152 10.816 684.021 10.816C683.307 10.816 682.672 10.9653 682.117 11.264C681.563 11.5627 681.131 11.984 680.821 12.528C680.512 13.072 680.357 13.696 680.357 14.4C680.357 15.0933 680.512 15.712 680.821 16.256C681.131 16.8 681.557 17.2267 682.101 17.536C682.656 17.8347 683.285 17.984 683.989 17.984C684.736 17.984 685.408 17.824 686.005 17.504V14.224ZM692.989 12.528C693.288 12.112 693.688 11.7973 694.189 11.584C694.701 11.3707 695.288 11.264 695.949 11.264V13.568C695.672 13.5467 695.485 13.536 695.389 13.536C694.674 13.536 694.114 13.7387 693.709 14.144C693.304 14.5387 693.101 15.136 693.101 15.936V20H690.605V11.392H692.989V12.528ZM705.787 15.728C705.787 15.76 705.771 15.984 705.739 16.4H699.227C699.344 16.9333 699.622 17.3547 700.059 17.664C700.496 17.9733 701.04 18.128 701.691 18.128C702.139 18.128 702.534 18.064 702.875 17.936C703.227 17.7973 703.552 17.584 703.851 17.296L705.179 18.736C704.368 19.664 703.184 20.128 701.627 20.128C700.656 20.128 699.798 19.9413 699.051 19.568C698.304 19.184 697.728 18.656 697.323 17.984C696.918 17.312 696.715 16.5493 696.715 15.696C696.715 14.8533 696.912 14.096 697.307 13.424C697.712 12.7413 698.262 12.2133 698.955 11.84C699.659 11.456 700.443 11.264 701.307 11.264C702.15 11.264 702.912 11.4453 703.595 11.808C704.278 12.1707 704.811 12.6933 705.195 13.376C705.59 14.048 705.787 14.832 705.787 15.728ZM701.323 13.152C700.758 13.152 700.283 13.312 699.899 13.632C699.515 13.952 699.28 14.3893 699.195 14.944H703.435C703.35 14.4 703.115 13.968 702.731 13.648C702.347 13.3173 701.878 13.152 701.323 13.152ZM710.687 11.264C712.02 11.264 713.044 11.584 713.759 12.224C714.473 12.8533 714.831 13.808 714.831 15.088V20H712.495V18.928C712.025 19.728 711.151 20.128 709.871 20.128C709.209 20.128 708.633 20.016 708.143 19.792C707.663 19.568 707.295 19.2587 707.039 18.864C706.783 18.4693 706.655 18.0213 706.655 17.52C706.655 16.72 706.953 16.0907 707.551 15.632C708.159 15.1733 709.092 14.944 710.351 14.944H712.335C712.335 14.4 712.169 13.984 711.839 13.696C711.508 13.3973 711.012 13.248 710.351 13.248C709.892 13.248 709.439 13.3227 708.991 13.472C708.553 13.6107 708.18 13.8027 707.871 14.048L706.975 12.304C707.444 11.9733 708.004 11.7173 708.655 11.536C709.316 11.3547 709.993 11.264 710.687 11.264ZM710.495 18.448C710.921 18.448 711.3 18.352 711.631 18.16C711.961 17.9573 712.196 17.664 712.335 17.28V16.4H710.623C709.599 16.4 709.087 16.736 709.087 17.408C709.087 17.728 709.209 17.984 709.455 18.176C709.711 18.3573 710.057 18.448 710.495 18.448ZM722.642 19.584C722.396 19.7653 722.092 19.904 721.73 20C721.378 20.0853 721.004 20.128 720.61 20.128C719.586 20.128 718.791 19.8667 718.226 19.344C717.671 18.8213 717.394 18.0533 717.394 17.04V13.504H716.066V11.584H717.394V9.488H719.89V11.584H722.034V13.504H719.89V17.008C719.89 17.3707 719.98 17.6533 720.161 17.856C720.354 18.048 720.62 18.144 720.962 18.144C721.356 18.144 721.692 18.0373 721.97 17.824L722.642 19.584ZM732.209 15.728C732.209 15.76 732.193 15.984 732.161 16.4H725.649C725.766 16.9333 726.044 17.3547 726.481 17.664C726.918 17.9733 727.462 18.128 728.113 18.128C728.561 18.128 728.956 18.064 729.297 17.936C729.649 17.7973 729.974 17.584 730.273 17.296L731.601 18.736C730.79 19.664 729.606 20.128 728.049 20.128C727.078 20.128 726.22 19.9413 725.473 19.568C724.726 19.184 724.15 18.656 723.745 17.984C723.34 17.312 723.137 16.5493 723.137 15.696C723.137 14.8533 723.334 14.096 723.729 13.424C724.134 12.7413 724.684 12.2133 725.377 11.84C726.081 11.456 726.865 11.264 727.729 11.264C728.572 11.264 729.334 11.4453 730.017 11.808C730.7 12.1707 731.233 12.6933 731.617 13.376C732.012 14.048 732.209 14.832 732.209 15.728ZM727.745 13.152C727.18 13.152 726.705 13.312 726.321 13.632C725.937 13.952 725.702 14.3893 725.617 14.944H729.857C729.772 14.4 729.537 13.968 729.153 13.648C728.769 13.3173 728.3 13.152 727.745 13.152ZM736.255 12.528C736.553 12.112 736.953 11.7973 737.455 11.584C737.967 11.3707 738.553 11.264 739.215 11.264V13.568C738.937 13.5467 738.751 13.536 738.655 13.536C737.94 13.536 737.38 13.7387 736.975 14.144C736.569 14.5387 736.367 15.136 736.367 15.936V20H733.871V11.392H736.255V12.528ZM750.845 19.584C750.599 19.7653 750.295 19.904 749.933 20C749.581 20.0853 749.207 20.128 748.813 20.128C747.789 20.128 746.994 19.8667 746.429 19.344C745.874 18.8213 745.597 18.0533 745.597 17.04V13.504H744.269V11.584H745.597V9.488H748.093V11.584H750.237V13.504H748.093V17.008C748.093 17.3707 748.183 17.6533 748.365 17.856C748.557 18.048 748.823 18.144 749.165 18.144C749.559 18.144 749.895 18.0373 750.173 17.824L750.845 19.584ZM757.478 11.264C758.544 11.264 759.403 11.584 760.054 12.224C760.715 12.864 761.046 13.8133 761.046 15.072V20H758.55V15.456C758.55 14.7733 758.4 14.2667 758.102 13.936C757.803 13.5947 757.371 13.424 756.806 13.424C756.176 13.424 755.675 13.6213 755.302 14.016C754.928 14.4 754.742 14.976 754.742 15.744V20H752.246V8.128H754.742V12.288C755.072 11.9573 755.472 11.7067 755.942 11.536C756.411 11.3547 756.923 11.264 757.478 11.264ZM766.78 11.264C768.114 11.264 769.138 11.584 769.852 12.224C770.567 12.8533 770.924 13.808 770.924 15.088V20H768.588V18.928C768.119 19.728 767.244 20.128 765.964 20.128C765.303 20.128 764.727 20.016 764.236 19.792C763.756 19.568 763.388 19.2587 763.132 18.864C762.876 18.4693 762.748 18.0213 762.748 17.52C762.748 16.72 763.047 16.0907 763.644 15.632C764.252 15.1733 765.186 14.944 766.444 14.944H768.428C768.428 14.4 768.263 13.984 767.932 13.696C767.602 13.3973 767.106 13.248 766.444 13.248C765.986 13.248 765.532 13.3227 765.084 13.472C764.647 13.6107 764.274 13.8027 763.964 14.048L763.068 12.304C763.538 11.9733 764.098 11.7173 764.748 11.536C765.41 11.3547 766.087 11.264 766.78 11.264ZM766.588 18.448C767.015 18.448 767.394 18.352 767.724 18.16C768.055 17.9573 768.29 17.664 768.428 17.28V16.4H766.716C765.692 16.4 765.18 16.736 765.18 17.408C765.18 17.728 765.303 17.984 765.548 18.176C765.804 18.3573 766.151 18.448 766.588 18.448ZM778.415 11.264C779.482 11.264 780.341 11.584 780.991 12.224C781.653 12.864 781.983 13.8133 781.983 15.072V20H779.487V15.456C779.487 14.7733 779.338 14.2667 779.039 13.936C778.741 13.5947 778.309 13.424 777.743 13.424C777.114 13.424 776.613 13.6213 776.239 14.016C775.866 14.4 775.679 14.976 775.679 15.744V20H773.183V11.392H775.567V12.4C775.898 12.0373 776.309 11.76 776.799 11.568C777.29 11.3653 777.829 11.264 778.415 11.264ZM792.569 8.8V20H789.977V10.88H787.737V8.8H792.569Z" fill="white"/>
</svg>
