<svg width="116" height="70" viewBox="0 0 116 70" fill="none" xmlns="http://www.w3.org/2000/svg">
<rect x="0.5" y="0.5" width="115" height="69" rx="4.5" fill="#369CB7"/>
<path d="M83.4305 22.404H81.0365V25.5H79.2905V22.404H72.2885V21.144L78.7325 12.9H80.6765L74.5025 20.856H79.3445V18.12H81.0365V20.856H83.4305V22.404Z" fill="white"/>
<path d="M26.7861 27.5V45H24.3111V29.675H20.3611V27.5H26.7861ZM46.5379 34.5L50.4079 38.4L48.7879 40.14L44.8579 36.18L40.9279 40.14L39.3379 38.4L43.2079 34.5L39.3379 30.6L40.9279 28.86L44.8579 32.82L48.7879 28.86L50.4079 30.6L46.5379 34.5Z" fill="white"/>
<path d="M83.4305 53.404H81.0365V56.5H79.2905V53.404H72.2885V52.144L78.7325 43.9H80.6765L74.5025 51.856H79.3445V49.12H81.0365V51.856H83.4305V53.404Z" fill="white"/>
<line x1="59.125" y1="34" x2="96.125" y2="34" stroke="white"/>
<rect x="0.5" y="0.5" width="115" height="69" rx="4.5" stroke="#369CB7"/>
</svg>
