<svg width="116" height="70" viewBox="0 0 116 70" fill="none" xmlns="http://www.w3.org/2000/svg">
<rect x="0.5" y="0.5" width="115" height="69" rx="4.5" fill="#369CB7"/>
<path d="M80.5639 12.9V25.5H78.7819V14.466H75.9379V12.9H80.5639Z" fill="white"/>
<path d="M34.8508 40.7H31.5258V45H29.1008V40.7H19.3758V38.95L28.3258 27.5H31.0258L22.4508 38.55H29.1758V34.75H31.5258V38.55H34.8508V40.7ZM52.2733 34.5L56.1433 38.4L54.5233 40.14L50.5933 36.18L46.6633 40.14L45.0733 38.4L48.9433 34.5L45.0733 30.6L46.6633 28.86L50.5933 32.82L54.5233 28.86L56.1433 30.6L52.2733 34.5Z" fill="white"/>
<path d="M79.6626 49.192C80.8986 49.312 81.8406 49.696 82.4886 50.344C83.1366 50.98 83.4606 51.796 83.4606 52.792C83.4606 53.512 83.2806 54.166 82.9206 54.754C82.5606 55.33 82.0206 55.792 81.3006 56.14C80.5926 56.476 79.7226 56.644 78.6906 56.644C77.7906 56.644 76.9266 56.512 76.0986 56.248C75.2706 55.972 74.5926 55.594 74.0646 55.114L74.8926 53.692C75.3246 54.1 75.8766 54.43 76.5486 54.682C77.2206 54.922 77.9346 55.042 78.6906 55.042C79.6266 55.042 80.3526 54.844 80.8686 54.448C81.3966 54.052 81.6606 53.506 81.6606 52.81C81.6606 52.114 81.4026 51.574 80.8866 51.19C80.3706 50.806 79.5906 50.614 78.5466 50.614H77.5386V49.354L80.7066 45.466H74.6406V43.9H82.9566V45.124L79.6626 49.192Z" fill="white"/>
<line x1="60.625" y1="34" x2="97.625" y2="34" stroke="white"/>
<rect x="0.5" y="0.5" width="115" height="69" rx="4.5" stroke="#369CB7"/>
</svg>
