<svg width="116" height="70" viewBox="0 0 116 70" fill="none" xmlns="http://www.w3.org/2000/svg">
<rect x="0.5" y="0.5" width="115" height="69" rx="4.5" fill="#369CB7"/>
<path d="M82.4305 22.404H80.0365V25.5H78.2905V22.404H71.2885V21.144L77.7325 12.9H79.6765L73.5025 20.856H78.3445V18.12H80.0365V20.856H82.4305V22.404Z" fill="white"/>
<path d="M27.7412 25.5V43H25.2662V27.675H21.3162V25.5H27.7412ZM45.758 34.25L48.983 37.5L47.633 38.95L44.358 35.65L41.083 38.95L39.758 37.5L42.983 34.25L39.758 31L41.083 29.55L44.358 32.85L47.633 29.55L48.983 31L45.758 34.25Z" fill="white"/>
<path d="M82.4305 53.404H80.0365V56.5H78.2905V53.404H71.2885V52.144L77.7325 43.9H79.6765L73.5025 51.856H78.3445V49.12H80.0365V51.856H82.4305V53.404Z" fill="white"/>
<line x1="58.125" y1="34" x2="95.125" y2="34" stroke="white"/>
<rect x="0.5" y="0.5" width="115" height="69" rx="4.5" stroke="#369CB7"/>
</svg>
