<svg width="116" height="70" viewBox="0 0 116 70" fill="none" xmlns="http://www.w3.org/2000/svg">
<rect x="0.5" y="0.5" width="115" height="69" rx="4.5" fill="#369CB7"/>
<path d="M79.5639 12.9V25.5H77.7819V14.466H74.9379V12.9H79.5639Z" fill="white"/>
<path d="M33.0649 40.825V43H20.4899V41.3L27.6149 34.425C28.4816 33.5917 29.0649 32.875 29.3649 32.275C29.6649 31.6583 29.8149 31.0417 29.8149 30.425C29.8149 29.5083 29.4899 28.8 28.8399 28.3C28.2066 27.7833 27.2899 27.525 26.0899 27.525C24.1566 27.525 22.6649 28.1583 21.6149 29.425L19.9149 27.95C20.5983 27.1167 21.4899 26.4667 22.5899 26C23.7066 25.5333 24.9483 25.3 26.3149 25.3C28.1483 25.3 29.6066 25.7417 30.6899 26.625C31.7733 27.4917 32.3149 28.675 32.3149 30.175C32.3149 31.1083 32.1149 31.9917 31.7149 32.825C31.3149 33.6583 30.5566 34.6083 29.4399 35.675L24.0899 40.825H33.0649ZM49.3093 34.25L52.5343 37.5L51.1843 38.95L47.9093 35.65L44.6343 38.95L43.3093 37.5L46.5343 34.25L43.3093 31L44.6343 29.55L47.9093 32.85L51.1843 29.55L52.5343 31L49.3093 34.25Z" fill="white"/>
<path d="M78.6626 49.192C79.8986 49.312 80.8406 49.696 81.4886 50.344C82.1366 50.98 82.4606 51.796 82.4606 52.792C82.4606 53.512 82.2806 54.166 81.9206 54.754C81.5606 55.33 81.0206 55.792 80.3006 56.14C79.5926 56.476 78.7226 56.644 77.6906 56.644C76.7906 56.644 75.9266 56.512 75.0986 56.248C74.2706 55.972 73.5926 55.594 73.0646 55.114L73.8926 53.692C74.3246 54.1 74.8766 54.43 75.5486 54.682C76.2206 54.922 76.9346 55.042 77.6906 55.042C78.6266 55.042 79.3526 54.844 79.8686 54.448C80.3966 54.052 80.6606 53.506 80.6606 52.81C80.6606 52.114 80.4026 51.574 79.8866 51.19C79.3706 50.806 78.5906 50.614 77.5466 50.614H76.5386V49.354L79.7066 45.466H73.6406V43.9H81.9566V45.124L78.6626 49.192Z" fill="white"/>
<line x1="59.625" y1="34" x2="96.625" y2="34" stroke="white"/>
<rect x="0.5" y="0.5" width="115" height="69" rx="4.5" stroke="#369CB7"/>
</svg>
