<svg width="116" height="70" viewBox="0 0 116 70" fill="none" xmlns="http://www.w3.org/2000/svg">
<rect x="0.5" y="0.5" width="115" height="69" rx="4.5" fill="#369CB7"/>
<path d="M80.0639 12.9V25.5H78.2819V14.466H75.4379V12.9H80.0639Z" fill="white"/>
<path d="M35.3059 38.7H31.9809V43H29.5559V38.7H19.8309V36.95L28.7809 25.5H31.4809L22.9059 36.55H29.6309V32.75H31.9809V36.55H35.3059V38.7ZM50.9934 34.25L54.2184 37.5L52.8684 38.95L49.5934 35.65L46.3184 38.95L44.9934 37.5L48.2184 34.25L44.9934 31L46.3184 29.55L49.5934 32.85L52.8684 29.55L54.2184 31L50.9934 34.25Z" fill="white"/>
<path d="M79.1626 49.192C80.3986 49.312 81.3406 49.696 81.9886 50.344C82.6366 50.98 82.9606 51.796 82.9606 52.792C82.9606 53.512 82.7806 54.166 82.4206 54.754C82.0606 55.33 81.5206 55.792 80.8006 56.14C80.0926 56.476 79.2226 56.644 78.1906 56.644C77.2906 56.644 76.4266 56.512 75.5986 56.248C74.7706 55.972 74.0926 55.594 73.5646 55.114L74.3926 53.692C74.8246 54.1 75.3766 54.43 76.0486 54.682C76.7206 54.922 77.4346 55.042 78.1906 55.042C79.1266 55.042 79.8526 54.844 80.3686 54.448C80.8966 54.052 81.1606 53.506 81.1606 52.81C81.1606 52.114 80.9026 51.574 80.3866 51.19C79.8706 50.806 79.0906 50.614 78.0466 50.614H77.0386V49.354L80.2066 45.466H74.1406V43.9H82.4566V45.124L79.1626 49.192Z" fill="white"/>
<line x1="60.125" y1="34" x2="97.125" y2="34" stroke="white"/>
<rect x="0.5" y="0.5" width="115" height="69" rx="4.5" stroke="#369CB7"/>
</svg>
