<svg width="116" height="70" viewBox="0 0 116 70" fill="none" xmlns="http://www.w3.org/2000/svg">
<rect x="0.5" y="0.5" width="115" height="69" rx="4.5" fill="#369CB7"/>
<path d="M76.8703 17.85C77.6983 17.85 78.4363 18.006 79.0843 18.318C79.7443 18.63 80.2603 19.08 80.6323 19.668C81.0043 20.244 81.1903 20.91 81.1903 21.666C81.1903 22.458 80.9923 23.154 80.5963 23.754C80.2123 24.354 79.6783 24.822 78.9943 25.158C78.3223 25.482 77.5663 25.644 76.7263 25.644C75.0343 25.644 73.7263 25.098 72.8023 24.006C71.8903 22.914 71.4343 21.366 71.4343 19.362C71.4343 17.958 71.6803 16.764 72.1723 15.78C72.6763 14.784 73.3723 14.034 74.2603 13.53C75.1603 13.014 76.2043 12.756 77.3923 12.756C78.0043 12.756 78.5803 12.822 79.1203 12.954C79.6603 13.074 80.1283 13.254 80.5243 13.494L79.8403 14.898C79.2403 14.502 78.4363 14.304 77.4283 14.304C76.1203 14.304 75.0943 14.712 74.3503 15.528C73.6063 16.332 73.2343 17.508 73.2343 19.056C73.2343 19.248 73.2403 19.398 73.2523 19.506C73.6123 18.966 74.1043 18.558 74.7283 18.282C75.3643 17.994 76.0783 17.85 76.8703 17.85ZM76.6543 24.186C77.4823 24.186 78.1543 23.964 78.6703 23.52C79.1863 23.076 79.4443 22.482 79.4443 21.738C79.4443 20.994 79.1803 20.406 78.6523 19.974C78.1363 19.53 77.4403 19.308 76.5643 19.308C76.0003 19.308 75.4963 19.416 75.0523 19.632C74.6203 19.848 74.2783 20.142 74.0263 20.514C73.7863 20.886 73.6663 21.3 73.6663 21.756C73.6663 22.2 73.7803 22.608 74.0083 22.98C74.2483 23.34 74.5903 23.634 75.0343 23.862C75.4903 24.078 76.0303 24.186 76.6543 24.186Z" fill="white"/>
<path d="M27.7412 25.5V43H25.2662V27.675H21.3162V25.5H27.7412ZM45.758 34.25L48.983 37.5L47.633 38.95L44.358 35.65L41.083 38.95L39.758 37.5L42.983 34.25L39.758 31L41.083 29.55L44.358 32.85L47.633 29.55L48.983 31L45.758 34.25Z" fill="white"/>
<path d="M76.8703 48.85C77.6983 48.85 78.4363 49.006 79.0843 49.318C79.7443 49.63 80.2603 50.08 80.6323 50.668C81.0043 51.244 81.1903 51.91 81.1903 52.666C81.1903 53.458 80.9923 54.154 80.5963 54.754C80.2123 55.354 79.6783 55.822 78.9943 56.158C78.3223 56.482 77.5663 56.644 76.7263 56.644C75.0343 56.644 73.7263 56.098 72.8023 55.006C71.8903 53.914 71.4343 52.366 71.4343 50.362C71.4343 48.958 71.6803 47.764 72.1723 46.78C72.6763 45.784 73.3723 45.034 74.2603 44.53C75.1603 44.014 76.2043 43.756 77.3923 43.756C78.0043 43.756 78.5803 43.822 79.1203 43.954C79.6603 44.074 80.1283 44.254 80.5243 44.494L79.8403 45.898C79.2403 45.502 78.4363 45.304 77.4283 45.304C76.1203 45.304 75.0943 45.712 74.3503 46.528C73.6063 47.332 73.2343 48.508 73.2343 50.056C73.2343 50.248 73.2403 50.398 73.2523 50.506C73.6123 49.966 74.1043 49.558 74.7283 49.282C75.3643 48.994 76.0783 48.85 76.8703 48.85ZM76.6543 55.186C77.4823 55.186 78.1543 54.964 78.6703 54.52C79.1863 54.076 79.4443 53.482 79.4443 52.738C79.4443 51.994 79.1803 51.406 78.6523 50.974C78.1363 50.53 77.4403 50.308 76.5643 50.308C76.0003 50.308 75.4963 50.416 75.0523 50.632C74.6203 50.848 74.2783 51.142 74.0263 51.514C73.7863 51.886 73.6663 52.3 73.6663 52.756C73.6663 53.2 73.7803 53.608 74.0083 53.98C74.2483 54.34 74.5903 54.634 75.0343 54.862C75.4903 55.078 76.0303 55.186 76.6543 55.186Z" fill="white"/>
<line x1="58.125" y1="34" x2="95.125" y2="34" stroke="white"/>
<rect x="0.5" y="0.5" width="115" height="69" rx="4.5" stroke="#369CB7"/>
</svg>
