<svg width="116" height="70" viewBox="0 0 116 70" fill="none" xmlns="http://www.w3.org/2000/svg">
<rect x="0.5" y="0.5" width="115" height="69" rx="4.5" fill="#369CB7"/>
<path d="M80.0639 12.9V25.5H78.2819V14.466H75.4379V12.9H80.0639Z" fill="white"/>
<path d="M27.0343 34.85C28.7509 35.0167 30.0593 35.55 30.9593 36.45C31.8593 37.3333 32.3093 38.4667 32.3093 39.85C32.3093 40.85 32.0593 41.7583 31.5593 42.575C31.0593 43.375 30.3093 44.0167 29.3093 44.5C28.3259 44.9667 27.1176 45.2 25.6843 45.2C24.4343 45.2 23.2343 45.0167 22.0843 44.65C20.9343 44.2667 19.9926 43.7417 19.2593 43.075L20.4093 41.1C21.0093 41.6667 21.7759 42.125 22.7093 42.475C23.6426 42.8083 24.6343 42.975 25.6843 42.975C26.9843 42.975 27.9926 42.7 28.7093 42.15C29.4426 41.6 29.8093 40.8417 29.8093 39.875C29.8093 38.9083 29.4509 38.1583 28.7343 37.625C28.0176 37.0917 26.9343 36.825 25.4843 36.825H24.0843V35.075L28.4843 29.675H20.0593V27.5H31.6093V29.2L27.0343 34.85ZM50.5648 34.5L54.4348 38.4L52.8148 40.14L48.8848 36.18L44.9548 40.14L43.3648 38.4L47.2348 34.5L43.3648 30.6L44.9548 28.86L48.8848 32.82L52.8148 28.86L54.4348 30.6L50.5648 34.5Z" fill="white"/>
<path d="M83.177 54.934V56.5H74.123V55.276L79.253 50.326C79.877 49.726 80.297 49.21 80.513 48.778C80.729 48.334 80.837 47.89 80.837 47.446C80.837 46.786 80.603 46.276 80.135 45.916C79.679 45.544 79.019 45.358 78.155 45.358C76.763 45.358 75.689 45.814 74.933 46.726L73.709 45.664C74.201 45.064 74.843 44.596 75.635 44.26C76.439 43.924 77.333 43.756 78.317 43.756C79.637 43.756 80.687 44.074 81.467 44.71C82.247 45.334 82.637 46.186 82.637 47.266C82.637 47.938 82.493 48.574 82.205 49.174C81.917 49.774 81.371 50.458 80.567 51.226L76.715 54.934H83.177Z" fill="white"/>
<line x1="60.125" y1="34" x2="97.125" y2="34" stroke="white"/>
<rect x="0.5" y="0.5" width="115" height="69" rx="4.5" stroke="#369CB7"/>
</svg>
