<svg width="116" height="70" viewBox="0 0 116 70" fill="none" xmlns="http://www.w3.org/2000/svg">
<rect x="0.5" y="0.5" width="115" height="69" rx="4.5" fill="#369CB7"/>
<path d="M79.0639 12.9V25.5H77.2819V14.466H74.4379V12.9H79.0639Z" fill="white"/>
<path d="M26.7861 27.5V45H24.3111V29.675H20.3611V27.5H26.7861ZM46.5379 34.5L50.4079 38.4L48.7879 40.14L44.8579 36.18L40.9279 40.14L39.3379 38.4L43.2079 34.5L39.3379 30.6L40.9279 28.86L44.8579 32.82L48.7879 28.86L50.4079 30.6L46.5379 34.5Z" fill="white"/>
<path d="M76.921 48.922C78.721 48.922 80.041 49.264 80.881 49.948C81.733 50.62 82.159 51.544 82.159 52.72C82.159 53.464 81.979 54.136 81.619 54.736C81.271 55.324 80.737 55.792 80.017 56.14C79.309 56.476 78.433 56.644 77.389 56.644C76.501 56.644 75.643 56.512 74.815 56.248C73.987 55.972 73.303 55.594 72.763 55.114L73.591 53.692C74.023 54.1 74.575 54.43 75.247 54.682C75.919 54.922 76.627 55.042 77.371 55.042C78.319 55.042 79.051 54.844 79.567 54.448C80.095 54.04 80.359 53.488 80.359 52.792C80.359 52.036 80.071 51.466 79.495 51.082C78.919 50.686 77.935 50.488 76.543 50.488H73.681L74.347 43.9H81.457V45.466H75.859L75.517 48.922H76.921Z" fill="white"/>
<line x1="59.125" y1="34" x2="96.125" y2="34" stroke="white"/>
<rect x="0.5" y="0.5" width="115" height="69" rx="4.5" stroke="#369CB7"/>
</svg>
