<svg width="116" height="70" viewBox="0 0 116 70" fill="none" xmlns="http://www.w3.org/2000/svg">
<rect x="0.5" y="0.5" width="115" height="69" rx="4.5" fill="#369CB7"/>
<path d="M78.0639 12.9V25.5H76.2819V14.466H73.4379V12.9H78.0639Z" fill="white"/>
<path d="M27.7412 25.5V43H25.2662V27.675H21.3162V25.5H27.7412ZM45.758 34.25L48.983 37.5L47.633 38.95L44.358 35.65L41.083 38.95L39.758 37.5L42.983 34.25L39.758 31L41.083 29.55L44.358 32.85L47.633 29.55L48.983 31L45.758 34.25Z" fill="white"/>
<path d="M75.921 48.922C77.721 48.922 79.041 49.264 79.881 49.948C80.733 50.62 81.159 51.544 81.159 52.72C81.159 53.464 80.979 54.136 80.619 54.736C80.271 55.324 79.737 55.792 79.017 56.14C78.309 56.476 77.433 56.644 76.389 56.644C75.501 56.644 74.643 56.512 73.815 56.248C72.987 55.972 72.303 55.594 71.763 55.114L72.591 53.692C73.023 54.1 73.575 54.43 74.247 54.682C74.919 54.922 75.627 55.042 76.371 55.042C77.319 55.042 78.051 54.844 78.567 54.448C79.095 54.04 79.359 53.488 79.359 52.792C79.359 52.036 79.071 51.466 78.495 51.082C77.919 50.686 76.935 50.488 75.543 50.488H72.681L73.347 43.9H80.457V45.466H74.859L74.517 48.922H75.921Z" fill="white"/>
<line x1="58.125" y1="34" x2="95.125" y2="34" stroke="white"/>
<rect x="0.5" y="0.5" width="115" height="69" rx="4.5" stroke="#369CB7"/>
</svg>
