<svg width="116" height="70" viewBox="0 0 116 70" fill="none" xmlns="http://www.w3.org/2000/svg">
<rect x="0.5" y="0.5" width="115" height="69" rx="4.5" fill="#369CB7"/>
<path d="M79.5639 12.9V25.5H77.7819V14.466H74.9379V12.9H79.5639Z" fill="white"/>
<path d="M27.4894 32.85C29.206 33.0167 30.5144 33.55 31.4144 34.45C32.3144 35.3333 32.7644 36.4667 32.7644 37.85C32.7644 38.85 32.5144 39.7583 32.0144 40.575C31.5144 41.375 30.7644 42.0167 29.7644 42.5C28.781 42.9667 27.5727 43.2 26.1394 43.2C24.8894 43.2 23.6894 43.0167 22.5394 42.65C21.3894 42.2667 20.4477 41.7417 19.7144 41.075L20.8644 39.1C21.4644 39.6667 22.231 40.125 23.1644 40.475C24.0977 40.8083 25.0894 40.975 26.1394 40.975C27.4394 40.975 28.4477 40.7 29.1644 40.15C29.8977 39.6 30.2644 38.8417 30.2644 37.875C30.2644 36.9083 29.906 36.1583 29.1894 35.625C28.4727 35.0917 27.3894 34.825 25.9394 34.825H24.5394V33.075L28.9394 27.675H20.5144V25.5H32.0644V27.2L27.4894 32.85ZM49.2849 34.25L52.5099 37.5L51.1599 38.95L47.8849 35.65L44.6099 38.95L43.2849 37.5L46.5099 34.25L43.2849 31L44.6099 29.55L47.8849 32.85L51.1599 29.55L52.5099 31L49.2849 34.25Z" fill="white"/>
<path d="M82.677 54.934V56.5H73.623V55.276L78.753 50.326C79.377 49.726 79.797 49.21 80.013 48.778C80.229 48.334 80.337 47.89 80.337 47.446C80.337 46.786 80.103 46.276 79.635 45.916C79.179 45.544 78.519 45.358 77.655 45.358C76.263 45.358 75.189 45.814 74.433 46.726L73.209 45.664C73.701 45.064 74.343 44.596 75.135 44.26C75.939 43.924 76.833 43.756 77.817 43.756C79.137 43.756 80.187 44.074 80.967 44.71C81.747 45.334 82.137 46.186 82.137 47.266C82.137 47.938 81.993 48.574 81.705 49.174C81.417 49.774 80.871 50.458 80.067 51.226L76.215 54.934H82.677Z" fill="white"/>
<line x1="59.625" y1="34" x2="96.625" y2="34" stroke="white"/>
<rect x="0.5" y="0.5" width="115" height="69" rx="4.5" stroke="#369CB7"/>
</svg>
