<svg width="116" height="70" viewBox="0 0 116 70" fill="none" xmlns="http://www.w3.org/2000/svg">
<rect x="0.5" y="0.5" width="115" height="69" rx="4.5" fill="#369CB7"/>
<path d="M77.8703 17.85C78.6983 17.85 79.4363 18.006 80.0843 18.318C80.7443 18.63 81.2603 19.08 81.6323 19.668C82.0043 20.244 82.1903 20.91 82.1903 21.666C82.1903 22.458 81.9923 23.154 81.5963 23.754C81.2123 24.354 80.6783 24.822 79.9943 25.158C79.3223 25.482 78.5663 25.644 77.7263 25.644C76.0343 25.644 74.7263 25.098 73.8023 24.006C72.8903 22.914 72.4343 21.366 72.4343 19.362C72.4343 17.958 72.6803 16.764 73.1723 15.78C73.6763 14.784 74.3723 14.034 75.2603 13.53C76.1603 13.014 77.2043 12.756 78.3923 12.756C79.0043 12.756 79.5803 12.822 80.1203 12.954C80.6603 13.074 81.1283 13.254 81.5243 13.494L80.8403 14.898C80.2403 14.502 79.4363 14.304 78.4283 14.304C77.1203 14.304 76.0943 14.712 75.3503 15.528C74.6063 16.332 74.2343 17.508 74.2343 19.056C74.2343 19.248 74.2403 19.398 74.2523 19.506C74.6123 18.966 75.1043 18.558 75.7283 18.282C76.3643 17.994 77.0783 17.85 77.8703 17.85ZM77.6543 24.186C78.4823 24.186 79.1543 23.964 79.6703 23.52C80.1863 23.076 80.4443 22.482 80.4443 21.738C80.4443 20.994 80.1803 20.406 79.6523 19.974C79.1363 19.53 78.4403 19.308 77.5643 19.308C77.0003 19.308 76.4963 19.416 76.0523 19.632C75.6203 19.848 75.2783 20.142 75.0263 20.514C74.7863 20.886 74.6663 21.3 74.6663 21.756C74.6663 22.2 74.7803 22.608 75.0083 22.98C75.2483 23.34 75.5903 23.634 76.0343 23.862C76.4903 24.078 77.0303 24.186 77.6543 24.186Z" fill="white"/>
<path d="M26.7861 27.5V45H24.3111V29.675H20.3611V27.5H26.7861ZM46.5379 34.5L50.4079 38.4L48.7879 40.14L44.8579 36.18L40.9279 40.14L39.3379 38.4L43.2079 34.5L39.3379 30.6L40.9279 28.86L44.8579 32.82L48.7879 28.86L50.4079 30.6L46.5379 34.5Z" fill="white"/>
<path d="M77.8703 48.85C78.6983 48.85 79.4363 49.006 80.0843 49.318C80.7443 49.63 81.2603 50.08 81.6323 50.668C82.0043 51.244 82.1903 51.91 82.1903 52.666C82.1903 53.458 81.9923 54.154 81.5963 54.754C81.2123 55.354 80.6783 55.822 79.9943 56.158C79.3223 56.482 78.5663 56.644 77.7263 56.644C76.0343 56.644 74.7263 56.098 73.8023 55.006C72.8903 53.914 72.4343 52.366 72.4343 50.362C72.4343 48.958 72.6803 47.764 73.1723 46.78C73.6763 45.784 74.3723 45.034 75.2603 44.53C76.1603 44.014 77.2043 43.756 78.3923 43.756C79.0043 43.756 79.5803 43.822 80.1203 43.954C80.6603 44.074 81.1283 44.254 81.5243 44.494L80.8403 45.898C80.2403 45.502 79.4363 45.304 78.4283 45.304C77.1203 45.304 76.0943 45.712 75.3503 46.528C74.6063 47.332 74.2343 48.508 74.2343 50.056C74.2343 50.248 74.2403 50.398 74.2523 50.506C74.6123 49.966 75.1043 49.558 75.7283 49.282C76.3643 48.994 77.0783 48.85 77.8703 48.85ZM77.6543 55.186C78.4823 55.186 79.1543 54.964 79.6703 54.52C80.1863 54.076 80.4443 53.482 80.4443 52.738C80.4443 51.994 80.1803 51.406 79.6523 50.974C79.1363 50.53 78.4403 50.308 77.5643 50.308C77.0003 50.308 76.4963 50.416 76.0523 50.632C75.6203 50.848 75.2783 51.142 75.0263 51.514C74.7863 51.886 74.6663 52.3 74.6663 52.756C74.6663 53.2 74.7803 53.608 75.0083 53.98C75.2483 54.34 75.5903 54.634 76.0343 54.862C76.4903 55.078 77.0303 55.186 77.6543 55.186Z" fill="white"/>
<line x1="59.125" y1="34" x2="96.125" y2="34" stroke="white"/>
<rect x="0.5" y="0.5" width="115" height="69" rx="4.5" stroke="#369CB7"/>
</svg>
