<svg width="116" height="70" viewBox="0 0 116 70" fill="none" xmlns="http://www.w3.org/2000/svg">
<rect x="0.5" y="0.5" width="115" height="69" rx="4.5" fill="#369CB7"/>
<path d="M80.0639 12.9V25.5H78.2819V14.466H75.4379V12.9H80.0639Z" fill="white"/>
<path d="M32.6099 42.825V45H20.0349V43.3L27.1599 36.425C28.0265 35.5917 28.6099 34.875 28.9099 34.275C29.2099 33.6583 29.3599 33.0417 29.3599 32.425C29.3599 31.5083 29.0349 30.8 28.3849 30.3C27.7515 29.7833 26.8349 29.525 25.6349 29.525C23.7015 29.525 22.2099 30.1583 21.1599 31.425L19.4599 29.95C20.1432 29.1167 21.0349 28.4667 22.1349 28C23.2515 27.5333 24.4932 27.3 25.8599 27.3C27.6932 27.3 29.1515 27.7417 30.2349 28.625C31.3182 29.4917 31.8599 30.675 31.8599 32.175C31.8599 33.1083 31.6599 33.9917 31.2599 34.825C30.8599 35.6583 30.1015 36.6083 28.9849 37.675L23.6349 42.825H32.6099ZM50.5892 34.5L54.4592 38.4L52.8392 40.14L48.9092 36.18L44.9792 40.14L43.3892 38.4L47.2592 34.5L43.3892 30.6L44.9792 28.86L48.9092 32.82L52.8392 28.86L54.4592 30.6L50.5892 34.5Z" fill="white"/>
<path d="M79.1626 49.192C80.3986 49.312 81.3406 49.696 81.9886 50.344C82.6366 50.98 82.9606 51.796 82.9606 52.792C82.9606 53.512 82.7806 54.166 82.4206 54.754C82.0606 55.33 81.5206 55.792 80.8006 56.14C80.0926 56.476 79.2226 56.644 78.1906 56.644C77.2906 56.644 76.4266 56.512 75.5986 56.248C74.7706 55.972 74.0926 55.594 73.5646 55.114L74.3926 53.692C74.8246 54.1 75.3766 54.43 76.0486 54.682C76.7206 54.922 77.4346 55.042 78.1906 55.042C79.1266 55.042 79.8526 54.844 80.3686 54.448C80.8966 54.052 81.1606 53.506 81.1606 52.81C81.1606 52.114 80.9026 51.574 80.3866 51.19C79.8706 50.806 79.0906 50.614 78.0466 50.614H77.0386V49.354L80.2066 45.466H74.1406V43.9H82.4566V45.124L79.1626 49.192Z" fill="white"/>
<line x1="60.125" y1="34" x2="97.125" y2="34" stroke="white"/>
<rect x="0.5" y="0.5" width="115" height="69" rx="4.5" stroke="#369CB7"/>
</svg>
