<svg width="107" height="48" viewBox="0 0 107 48" fill="none" xmlns="http://www.w3.org/2000/svg">
<path d="M6.06138 20.896C8.46138 20.896 10.2214 21.352 11.3414 22.264C12.4774 23.16 13.0454 24.392 13.0454 25.96C13.0454 26.952 12.8054 27.848 12.3254 28.648C11.8614 29.432 11.1494 30.056 10.1894 30.52C9.24538 30.968 8.07738 31.192 6.68538 31.192C5.50138 31.192 4.35738 31.016 3.25338 30.664C2.14938 30.296 1.23738 29.792 0.517375 29.152L1.62138 27.256C2.19738 27.8 2.93338 28.24 3.82938 28.576C4.72538 28.896 5.66938 29.056 6.66138 29.056C7.92538 29.056 8.90138 28.792 9.58938 28.264C10.2934 27.72 10.6454 26.984 10.6454 26.056C10.6454 25.048 10.2614 24.288 9.49338 23.776C8.72538 23.248 7.41338 22.984 5.55738 22.984H1.74138L2.62938 14.2H12.1094V16.288H4.64538L4.18938 20.896H6.06138Z" fill="#2F2F2F"/>
<path d="M94.6236 18.808H105.376V20.704H94.6236V18.808ZM94.6236 24.496H105.376V26.392H94.6236V24.496Z" fill="#2F2F2F"/>
<path d="M30.0624 29.5L27.0024 25.44L23.9024 29.5H21.7624L25.9424 24.08L21.9624 18.9H24.1024L27.0224 22.72L29.9224 18.9H32.0224L28.0224 24.08L32.2424 29.5H30.0624Z" fill="#2F2F2F"/>
<path d="M56.2407 26.872H53.0487V31H50.7207V26.872H41.3847V25.192L49.9767 14.2H52.5687L44.3367 24.808H50.7927V21.16H53.0487V24.808H56.2407V26.872Z" fill="#2F2F2F"/>
<path d="M78.296 4.4V5.966L73.4 17H70.898L75.632 6.38H70.682V8.522H68.504V4.4H78.296Z" fill="#2F2F2F"/>
<line x1="60.5" y1="23.5" x2="86.5" y2="23.5" stroke="#2F2F2F" stroke-linecap="round"/>
<path d="M75.964 36.376C76.624 36.676 77.128 37.084 77.476 37.6C77.836 38.104 78.016 38.698 78.016 39.382C78.016 40.15 77.8 40.822 77.368 41.398C76.948 41.974 76.348 42.418 75.568 42.73C74.788 43.03 73.882 43.18 72.85 43.18C71.818 43.18 70.912 43.03 70.132 42.73C69.364 42.418 68.77 41.974 68.35 41.398C67.93 40.822 67.72 40.15 67.72 39.382C67.72 38.698 67.894 38.104 68.242 37.6C68.59 37.084 69.088 36.676 69.736 36.376C69.232 36.1 68.842 35.74 68.566 35.296C68.302 34.84 68.17 34.318 68.17 33.73C68.17 33.022 68.362 32.404 68.746 31.876C69.142 31.348 69.694 30.94 70.402 30.652C71.11 30.364 71.926 30.22 72.85 30.22C73.786 30.22 74.608 30.364 75.316 30.652C76.024 30.94 76.576 31.348 76.972 31.876C77.368 32.404 77.566 33.022 77.566 33.73C77.566 34.318 77.428 34.834 77.152 35.278C76.876 35.722 76.48 36.088 75.964 36.376ZM72.85 32.056C72.118 32.056 71.536 32.212 71.104 32.524C70.684 32.836 70.474 33.274 70.474 33.838C70.474 34.378 70.684 34.81 71.104 35.134C71.536 35.446 72.118 35.602 72.85 35.602C73.594 35.602 74.182 35.446 74.614 35.134C75.046 34.81 75.262 34.378 75.262 33.838C75.262 33.274 75.04 32.836 74.596 32.524C74.164 32.212 73.582 32.056 72.85 32.056ZM72.85 41.344C73.714 41.344 74.398 41.164 74.902 40.804C75.406 40.444 75.658 39.946 75.658 39.31C75.658 38.686 75.406 38.194 74.902 37.834C74.398 37.474 73.714 37.294 72.85 37.294C71.986 37.294 71.308 37.474 70.816 37.834C70.324 38.194 70.078 38.686 70.078 39.31C70.078 39.946 70.324 40.444 70.816 40.804C71.308 41.164 71.986 41.344 72.85 41.344Z" fill="#2F2F2F"/>
</svg>
