<svg width="108" height="48" viewBox="0 0 108 48" fill="none" xmlns="http://www.w3.org/2000/svg">
<path d="M16.2407 26.872H13.0487V31H10.7207V26.872H1.38466V25.192L9.97666 14.2H12.5687L4.33666 24.808H10.7927V21.16H13.0487V24.808H16.2407V26.872Z" fill="#2F2F2F"/>
<path d="M95.6236 18.808H106.376V20.704H95.6236V18.808ZM95.6236 24.496H106.376V26.392H95.6236V24.496Z" fill="#2F2F2F"/>
<path d="M31.0624 29.5L28.0024 25.44L24.9024 29.5H22.7624L26.9424 24.08L22.9624 18.9H25.1024L28.0224 22.72L30.9224 18.9H33.0224L29.0224 24.08L33.2424 29.5H31.0624Z" fill="#2F2F2F"/>
<path d="M57.2407 26.872H54.0487V31H51.7207V26.872H42.3847V25.192L50.9767 14.2H53.5687L45.3367 24.808H51.7927V21.16H54.0487V24.808H57.2407V26.872Z" fill="#2F2F2F"/>
<path d="M74.148 4.4V17H71.808V6.362H69.144V4.4H74.148Z" fill="#2F2F2F"/>
<line x1="61.5" y1="23.5" x2="87.5" y2="23.5" stroke="#2F2F2F" stroke-linecap="round"/>
<path d="M74.516 35.224C75.344 35.224 76.088 35.386 76.748 35.71C77.408 36.022 77.924 36.472 78.296 37.06C78.668 37.648 78.854 38.326 78.854 39.094C78.854 39.91 78.65 40.63 78.242 41.254C77.834 41.866 77.282 42.34 76.586 42.676C75.89 43.012 75.11 43.18 74.246 43.18C72.518 43.18 71.174 42.64 70.214 41.56C69.266 40.48 68.792 38.932 68.792 36.916C68.792 35.5 69.05 34.294 69.566 33.298C70.082 32.29 70.802 31.528 71.726 31.012C72.662 30.484 73.742 30.22 74.966 30.22C75.614 30.22 76.22 30.292 76.784 30.436C77.36 30.568 77.858 30.766 78.278 31.03L77.414 32.794C76.79 32.386 75.992 32.182 75.02 32.182C73.808 32.182 72.86 32.554 72.176 33.298C71.492 34.042 71.15 35.116 71.15 36.52V36.538C71.522 36.106 71.996 35.782 72.572 35.566C73.148 35.338 73.796 35.224 74.516 35.224ZM74.12 41.344C74.852 41.344 75.446 41.152 75.902 40.768C76.358 40.372 76.586 39.85 76.586 39.202C76.586 38.542 76.358 38.02 75.902 37.636C75.446 37.252 74.834 37.06 74.066 37.06C73.31 37.06 72.692 37.264 72.212 37.672C71.744 38.08 71.51 38.596 71.51 39.22C71.51 39.832 71.738 40.342 72.194 40.75C72.662 41.146 73.304 41.344 74.12 41.344Z" fill="#2F2F2F"/>
</svg>
