<svg width="513" height="139" viewBox="0 0 513 139" fill="none" xmlns="http://www.w3.org/2000/svg">
<path d="M82.0098 21.256C83.6578 21.416 84.9138 21.928 85.7778 22.792C86.6418 23.64 87.0738 24.728 87.0738 26.056C87.0738 27.016 86.8338 27.888 86.3538 28.672C85.8738 29.44 85.1538 30.056 84.1938 30.52C83.2498 30.968 82.0898 31.192 80.7138 31.192C79.5138 31.192 78.3618 31.016 77.2578 30.664C76.1538 30.296 75.2498 29.792 74.5458 29.152L75.6498 27.256C76.2258 27.8 76.9618 28.24 77.8578 28.576C78.7538 28.896 79.7058 29.056 80.7138 29.056C81.9618 29.056 82.9298 28.792 83.6178 28.264C84.3218 27.736 84.6738 27.008 84.6738 26.08C84.6738 25.152 84.3298 24.432 83.6418 23.92C82.9538 23.408 81.9138 23.152 80.5218 23.152H79.1778V21.472L83.4018 16.288H75.3138V14.2H86.4018V15.832L82.0098 21.256ZM96.2135 18.808H106.965V20.704H96.2135V18.808ZM96.2135 24.496H106.965V26.392H96.2135V24.496Z" fill="#2F2F2F"/>
<path d="M63.0624 29.5L60.0024 25.44L56.9024 29.5H54.7624L58.9424 24.08L54.9624 18.9H57.1024L60.0224 22.72L62.9224 18.9H65.0224L61.0224 24.08L65.2424 29.5H63.0624Z" fill="#2F2F2F"/>
<path d="M8.71681 21.256C10.3648 21.416 11.6208 21.928 12.4848 22.792C13.3488 23.64 13.7808 24.728 13.7808 26.056C13.7808 27.016 13.5408 27.888 13.0608 28.672C12.5808 29.44 11.8608 30.056 10.9008 30.52C9.95681 30.968 8.79681 31.192 7.42081 31.192C6.22081 31.192 5.06881 31.016 3.96481 30.664C2.86081 30.296 1.95681 29.792 1.25281 29.152L2.35681 27.256C2.93281 27.8 3.66881 28.24 4.56481 28.576C5.46081 28.896 6.41281 29.056 7.42081 29.056C8.66881 29.056 9.63681 28.792 10.3248 28.264C11.0288 27.736 11.3808 27.008 11.3808 26.08C11.3808 25.152 11.0368 24.432 10.3488 23.92C9.66081 23.408 8.62081 23.152 7.22881 23.152H5.88481V21.472L10.1088 16.288H2.02081V14.2H13.1088V15.832L8.71681 21.256Z" fill="#2F2F2F"/>
<path d="M37.918 15.02V17H28.63V15.434L33.634 10.682C34.198 10.142 34.576 9.674 34.768 9.278C34.972 8.87 35.074 8.468 35.074 8.072C35.074 7.484 34.876 7.034 34.48 6.722C34.084 6.41 33.502 6.254 32.734 6.254C31.45 6.254 30.466 6.692 29.782 7.568L28.144 6.308C28.636 5.648 29.296 5.138 30.124 4.778C30.964 4.406 31.9 4.22 32.932 4.22C34.3 4.22 35.392 4.544 36.208 5.192C37.024 5.84 37.432 6.722 37.432 7.838C37.432 8.522 37.288 9.164 37 9.764C36.712 10.364 36.16 11.048 35.344 11.816L31.978 15.02H37.918Z" fill="#2F2F2F"/>
<line x1="20.5" y1="23.5" x2="46.5" y2="23.5" stroke="#2F2F2F" stroke-linecap="round"/>
<path d="M39.024 40.138H36.792V43H34.524V40.138H27.612V38.518L33.822 30.4H36.324L30.474 38.158H34.596V35.62H36.792V38.158H39.024V40.138Z" fill="#2F2F2F"/>
<path d="M130.13 15.8663L130.177 28.4662L128.395 28.4728L128.354 17.4389L125.51 17.4495L125.504 15.8835L130.13 15.8663ZM138.082 28.5808C137.086 28.5845 136.197 28.3358 135.415 27.8347C134.645 27.3216 134.036 26.5798 133.589 25.6095C133.141 24.6391 132.915 23.488 132.91 22.156C132.905 20.824 133.123 19.6712 133.563 18.6975C134.004 17.7239 134.607 16.9836 135.373 16.4768C136.151 15.9579 137.038 15.6966 138.034 15.6929C139.018 15.6892 139.895 15.9439 140.665 16.4571C141.447 16.9582 142.061 17.6939 142.509 18.6642C142.957 19.6346 143.183 20.7857 143.188 22.1177C143.193 23.4497 142.975 24.6025 142.535 25.5762C142.094 26.5498 141.485 27.2961 140.707 27.815C139.941 28.3218 139.066 28.5771 138.082 28.5808ZM138.076 26.9788C139.084 26.975 139.886 26.558 140.483 25.7278C141.092 24.8975 141.394 23.6964 141.388 22.1244C141.382 20.5524 141.072 19.3536 140.457 18.5279C139.853 17.7021 139.048 17.2911 138.04 17.2948C137.02 17.2986 136.205 17.7157 135.597 18.546C135 19.3762 134.704 20.5773 134.71 22.1493C134.716 23.7213 135.02 24.9201 135.623 25.7459C136.238 26.5716 137.056 26.9826 138.076 26.9788ZM153.632 15.7788L153.679 28.3787L151.897 28.3853L151.856 17.3514L149.012 17.362L149.006 15.796L153.632 15.7788ZM160.951 13.1955L162.517 13.1897L156.64 30.1677L155.074 30.1735L160.951 13.1955ZM171.613 26.7459L171.619 28.3119L162.565 28.3456L162.561 27.1216L167.672 22.1526C168.294 21.5503 168.712 21.0327 168.927 20.5999C169.141 20.1551 169.247 19.7107 169.246 19.2667C169.243 18.6067 169.007 18.0976 168.538 17.7393C168.081 17.369 167.42 17.1855 166.556 17.1887C165.164 17.1939 164.092 17.6539 163.339 18.5687L162.111 17.5112C162.601 16.9094 163.241 16.439 164.032 16.1001C164.835 15.7611 165.728 15.5898 166.712 15.5861C168.032 15.5812 169.083 15.8953 169.865 16.5284C170.648 17.1495 171.041 18 171.045 19.08C171.047 19.752 170.906 20.3885 170.62 20.9896C170.334 21.5907 169.791 22.2767 168.99 23.0477L165.151 26.77L171.613 26.7459Z" fill="#2F2F2F"/>
<path d="M120.004 4.11322L177.456 3.89935L177.449 1.89936L119.996 2.11323L120.004 4.11322ZM181.471 7.88443L181.578 36.6662L183.578 36.6587L183.471 7.87698L181.471 7.88443ZM177.593 40.6811L120.141 40.8949L120.148 42.8949L177.6 42.681L177.593 40.6811ZM116.126 36.9098L116.019 8.12808L114.019 8.13552L114.126 36.9173L116.126 36.9098ZM120.141 40.8949C117.931 40.9031 116.134 39.119 116.126 36.9098L114.126 36.9173C114.138 40.231 116.834 42.9072 120.148 42.8949L120.141 40.8949ZM181.578 36.6662C181.586 38.8753 179.802 40.6728 177.593 40.6811L177.6 42.681C180.914 42.6687 183.59 39.9724 183.578 36.6587L181.578 36.6662ZM177.456 3.89935C179.665 3.89112 181.463 5.6753 181.471 7.88443L183.471 7.87698C183.458 4.5633 180.762 1.88702 177.449 1.89936L177.456 3.89935ZM119.996 2.11323C116.683 2.12557 114.006 4.82184 114.019 8.13552L116.019 8.12808C116.01 5.91895 117.795 4.12144 120.004 4.11322L119.996 2.11323Z" fill="#2F2F2F"/>
<path d="M16.2407 117.872H13.0487V122H10.7207V117.872H1.38466V116.192L9.97666 105.2H12.5687L4.33666 115.808H10.7927V112.16H13.0487V115.808H16.2407V117.872Z" fill="#2F2F2F"/>
<path d="M95.6236 109.808H106.376V111.704H95.6236V109.808ZM95.6236 115.496H106.376V117.392H95.6236V115.496Z" fill="#2F2F2F"/>
<path d="M31.0624 120.5L28.0024 116.44L24.9024 120.5H22.7624L26.9424 115.08L22.9624 109.9H25.1024L28.0224 113.72L30.9224 109.9H33.0224L29.0224 115.08L33.2424 120.5H31.0624Z" fill="#2F2F2F"/>
<path d="M57.2407 117.872H54.0487V122H51.7207V117.872H42.3847V116.192L50.9767 105.2H53.5687L45.3367 115.808H51.7927V112.16H54.0487V115.808H57.2407V117.872Z" fill="#2F2F2F"/>
<path d="M74.148 95.4V108H71.808V97.362H69.144V95.4H74.148Z" fill="#2F2F2F"/>
<line x1="61.5" y1="114.5" x2="87.5" y2="114.5" stroke="#2F2F2F" stroke-linecap="round"/>
<path d="M74.516 126.224C75.344 126.224 76.088 126.386 76.748 126.71C77.408 127.022 77.924 127.472 78.296 128.06C78.668 128.648 78.854 129.326 78.854 130.094C78.854 130.91 78.65 131.63 78.242 132.254C77.834 132.866 77.282 133.34 76.586 133.676C75.89 134.012 75.11 134.18 74.246 134.18C72.518 134.18 71.174 133.64 70.214 132.56C69.266 131.48 68.792 129.932 68.792 127.916C68.792 126.5 69.05 125.294 69.566 124.298C70.082 123.29 70.802 122.528 71.726 122.012C72.662 121.484 73.742 121.22 74.966 121.22C75.614 121.22 76.22 121.292 76.784 121.436C77.36 121.568 77.858 121.766 78.278 122.03L77.414 123.794C76.79 123.386 75.992 123.182 75.02 123.182C73.808 123.182 72.86 123.554 72.176 124.298C71.492 125.042 71.15 126.116 71.15 127.52V127.538C71.522 127.106 71.996 126.782 72.572 126.566C73.148 126.338 73.796 126.224 74.516 126.224ZM74.12 132.344C74.852 132.344 75.446 132.152 75.902 131.768C76.358 131.372 76.586 130.85 76.586 130.202C76.586 129.542 76.358 129.02 75.902 128.636C75.446 128.252 74.834 128.06 74.066 128.06C73.31 128.06 72.692 128.264 72.212 128.672C71.744 129.08 71.51 129.596 71.51 130.22C71.51 130.832 71.738 131.342 72.194 131.75C72.662 132.146 73.304 132.344 74.12 132.344Z" fill="#2F2F2F"/>
<path d="M128.671 106.873L128.718 119.473L126.936 119.48L126.895 108.446L124.051 108.456L124.046 106.89L128.671 106.873ZM136.882 111.792C137.71 111.789 138.449 111.943 139.098 112.252C139.759 112.562 140.277 113.01 140.651 113.596C141.025 114.171 141.213 114.836 141.216 115.592C141.219 116.384 141.024 117.081 140.63 117.683C140.248 118.284 139.716 118.754 139.033 119.092C138.362 119.419 137.607 119.584 136.767 119.587C135.075 119.593 133.765 119.052 132.837 117.964C131.921 116.875 131.459 115.329 131.452 113.325C131.446 111.921 131.688 110.726 132.176 109.74C132.677 108.742 133.37 107.989 134.256 107.482C135.154 106.963 136.197 106.701 137.385 106.697C137.997 106.694 138.573 106.758 139.114 106.888C139.654 107.006 140.123 107.184 140.52 107.423L139.841 108.829C139.239 108.436 138.435 108.241 137.427 108.244C136.119 108.249 135.094 108.661 134.353 109.48C133.612 110.287 133.245 111.464 133.25 113.012C133.251 113.204 133.258 113.354 133.27 113.462C133.628 112.921 134.119 112.511 134.742 112.232C135.377 111.942 136.09 111.795 136.882 111.792ZM136.69 118.129C137.518 118.126 138.189 117.902 138.703 117.456C139.217 117.01 139.473 116.415 139.47 115.671C139.468 114.927 139.201 114.34 138.672 113.91C138.154 113.468 137.457 113.248 136.581 113.252C136.017 113.254 135.514 113.364 135.071 113.581C134.639 113.799 134.299 114.094 134.048 114.467C133.809 114.84 133.691 115.254 133.693 115.71C133.694 116.154 133.81 116.562 134.039 116.933C134.28 117.292 134.624 117.585 135.068 117.811C135.525 118.026 136.066 118.132 136.69 118.129ZM156.268 117.804L156.274 119.37L147.22 119.404L147.215 118.18L152.327 113.211C152.948 112.609 153.367 112.091 153.581 111.658C153.795 111.213 153.902 110.769 153.9 110.325C153.898 109.665 153.662 109.156 153.192 108.798C152.735 108.427 152.074 108.244 151.21 108.247C149.818 108.252 148.746 108.712 147.993 109.627L146.765 108.57C147.255 107.968 147.895 107.497 148.686 107.158C149.489 106.819 150.382 106.648 151.366 106.644C152.686 106.64 153.737 106.954 154.52 107.587C155.302 108.208 155.695 109.058 155.699 110.138C155.702 110.81 155.56 111.447 155.274 112.048C154.989 112.649 154.445 113.335 153.644 114.106L149.806 117.828L156.268 117.804ZM162.445 104.191L164.011 104.185L158.134 121.163L156.568 121.169L162.445 104.191ZM169.054 112.015C170.291 112.13 171.234 112.511 171.884 113.156C172.535 113.79 172.862 114.605 172.866 115.601C172.868 116.321 172.691 116.975 172.333 117.565C171.975 118.142 171.437 118.606 170.718 118.957C170.011 119.295 169.142 119.466 168.11 119.47C167.21 119.474 166.345 119.345 165.517 119.084C164.687 118.811 164.008 118.436 163.478 117.957L164.301 116.532C164.735 116.939 165.288 117.267 165.961 117.516C166.634 117.754 167.348 117.871 168.104 117.868C169.04 117.865 169.765 117.664 170.28 117.266C170.806 116.868 171.068 116.321 171.066 115.625C171.063 114.929 170.803 114.39 170.286 114.008C169.768 113.626 168.988 113.437 167.944 113.441L166.936 113.445L166.931 112.185L170.084 108.285L164.018 108.307L164.013 106.741L172.328 106.71L172.333 107.934L169.054 112.015Z" fill="#2F2F2F"/>
<path d="M120.004 95.1142L177.456 94.9003L177.449 92.9003L119.996 93.1142L120.004 95.1142ZM181.471 98.8854L181.578 127.667L183.578 127.66L183.471 98.878L181.471 98.8854ZM177.593 131.682L120.141 131.896L120.148 133.896L177.6 133.682L177.593 131.682ZM116.126 127.911L116.019 99.1291L114.019 99.1365L114.126 127.918L116.126 127.911ZM120.141 131.896C117.931 131.904 116.134 130.12 116.126 127.911L114.126 127.918C114.138 131.232 116.834 133.908 120.148 133.896L120.141 131.896ZM181.578 127.667C181.586 129.876 179.802 131.674 177.593 131.682L177.6 133.682C180.914 133.67 183.59 130.973 183.578 127.66L181.578 127.667ZM177.456 94.9003C179.665 94.8921 181.463 96.6763 181.471 98.8854L183.471 98.878C183.458 95.5643 180.762 92.888 177.449 92.9003L177.456 94.9003ZM119.996 93.1142C116.683 93.1265 114.006 95.8228 114.019 99.1365L116.019 99.1291C116.01 96.9199 117.795 95.1224 120.004 95.1142L119.996 93.1142Z" fill="#2F2F2F"/>
<path d="M417.111 14.2V15.832L410.319 31H407.775L414.423 16.288H406.743V19.288H404.439V14.2H417.111ZM426.116 18.808H436.868V20.704H426.116V18.808ZM426.116 24.496H436.868V26.392H426.116V24.496Z" fill="#2F2F2F"/>
<path d="M392.66 29.5L389.6 25.44L386.5 29.5H384.36L388.54 24.08L384.56 18.9H386.7L389.62 22.72L392.52 18.9H394.62L390.62 24.08L394.84 29.5H392.66Z" fill="#2F2F2F"/>
<path d="M343.667 28.912V31H331.595V29.368L338.435 22.768C339.267 21.968 339.827 21.28 340.115 20.704C340.403 20.112 340.547 19.52 340.547 18.928C340.547 18.048 340.235 17.368 339.611 16.888C339.003 16.392 338.123 16.144 336.971 16.144C335.115 16.144 333.683 16.752 332.675 17.968L331.043 16.552C331.699 15.752 332.555 15.128 333.611 14.68C334.683 14.232 335.875 14.008 337.187 14.008C338.947 14.008 340.347 14.432 341.387 15.28C342.427 16.112 342.947 17.248 342.947 18.688C342.947 19.584 342.755 20.432 342.371 21.232C341.987 22.032 341.259 22.944 340.187 23.968L335.051 28.912H343.667Z" fill="#2F2F2F"/>
<path d="M363.754 9.602C364.918 9.746 365.806 10.142 366.418 10.79C367.03 11.438 367.336 12.248 367.336 13.22C367.336 13.952 367.15 14.618 366.778 15.218C366.406 15.818 365.842 16.298 365.086 16.658C364.342 17.006 363.43 17.18 362.35 17.18C361.45 17.18 360.58 17.054 359.74 16.802C358.912 16.538 358.204 16.178 357.616 15.722L358.624 13.904C359.08 14.288 359.632 14.594 360.28 14.822C360.94 15.038 361.618 15.146 362.314 15.146C363.142 15.146 363.79 14.978 364.258 14.642C364.738 14.294 364.978 13.826 364.978 13.238C364.978 12.65 364.75 12.194 364.294 11.87C363.85 11.534 363.166 11.366 362.242 11.366H361.09V9.764L363.952 6.362H358.228V4.4H366.814V5.966L363.754 9.602Z" fill="#2F2F2F"/>
<line x1="350.098" y1="23.5" x2="376.098" y2="23.5" stroke="#2F2F2F" stroke-linecap="round"/>
<path d="M361.332 35.278C363.108 35.278 364.422 35.626 365.274 36.322C366.126 37.006 366.552 37.942 366.552 39.13C366.552 39.886 366.366 40.57 365.994 41.182C365.622 41.794 365.064 42.28 364.32 42.64C363.576 43 362.658 43.18 361.566 43.18C360.666 43.18 359.796 43.054 358.956 42.802C358.116 42.538 357.408 42.178 356.832 41.722L357.822 39.904C358.29 40.288 358.848 40.594 359.496 40.822C360.156 41.038 360.834 41.146 361.53 41.146C362.358 41.146 363.006 40.978 363.474 40.642C363.954 40.294 364.194 39.82 364.194 39.22C364.194 38.572 363.936 38.086 363.42 37.762C362.916 37.426 362.046 37.258 360.81 37.258H357.768L358.416 30.4H365.814V32.362H360.396L360.126 35.278H361.332Z" fill="#2F2F2F"/>
<path d="M459.939 15.9846L459.986 28.5846L458.204 28.5912L458.163 17.5573L455.319 17.5678L455.313 16.0019L459.939 15.9846ZM470.421 21.9397C471.142 22.213 471.696 22.6069 472.082 23.1215C472.468 23.6361 472.662 24.2533 472.665 24.9733C472.668 25.7293 472.466 26.3901 472.06 26.9556C471.654 27.5091 471.074 27.9373 470.319 28.2401C469.564 28.5429 468.677 28.6962 467.657 28.7C466.649 28.7037 465.766 28.557 465.009 28.2598C464.264 27.9626 463.686 27.5388 463.276 26.9883C462.866 26.4258 462.66 25.7666 462.657 25.0106C462.654 24.2906 462.838 23.6719 463.208 23.1545C463.59 22.6371 464.14 22.239 464.859 21.9604C464.282 21.6865 463.843 21.3221 463.541 20.8673C463.24 20.4124 463.088 19.8729 463.085 19.2489C463.083 18.553 463.266 17.9463 463.637 17.4289C464.019 16.9115 464.551 16.5135 465.234 16.2349C465.917 15.9564 466.709 15.8154 467.609 15.8121C468.521 15.8087 469.319 15.9437 470.004 16.2172C470.701 16.4906 471.237 16.8846 471.611 17.3992C471.996 17.9138 472.191 18.519 472.193 19.215C472.196 19.827 472.042 20.3676 471.731 20.8368C471.433 21.2939 470.996 21.6615 470.421 21.9397ZM467.614 17.2701C466.762 17.2732 466.091 17.4617 465.6 17.8356C465.109 18.1974 464.865 18.6903 464.868 19.3143C464.87 19.9383 465.112 20.4294 465.593 20.7876C466.086 21.1458 466.765 21.3233 467.629 21.32C468.505 21.3168 469.188 21.1342 469.679 20.7724C470.182 20.4105 470.432 19.9176 470.43 19.2936C470.427 18.6696 470.167 18.1786 469.65 17.8205C469.145 17.4504 468.466 17.2669 467.614 17.2701ZM467.651 27.242C468.647 27.2383 469.432 27.0314 470.007 26.6212C470.581 26.1991 470.867 25.634 470.865 24.926C470.862 24.23 470.572 23.6851 469.994 23.2913C469.417 22.8854 468.63 22.6843 467.634 22.688C466.638 22.6917 465.859 22.8986 465.296 23.3087C464.734 23.7068 464.454 24.2539 464.457 24.9499C464.459 25.6579 464.743 26.2208 465.309 26.6387C465.874 27.0446 466.655 27.2457 467.651 27.242ZM483.019 15.8987L483.066 28.4986L481.284 28.5053L481.243 17.4713L478.399 17.4819L478.393 15.9159L483.019 15.8987ZM490.338 13.3155L491.904 13.3096L486.027 30.2876L484.461 30.2935L490.338 13.3155ZM495.722 20.8735C497.522 20.8668 498.843 21.2039 499.686 21.8847C500.54 22.5535 500.97 23.476 500.974 24.6519C500.977 25.3959 500.799 26.0686 500.441 26.6699C500.096 27.2592 499.563 27.7292 498.845 28.0799C498.138 28.4185 497.263 28.5898 496.219 28.5937C495.331 28.597 494.472 28.4682 493.643 28.2073C492.814 27.9343 492.129 27.5589 491.587 27.0809L492.41 25.6558C492.843 26.0622 493.396 26.3902 494.069 26.6397C494.742 26.8772 495.451 26.9945 496.195 26.9918C497.143 26.9882 497.874 26.7875 498.388 26.3896C498.915 25.9796 499.177 25.4266 499.174 24.7306C499.171 23.9746 498.881 23.4057 498.304 23.0239C497.726 22.63 496.742 22.4357 495.35 22.4409L492.488 22.4515L493.129 15.8611L500.239 15.8346L500.245 17.4006L494.647 17.4214L494.318 20.8787L495.722 20.8735Z" fill="#2F2F2F"/>
<path d="M449.601 4.23236L507.054 4.01849L507.046 2.0185L449.594 2.23237L449.601 4.23236ZM511.068 8.00357L511.176 36.7853L513.176 36.7779L513.068 7.99612L511.068 8.00357ZM507.191 40.8002L449.738 41.0141L449.746 43.014L507.198 42.8002L507.191 40.8002ZM445.723 37.029L445.616 8.24722L443.616 8.25466L443.723 37.0364L445.723 37.029ZM449.738 41.0141C447.529 41.0223 445.732 39.2381 445.723 37.029L443.723 37.0364C443.736 40.3501 446.432 43.0264 449.746 43.014L449.738 41.0141ZM511.176 36.7853C511.184 38.9945 509.4 40.792 507.191 40.8002L507.198 42.8002C510.512 42.7878 513.188 40.0916 513.176 36.7779L511.176 36.7853ZM507.054 4.01849C509.263 4.01026 511.06 5.79444 511.068 8.00357L513.068 7.99612C513.056 4.68244 510.36 2.00617 507.046 2.0185L507.054 4.01849ZM449.594 2.23237C446.28 2.24471 443.604 4.94098 443.616 8.25466L445.616 8.24722C445.608 6.03809 447.392 4.24058 449.601 4.23236L449.594 2.23237Z" fill="#2F2F2F"/>
<path d="M336.659 111.896C339.059 111.896 340.819 112.352 341.939 113.264C343.075 114.16 343.643 115.392 343.643 116.96C343.643 117.952 343.403 118.848 342.923 119.648C342.459 120.432 341.747 121.056 340.787 121.52C339.843 121.968 338.675 122.192 337.283 122.192C336.099 122.192 334.955 122.016 333.851 121.664C332.747 121.296 331.835 120.792 331.115 120.152L332.219 118.256C332.795 118.8 333.531 119.24 334.427 119.576C335.323 119.896 336.267 120.056 337.259 120.056C338.523 120.056 339.499 119.792 340.187 119.264C340.891 118.72 341.243 117.984 341.243 117.056C341.243 116.048 340.859 115.288 340.091 114.776C339.323 114.248 338.011 113.984 336.155 113.984H332.339L333.227 105.2H342.707V107.288H335.243L334.787 111.896H336.659Z" fill="#2F2F2F"/>
<path d="M425.221 109.808H435.973V111.704H425.221V109.808ZM425.221 115.496H435.973V117.392H425.221V115.496Z" fill="#2F2F2F"/>
<path d="M360.66 120.5L357.6 116.44L354.5 120.5H352.36L356.54 115.08L352.56 109.9H354.7L357.62 113.72L360.52 109.9H362.62L358.62 115.08L362.84 120.5H360.66Z" fill="#2F2F2F"/>
<path d="M386.838 117.872H383.646V122H381.318V117.872H371.982V116.192L380.574 105.2H383.166L374.934 115.808H381.39V112.16H383.646V115.808H386.838V117.872Z" fill="#2F2F2F"/>
<path d="M408.894 95.4V96.966L403.998 108H401.496L406.23 97.38H401.28V99.522H399.102V95.4H408.894Z" fill="#2F2F2F"/>
<line x1="391.098" y1="114.5" x2="417.098" y2="114.5" stroke="#2F2F2F" stroke-linecap="round"/>
<path d="M406.562 127.376C407.222 127.676 407.726 128.084 408.074 128.6C408.434 129.104 408.614 129.698 408.614 130.382C408.614 131.15 408.398 131.822 407.966 132.398C407.546 132.974 406.946 133.418 406.166 133.73C405.386 134.03 404.48 134.18 403.448 134.18C402.416 134.18 401.51 134.03 400.73 133.73C399.962 133.418 399.368 132.974 398.948 132.398C398.528 131.822 398.318 131.15 398.318 130.382C398.318 129.698 398.492 129.104 398.84 128.6C399.188 128.084 399.686 127.676 400.334 127.376C399.83 127.1 399.44 126.74 399.164 126.296C398.9 125.84 398.768 125.318 398.768 124.73C398.768 124.022 398.96 123.404 399.344 122.876C399.74 122.348 400.292 121.94 401 121.652C401.708 121.364 402.524 121.22 403.448 121.22C404.384 121.22 405.206 121.364 405.914 121.652C406.622 121.94 407.174 122.348 407.57 122.876C407.966 123.404 408.164 124.022 408.164 124.73C408.164 125.318 408.026 125.834 407.75 126.278C407.474 126.722 407.078 127.088 406.562 127.376ZM403.448 123.056C402.716 123.056 402.134 123.212 401.702 123.524C401.282 123.836 401.072 124.274 401.072 124.838C401.072 125.378 401.282 125.81 401.702 126.134C402.134 126.446 402.716 126.602 403.448 126.602C404.192 126.602 404.78 126.446 405.212 126.134C405.644 125.81 405.86 125.378 405.86 124.838C405.86 124.274 405.638 123.836 405.194 123.524C404.762 123.212 404.18 123.056 403.448 123.056ZM403.448 132.344C404.312 132.344 404.996 132.164 405.5 131.804C406.004 131.444 406.256 130.946 406.256 130.31C406.256 129.686 406.004 129.194 405.5 128.834C404.996 128.474 404.312 128.294 403.448 128.294C402.584 128.294 401.906 128.474 401.414 128.834C400.922 129.194 400.676 129.686 400.676 130.31C400.676 130.946 400.922 131.444 401.414 131.804C401.906 132.164 402.584 132.344 403.448 132.344Z" fill="#2F2F2F"/>
<path d="M460.799 117.898L460.805 119.464L451.751 119.498L451.747 118.274L456.858 113.305C457.48 112.702 457.898 112.185 458.112 111.752C458.327 111.307 458.433 110.863 458.431 110.419C458.429 109.759 458.193 109.25 457.724 108.891C457.266 108.521 456.606 108.338 455.742 108.341C454.35 108.346 453.277 108.806 452.525 109.721L451.297 108.663C451.787 108.062 452.427 107.591 453.218 107.252C454.02 106.913 454.914 106.742 455.898 106.738C457.218 106.733 458.269 107.047 459.051 107.681C459.834 108.302 460.227 109.152 460.231 110.232C460.233 110.904 460.092 111.541 459.806 112.142C459.52 112.743 458.977 113.429 458.175 114.2L454.337 117.922L460.799 117.898ZM472.901 116.323L470.507 116.332L470.519 119.428L468.773 119.434L468.761 116.338L461.759 116.364L461.755 115.105L468.168 106.837L470.112 106.829L463.968 114.808L468.81 114.79L468.799 112.054L470.491 112.048L470.502 114.784L472.896 114.775L472.901 116.323ZM483.623 112.071C484.859 112.186 485.803 112.567 486.453 113.213C487.103 113.846 487.43 114.661 487.434 115.657C487.437 116.377 487.259 117.032 486.901 117.621C486.543 118.198 486.005 118.662 485.287 119.013C484.58 119.352 483.71 119.523 482.678 119.527C481.778 119.53 480.914 119.401 480.085 119.14C479.256 118.867 478.577 118.492 478.047 118.014L478.869 116.589C479.303 116.995 479.856 117.323 480.529 117.573C481.202 117.81 481.916 117.927 482.672 117.925C483.608 117.921 484.334 117.72 484.848 117.323C485.375 116.925 485.637 116.378 485.634 115.682C485.632 114.986 485.372 114.447 484.854 114.065C484.337 113.682 483.556 113.493 482.512 113.497L481.504 113.501L481.499 112.241L484.653 108.341L478.587 108.364L478.581 106.798L486.897 106.767L486.901 107.991L483.623 112.071ZM493.642 104.186L495.208 104.18L489.331 121.158L487.765 121.164L493.642 104.186ZM502.712 112.702C503.433 112.975 503.987 113.369 504.373 113.884C504.758 114.398 504.953 115.016 504.955 115.736C504.958 116.492 504.757 117.152 504.351 117.718C503.945 118.271 503.365 118.7 502.61 119.002C501.855 119.305 500.967 119.459 499.947 119.462C498.939 119.466 498.057 119.319 497.3 119.022C496.555 118.725 495.977 118.301 495.567 117.751C495.157 117.188 494.95 116.529 494.948 115.773C494.945 115.053 495.129 114.434 495.499 113.917C495.881 113.399 496.431 113.001 497.15 112.723C496.573 112.449 496.134 112.085 495.832 111.63C495.53 111.175 495.378 110.635 495.376 110.011C495.374 109.315 495.557 108.709 495.927 108.191C496.309 107.674 496.842 107.276 497.525 106.997C498.208 106.719 498.999 106.578 499.899 106.574C500.811 106.571 501.61 106.706 502.295 106.98C502.992 107.253 503.527 107.647 503.901 108.162C504.287 108.676 504.481 109.281 504.484 109.977C504.486 110.589 504.332 111.13 504.022 111.599C503.724 112.056 503.287 112.424 502.712 112.702ZM499.905 108.032C499.053 108.036 498.381 108.224 497.891 108.598C497.4 108.96 497.156 109.453 497.158 110.077C497.161 110.701 497.403 111.192 497.884 111.55C498.377 111.908 499.056 112.086 499.92 112.082C500.796 112.079 501.479 111.897 501.97 111.535C502.472 111.173 502.723 110.68 502.72 110.056C502.718 109.432 502.458 108.941 501.941 108.583C501.435 108.213 500.757 108.029 499.905 108.032ZM499.942 118.004C500.938 118.001 501.723 117.794 502.298 117.384C502.872 116.961 503.158 116.396 503.155 115.688C503.153 114.992 502.863 114.447 502.285 114.054C501.708 113.648 500.921 113.447 499.925 113.45C498.929 113.454 498.15 113.661 497.587 114.071C497.025 114.469 496.745 115.016 496.747 115.712C496.75 116.42 497.034 116.983 497.6 117.401C498.165 117.807 498.946 118.008 499.942 118.004Z" fill="#2F2F2F"/>
<path d="M449.601 95.1142L507.054 94.9003L507.046 92.9003L449.594 93.1142L449.601 95.1142ZM511.068 98.8854L511.176 127.667L513.176 127.66L513.068 98.878L511.068 98.8854ZM507.191 131.682L449.738 131.896L449.746 133.896L507.198 133.682L507.191 131.682ZM445.723 127.911L445.616 99.1291L443.616 99.1365L443.723 127.918L445.723 127.911ZM449.738 131.896C447.529 131.904 445.732 130.12 445.723 127.911L443.723 127.918C443.736 131.232 446.432 133.908 449.746 133.896L449.738 131.896ZM511.176 127.667C511.184 129.876 509.4 131.674 507.191 131.682L507.198 133.682C510.512 133.67 513.188 130.973 513.176 127.66L511.176 127.667ZM507.054 94.9003C509.263 94.8921 511.06 96.6763 511.068 98.8854L513.068 98.878C513.056 95.5643 510.36 92.888 507.046 92.9003L507.054 94.9003ZM449.594 93.1142C446.28 93.1265 443.604 95.8228 443.616 99.1365L445.616 99.1291C445.608 96.9199 447.392 95.1224 449.601 95.1142L449.594 93.1142Z" fill="#2F2F2F"/>
</svg>
