<svg width="520" height="194" viewBox="0 0 520 194" fill="none" xmlns="http://www.w3.org/2000/svg">
<path d="M135.624 20.808H146.376V22.704H135.624V20.808ZM135.624 26.496H146.376V28.392H135.624V26.496Z" fill="#2F2F2F"/>
<path d="M44.3756 25.56H40.0076V29.856H37.9916V25.56H33.6236V23.664H37.9916V19.344H40.0076V23.664H44.3756V25.56Z" fill="#2F2F2F"/>
<path d="M95.3756 25.56H91.0076V29.856H88.9916V25.56H84.6236V23.664H88.9916V19.344H91.0076V23.664H95.3756V25.56Z" fill="#2F2F2F"/>
<path d="M13.148 4.4V17H10.808V6.362H8.144V4.4H13.148Z" fill="#2F2F2F"/>
<line x1="0.5" y1="23.5" x2="26.5" y2="23.5" stroke="#2F2F2F" stroke-linecap="round"/>
<path d="M16.918 41.02V43H7.63V41.434L12.634 36.682C13.198 36.142 13.576 35.674 13.768 35.278C13.972 34.87 14.074 34.468 14.074 34.072C14.074 33.484 13.876 33.034 13.48 32.722C13.084 32.41 12.502 32.254 11.734 32.254C10.45 32.254 9.466 32.692 8.782 33.568L7.144 32.308C7.636 31.648 8.296 31.138 9.124 30.778C9.964 30.406 10.9 30.22 11.932 30.22C13.3 30.22 14.392 30.544 15.208 31.192C16.024 31.84 16.432 32.722 16.432 33.838C16.432 34.522 16.288 35.164 16 35.764C15.712 36.364 15.16 37.048 14.344 37.816L10.978 41.02H16.918Z" fill="#2F2F2F"/>
<path d="M64.148 4.4V17H61.808V6.362H59.144V4.4H64.148Z" fill="#2F2F2F"/>
<line x1="51.5" y1="23.5" x2="77.5" y2="23.5" stroke="#2F2F2F" stroke-linecap="round"/>
<path d="M67.918 41.02V43H58.63V41.434L63.634 36.682C64.198 36.142 64.576 35.674 64.768 35.278C64.972 34.87 65.074 34.468 65.074 34.072C65.074 33.484 64.876 33.034 64.48 32.722C64.084 32.41 63.502 32.254 62.734 32.254C61.45 32.254 60.466 32.692 59.782 33.568L58.144 32.308C58.636 31.648 59.296 31.138 60.124 30.778C60.964 30.406 61.9 30.22 62.932 30.22C64.3 30.22 65.392 30.544 66.208 31.192C67.024 31.84 67.432 32.722 67.432 33.838C67.432 34.522 67.288 35.164 67 35.764C66.712 36.364 66.16 37.048 65.344 37.816L61.978 41.02H67.918Z" fill="#2F2F2F"/>
<path d="M114.734 9.278C116.51 9.278 117.824 9.626 118.676 10.322C119.528 11.006 119.954 11.942 119.954 13.13C119.954 13.886 119.768 14.57 119.396 15.182C119.024 15.794 118.466 16.28 117.722 16.64C116.978 17 116.06 17.18 114.968 17.18C114.068 17.18 113.198 17.054 112.358 16.802C111.518 16.538 110.81 16.178 110.234 15.722L111.224 13.904C111.692 14.288 112.25 14.594 112.898 14.822C113.558 15.038 114.236 15.146 114.932 15.146C115.76 15.146 116.408 14.978 116.876 14.642C117.356 14.294 117.596 13.82 117.596 13.22C117.596 12.572 117.338 12.086 116.822 11.762C116.318 11.426 115.448 11.258 114.212 11.258H111.17L111.818 4.4H119.216V6.362H113.798L113.528 9.278H114.734Z" fill="#2F2F2F"/>
<line x1="102.5" y1="23.5" x2="128.5" y2="23.5" stroke="#2F2F2F" stroke-linecap="round"/>
<path d="M114.148 30.4V43H111.808V32.362H109.144V30.4H114.148ZM125.773 41.02V43H116.485V41.434L121.489 36.682C122.053 36.142 122.431 35.674 122.623 35.278C122.827 34.87 122.929 34.468 122.929 34.072C122.929 33.484 122.731 33.034 122.335 32.722C121.939 32.41 121.357 32.254 120.589 32.254C119.305 32.254 118.321 32.692 117.637 33.568L115.999 32.308C116.491 31.648 117.151 31.138 117.979 30.778C118.819 30.406 119.755 30.22 120.787 30.22C122.155 30.22 123.247 30.544 124.063 31.192C124.879 31.84 125.287 32.722 125.287 33.838C125.287 34.522 125.143 35.164 124.855 35.764C124.567 36.364 124.015 37.048 123.199 37.816L119.833 41.02H125.773Z" fill="#2F2F2F"/>
<path d="M158.005 10.1398L204.851 10.0135L204.841 8.01354L157.995 8.13985L158.005 10.1398ZM208.872 14.0027L208.974 34.0026L210.974 33.9972L210.872 13.9973L208.872 14.0027ZM204.995 38.0133L158.149 38.1396L158.159 40.1396L205.005 40.0133L204.995 38.0133ZM154.128 34.1505L154.026 14.1506L152.026 14.156L152.128 34.1559L154.128 34.1505ZM158.149 38.1396C155.94 38.1456 154.14 36.3596 154.128 34.1505L152.128 34.1559C152.146 37.4695 154.846 40.1486 158.159 40.1396L158.149 38.1396ZM208.974 34.0026C208.986 36.2117 207.204 38.0074 204.995 38.0133L205.005 40.0133C208.319 40.0044 210.991 37.3109 210.974 33.9972L208.974 34.0026ZM204.851 10.0135C207.06 10.0076 208.86 11.7936 208.872 14.0027L210.872 13.9973C210.854 10.6836 208.154 8.0046 204.841 8.01354L204.851 10.0135ZM157.995 8.13985C154.681 8.14879 152.009 10.8423 152.026 14.156L154.026 14.1506C154.014 11.9414 155.796 10.1458 158.005 10.1398L157.995 8.13985Z" fill="#2F2F2F"/>
<path d="M135.624 93.808H146.376V95.704H135.624V93.808ZM135.624 99.496H146.376V101.392H135.624V99.496Z" fill="#2F2F2F"/>
<path d="M44.3756 98.56H40.0076V102.856H37.9916V98.56H33.6236V96.664H37.9916V92.344H40.0076V96.664H44.3756V98.56Z" fill="#2F2F2F"/>
<path d="M95.3756 98.56H91.0076V102.856H88.9916V98.56H84.6236V96.664H88.9916V92.344H91.0076V96.664H95.3756V98.56Z" fill="#2F2F2F"/>
<path d="M13.148 77.4V90H10.808V79.362H8.144V77.4H13.148Z" fill="#2F2F2F"/>
<line x1="0.5" y1="96.5" x2="26.5" y2="96.5" stroke="#2F2F2F" stroke-linecap="round"/>
<path d="M17.296 103.4V104.966L12.4 116H9.898L14.632 105.38H9.682V107.522H7.504V103.4H17.296Z" fill="#2F2F2F"/>
<path d="M63.734 82.278C65.51 82.278 66.824 82.626 67.676 83.322C68.528 84.006 68.954 84.942 68.954 86.13C68.954 86.886 68.768 87.57 68.396 88.182C68.024 88.794 67.466 89.28 66.722 89.64C65.978 90 65.06 90.18 63.968 90.18C63.068 90.18 62.198 90.054 61.358 89.802C60.518 89.538 59.81 89.178 59.234 88.722L60.224 86.904C60.692 87.288 61.25 87.594 61.898 87.822C62.558 88.038 63.236 88.146 63.932 88.146C64.76 88.146 65.408 87.978 65.876 87.642C66.356 87.294 66.596 86.82 66.596 86.22C66.596 85.572 66.338 85.086 65.822 84.762C65.318 84.426 64.448 84.258 63.212 84.258H60.17L60.818 77.4H68.216V79.362H62.798L62.528 82.278H63.734Z" fill="#2F2F2F"/>
<line x1="51.5" y1="96.5" x2="77.5" y2="96.5" stroke="#2F2F2F" stroke-linecap="round"/>
<path d="M68.296 103.4V104.966L63.4 116H60.898L65.632 105.38H60.682V107.522H58.504V103.4H68.296Z" fill="#2F2F2F"/>
<path d="M116.516 82.224C117.344 82.224 118.088 82.386 118.748 82.71C119.408 83.022 119.924 83.472 120.296 84.06C120.668 84.648 120.854 85.326 120.854 86.094C120.854 86.91 120.65 87.63 120.242 88.254C119.834 88.866 119.282 89.34 118.586 89.676C117.89 90.012 117.11 90.18 116.246 90.18C114.518 90.18 113.174 89.64 112.214 88.56C111.266 87.48 110.792 85.932 110.792 83.916C110.792 82.5 111.05 81.294 111.566 80.298C112.082 79.29 112.802 78.528 113.726 78.012C114.662 77.484 115.742 77.22 116.966 77.22C117.614 77.22 118.22 77.292 118.784 77.436C119.36 77.568 119.858 77.766 120.278 78.03L119.414 79.794C118.79 79.386 117.992 79.182 117.02 79.182C115.808 79.182 114.86 79.554 114.176 80.298C113.492 81.042 113.15 82.116 113.15 83.52V83.538C113.522 83.106 113.996 82.782 114.572 82.566C115.148 82.338 115.796 82.224 116.516 82.224ZM116.12 88.344C116.852 88.344 117.446 88.152 117.902 87.768C118.358 87.372 118.586 86.85 118.586 86.202C118.586 85.542 118.358 85.02 117.902 84.636C117.446 84.252 116.834 84.06 116.066 84.06C115.31 84.06 114.692 84.264 114.212 84.672C113.744 85.08 113.51 85.596 113.51 86.22C113.51 86.832 113.738 87.342 114.194 87.75C114.662 88.146 115.304 88.344 116.12 88.344Z" fill="#2F2F2F"/>
<line x1="102.5" y1="96.5" x2="128.5" y2="96.5" stroke="#2F2F2F" stroke-linecap="round"/>
<path d="M118.918 114.02V116H109.63V114.434L114.634 109.682C115.198 109.142 115.576 108.674 115.768 108.278C115.972 107.87 116.074 107.468 116.074 107.072C116.074 106.484 115.876 106.034 115.48 105.722C115.084 105.41 114.502 105.254 113.734 105.254C112.45 105.254 111.466 105.692 110.782 106.568L109.144 105.308C109.636 104.648 110.296 104.138 111.124 103.778C111.964 103.406 112.9 103.22 113.932 103.22C115.3 103.22 116.392 103.544 117.208 104.192C118.024 104.84 118.432 105.722 118.432 106.838C118.432 107.522 118.288 108.164 118 108.764C117.712 109.364 117.16 110.048 116.344 110.816L112.978 114.02H118.918ZM124.625 103.4V116H122.285V105.362H119.621V103.4H124.625Z" fill="#2F2F2F"/>
<path d="M158.005 83.1398L204.851 83.0135L204.841 81.0135L157.995 81.1399L158.005 83.1398ZM208.872 87.0027L208.974 107.003L210.974 106.997L210.872 86.9973L208.872 87.0027ZM204.995 111.013L158.149 111.14L158.159 113.14L205.005 113.013L204.995 111.013ZM154.128 107.15L154.026 87.1506L152.026 87.156L152.128 107.156L154.128 107.15ZM158.149 111.14C155.94 111.146 154.14 109.36 154.128 107.15L152.128 107.156C152.146 110.47 154.846 113.149 158.159 113.14L158.149 111.14ZM208.974 107.003C208.986 109.212 207.204 111.007 204.995 111.013L205.005 113.013C208.319 113.004 210.991 110.311 210.974 106.997L208.974 107.003ZM204.851 83.0135C207.06 83.0076 208.86 84.7936 208.872 87.0027L210.872 86.9973C210.854 83.6836 208.154 81.0046 204.841 81.0135L204.851 83.0135ZM157.995 81.1399C154.681 81.1488 152.009 83.8423 152.026 87.156L154.026 87.1506C154.014 84.9414 155.796 83.1458 158.005 83.1398L157.995 81.1399Z" fill="#2F2F2F"/>
<path d="M135.624 166.808H146.376V168.704H135.624V166.808ZM135.624 172.496H146.376V174.392H135.624V172.496Z" fill="#2F2F2F"/>
<path d="M44.3756 171.56H40.0076V175.856H37.9916V171.56H33.6236V169.664H37.9916V165.344H40.0076V169.664H44.3756V171.56Z" fill="#2F2F2F"/>
<path d="M95.3756 171.56H91.0076V175.856H88.9916V171.56H84.6236V169.664H88.9916V165.344H91.0076V169.664H95.3756V171.56Z" fill="#2F2F2F"/>
<path d="M13.04 150.22C14.768 150.22 16.106 150.76 17.054 151.84C18.014 152.92 18.494 154.468 18.494 156.484C18.494 157.9 18.236 159.112 17.72 160.12C17.204 161.116 16.478 161.878 15.542 162.406C14.618 162.922 13.544 163.18 12.32 163.18C11.672 163.18 11.06 163.114 10.484 162.982C9.92 162.838 9.428 162.634 9.008 162.37L9.872 160.606C10.496 161.014 11.294 161.218 12.266 161.218C13.478 161.218 14.426 160.846 15.11 160.102C15.794 159.358 16.136 158.284 16.136 156.88V156.862C15.764 157.294 15.29 157.624 14.714 157.852C14.138 158.068 13.49 158.176 12.77 158.176C11.942 158.176 11.198 158.02 10.538 157.708C9.878 157.384 9.362 156.928 8.99 156.34C8.618 155.752 8.432 155.074 8.432 154.306C8.432 153.49 8.636 152.776 9.044 152.164C9.452 151.54 10.004 151.06 10.7 150.724C11.396 150.388 12.176 150.22 13.04 150.22ZM13.22 156.34C13.976 156.34 14.588 156.136 15.056 155.728C15.536 155.32 15.776 154.804 15.776 154.18C15.776 153.568 15.542 153.064 15.074 152.668C14.618 152.26 13.982 152.056 13.166 152.056C12.434 152.056 11.84 152.254 11.384 152.65C10.928 153.034 10.7 153.55 10.7 154.198C10.7 154.858 10.928 155.38 11.384 155.764C11.84 156.148 12.452 156.34 13.22 156.34Z" fill="#2F2F2F"/>
<line x1="0.5" y1="169.5" x2="26.5" y2="169.5" stroke="#2F2F2F" stroke-linecap="round"/>
<path d="M9.148 176.4V189H6.808V178.362H4.144V176.4H9.148ZM16.9035 189.18C15.8955 189.18 14.9955 188.928 14.2035 188.424C13.4115 187.908 12.7875 187.164 12.3315 186.192C11.8755 185.208 11.6475 184.044 11.6475 182.7C11.6475 181.356 11.8755 180.198 12.3315 179.226C12.7875 178.242 13.4115 177.498 14.2035 176.994C14.9955 176.478 15.8955 176.22 16.9035 176.22C17.9115 176.22 18.8115 176.478 19.6035 176.994C20.4075 177.498 21.0375 178.242 21.4935 179.226C21.9495 180.198 22.1775 181.356 22.1775 182.7C22.1775 184.044 21.9495 185.208 21.4935 186.192C21.0375 187.164 20.4075 187.908 19.6035 188.424C18.8115 188.928 17.9115 189.18 16.9035 189.18ZM16.9035 187.146C17.8035 187.146 18.5115 186.774 19.0275 186.03C19.5555 185.286 19.8195 184.176 19.8195 182.7C19.8195 181.224 19.5555 180.114 19.0275 179.37C18.5115 178.626 17.8035 178.254 16.9035 178.254C16.0155 178.254 15.3075 178.626 14.7795 179.37C14.2635 180.114 14.0055 181.224 14.0055 182.7C14.0055 184.176 14.2635 185.286 14.7795 186.03C15.3075 186.774 16.0155 187.146 16.9035 187.146Z" fill="#2F2F2F"/>
<path d="M69.296 150.4V151.966L64.4 163H61.898L66.632 152.38H61.682V154.522H59.504V150.4H69.296Z" fill="#2F2F2F"/>
<line x1="51.5" y1="169.5" x2="77.5" y2="169.5" stroke="#2F2F2F" stroke-linecap="round"/>
<path d="M60.148 176.4V189H57.808V178.362H55.144V176.4H60.148ZM67.9035 189.18C66.8955 189.18 65.9955 188.928 65.2035 188.424C64.4115 187.908 63.7875 187.164 63.3315 186.192C62.8755 185.208 62.6475 184.044 62.6475 182.7C62.6475 181.356 62.8755 180.198 63.3315 179.226C63.7875 178.242 64.4115 177.498 65.2035 176.994C65.9955 176.478 66.8955 176.22 67.9035 176.22C68.9115 176.22 69.8115 176.478 70.6035 176.994C71.4075 177.498 72.0375 178.242 72.4935 179.226C72.9495 180.198 73.1775 181.356 73.1775 182.7C73.1775 184.044 72.9495 185.208 72.4935 186.192C72.0375 187.164 71.4075 187.908 70.6035 188.424C69.8115 188.928 68.9115 189.18 67.9035 189.18ZM67.9035 187.146C68.8035 187.146 69.5115 186.774 70.0275 186.03C70.5555 185.286 70.8195 184.176 70.8195 182.7C70.8195 181.224 70.5555 180.114 70.0275 179.37C69.5115 178.626 68.8035 178.254 67.9035 178.254C67.0155 178.254 66.3075 178.626 65.7795 179.37C65.2635 180.114 65.0055 181.224 65.0055 182.7C65.0055 184.176 65.2635 185.286 65.7795 186.03C66.3075 186.774 67.0155 187.146 67.9035 187.146Z" fill="#2F2F2F"/>
<path d="M119.918 161.02V163H110.63V161.434L115.634 156.682C116.198 156.142 116.576 155.674 116.768 155.278C116.972 154.87 117.074 154.468 117.074 154.072C117.074 153.484 116.876 153.034 116.48 152.722C116.084 152.41 115.502 152.254 114.734 152.254C113.45 152.254 112.466 152.692 111.782 153.568L110.144 152.308C110.636 151.648 111.296 151.138 112.124 150.778C112.964 150.406 113.9 150.22 114.932 150.22C116.3 150.22 117.392 150.544 118.208 151.192C119.024 151.84 119.432 152.722 119.432 153.838C119.432 154.522 119.288 155.164 119 155.764C118.712 156.364 118.16 157.048 117.344 157.816L113.978 161.02H119.918Z" fill="#2F2F2F"/>
<line x1="102.5" y1="169.5" x2="128.5" y2="169.5" stroke="#2F2F2F" stroke-linecap="round"/>
<path d="M113.734 181.278C115.51 181.278 116.824 181.626 117.676 182.322C118.528 183.006 118.954 183.942 118.954 185.13C118.954 185.886 118.768 186.57 118.396 187.182C118.024 187.794 117.466 188.28 116.722 188.64C115.978 189 115.06 189.18 113.968 189.18C113.068 189.18 112.198 189.054 111.358 188.802C110.518 188.538 109.81 188.178 109.234 187.722L110.224 185.904C110.692 186.288 111.25 186.594 111.898 186.822C112.558 187.038 113.236 187.146 113.932 187.146C114.76 187.146 115.408 186.978 115.876 186.642C116.356 186.294 116.596 185.82 116.596 185.22C116.596 184.572 116.338 184.086 115.822 183.762C115.318 183.426 114.448 183.258 113.212 183.258H110.17L110.818 176.4H118.216V178.362H112.798L112.528 181.278H113.734Z" fill="#2F2F2F"/>
<path d="M158.005 156.14L204.851 156.014L204.841 154.014L157.995 154.14L158.005 156.14ZM208.872 160.003L208.974 180.003L210.974 179.997L210.872 159.997L208.872 160.003ZM204.995 184.013L158.149 184.14L158.159 186.14L205.005 186.013L204.995 184.013ZM154.128 180.15L154.026 160.151L152.026 160.156L152.128 180.156L154.128 180.15ZM158.149 184.14C155.94 184.146 154.14 182.36 154.128 180.15L152.128 180.156C152.146 183.47 154.846 186.149 158.159 186.14L158.149 184.14ZM208.974 180.003C208.986 182.212 207.204 184.007 204.995 184.013L205.005 186.013C208.319 186.004 210.991 183.311 210.974 179.997L208.974 180.003ZM204.851 156.014C207.06 156.008 208.86 157.794 208.872 160.003L210.872 159.997C210.854 156.684 208.154 154.005 204.841 154.014L204.851 156.014ZM157.995 154.14C154.681 154.149 152.009 156.842 152.026 160.156L154.026 160.151C154.014 157.941 155.796 156.146 158.005 156.14L157.995 154.14Z" fill="#2F2F2F"/>
<path d="M445.624 20.808H456.376V22.704H445.624V20.808ZM445.624 26.496H456.376V28.392H445.624V26.496Z" fill="#2F2F2F"/>
<path d="M354.376 25.56H350.008V29.856H347.992V25.56H343.624V23.664H347.992V19.344H350.008V23.664H354.376V25.56Z" fill="#2F2F2F"/>
<path d="M405.376 25.56H401.008V29.856H398.992V25.56H394.624V23.664H398.992V19.344H401.008V23.664H405.376V25.56Z" fill="#2F2F2F"/>
<path d="M324.156 9.602C325.32 9.746 326.208 10.142 326.82 10.79C327.432 11.438 327.738 12.248 327.738 13.22C327.738 13.952 327.552 14.618 327.18 15.218C326.808 15.818 326.244 16.298 325.488 16.658C324.744 17.006 323.832 17.18 322.752 17.18C321.852 17.18 320.982 17.054 320.142 16.802C319.314 16.538 318.606 16.178 318.018 15.722L319.026 13.904C319.482 14.288 320.034 14.594 320.682 14.822C321.342 15.038 322.02 15.146 322.716 15.146C323.544 15.146 324.192 14.978 324.66 14.642C325.14 14.294 325.38 13.826 325.38 13.238C325.38 12.65 325.152 12.194 324.696 11.87C324.252 11.534 323.568 11.366 322.644 11.366H321.492V9.764L324.354 6.362H318.63V4.4H327.216V5.966L324.156 9.602Z" fill="#2F2F2F"/>
<line x1="310.5" y1="23.5" x2="336.5" y2="23.5" stroke="#2F2F2F" stroke-linecap="round"/>
<path d="M329.024 40.138H326.792V43H324.524V40.138H317.612V38.518L323.822 30.4H326.324L320.474 38.158H324.596V35.62H326.792V38.158H329.024V40.138Z" fill="#2F2F2F"/>
<path d="M374.04 4.22C375.768 4.22 377.106 4.76 378.054 5.84C379.014 6.92 379.494 8.468 379.494 10.484C379.494 11.9 379.236 13.112 378.72 14.12C378.204 15.116 377.478 15.878 376.542 16.406C375.618 16.922 374.544 17.18 373.32 17.18C372.672 17.18 372.06 17.114 371.484 16.982C370.92 16.838 370.428 16.634 370.008 16.37L370.872 14.606C371.496 15.014 372.294 15.218 373.266 15.218C374.478 15.218 375.426 14.846 376.11 14.102C376.794 13.358 377.136 12.284 377.136 10.88V10.862C376.764 11.294 376.29 11.624 375.714 11.852C375.138 12.068 374.49 12.176 373.77 12.176C372.942 12.176 372.198 12.02 371.538 11.708C370.878 11.384 370.362 10.928 369.99 10.34C369.618 9.752 369.432 9.074 369.432 8.306C369.432 7.49 369.636 6.776 370.044 6.164C370.452 5.54 371.004 5.06 371.7 4.724C372.396 4.388 373.176 4.22 374.04 4.22ZM374.22 10.34C374.976 10.34 375.588 10.136 376.056 9.728C376.536 9.32 376.776 8.804 376.776 8.18C376.776 7.568 376.542 7.064 376.074 6.668C375.618 6.26 374.982 6.056 374.166 6.056C373.434 6.056 372.84 6.254 372.384 6.65C371.928 7.034 371.7 7.55 371.7 8.198C371.7 8.858 371.928 9.38 372.384 9.764C372.84 10.148 373.452 10.34 374.22 10.34Z" fill="#2F2F2F"/>
<line x1="361.5" y1="23.5" x2="387.5" y2="23.5" stroke="#2F2F2F" stroke-linecap="round"/>
<path d="M370.148 30.4V43H367.808V32.362H365.144V30.4H370.148ZM381.773 41.02V43H372.485V41.434L377.489 36.682C378.053 36.142 378.431 35.674 378.623 35.278C378.827 34.87 378.929 34.468 378.929 34.072C378.929 33.484 378.731 33.034 378.335 32.722C377.939 32.41 377.357 32.254 376.589 32.254C375.305 32.254 374.321 32.692 373.637 33.568L371.999 32.308C372.491 31.648 373.151 31.138 373.979 30.778C374.819 30.406 375.755 30.22 376.787 30.22C378.155 30.22 379.247 30.544 380.063 31.192C380.879 31.84 381.287 32.722 381.287 33.838C381.287 34.522 381.143 35.164 380.855 35.764C380.567 36.364 380.015 37.048 379.199 37.816L375.833 41.02H381.773Z" fill="#2F2F2F"/>
<path d="M425.148 4.4V17H422.808V6.362H420.144V4.4H425.148Z" fill="#2F2F2F"/>
<line x1="412.5" y1="23.5" x2="438.5" y2="23.5" stroke="#2F2F2F" stroke-linecap="round"/>
<path d="M428.918 41.02V43H419.63V41.434L424.634 36.682C425.198 36.142 425.576 35.674 425.768 35.278C425.972 34.87 426.074 34.468 426.074 34.072C426.074 33.484 425.876 33.034 425.48 32.722C425.084 32.41 424.502 32.254 423.734 32.254C422.45 32.254 421.466 32.692 420.782 33.568L419.144 32.308C419.636 31.648 420.296 31.138 421.124 30.778C421.964 30.406 422.9 30.22 423.932 30.22C425.3 30.22 426.392 30.544 427.208 31.192C428.024 31.84 428.432 32.722 428.432 33.838C428.432 34.522 428.288 35.164 428 35.764C427.712 36.364 427.16 37.048 426.344 37.816L422.978 41.02H428.918Z" fill="#2F2F2F"/>
<path d="M468.005 10.1398L514.851 10.0135L514.841 8.01354L467.995 8.13985L468.005 10.1398ZM518.872 14.0027L518.974 34.0026L520.974 33.9972L520.872 13.9973L518.872 14.0027ZM514.995 38.0133L468.149 38.1396L468.159 40.1396L515.005 40.0133L514.995 38.0133ZM464.128 34.1505L464.026 14.1506L462.026 14.156L462.128 34.1559L464.128 34.1505ZM468.149 38.1396C465.94 38.1456 464.14 36.3596 464.128 34.1505L462.128 34.1559C462.146 37.4695 464.846 40.1486 468.159 40.1396L468.149 38.1396ZM518.974 34.0026C518.986 36.2117 517.204 38.0074 514.995 38.0133L515.005 40.0133C518.319 40.0044 520.991 37.3109 520.974 33.9972L518.974 34.0026ZM514.851 10.0135C517.06 10.0076 518.86 11.7936 518.872 14.0027L520.872 13.9973C520.854 10.6836 518.154 8.0046 514.841 8.01354L514.851 10.0135ZM467.995 8.13985C464.681 8.14879 462.009 10.8423 462.026 14.156L464.026 14.1506C464.014 11.9414 465.796 10.1458 468.005 10.1398L467.995 8.13985Z" fill="#2F2F2F"/>
<path d="M445.624 93.808H456.376V95.704H445.624V93.808ZM445.624 99.496H456.376V101.392H445.624V99.496Z" fill="#2F2F2F"/>
<path d="M354.376 98.56H350.008V102.856H347.992V98.56H343.624V96.664H347.992V92.344H350.008V96.664H354.376V98.56Z" fill="#2F2F2F"/>
<path d="M405.376 98.56H401.008V102.856H398.992V98.56H394.624V96.664H398.992V92.344H401.008V96.664H405.376V98.56Z" fill="#2F2F2F"/>
<path d="M323.148 77.4V90H320.808V79.362H318.144V77.4H323.148Z" fill="#2F2F2F"/>
<line x1="310.5" y1="96.5" x2="336.5" y2="96.5" stroke="#2F2F2F" stroke-linecap="round"/>
<path d="M321.964 109.376C322.624 109.676 323.128 110.084 323.476 110.6C323.836 111.104 324.016 111.698 324.016 112.382C324.016 113.15 323.8 113.822 323.368 114.398C322.948 114.974 322.348 115.418 321.568 115.73C320.788 116.03 319.882 116.18 318.85 116.18C317.818 116.18 316.912 116.03 316.132 115.73C315.364 115.418 314.77 114.974 314.35 114.398C313.93 113.822 313.72 113.15 313.72 112.382C313.72 111.698 313.894 111.104 314.242 110.6C314.59 110.084 315.088 109.676 315.736 109.376C315.232 109.1 314.842 108.74 314.566 108.296C314.302 107.84 314.17 107.318 314.17 106.73C314.17 106.022 314.362 105.404 314.746 104.876C315.142 104.348 315.694 103.94 316.402 103.652C317.11 103.364 317.926 103.22 318.85 103.22C319.786 103.22 320.608 103.364 321.316 103.652C322.024 103.94 322.576 104.348 322.972 104.876C323.368 105.404 323.566 106.022 323.566 106.73C323.566 107.318 323.428 107.834 323.152 108.278C322.876 108.722 322.48 109.088 321.964 109.376ZM318.85 105.056C318.118 105.056 317.536 105.212 317.104 105.524C316.684 105.836 316.474 106.274 316.474 106.838C316.474 107.378 316.684 107.81 317.104 108.134C317.536 108.446 318.118 108.602 318.85 108.602C319.594 108.602 320.182 108.446 320.614 108.134C321.046 107.81 321.262 107.378 321.262 106.838C321.262 106.274 321.04 105.836 320.596 105.524C320.164 105.212 319.582 105.056 318.85 105.056ZM318.85 114.344C319.714 114.344 320.398 114.164 320.902 113.804C321.406 113.444 321.658 112.946 321.658 112.31C321.658 111.686 321.406 111.194 320.902 110.834C320.398 110.474 319.714 110.294 318.85 110.294C317.986 110.294 317.308 110.474 316.816 110.834C316.324 111.194 316.078 111.686 316.078 112.31C316.078 112.946 316.324 113.444 316.816 113.804C317.308 114.164 317.986 114.344 318.85 114.344Z" fill="#2F2F2F"/>
<path d="M378.918 88.02V90H369.63V88.434L374.634 83.682C375.198 83.142 375.576 82.674 375.768 82.278C375.972 81.87 376.074 81.468 376.074 81.072C376.074 80.484 375.876 80.034 375.48 79.722C375.084 79.41 374.502 79.254 373.734 79.254C372.45 79.254 371.466 79.692 370.782 80.568L369.144 79.308C369.636 78.648 370.296 78.138 371.124 77.778C371.964 77.406 372.9 77.22 373.932 77.22C375.3 77.22 376.392 77.544 377.208 78.192C378.024 78.84 378.432 79.722 378.432 80.838C378.432 81.522 378.288 82.164 378 82.764C377.712 83.364 377.16 84.048 376.344 84.816L372.978 88.02H378.918Z" fill="#2F2F2F"/>
<line x1="361.5" y1="96.5" x2="387.5" y2="96.5" stroke="#2F2F2F" stroke-linecap="round"/>
<path d="M380.024 113.138H377.792V116H375.524V113.138H368.612V111.518L374.822 103.4H377.324L371.474 111.158H375.596V108.62H377.792V111.158H380.024V113.138Z" fill="#2F2F2F"/>
<path d="M426.156 82.602C427.32 82.746 428.208 83.142 428.82 83.79C429.432 84.438 429.738 85.248 429.738 86.22C429.738 86.952 429.552 87.618 429.18 88.218C428.808 88.818 428.244 89.298 427.488 89.658C426.744 90.006 425.832 90.18 424.752 90.18C423.852 90.18 422.982 90.054 422.142 89.802C421.314 89.538 420.606 89.178 420.018 88.722L421.026 86.904C421.482 87.288 422.034 87.594 422.682 87.822C423.342 88.038 424.02 88.146 424.716 88.146C425.544 88.146 426.192 87.978 426.66 87.642C427.14 87.294 427.38 86.826 427.38 86.238C427.38 85.65 427.152 85.194 426.696 84.87C426.252 84.534 425.568 84.366 424.644 84.366H423.492V82.764L426.354 79.362H420.63V77.4H429.216V78.966L426.156 82.602Z" fill="#2F2F2F"/>
<line x1="412.5" y1="96.5" x2="438.5" y2="96.5" stroke="#2F2F2F" stroke-linecap="round"/>
<path d="M431.024 113.138H428.792V116H426.524V113.138H419.612V111.518L425.822 103.4H428.324L422.474 111.158H426.596V108.62H428.792V111.158H431.024V113.138Z" fill="#2F2F2F"/>
<path d="M468.005 83.1398L514.851 83.0135L514.841 81.0135L467.995 81.1399L468.005 83.1398ZM518.872 87.0027L518.974 107.003L520.974 106.997L520.872 86.9973L518.872 87.0027ZM514.995 111.013L468.149 111.14L468.159 113.14L515.005 113.013L514.995 111.013ZM464.128 107.15L464.026 87.1506L462.026 87.156L462.128 107.156L464.128 107.15ZM468.149 111.14C465.94 111.146 464.14 109.36 464.128 107.15L462.128 107.156C462.146 110.47 464.846 113.149 468.159 113.14L468.149 111.14ZM518.974 107.003C518.986 109.212 517.204 111.007 514.995 111.013L515.005 113.013C518.319 113.004 520.991 110.311 520.974 106.997L518.974 107.003ZM514.851 83.0135C517.06 83.0076 518.86 84.7936 518.872 87.0027L520.872 86.9973C520.854 83.6836 518.154 81.0046 514.841 81.0135L514.851 83.0135ZM467.995 81.1399C464.681 81.1488 462.009 83.8423 462.026 87.156L464.026 87.1506C464.014 84.9414 465.796 83.1458 468.005 83.1398L467.995 81.1399Z" fill="#2F2F2F"/>
<path d="M445.624 166.808H456.376V168.704H445.624V166.808ZM445.624 172.496H456.376V174.392H445.624V172.496Z" fill="#2F2F2F"/>
<path d="M354.376 171.56H350.008V175.856H347.992V171.56H343.624V169.664H347.992V165.344H350.008V169.664H354.376V171.56Z" fill="#2F2F2F"/>
<path d="M405.376 171.56H401.008V175.856H398.992V171.56H394.624V169.664H398.992V165.344H401.008V169.664H405.376V171.56Z" fill="#2F2F2F"/>
<path d="M323.148 150.4V163H320.808V152.362H318.144V150.4H323.148Z" fill="#2F2F2F"/>
<line x1="310.5" y1="169.5" x2="336.5" y2="169.5" stroke="#2F2F2F" stroke-linecap="round"/>
<path d="M329.024 186.138H326.792V189H324.524V186.138H317.612V184.518L323.822 176.4H326.324L320.474 184.158H324.596V181.62H326.792V184.158H329.024V186.138Z" fill="#2F2F2F"/>
<path d="M379.296 150.4V151.966L374.4 163H371.898L376.632 152.38H371.682V154.522H369.504V150.4H379.296Z" fill="#2F2F2F"/>
<line x1="361.5" y1="169.5" x2="387.5" y2="169.5" stroke="#2F2F2F" stroke-linecap="round"/>
<path d="M376.964 182.376C377.624 182.676 378.128 183.084 378.476 183.6C378.836 184.104 379.016 184.698 379.016 185.382C379.016 186.15 378.8 186.822 378.368 187.398C377.948 187.974 377.348 188.418 376.568 188.73C375.788 189.03 374.882 189.18 373.85 189.18C372.818 189.18 371.912 189.03 371.132 188.73C370.364 188.418 369.77 187.974 369.35 187.398C368.93 186.822 368.72 186.15 368.72 185.382C368.72 184.698 368.894 184.104 369.242 183.6C369.59 183.084 370.088 182.676 370.736 182.376C370.232 182.1 369.842 181.74 369.566 181.296C369.302 180.84 369.17 180.318 369.17 179.73C369.17 179.022 369.362 178.404 369.746 177.876C370.142 177.348 370.694 176.94 371.402 176.652C372.11 176.364 372.926 176.22 373.85 176.22C374.786 176.22 375.608 176.364 376.316 176.652C377.024 176.94 377.576 177.348 377.972 177.876C378.368 178.404 378.566 179.022 378.566 179.73C378.566 180.318 378.428 180.834 378.152 181.278C377.876 181.722 377.48 182.088 376.964 182.376ZM373.85 178.056C373.118 178.056 372.536 178.212 372.104 178.524C371.684 178.836 371.474 179.274 371.474 179.838C371.474 180.378 371.684 180.81 372.104 181.134C372.536 181.446 373.118 181.602 373.85 181.602C374.594 181.602 375.182 181.446 375.614 181.134C376.046 180.81 376.262 180.378 376.262 179.838C376.262 179.274 376.04 178.836 375.596 178.524C375.164 178.212 374.582 178.056 373.85 178.056ZM373.85 187.344C374.714 187.344 375.398 187.164 375.902 186.804C376.406 186.444 376.658 185.946 376.658 185.31C376.658 184.686 376.406 184.194 375.902 183.834C375.398 183.474 374.714 183.294 373.85 183.294C372.986 183.294 372.308 183.474 371.816 183.834C371.324 184.194 371.078 184.686 371.078 185.31C371.078 185.946 371.324 186.444 371.816 186.804C372.308 187.164 372.986 187.344 373.85 187.344Z" fill="#2F2F2F"/>
<path d="M425.148 150.4V163H422.808V152.362H420.144V150.4H425.148Z" fill="#2F2F2F"/>
<line x1="412.5" y1="169.5" x2="438.5" y2="169.5" stroke="#2F2F2F" stroke-linecap="round"/>
<path d="M431.024 186.138H428.792V189H426.524V186.138H419.612V184.518L425.822 176.4H428.324L422.474 184.158H426.596V181.62H428.792V184.158H431.024V186.138Z" fill="#2F2F2F"/>
<path d="M468.005 156.14L514.851 156.014L514.841 154.014L467.995 154.14L468.005 156.14ZM518.872 160.003L518.974 180.003L520.974 179.997L520.872 159.997L518.872 160.003ZM514.995 184.013L468.149 184.14L468.159 186.14L515.005 186.013L514.995 184.013ZM464.128 180.15L464.026 160.151L462.026 160.156L462.128 180.156L464.128 180.15ZM468.149 184.14C465.94 184.146 464.14 182.36 464.128 180.15L462.128 180.156C462.146 183.47 464.846 186.149 468.159 186.14L468.149 184.14ZM518.974 180.003C518.986 182.212 517.204 184.007 514.995 184.013L515.005 186.013C518.319 186.004 520.991 183.311 520.974 179.997L518.974 180.003ZM514.851 156.014C517.06 156.008 518.86 157.794 518.872 160.003L520.872 159.997C520.854 156.684 518.154 154.005 514.841 154.014L514.851 156.014ZM467.995 154.14C464.681 154.149 462.009 156.842 462.026 160.156L464.026 160.151C464.014 157.941 465.796 156.146 468.005 156.14L467.995 154.14Z" fill="#2F2F2F"/>
<path d="M163.115 17.4V30H161.333V18.966H158.489V17.4H163.115ZM176.581 17.4V18.624L171.487 30H169.579L174.565 18.966H168.805V21.216H167.077V17.4H176.581ZM183.505 14.844H185.071L179.131 31.8H177.565L183.505 14.844ZM191.242 17.4V30H189.46V18.966H186.616V17.4H191.242ZM204.384 28.434V30H195.33V28.776L200.46 23.826C201.084 23.226 201.504 22.71 201.72 22.278C201.936 21.834 202.044 21.39 202.044 20.946C202.044 20.286 201.81 19.776 201.342 19.416C200.886 19.044 200.226 18.858 199.362 18.858C197.97 18.858 196.896 19.314 196.14 20.226L194.916 19.164C195.408 18.564 196.05 18.096 196.842 17.76C197.646 17.424 198.54 17.256 199.524 17.256C200.844 17.256 201.894 17.574 202.674 18.21C203.454 18.834 203.844 19.686 203.844 20.766C203.844 21.438 203.7 22.074 203.412 22.674C203.124 23.274 202.578 23.958 201.774 24.726L197.922 28.434H204.384Z" fill="#2F2F2F"/>
<path d="M173.627 96.394C174.347 96.67 174.899 97.066 175.283 97.582C175.667 98.098 175.859 98.716 175.859 99.436C175.859 100.192 175.655 100.852 175.247 101.416C174.839 101.968 174.257 102.394 173.501 102.694C172.745 102.994 171.857 103.144 170.837 103.144C169.829 103.144 168.947 102.994 168.191 102.694C167.447 102.394 166.871 101.968 166.463 101.416C166.055 100.852 165.851 100.192 165.851 99.436C165.851 98.716 166.037 98.098 166.409 97.582C166.793 97.066 167.345 96.67 168.065 96.394C167.489 96.118 167.051 95.752 166.751 95.296C166.451 94.84 166.301 94.3 166.301 93.676C166.301 92.98 166.487 92.374 166.859 91.858C167.243 91.342 167.777 90.946 168.461 90.67C169.145 90.394 169.937 90.256 170.837 90.256C171.749 90.256 172.547 90.394 173.231 90.67C173.927 90.946 174.461 91.342 174.833 91.858C175.217 92.374 175.409 92.98 175.409 93.676C175.409 94.288 175.253 94.828 174.941 95.296C174.641 95.752 174.203 96.118 173.627 96.394ZM170.837 91.714C169.985 91.714 169.313 91.9 168.821 92.272C168.329 92.632 168.083 93.124 168.083 93.748C168.083 94.372 168.323 94.864 168.803 95.224C169.295 95.584 169.973 95.764 170.837 95.764C171.713 95.764 172.397 95.584 172.889 95.224C173.393 94.864 173.645 94.372 173.645 93.748C173.645 93.124 173.387 92.632 172.871 92.272C172.367 91.9 171.689 91.714 170.837 91.714ZM170.837 101.686C171.833 101.686 172.619 101.482 173.195 101.074C173.771 100.654 174.059 100.09 174.059 99.382C174.059 98.686 173.771 98.14 173.195 97.744C172.619 97.336 171.833 97.132 170.837 97.132C169.841 97.132 169.061 97.336 168.497 97.744C167.933 98.14 167.651 98.686 167.651 99.382C167.651 100.09 167.933 100.654 168.497 101.074C169.061 101.482 169.841 101.686 170.837 101.686ZM183.609 87.844H185.175L179.235 104.8H177.669L183.609 87.844ZM196.286 90.4V91.624L191.192 103H189.284L194.27 91.966H188.51V94.216H186.782V90.4H196.286Z" fill="#2F2F2F"/>
<path d="M186.384 174.434V176H177.33V174.776L182.46 169.826C183.084 169.226 183.504 168.71 183.72 168.278C183.936 167.834 184.044 167.39 184.044 166.946C184.044 166.286 183.81 165.776 183.342 165.416C182.886 165.044 182.226 164.858 181.362 164.858C179.97 164.858 178.896 165.314 178.14 166.226L176.916 165.164C177.408 164.564 178.05 164.096 178.842 163.76C179.646 163.424 180.54 163.256 181.524 163.256C182.844 163.256 183.894 163.574 184.674 164.21C185.454 164.834 185.844 165.686 185.844 166.766C185.844 167.438 185.7 168.074 185.412 168.674C185.124 169.274 184.578 169.958 183.774 170.726L179.922 174.434H186.384Z" fill="#2F2F2F"/>
<path d="M496.384 26.434V28H487.33V26.776L492.46 21.826C493.084 21.226 493.504 20.71 493.72 20.278C493.936 19.834 494.044 19.39 494.044 18.946C494.044 18.286 493.81 17.776 493.342 17.416C492.886 17.044 492.226 16.858 491.362 16.858C489.97 16.858 488.896 17.314 488.14 18.226L486.916 17.164C487.408 16.564 488.05 16.096 488.842 15.76C489.646 15.424 490.54 15.256 491.524 15.256C492.844 15.256 493.894 15.574 494.674 16.21C495.454 16.834 495.844 17.686 495.844 18.766C495.844 19.438 495.7 20.074 495.412 20.674C495.124 21.274 494.578 21.958 493.774 22.726L489.922 26.434H496.384Z" fill="#2F2F2F"/>
<path d="M478.366 90.4V103H476.584V91.966H473.74V90.4H478.366ZM486.558 90.4V103H484.776V91.966H481.932V90.4H486.558ZM495.416 87.844H496.982L491.042 104.8H489.476L495.416 87.844ZM505.984 96.394C506.704 96.67 507.256 97.066 507.64 97.582C508.024 98.098 508.216 98.716 508.216 99.436C508.216 100.192 508.012 100.852 507.604 101.416C507.196 101.968 506.614 102.394 505.858 102.694C505.102 102.994 504.214 103.144 503.194 103.144C502.186 103.144 501.304 102.994 500.548 102.694C499.804 102.394 499.228 101.968 498.82 101.416C498.412 100.852 498.208 100.192 498.208 99.436C498.208 98.716 498.394 98.098 498.766 97.582C499.15 97.066 499.702 96.67 500.422 96.394C499.846 96.118 499.408 95.752 499.108 95.296C498.808 94.84 498.658 94.3 498.658 93.676C498.658 92.98 498.844 92.374 499.216 91.858C499.6 91.342 500.134 90.946 500.818 90.67C501.502 90.394 502.294 90.256 503.194 90.256C504.106 90.256 504.904 90.394 505.588 90.67C506.284 90.946 506.818 91.342 507.19 91.858C507.574 92.374 507.766 92.98 507.766 93.676C507.766 94.288 507.61 94.828 507.298 95.296C506.998 95.752 506.56 96.118 505.984 96.394ZM503.194 91.714C502.342 91.714 501.67 91.9 501.178 92.272C500.686 92.632 500.44 93.124 500.44 93.748C500.44 94.372 500.68 94.864 501.16 95.224C501.652 95.584 502.33 95.764 503.194 95.764C504.07 95.764 504.754 95.584 505.246 95.224C505.75 94.864 506.002 94.372 506.002 93.748C506.002 93.124 505.744 92.632 505.228 92.272C504.724 91.9 504.046 91.714 503.194 91.714ZM503.194 101.686C504.19 101.686 504.976 101.482 505.552 101.074C506.128 100.654 506.416 100.09 506.416 99.382C506.416 98.686 506.128 98.14 505.552 97.744C504.976 97.336 504.19 97.132 503.194 97.132C502.198 97.132 501.418 97.336 500.854 97.744C500.29 98.14 500.008 98.686 500.008 99.382C500.008 100.09 500.29 100.654 500.854 101.074C501.418 101.482 502.198 101.686 503.194 101.686Z" fill="#2F2F2F"/>
<path d="M480.366 163.4V176H478.584V164.966H475.74V163.4H480.366ZM488.558 163.4V176H486.776V164.966H483.932V163.4H488.558ZM497.416 160.844H498.982L493.042 177.8H491.476L497.416 160.844ZM507.984 169.394C508.704 169.67 509.256 170.066 509.64 170.582C510.024 171.098 510.216 171.716 510.216 172.436C510.216 173.192 510.012 173.852 509.604 174.416C509.196 174.968 508.614 175.394 507.858 175.694C507.102 175.994 506.214 176.144 505.194 176.144C504.186 176.144 503.304 175.994 502.548 175.694C501.804 175.394 501.228 174.968 500.82 174.416C500.412 173.852 500.208 173.192 500.208 172.436C500.208 171.716 500.394 171.098 500.766 170.582C501.15 170.066 501.702 169.67 502.422 169.394C501.846 169.118 501.408 168.752 501.108 168.296C500.808 167.84 500.658 167.3 500.658 166.676C500.658 165.98 500.844 165.374 501.216 164.858C501.6 164.342 502.134 163.946 502.818 163.67C503.502 163.394 504.294 163.256 505.194 163.256C506.106 163.256 506.904 163.394 507.588 163.67C508.284 163.946 508.818 164.342 509.19 164.858C509.574 165.374 509.766 165.98 509.766 166.676C509.766 167.288 509.61 167.828 509.298 168.296C508.998 168.752 508.56 169.118 507.984 169.394ZM505.194 164.714C504.342 164.714 503.67 164.9 503.178 165.272C502.686 165.632 502.44 166.124 502.44 166.748C502.44 167.372 502.68 167.864 503.16 168.224C503.652 168.584 504.33 168.764 505.194 168.764C506.07 168.764 506.754 168.584 507.246 168.224C507.75 167.864 508.002 167.372 508.002 166.748C508.002 166.124 507.744 165.632 507.228 165.272C506.724 164.9 506.046 164.714 505.194 164.714ZM505.194 174.686C506.19 174.686 506.976 174.482 507.552 174.074C508.128 173.654 508.416 173.09 508.416 172.382C508.416 171.686 508.128 171.14 507.552 170.744C506.976 170.336 506.19 170.132 505.194 170.132C504.198 170.132 503.418 170.336 502.854 170.744C502.29 171.14 502.008 171.686 502.008 172.382C502.008 173.09 502.29 173.654 502.854 174.074C503.418 174.482 504.198 174.686 505.194 174.686Z" fill="#2F2F2F"/>
</svg>
