<svg width="148" height="48" viewBox="0 0 148 48" fill="none" xmlns="http://www.w3.org/2000/svg">
<path d="M135.624 20.808H146.376V22.704H135.624V20.808ZM135.624 26.496H146.376V28.392H135.624V26.496Z" fill="#2F2F2F"/>
<path d="M44.3756 25.56H40.0076V29.856H37.9916V25.56H33.6236V23.664H37.9916V19.344H40.0076V23.664H44.3756V25.56Z" fill="#2F2F2F"/>
<path d="M95.3756 25.56H91.0076V29.856H88.9916V25.56H84.6236V23.664H88.9916V19.344H91.0076V23.664H95.3756V25.56Z" fill="#2F2F2F"/>
<path d="M13.148 4.4V17H10.808V6.362H8.144V4.4H13.148Z" fill="#2F2F2F"/>
<line x1="0.5" y1="23.5" x2="26.5" y2="23.5" stroke="#2F2F2F" stroke-linecap="round"/>
<path d="M16.918 41.02V43H7.63V41.434L12.634 36.682C13.198 36.142 13.576 35.674 13.768 35.278C13.972 34.87 14.074 34.468 14.074 34.072C14.074 33.484 13.876 33.034 13.48 32.722C13.084 32.41 12.502 32.254 11.734 32.254C10.45 32.254 9.466 32.692 8.782 33.568L7.144 32.308C7.636 31.648 8.296 31.138 9.124 30.778C9.964 30.406 10.9 30.22 11.932 30.22C13.3 30.22 14.392 30.544 15.208 31.192C16.024 31.84 16.432 32.722 16.432 33.838C16.432 34.522 16.288 35.164 16 35.764C15.712 36.364 15.16 37.048 14.344 37.816L10.978 41.02H16.918Z" fill="#2F2F2F"/>
<path d="M64.148 4.4V17H61.808V6.362H59.144V4.4H64.148Z" fill="#2F2F2F"/>
<line x1="51.5" y1="23.5" x2="77.5" y2="23.5" stroke="#2F2F2F" stroke-linecap="round"/>
<path d="M67.918 41.02V43H58.63V41.434L63.634 36.682C64.198 36.142 64.576 35.674 64.768 35.278C64.972 34.87 65.074 34.468 65.074 34.072C65.074 33.484 64.876 33.034 64.48 32.722C64.084 32.41 63.502 32.254 62.734 32.254C61.45 32.254 60.466 32.692 59.782 33.568L58.144 32.308C58.636 31.648 59.296 31.138 60.124 30.778C60.964 30.406 61.9 30.22 62.932 30.22C64.3 30.22 65.392 30.544 66.208 31.192C67.024 31.84 67.432 32.722 67.432 33.838C67.432 34.522 67.288 35.164 67 35.764C66.712 36.364 66.16 37.048 65.344 37.816L61.978 41.02H67.918Z" fill="#2F2F2F"/>
<path d="M114.734 9.278C116.51 9.278 117.824 9.626 118.676 10.322C119.528 11.006 119.954 11.942 119.954 13.13C119.954 13.886 119.768 14.57 119.396 15.182C119.024 15.794 118.466 16.28 117.722 16.64C116.978 17 116.06 17.18 114.968 17.18C114.068 17.18 113.198 17.054 112.358 16.802C111.518 16.538 110.81 16.178 110.234 15.722L111.224 13.904C111.692 14.288 112.25 14.594 112.898 14.822C113.558 15.038 114.236 15.146 114.932 15.146C115.76 15.146 116.408 14.978 116.876 14.642C117.356 14.294 117.596 13.82 117.596 13.22C117.596 12.572 117.338 12.086 116.822 11.762C116.318 11.426 115.448 11.258 114.212 11.258H111.17L111.818 4.4H119.216V6.362H113.798L113.528 9.278H114.734Z" fill="#2F2F2F"/>
<line x1="102.5" y1="23.5" x2="128.5" y2="23.5" stroke="#2F2F2F" stroke-linecap="round"/>
<path d="M114.148 30.4V43H111.808V32.362H109.144V30.4H114.148ZM125.773 41.02V43H116.485V41.434L121.489 36.682C122.053 36.142 122.431 35.674 122.623 35.278C122.827 34.87 122.929 34.468 122.929 34.072C122.929 33.484 122.731 33.034 122.335 32.722C121.939 32.41 121.357 32.254 120.589 32.254C119.305 32.254 118.321 32.692 117.637 33.568L115.999 32.308C116.491 31.648 117.151 31.138 117.979 30.778C118.819 30.406 119.755 30.22 120.787 30.22C122.155 30.22 123.247 30.544 124.063 31.192C124.879 31.84 125.287 32.722 125.287 33.838C125.287 34.522 125.143 35.164 124.855 35.764C124.567 36.364 124.015 37.048 123.199 37.816L119.833 41.02H125.773Z" fill="#2F2F2F"/>
</svg>
