<svg width="148" height="48" viewBox="0 0 148 48" fill="none" xmlns="http://www.w3.org/2000/svg">
<path d="M135.624 20.808H146.376V22.704H135.624V20.808ZM135.624 26.496H146.376V28.392H135.624V26.496Z" fill="#2F2F2F"/>
<path d="M44.3756 25.56H40.0076V29.856H37.9916V25.56H33.6236V23.664H37.9916V19.344H40.0076V23.664H44.3756V25.56Z" fill="#2F2F2F"/>
<path d="M95.3756 25.56H91.0076V29.856H88.9916V25.56H84.6236V23.664H88.9916V19.344H91.0076V23.664H95.3756V25.56Z" fill="#2F2F2F"/>
<path d="M14.156 9.602C15.32 9.746 16.208 10.142 16.82 10.79C17.432 11.438 17.738 12.248 17.738 13.22C17.738 13.952 17.552 14.618 17.18 15.218C16.808 15.818 16.244 16.298 15.488 16.658C14.744 17.006 13.832 17.18 12.752 17.18C11.852 17.18 10.982 17.054 10.142 16.802C9.314 16.538 8.606 16.178 8.018 15.722L9.026 13.904C9.482 14.288 10.034 14.594 10.682 14.822C11.342 15.038 12.02 15.146 12.716 15.146C13.544 15.146 14.192 14.978 14.66 14.642C15.14 14.294 15.38 13.826 15.38 13.238C15.38 12.65 15.152 12.194 14.696 11.87C14.252 11.534 13.568 11.366 12.644 11.366H11.492V9.764L14.354 6.362H8.63V4.4H17.216V5.966L14.156 9.602Z" fill="#2F2F2F"/>
<line x1="0.5" y1="23.5" x2="26.5" y2="23.5" stroke="#2F2F2F" stroke-linecap="round"/>
<path d="M19.024 40.138H16.792V43H14.524V40.138H7.612V38.518L13.822 30.4H16.324L10.474 38.158H14.596V35.62H16.792V38.158H19.024V40.138Z" fill="#2F2F2F"/>
<path d="M64.04 4.22C65.768 4.22 67.106 4.76 68.054 5.84C69.014 6.92 69.494 8.468 69.494 10.484C69.494 11.9 69.236 13.112 68.72 14.12C68.204 15.116 67.478 15.878 66.542 16.406C65.618 16.922 64.544 17.18 63.32 17.18C62.672 17.18 62.06 17.114 61.484 16.982C60.92 16.838 60.428 16.634 60.008 16.37L60.872 14.606C61.496 15.014 62.294 15.218 63.266 15.218C64.478 15.218 65.426 14.846 66.11 14.102C66.794 13.358 67.136 12.284 67.136 10.88V10.862C66.764 11.294 66.29 11.624 65.714 11.852C65.138 12.068 64.49 12.176 63.77 12.176C62.942 12.176 62.198 12.02 61.538 11.708C60.878 11.384 60.362 10.928 59.99 10.34C59.618 9.752 59.432 9.074 59.432 8.306C59.432 7.49 59.636 6.776 60.044 6.164C60.452 5.54 61.004 5.06 61.7 4.724C62.396 4.388 63.176 4.22 64.04 4.22ZM64.22 10.34C64.976 10.34 65.588 10.136 66.056 9.728C66.536 9.32 66.776 8.804 66.776 8.18C66.776 7.568 66.542 7.064 66.074 6.668C65.618 6.26 64.982 6.056 64.166 6.056C63.434 6.056 62.84 6.254 62.384 6.65C61.928 7.034 61.7 7.55 61.7 8.198C61.7 8.858 61.928 9.38 62.384 9.764C62.84 10.148 63.452 10.34 64.22 10.34Z" fill="#2F2F2F"/>
<line x1="51.5" y1="23.5" x2="77.5" y2="23.5" stroke="#2F2F2F" stroke-linecap="round"/>
<path d="M60.148 30.4V43H57.808V32.362H55.144V30.4H60.148ZM71.7735 41.02V43H62.4855V41.434L67.4895 36.682C68.0535 36.142 68.4315 35.674 68.6235 35.278C68.8275 34.87 68.9295 34.468 68.9295 34.072C68.9295 33.484 68.7315 33.034 68.3355 32.722C67.9395 32.41 67.3575 32.254 66.5895 32.254C65.3055 32.254 64.3215 32.692 63.6375 33.568L61.9995 32.308C62.4915 31.648 63.1515 31.138 63.9795 30.778C64.8195 30.406 65.7555 30.22 66.7875 30.22C68.1555 30.22 69.2475 30.544 70.0635 31.192C70.8795 31.84 71.2875 32.722 71.2875 33.838C71.2875 34.522 71.1435 35.164 70.8555 35.764C70.5675 36.364 70.0155 37.048 69.1995 37.816L65.8335 41.02H71.7735Z" fill="#2F2F2F"/>
<path d="M115.148 4.4V17H112.808V6.362H110.144V4.4H115.148Z" fill="#2F2F2F"/>
<line x1="102.5" y1="23.5" x2="128.5" y2="23.5" stroke="#2F2F2F" stroke-linecap="round"/>
<path d="M118.918 41.02V43H109.63V41.434L114.634 36.682C115.198 36.142 115.576 35.674 115.768 35.278C115.972 34.87 116.074 34.468 116.074 34.072C116.074 33.484 115.876 33.034 115.48 32.722C115.084 32.41 114.502 32.254 113.734 32.254C112.45 32.254 111.466 32.692 110.782 33.568L109.144 32.308C109.636 31.648 110.296 31.138 111.124 30.778C111.964 30.406 112.9 30.22 113.932 30.22C115.3 30.22 116.392 30.544 117.208 31.192C118.024 31.84 118.432 32.722 118.432 33.838C118.432 34.522 118.288 35.164 118 35.764C117.712 36.364 117.16 37.048 116.344 37.816L112.978 41.02H118.918Z" fill="#2F2F2F"/>
</svg>
