<svg width="148" height="48" viewBox="0 0 148 48" fill="none" xmlns="http://www.w3.org/2000/svg">
<path d="M135.624 20.808H146.376V22.704H135.624V20.808ZM135.624 26.496H146.376V28.392H135.624V26.496Z" fill="#2F2F2F"/>
<path d="M44.3756 25.56H40.0076V29.856H37.9916V25.56H33.6236V23.664H37.9916V19.344H40.0076V23.664H44.3756V25.56Z" fill="#2F2F2F"/>
<path d="M95.3756 25.56H91.0076V29.856H88.9916V25.56H84.6236V23.664H88.9916V19.344H91.0076V23.664H95.3756V25.56Z" fill="#2F2F2F"/>
<path d="M13.148 4.4V17H10.808V6.362H8.144V4.4H13.148Z" fill="#2F2F2F"/>
<line x1="0.5" y1="23.5" x2="26.5" y2="23.5" stroke="#2F2F2F" stroke-linecap="round"/>
<path d="M19.024 40.138H16.792V43H14.524V40.138H7.612V38.518L13.822 30.4H16.324L10.474 38.158H14.596V35.62H16.792V38.158H19.024V40.138Z" fill="#2F2F2F"/>
<path d="M69.296 4.4V5.966L64.4 17H61.898L66.632 6.38H61.682V8.522H59.504V4.4H69.296Z" fill="#2F2F2F"/>
<line x1="51.5" y1="23.5" x2="77.5" y2="23.5" stroke="#2F2F2F" stroke-linecap="round"/>
<path d="M66.964 36.376C67.624 36.676 68.128 37.084 68.476 37.6C68.836 38.104 69.016 38.698 69.016 39.382C69.016 40.15 68.8 40.822 68.368 41.398C67.948 41.974 67.348 42.418 66.568 42.73C65.788 43.03 64.882 43.18 63.85 43.18C62.818 43.18 61.912 43.03 61.132 42.73C60.364 42.418 59.77 41.974 59.35 41.398C58.93 40.822 58.72 40.15 58.72 39.382C58.72 38.698 58.894 38.104 59.242 37.6C59.59 37.084 60.088 36.676 60.736 36.376C60.232 36.1 59.842 35.74 59.566 35.296C59.302 34.84 59.17 34.318 59.17 33.73C59.17 33.022 59.362 32.404 59.746 31.876C60.142 31.348 60.694 30.94 61.402 30.652C62.11 30.364 62.926 30.22 63.85 30.22C64.786 30.22 65.608 30.364 66.316 30.652C67.024 30.94 67.576 31.348 67.972 31.876C68.368 32.404 68.566 33.022 68.566 33.73C68.566 34.318 68.428 34.834 68.152 35.278C67.876 35.722 67.48 36.088 66.964 36.376ZM63.85 32.056C63.118 32.056 62.536 32.212 62.104 32.524C61.684 32.836 61.474 33.274 61.474 33.838C61.474 34.378 61.684 34.81 62.104 35.134C62.536 35.446 63.118 35.602 63.85 35.602C64.594 35.602 65.182 35.446 65.614 35.134C66.046 34.81 66.262 34.378 66.262 33.838C66.262 33.274 66.04 32.836 65.596 32.524C65.164 32.212 64.582 32.056 63.85 32.056ZM63.85 41.344C64.714 41.344 65.398 41.164 65.902 40.804C66.406 40.444 66.658 39.946 66.658 39.31C66.658 38.686 66.406 38.194 65.902 37.834C65.398 37.474 64.714 37.294 63.85 37.294C62.986 37.294 62.308 37.474 61.816 37.834C61.324 38.194 61.078 38.686 61.078 39.31C61.078 39.946 61.324 40.444 61.816 40.804C62.308 41.164 62.986 41.344 63.85 41.344Z" fill="#2F2F2F"/>
<path d="M115.148 4.4V17H112.808V6.362H110.144V4.4H115.148Z" fill="#2F2F2F"/>
<line x1="102.5" y1="23.5" x2="128.5" y2="23.5" stroke="#2F2F2F" stroke-linecap="round"/>
<path d="M121.024 40.138H118.792V43H116.524V40.138H109.612V38.518L115.822 30.4H118.324L112.474 38.158H116.596V35.62H118.792V38.158H121.024V40.138Z" fill="#2F2F2F"/>
</svg>
