<svg width="148" height="48" viewBox="0 0 148 48" fill="none" xmlns="http://www.w3.org/2000/svg">
<path d="M135.624 20.808H146.376V22.704H135.624V20.808ZM135.624 26.496H146.376V28.392H135.624V26.496Z" fill="#2F2F2F"/>
<path d="M44.3756 25.56H40.0076V29.856H37.9916V25.56H33.6236V23.664H37.9916V19.344H40.0076V23.664H44.3756V25.56Z" fill="#2F2F2F"/>
<path d="M95.3756 25.56H91.0076V29.856H88.9916V25.56H84.6236V23.664H88.9916V19.344H91.0076V23.664H95.3756V25.56Z" fill="#2F2F2F"/>
<path d="M13.148 4.4V17H10.808V6.362H8.144V4.4H13.148Z" fill="#2F2F2F"/>
<line x1="0.5" y1="23.5" x2="26.5" y2="23.5" stroke="#2F2F2F" stroke-linecap="round"/>
<path d="M17.296 30.4V31.966L12.4 43H9.898L14.632 32.38H9.682V34.522H7.504V30.4H17.296Z" fill="#2F2F2F"/>
<path d="M63.734 9.278C65.51 9.278 66.824 9.626 67.676 10.322C68.528 11.006 68.954 11.942 68.954 13.13C68.954 13.886 68.768 14.57 68.396 15.182C68.024 15.794 67.466 16.28 66.722 16.64C65.978 17 65.06 17.18 63.968 17.18C63.068 17.18 62.198 17.054 61.358 16.802C60.518 16.538 59.81 16.178 59.234 15.722L60.224 13.904C60.692 14.288 61.25 14.594 61.898 14.822C62.558 15.038 63.236 15.146 63.932 15.146C64.76 15.146 65.408 14.978 65.876 14.642C66.356 14.294 66.596 13.82 66.596 13.22C66.596 12.572 66.338 12.086 65.822 11.762C65.318 11.426 64.448 11.258 63.212 11.258H60.17L60.818 4.4H68.216V6.362H62.798L62.528 9.278H63.734Z" fill="#2F2F2F"/>
<line x1="51.5" y1="23.5" x2="77.5" y2="23.5" stroke="#2F2F2F" stroke-linecap="round"/>
<path d="M68.296 30.4V31.966L63.4 43H60.898L65.632 32.38H60.682V34.522H58.504V30.4H68.296Z" fill="#2F2F2F"/>
<path d="M116.516 9.224C117.344 9.224 118.088 9.386 118.748 9.71C119.408 10.022 119.924 10.472 120.296 11.06C120.668 11.648 120.854 12.326 120.854 13.094C120.854 13.91 120.65 14.63 120.242 15.254C119.834 15.866 119.282 16.34 118.586 16.676C117.89 17.012 117.11 17.18 116.246 17.18C114.518 17.18 113.174 16.64 112.214 15.56C111.266 14.48 110.792 12.932 110.792 10.916C110.792 9.5 111.05 8.294 111.566 7.298C112.082 6.29 112.802 5.528 113.726 5.012C114.662 4.484 115.742 4.22 116.966 4.22C117.614 4.22 118.22 4.292 118.784 4.436C119.36 4.568 119.858 4.766 120.278 5.03L119.414 6.794C118.79 6.386 117.992 6.182 117.02 6.182C115.808 6.182 114.86 6.554 114.176 7.298C113.492 8.042 113.15 9.116 113.15 10.52V10.538C113.522 10.106 113.996 9.782 114.572 9.566C115.148 9.338 115.796 9.224 116.516 9.224ZM116.12 15.344C116.852 15.344 117.446 15.152 117.902 14.768C118.358 14.372 118.586 13.85 118.586 13.202C118.586 12.542 118.358 12.02 117.902 11.636C117.446 11.252 116.834 11.06 116.066 11.06C115.31 11.06 114.692 11.264 114.212 11.672C113.744 12.08 113.51 12.596 113.51 13.22C113.51 13.832 113.738 14.342 114.194 14.75C114.662 15.146 115.304 15.344 116.12 15.344Z" fill="#2F2F2F"/>
<line x1="102.5" y1="23.5" x2="128.5" y2="23.5" stroke="#2F2F2F" stroke-linecap="round"/>
<path d="M118.918 41.02V43H109.63V41.434L114.634 36.682C115.198 36.142 115.576 35.674 115.768 35.278C115.972 34.87 116.074 34.468 116.074 34.072C116.074 33.484 115.876 33.034 115.48 32.722C115.084 32.41 114.502 32.254 113.734 32.254C112.45 32.254 111.466 32.692 110.782 33.568L109.144 32.308C109.636 31.648 110.296 31.138 111.124 30.778C111.964 30.406 112.9 30.22 113.932 30.22C115.3 30.22 116.392 30.544 117.208 31.192C118.024 31.84 118.432 32.722 118.432 33.838C118.432 34.522 118.288 35.164 118 35.764C117.712 36.364 117.16 37.048 116.344 37.816L112.978 41.02H118.918ZM124.625 30.4V43H122.285V32.362H119.621V30.4H124.625Z" fill="#2F2F2F"/>
</svg>
