<svg width="148" height="48" viewBox="0 0 148 48" fill="none" xmlns="http://www.w3.org/2000/svg">
<path d="M135.624 20.808H146.376V22.704H135.624V20.808ZM135.624 26.496H146.376V28.392H135.624V26.496Z" fill="#2F2F2F"/>
<path d="M44.3756 25.56H40.0076V29.856H37.9916V25.56H33.6236V23.664H37.9916V19.344H40.0076V23.664H44.3756V25.56Z" fill="#2F2F2F"/>
<path d="M95.3756 25.56H91.0076V29.856H88.9916V25.56H84.6236V23.664H88.9916V19.344H91.0076V23.664H95.3756V25.56Z" fill="#2F2F2F"/>
<path d="M13.04 4.22C14.768 4.22 16.106 4.76 17.054 5.84C18.014 6.92 18.494 8.468 18.494 10.484C18.494 11.9 18.236 13.112 17.72 14.12C17.204 15.116 16.478 15.878 15.542 16.406C14.618 16.922 13.544 17.18 12.32 17.18C11.672 17.18 11.06 17.114 10.484 16.982C9.92 16.838 9.428 16.634 9.008 16.37L9.872 14.606C10.496 15.014 11.294 15.218 12.266 15.218C13.478 15.218 14.426 14.846 15.11 14.102C15.794 13.358 16.136 12.284 16.136 10.88V10.862C15.764 11.294 15.29 11.624 14.714 11.852C14.138 12.068 13.49 12.176 12.77 12.176C11.942 12.176 11.198 12.02 10.538 11.708C9.878 11.384 9.362 10.928 8.99 10.34C8.618 9.752 8.432 9.074 8.432 8.306C8.432 7.49 8.636 6.776 9.044 6.164C9.452 5.54 10.004 5.06 10.7 4.724C11.396 4.388 12.176 4.22 13.04 4.22ZM13.22 10.34C13.976 10.34 14.588 10.136 15.056 9.728C15.536 9.32 15.776 8.804 15.776 8.18C15.776 7.568 15.542 7.064 15.074 6.668C14.618 6.26 13.982 6.056 13.166 6.056C12.434 6.056 11.84 6.254 11.384 6.65C10.928 7.034 10.7 7.55 10.7 8.198C10.7 8.858 10.928 9.38 11.384 9.764C11.84 10.148 12.452 10.34 13.22 10.34Z" fill="#2F2F2F"/>
<line x1="0.5" y1="23.5" x2="26.5" y2="23.5" stroke="#2F2F2F" stroke-linecap="round"/>
<path d="M9.148 30.4V43H6.808V32.362H4.144V30.4H9.148ZM16.9035 43.18C15.8955 43.18 14.9955 42.928 14.2035 42.424C13.4115 41.908 12.7875 41.164 12.3315 40.192C11.8755 39.208 11.6475 38.044 11.6475 36.7C11.6475 35.356 11.8755 34.198 12.3315 33.226C12.7875 32.242 13.4115 31.498 14.2035 30.994C14.9955 30.478 15.8955 30.22 16.9035 30.22C17.9115 30.22 18.8115 30.478 19.6035 30.994C20.4075 31.498 21.0375 32.242 21.4935 33.226C21.9495 34.198 22.1775 35.356 22.1775 36.7C22.1775 38.044 21.9495 39.208 21.4935 40.192C21.0375 41.164 20.4075 41.908 19.6035 42.424C18.8115 42.928 17.9115 43.18 16.9035 43.18ZM16.9035 41.146C17.8035 41.146 18.5115 40.774 19.0275 40.03C19.5555 39.286 19.8195 38.176 19.8195 36.7C19.8195 35.224 19.5555 34.114 19.0275 33.37C18.5115 32.626 17.8035 32.254 16.9035 32.254C16.0155 32.254 15.3075 32.626 14.7795 33.37C14.2635 34.114 14.0055 35.224 14.0055 36.7C14.0055 38.176 14.2635 39.286 14.7795 40.03C15.3075 40.774 16.0155 41.146 16.9035 41.146Z" fill="#2F2F2F"/>
<path d="M69.296 4.4V5.966L64.4 17H61.898L66.632 6.38H61.682V8.522H59.504V4.4H69.296Z" fill="#2F2F2F"/>
<line x1="51.5" y1="23.5" x2="77.5" y2="23.5" stroke="#2F2F2F" stroke-linecap="round"/>
<path d="M60.148 30.4V43H57.808V32.362H55.144V30.4H60.148ZM67.9035 43.18C66.8955 43.18 65.9955 42.928 65.2035 42.424C64.4115 41.908 63.7875 41.164 63.3315 40.192C62.8755 39.208 62.6475 38.044 62.6475 36.7C62.6475 35.356 62.8755 34.198 63.3315 33.226C63.7875 32.242 64.4115 31.498 65.2035 30.994C65.9955 30.478 66.8955 30.22 67.9035 30.22C68.9115 30.22 69.8115 30.478 70.6035 30.994C71.4075 31.498 72.0375 32.242 72.4935 33.226C72.9495 34.198 73.1775 35.356 73.1775 36.7C73.1775 38.044 72.9495 39.208 72.4935 40.192C72.0375 41.164 71.4075 41.908 70.6035 42.424C69.8115 42.928 68.9115 43.18 67.9035 43.18ZM67.9035 41.146C68.8035 41.146 69.5115 40.774 70.0275 40.03C70.5555 39.286 70.8195 38.176 70.8195 36.7C70.8195 35.224 70.5555 34.114 70.0275 33.37C69.5115 32.626 68.8035 32.254 67.9035 32.254C67.0155 32.254 66.3075 32.626 65.7795 33.37C65.2635 34.114 65.0055 35.224 65.0055 36.7C65.0055 38.176 65.2635 39.286 65.7795 40.03C66.3075 40.774 67.0155 41.146 67.9035 41.146Z" fill="#2F2F2F"/>
<path d="M119.918 15.02V17H110.63V15.434L115.634 10.682C116.198 10.142 116.576 9.674 116.768 9.278C116.972 8.87 117.074 8.468 117.074 8.072C117.074 7.484 116.876 7.034 116.48 6.722C116.084 6.41 115.502 6.254 114.734 6.254C113.45 6.254 112.466 6.692 111.782 7.568L110.144 6.308C110.636 5.648 111.296 5.138 112.124 4.778C112.964 4.406 113.9 4.22 114.932 4.22C116.3 4.22 117.392 4.544 118.208 5.192C119.024 5.84 119.432 6.722 119.432 7.838C119.432 8.522 119.288 9.164 119 9.764C118.712 10.364 118.16 11.048 117.344 11.816L113.978 15.02H119.918Z" fill="#2F2F2F"/>
<line x1="102.5" y1="23.5" x2="128.5" y2="23.5" stroke="#2F2F2F" stroke-linecap="round"/>
<path d="M113.734 35.278C115.51 35.278 116.824 35.626 117.676 36.322C118.528 37.006 118.954 37.942 118.954 39.13C118.954 39.886 118.768 40.57 118.396 41.182C118.024 41.794 117.466 42.28 116.722 42.64C115.978 43 115.06 43.18 113.968 43.18C113.068 43.18 112.198 43.054 111.358 42.802C110.518 42.538 109.81 42.178 109.234 41.722L110.224 39.904C110.692 40.288 111.25 40.594 111.898 40.822C112.558 41.038 113.236 41.146 113.932 41.146C114.76 41.146 115.408 40.978 115.876 40.642C116.356 40.294 116.596 39.82 116.596 39.22C116.596 38.572 116.338 38.086 115.822 37.762C115.318 37.426 114.448 37.258 113.212 37.258H110.17L110.818 30.4H118.216V32.362H112.798L112.528 35.278H113.734Z" fill="#2F2F2F"/>
</svg>
