<svg width="148" height="48" viewBox="0 0 148 48" fill="none" xmlns="http://www.w3.org/2000/svg">
<path d="M135.624 20.808H146.376V22.704H135.624V20.808ZM135.624 26.496H146.376V28.392H135.624V26.496Z" fill="#2F2F2F"/>
<path d="M44.3756 25.56H40.0076V29.856H37.9916V25.56H33.6236V23.664H37.9916V19.344H40.0076V23.664H44.3756V25.56Z" fill="#2F2F2F"/>
<path d="M95.3756 25.56H91.0076V29.856H88.9916V25.56H84.6236V23.664H88.9916V19.344H91.0076V23.664H95.3756V25.56Z" fill="#2F2F2F"/>
<path d="M13.148 4.4V17H10.808V6.362H8.144V4.4H13.148Z" fill="#2F2F2F"/>
<line x1="0.5" y1="23.5" x2="26.5" y2="23.5" stroke="#2F2F2F" stroke-linecap="round"/>
<path d="M11.964 36.376C12.624 36.676 13.128 37.084 13.476 37.6C13.836 38.104 14.016 38.698 14.016 39.382C14.016 40.15 13.8 40.822 13.368 41.398C12.948 41.974 12.348 42.418 11.568 42.73C10.788 43.03 9.882 43.18 8.85 43.18C7.818 43.18 6.912 43.03 6.132 42.73C5.364 42.418 4.77 41.974 4.35 41.398C3.93 40.822 3.72 40.15 3.72 39.382C3.72 38.698 3.894 38.104 4.242 37.6C4.59 37.084 5.088 36.676 5.736 36.376C5.232 36.1 4.842 35.74 4.566 35.296C4.302 34.84 4.17 34.318 4.17 33.73C4.17 33.022 4.362 32.404 4.746 31.876C5.142 31.348 5.694 30.94 6.402 30.652C7.11 30.364 7.926 30.22 8.85 30.22C9.786 30.22 10.608 30.364 11.316 30.652C12.024 30.94 12.576 31.348 12.972 31.876C13.368 32.404 13.566 33.022 13.566 33.73C13.566 34.318 13.428 34.834 13.152 35.278C12.876 35.722 12.48 36.088 11.964 36.376ZM8.85 32.056C8.118 32.056 7.536 32.212 7.104 32.524C6.684 32.836 6.474 33.274 6.474 33.838C6.474 34.378 6.684 34.81 7.104 35.134C7.536 35.446 8.118 35.602 8.85 35.602C9.594 35.602 10.182 35.446 10.614 35.134C11.046 34.81 11.262 34.378 11.262 33.838C11.262 33.274 11.04 32.836 10.596 32.524C10.164 32.212 9.582 32.056 8.85 32.056ZM8.85 41.344C9.714 41.344 10.398 41.164 10.902 40.804C11.406 40.444 11.658 39.946 11.658 39.31C11.658 38.686 11.406 38.194 10.902 37.834C10.398 37.474 9.714 37.294 8.85 37.294C7.986 37.294 7.308 37.474 6.816 37.834C6.324 38.194 6.078 38.686 6.078 39.31C6.078 39.946 6.324 40.444 6.816 40.804C7.308 41.164 7.986 41.344 8.85 41.344Z" fill="#2F2F2F"/>
<path d="M68.918 15.02V17H59.63V15.434L64.634 10.682C65.198 10.142 65.576 9.674 65.768 9.278C65.972 8.87 66.074 8.468 66.074 8.072C66.074 7.484 65.876 7.034 65.48 6.722C65.084 6.41 64.502 6.254 63.734 6.254C62.45 6.254 61.466 6.692 60.782 7.568L59.144 6.308C59.636 5.648 60.296 5.138 61.124 4.778C61.964 4.406 62.9 4.22 63.932 4.22C65.3 4.22 66.392 4.544 67.208 5.192C68.024 5.84 68.432 6.722 68.432 7.838C68.432 8.522 68.288 9.164 68 9.764C67.712 10.364 67.16 11.048 66.344 11.816L62.978 15.02H68.918Z" fill="#2F2F2F"/>
<line x1="51.5" y1="23.5" x2="77.5" y2="23.5" stroke="#2F2F2F" stroke-linecap="round"/>
<path d="M70.024 40.138H67.792V43H65.524V40.138H58.612V38.518L64.822 30.4H67.324L61.474 38.158H65.596V35.62H67.792V38.158H70.024V40.138Z" fill="#2F2F2F"/>
<path d="M116.156 9.602C117.32 9.746 118.208 10.142 118.82 10.79C119.432 11.438 119.738 12.248 119.738 13.22C119.738 13.952 119.552 14.618 119.18 15.218C118.808 15.818 118.244 16.298 117.488 16.658C116.744 17.006 115.832 17.18 114.752 17.18C113.852 17.18 112.982 17.054 112.142 16.802C111.314 16.538 110.606 16.178 110.018 15.722L111.026 13.904C111.482 14.288 112.034 14.594 112.682 14.822C113.342 15.038 114.02 15.146 114.716 15.146C115.544 15.146 116.192 14.978 116.66 14.642C117.14 14.294 117.38 13.826 117.38 13.238C117.38 12.65 117.152 12.194 116.696 11.87C116.252 11.534 115.568 11.366 114.644 11.366H113.492V9.764L116.354 6.362H110.63V4.4H119.216V5.966L116.156 9.602Z" fill="#2F2F2F"/>
<line x1="102.5" y1="23.5" x2="128.5" y2="23.5" stroke="#2F2F2F" stroke-linecap="round"/>
<path d="M121.024 40.138H118.792V43H116.524V40.138H109.612V38.518L115.822 30.4H118.324L112.474 38.158H116.596V35.62H118.792V38.158H121.024V40.138Z" fill="#2F2F2F"/>
</svg>
