<svg width="108" height="48" viewBox="0 0 108 48" fill="none" xmlns="http://www.w3.org/2000/svg">
<path d="M81.0098 21.256C82.6578 21.416 83.9138 21.928 84.7778 22.792C85.6418 23.64 86.0738 24.728 86.0738 26.056C86.0738 27.016 85.8338 27.888 85.3538 28.672C84.8738 29.44 84.1538 30.056 83.1938 30.52C82.2498 30.968 81.0898 31.192 79.7138 31.192C78.5138 31.192 77.3618 31.016 76.2578 30.664C75.1538 30.296 74.2498 29.792 73.5458 29.152L74.6498 27.256C75.2258 27.8 75.9618 28.24 76.8578 28.576C77.7538 28.896 78.7058 29.056 79.7138 29.056C80.9618 29.056 81.9298 28.792 82.6178 28.264C83.3218 27.736 83.6738 27.008 83.6738 26.08C83.6738 25.152 83.3298 24.432 82.6418 23.92C81.9538 23.408 80.9138 23.152 79.5218 23.152H78.1778V21.472L82.4018 16.288H74.3138V14.2H85.4018V15.832L81.0098 21.256ZM95.2135 18.808H105.965V20.704H95.2135V18.808ZM95.2135 24.496H105.965V26.392H95.2135V24.496Z" fill="#2F2F2F"/>
<path d="M62.0624 29.5L59.0024 25.44L55.9024 29.5H53.7624L57.9424 24.08L53.9624 18.9H56.1024L59.0224 22.72L61.9224 18.9H64.0224L60.0224 24.08L64.2424 29.5H62.0624Z" fill="#2F2F2F"/>
<path d="M7.71681 21.256C9.36481 21.416 10.6208 21.928 11.4848 22.792C12.3488 23.64 12.7808 24.728 12.7808 26.056C12.7808 27.016 12.5408 27.888 12.0608 28.672C11.5808 29.44 10.8608 30.056 9.90081 30.52C8.95681 30.968 7.79681 31.192 6.42081 31.192C5.22081 31.192 4.06881 31.016 2.96481 30.664C1.86081 30.296 0.956813 29.792 0.252813 29.152L1.35681 27.256C1.93281 27.8 2.66881 28.24 3.56481 28.576C4.46081 28.896 5.41281 29.056 6.42081 29.056C7.66881 29.056 8.63681 28.792 9.32481 28.264C10.0288 27.736 10.3808 27.008 10.3808 26.08C10.3808 25.152 10.0368 24.432 9.34881 23.92C8.66081 23.408 7.62081 23.152 6.22881 23.152H4.88481V21.472L9.10881 16.288H1.02081V14.2H12.1088V15.832L7.71681 21.256Z" fill="#2F2F2F"/>
<path d="M36.918 15.02V17H27.63V15.434L32.634 10.682C33.198 10.142 33.576 9.674 33.768 9.278C33.972 8.87 34.074 8.468 34.074 8.072C34.074 7.484 33.876 7.034 33.48 6.722C33.084 6.41 32.502 6.254 31.734 6.254C30.45 6.254 29.466 6.692 28.782 7.568L27.144 6.308C27.636 5.648 28.296 5.138 29.124 4.778C29.964 4.406 30.9 4.22 31.932 4.22C33.3 4.22 34.392 4.544 35.208 5.192C36.024 5.84 36.432 6.722 36.432 7.838C36.432 8.522 36.288 9.164 36 9.764C35.712 10.364 35.16 11.048 34.344 11.816L30.978 15.02H36.918Z" fill="#2F2F2F"/>
<line x1="19.5" y1="23.5" x2="45.5" y2="23.5" stroke="#2F2F2F" stroke-linecap="round"/>
<path d="M38.024 40.138H35.792V43H33.524V40.138H26.612V38.518L32.822 30.4H35.324L29.474 38.158H33.596V35.62H35.792V38.158H38.024V40.138Z" fill="#2F2F2F"/>
</svg>
