<svg width="108" height="48" viewBox="0 0 108 48" fill="none" xmlns="http://www.w3.org/2000/svg">
<path d="M86.5131 14.2V15.832L79.7211 31H77.1771L83.8251 16.288H76.1451V19.288H73.8411V14.2H86.5131ZM95.5182 18.808H106.27V20.704H95.5182V18.808ZM95.5182 24.496H106.27V26.392H95.5182V24.496Z" fill="#2F2F2F"/>
<path d="M62.0624 29.5L59.0024 25.44L55.9024 29.5H53.7624L57.9424 24.08L53.9624 18.9H56.1024L59.0224 22.72L61.9224 18.9H64.0224L60.0224 24.08L64.2424 29.5H62.0624Z" fill="#2F2F2F"/>
<path d="M13.0694 28.912V31H0.997375V29.368L7.83738 22.768C8.66938 21.968 9.22938 21.28 9.51738 20.704C9.80538 20.112 9.94938 19.52 9.94938 18.928C9.94938 18.048 9.63738 17.368 9.01338 16.888C8.40538 16.392 7.52538 16.144 6.37338 16.144C4.51738 16.144 3.08538 16.752 2.07738 17.968L0.445375 16.552C1.10138 15.752 1.95738 15.128 3.01338 14.68C4.08538 14.232 5.27738 14.008 6.58938 14.008C8.34938 14.008 9.74938 14.432 10.7894 15.28C11.8294 16.112 12.3494 17.248 12.3494 18.688C12.3494 19.584 12.1574 20.432 11.7734 21.232C11.3894 22.032 10.6614 22.944 9.58938 23.968L4.45338 28.912H13.0694Z" fill="#2F2F2F"/>
<path d="M33.156 9.602C34.32 9.746 35.208 10.142 35.82 10.79C36.432 11.438 36.738 12.248 36.738 13.22C36.738 13.952 36.552 14.618 36.18 15.218C35.808 15.818 35.244 16.298 34.488 16.658C33.744 17.006 32.832 17.18 31.752 17.18C30.852 17.18 29.982 17.054 29.142 16.802C28.314 16.538 27.606 16.178 27.018 15.722L28.026 13.904C28.482 14.288 29.034 14.594 29.682 14.822C30.342 15.038 31.02 15.146 31.716 15.146C32.544 15.146 33.192 14.978 33.66 14.642C34.14 14.294 34.38 13.826 34.38 13.238C34.38 12.65 34.152 12.194 33.696 11.87C33.252 11.534 32.568 11.366 31.644 11.366H30.492V9.764L33.354 6.362H27.63V4.4H36.216V5.966L33.156 9.602Z" fill="#2F2F2F"/>
<line x1="19.5" y1="23.5" x2="45.5" y2="23.5" stroke="#2F2F2F" stroke-linecap="round"/>
<path d="M30.734 35.278C32.51 35.278 33.824 35.626 34.676 36.322C35.528 37.006 35.954 37.942 35.954 39.13C35.954 39.886 35.768 40.57 35.396 41.182C35.024 41.794 34.466 42.28 33.722 42.64C32.978 43 32.06 43.18 30.968 43.18C30.068 43.18 29.198 43.054 28.358 42.802C27.518 42.538 26.81 42.178 26.234 41.722L27.224 39.904C27.692 40.288 28.25 40.594 28.898 40.822C29.558 41.038 30.236 41.146 30.932 41.146C31.76 41.146 32.408 40.978 32.876 40.642C33.356 40.294 33.596 39.82 33.596 39.22C33.596 38.572 33.338 38.086 32.822 37.762C32.318 37.426 31.448 37.258 30.212 37.258H27.17L27.818 30.4H35.216V32.362H29.798L29.528 35.278H30.734Z" fill="#2F2F2F"/>
</svg>
