<svg width="1080" height="263" viewBox="0 0 1080 263" fill="none" xmlns="http://www.w3.org/2000/svg">
<g opacity="0.3">
<path d="M32 222.454C32 219.692 34.2386 217.454 37 217.454H135C137.761 217.454 140 219.692 140 222.454V257.454C140 260.215 137.761 262.454 135 262.454H37C34.2386 262.454 32 260.215 32 257.454V222.454Z" fill="#369CB7"/>
<path d="M37 218.454H135V216.454H37V218.454ZM139 222.454V257.454H141V222.454H139ZM135 261.454H37V263.454H135V261.454ZM33 257.454V222.454H31V257.454H33ZM37 261.454C34.7909 261.454 33 259.663 33 257.454H31C31 260.767 33.6863 263.454 37 263.454V261.454ZM139 257.454C139 259.663 137.209 261.454 135 261.454V263.454C138.314 263.454 141 260.767 141 257.454H139ZM135 218.454C137.209 218.454 139 220.244 139 222.454H141C141 219.14 138.314 216.454 135 216.454V218.454ZM37 216.454C33.6863 216.454 31 219.14 31 222.454H33C33 220.244 34.7909 218.454 37 218.454V216.454Z" fill="#369CB7"/>
</g>
<g opacity="0.3">
<path d="M232 222C232 219.239 234.239 217 237 217H335C337.761 217 340 219.239 340 222V257C340 259.762 337.761 262 335 262H237C234.239 262 232 259.762 232 257V222Z" fill="#369CB7"/>
<path d="M237 218H335V216H237V218ZM339 222V257H341V222H339ZM335 261H237V263H335V261ZM233 257V222H231V257H233ZM237 261C234.791 261 233 259.21 233 257H231C231 260.314 233.686 263 237 263V261ZM339 257C339 259.21 337.209 261 335 261V263C338.314 263 341 260.314 341 257H339ZM335 218C337.209 218 339 219.791 339 222H341C341 218.687 338.314 216 335 216V218ZM237 216C233.686 216 231 218.687 231 222H233C233 219.791 234.791 218 237 218V216Z" fill="#369CB7"/>
</g>
<g opacity="0.3">
<path d="M484 222C484 219.239 486.239 217 489 217H587C589.761 217 592 219.239 592 222V257C592 259.762 589.761 262 587 262H489C486.239 262 484 259.762 484 257V222Z" fill="#369CB7"/>
<path d="M489 218H587V216H489V218ZM591 222V257H593V222H591ZM587 261H489V263H587V261ZM485 257V222H483V257H485ZM489 261C486.791 261 485 259.21 485 257H483C483 260.314 485.686 263 489 263V261ZM591 257C591 259.21 589.209 261 587 261V263C590.314 263 593 260.314 593 257H591ZM587 218C589.209 218 591 219.791 591 222H593C593 218.687 590.314 216 587 216V218ZM489 216C485.686 216 483 218.687 483 222H485C485 219.791 486.791 218 489 218V216Z" fill="#369CB7"/>
</g>
<path d="M0.0318077 142.203C-0.106378 142.738 0.215075 143.284 0.749793 143.422L9.46352 145.674C9.99824 145.812 10.5437 145.49 10.6819 144.956C10.8201 144.421 10.4987 143.875 9.96394 143.737L2.2184 141.736L4.22006 133.99C4.35824 133.455 4.03679 132.91 3.50207 132.772C2.96735 132.633 2.42186 132.955 2.28367 133.49L0.0318077 142.203ZM178.453 38.7037C178.591 38.169 178.27 37.6235 177.735 37.4853L169.021 35.2335C168.487 35.0953 167.941 35.4167 167.803 35.9515C167.665 36.4862 167.986 37.0317 168.521 37.1699L176.266 39.1715L174.265 46.9171C174.127 47.4518 174.448 47.9973 174.983 48.1355C175.518 48.2736 176.063 47.9522 176.201 47.4175L178.453 38.7037ZM1.50769 143.315L177.993 39.3151L176.977 37.592L0.492308 141.592L1.50769 143.315Z" fill="#CC913A"/>
<circle cx="90.2422" cy="89.4535" r="4" fill="#CC913A"/>
<path d="M101.757 83.4204C100.157 80.3664 97.4096 78.073 94.1186 77.0449C90.8277 76.0168 87.2631 76.3382 84.2091 77.9383C81.155 79.5384 78.8617 82.2861 77.8336 85.5771C76.8055 88.868 77.1268 92.4326 78.7269 95.4867L80.6613 94.4732C79.33 91.9322 79.0626 88.9664 79.918 86.2283C80.7734 83.4901 82.6815 81.2039 85.2225 79.8726C87.7635 78.5413 90.7293 78.274 93.4675 79.1294C96.2056 79.9848 98.4918 81.8929 99.8231 84.4339L101.757 83.4204Z" fill="#CC913A"/>
<circle cx="283.342" cy="41.7957" r="4.34218" fill="#004BC4"/>
<path d="M299.888 44.0794L297.312 61.9561L279.436 59.38" stroke="#004BC4" stroke-width="2"/>
<path d="M402.572 60.6445C402.891 61.0954 402.783 61.7195 402.332 62.0383L394.984 67.2338C394.533 67.5526 393.909 67.4455 393.59 66.9945C393.271 66.5436 393.378 65.9195 393.829 65.6007L400.361 60.9825L395.743 54.4501C395.424 53.9991 395.531 53.3751 395.982 53.0563C396.433 52.7375 397.057 52.8446 397.376 53.2955L402.572 60.6445ZM283.328 40.8924L282.342 40.7232L282.512 39.7376L283.497 39.9068L283.328 40.8924ZM263.576 160.136C263.125 160.455 262.501 160.348 262.182 159.897L256.987 152.548C256.668 152.097 256.775 151.473 257.226 151.154C257.677 150.835 258.301 150.942 258.62 151.393L263.238 157.926L269.77 153.307C270.221 152.989 270.845 153.096 271.164 153.547C271.483 153.998 271.376 154.622 270.925 154.941L263.576 160.136ZM401.586 62.2073L283.159 41.878L283.497 39.9068L401.924 60.2362L401.586 62.2073ZM284.314 41.0616L263.984 159.489L262.013 159.15L282.342 40.7232L284.314 41.0616Z" fill="#004BC4"/>
<ellipse cx="757.102" cy="28.0311" rx="5.26582" ry="4.57759" fill="#33C400"/>
<path d="M843.047 164.63C842.908 165.166 842.359 165.51 841.82 165.397L833.033 163.565C832.494 163.453 832.169 162.927 832.307 162.391C832.445 161.855 832.994 161.511 833.533 161.623L841.344 163.252L843.345 155.484C843.483 154.948 844.032 154.604 844.571 154.717C845.11 154.829 845.435 155.355 845.297 155.891L843.047 164.63ZM757.085 26.9828L756.094 26.8499L756.574 24.2103L757.953 26.4401L757.085 26.9828ZM731.725 170.31C731.268 170.642 730.64 170.558 730.323 170.122L725.149 163.02C724.831 162.584 724.945 161.962 725.402 161.629C725.859 161.297 726.487 161.382 726.805 161.817L731.403 168.131L738.026 163.321C738.483 162.989 739.111 163.073 739.429 163.509C739.746 163.944 739.633 164.567 739.176 164.899L731.725 170.31ZM841.203 164.969L756.218 27.5255L757.953 26.4401L842.937 163.884L841.203 164.969ZM758.077 27.1157L732.142 169.654L730.159 169.388L756.094 26.8499L758.077 27.1157Z" fill="#33C400"/>
<path d="M773.677 51.3503C774.212 53.9528 773.536 56.6314 771.799 58.7969C770.062 60.9624 767.405 62.4374 764.414 62.8973C761.423 63.3573 758.342 62.7646 755.849 61.2496C753.356 59.7347 751.655 57.4215 751.12 54.819L753.015 54.5277C753.46 56.693 754.875 58.6176 756.949 59.8781C759.023 61.1386 761.587 61.6317 764.076 61.249C766.564 60.8663 768.775 59.6391 770.22 57.8374C771.665 56.0356 772.227 53.807 771.783 51.6417L773.677 51.3503Z" fill="#33C400"/>
<g opacity="0.3">
<path d="M724 222C724 219.239 726.239 217 729 217H827C829.761 217 832 219.239 832 222V257C832 259.762 829.761 262 827 262H729C726.239 262 724 259.762 724 257V222Z" fill="#369CB7"/>
<path d="M729 218H827V216H729V218ZM831 222V257H833V222H831ZM827 261H729V263H827V261ZM725 257V222H723V257H725ZM729 261C726.791 261 725 259.21 725 257H723C723 260.314 725.686 263 729 263V261ZM831 257C831 259.21 829.209 261 827 261V263C830.314 263 833 260.314 833 257H831ZM827 218C829.209 218 831 219.791 831 222H833C833 218.687 830.314 216 827 216V218ZM729 216C725.686 216 723 218.687 723 222H725C725 219.791 726.791 218 729 218V216Z" fill="#369CB7"/>
</g>
<ellipse cx="946.145" cy="97.1863" rx="3.83415" ry="4.17287" transform="rotate(-100.475 946.145 97.1863)" fill="#C400B0"/>
<path d="M1048.06 19.7161C1048.61 19.7899 1048.98 20.2937 1048.89 20.8412L1047.43 29.7635C1047.35 30.311 1046.83 30.6949 1046.29 30.6211C1045.74 30.5472 1045.37 30.0435 1045.46 29.4959L1046.75 21.565L1038.86 20.495C1038.32 20.4211 1037.95 19.9173 1038.04 19.3698C1038.13 18.8223 1038.64 18.4384 1039.19 18.5122L1048.06 19.7161ZM945.29 97.356L944.349 97.7209L944.094 97.018L944.707 96.5604L945.29 97.356ZM983.589 200.706C983.353 201.212 982.758 201.444 982.258 201.222L974.119 197.618C973.619 197.397 973.405 196.807 973.64 196.301C973.876 195.794 974.471 195.563 974.971 195.785L982.206 198.988L985.613 191.655C985.848 191.149 986.444 190.918 986.944 191.139C987.443 191.36 987.657 191.95 987.422 192.456L983.589 200.706ZM1048.49 21.503L945.873 98.1515L944.707 96.5604L1047.32 19.9119L1048.49 21.503ZM946.231 96.991L983.625 199.941L981.743 200.671L944.349 97.7209L946.231 96.991Z" fill="#C400B0"/>
<path d="M963.099 83.5247C967.138 85.0556 970.353 87.9758 972.093 91.6915C973.832 95.4072 973.964 99.6393 972.462 103.527C970.96 107.415 967.937 110.666 964.008 112.62C960.078 114.574 955.537 115.083 951.309 114.045L951.811 112.436C955.603 113.368 959.675 112.911 963.199 111.159C966.723 109.407 969.434 106.491 970.781 103.004C972.128 99.5179 972.009 95.7227 970.449 92.3906C968.89 89.0584 966.006 86.4396 962.384 85.0667L963.099 83.5247Z" fill="#C400B0"/>
<g opacity="0.3">
<path d="M937 222C937 219.239 939.239 217 942 217H1040C1042.76 217 1045 219.239 1045 222V257C1045 259.762 1042.76 262 1040 262H942C939.239 262 937 259.762 937 257V222Z" fill="#369CB7"/>
<path d="M942 218H1040V216H942V218ZM1044 222V257H1046V222H1044ZM1040 261H942V263H1040V261ZM938 257V222H936V257H938ZM942 261C939.791 261 938 259.21 938 257H936C936 260.314 938.686 263 942 263V261ZM1044 257C1044 259.21 1042.21 261 1040 261V263C1043.31 263 1046 260.314 1046 257H1044ZM1040 218C1042.21 218 1044 219.791 1044 222H1046C1046 218.687 1043.31 216 1040 216V218ZM942 216C938.686 216 936 218.687 936 222H938C938 219.791 939.791 218 942 218V216Z" fill="#369CB7"/>
</g>
<ellipse cx="548.781" cy="153.064" rx="4.01101" ry="3.59003" transform="rotate(142.456 548.781 153.064)" fill="#D7342B"/>
<path d="M441.094 111.891C440.881 111.38 441.114 110.779 441.614 110.549L449.767 106.792C450.267 106.562 450.845 106.789 451.059 107.3C451.272 107.812 451.039 108.413 450.539 108.643L443.292 111.982L446.379 119.385C446.592 119.896 446.359 120.497 445.859 120.728C445.359 120.958 444.78 120.731 444.567 120.22L441.094 111.891ZM549.248 153.653L549.931 154.37L549.471 154.835L548.88 154.603L549.248 153.653ZM629.41 71.4539C629.954 71.453 630.386 71.9069 630.376 72.4675L630.203 81.6038C630.192 82.1644 629.743 82.6196 629.199 82.6204C628.656 82.6213 628.223 82.1675 628.234 81.6068L628.388 73.4857L620.512 73.4979C619.968 73.4987 619.536 73.0449 619.547 72.4843C619.557 71.9236 620.007 71.4684 620.55 71.4676L629.41 71.4539ZM442.368 110.525L549.616 152.704L548.88 154.603L441.632 112.423L442.368 110.525ZM548.566 152.937L628.709 71.7523L630.074 73.1858L549.931 154.37L548.566 152.937Z" fill="#D7342B"/>
<path d="M530.154 146.603C530.076 142.657 531.563 138.658 534.313 135.422C537.064 132.185 541.008 131.539 545.097 130.765C549.187 129.992 553.114 129.149 556.327 131.258C559.54 133.367 561.66 136.683 562.256 140.532L560.608 140.946C560.074 137.494 558.172 134.52 555.291 132.629C552.409 130.738 548.765 130.072 545.097 130.765C541.43 131.459 538.016 133.46 535.55 136.363C533.083 139.266 531.749 142.851 531.82 146.39L530.154 146.603Z" fill="#D7342B"/>
<path d="M33 223C33 220.239 35.2386 218 38 218H136C138.761 218 141 220.239 141 223V258C141 260.761 138.761 263 136 263H38C35.2386 263 33 260.761 33 258V223Z" fill="#369CB7"/>
<path d="M55.5586 246.608C54.7786 246.608 54.0286 246.506 53.3086 246.302C52.5886 246.086 52.0246 245.816 51.6166 245.492L52.3366 244.124C52.7566 244.424 53.2666 244.664 53.8666 244.844C54.4666 245.024 55.0726 245.114 55.6846 245.114C57.1966 245.114 57.9526 244.682 57.9526 243.818C57.9526 243.53 57.8506 243.302 57.6466 243.134C57.4426 242.966 57.1846 242.846 56.8726 242.774C56.5726 242.69 56.1406 242.6 55.5766 242.504C54.8086 242.384 54.1786 242.246 53.6866 242.09C53.2066 241.934 52.7926 241.67 52.4446 241.298C52.0966 240.926 51.9226 240.404 51.9226 239.732C51.9226 238.868 52.2826 238.178 53.0026 237.662C53.7226 237.134 54.6886 236.87 55.9006 236.87C56.5366 236.87 57.1726 236.948 57.8086 237.104C58.4446 237.26 58.9666 237.47 59.3746 237.734L58.6366 239.102C57.8566 238.598 56.9386 238.346 55.8826 238.346C55.1506 238.346 54.5926 238.466 54.2086 238.706C53.8246 238.946 53.6326 239.264 53.6326 239.66C53.6326 239.972 53.7406 240.218 53.9566 240.398C54.1726 240.578 54.4366 240.71 54.7486 240.794C55.0726 240.878 55.5226 240.974 56.0986 241.082C56.8666 241.214 57.4846 241.358 57.9526 241.514C58.4326 241.658 58.8406 241.91 59.1766 242.27C59.5126 242.63 59.6806 243.134 59.6806 243.782C59.6806 244.646 59.3086 245.336 58.5646 245.852C57.8326 246.356 56.8306 246.608 55.5586 246.608ZM67.2041 245.942C66.9521 246.158 66.6401 246.326 66.2681 246.446C65.8961 246.554 65.5121 246.608 65.1161 246.608C64.1561 246.608 63.4121 246.35 62.8841 245.834C62.3561 245.318 62.0921 244.58 62.0921 243.62V238.382H60.4721V236.96H62.0921V234.872H63.8201V236.96H66.5561V238.382H63.8201V243.548C63.8201 244.064 63.9461 244.46 64.1981 244.736C64.4621 245.012 64.8341 245.15 65.3141 245.15C65.8421 245.15 66.2921 245 66.6641 244.7L67.2041 245.942ZM70.9493 238.562C71.2493 238.01 71.6933 237.59 72.2813 237.302C72.8693 237.014 73.5833 236.87 74.4233 236.87V238.544C74.3273 238.532 74.1953 238.526 74.0273 238.526C73.0913 238.526 72.3533 238.808 71.8133 239.372C71.2853 239.924 71.0213 240.716 71.0213 241.748V246.5H69.2933V236.96H70.9493V238.562ZM80.0095 236.87C81.3295 236.87 82.3375 237.194 83.0335 237.842C83.7415 238.49 84.0955 239.456 84.0955 240.74V246.5H82.4575V245.24C82.1695 245.684 81.7555 246.026 81.2155 246.266C80.6875 246.494 80.0575 246.608 79.3255 246.608C78.2575 246.608 77.3995 246.35 76.7515 245.834C76.1155 245.318 75.7975 244.64 75.7975 243.8C75.7975 242.96 76.1035 242.288 76.7155 241.784C77.3275 241.268 78.2995 241.01 79.6315 241.01H82.3675V240.668C82.3675 239.924 82.1515 239.354 81.7195 238.958C81.2875 238.562 80.6515 238.364 79.8115 238.364C79.2475 238.364 78.6955 238.46 78.1555 238.652C77.6155 238.832 77.1595 239.078 76.7875 239.39L76.0675 238.094C76.5595 237.698 77.1475 237.398 77.8315 237.194C78.5155 236.978 79.2415 236.87 80.0095 236.87ZM79.6135 245.276C80.2735 245.276 80.8435 245.132 81.3235 244.844C81.8035 244.544 82.1515 244.124 82.3675 243.584V242.252H79.7035C78.2395 242.252 77.5075 242.744 77.5075 243.728C77.5075 244.208 77.6935 244.586 78.0655 244.862C78.4375 245.138 78.9535 245.276 79.6135 245.276ZM87.2933 236.96H89.0213V246.5H87.2933V236.96ZM88.1573 235.124C87.8213 235.124 87.5393 235.016 87.3113 234.8C87.0953 234.584 86.9873 234.32 86.9873 234.008C86.9873 233.696 87.0953 233.432 87.3113 233.216C87.5393 232.988 87.8213 232.874 88.1573 232.874C88.4933 232.874 88.7693 232.982 88.9853 233.198C89.2133 233.402 89.3273 233.66 89.3273 233.972C89.3273 234.296 89.2133 234.572 88.9853 234.8C88.7693 235.016 88.4933 235.124 88.1573 235.124ZM101.447 236.96V245.204C101.447 246.872 101.033 248.102 100.205 248.894C99.3766 249.698 98.1406 250.1 96.4966 250.1C95.5966 250.1 94.7386 249.974 93.9226 249.722C93.1066 249.482 92.4466 249.134 91.9426 248.678L92.7706 247.346C93.2146 247.73 93.7606 248.03 94.4086 248.246C95.0686 248.474 95.7466 248.588 96.4426 248.588C97.5586 248.588 98.3806 248.324 98.9086 247.796C99.4486 247.268 99.7186 246.464 99.7186 245.384V244.628C99.3106 245.12 98.8066 245.492 98.2066 245.744C97.6186 245.984 96.9766 246.104 96.2806 246.104C95.3686 246.104 94.5406 245.912 93.7966 245.528C93.0646 245.132 92.4886 244.586 92.0686 243.89C91.6486 243.182 91.4386 242.378 91.4386 241.478C91.4386 240.578 91.6486 239.78 92.0686 239.084C92.4886 238.376 93.0646 237.83 93.7966 237.446C94.5406 237.062 95.3686 236.87 96.2806 236.87C97.0006 236.87 97.6666 237.002 98.2786 237.266C98.9026 237.53 99.4126 237.92 99.8086 238.436V236.96H101.447ZM96.4786 244.592C97.1026 244.592 97.6606 244.46 98.1526 244.196C98.6566 243.932 99.0466 243.566 99.3226 243.098C99.6106 242.618 99.7546 242.078 99.7546 241.478C99.7546 240.554 99.4486 239.81 98.8366 239.246C98.2246 238.67 97.4386 238.382 96.4786 238.382C95.5066 238.382 94.7146 238.67 94.1026 239.246C93.4906 239.81 93.1846 240.554 93.1846 241.478C93.1846 242.078 93.3226 242.618 93.5986 243.098C93.8866 243.566 94.2766 243.932 94.7686 244.196C95.2726 244.46 95.8426 244.592 96.4786 244.592ZM109.842 236.87C111.054 236.87 112.014 237.224 112.722 237.932C113.442 238.628 113.802 239.654 113.802 241.01V246.5H112.074V241.208C112.074 240.284 111.852 239.588 111.408 239.12C110.964 238.652 110.328 238.418 109.5 238.418C108.564 238.418 107.826 238.694 107.286 239.246C106.746 239.786 106.476 240.566 106.476 241.586V246.5H104.748V233.144H106.476V238.31C106.836 237.854 107.304 237.5 107.88 237.248C108.468 236.996 109.122 236.87 109.842 236.87ZM122.364 245.942C122.112 246.158 121.8 246.326 121.428 246.446C121.056 246.554 120.672 246.608 120.276 246.608C119.316 246.608 118.572 246.35 118.044 245.834C117.516 245.318 117.252 244.58 117.252 243.62V238.382H115.632V236.96H117.252V234.872H118.98V236.96H121.716V238.382H118.98V243.548C118.98 244.064 119.106 244.46 119.358 244.736C119.622 245.012 119.994 245.15 120.474 245.15C121.002 245.15 121.452 245 121.824 244.7L122.364 245.942Z" fill="white"/>
<path d="M38 219H136V217H38V219ZM140 223V258H142V223H140ZM136 262H38V264H136V262ZM34 258V223H32V258H34ZM38 262C35.7909 262 34 260.209 34 258H32C32 261.314 34.6863 264 38 264V262ZM140 258C140 260.209 138.209 262 136 262V264C139.314 264 142 261.314 142 258H140ZM136 219C138.209 219 140 220.791 140 223H142C142 219.686 139.314 217 136 217V219ZM38 217C34.6863 217 32 219.686 32 223H34C34 220.791 35.7909 219 38 219V217Z" fill="#369CB7"/>
<path d="M231 223C231 220.239 233.239 218 236 218H334C336.761 218 339 220.239 339 223V258C339 260.761 336.761 263 334 263H236C233.239 263 231 260.761 231 258V223Z" fill="#369CB7"/>
<path d="M266.084 238.562C266.384 238.01 266.828 237.59 267.416 237.302C268.004 237.014 268.718 236.87 269.558 236.87V238.544C269.462 238.532 269.33 238.526 269.162 238.526C268.226 238.526 267.488 238.808 266.948 239.372C266.42 239.924 266.156 240.716 266.156 241.748V246.5H264.428V236.96H266.084V238.562ZM271.688 236.96H273.416V246.5H271.688V236.96ZM272.552 235.124C272.216 235.124 271.934 235.016 271.706 234.8C271.49 234.584 271.382 234.32 271.382 234.008C271.382 233.696 271.49 233.432 271.706 233.216C271.934 232.988 272.216 232.874 272.552 232.874C272.888 232.874 273.164 232.982 273.38 233.198C273.608 233.402 273.722 233.66 273.722 233.972C273.722 234.296 273.608 234.572 273.38 234.8C273.164 235.016 272.888 235.124 272.552 235.124ZM285.841 236.96V245.204C285.841 246.872 285.427 248.102 284.599 248.894C283.771 249.698 282.535 250.1 280.891 250.1C279.991 250.1 279.133 249.974 278.317 249.722C277.501 249.482 276.841 249.134 276.337 248.678L277.165 247.346C277.609 247.73 278.155 248.03 278.803 248.246C279.463 248.474 280.141 248.588 280.837 248.588C281.953 248.588 282.775 248.324 283.303 247.796C283.843 247.268 284.113 246.464 284.113 245.384V244.628C283.705 245.12 283.201 245.492 282.601 245.744C282.013 245.984 281.371 246.104 280.675 246.104C279.763 246.104 278.935 245.912 278.191 245.528C277.459 245.132 276.883 244.586 276.463 243.89C276.043 243.182 275.833 242.378 275.833 241.478C275.833 240.578 276.043 239.78 276.463 239.084C276.883 238.376 277.459 237.83 278.191 237.446C278.935 237.062 279.763 236.87 280.675 236.87C281.395 236.87 282.061 237.002 282.673 237.266C283.297 237.53 283.807 237.92 284.203 238.436V236.96H285.841ZM280.873 244.592C281.497 244.592 282.055 244.46 282.547 244.196C283.051 243.932 283.441 243.566 283.717 243.098C284.005 242.618 284.149 242.078 284.149 241.478C284.149 240.554 283.843 239.81 283.231 239.246C282.619 238.67 281.833 238.382 280.873 238.382C279.901 238.382 279.109 238.67 278.497 239.246C277.885 239.81 277.579 240.554 277.579 241.478C277.579 242.078 277.717 242.618 277.993 243.098C278.281 243.566 278.671 243.932 279.163 244.196C279.667 244.46 280.237 244.592 280.873 244.592ZM294.237 236.87C295.449 236.87 296.409 237.224 297.117 237.932C297.837 238.628 298.197 239.654 298.197 241.01V246.5H296.469V241.208C296.469 240.284 296.247 239.588 295.803 239.12C295.359 238.652 294.723 238.418 293.895 238.418C292.959 238.418 292.221 238.694 291.681 239.246C291.141 239.786 290.871 240.566 290.871 241.586V246.5H289.143V233.144H290.871V238.31C291.231 237.854 291.699 237.5 292.275 237.248C292.863 236.996 293.517 236.87 294.237 236.87ZM306.759 245.942C306.507 246.158 306.195 246.326 305.823 246.446C305.451 246.554 305.067 246.608 304.671 246.608C303.711 246.608 302.967 246.35 302.439 245.834C301.911 245.318 301.647 244.58 301.647 243.62V238.382H300.027V236.96H301.647V234.872H303.375V236.96H306.111V238.382H303.375V243.548C303.375 244.064 303.501 244.46 303.753 244.736C304.017 245.012 304.389 245.15 304.869 245.15C305.397 245.15 305.847 245 306.219 244.7L306.759 245.942Z" fill="white"/>
<path d="M236 219H334V217H236V219ZM338 223V258H340V223H338ZM334 262H236V264H334V262ZM232 258V223H230V258H232ZM236 262C233.791 262 232 260.209 232 258H230C230 261.314 232.686 264 236 264V262ZM338 258C338 260.209 336.209 262 334 262V264C337.314 264 340 261.314 340 258H338ZM334 219C336.209 219 338 220.791 338 223H340C340 219.686 337.314 217 334 217V219ZM236 217C232.686 217 230 219.686 230 223H232C232 220.791 233.791 219 236 219V217Z" fill="#369CB7"/>
<path d="M725 223C725 220.239 727.239 218 730 218H828C830.761 218 833 220.239 833 223V258C833 260.761 830.761 263 828 263H730C727.239 263 725 260.761 725 258V223Z" fill="#369CB7"/>
<path d="M758.395 236.87C759.715 236.87 760.723 237.194 761.419 237.842C762.127 238.49 762.481 239.456 762.481 240.74V246.5H760.843V245.24C760.555 245.684 760.141 246.026 759.601 246.266C759.073 246.494 758.443 246.608 757.711 246.608C756.643 246.608 755.785 246.35 755.137 245.834C754.501 245.318 754.183 244.64 754.183 243.8C754.183 242.96 754.489 242.288 755.101 241.784C755.713 241.268 756.685 241.01 758.017 241.01H760.753V240.668C760.753 239.924 760.537 239.354 760.105 238.958C759.673 238.562 759.037 238.364 758.197 238.364C757.633 238.364 757.081 238.46 756.541 238.652C756.001 238.832 755.545 239.078 755.173 239.39L754.453 238.094C754.945 237.698 755.533 237.398 756.217 237.194C756.901 236.978 757.627 236.87 758.395 236.87ZM757.999 245.276C758.659 245.276 759.229 245.132 759.709 244.844C760.189 244.544 760.537 244.124 760.753 243.584V242.252H758.089C756.625 242.252 755.893 242.744 755.893 243.728C755.893 244.208 756.079 244.586 756.451 244.862C756.823 245.138 757.339 245.276 757.999 245.276ZM769.89 246.608C768.918 246.608 768.048 246.398 767.28 245.978C766.524 245.558 765.93 244.982 765.498 244.25C765.066 243.506 764.85 242.666 764.85 241.73C764.85 240.794 765.066 239.96 765.498 239.228C765.93 238.484 766.524 237.908 767.28 237.5C768.048 237.08 768.918 236.87 769.89 236.87C770.754 236.87 771.522 237.044 772.194 237.392C772.878 237.74 773.406 238.244 773.778 238.904L772.464 239.75C772.164 239.294 771.792 238.952 771.348 238.724C770.904 238.496 770.412 238.382 769.872 238.382C769.248 238.382 768.684 238.52 768.18 238.796C767.688 239.072 767.298 239.468 767.01 239.984C766.734 240.488 766.596 241.07 766.596 241.73C766.596 242.402 766.734 242.996 767.01 243.512C767.298 244.016 767.688 244.406 768.18 244.682C768.684 244.958 769.248 245.096 769.872 245.096C770.412 245.096 770.904 244.982 771.348 244.754C771.792 244.526 772.164 244.184 772.464 243.728L773.778 244.556C773.406 245.216 772.878 245.726 772.194 246.086C771.522 246.434 770.754 246.608 769.89 246.608ZM784.907 236.96V246.5H783.269V245.06C782.921 245.552 782.459 245.936 781.883 246.212C781.319 246.476 780.701 246.608 780.029 246.608C778.757 246.608 777.755 246.26 777.023 245.564C776.291 244.856 775.925 243.818 775.925 242.45V236.96H777.653V242.252C777.653 243.176 777.875 243.878 778.319 244.358C778.763 244.826 779.399 245.06 780.227 245.06C781.139 245.06 781.859 244.784 782.387 244.232C782.915 243.68 783.179 242.9 783.179 241.892V236.96H784.907ZM793.561 245.942C793.309 246.158 792.997 246.326 792.625 246.446C792.253 246.554 791.869 246.608 791.473 246.608C790.513 246.608 789.769 246.35 789.241 245.834C788.713 245.318 788.449 244.58 788.449 243.62V238.382H786.829V236.96H788.449V234.872H790.177V236.96H792.913V238.382H790.177V243.548C790.177 244.064 790.303 244.46 790.555 244.736C790.819 245.012 791.191 245.15 791.671 245.15C792.199 245.15 792.649 245 793.021 244.7L793.561 245.942ZM803.955 241.784C803.955 241.916 803.943 242.09 803.919 242.306H796.179C796.287 243.146 796.653 243.824 797.277 244.34C797.913 244.844 798.699 245.096 799.635 245.096C800.775 245.096 801.693 244.712 802.389 243.944L803.343 245.06C802.911 245.564 802.371 245.948 801.723 246.212C801.087 246.476 800.373 246.608 799.581 246.608C798.573 246.608 797.679 246.404 796.899 245.996C796.119 245.576 795.513 244.994 795.081 244.25C794.661 243.506 794.451 242.666 794.451 241.73C794.451 240.806 794.655 239.972 795.063 239.228C795.483 238.484 796.053 237.908 796.773 237.5C797.505 237.08 798.327 236.87 799.239 236.87C800.151 236.87 800.961 237.08 801.669 237.5C802.389 237.908 802.947 238.484 803.343 239.228C803.751 239.972 803.955 240.824 803.955 241.784ZM799.239 238.328C798.411 238.328 797.715 238.58 797.151 239.084C796.599 239.588 796.275 240.248 796.179 241.064H802.299C802.203 240.26 801.873 239.606 801.309 239.102C800.757 238.586 800.067 238.328 799.239 238.328Z" fill="white"/>
<path d="M730 219H828V217H730V219ZM832 223V258H834V223H832ZM828 262H730V264H828V262ZM726 258V223H724V258H726ZM730 262C727.791 262 726 260.209 726 258H724C724 261.314 726.686 264 730 264V262ZM832 258C832 260.209 830.209 262 828 262V264C831.314 264 834 261.314 834 258H832ZM828 219C830.209 219 832 220.791 832 223H834C834 219.686 831.314 217 828 217V219ZM730 217C726.686 217 724 219.686 724 223H726C726 220.791 727.791 219 730 219V217Z" fill="#369CB7"/>
<path d="M486 223C486 220.239 488.239 218 491 218H589C591.761 218 594 220.239 594 223V258C594 260.761 591.761 263 589 263H491C488.239 263 486 260.761 486 258V223Z" fill="#369CB7"/>
<path d="M514.039 246.608C513.091 246.608 512.239 246.398 511.483 245.978C510.727 245.558 510.133 244.982 509.701 244.25C509.281 243.506 509.071 242.666 509.071 241.73C509.071 240.794 509.281 239.96 509.701 239.228C510.133 238.484 510.727 237.908 511.483 237.5C512.239 237.08 513.091 236.87 514.039 236.87C514.987 236.87 515.833 237.08 516.577 237.5C517.333 237.908 517.921 238.484 518.341 239.228C518.773 239.96 518.989 240.794 518.989 241.73C518.989 242.666 518.773 243.506 518.341 244.25C517.921 244.982 517.333 245.558 516.577 245.978C515.833 246.398 514.987 246.608 514.039 246.608ZM514.039 245.096C514.651 245.096 515.197 244.958 515.677 244.682C516.169 244.394 516.553 243.998 516.829 243.494C517.105 242.978 517.243 242.39 517.243 241.73C517.243 241.07 517.105 240.488 516.829 239.984C516.553 239.468 516.169 239.072 515.677 238.796C515.197 238.52 514.651 238.382 514.039 238.382C513.427 238.382 512.875 238.52 512.383 238.796C511.903 239.072 511.519 239.468 511.231 239.984C510.955 240.488 510.817 241.07 510.817 241.73C510.817 242.39 510.955 242.978 511.231 243.494C511.519 243.998 511.903 244.394 512.383 244.682C512.875 244.958 513.427 245.096 514.039 245.096ZM526.437 236.87C527.361 236.87 528.189 237.074 528.921 237.482C529.653 237.89 530.223 238.46 530.631 239.192C531.051 239.924 531.261 240.77 531.261 241.73C531.261 242.69 531.051 243.542 530.631 244.286C530.223 245.018 529.653 245.588 528.921 245.996C528.189 246.404 527.361 246.608 526.437 246.608C525.729 246.608 525.081 246.47 524.493 246.194C523.905 245.918 523.419 245.516 523.035 244.988V246.5H521.379V233.144H523.107V238.4C523.491 237.896 523.971 237.518 524.547 237.266C525.123 237.002 525.753 236.87 526.437 236.87ZM526.293 245.096C526.905 245.096 527.451 244.958 527.931 244.682C528.423 244.394 528.807 243.998 529.083 243.494C529.371 242.978 529.515 242.39 529.515 241.73C529.515 241.07 529.371 240.488 529.083 239.984C528.807 239.468 528.423 239.072 527.931 238.796C527.451 238.52 526.905 238.382 526.293 238.382C525.693 238.382 525.147 238.52 524.655 238.796C524.163 239.072 523.779 239.468 523.503 239.984C523.227 240.488 523.089 241.07 523.089 241.73C523.089 242.39 523.227 242.978 523.503 243.494C523.779 243.998 524.163 244.394 524.655 244.682C525.147 244.958 525.693 245.096 526.293 245.096ZM539.013 245.942C538.761 246.158 538.449 246.326 538.077 246.446C537.705 246.554 537.321 246.608 536.925 246.608C535.965 246.608 535.221 246.35 534.693 245.834C534.165 245.318 533.901 244.58 533.901 243.62V238.382H532.281V236.96H533.901V234.872H535.629V236.96H538.365V238.382H535.629V243.548C535.629 244.064 535.755 244.46 536.007 244.736C536.271 245.012 536.643 245.15 537.123 245.15C537.651 245.15 538.101 245 538.473 244.7L539.013 245.942ZM549.994 236.96V246.5H548.356V245.06C548.008 245.552 547.546 245.936 546.97 246.212C546.406 246.476 545.788 246.608 545.116 246.608C543.844 246.608 542.842 246.26 542.11 245.564C541.378 244.856 541.012 243.818 541.012 242.45V236.96H542.74V242.252C542.74 243.176 542.962 243.878 543.406 244.358C543.85 244.826 544.486 245.06 545.314 245.06C546.226 245.06 546.946 244.784 547.474 244.232C548.002 243.68 548.266 242.9 548.266 241.892V236.96H549.994ZM556.02 246.608C555.24 246.608 554.49 246.506 553.77 246.302C553.05 246.086 552.486 245.816 552.078 245.492L552.798 244.124C553.218 244.424 553.728 244.664 554.328 244.844C554.928 245.024 555.534 245.114 556.146 245.114C557.658 245.114 558.414 244.682 558.414 243.818C558.414 243.53 558.312 243.302 558.108 243.134C557.904 242.966 557.646 242.846 557.334 242.774C557.034 242.69 556.602 242.6 556.038 242.504C555.27 242.384 554.64 242.246 554.148 242.09C553.668 241.934 553.254 241.67 552.906 241.298C552.558 240.926 552.384 240.404 552.384 239.732C552.384 238.868 552.744 238.178 553.464 237.662C554.184 237.134 555.15 236.87 556.362 236.87C556.998 236.87 557.634 236.948 558.27 237.104C558.906 237.26 559.428 237.47 559.836 237.734L559.098 239.102C558.318 238.598 557.4 238.346 556.344 238.346C555.612 238.346 555.054 238.466 554.67 238.706C554.286 238.946 554.094 239.264 554.094 239.66C554.094 239.972 554.202 240.218 554.418 240.398C554.634 240.578 554.898 240.71 555.21 240.794C555.534 240.878 555.984 240.974 556.56 241.082C557.328 241.214 557.946 241.358 558.414 241.514C558.894 241.658 559.302 241.91 559.638 242.27C559.974 242.63 560.142 243.134 560.142 243.782C560.142 244.646 559.77 245.336 559.026 245.852C558.294 246.356 557.292 246.608 556.02 246.608ZM570.923 241.784C570.923 241.916 570.911 242.09 570.887 242.306H563.147C563.255 243.146 563.621 243.824 564.245 244.34C564.881 244.844 565.667 245.096 566.603 245.096C567.743 245.096 568.661 244.712 569.357 243.944L570.311 245.06C569.879 245.564 569.339 245.948 568.691 246.212C568.055 246.476 567.341 246.608 566.549 246.608C565.541 246.608 564.647 246.404 563.867 245.996C563.087 245.576 562.481 244.994 562.049 244.25C561.629 243.506 561.419 242.666 561.419 241.73C561.419 240.806 561.623 239.972 562.031 239.228C562.451 238.484 563.021 237.908 563.741 237.5C564.473 237.08 565.295 236.87 566.207 236.87C567.119 236.87 567.929 237.08 568.637 237.5C569.357 237.908 569.915 238.484 570.311 239.228C570.719 239.972 570.923 240.824 570.923 241.784ZM566.207 238.328C565.379 238.328 564.683 238.58 564.119 239.084C563.567 239.588 563.243 240.248 563.147 241.064H569.267C569.171 240.26 568.841 239.606 568.277 239.102C567.725 238.586 567.035 238.328 566.207 238.328Z" fill="white"/>
<path d="M491 219H589V217H491V219ZM593 223V258H595V223H593ZM589 262H491V264H589V262ZM487 258V223H485V258H487ZM491 262C488.791 262 487 260.209 487 258H485C485 261.314 487.686 264 491 264V262ZM593 258C593 260.209 591.209 262 589 262V264C592.314 264 595 261.314 595 258H593ZM589 219C591.209 219 593 220.791 593 223H595C595 219.686 592.314 217 589 217V219ZM491 217C487.686 217 485 219.686 485 223H487C487 220.791 488.791 219 491 219V217Z" fill="#369CB7"/>
<path d="M937 222C937 219.239 939.239 217 942 217H1040C1042.76 217 1045 219.239 1045 222V257C1045 259.761 1042.76 262 1040 262H942C939.239 262 937 259.761 937 257V222Z" fill="#369CB7"/>
<path d="M965.039 245.608C964.091 245.608 963.239 245.398 962.483 244.978C961.727 244.558 961.133 243.982 960.701 243.25C960.281 242.506 960.071 241.666 960.071 240.73C960.071 239.794 960.281 238.96 960.701 238.228C961.133 237.484 961.727 236.908 962.483 236.5C963.239 236.08 964.091 235.87 965.039 235.87C965.987 235.87 966.833 236.08 967.577 236.5C968.333 236.908 968.921 237.484 969.341 238.228C969.773 238.96 969.989 239.794 969.989 240.73C969.989 241.666 969.773 242.506 969.341 243.25C968.921 243.982 968.333 244.558 967.577 244.978C966.833 245.398 965.987 245.608 965.039 245.608ZM965.039 244.096C965.651 244.096 966.197 243.958 966.677 243.682C967.169 243.394 967.553 242.998 967.829 242.494C968.105 241.978 968.243 241.39 968.243 240.73C968.243 240.07 968.105 239.488 967.829 238.984C967.553 238.468 967.169 238.072 966.677 237.796C966.197 237.52 965.651 237.382 965.039 237.382C964.427 237.382 963.875 237.52 963.383 237.796C962.903 238.072 962.519 238.468 962.231 238.984C961.955 239.488 961.817 240.07 961.817 240.73C961.817 241.39 961.955 241.978 962.231 242.494C962.519 242.998 962.903 243.394 963.383 243.682C963.875 243.958 964.427 244.096 965.039 244.096ZM977.437 235.87C978.361 235.87 979.189 236.074 979.921 236.482C980.653 236.89 981.223 237.46 981.631 238.192C982.051 238.924 982.261 239.77 982.261 240.73C982.261 241.69 982.051 242.542 981.631 243.286C981.223 244.018 980.653 244.588 979.921 244.996C979.189 245.404 978.361 245.608 977.437 245.608C976.729 245.608 976.081 245.47 975.493 245.194C974.905 244.918 974.419 244.516 974.035 243.988V245.5H972.379V232.144H974.107V237.4C974.491 236.896 974.971 236.518 975.547 236.266C976.123 236.002 976.753 235.87 977.437 235.87ZM977.293 244.096C977.905 244.096 978.451 243.958 978.931 243.682C979.423 243.394 979.807 242.998 980.083 242.494C980.371 241.978 980.515 241.39 980.515 240.73C980.515 240.07 980.371 239.488 980.083 238.984C979.807 238.468 979.423 238.072 978.931 237.796C978.451 237.52 977.905 237.382 977.293 237.382C976.693 237.382 976.147 237.52 975.655 237.796C975.163 238.072 974.779 238.468 974.503 238.984C974.227 239.488 974.089 240.07 974.089 240.73C974.089 241.39 974.227 241.978 974.503 242.494C974.779 242.998 975.163 243.394 975.655 243.682C976.147 243.958 976.693 244.096 977.293 244.096ZM990.013 244.942C989.761 245.158 989.449 245.326 989.077 245.446C988.705 245.554 988.321 245.608 987.925 245.608C986.965 245.608 986.221 245.35 985.693 244.834C985.165 244.318 984.901 243.58 984.901 242.62V237.382H983.281V235.96H984.901V233.872H986.629V235.96H989.365V237.382H986.629V242.548C986.629 243.064 986.755 243.46 987.007 243.736C987.271 244.012 987.643 244.15 988.123 244.15C988.651 244.15 989.101 244 989.473 243.7L990.013 244.942ZM1000.99 235.96V245.5H999.356V244.06C999.008 244.552 998.546 244.936 997.97 245.212C997.406 245.476 996.788 245.608 996.116 245.608C994.844 245.608 993.842 245.26 993.11 244.564C992.378 243.856 992.012 242.818 992.012 241.45V235.96H993.74V241.252C993.74 242.176 993.962 242.878 994.406 243.358C994.85 243.826 995.486 244.06 996.314 244.06C997.226 244.06 997.946 243.784 998.474 243.232C999.002 242.68 999.266 241.9 999.266 240.892V235.96H1000.99ZM1007.02 245.608C1006.24 245.608 1005.49 245.506 1004.77 245.302C1004.05 245.086 1003.49 244.816 1003.08 244.492L1003.8 243.124C1004.22 243.424 1004.73 243.664 1005.33 243.844C1005.93 244.024 1006.53 244.114 1007.15 244.114C1008.66 244.114 1009.41 243.682 1009.41 242.818C1009.41 242.53 1009.31 242.302 1009.11 242.134C1008.9 241.966 1008.65 241.846 1008.33 241.774C1008.03 241.69 1007.6 241.6 1007.04 241.504C1006.27 241.384 1005.64 241.246 1005.15 241.09C1004.67 240.934 1004.25 240.67 1003.91 240.298C1003.56 239.926 1003.38 239.404 1003.38 238.732C1003.38 237.868 1003.74 237.178 1004.46 236.662C1005.18 236.134 1006.15 235.87 1007.36 235.87C1008 235.87 1008.63 235.948 1009.27 236.104C1009.91 236.26 1010.43 236.47 1010.84 236.734L1010.1 238.102C1009.32 237.598 1008.4 237.346 1007.34 237.346C1006.61 237.346 1006.05 237.466 1005.67 237.706C1005.29 237.946 1005.09 238.264 1005.09 238.66C1005.09 238.972 1005.2 239.218 1005.42 239.398C1005.63 239.578 1005.9 239.71 1006.21 239.794C1006.53 239.878 1006.98 239.974 1007.56 240.082C1008.33 240.214 1008.95 240.358 1009.41 240.514C1009.89 240.658 1010.3 240.91 1010.64 241.27C1010.97 241.63 1011.14 242.134 1011.14 242.782C1011.14 243.646 1010.77 244.336 1010.03 244.852C1009.29 245.356 1008.29 245.608 1007.02 245.608ZM1021.92 240.784C1021.92 240.916 1021.91 241.09 1021.89 241.306H1014.15C1014.26 242.146 1014.62 242.824 1015.25 243.34C1015.88 243.844 1016.67 244.096 1017.6 244.096C1018.74 244.096 1019.66 243.712 1020.36 242.944L1021.31 244.06C1020.88 244.564 1020.34 244.948 1019.69 245.212C1019.06 245.476 1018.34 245.608 1017.55 245.608C1016.54 245.608 1015.65 245.404 1014.87 244.996C1014.09 244.576 1013.48 243.994 1013.05 243.25C1012.63 242.506 1012.42 241.666 1012.42 240.73C1012.42 239.806 1012.62 238.972 1013.03 238.228C1013.45 237.484 1014.02 236.908 1014.74 236.5C1015.47 236.08 1016.3 235.87 1017.21 235.87C1018.12 235.87 1018.93 236.08 1019.64 236.5C1020.36 236.908 1020.92 237.484 1021.31 238.228C1021.72 238.972 1021.92 239.824 1021.92 240.784ZM1017.21 237.328C1016.38 237.328 1015.68 237.58 1015.12 238.084C1014.57 238.588 1014.24 239.248 1014.15 240.064H1020.27C1020.17 239.26 1019.84 238.606 1019.28 238.102C1018.73 237.586 1018.04 237.328 1017.21 237.328Z" fill="white"/>
<path d="M942 218H1040V216H942V218ZM1044 222V257H1046V222H1044ZM1040 261H942V263H1040V261ZM938 257V222H936V257H938ZM942 261C939.791 261 938 259.209 938 257H936C936 260.314 938.686 263 942 263V261ZM1044 257C1044 259.209 1042.21 261 1040 261V263C1043.31 263 1046 260.314 1046 257H1044ZM1040 218C1042.21 218 1044 219.791 1044 222H1046C1046 218.686 1043.31 216 1040 216V218ZM942 216C938.686 216 936 218.686 936 222H938C938 219.791 939.791 218 942 218V216Z" fill="#369CB7"/>
</svg>
