<svg width="339" height="265" viewBox="0 0 339 265" fill="none" xmlns="http://www.w3.org/2000/svg">
<rect x="0.5" y="0.5" width="169" height="44" fill="#ABE9FF" stroke="#0995E3"/>
<path d="M85.5737 28.18C84.3017 28.18 83.1497 27.904 82.1177 27.352C81.0977 26.788 80.2937 26.014 79.7057 25.03C79.1297 24.046 78.8417 22.936 78.8417 21.7C78.8417 20.464 79.1357 19.354 79.7237 18.37C80.3117 17.386 81.1157 16.618 82.1357 16.066C83.1677 15.502 84.3197 15.22 85.5917 15.22C86.6237 15.22 87.5657 15.4 88.4177 15.76C89.2697 16.12 89.9897 16.642 90.5777 17.326L89.0657 18.748C88.1537 17.764 87.0317 17.272 85.6997 17.272C84.8357 17.272 84.0617 17.464 83.3777 17.848C82.6937 18.22 82.1597 18.742 81.7757 19.414C81.3917 20.086 81.1997 20.848 81.1997 21.7C81.1997 22.552 81.3917 23.314 81.7757 23.986C82.1597 24.658 82.6937 25.186 83.3777 25.57C84.0617 25.942 84.8357 26.128 85.6997 26.128C87.0317 26.128 88.1537 25.63 89.0657 24.634L90.5777 26.074C89.9897 26.758 89.2637 27.28 88.3997 27.64C87.5477 28 86.6057 28.18 85.5737 28.18Z" fill="#2F2F2F"/>
<rect x="169.5" y="0.5" width="169" height="44" fill="#ABE9FF" stroke="#0995E3"/>
<path d="M263.314 15.4L259.138 28H256.654L253.54 18.676L250.372 28H247.87L243.694 15.4H246.124L249.256 24.976L252.514 15.4H254.674L257.86 25.03L261.082 15.4H263.314Z" fill="#2F2F2F"/>
<rect x="0.5" y="44.5" width="169" height="44" stroke="#0995E3"/>
<path d="M86.2203 59.4V72H83.8803V61.362H81.2163V59.4H86.2203Z" fill="#2F2F2F"/>
<rect x="169.5" y="44.5" width="169" height="44" stroke="#0995E3"/>
<path d="M259.416 69.138H257.184V72H254.916V69.138H248.004V67.518L254.214 59.4H256.716L250.866 67.158H254.988V64.62H257.184V67.158H259.416V69.138Z" fill="#2F2F2F"/>
<rect x="0.5" y="88.5" width="169" height="44" stroke="#0995E3"/>
<path d="M89.1797 114.02V116H79.8917V114.434L84.8957 109.682C85.4597 109.142 85.8377 108.674 86.0297 108.278C86.2337 107.87 86.3357 107.468 86.3357 107.072C86.3357 106.484 86.1377 106.034 85.7417 105.722C85.3457 105.41 84.7637 105.254 83.9957 105.254C82.7117 105.254 81.7277 105.692 81.0437 106.568L79.4057 105.308C79.8977 104.648 80.5577 104.138 81.3857 103.778C82.2257 103.406 83.1617 103.22 84.1937 103.22C85.5617 103.22 86.6537 103.544 87.4697 104.192C88.2857 104.84 88.6937 105.722 88.6937 106.838C88.6937 107.522 88.5497 108.164 88.2617 108.764C87.9737 109.364 87.4217 110.048 86.6057 110.816L83.2397 114.02H89.1797Z" fill="#2F2F2F"/>
<rect x="169.5" y="88.5" width="169" height="44" stroke="#0995E3"/>
<rect x="234.5" y="95.5" width="39" height="29" rx="4.5" fill="white"/>
<path d="M253.628 108.422C255.428 108.422 256.748 108.764 257.588 109.448C258.44 110.12 258.866 111.044 258.866 112.22C258.866 112.964 258.686 113.636 258.326 114.236C257.978 114.824 257.444 115.292 256.724 115.64C256.016 115.976 255.14 116.144 254.096 116.144C253.208 116.144 252.35 116.012 251.522 115.748C250.694 115.472 250.01 115.094 249.47 114.614L250.298 113.192C250.73 113.6 251.282 113.93 251.954 114.182C252.626 114.422 253.334 114.542 254.078 114.542C255.026 114.542 255.758 114.344 256.274 113.948C256.802 113.54 257.066 112.988 257.066 112.292C257.066 111.536 256.778 110.966 256.202 110.582C255.626 110.186 254.642 109.988 253.25 109.988H250.388L251.054 103.4H258.164V104.966H252.566L252.224 108.422H253.628Z" fill="#2F2F2F"/>
<rect x="234.5" y="95.5" width="39" height="29" rx="4.5" stroke="#0995E3"/>
<rect x="0.5" y="132.5" width="169" height="44" stroke="#0995E3"/>
<path d="M85.4177 152.602C86.5817 152.746 87.4697 153.142 88.0817 153.79C88.6937 154.438 88.9997 155.248 88.9997 156.22C88.9997 156.952 88.8137 157.618 88.4417 158.218C88.0697 158.818 87.5057 159.298 86.7497 159.658C86.0057 160.006 85.0937 160.18 84.0137 160.18C83.1137 160.18 82.2437 160.054 81.4037 159.802C80.5757 159.538 79.8677 159.178 79.2797 158.722L80.2877 156.904C80.7437 157.288 81.2957 157.594 81.9437 157.822C82.6037 158.038 83.2817 158.146 83.9777 158.146C84.8057 158.146 85.4537 157.978 85.9217 157.642C86.4017 157.294 86.6417 156.826 86.6417 156.238C86.6417 155.65 86.4137 155.194 85.9577 154.87C85.5137 154.534 84.8297 154.366 83.9057 154.366H82.7537V152.764L85.6157 149.362H79.8917V147.4H88.4777V148.966L85.4177 152.602Z" fill="#2F2F2F"/>
<rect x="169.5" y="132.5" width="169" height="44" stroke="#0995E3"/>
<rect x="234.5" y="139.5" width="39" height="29" rx="4.5" fill="white"/>
<path d="M255.191 152.35C256.019 152.35 256.757 152.506 257.405 152.818C258.065 153.13 258.581 153.58 258.953 154.168C259.325 154.744 259.511 155.41 259.511 156.166C259.511 156.958 259.313 157.654 258.917 158.254C258.533 158.854 257.999 159.322 257.315 159.658C256.643 159.982 255.887 160.144 255.047 160.144C253.355 160.144 252.047 159.598 251.123 158.506C250.211 157.414 249.755 155.866 249.755 153.862C249.755 152.458 250.001 151.264 250.493 150.28C250.997 149.284 251.693 148.534 252.581 148.03C253.481 147.514 254.525 147.256 255.713 147.256C256.325 147.256 256.901 147.322 257.441 147.454C257.981 147.574 258.449 147.754 258.845 147.994L258.161 149.398C257.561 149.002 256.757 148.804 255.749 148.804C254.441 148.804 253.415 149.212 252.671 150.028C251.927 150.832 251.555 152.008 251.555 153.556C251.555 153.748 251.561 153.898 251.573 154.006C251.933 153.466 252.425 153.058 253.049 152.782C253.685 152.494 254.399 152.35 255.191 152.35ZM254.975 158.686C255.803 158.686 256.475 158.464 256.991 158.02C257.507 157.576 257.765 156.982 257.765 156.238C257.765 155.494 257.501 154.906 256.973 154.474C256.457 154.03 255.761 153.808 254.885 153.808C254.321 153.808 253.817 153.916 253.373 154.132C252.941 154.348 252.599 154.642 252.347 155.014C252.107 155.386 251.987 155.8 251.987 156.256C251.987 156.7 252.101 157.108 252.329 157.48C252.569 157.84 252.911 158.134 253.355 158.362C253.811 158.578 254.351 158.686 254.975 158.686Z" fill="#2F2F2F"/>
<rect x="234.5" y="139.5" width="39" height="29" rx="4.5" stroke="#0995E3"/>
<rect x="0.5" y="176.5" width="169" height="44" stroke="#0995E3"/>
<path d="M90.4156 201.138H88.1836V204H85.9156V201.138H79.0036V199.518L85.2136 191.4H87.7156L81.8656 199.158H85.9876V196.62H88.1836V199.158H90.4156V201.138Z" fill="#2F2F2F"/>
<rect x="169.5" y="176.5" width="169" height="44" stroke="#0995E3"/>
<rect x="234.5" y="183.5" width="39" height="29" rx="4.5" fill="white"/>
<path d="M258.786 191.4V192.624L253.692 204H251.784L256.77 192.966H251.01V195.216H249.282V191.4H258.786Z" fill="#2F2F2F"/>
<rect x="234.5" y="183.5" width="39" height="29" rx="4.5" stroke="#0995E3"/>
<rect x="0.5" y="220.5" width="169" height="44" stroke="#0995E3"/>
<path d="M87.0929 241.376C87.7529 241.676 88.2569 242.084 88.6049 242.6C88.9649 243.104 89.1449 243.698 89.1449 244.382C89.1449 245.15 88.9289 245.822 88.4969 246.398C88.0769 246.974 87.4769 247.418 86.6969 247.73C85.9169 248.03 85.0109 248.18 83.9789 248.18C82.9469 248.18 82.0409 248.03 81.2609 247.73C80.4929 247.418 79.8989 246.974 79.4789 246.398C79.0589 245.822 78.8489 245.15 78.8489 244.382C78.8489 243.698 79.0229 243.104 79.3709 242.6C79.7189 242.084 80.2169 241.676 80.8649 241.376C80.3609 241.1 79.9709 240.74 79.6949 240.296C79.4309 239.84 79.2989 239.318 79.2989 238.73C79.2989 238.022 79.4909 237.404 79.8749 236.876C80.2709 236.348 80.8229 235.94 81.5309 235.652C82.2389 235.364 83.0549 235.22 83.9789 235.22C84.9149 235.22 85.7369 235.364 86.4449 235.652C87.1529 235.94 87.7049 236.348 88.1009 236.876C88.4969 237.404 88.6949 238.022 88.6949 238.73C88.6949 239.318 88.5569 239.834 88.2809 240.278C88.0049 240.722 87.6089 241.088 87.0929 241.376ZM83.9789 237.056C83.2469 237.056 82.6649 237.212 82.2329 237.524C81.8129 237.836 81.6029 238.274 81.6029 238.838C81.6029 239.378 81.8129 239.81 82.2329 240.134C82.6649 240.446 83.2469 240.602 83.9789 240.602C84.7229 240.602 85.3109 240.446 85.7429 240.134C86.1749 239.81 86.3909 239.378 86.3909 238.838C86.3909 238.274 86.1689 237.836 85.7249 237.524C85.2929 237.212 84.7109 237.056 83.9789 237.056ZM83.9789 246.344C84.8429 246.344 85.5269 246.164 86.0309 245.804C86.5349 245.444 86.7869 244.946 86.7869 244.31C86.7869 243.686 86.5349 243.194 86.0309 242.834C85.5269 242.474 84.8429 242.294 83.9789 242.294C83.1149 242.294 82.4369 242.474 81.9449 242.834C81.4529 243.194 81.2069 243.686 81.2069 244.31C81.2069 244.946 81.4529 245.444 81.9449 245.804C82.4369 246.164 83.1149 246.344 83.9789 246.344Z" fill="#2F2F2F"/>
<rect x="169.5" y="220.5" width="169" height="44" stroke="#0995E3"/>
<rect x="234.5" y="227.5" width="39" height="29" rx="4.5" fill="white"/>
<path d="M251.416 235.4V248H249.634V236.966H246.79V235.4H251.416ZM259.608 235.4V248H257.826V236.966H254.982V235.4H259.608Z" fill="#2F2F2F"/>
<rect x="234.5" y="227.5" width="39" height="29" rx="4.5" stroke="#0995E3"/>
</svg>
