<svg width="1080" height="217" viewBox="0 0 1080 217" fill="none" xmlns="http://www.w3.org/2000/svg">
<path d="M0.0318077 142.2C-0.106378 142.735 0.215075 143.281 0.749793 143.419L9.46352 145.671C9.99824 145.809 10.5437 145.487 10.6819 144.953C10.8201 144.418 10.4987 143.873 9.96394 143.734L2.2184 141.733L4.22006 133.987C4.35824 133.452 4.03679 132.907 3.50207 132.769C2.96735 132.631 2.42186 132.952 2.28367 133.487L0.0318077 142.2ZM178.453 38.7009C178.591 38.1662 178.27 37.6207 177.735 37.4825L169.021 35.2306C168.487 35.0924 167.941 35.4139 167.803 35.9486C167.665 36.4833 167.986 37.0288 168.521 37.167L176.266 39.1687L174.265 46.9142C174.127 47.4489 174.448 47.9944 174.983 48.1326C175.518 48.2708 176.063 47.9493 176.201 47.4146L178.453 38.7009ZM1.50769 143.312L177.993 39.3122L176.977 37.5891L0.492308 141.589L1.50769 143.312Z" fill="#CC913A"/>
<circle cx="90.2422" cy="89.4507" r="4" fill="#CC913A"/>
<path d="M101.757 83.4175C100.157 80.3635 97.4096 78.0702 94.1186 77.0421C90.8277 76.014 87.2631 76.3353 84.2091 77.9354C81.155 79.5355 78.8617 82.2833 77.8336 85.5742C76.8055 88.8652 77.1268 92.4298 78.7269 95.4838L80.6613 94.4704C79.33 91.9293 79.0626 88.9635 79.918 86.2254C80.7734 83.4873 82.6815 81.2011 85.2225 79.8698C87.7635 78.5385 90.7293 78.2711 93.4675 79.1265C96.2056 79.9819 98.4918 81.89 99.8231 84.431L101.757 83.4175Z" fill="#CC913A"/>
<circle cx="283.342" cy="41.7929" r="4.34218" fill="#004BC4"/>
<path d="M299.888 44.0766L297.312 61.9532L279.436 59.3771" stroke="#004BC4" stroke-width="2"/>
<path d="M402.572 60.6416C402.891 61.0926 402.783 61.7166 402.332 62.0354L394.984 67.231C394.533 67.5498 393.909 67.4427 393.59 66.9917C393.271 66.5407 393.378 65.9167 393.829 65.5979L400.361 60.9796L395.743 54.4472C395.424 53.9963 395.531 53.3722 395.982 53.0534C396.433 52.7346 397.057 52.8417 397.376 53.2927L402.572 60.6416ZM283.328 40.8895L282.342 40.7203L282.512 39.7347L283.497 39.9039L283.328 40.8895ZM263.576 160.133C263.125 160.452 262.501 160.345 262.182 159.894L256.987 152.545C256.668 152.094 256.775 151.47 257.226 151.151C257.677 150.832 258.301 150.939 258.62 151.39L263.238 157.923L269.77 153.305C270.221 152.986 270.845 153.093 271.164 153.544C271.483 153.995 271.376 154.619 270.925 154.938L263.576 160.133ZM401.586 62.2045L283.159 41.8751L283.497 39.9039L401.924 60.2333L401.586 62.2045ZM284.314 41.0587L263.984 159.486L262.013 159.147L282.342 40.7203L284.314 41.0587Z" fill="#004BC4"/>
<ellipse cx="757.102" cy="28.0283" rx="5.26582" ry="4.57759" fill="#33C400"/>
<path d="M843.047 164.627C842.908 165.163 842.359 165.507 841.82 165.395L833.033 163.563C832.494 163.45 832.169 162.924 832.307 162.388C832.445 161.852 832.994 161.508 833.533 161.621L841.344 163.249L843.345 155.481C843.483 154.945 844.032 154.601 844.571 154.714C845.11 154.826 845.435 155.352 845.297 155.888L843.047 164.627ZM757.085 26.98L756.094 26.8471L756.574 24.2075L757.953 26.4373L757.085 26.98ZM731.725 170.307C731.268 170.639 730.64 170.555 730.323 170.119L725.149 163.017C724.831 162.581 724.945 161.959 725.402 161.627C725.859 161.295 726.487 161.379 726.805 161.815L731.403 168.128L738.026 163.318C738.483 162.986 739.111 163.07 739.429 163.506C739.746 163.942 739.633 164.564 739.176 164.896L731.725 170.307ZM841.203 164.966L756.218 27.5226L757.953 26.4373L842.937 163.881L841.203 164.966ZM758.077 27.1128L732.142 169.651L730.159 169.385L756.094 26.8471L758.077 27.1128Z" fill="#33C400"/>
<path d="M773.677 51.3475C774.212 53.95 773.536 56.6286 771.799 58.7941C770.062 60.9595 767.405 62.4345 764.414 62.8945C761.423 63.3545 758.342 62.7618 755.849 61.2468C753.356 59.7318 751.655 57.4186 751.12 54.8162L753.015 54.5248C753.46 56.6901 754.875 58.6147 756.949 59.8752C759.023 61.1357 761.587 61.6288 764.076 61.2461C766.564 60.8634 768.775 59.6362 770.22 57.8345C771.665 56.0328 772.227 53.8041 771.783 51.6388L773.677 51.3475Z" fill="#33C400"/>
<ellipse cx="946.145" cy="97.1833" rx="3.83415" ry="4.17287" transform="rotate(-100.475 946.145 97.1833)" fill="#C400B0"/>
<path d="M1048.06 19.713C1048.61 19.7869 1048.98 20.2906 1048.89 20.8381L1047.43 29.7604C1047.35 30.3079 1046.83 30.6918 1046.29 30.618C1045.74 30.5441 1045.37 30.0404 1045.46 29.4929L1046.75 21.5619L1038.86 20.4919C1038.32 20.418 1037.95 19.9143 1038.04 19.3667C1038.13 18.8192 1038.64 18.4353 1039.19 18.5091L1048.06 19.713ZM945.29 97.3529L944.349 97.7179L944.094 97.0149L944.707 96.5573L945.29 97.3529ZM983.589 200.703C983.353 201.209 982.758 201.44 982.258 201.219L974.119 197.615C973.619 197.394 973.405 196.804 973.64 196.298C973.876 195.791 974.471 195.56 974.971 195.781L982.206 198.985L985.613 191.652C985.848 191.146 986.444 190.915 986.944 191.136C987.443 191.357 987.657 191.947 987.422 192.453L983.589 200.703ZM1048.49 21.4999L945.873 98.1484L944.707 96.5573L1047.32 19.9088L1048.49 21.4999ZM946.231 96.9879L983.625 199.938L981.743 200.668L944.349 97.7179L946.231 96.9879Z" fill="#C400B0"/>
<path d="M963.099 83.5216C967.138 85.0525 970.353 87.9727 972.093 91.6884C973.832 95.4041 973.964 99.6362 972.462 103.524C970.96 107.412 967.937 110.663 964.008 112.617C960.078 114.571 955.537 115.08 951.309 114.041L951.811 112.433C955.603 113.365 959.675 112.908 963.199 111.156C966.723 109.403 969.434 106.488 970.781 103.001C972.128 99.5149 972.009 95.7196 970.449 92.3875C968.89 89.0553 966.006 86.4365 962.384 85.0636L963.099 83.5216Z" fill="#C400B0"/>
<ellipse cx="548.781" cy="153.061" rx="4.01101" ry="3.59003" transform="rotate(142.456 548.781 153.061)" fill="#D7342B"/>
<path d="M441.094 111.889C440.881 111.377 441.114 110.776 441.614 110.546L449.767 106.79C450.267 106.559 450.845 106.787 451.059 107.298C451.272 107.809 451.039 108.41 450.539 108.64L443.292 111.979L446.379 119.382C446.592 119.893 446.359 120.495 445.859 120.725C445.359 120.956 444.78 120.728 444.567 120.217L441.094 111.889ZM549.248 153.651L549.931 154.367L549.471 154.833L548.88 154.6L549.248 153.651ZM629.41 71.451C629.954 71.4502 630.386 71.904 630.376 72.4647L630.203 81.6009C630.192 82.1616 629.743 82.6168 629.199 82.6176C628.656 82.6184 628.223 82.1646 628.234 81.604L628.388 73.4828L620.512 73.495C619.968 73.4959 619.536 73.0421 619.547 72.4814C619.557 71.9208 620.007 71.4656 620.55 71.4647L629.41 71.451ZM442.368 110.522L549.616 152.701L548.88 154.6L441.632 112.421L442.368 110.522ZM548.566 152.934L628.709 71.7494L630.074 73.1829L549.931 154.367L548.566 152.934Z" fill="#D7342B"/>
<path d="M530.154 146.6C530.076 142.654 531.563 138.656 534.313 135.419C537.064 132.182 541.008 131.536 545.097 130.762C549.187 129.989 553.114 129.147 556.327 131.255C559.54 133.364 561.66 136.68 562.256 140.529L560.608 140.943C560.074 137.491 558.172 134.518 555.291 132.626C552.409 130.735 548.765 130.069 545.097 130.762C541.43 131.456 538.016 133.457 535.55 136.36C533.083 139.263 531.749 142.848 531.82 146.388L530.154 146.6Z" fill="#D7342B"/>
</svg>
