<svg width="430" height="45" viewBox="0 0 430 45" fill="none" xmlns="http://www.w3.org/2000/svg">
<rect x="0.5" y="0.5" width="69" height="44" rx="4.5" fill="white"/>
<path d="M24.5955 15.756C26.2875 15.756 27.5895 16.302 28.5015 17.394C29.4255 18.486 29.8875 20.034 29.8875 22.038C29.8875 23.442 29.6355 24.642 29.1315 25.638C28.6395 26.622 27.9435 27.372 27.0435 27.888C26.1555 28.392 25.1175 28.644 23.9295 28.644C23.3175 28.644 22.7415 28.584 22.2015 28.464C21.6615 28.332 21.1935 28.146 20.7975 27.906L21.4815 26.502C22.0935 26.898 22.9035 27.096 23.9115 27.096C25.2195 27.096 26.2395 26.694 26.9715 25.89C27.7155 25.074 28.0875 23.892 28.0875 22.344V21.894C27.7275 22.434 27.2295 22.848 26.5935 23.136C25.9575 23.412 25.2435 23.55 24.4515 23.55C23.6235 23.55 22.8795 23.394 22.2195 23.082C21.5715 22.77 21.0615 22.326 20.6895 21.75C20.3295 21.162 20.1495 20.49 20.1495 19.734C20.1495 18.942 20.3415 18.246 20.7255 17.646C21.1215 17.046 21.6555 16.584 22.3275 16.26C22.9995 15.924 23.7555 15.756 24.5955 15.756ZM24.7575 22.092C25.3215 22.092 25.8255 21.984 26.2695 21.768C26.7135 21.552 27.0555 21.258 27.2955 20.886C27.5475 20.514 27.6735 20.1 27.6735 19.644C27.6735 19.2 27.5535 18.798 27.3135 18.438C27.0855 18.066 26.7435 17.772 26.2875 17.556C25.8435 17.328 25.3035 17.214 24.6675 17.214C23.8395 17.214 23.1675 17.436 22.6515 17.88C22.1475 18.324 21.8955 18.918 21.8955 19.662C21.8955 20.406 22.1535 21 22.6695 21.444C23.1855 21.876 23.8815 22.092 24.7575 22.092ZM36.7669 28.644C35.7709 28.644 34.8829 28.392 34.1029 27.888C33.3349 27.372 32.7289 26.628 32.2849 25.656C31.8409 24.684 31.6189 23.532 31.6189 22.2C31.6189 20.868 31.8409 19.716 32.2849 18.744C32.7289 17.772 33.3349 17.034 34.1029 16.53C34.8829 16.014 35.7709 15.756 36.7669 15.756C37.7509 15.756 38.6269 16.014 39.3949 16.53C40.1749 17.034 40.7869 17.772 41.2309 18.744C41.6749 19.716 41.8969 20.868 41.8969 22.2C41.8969 23.532 41.6749 24.684 41.2309 25.656C40.7869 26.628 40.1749 27.372 39.3949 27.888C38.6269 28.392 37.7509 28.644 36.7669 28.644ZM36.7669 27.042C37.7749 27.042 38.5789 26.628 39.1789 25.8C39.7909 24.972 40.0969 23.772 40.0969 22.2C40.0969 20.628 39.7909 19.428 39.1789 18.6C38.5789 17.772 37.7749 17.358 36.7669 17.358C35.7469 17.358 34.9309 17.772 34.3189 18.6C33.7189 19.428 33.4189 20.628 33.4189 22.2C33.4189 23.772 33.7189 24.972 34.3189 25.8C34.9309 26.628 35.7469 27.042 36.7669 27.042ZM46.5755 21.642C46.0355 21.642 45.5375 21.516 45.0815 21.264C44.6375 21 44.2835 20.646 44.0195 20.202C43.7555 19.746 43.6235 19.248 43.6235 18.708C43.6235 18.18 43.7555 17.694 44.0195 17.25C44.2835 16.794 44.6375 16.44 45.0815 16.188C45.5375 15.924 46.0355 15.792 46.5755 15.792C47.1155 15.792 47.6135 15.924 48.0695 16.188C48.5255 16.44 48.8855 16.794 49.1495 17.25C49.4135 17.694 49.5455 18.18 49.5455 18.708C49.5455 19.248 49.4135 19.746 49.1495 20.202C48.8855 20.646 48.5255 21 48.0695 21.264C47.6135 21.516 47.1155 21.642 46.5755 21.642ZM46.5755 20.67C47.1275 20.67 47.5895 20.484 47.9615 20.112C48.3335 19.728 48.5195 19.26 48.5195 18.708C48.5195 18.156 48.3335 17.694 47.9615 17.322C47.5895 16.938 47.1275 16.746 46.5755 16.746C46.0235 16.746 45.5615 16.932 45.1895 17.304C44.8175 17.676 44.6315 18.144 44.6315 18.708C44.6315 19.272 44.8175 19.74 45.1895 20.112C45.5615 20.484 46.0235 20.67 46.5755 20.67Z" fill="black"/>
<rect x="0.5" y="0.5" width="69" height="44" rx="4.5" stroke="#2F2F2F"/>
<rect x="90.5" y="0.5" width="69" height="44" rx="4.5" fill="#48B736"/>
<path d="M115.946 20.85C116.774 20.85 117.512 21.006 118.16 21.318C118.82 21.63 119.336 22.08 119.708 22.668C120.08 23.244 120.266 23.91 120.266 24.666C120.266 25.458 120.068 26.154 119.672 26.754C119.288 27.354 118.754 27.822 118.07 28.158C117.398 28.482 116.642 28.644 115.802 28.644C114.11 28.644 112.802 28.098 111.878 27.006C110.966 25.914 110.51 24.366 110.51 22.362C110.51 20.958 110.756 19.764 111.248 18.78C111.752 17.784 112.448 17.034 113.336 16.53C114.236 16.014 115.28 15.756 116.468 15.756C117.08 15.756 117.656 15.822 118.196 15.954C118.736 16.074 119.204 16.254 119.6 16.494L118.916 17.898C118.316 17.502 117.512 17.304 116.504 17.304C115.196 17.304 114.17 17.712 113.426 18.528C112.682 19.332 112.31 20.508 112.31 22.056C112.31 22.248 112.316 22.398 112.328 22.506C112.688 21.966 113.18 21.558 113.804 21.282C114.44 20.994 115.154 20.85 115.946 20.85ZM115.73 27.186C116.558 27.186 117.23 26.964 117.746 26.52C118.262 26.076 118.52 25.482 118.52 24.738C118.52 23.994 118.256 23.406 117.728 22.974C117.212 22.53 116.516 22.308 115.64 22.308C115.076 22.308 114.572 22.416 114.128 22.632C113.696 22.848 113.354 23.142 113.102 23.514C112.862 23.886 112.742 24.3 112.742 24.756C112.742 25.2 112.856 25.608 113.084 25.98C113.324 26.34 113.666 26.634 114.11 26.862C114.566 27.078 115.106 27.186 115.73 27.186ZM126.767 28.644C125.771 28.644 124.883 28.392 124.103 27.888C123.335 27.372 122.729 26.628 122.285 25.656C121.841 24.684 121.619 23.532 121.619 22.2C121.619 20.868 121.841 19.716 122.285 18.744C122.729 17.772 123.335 17.034 124.103 16.53C124.883 16.014 125.771 15.756 126.767 15.756C127.751 15.756 128.627 16.014 129.395 16.53C130.175 17.034 130.787 17.772 131.231 18.744C131.675 19.716 131.897 20.868 131.897 22.2C131.897 23.532 131.675 24.684 131.231 25.656C130.787 26.628 130.175 27.372 129.395 27.888C128.627 28.392 127.751 28.644 126.767 28.644ZM126.767 27.042C127.775 27.042 128.579 26.628 129.179 25.8C129.791 24.972 130.097 23.772 130.097 22.2C130.097 20.628 129.791 19.428 129.179 18.6C128.579 17.772 127.775 17.358 126.767 17.358C125.747 17.358 124.931 17.772 124.319 18.6C123.719 19.428 123.419 20.628 123.419 22.2C123.419 23.772 123.719 24.972 124.319 25.8C124.931 26.628 125.747 27.042 126.767 27.042ZM136.575 21.642C136.035 21.642 135.537 21.516 135.081 21.264C134.637 21 134.283 20.646 134.019 20.202C133.755 19.746 133.623 19.248 133.623 18.708C133.623 18.18 133.755 17.694 134.019 17.25C134.283 16.794 134.637 16.44 135.081 16.188C135.537 15.924 136.035 15.792 136.575 15.792C137.115 15.792 137.613 15.924 138.069 16.188C138.525 16.44 138.885 16.794 139.149 17.25C139.413 17.694 139.545 18.18 139.545 18.708C139.545 19.248 139.413 19.746 139.149 20.202C138.885 20.646 138.525 21 138.069 21.264C137.613 21.516 137.115 21.642 136.575 21.642ZM136.575 20.67C137.127 20.67 137.589 20.484 137.961 20.112C138.333 19.728 138.519 19.26 138.519 18.708C138.519 18.156 138.333 17.694 137.961 17.322C137.589 16.938 137.127 16.746 136.575 16.746C136.023 16.746 135.561 16.932 135.189 17.304C134.817 17.676 134.631 18.144 134.631 18.708C134.631 19.272 134.817 19.74 135.189 20.112C135.561 20.484 136.023 20.67 136.575 20.67Z" fill="white"/>
<rect x="90.5" y="0.5" width="69" height="44" rx="4.5" stroke="#48B736"/>
<rect x="180.5" y="0.5" width="69" height="44" rx="4.5" fill="white"/>
<path d="M207.606 15.9V28.5H205.824V17.466H202.98V15.9H207.606ZM213.962 20.922C215.762 20.922 217.082 21.264 217.922 21.948C218.774 22.62 219.2 23.544 219.2 24.72C219.2 25.464 219.02 26.136 218.66 26.736C218.312 27.324 217.778 27.792 217.058 28.14C216.35 28.476 215.474 28.644 214.43 28.644C213.542 28.644 212.684 28.512 211.856 28.248C211.028 27.972 210.344 27.594 209.804 27.114L210.632 25.692C211.064 26.1 211.616 26.43 212.288 26.682C212.96 26.922 213.668 27.042 214.412 27.042C215.36 27.042 216.092 26.844 216.608 26.448C217.136 26.04 217.4 25.488 217.4 24.792C217.4 24.036 217.112 23.466 216.536 23.082C215.96 22.686 214.976 22.488 213.584 22.488H210.722L211.388 15.9H218.498V17.466H212.9L212.558 20.922H213.962ZM223.385 21.642C222.845 21.642 222.347 21.516 221.891 21.264C221.447 21 221.093 20.646 220.829 20.202C220.565 19.746 220.433 19.248 220.433 18.708C220.433 18.18 220.565 17.694 220.829 17.25C221.093 16.794 221.447 16.44 221.891 16.188C222.347 15.924 222.845 15.792 223.385 15.792C223.925 15.792 224.423 15.924 224.879 16.188C225.335 16.44 225.695 16.794 225.959 17.25C226.223 17.694 226.355 18.18 226.355 18.708C226.355 19.248 226.223 19.746 225.959 20.202C225.695 20.646 225.335 21 224.879 21.264C224.423 21.516 223.925 21.642 223.385 21.642ZM223.385 20.67C223.937 20.67 224.399 20.484 224.771 20.112C225.143 19.728 225.329 19.26 225.329 18.708C225.329 18.156 225.143 17.694 224.771 17.322C224.399 16.938 223.937 16.746 223.385 16.746C222.833 16.746 222.371 16.932 221.999 17.304C221.627 17.676 221.441 18.144 221.441 18.708C221.441 19.272 221.627 19.74 221.999 20.112C222.371 20.484 222.833 20.67 223.385 20.67Z" fill="black"/>
<rect x="180.5" y="0.5" width="69" height="44" rx="4.5" stroke="#2F2F2F"/>
<rect x="270.5" y="0.5" width="69" height="44" rx="4.5" fill="white"/>
<path d="M295.562 15.756C297.254 15.756 298.556 16.302 299.468 17.394C300.392 18.486 300.854 20.034 300.854 22.038C300.854 23.442 300.602 24.642 300.098 25.638C299.606 26.622 298.91 27.372 298.01 27.888C297.122 28.392 296.084 28.644 294.896 28.644C294.284 28.644 293.708 28.584 293.168 28.464C292.628 28.332 292.16 28.146 291.764 27.906L292.448 26.502C293.06 26.898 293.87 27.096 294.878 27.096C296.186 27.096 297.206 26.694 297.938 25.89C298.682 25.074 299.054 23.892 299.054 22.344V21.894C298.694 22.434 298.196 22.848 297.56 23.136C296.924 23.412 296.21 23.55 295.418 23.55C294.59 23.55 293.846 23.394 293.186 23.082C292.538 22.77 292.028 22.326 291.656 21.75C291.296 21.162 291.116 20.49 291.116 19.734C291.116 18.942 291.308 18.246 291.692 17.646C292.088 17.046 292.622 16.584 293.294 16.26C293.966 15.924 294.722 15.756 295.562 15.756ZM295.724 22.092C296.288 22.092 296.792 21.984 297.236 21.768C297.68 21.552 298.022 21.258 298.262 20.886C298.514 20.514 298.64 20.1 298.64 19.644C298.64 19.2 298.52 18.798 298.28 18.438C298.052 18.066 297.71 17.772 297.254 17.556C296.81 17.328 296.27 17.214 295.634 17.214C294.806 17.214 294.134 17.436 293.618 17.88C293.114 18.324 292.862 18.918 292.862 19.662C292.862 20.406 293.12 21 293.636 21.444C294.152 21.876 294.848 22.092 295.724 22.092ZM306.186 20.922C307.986 20.922 309.306 21.264 310.146 21.948C310.998 22.62 311.424 23.544 311.424 24.72C311.424 25.464 311.244 26.136 310.884 26.736C310.536 27.324 310.002 27.792 309.282 28.14C308.574 28.476 307.698 28.644 306.654 28.644C305.766 28.644 304.908 28.512 304.08 28.248C303.252 27.972 302.568 27.594 302.028 27.114L302.856 25.692C303.288 26.1 303.84 26.43 304.512 26.682C305.184 26.922 305.892 27.042 306.636 27.042C307.584 27.042 308.316 26.844 308.832 26.448C309.36 26.04 309.624 25.488 309.624 24.792C309.624 24.036 309.336 23.466 308.76 23.082C308.184 22.686 307.2 22.488 305.808 22.488H302.946L303.612 15.9H310.722V17.466H305.124L304.782 20.922H306.186ZM315.609 21.642C315.069 21.642 314.571 21.516 314.115 21.264C313.671 21 313.317 20.646 313.053 20.202C312.789 19.746 312.657 19.248 312.657 18.708C312.657 18.18 312.789 17.694 313.053 17.25C313.317 16.794 313.671 16.44 314.115 16.188C314.571 15.924 315.069 15.792 315.609 15.792C316.149 15.792 316.647 15.924 317.103 16.188C317.559 16.44 317.919 16.794 318.183 17.25C318.447 17.694 318.579 18.18 318.579 18.708C318.579 19.248 318.447 19.746 318.183 20.202C317.919 20.646 317.559 21 317.103 21.264C316.647 21.516 316.149 21.642 315.609 21.642ZM315.609 20.67C316.161 20.67 316.623 20.484 316.995 20.112C317.367 19.728 317.553 19.26 317.553 18.708C317.553 18.156 317.367 17.694 316.995 17.322C316.623 16.938 316.161 16.746 315.609 16.746C315.057 16.746 314.595 16.932 314.223 17.304C313.851 17.676 313.665 18.144 313.665 18.708C313.665 19.272 313.851 19.74 314.223 20.112C314.595 20.484 315.057 20.67 315.609 20.67Z" fill="black"/>
<rect x="270.5" y="0.5" width="69" height="44" rx="4.5" stroke="#2F2F2F"/>
<rect x="360.5" y="0.5" width="69" height="44" rx="4.5" fill="white"/>
<path d="M390.631 20.922C392.431 20.922 393.751 21.264 394.591 21.948C395.443 22.62 395.869 23.544 395.869 24.72C395.869 25.464 395.689 26.136 395.329 26.736C394.981 27.324 394.447 27.792 393.727 28.14C393.019 28.476 392.143 28.644 391.099 28.644C390.211 28.644 389.353 28.512 388.525 28.248C387.697 27.972 387.013 27.594 386.473 27.114L387.301 25.692C387.733 26.1 388.285 26.43 388.957 26.682C389.629 26.922 390.337 27.042 391.081 27.042C392.029 27.042 392.761 26.844 393.277 26.448C393.805 26.04 394.069 25.488 394.069 24.792C394.069 24.036 393.781 23.466 393.205 23.082C392.629 22.686 391.645 22.488 390.253 22.488H387.391L388.057 15.9H395.167V17.466H389.569L389.227 20.922H390.631ZM400.054 21.642C399.514 21.642 399.016 21.516 398.56 21.264C398.116 21 397.762 20.646 397.498 20.202C397.234 19.746 397.102 19.248 397.102 18.708C397.102 18.18 397.234 17.694 397.498 17.25C397.762 16.794 398.116 16.44 398.56 16.188C399.016 15.924 399.514 15.792 400.054 15.792C400.594 15.792 401.092 15.924 401.548 16.188C402.004 16.44 402.364 16.794 402.628 17.25C402.892 17.694 403.024 18.18 403.024 18.708C403.024 19.248 402.892 19.746 402.628 20.202C402.364 20.646 402.004 21 401.548 21.264C401.092 21.516 400.594 21.642 400.054 21.642ZM400.054 20.67C400.606 20.67 401.068 20.484 401.44 20.112C401.812 19.728 401.998 19.26 401.998 18.708C401.998 18.156 401.812 17.694 401.44 17.322C401.068 16.938 400.606 16.746 400.054 16.746C399.502 16.746 399.04 16.932 398.668 17.304C398.296 17.676 398.11 18.144 398.11 18.708C398.11 19.272 398.296 19.74 398.668 20.112C399.04 20.484 399.502 20.67 400.054 20.67Z" fill="black"/>
<rect x="360.5" y="0.5" width="69" height="44" rx="4.5" stroke="#2F2F2F"/>
</svg>
