<svg width="218" height="201" viewBox="0 0 218 201" fill="none" xmlns="http://www.w3.org/2000/svg">
<circle cx="5.5" cy="189.5" r="5.5" fill="#0593A1"/>
<path d="M89.2407 0.283845C90.0141 -0.0128778 90.8817 0.373597 91.1784 1.14706L96.0138 13.7514C96.3105 14.5249 95.924 15.3924 95.1506 15.6891C94.3771 15.9859 93.5096 15.5994 93.2128 14.8259L88.9147 3.62207L77.7109 7.92019C76.9374 8.21692 76.0698 7.83044 75.7731 7.05698C75.4764 6.28351 75.8629 5.41595 76.6363 5.11923L89.2407 0.283845ZM5.99255 189.766V191.266H3.68224L4.62236 189.155L5.99255 189.766ZM216.917 188.705C217.503 189.291 217.503 190.241 216.917 190.826L207.371 200.372C206.786 200.958 205.836 200.958 205.25 200.372C204.664 199.786 204.664 198.837 205.25 198.251L213.735 189.766L205.25 181.28C204.664 180.695 204.664 179.745 205.25 179.159C205.836 178.573 206.786 178.573 207.371 179.159L216.917 188.705ZM91.1481 2.29471L7.36275 190.376L4.62236 189.155L88.4077 1.07394L91.1481 2.29471ZM5.99255 188.266L215.857 188.266V191.266L5.99255 191.266V188.266Z" fill="#0593A1"/>
</svg>
