<svg width="462" height="45" viewBox="0 0 462 45" fill="none" xmlns="http://www.w3.org/2000/svg">
<path d="M0 5C0 2.23858 2.23858 0 5 0H97C99.7614 0 102 2.23858 102 5V40C102 42.7614 99.7614 45 97 45H5C2.23858 45 0 42.7614 0 40V5Z" fill="#369CB7"/>
<path d="M19.7933 15.144V28.5H18.1373V26.988C17.7533 27.516 17.2673 27.918 16.6793 28.194C16.0913 28.47 15.4433 28.608 14.7353 28.608C13.8113 28.608 12.9833 28.404 12.2513 27.996C11.5193 27.588 10.9433 27.018 10.5233 26.286C10.1153 25.542 9.91127 24.69 9.91127 23.73C9.91127 22.77 10.1153 21.924 10.5233 21.192C10.9433 20.46 11.5193 19.89 12.2513 19.482C12.9833 19.074 13.8113 18.87 14.7353 18.87C15.4193 18.87 16.0493 19.002 16.6253 19.266C17.2013 19.518 17.6813 19.896 18.0653 20.4V15.144H19.7933ZM14.8793 27.096C15.4793 27.096 16.0253 26.958 16.5173 26.682C17.0093 26.394 17.3933 25.998 17.6693 25.494C17.9453 24.978 18.0833 24.39 18.0833 23.73C18.0833 23.07 17.9453 22.488 17.6693 21.984C17.3933 21.468 17.0093 21.072 16.5173 20.796C16.0253 20.52 15.4793 20.382 14.8793 20.382C14.2673 20.382 13.7153 20.52 13.2233 20.796C12.7433 21.072 12.3593 21.468 12.0713 21.984C11.7953 22.488 11.6573 23.07 11.6573 23.73C11.6573 24.39 11.7953 24.978 12.0713 25.494C12.3593 25.998 12.7433 26.394 13.2233 26.682C13.7153 26.958 14.2673 27.096 14.8793 27.096ZM23.0628 18.96H24.7908V28.5H23.0628V18.96ZM23.9268 17.124C23.5908 17.124 23.3088 17.016 23.0808 16.8C22.8648 16.584 22.7568 16.32 22.7568 16.008C22.7568 15.696 22.8648 15.432 23.0808 15.216C23.3088 14.988 23.5908 14.874 23.9268 14.874C24.2628 14.874 24.5388 14.982 24.7548 15.198C24.9828 15.402 25.0968 15.66 25.0968 15.972C25.0968 16.296 24.9828 16.572 24.7548 16.8C24.5388 17.016 24.2628 17.124 23.9268 17.124ZM31.5641 18.87C32.8841 18.87 33.8921 19.194 34.5881 19.842C35.2961 20.49 35.6501 21.456 35.6501 22.74V28.5H34.0121V27.24C33.7241 27.684 33.3101 28.026 32.7701 28.266C32.2421 28.494 31.6121 28.608 30.8801 28.608C29.8121 28.608 28.9541 28.35 28.3061 27.834C27.6701 27.318 27.3521 26.64 27.3521 25.8C27.3521 24.96 27.6581 24.288 28.2701 23.784C28.8821 23.268 29.8541 23.01 31.1861 23.01H33.9221V22.668C33.9221 21.924 33.7061 21.354 33.2741 20.958C32.8421 20.562 32.2061 20.364 31.3661 20.364C30.8021 20.364 30.2501 20.46 29.7101 20.652C29.1701 20.832 28.7141 21.078 28.3421 21.39L27.6221 20.094C28.1141 19.698 28.7021 19.398 29.3861 19.194C30.0701 18.978 30.7961 18.87 31.5641 18.87ZM31.1681 27.276C31.8281 27.276 32.3981 27.132 32.8781 26.844C33.3581 26.544 33.7061 26.124 33.9221 25.584V24.252H31.2581C29.7941 24.252 29.0621 24.744 29.0621 25.728C29.0621 26.208 29.2481 26.586 29.6201 26.862C29.9921 27.138 30.5081 27.276 31.1681 27.276ZM50.782 18.87C51.982 18.87 52.93 19.218 53.626 19.914C54.334 20.61 54.688 21.642 54.688 23.01V28.5H52.96V23.208C52.96 22.284 52.744 21.588 52.312 21.12C51.892 20.652 51.286 20.418 50.494 20.418C49.618 20.418 48.922 20.694 48.406 21.246C47.89 21.786 47.632 22.566 47.632 23.586V28.5H45.904V23.208C45.904 22.284 45.688 21.588 45.256 21.12C44.836 20.652 44.23 20.418 43.438 20.418C42.562 20.418 41.866 20.694 41.35 21.246C40.834 21.786 40.576 22.566 40.576 23.586V28.5H38.848V18.96H40.504V20.382C40.852 19.89 41.308 19.518 41.872 19.266C42.436 19.002 43.078 18.87 43.798 18.87C44.542 18.87 45.202 19.02 45.778 19.32C46.354 19.62 46.798 20.058 47.11 20.634C47.47 20.082 47.968 19.65 48.604 19.338C49.252 19.026 49.978 18.87 50.782 18.87ZM66.5422 23.784C66.5422 23.916 66.5302 24.09 66.5062 24.306H58.7662C58.8742 25.146 59.2402 25.824 59.8642 26.34C60.5002 26.844 61.2862 27.096 62.2222 27.096C63.3622 27.096 64.2802 26.712 64.9762 25.944L65.9302 27.06C65.4982 27.564 64.9582 27.948 64.3102 28.212C63.6742 28.476 62.9602 28.608 62.1682 28.608C61.1602 28.608 60.2662 28.404 59.4862 27.996C58.7062 27.576 58.1002 26.994 57.6682 26.25C57.2482 25.506 57.0382 24.666 57.0382 23.73C57.0382 22.806 57.2422 21.972 57.6502 21.228C58.0702 20.484 58.6402 19.908 59.3602 19.5C60.0922 19.08 60.9142 18.87 61.8262 18.87C62.7382 18.87 63.5482 19.08 64.2562 19.5C64.9762 19.908 65.5342 20.484 65.9302 21.228C66.3382 21.972 66.5422 22.824 66.5422 23.784ZM61.8262 20.328C60.9982 20.328 60.3022 20.58 59.7382 21.084C59.1862 21.588 58.8622 22.248 58.7662 23.064H64.8862C64.7902 22.26 64.4602 21.606 63.8962 21.102C63.3442 20.586 62.6542 20.328 61.8262 20.328ZM74.3057 27.942C74.0537 28.158 73.7417 28.326 73.3697 28.446C72.9977 28.554 72.6137 28.608 72.2177 28.608C71.2577 28.608 70.5137 28.35 69.9857 27.834C69.4577 27.318 69.1937 26.58 69.1937 25.62V20.382H67.5737V18.96H69.1937V16.872H70.9217V18.96H73.6577V20.382H70.9217V25.548C70.9217 26.064 71.0477 26.46 71.2997 26.736C71.5637 27.012 71.9357 27.15 72.4157 27.15C72.9437 27.15 73.3937 27 73.7657 26.7L74.3057 27.942ZM84.7004 23.784C84.7004 23.916 84.6884 24.09 84.6644 24.306H76.9244C77.0324 25.146 77.3984 25.824 78.0224 26.34C78.6584 26.844 79.4444 27.096 80.3804 27.096C81.5204 27.096 82.4384 26.712 83.1344 25.944L84.0884 27.06C83.6564 27.564 83.1164 27.948 82.4684 28.212C81.8324 28.476 81.1184 28.608 80.3264 28.608C79.3184 28.608 78.4244 28.404 77.6444 27.996C76.8644 27.576 76.2584 26.994 75.8264 26.25C75.4064 25.506 75.1964 24.666 75.1964 23.73C75.1964 22.806 75.4004 21.972 75.8084 21.228C76.2284 20.484 76.7984 19.908 77.5184 19.5C78.2504 19.08 79.0724 18.87 79.9844 18.87C80.8964 18.87 81.7064 19.08 82.4144 19.5C83.1344 19.908 83.6924 20.484 84.0884 21.228C84.4964 21.972 84.7004 22.824 84.7004 23.784ZM79.9844 20.328C79.1564 20.328 78.4604 20.58 77.8964 21.084C77.3444 21.588 77.0204 22.248 76.9244 23.064H83.0444C82.9484 22.26 82.6184 21.606 82.0544 21.102C81.5024 20.586 80.8124 20.328 79.9844 20.328ZM88.7559 20.562C89.0559 20.01 89.4999 19.59 90.0879 19.302C90.6759 19.014 91.3899 18.87 92.2299 18.87V20.544C92.1339 20.532 92.0019 20.526 91.8339 20.526C90.8979 20.526 90.1599 20.808 89.6199 21.372C89.0919 21.924 88.8279 22.716 88.8279 23.748V28.5H87.0999V18.96H88.7559V20.562Z" fill="white"/>
<path d="M5 1H97V-1H5V1ZM101 5V40H103V5H101ZM97 44H5V46H97V44ZM1 40V5H-1V40H1ZM5 44C2.79086 44 1 42.2091 1 40H-1C-1 43.3137 1.6863 46 5 46V44ZM101 40C101 42.2091 99.2091 44 97 44V46C100.314 46 103 43.3137 103 40H101ZM97 1C99.2091 1 101 2.79086 101 5H103C103 1.68629 100.314 -1 97 -1V1ZM5 -1C1.68629 -1 -1 1.68629 -1 5H1C1 2.79086 2.79086 1 5 1V-1Z" fill="#369CB7"/>
<path d="M132 5C132 2.23858 134.239 0 137 0H217C219.761 0 222 2.23858 222 5V40C222 42.7614 219.761 45 217 45H137C134.239 45 132 42.7614 132 40V5Z" fill="#369CB7"/>
<path d="M156.13 28.608C155.158 28.608 154.288 28.398 153.52 27.978C152.764 27.558 152.17 26.982 151.738 26.25C151.306 25.506 151.09 24.666 151.09 23.73C151.09 22.794 151.306 21.96 151.738 21.228C152.17 20.484 152.764 19.908 153.52 19.5C154.288 19.08 155.158 18.87 156.13 18.87C156.994 18.87 157.762 19.044 158.434 19.392C159.118 19.74 159.646 20.244 160.018 20.904L158.704 21.75C158.404 21.294 158.032 20.952 157.588 20.724C157.144 20.496 156.652 20.382 156.112 20.382C155.488 20.382 154.924 20.52 154.42 20.796C153.928 21.072 153.538 21.468 153.25 21.984C152.974 22.488 152.836 23.07 152.836 23.73C152.836 24.402 152.974 24.996 153.25 25.512C153.538 26.016 153.928 26.406 154.42 26.682C154.924 26.958 155.488 27.096 156.112 27.096C156.652 27.096 157.144 26.982 157.588 26.754C158.032 26.526 158.404 26.184 158.704 25.728L160.018 26.556C159.646 27.216 159.118 27.726 158.434 28.086C157.762 28.434 156.994 28.608 156.13 28.608ZM167.226 18.87C168.438 18.87 169.398 19.224 170.106 19.932C170.826 20.628 171.186 21.654 171.186 23.01V28.5H169.458V23.208C169.458 22.284 169.236 21.588 168.792 21.12C168.348 20.652 167.712 20.418 166.884 20.418C165.948 20.418 165.21 20.694 164.67 21.246C164.13 21.786 163.86 22.566 163.86 23.586V28.5H162.132V15.144H163.86V20.31C164.22 19.854 164.688 19.5 165.264 19.248C165.852 18.996 166.506 18.87 167.226 18.87ZM178.523 28.608C177.575 28.608 176.723 28.398 175.967 27.978C175.211 27.558 174.617 26.982 174.185 26.25C173.765 25.506 173.555 24.666 173.555 23.73C173.555 22.794 173.765 21.96 174.185 21.228C174.617 20.484 175.211 19.908 175.967 19.5C176.723 19.08 177.575 18.87 178.523 18.87C179.471 18.87 180.317 19.08 181.061 19.5C181.817 19.908 182.405 20.484 182.825 21.228C183.257 21.96 183.473 22.794 183.473 23.73C183.473 24.666 183.257 25.506 182.825 26.25C182.405 26.982 181.817 27.558 181.061 27.978C180.317 28.398 179.471 28.608 178.523 28.608ZM178.523 27.096C179.135 27.096 179.681 26.958 180.161 26.682C180.653 26.394 181.037 25.998 181.313 25.494C181.589 24.978 181.727 24.39 181.727 23.73C181.727 23.07 181.589 22.488 181.313 21.984C181.037 21.468 180.653 21.072 180.161 20.796C179.681 20.52 179.135 20.382 178.523 20.382C177.911 20.382 177.359 20.52 176.867 20.796C176.387 21.072 176.003 21.468 175.715 21.984C175.439 22.488 175.301 23.07 175.301 23.73C175.301 24.39 175.439 24.978 175.715 25.494C176.003 25.998 176.387 26.394 176.867 26.682C177.359 26.958 177.911 27.096 178.523 27.096ZM187.519 20.562C187.819 20.01 188.263 19.59 188.851 19.302C189.439 19.014 190.153 18.87 190.993 18.87V20.544C190.897 20.532 190.765 20.526 190.597 20.526C189.661 20.526 188.923 20.808 188.383 21.372C187.855 21.924 187.591 22.716 187.591 23.748V28.5H185.863V18.96H187.519V20.562ZM202.034 15.144V28.5H200.378V26.988C199.994 27.516 199.508 27.918 198.92 28.194C198.332 28.47 197.684 28.608 196.976 28.608C196.052 28.608 195.224 28.404 194.492 27.996C193.76 27.588 193.184 27.018 192.764 26.286C192.356 25.542 192.152 24.69 192.152 23.73C192.152 22.77 192.356 21.924 192.764 21.192C193.184 20.46 193.76 19.89 194.492 19.482C195.224 19.074 196.052 18.87 196.976 18.87C197.66 18.87 198.29 19.002 198.866 19.266C199.442 19.518 199.922 19.896 200.306 20.4V15.144H202.034ZM197.12 27.096C197.72 27.096 198.266 26.958 198.758 26.682C199.25 26.394 199.634 25.998 199.91 25.494C200.186 24.978 200.324 24.39 200.324 23.73C200.324 23.07 200.186 22.488 199.91 21.984C199.634 21.468 199.25 21.072 198.758 20.796C198.266 20.52 197.72 20.382 197.12 20.382C196.508 20.382 195.956 20.52 195.464 20.796C194.984 21.072 194.6 21.468 194.312 21.984C194.036 22.488 193.898 23.07 193.898 23.73C193.898 24.39 194.036 24.978 194.312 25.494C194.6 25.998 194.984 26.394 195.464 26.682C195.956 26.958 196.508 27.096 197.12 27.096Z" fill="white"/>
<path d="M137 1H217V-1H137V1ZM221 5V40H223V5H221ZM217 44H137V46H217V44ZM133 40V5H131V40H133ZM137 44C134.791 44 133 42.2091 133 40H131C131 43.3137 133.686 46 137 46V44ZM221 40C221 42.2091 219.209 44 217 44V46C220.314 46 223 43.3137 223 40H221ZM217 1C219.209 1 221 2.79086 221 5H223C223 1.68629 220.314 -1 217 -1V1ZM137 -1C133.686 -1 131 1.68629 131 5H133C133 2.79086 134.791 1 137 1V-1Z" fill="#369CB7"/>
<path d="M252 5C252 2.23858 254.239 0 257 0H337C339.761 0 342 2.23858 342 5V40C342 42.7614 339.761 45 337 45H257C254.239 45 252 42.7614 252 40V5Z" fill="#369CB7"/>
<path d="M272.02 20.562C272.32 20.01 272.764 19.59 273.352 19.302C273.94 19.014 274.654 18.87 275.494 18.87V20.544C275.398 20.532 275.266 20.526 275.098 20.526C274.162 20.526 273.424 20.808 272.884 21.372C272.356 21.924 272.092 22.716 272.092 23.748V28.5H270.364V18.96H272.02V20.562ZM281.08 18.87C282.4 18.87 283.408 19.194 284.104 19.842C284.812 20.49 285.166 21.456 285.166 22.74V28.5H283.528V27.24C283.24 27.684 282.826 28.026 282.286 28.266C281.758 28.494 281.128 28.608 280.396 28.608C279.328 28.608 278.47 28.35 277.822 27.834C277.186 27.318 276.868 26.64 276.868 25.8C276.868 24.96 277.174 24.288 277.786 23.784C278.398 23.268 279.37 23.01 280.702 23.01H283.438V22.668C283.438 21.924 283.222 21.354 282.79 20.958C282.358 20.562 281.722 20.364 280.882 20.364C280.318 20.364 279.766 20.46 279.226 20.652C278.686 20.832 278.23 21.078 277.858 21.39L277.138 20.094C277.63 19.698 278.218 19.398 278.902 19.194C279.586 18.978 280.312 18.87 281.08 18.87ZM280.684 27.276C281.344 27.276 281.914 27.132 282.394 26.844C282.874 26.544 283.222 26.124 283.438 25.584V24.252H280.774C279.31 24.252 278.578 24.744 278.578 25.728C278.578 26.208 278.764 26.586 279.136 26.862C279.508 27.138 280.024 27.276 280.684 27.276ZM297.416 15.144V28.5H295.76V26.988C295.376 27.516 294.89 27.918 294.302 28.194C293.714 28.47 293.066 28.608 292.358 28.608C291.434 28.608 290.606 28.404 289.874 27.996C289.142 27.588 288.566 27.018 288.146 26.286C287.738 25.542 287.534 24.69 287.534 23.73C287.534 22.77 287.738 21.924 288.146 21.192C288.566 20.46 289.142 19.89 289.874 19.482C290.606 19.074 291.434 18.87 292.358 18.87C293.042 18.87 293.672 19.002 294.248 19.266C294.824 19.518 295.304 19.896 295.688 20.4V15.144H297.416ZM292.502 27.096C293.102 27.096 293.648 26.958 294.14 26.682C294.632 26.394 295.016 25.998 295.292 25.494C295.568 24.978 295.706 24.39 295.706 23.73C295.706 23.07 295.568 22.488 295.292 21.984C295.016 21.468 294.632 21.072 294.14 20.796C293.648 20.52 293.102 20.382 292.502 20.382C291.89 20.382 291.338 20.52 290.846 20.796C290.366 21.072 289.982 21.468 289.694 21.984C289.418 22.488 289.28 23.07 289.28 23.73C289.28 24.39 289.418 24.978 289.694 25.494C289.982 25.998 290.366 26.394 290.846 26.682C291.338 26.958 291.89 27.096 292.502 27.096ZM300.686 18.96H302.414V28.5H300.686V18.96ZM301.55 17.124C301.214 17.124 300.932 17.016 300.704 16.8C300.488 16.584 300.38 16.32 300.38 16.008C300.38 15.696 300.488 15.432 300.704 15.216C300.932 14.988 301.214 14.874 301.55 14.874C301.886 14.874 302.162 14.982 302.378 15.198C302.606 15.402 302.72 15.66 302.72 15.972C302.72 16.296 302.606 16.572 302.378 16.8C302.162 17.016 301.886 17.124 301.55 17.124ZM314.605 18.96V28.5H312.967V27.06C312.619 27.552 312.157 27.936 311.581 28.212C311.017 28.476 310.399 28.608 309.727 28.608C308.455 28.608 307.453 28.26 306.721 27.564C305.989 26.856 305.623 25.818 305.623 24.45V18.96H307.351V24.252C307.351 25.176 307.573 25.878 308.017 26.358C308.461 26.826 309.097 27.06 309.925 27.06C310.837 27.06 311.557 26.784 312.085 26.232C312.613 25.68 312.877 24.9 312.877 23.892V18.96H314.605ZM320.631 28.608C319.851 28.608 319.101 28.506 318.381 28.302C317.661 28.086 317.097 27.816 316.689 27.492L317.409 26.124C317.829 26.424 318.339 26.664 318.939 26.844C319.539 27.024 320.145 27.114 320.757 27.114C322.269 27.114 323.025 26.682 323.025 25.818C323.025 25.53 322.923 25.302 322.719 25.134C322.515 24.966 322.257 24.846 321.945 24.774C321.645 24.69 321.213 24.6 320.649 24.504C319.881 24.384 319.251 24.246 318.759 24.09C318.279 23.934 317.865 23.67 317.517 23.298C317.169 22.926 316.995 22.404 316.995 21.732C316.995 20.868 317.355 20.178 318.075 19.662C318.795 19.134 319.761 18.87 320.973 18.87C321.609 18.87 322.245 18.948 322.881 19.104C323.517 19.26 324.039 19.47 324.447 19.734L323.709 21.102C322.929 20.598 322.011 20.346 320.955 20.346C320.223 20.346 319.665 20.466 319.281 20.706C318.897 20.946 318.705 21.264 318.705 21.66C318.705 21.972 318.813 22.218 319.029 22.398C319.245 22.578 319.509 22.71 319.821 22.794C320.145 22.878 320.595 22.974 321.171 23.082C321.939 23.214 322.557 23.358 323.025 23.514C323.505 23.658 323.913 23.91 324.249 24.27C324.585 24.63 324.753 25.134 324.753 25.782C324.753 26.646 324.381 27.336 323.637 27.852C322.905 28.356 321.903 28.608 320.631 28.608Z" fill="white"/>
<path d="M257 1H337V-1H257V1ZM341 5V40H343V5H341ZM337 44H257V46H337V44ZM253 40V5H251V40H253ZM257 44C254.791 44 253 42.2091 253 40H251C251 43.3137 253.686 46 257 46V44ZM341 40C341 42.2091 339.209 44 337 44V46C340.314 46 343 43.3137 343 40H341ZM337 1C339.209 1 341 2.79086 341 5H343C343 1.68629 340.314 -1 337 -1V1ZM257 -1C253.686 -1 251 1.68629 251 5H253C253 2.79086 254.791 1 257 1V-1Z" fill="#369CB7"/>
<path d="M372 5C372 2.23858 374.239 0 377 0H457C459.761 0 462 2.23858 462 5V40C462 42.7614 459.761 45 457 45H377C374.239 45 372 42.7614 372 40V5Z" fill="#369CB7"/>
<path d="M393.265 28.608C392.293 28.608 391.423 28.398 390.655 27.978C389.899 27.558 389.305 26.982 388.873 26.25C388.441 25.506 388.225 24.666 388.225 23.73C388.225 22.794 388.441 21.96 388.873 21.228C389.305 20.484 389.899 19.908 390.655 19.5C391.423 19.08 392.293 18.87 393.265 18.87C394.129 18.87 394.897 19.044 395.569 19.392C396.253 19.74 396.781 20.244 397.153 20.904L395.839 21.75C395.539 21.294 395.167 20.952 394.723 20.724C394.279 20.496 393.787 20.382 393.247 20.382C392.623 20.382 392.059 20.52 391.555 20.796C391.063 21.072 390.673 21.468 390.385 21.984C390.109 22.488 389.971 23.07 389.971 23.73C389.971 24.402 390.109 24.996 390.385 25.512C390.673 26.016 391.063 26.406 391.555 26.682C392.059 26.958 392.623 27.096 393.247 27.096C393.787 27.096 394.279 26.982 394.723 26.754C395.167 26.526 395.539 26.184 395.839 25.728L397.153 26.556C396.781 27.216 396.253 27.726 395.569 28.086C394.897 28.434 394.129 28.608 393.265 28.608ZM407.871 23.784C407.871 23.916 407.859 24.09 407.835 24.306H400.095C400.203 25.146 400.569 25.824 401.193 26.34C401.829 26.844 402.615 27.096 403.551 27.096C404.691 27.096 405.609 26.712 406.305 25.944L407.259 27.06C406.827 27.564 406.287 27.948 405.639 28.212C405.003 28.476 404.289 28.608 403.497 28.608C402.489 28.608 401.595 28.404 400.815 27.996C400.035 27.576 399.429 26.994 398.997 26.25C398.577 25.506 398.367 24.666 398.367 23.73C398.367 22.806 398.571 21.972 398.979 21.228C399.399 20.484 399.969 19.908 400.689 19.5C401.421 19.08 402.243 18.87 403.155 18.87C404.067 18.87 404.877 19.08 405.585 19.5C406.305 19.908 406.863 20.484 407.259 21.228C407.667 21.972 407.871 22.824 407.871 23.784ZM403.155 20.328C402.327 20.328 401.631 20.58 401.067 21.084C400.515 21.588 400.191 22.248 400.095 23.064H406.215C406.119 22.26 405.789 21.606 405.225 21.102C404.673 20.586 403.983 20.328 403.155 20.328ZM415.365 18.87C416.577 18.87 417.537 19.224 418.245 19.932C418.965 20.628 419.325 21.654 419.325 23.01V28.5H417.597V23.208C417.597 22.284 417.375 21.588 416.931 21.12C416.487 20.652 415.851 20.418 415.023 20.418C414.087 20.418 413.349 20.694 412.809 21.246C412.269 21.786 411.999 22.566 411.999 23.586V28.5H410.271V18.96H411.927V20.4C412.275 19.908 412.743 19.53 413.331 19.266C413.931 19.002 414.609 18.87 415.365 18.87ZM427.887 27.942C427.635 28.158 427.323 28.326 426.951 28.446C426.579 28.554 426.195 28.608 425.799 28.608C424.839 28.608 424.095 28.35 423.567 27.834C423.039 27.318 422.775 26.58 422.775 25.62V20.382H421.155V18.96H422.775V16.872H424.503V18.96H427.239V20.382H424.503V25.548C424.503 26.064 424.629 26.46 424.881 26.736C425.145 27.012 425.517 27.15 425.997 27.15C426.525 27.15 426.975 27 427.347 26.7L427.887 27.942ZM431.632 20.562C431.932 20.01 432.376 19.59 432.964 19.302C433.552 19.014 434.266 18.87 435.106 18.87V20.544C435.01 20.532 434.878 20.526 434.71 20.526C433.774 20.526 433.036 20.808 432.496 21.372C431.968 21.924 431.704 22.716 431.704 23.748V28.5H429.976V18.96H431.632V20.562ZM445.77 23.784C445.77 23.916 445.758 24.09 445.734 24.306H437.994C438.102 25.146 438.468 25.824 439.092 26.34C439.728 26.844 440.514 27.096 441.45 27.096C442.59 27.096 443.508 26.712 444.204 25.944L445.158 27.06C444.726 27.564 444.186 27.948 443.538 28.212C442.902 28.476 442.188 28.608 441.396 28.608C440.388 28.608 439.494 28.404 438.714 27.996C437.934 27.576 437.328 26.994 436.896 26.25C436.476 25.506 436.266 24.666 436.266 23.73C436.266 22.806 436.47 21.972 436.878 21.228C437.298 20.484 437.868 19.908 438.588 19.5C439.32 19.08 440.142 18.87 441.054 18.87C441.966 18.87 442.776 19.08 443.484 19.5C444.204 19.908 444.762 20.484 445.158 21.228C445.566 21.972 445.77 22.824 445.77 23.784ZM441.054 20.328C440.226 20.328 439.53 20.58 438.966 21.084C438.414 21.588 438.09 22.248 437.994 23.064H444.114C444.018 22.26 443.688 21.606 443.124 21.102C442.572 20.586 441.882 20.328 441.054 20.328Z" fill="white"/>
<path d="M377 1H457V-1H377V1ZM461 5V40H463V5H461ZM457 44H377V46H457V44ZM373 40V5H371V40H373ZM377 44C374.791 44 373 42.2091 373 40H371C371 43.3137 373.686 46 377 46V44ZM461 40C461 42.2091 459.209 44 457 44V46C460.314 46 463 43.3137 463 40H461ZM457 1C459.209 1 461 2.79086 461 5H463C463 1.68629 460.314 -1 457 -1V1ZM377 -1C373.686 -1 371 1.68629 371 5H373C373 2.79086 374.791 1 377 1V-1Z" fill="#369CB7"/>
</svg>
