<svg width="550" height="249" viewBox="0 0 550 249" fill="none" xmlns="http://www.w3.org/2000/svg">
<rect x="26.5" y="33.5" width="220.212" height="136" fill="#ABE9FF" stroke="#0995E3"/>
<rect x="107.5" y="86.5" width="53" height="29" rx="4.5" fill="white"/>
<path d="M117.43 94.4V107H115.648V95.966H112.804V94.4H117.43ZM125.334 107.144C124.338 107.144 123.45 106.892 122.67 106.388C121.902 105.872 121.296 105.128 120.852 104.156C120.408 103.184 120.186 102.032 120.186 100.7C120.186 99.368 120.408 98.216 120.852 97.244C121.296 96.272 121.902 95.534 122.67 95.03C123.45 94.514 124.338 94.256 125.334 94.256C126.318 94.256 127.194 94.514 127.962 95.03C128.742 95.534 129.354 96.272 129.798 97.244C130.242 98.216 130.464 99.368 130.464 100.7C130.464 102.032 130.242 103.184 129.798 104.156C129.354 105.128 128.742 105.872 127.962 106.388C127.194 106.892 126.318 107.144 125.334 107.144ZM125.334 105.542C126.342 105.542 127.146 105.128 127.746 104.3C128.358 103.472 128.664 102.272 128.664 100.7C128.664 99.128 128.358 97.928 127.746 97.1C127.146 96.272 126.342 95.858 125.334 95.858C124.314 95.858 123.498 96.272 122.886 97.1C122.286 97.928 121.986 99.128 121.986 100.7C121.986 102.272 122.286 103.472 122.886 104.3C123.498 105.128 124.314 105.542 125.334 105.542ZM137.34 107.144C136.344 107.144 135.456 106.892 134.676 106.388C133.908 105.872 133.302 105.128 132.858 104.156C132.414 103.184 132.192 102.032 132.192 100.7C132.192 99.368 132.414 98.216 132.858 97.244C133.302 96.272 133.908 95.534 134.676 95.03C135.456 94.514 136.344 94.256 137.34 94.256C138.324 94.256 139.2 94.514 139.968 95.03C140.748 95.534 141.36 96.272 141.804 97.244C142.248 98.216 142.47 99.368 142.47 100.7C142.47 102.032 142.248 103.184 141.804 104.156C141.36 105.128 140.748 105.872 139.968 106.388C139.2 106.892 138.324 107.144 137.34 107.144ZM137.34 105.542C138.348 105.542 139.152 105.128 139.752 104.3C140.364 103.472 140.67 102.272 140.67 100.7C140.67 99.128 140.364 97.928 139.752 97.1C139.152 96.272 138.348 95.858 137.34 95.858C136.32 95.858 135.504 96.272 134.892 97.1C134.292 97.928 133.992 99.128 133.992 100.7C133.992 102.272 134.292 103.472 134.892 104.3C135.504 105.128 136.32 105.542 137.34 105.542ZM149.346 107.144C148.35 107.144 147.462 106.892 146.682 106.388C145.914 105.872 145.308 105.128 144.864 104.156C144.42 103.184 144.198 102.032 144.198 100.7C144.198 99.368 144.42 98.216 144.864 97.244C145.308 96.272 145.914 95.534 146.682 95.03C147.462 94.514 148.35 94.256 149.346 94.256C150.33 94.256 151.206 94.514 151.974 95.03C152.754 95.534 153.366 96.272 153.81 97.244C154.254 98.216 154.476 99.368 154.476 100.7C154.476 102.032 154.254 103.184 153.81 104.156C153.366 105.128 152.754 105.872 151.974 106.388C151.206 106.892 150.33 107.144 149.346 107.144ZM149.346 105.542C150.354 105.542 151.158 105.128 151.758 104.3C152.37 103.472 152.676 102.272 152.676 100.7C152.676 99.128 152.37 97.928 151.758 97.1C151.158 96.272 150.354 95.858 149.346 95.858C148.326 95.858 147.51 96.272 146.898 97.1C146.298 97.928 145.998 99.128 145.998 100.7C145.998 102.272 146.298 103.472 146.898 104.3C147.51 105.128 148.326 105.542 149.346 105.542Z" fill="#2F2F2F"/>
<rect x="107.5" y="86.5" width="53" height="29" rx="4.5" stroke="#0995E3"/>
<path d="M129.073 13.434V15H120.019V13.776L125.149 8.826C125.773 8.226 126.193 7.71 126.409 7.278C126.625 6.834 126.733 6.39 126.733 5.946C126.733 5.286 126.499 4.776 126.031 4.416C125.575 4.044 124.915 3.858 124.051 3.858C122.659 3.858 121.585 4.314 120.829 5.226L119.605 4.164C120.097 3.564 120.739 3.096 121.531 2.76C122.335 2.424 123.229 2.256 124.213 2.256C125.533 2.256 126.583 2.574 127.363 3.21C128.143 3.834 128.533 4.686 128.533 5.766C128.533 6.438 128.389 7.074 128.101 7.674C127.813 8.274 127.267 8.958 126.463 9.726L122.611 13.434H129.073ZM135.648 15.144C134.652 15.144 133.764 14.892 132.984 14.388C132.216 13.872 131.61 13.128 131.166 12.156C130.722 11.184 130.5 10.032 130.5 8.7C130.5 7.368 130.722 6.216 131.166 5.244C131.61 4.272 132.216 3.534 132.984 3.03C133.764 2.514 134.652 2.256 135.648 2.256C136.632 2.256 137.508 2.514 138.276 3.03C139.056 3.534 139.668 4.272 140.112 5.244C140.556 6.216 140.778 7.368 140.778 8.7C140.778 10.032 140.556 11.184 140.112 12.156C139.668 13.128 139.056 13.872 138.276 14.388C137.508 14.892 136.632 15.144 135.648 15.144ZM135.648 13.542C136.656 13.542 137.46 13.128 138.06 12.3C138.672 11.472 138.978 10.272 138.978 8.7C138.978 7.128 138.672 5.928 138.06 5.1C137.46 4.272 136.656 3.858 135.648 3.858C134.628 3.858 133.812 4.272 133.2 5.1C132.6 5.928 132.3 7.128 132.3 8.7C132.3 10.272 132.6 11.472 133.2 12.3C133.812 13.128 134.628 13.542 135.648 13.542ZM147.654 15.144C146.658 15.144 145.77 14.892 144.99 14.388C144.222 13.872 143.616 13.128 143.172 12.156C142.728 11.184 142.506 10.032 142.506 8.7C142.506 7.368 142.728 6.216 143.172 5.244C143.616 4.272 144.222 3.534 144.99 3.03C145.77 2.514 146.658 2.256 147.654 2.256C148.638 2.256 149.514 2.514 150.282 3.03C151.062 3.534 151.674 4.272 152.118 5.244C152.562 6.216 152.784 7.368 152.784 8.7C152.784 10.032 152.562 11.184 152.118 12.156C151.674 13.128 151.062 13.872 150.282 14.388C149.514 14.892 148.638 15.144 147.654 15.144ZM147.654 13.542C148.662 13.542 149.466 13.128 150.066 12.3C150.678 11.472 150.984 10.272 150.984 8.7C150.984 7.128 150.678 5.928 150.066 5.1C149.466 4.272 148.662 3.858 147.654 3.858C146.634 3.858 145.818 4.272 145.206 5.1C144.606 5.928 144.306 7.128 144.306 8.7C144.306 10.272 144.606 11.472 145.206 12.3C145.818 13.128 146.634 13.542 147.654 13.542Z" fill="#2F2F2F"/>
<path d="M337.303 11.904H334.909V15H333.163V11.904H326.161V10.644L332.605 2.4H334.549L328.375 10.356H333.217V7.62H334.909V10.356H337.303V11.904ZM343.53 15.144C342.534 15.144 341.646 14.892 340.866 14.388C340.098 13.872 339.492 13.128 339.048 12.156C338.604 11.184 338.382 10.032 338.382 8.7C338.382 7.368 338.604 6.216 339.048 5.244C339.492 4.272 340.098 3.534 340.866 3.03C341.646 2.514 342.534 2.256 343.53 2.256C344.514 2.256 345.39 2.514 346.158 3.03C346.938 3.534 347.55 4.272 347.994 5.244C348.438 6.216 348.66 7.368 348.66 8.7C348.66 10.032 348.438 11.184 347.994 12.156C347.55 13.128 346.938 13.872 346.158 14.388C345.39 14.892 344.514 15.144 343.53 15.144ZM343.53 13.542C344.538 13.542 345.342 13.128 345.942 12.3C346.554 11.472 346.86 10.272 346.86 8.7C346.86 7.128 346.554 5.928 345.942 5.1C345.342 4.272 344.538 3.858 343.53 3.858C342.51 3.858 341.694 4.272 341.082 5.1C340.482 5.928 340.182 7.128 340.182 8.7C340.182 10.272 340.482 11.472 341.082 12.3C341.694 13.128 342.51 13.542 343.53 13.542Z" fill="#2F2F2F"/>
<path d="M4.79603 99.422C6.59603 99.422 7.91603 99.764 8.75603 100.448C9.60803 101.12 10.034 102.044 10.034 103.22C10.034 103.964 9.85403 104.636 9.49403 105.236C9.14603 105.824 8.61203 106.292 7.89203 106.64C7.18403 106.976 6.30803 107.144 5.26403 107.144C4.37603 107.144 3.51803 107.012 2.69003 106.748C1.86203 106.472 1.17803 106.094 0.638031 105.614L1.46603 104.192C1.89803 104.6 2.45003 104.93 3.12203 105.182C3.79403 105.422 4.50203 105.542 5.24603 105.542C6.19403 105.542 6.92603 105.344 7.44203 104.948C7.97003 104.54 8.23403 103.988 8.23403 103.292C8.23403 102.536 7.94603 101.966 7.37003 101.582C6.79403 101.186 5.81003 100.988 4.41803 100.988H1.55603L2.22203 94.4H9.33203V95.966H3.73403L3.39203 99.422H4.79603Z" fill="#2F2F2F"/>
<rect x="253.5" y="33.5" width="168" height="136" fill="#C6FFAB" stroke="#09E31E"/>
<path d="M490.038 7.692C491.274 7.812 492.216 8.196 492.864 8.844C493.512 9.48 493.836 10.296 493.836 11.292C493.836 12.012 493.656 12.666 493.296 13.254C492.936 13.83 492.396 14.292 491.676 14.64C490.968 14.976 490.098 15.144 489.066 15.144C488.166 15.144 487.302 15.012 486.474 14.748C485.646 14.472 484.968 14.094 484.44 13.614L485.268 12.192C485.7 12.6 486.252 12.93 486.924 13.182C487.596 13.422 488.31 13.542 489.066 13.542C490.002 13.542 490.728 13.344 491.244 12.948C491.772 12.552 492.036 12.006 492.036 11.31C492.036 10.614 491.778 10.074 491.262 9.69C490.746 9.306 489.966 9.114 488.922 9.114H487.914V7.854L491.082 3.966H485.016V2.4H493.332V3.624L490.038 7.692Z" fill="#2F2F2F"/>
<rect x="428.5" y="33.5" width="121" height="136" fill="#FFE2AB" stroke="#E37209"/>
<rect x="469.5" y="86.5" width="39" height="29" rx="4.5" fill="white"/>
<path d="M485.271 94.4V107H483.489V95.966H480.645V94.4H485.271ZM491.627 99.422C493.427 99.422 494.747 99.764 495.587 100.448C496.439 101.12 496.865 102.044 496.865 103.22C496.865 103.964 496.685 104.636 496.325 105.236C495.977 105.824 495.443 106.292 494.723 106.64C494.015 106.976 493.139 107.144 492.095 107.144C491.207 107.144 490.349 107.012 489.521 106.748C488.693 106.472 488.009 106.094 487.469 105.614L488.297 104.192C488.729 104.6 489.281 104.93 489.953 105.182C490.625 105.422 491.333 105.542 492.077 105.542C493.025 105.542 493.757 105.344 494.273 104.948C494.801 104.54 495.065 103.988 495.065 103.292C495.065 102.536 494.777 101.966 494.201 101.582C493.625 101.186 492.641 100.988 491.249 100.988H488.387L489.053 94.4H496.163V95.966H490.565L490.223 99.422H491.627Z" fill="#2F2F2F"/>
<rect x="469.5" y="86.5" width="39" height="29" rx="4.5" stroke="#E37209"/>
<rect x="317.5" y="86.5" width="39" height="29" rx="4.5" fill="white"/>
<path d="M329.573 105.434V107H320.519V105.776L325.649 100.826C326.273 100.226 326.693 99.71 326.909 99.278C327.125 98.834 327.233 98.39 327.233 97.946C327.233 97.286 326.999 96.776 326.531 96.416C326.075 96.044 325.415 95.858 324.551 95.858C323.159 95.858 322.085 96.314 321.329 97.226L320.105 96.164C320.597 95.564 321.239 95.096 322.031 94.76C322.835 94.424 323.729 94.256 324.713 94.256C326.033 94.256 327.083 94.574 327.863 95.21C328.643 95.834 329.033 96.686 329.033 97.766C329.033 98.438 328.889 99.074 328.601 99.674C328.313 100.274 327.767 100.958 326.963 101.726L323.111 105.434H329.573ZM336.148 107.144C335.152 107.144 334.264 106.892 333.484 106.388C332.716 105.872 332.11 105.128 331.666 104.156C331.222 103.184 331 102.032 331 100.7C331 99.368 331.222 98.216 331.666 97.244C332.11 96.272 332.716 95.534 333.484 95.03C334.264 94.514 335.152 94.256 336.148 94.256C337.132 94.256 338.008 94.514 338.776 95.03C339.556 95.534 340.168 96.272 340.612 97.244C341.056 98.216 341.278 99.368 341.278 100.7C341.278 102.032 341.056 103.184 340.612 104.156C340.168 105.128 339.556 105.872 338.776 106.388C338.008 106.892 337.132 107.144 336.148 107.144ZM336.148 105.542C337.156 105.542 337.96 105.128 338.56 104.3C339.172 103.472 339.478 102.272 339.478 100.7C339.478 99.128 339.172 97.928 338.56 97.1C337.96 96.272 337.156 95.858 336.148 95.858C335.128 95.858 334.312 96.272 333.7 97.1C333.1 97.928 332.8 99.128 332.8 100.7C332.8 102.272 333.1 103.472 333.7 104.3C334.312 105.128 335.128 105.542 336.148 105.542ZM348.154 107.144C347.158 107.144 346.27 106.892 345.49 106.388C344.722 105.872 344.116 105.128 343.672 104.156C343.228 103.184 343.006 102.032 343.006 100.7C343.006 99.368 343.228 98.216 343.672 97.244C344.116 96.272 344.722 95.534 345.49 95.03C346.27 94.514 347.158 94.256 348.154 94.256C349.138 94.256 350.014 94.514 350.782 95.03C351.562 95.534 352.174 96.272 352.618 97.244C353.062 98.216 353.284 99.368 353.284 100.7C353.284 102.032 353.062 103.184 352.618 104.156C352.174 105.128 351.562 105.872 350.782 106.388C350.014 106.892 349.138 107.144 348.154 107.144ZM348.154 105.542C349.162 105.542 349.966 105.128 350.566 104.3C351.178 103.472 351.484 102.272 351.484 100.7C351.484 99.128 351.178 97.928 350.566 97.1C349.966 96.272 349.162 95.858 348.154 95.858C347.134 95.858 346.318 96.272 345.706 97.1C345.106 97.928 344.806 99.128 344.806 100.7C344.806 102.272 345.106 103.472 345.706 104.3C346.318 105.128 347.134 105.542 348.154 105.542Z" fill="#2F2F2F"/>
<rect x="317.5" y="86.5" width="39" height="29" rx="4.5" stroke="#09E31E"/>
<path d="M216.775 232.422C218.575 232.422 219.895 232.764 220.735 233.448C221.587 234.12 222.013 235.044 222.013 236.22C222.013 236.964 221.833 237.636 221.473 238.236C221.125 238.824 220.591 239.292 219.871 239.64C219.163 239.976 218.287 240.144 217.243 240.144C216.355 240.144 215.497 240.012 214.669 239.748C213.841 239.472 213.157 239.094 212.617 238.614L213.445 237.192C213.877 237.6 214.429 237.93 215.101 238.182C215.773 238.422 216.481 238.542 217.225 238.542C218.173 238.542 218.905 238.344 219.421 237.948C219.949 237.54 220.213 236.988 220.213 236.292C220.213 235.536 219.925 234.966 219.349 234.582C218.773 234.186 217.789 233.988 216.397 233.988H213.535L214.201 227.4H221.311V228.966H215.713L215.371 232.422H216.775ZM235.202 240L232.448 236.346L229.658 240H227.732L231.494 235.122L227.912 230.46H229.838L232.466 233.898L235.076 230.46H236.966L233.366 235.122L237.164 240H235.202ZM251.966 238.434V240H242.912V238.776L248.042 233.826C248.666 233.226 249.086 232.71 249.302 232.278C249.518 231.834 249.626 231.39 249.626 230.946C249.626 230.286 249.392 229.776 248.924 229.416C248.468 229.044 247.808 228.858 246.944 228.858C245.552 228.858 244.478 229.314 243.722 230.226L242.498 229.164C242.99 228.564 243.632 228.096 244.424 227.76C245.228 227.424 246.122 227.256 247.106 227.256C248.426 227.256 249.476 227.574 250.256 228.21C251.036 228.834 251.426 229.686 251.426 230.766C251.426 231.438 251.282 232.074 250.994 232.674C250.706 233.274 250.16 233.958 249.356 234.726L245.504 238.434H251.966ZM264.074 236.904H261.68V240H259.934V236.904H252.932V235.644L259.376 227.4H261.32L255.146 235.356H259.988V232.62H261.68V235.356H264.074V236.904ZM269.766 232.692C271.002 232.812 271.944 233.196 272.592 233.844C273.24 234.48 273.564 235.296 273.564 236.292C273.564 237.012 273.384 237.666 273.024 238.254C272.664 238.83 272.124 239.292 271.404 239.64C270.696 239.976 269.826 240.144 268.794 240.144C267.894 240.144 267.03 240.012 266.202 239.748C265.374 239.472 264.696 239.094 264.168 238.614L264.996 237.192C265.428 237.6 265.98 237.93 266.652 238.182C267.324 238.422 268.038 238.542 268.794 238.542C269.73 238.542 270.456 238.344 270.972 237.948C271.5 237.552 271.764 237.006 271.764 236.31C271.764 235.614 271.506 235.074 270.99 234.69C270.474 234.306 269.694 234.114 268.65 234.114H267.642V232.854L270.81 228.966H264.744V227.4H273.06V228.624L269.766 232.692ZM280.419 230.856H288.483V232.278H280.419V230.856ZM280.419 235.122H288.483V236.544H280.419V235.122Z" fill="#2F2F2F"/>
<path d="M315.772 227.4V240H313.99V228.966H311.146V227.4H315.772ZM327.384 238.434V240H318.33V238.776L323.46 233.826C324.084 233.226 324.504 232.71 324.72 232.278C324.936 231.834 325.044 231.39 325.044 230.946C325.044 230.286 324.81 229.776 324.342 229.416C323.886 229.044 323.226 228.858 322.362 228.858C320.97 228.858 319.896 229.314 319.14 230.226L317.916 229.164C318.408 228.564 319.05 228.096 319.842 227.76C320.646 227.424 321.54 227.256 322.524 227.256C323.844 227.256 324.894 227.574 325.674 228.21C326.454 228.834 326.844 229.686 326.844 230.766C326.844 231.438 326.7 232.074 326.412 232.674C326.124 233.274 325.578 233.958 324.774 234.726L320.922 238.434H327.384ZM332.77 227.4V240H330.988V228.966H328.144V227.4H332.77ZM339.126 232.422C340.926 232.422 342.246 232.764 343.086 233.448C343.938 234.12 344.364 235.044 344.364 236.22C344.364 236.964 344.184 237.636 343.824 238.236C343.476 238.824 342.942 239.292 342.222 239.64C341.514 239.976 340.638 240.144 339.594 240.144C338.706 240.144 337.848 240.012 337.02 239.748C336.192 239.472 335.508 239.094 334.968 238.614L335.796 237.192C336.228 237.6 336.78 237.93 337.452 238.182C338.124 238.422 338.832 238.542 339.576 238.542C340.524 238.542 341.256 238.344 341.772 237.948C342.3 237.54 342.564 236.988 342.564 236.292C342.564 235.536 342.276 234.966 341.7 234.582C341.124 234.186 340.14 233.988 338.748 233.988H335.886L336.552 227.4H343.662V228.966H338.064L337.722 232.422H339.126Z" fill="#2F2F2F"/>
<path d="M303 220H353V218H303V220ZM357 224V244H359V224H357ZM353 248H303V250H353V248ZM299 244V224H297V244H299ZM303 248C300.791 248 299 246.209 299 244H297C297 247.314 299.686 250 303 250V248ZM357 244C357 246.209 355.209 248 353 248V250C356.314 250 359 247.314 359 244H357ZM353 220C355.209 220 357 221.791 357 224H359C359 220.686 356.314 218 353 218V220ZM303 218C299.686 218 297 220.686 297 224H299C299 221.791 300.791 220 303 220V218Z" fill="#2F2F2F"/>
</svg>
