<svg width="550" height="170" viewBox="0 0 550 170" fill="none" xmlns="http://www.w3.org/2000/svg">
<rect x="26.5" y="33.5" width="220.212" height="136" fill="#ABE9FF" stroke="#0995E3"/>
<path d="M129.073 13.434V15H120.019V13.776L125.149 8.826C125.773 8.226 126.193 7.71 126.409 7.278C126.625 6.834 126.733 6.39 126.733 5.946C126.733 5.286 126.499 4.776 126.031 4.416C125.575 4.044 124.915 3.858 124.051 3.858C122.659 3.858 121.585 4.314 120.829 5.226L119.605 4.164C120.097 3.564 120.739 3.096 121.531 2.76C122.335 2.424 123.229 2.256 124.213 2.256C125.533 2.256 126.583 2.574 127.363 3.21C128.143 3.834 128.533 4.686 128.533 5.766C128.533 6.438 128.389 7.074 128.101 7.674C127.813 8.274 127.267 8.958 126.463 9.726L122.611 13.434H129.073ZM135.648 15.144C134.652 15.144 133.764 14.892 132.984 14.388C132.216 13.872 131.61 13.128 131.166 12.156C130.722 11.184 130.5 10.032 130.5 8.7C130.5 7.368 130.722 6.216 131.166 5.244C131.61 4.272 132.216 3.534 132.984 3.03C133.764 2.514 134.652 2.256 135.648 2.256C136.632 2.256 137.508 2.514 138.276 3.03C139.056 3.534 139.668 4.272 140.112 5.244C140.556 6.216 140.778 7.368 140.778 8.7C140.778 10.032 140.556 11.184 140.112 12.156C139.668 13.128 139.056 13.872 138.276 14.388C137.508 14.892 136.632 15.144 135.648 15.144ZM135.648 13.542C136.656 13.542 137.46 13.128 138.06 12.3C138.672 11.472 138.978 10.272 138.978 8.7C138.978 7.128 138.672 5.928 138.06 5.1C137.46 4.272 136.656 3.858 135.648 3.858C134.628 3.858 133.812 4.272 133.2 5.1C132.6 5.928 132.3 7.128 132.3 8.7C132.3 10.272 132.6 11.472 133.2 12.3C133.812 13.128 134.628 13.542 135.648 13.542ZM147.654 15.144C146.658 15.144 145.77 14.892 144.99 14.388C144.222 13.872 143.616 13.128 143.172 12.156C142.728 11.184 142.506 10.032 142.506 8.7C142.506 7.368 142.728 6.216 143.172 5.244C143.616 4.272 144.222 3.534 144.99 3.03C145.77 2.514 146.658 2.256 147.654 2.256C148.638 2.256 149.514 2.514 150.282 3.03C151.062 3.534 151.674 4.272 152.118 5.244C152.562 6.216 152.784 7.368 152.784 8.7C152.784 10.032 152.562 11.184 152.118 12.156C151.674 13.128 151.062 13.872 150.282 14.388C149.514 14.892 148.638 15.144 147.654 15.144ZM147.654 13.542C148.662 13.542 149.466 13.128 150.066 12.3C150.678 11.472 150.984 10.272 150.984 8.7C150.984 7.128 150.678 5.928 150.066 5.1C149.466 4.272 148.662 3.858 147.654 3.858C146.634 3.858 145.818 4.272 145.206 5.1C144.606 5.928 144.306 7.128 144.306 8.7C144.306 10.272 144.606 11.472 145.206 12.3C145.818 13.128 146.634 13.542 147.654 13.542Z" fill="#2F2F2F"/>
<path d="M337.303 11.904H334.909V15H333.163V11.904H326.161V10.644L332.605 2.4H334.549L328.375 10.356H333.217V7.62H334.909V10.356H337.303V11.904ZM343.53 15.144C342.534 15.144 341.646 14.892 340.866 14.388C340.098 13.872 339.492 13.128 339.048 12.156C338.604 11.184 338.382 10.032 338.382 8.7C338.382 7.368 338.604 6.216 339.048 5.244C339.492 4.272 340.098 3.534 340.866 3.03C341.646 2.514 342.534 2.256 343.53 2.256C344.514 2.256 345.39 2.514 346.158 3.03C346.938 3.534 347.55 4.272 347.994 5.244C348.438 6.216 348.66 7.368 348.66 8.7C348.66 10.032 348.438 11.184 347.994 12.156C347.55 13.128 346.938 13.872 346.158 14.388C345.39 14.892 344.514 15.144 343.53 15.144ZM343.53 13.542C344.538 13.542 345.342 13.128 345.942 12.3C346.554 11.472 346.86 10.272 346.86 8.7C346.86 7.128 346.554 5.928 345.942 5.1C345.342 4.272 344.538 3.858 343.53 3.858C342.51 3.858 341.694 4.272 341.082 5.1C340.482 5.928 340.182 7.128 340.182 8.7C340.182 10.272 340.482 11.472 341.082 12.3C341.694 13.128 342.51 13.542 343.53 13.542Z" fill="#2F2F2F"/>
<path d="M4.79603 99.422C6.59603 99.422 7.91603 99.764 8.75603 100.448C9.60803 101.12 10.034 102.044 10.034 103.22C10.034 103.964 9.85403 104.636 9.49403 105.236C9.14603 105.824 8.61203 106.292 7.89203 106.64C7.18403 106.976 6.30803 107.144 5.26403 107.144C4.37603 107.144 3.51803 107.012 2.69003 106.748C1.86203 106.472 1.17803 106.094 0.638031 105.614L1.46603 104.192C1.89803 104.6 2.45003 104.93 3.12203 105.182C3.79403 105.422 4.50203 105.542 5.24603 105.542C6.19403 105.542 6.92603 105.344 7.44203 104.948C7.97003 104.54 8.23403 103.988 8.23403 103.292C8.23403 102.536 7.94603 101.966 7.37003 101.582C6.79403 101.186 5.81003 100.988 4.41803 100.988H1.55603L2.22203 94.4H9.33203V95.966H3.73403L3.39203 99.422H4.79603Z" fill="#2F2F2F"/>
<rect x="253.5" y="33.5" width="168" height="136" fill="#C6FFAB" stroke="#09E31E"/>
<path d="M490.038 7.692C491.274 7.812 492.216 8.196 492.864 8.844C493.512 9.48 493.836 10.296 493.836 11.292C493.836 12.012 493.656 12.666 493.296 13.254C492.936 13.83 492.396 14.292 491.676 14.64C490.968 14.976 490.098 15.144 489.066 15.144C488.166 15.144 487.302 15.012 486.474 14.748C485.646 14.472 484.968 14.094 484.44 13.614L485.268 12.192C485.7 12.6 486.252 12.93 486.924 13.182C487.596 13.422 488.31 13.542 489.066 13.542C490.002 13.542 490.728 13.344 491.244 12.948C491.772 12.552 492.036 12.006 492.036 11.31C492.036 10.614 491.778 10.074 491.262 9.69C490.746 9.306 489.966 9.114 488.922 9.114H487.914V7.854L491.082 3.966H485.016V2.4H493.332V3.624L490.038 7.692Z" fill="#2F2F2F"/>
<rect x="428.5" y="33.5" width="121" height="136" fill="#FFE2AB" stroke="#E37209"/>
</svg>
