<svg width="742" height="128" viewBox="0 0 742 128" fill="none" xmlns="http://www.w3.org/2000/svg">
<circle cx="64" cy="61" r="59.5" stroke="#3A59A9" stroke-width="3"/>
<line x1="21.0607" y1="21.9393" x2="104.061" y2="104.939" stroke="#3A59A9" stroke-width="3"/>
<path d="M10.1228 14.084H3.82279L2.58079 17H0.168789L5.83879 4.4H8.14279L13.8308 17H11.3828L10.1228 14.084ZM9.34879 12.248L6.97279 6.74L4.61479 12.248H9.34879Z" fill="#2F2F2F"/>
<path d="M118.773 116.448C119.469 116.676 120.021 117.06 120.429 117.6C120.837 118.128 121.041 118.788 121.041 119.58C121.041 120.672 120.621 121.518 119.781 122.118C118.941 122.706 117.717 123 116.109 123H109.845V110.4H115.749C117.237 110.4 118.383 110.694 119.187 111.282C119.991 111.858 120.393 112.656 120.393 113.676C120.393 114.3 120.249 114.852 119.961 115.332C119.673 115.812 119.277 116.184 118.773 116.448ZM112.185 112.236V115.71H115.497C116.313 115.71 116.937 115.566 117.369 115.278C117.813 114.978 118.035 114.546 118.035 113.982C118.035 113.406 117.813 112.974 117.369 112.686C116.937 112.386 116.313 112.236 115.497 112.236H112.185ZM115.965 121.164C117.777 121.164 118.683 120.558 118.683 119.346C118.683 118.134 117.777 117.528 115.965 117.528H112.185V121.164H115.965Z" fill="#2F2F2F"/>
<circle cx="270" cy="64" r="59.5" stroke="#41DB63" stroke-width="3"/>
<line x1="226" y1="24.5" x2="314" y2="24.5" stroke="#41DB63" stroke-width="3"/>
<path d="M212.123 25.084H205.823L204.581 28H202.169L207.839 15.4H210.143L215.831 28H213.383L212.123 25.084ZM211.349 23.248L208.973 17.74L206.615 23.248H211.349Z" fill="#2F2F2F"/>
<path d="M334.773 21.448C335.469 21.676 336.021 22.06 336.429 22.6C336.837 23.128 337.041 23.788 337.041 24.58C337.041 25.672 336.621 26.518 335.781 27.118C334.941 27.706 333.717 28 332.109 28H325.845V15.4H331.749C333.237 15.4 334.383 15.694 335.187 16.282C335.991 16.858 336.393 17.656 336.393 18.676C336.393 19.3 336.249 19.852 335.961 20.332C335.673 20.812 335.277 21.184 334.773 21.448ZM328.185 17.236V20.71H331.497C332.313 20.71 332.937 20.566 333.369 20.278C333.813 19.978 334.035 19.546 334.035 18.982C334.035 18.406 333.813 17.974 333.369 17.686C332.937 17.386 332.313 17.236 331.497 17.236H328.185ZM331.965 26.164C333.777 26.164 334.683 25.558 334.683 24.346C334.683 23.134 333.777 22.528 331.965 22.528H328.185V26.164H331.965Z" fill="#2F2F2F"/>
<circle cx="485" cy="64" r="59.5" stroke="#DB41CB" stroke-width="3"/>
<line x1="441.98" y1="24.8648" x2="485.98" y2="62.8648" stroke="#DB41CB" stroke-width="3"/>
<path d="M493.123 78.084H486.823L485.581 81H483.169L488.839 68.4H491.143L496.831 81H494.383L493.123 78.084ZM492.349 76.248L489.973 70.74L487.615 76.248H492.349Z" fill="#2F2F2F"/>
<path d="M428.773 21.448C429.469 21.676 430.021 22.06 430.429 22.6C430.837 23.128 431.041 23.788 431.041 24.58C431.041 25.672 430.621 26.518 429.781 27.118C428.941 27.706 427.717 28 426.109 28H419.845V15.4H425.749C427.237 15.4 428.383 15.694 429.187 16.282C429.991 16.858 430.393 17.656 430.393 18.676C430.393 19.3 430.249 19.852 429.961 20.332C429.673 20.812 429.277 21.184 428.773 21.448ZM422.185 17.236V20.71H425.497C426.313 20.71 426.937 20.566 427.369 20.278C427.813 19.978 428.035 19.546 428.035 18.982C428.035 18.406 427.813 17.974 427.369 17.686C426.937 17.386 426.313 17.236 425.497 17.236H422.185ZM425.965 26.164C427.777 26.164 428.683 25.558 428.683 24.346C428.683 23.134 427.777 22.528 425.965 22.528H422.185V26.164H425.965Z" fill="#2F2F2F"/>
<circle cx="681" cy="64" r="59.5" stroke="#DB8B41" stroke-width="3"/>
<circle cx="681.5" cy="64.5" r="3.5" fill="#DB8B41"/>
<path d="M684.123 82.084H677.823L676.581 85H674.169L679.839 72.4H682.143L687.831 85H685.383L684.123 82.084ZM683.349 80.248L680.973 74.74L678.615 80.248H683.349Z" fill="#2F2F2F"/>
</svg>
