<svg width="428" height="194" viewBox="0 0 428 194" fill="none" xmlns="http://www.w3.org/2000/svg">
<path d="M80.6236 18.808H91.3756V20.704H80.6236V18.808ZM80.6236 24.496H91.3756V26.392H80.6236V24.496Z" fill="#2F2F2F"/>
<path d="M36.9996 19.312C36.6156 19.312 36.2876 19.176 36.0156 18.904C35.7596 18.616 35.6316 18.272 35.6316 17.872C35.6316 17.456 35.7596 17.112 36.0156 16.84C36.2876 16.568 36.6156 16.432 36.9996 16.432C37.3996 16.432 37.7276 16.568 37.9836 16.84C38.2556 17.112 38.3916 17.456 38.3916 17.872C38.3916 18.288 38.2556 18.632 37.9836 18.904C37.7276 19.176 37.3996 19.312 36.9996 19.312ZM31.6236 21.664H42.3756V23.56H31.6236V21.664ZM36.9996 28.768C36.6156 28.768 36.2876 28.632 36.0156 28.36C35.7596 28.072 35.6316 27.72 35.6316 27.304C35.6316 26.904 35.7596 26.568 36.0156 26.296C36.2876 26.024 36.6156 25.888 36.9996 25.888C37.3996 25.888 37.7276 26.024 37.9836 26.296C38.2556 26.568 38.3916 26.904 38.3916 27.304C38.3916 27.72 38.2556 28.072 37.9836 28.36C37.7276 28.632 37.3996 28.768 36.9996 28.768Z" fill="#2F2F2F"/>
<path d="M13.148 4.4V17H10.808V6.362H8.144V4.4H13.148Z" fill="#2F2F2F"/>
<line x1="0.5" y1="23.5" x2="26.5" y2="23.5" stroke="#2F2F2F" stroke-linecap="round"/>
<path d="M16.918 41.02V43H7.63V41.434L12.634 36.682C13.198 36.142 13.576 35.674 13.768 35.278C13.972 34.87 14.074 34.468 14.074 34.072C14.074 33.484 13.876 33.034 13.48 32.722C13.084 32.41 12.502 32.254 11.734 32.254C10.45 32.254 9.466 32.692 8.782 33.568L7.144 32.308C7.636 31.648 8.296 31.138 9.124 30.778C9.964 30.406 10.9 30.22 11.932 30.22C13.3 30.22 14.392 30.544 15.208 31.192C16.024 31.84 16.432 32.722 16.432 33.838C16.432 34.522 16.288 35.164 16 35.764C15.712 36.364 15.16 37.048 14.344 37.816L10.978 41.02H16.918Z" fill="#2F2F2F"/>
<path d="M61.156 22.602C62.32 22.746 63.208 23.142 63.82 23.79C64.432 24.438 64.738 25.248 64.738 26.22C64.738 26.952 64.552 27.618 64.18 28.218C63.808 28.818 63.244 29.298 62.488 29.658C61.744 30.006 60.832 30.18 59.752 30.18C58.852 30.18 57.982 30.054 57.142 29.802C56.314 29.538 55.606 29.178 55.018 28.722L56.026 26.904C56.482 27.288 57.034 27.594 57.682 27.822C58.342 28.038 59.02 28.146 59.716 28.146C60.544 28.146 61.192 27.978 61.66 27.642C62.14 27.294 62.38 26.826 62.38 26.238C62.38 25.65 62.152 25.194 61.696 24.87C61.252 24.534 60.568 24.366 59.644 24.366H58.492V22.764L61.354 19.362H55.63V17.4H64.216V18.966L61.156 22.602Z" fill="#2F2F2F"/>
<path d="M103.005 8.13983L149.851 8.01351L149.841 6.01354L102.995 6.13985L103.005 8.13983ZM153.872 12.0027L153.974 32.0026L155.974 31.9972L155.872 11.9973L153.872 12.0027ZM149.995 36.0133L103.149 36.1396L103.159 38.1396L150.005 38.0133L149.995 36.0133ZM99.1285 32.1505L99.0257 12.1506L97.0257 12.156L97.1285 32.1559L99.1285 32.1505ZM103.149 36.1396C100.94 36.1456 99.1398 34.3596 99.1285 32.1505L97.1285 32.1559C97.1455 35.4695 99.8456 38.1486 103.159 38.1396L103.149 36.1396ZM153.974 32.0026C153.986 34.2117 152.204 36.0074 149.995 36.0133L150.005 38.0133C153.319 38.0044 155.991 35.3109 155.974 31.9972L153.974 32.0026ZM149.851 8.01351C152.06 8.00755 153.86 9.79356 153.872 12.0027L155.872 11.9973C155.854 8.68361 153.154 6.0046 149.841 6.01354L149.851 8.01351ZM102.995 6.13985C99.6811 6.14879 97.0087 8.84229 97.0257 12.156L99.0257 12.1506C99.0143 9.94145 100.796 8.14578 103.005 8.13983L102.995 6.13985Z" fill="#2F2F2F"/>
<path d="M80.6236 91.808H91.3756V93.704H80.6236V91.808ZM80.6236 97.496H91.3756V99.392H80.6236V97.496Z" fill="#2F2F2F"/>
<path d="M36.9996 92.312C36.6156 92.312 36.2876 92.176 36.0156 91.904C35.7596 91.616 35.6316 91.272 35.6316 90.872C35.6316 90.456 35.7596 90.112 36.0156 89.84C36.2876 89.568 36.6156 89.432 36.9996 89.432C37.3996 89.432 37.7276 89.568 37.9836 89.84C38.2556 90.112 38.3916 90.456 38.3916 90.872C38.3916 91.288 38.2556 91.632 37.9836 91.904C37.7276 92.176 37.3996 92.312 36.9996 92.312ZM31.6236 94.664H42.3756V96.56H31.6236V94.664ZM36.9996 101.768C36.6156 101.768 36.2876 101.632 36.0156 101.36C35.7596 101.072 35.6316 100.72 35.6316 100.304C35.6316 99.904 35.7596 99.568 36.0156 99.296C36.2876 99.024 36.6156 98.888 36.9996 98.888C37.3996 98.888 37.7276 99.024 37.9836 99.296C38.2556 99.568 38.3916 99.904 38.3916 100.304C38.3916 100.72 38.2556 101.072 37.9836 101.36C37.7276 101.632 37.3996 101.768 36.9996 101.768Z" fill="#2F2F2F"/>
<path d="M13.148 77.4V90H10.808V79.362H8.144V77.4H13.148Z" fill="#2F2F2F"/>
<line x1="0.5" y1="96.5" x2="26.5" y2="96.5" stroke="#2F2F2F" stroke-linecap="round"/>
<path d="M13.156 108.602C14.32 108.746 15.208 109.142 15.82 109.79C16.432 110.438 16.738 111.248 16.738 112.22C16.738 112.952 16.552 113.618 16.18 114.218C15.808 114.818 15.244 115.298 14.488 115.658C13.744 116.006 12.832 116.18 11.752 116.18C10.852 116.18 9.982 116.054 9.142 115.802C8.314 115.538 7.606 115.178 7.018 114.722L8.026 112.904C8.482 113.288 9.034 113.594 9.682 113.822C10.342 114.038 11.02 114.146 11.716 114.146C12.544 114.146 13.192 113.978 13.66 113.642C14.14 113.294 14.38 112.826 14.38 112.238C14.38 111.65 14.152 111.194 13.696 110.87C13.252 110.534 12.568 110.366 11.644 110.366H10.492V108.764L13.354 105.362H7.63V103.4H16.216V104.966L13.156 108.602Z" fill="#2F2F2F"/>
<path d="M64.918 101.02V103H55.63V101.434L60.634 96.682C61.198 96.142 61.576 95.674 61.768 95.278C61.972 94.87 62.074 94.468 62.074 94.072C62.074 93.484 61.876 93.034 61.48 92.722C61.084 92.41 60.502 92.254 59.734 92.254C58.45 92.254 57.466 92.692 56.782 93.568L55.144 92.308C55.636 91.648 56.296 91.138 57.124 90.778C57.964 90.406 58.9 90.22 59.932 90.22C61.3 90.22 62.392 90.544 63.208 91.192C64.024 91.84 64.432 92.722 64.432 93.838C64.432 94.522 64.288 95.164 64 95.764C63.712 96.364 63.16 97.048 62.344 97.816L58.978 101.02H64.918Z" fill="#2F2F2F"/>
<path d="M103.005 81.1398L149.851 81.0135L149.841 79.0135L102.995 79.1399L103.005 81.1398ZM153.872 85.0027L153.974 105.003L155.974 104.997L155.872 84.9973L153.872 85.0027ZM149.995 109.013L103.149 109.14L103.159 111.14L150.005 111.013L149.995 109.013ZM99.1285 105.15L99.0257 85.1506L97.0257 85.156L97.1285 105.156L99.1285 105.15ZM103.149 109.14C100.94 109.146 99.1398 107.36 99.1285 105.15L97.1285 105.156C97.1455 108.47 99.8456 111.149 103.159 111.14L103.149 109.14ZM153.974 105.003C153.986 107.212 152.204 109.007 149.995 109.013L150.005 111.013C153.319 111.004 155.991 108.311 155.974 104.997L153.974 105.003ZM149.851 81.0135C152.06 81.0076 153.86 82.7936 153.872 85.0027L155.872 84.9973C155.854 81.6836 153.154 79.0046 149.841 79.0135L149.851 81.0135ZM102.995 79.1399C99.6811 79.1488 97.0087 81.8423 97.0257 85.156L99.0257 85.1506C99.0143 82.9414 100.796 81.1458 103.005 81.1398L102.995 79.1399Z" fill="#2F2F2F"/>
<path d="M80.6236 164.808H91.3756V166.704H80.6236V164.808ZM80.6236 170.496H91.3756V172.392H80.6236V170.496Z" fill="#2F2F2F"/>
<path d="M36.9996 165.312C36.6156 165.312 36.2876 165.176 36.0156 164.904C35.7596 164.616 35.6316 164.272 35.6316 163.872C35.6316 163.456 35.7596 163.112 36.0156 162.84C36.2876 162.568 36.6156 162.432 36.9996 162.432C37.3996 162.432 37.7276 162.568 37.9836 162.84C38.2556 163.112 38.3916 163.456 38.3916 163.872C38.3916 164.288 38.2556 164.632 37.9836 164.904C37.7276 165.176 37.3996 165.312 36.9996 165.312ZM31.6236 167.664H42.3756V169.56H31.6236V167.664ZM36.9996 174.768C36.6156 174.768 36.2876 174.632 36.0156 174.36C35.7596 174.072 35.6316 173.72 35.6316 173.304C35.6316 172.904 35.7596 172.568 36.0156 172.296C36.2876 172.024 36.6156 171.888 36.9996 171.888C37.3996 171.888 37.7276 172.024 37.9836 172.296C38.2556 172.568 38.3916 172.904 38.3916 173.304C38.3916 173.72 38.2556 174.072 37.9836 174.36C37.7276 174.632 37.3996 174.768 36.9996 174.768Z" fill="#2F2F2F"/>
<path d="M17.918 161.02V163H8.63V161.434L13.634 156.682C14.198 156.142 14.576 155.674 14.768 155.278C14.972 154.87 15.074 154.468 15.074 154.072C15.074 153.484 14.876 153.034 14.48 152.722C14.084 152.41 13.502 152.254 12.734 152.254C11.45 152.254 10.466 152.692 9.782 153.568L8.144 152.308C8.636 151.648 9.296 151.138 10.124 150.778C10.964 150.406 11.9 150.22 12.932 150.22C14.3 150.22 15.392 150.544 16.208 151.192C17.024 151.84 17.432 152.722 17.432 153.838C17.432 154.522 17.288 155.164 17 155.764C16.712 156.364 16.16 157.048 15.344 157.816L11.978 161.02H17.918Z" fill="#2F2F2F"/>
<line x1="0.5" y1="169.5" x2="26.5" y2="169.5" stroke="#2F2F2F" stroke-linecap="round"/>
<path d="M13.156 181.602C14.32 181.746 15.208 182.142 15.82 182.79C16.432 183.438 16.738 184.248 16.738 185.22C16.738 185.952 16.552 186.618 16.18 187.218C15.808 187.818 15.244 188.298 14.488 188.658C13.744 189.006 12.832 189.18 11.752 189.18C10.852 189.18 9.982 189.054 9.142 188.802C8.314 188.538 7.606 188.178 7.018 187.722L8.026 185.904C8.482 186.288 9.034 186.594 9.682 186.822C10.342 187.038 11.02 187.146 11.716 187.146C12.544 187.146 13.192 186.978 13.66 186.642C14.14 186.294 14.38 185.826 14.38 185.238C14.38 184.65 14.152 184.194 13.696 183.87C13.252 183.534 12.568 183.366 11.644 183.366H10.492V181.764L13.354 178.362H7.63V176.4H16.216V177.966L13.156 181.602Z" fill="#2F2F2F"/>
<path d="M59.734 168.278C61.51 168.278 62.824 168.626 63.676 169.322C64.528 170.006 64.954 170.942 64.954 172.13C64.954 172.886 64.768 173.57 64.396 174.182C64.024 174.794 63.466 175.28 62.722 175.64C61.978 176 61.06 176.18 59.968 176.18C59.068 176.18 58.198 176.054 57.358 175.802C56.518 175.538 55.81 175.178 55.234 174.722L56.224 172.904C56.692 173.288 57.25 173.594 57.898 173.822C58.558 174.038 59.236 174.146 59.932 174.146C60.76 174.146 61.408 173.978 61.876 173.642C62.356 173.294 62.596 172.82 62.596 172.22C62.596 171.572 62.338 171.086 61.822 170.762C61.318 170.426 60.448 170.258 59.212 170.258H56.17L56.818 163.4H64.216V165.362H58.798L58.528 168.278H59.734Z" fill="#2F2F2F"/>
<path d="M103.005 154.14L149.851 154.014L149.841 152.014L102.995 152.14L103.005 154.14ZM153.872 158.003L153.974 178.003L155.974 177.997L155.872 157.997L153.872 158.003ZM149.995 182.013L103.149 182.14L103.159 184.14L150.005 184.013L149.995 182.013ZM99.1285 178.15L99.0257 158.151L97.0257 158.156L97.1285 178.156L99.1285 178.15ZM103.149 182.14C100.94 182.146 99.1398 180.36 99.1285 178.15L97.1285 178.156C97.1455 181.47 99.8456 184.149 103.159 184.14L103.149 182.14ZM153.974 178.003C153.986 180.212 152.204 182.007 149.995 182.013L150.005 184.013C153.319 184.004 155.991 181.311 155.974 177.997L153.974 178.003ZM149.851 154.014C152.06 154.008 153.86 155.794 153.872 158.003L155.872 157.997C155.854 154.684 153.154 152.005 149.841 152.014L149.851 154.014ZM102.995 152.14C99.6811 152.149 97.0087 154.842 97.0257 158.156L99.0257 158.151C99.0143 155.941 100.796 154.146 103.005 154.14L102.995 152.14Z" fill="#2F2F2F"/>
<path d="M353.624 18.808H364.376V20.704H353.624V18.808ZM353.624 24.496H364.376V26.392H353.624V24.496Z" fill="#2F2F2F"/>
<path d="M310 19.312C309.616 19.312 309.288 19.176 309.016 18.904C308.76 18.616 308.632 18.272 308.632 17.872C308.632 17.456 308.76 17.112 309.016 16.84C309.288 16.568 309.616 16.432 310 16.432C310.4 16.432 310.728 16.568 310.984 16.84C311.256 17.112 311.392 17.456 311.392 17.872C311.392 18.288 311.256 18.632 310.984 18.904C310.728 19.176 310.4 19.312 310 19.312ZM304.624 21.664H315.376V23.56H304.624V21.664ZM310 28.768C309.616 28.768 309.288 28.632 309.016 28.36C308.76 28.072 308.632 27.72 308.632 27.304C308.632 26.904 308.76 26.568 309.016 26.296C309.288 26.024 309.616 25.888 310 25.888C310.4 25.888 310.728 26.024 310.984 26.296C311.256 26.568 311.392 26.904 311.392 27.304C311.392 27.72 311.256 28.072 310.984 28.36C310.728 28.632 310.4 28.768 310 28.768Z" fill="#2F2F2F"/>
<path d="M286.148 4.4V17H283.808V6.362H281.144V4.4H286.148Z" fill="#2F2F2F"/>
<line x1="273.5" y1="23.5" x2="299.5" y2="23.5" stroke="#2F2F2F" stroke-linecap="round"/>
<path d="M289.918 41.02V43H280.63V41.434L285.634 36.682C286.198 36.142 286.576 35.674 286.768 35.278C286.972 34.87 287.074 34.468 287.074 34.072C287.074 33.484 286.876 33.034 286.48 32.722C286.084 32.41 285.502 32.254 284.734 32.254C283.45 32.254 282.466 32.692 281.782 33.568L280.144 32.308C280.636 31.648 281.296 31.138 282.124 30.778C282.964 30.406 283.9 30.22 284.932 30.22C286.3 30.22 287.392 30.544 288.208 31.192C289.024 31.84 289.432 32.722 289.432 33.838C289.432 34.522 289.288 35.164 289 35.764C288.712 36.364 288.16 37.048 287.344 37.816L283.978 41.02H289.918Z" fill="#2F2F2F"/>
<path d="M340.024 27.138H337.792V30H335.524V27.138H328.612V25.518L334.822 17.4H337.324L331.474 25.158H335.596V22.62H337.792V25.158H340.024V27.138Z" fill="#2F2F2F"/>
<path d="M376.005 8.13983L422.851 8.01351L422.841 6.01354L375.995 6.13985L376.005 8.13983ZM426.872 12.0027L426.974 32.0026L428.974 31.9972L428.872 11.9973L426.872 12.0027ZM422.995 36.0133L376.149 36.1396L376.159 38.1396L423.005 38.0133L422.995 36.0133ZM372.128 32.1505L372.026 12.1506L370.026 12.156L370.128 32.1559L372.128 32.1505ZM376.149 36.1396C373.94 36.1456 372.14 34.3596 372.128 32.1505L370.128 32.1559C370.146 35.4695 372.846 38.1486 376.159 38.1396L376.149 36.1396ZM426.974 32.0026C426.986 34.2117 425.204 36.0074 422.995 36.0133L423.005 38.0133C426.319 38.0044 428.991 35.3109 428.974 31.9972L426.974 32.0026ZM422.851 8.01351C425.06 8.00755 426.86 9.79356 426.872 12.0027L428.872 11.9973C428.854 8.68361 426.154 6.0046 422.841 6.01354L422.851 8.01351ZM375.995 6.13985C372.681 6.14879 370.009 8.84229 370.026 12.156L372.026 12.1506C372.014 9.94145 373.796 8.14578 376.005 8.13983L375.995 6.13985Z" fill="#2F2F2F"/>
<path d="M353.624 91.808H364.376V93.704H353.624V91.808ZM353.624 97.496H364.376V99.392H353.624V97.496Z" fill="#2F2F2F"/>
<path d="M310 92.312C309.616 92.312 309.288 92.176 309.016 91.904C308.76 91.616 308.632 91.272 308.632 90.872C308.632 90.456 308.76 90.112 309.016 89.84C309.288 89.568 309.616 89.432 310 89.432C310.4 89.432 310.728 89.568 310.984 89.84C311.256 90.112 311.392 90.456 311.392 90.872C311.392 91.288 311.256 91.632 310.984 91.904C310.728 92.176 310.4 92.312 310 92.312ZM304.624 94.664H315.376V96.56H304.624V94.664ZM310 101.768C309.616 101.768 309.288 101.632 309.016 101.36C308.76 101.072 308.632 100.72 308.632 100.304C308.632 99.904 308.76 99.568 309.016 99.296C309.288 99.024 309.616 98.888 310 98.888C310.4 98.888 310.728 99.024 310.984 99.296C311.256 99.568 311.392 99.904 311.392 100.304C311.392 100.72 311.256 101.072 310.984 101.36C310.728 101.632 310.4 101.768 310 101.768Z" fill="#2F2F2F"/>
<path d="M286.148 77.4V90H283.808V79.362H281.144V77.4H286.148Z" fill="#2F2F2F"/>
<line x1="273.5" y1="96.5" x2="299.5" y2="96.5" stroke="#2F2F2F" stroke-linecap="round"/>
<path d="M292.024 113.138H289.792V116H287.524V113.138H280.612V111.518L286.822 103.4H289.324L283.474 111.158H287.596V108.62H289.792V111.158H292.024V113.138Z" fill="#2F2F2F"/>
<path d="M337.918 101.02V103H328.63V101.434L333.634 96.682C334.198 96.142 334.576 95.674 334.768 95.278C334.972 94.87 335.074 94.468 335.074 94.072C335.074 93.484 334.876 93.034 334.48 92.722C334.084 92.41 333.502 92.254 332.734 92.254C331.45 92.254 330.466 92.692 329.782 93.568L328.144 92.308C328.636 91.648 329.296 91.138 330.124 90.778C330.964 90.406 331.9 90.22 332.932 90.22C334.3 90.22 335.392 90.544 336.208 91.192C337.024 91.84 337.432 92.722 337.432 93.838C337.432 94.522 337.288 95.164 337 95.764C336.712 96.364 336.16 97.048 335.344 97.816L331.978 101.02H337.918Z" fill="#2F2F2F"/>
<path d="M376.005 81.1398L422.851 81.0135L422.841 79.0135L375.995 79.1399L376.005 81.1398ZM426.872 85.0027L426.974 105.003L428.974 104.997L428.872 84.9973L426.872 85.0027ZM422.995 109.013L376.149 109.14L376.159 111.14L423.005 111.013L422.995 109.013ZM372.128 105.15L372.026 85.1506L370.026 85.156L370.128 105.156L372.128 105.15ZM376.149 109.14C373.94 109.146 372.14 107.36 372.128 105.15L370.128 105.156C370.146 108.47 372.846 111.149 376.159 111.14L376.149 109.14ZM426.974 105.003C426.986 107.212 425.204 109.007 422.995 109.013L423.005 111.013C426.319 111.004 428.991 108.311 428.974 104.997L426.974 105.003ZM422.851 81.0135C425.06 81.0076 426.86 82.7936 426.872 85.0027L428.872 84.9973C428.854 81.6836 426.154 79.0046 422.841 79.0135L422.851 81.0135ZM375.995 79.1399C372.681 79.1488 370.009 81.8423 370.026 85.156L372.026 85.1506C372.014 82.9414 373.796 81.1458 376.005 81.1398L375.995 79.1399Z" fill="#2F2F2F"/>
<path d="M353.624 164.808H364.376V166.704H353.624V164.808ZM353.624 170.496H364.376V172.392H353.624V170.496Z" fill="#2F2F2F"/>
<path d="M310 165.312C309.616 165.312 309.288 165.176 309.016 164.904C308.76 164.616 308.632 164.272 308.632 163.872C308.632 163.456 308.76 163.112 309.016 162.84C309.288 162.568 309.616 162.432 310 162.432C310.4 162.432 310.728 162.568 310.984 162.84C311.256 163.112 311.392 163.456 311.392 163.872C311.392 164.288 311.256 164.632 310.984 164.904C310.728 165.176 310.4 165.312 310 165.312ZM304.624 167.664H315.376V169.56H304.624V167.664ZM310 174.768C309.616 174.768 309.288 174.632 309.016 174.36C308.76 174.072 308.632 173.72 308.632 173.304C308.632 172.904 308.76 172.568 309.016 172.296C309.288 172.024 309.616 171.888 310 171.888C310.4 171.888 310.728 172.024 310.984 172.296C311.256 172.568 311.392 172.904 311.392 173.304C311.392 173.72 311.256 174.072 310.984 174.36C310.728 174.632 310.4 174.768 310 174.768Z" fill="#2F2F2F"/>
<path d="M286.148 150.4V163H283.808V152.362H281.144V150.4H286.148Z" fill="#2F2F2F"/>
<line x1="273.5" y1="169.5" x2="299.5" y2="169.5" stroke="#2F2F2F" stroke-linecap="round"/>
<path d="M286.156 181.602C287.32 181.746 288.208 182.142 288.82 182.79C289.432 183.438 289.738 184.248 289.738 185.22C289.738 185.952 289.552 186.618 289.18 187.218C288.808 187.818 288.244 188.298 287.488 188.658C286.744 189.006 285.832 189.18 284.752 189.18C283.852 189.18 282.982 189.054 282.142 188.802C281.314 188.538 280.606 188.178 280.018 187.722L281.026 185.904C281.482 186.288 282.034 186.594 282.682 186.822C283.342 187.038 284.02 187.146 284.716 187.146C285.544 187.146 286.192 186.978 286.66 186.642C287.14 186.294 287.38 185.826 287.38 185.238C287.38 184.65 287.152 184.194 286.696 183.87C286.252 183.534 285.568 183.366 284.644 183.366H283.492V181.764L286.354 178.362H280.63V176.4H289.216V177.966L286.156 181.602Z" fill="#2F2F2F"/>
<path d="M334.156 168.602C335.32 168.746 336.208 169.142 336.82 169.79C337.432 170.438 337.738 171.248 337.738 172.22C337.738 172.952 337.552 173.618 337.18 174.218C336.808 174.818 336.244 175.298 335.488 175.658C334.744 176.006 333.832 176.18 332.752 176.18C331.852 176.18 330.982 176.054 330.142 175.802C329.314 175.538 328.606 175.178 328.018 174.722L329.026 172.904C329.482 173.288 330.034 173.594 330.682 173.822C331.342 174.038 332.02 174.146 332.716 174.146C333.544 174.146 334.192 173.978 334.66 173.642C335.14 173.294 335.38 172.826 335.38 172.238C335.38 171.65 335.152 171.194 334.696 170.87C334.252 170.534 333.568 170.366 332.644 170.366H331.492V168.764L334.354 165.362H328.63V163.4H337.216V164.966L334.156 168.602Z" fill="#2F2F2F"/>
<path d="M376.005 154.14L422.851 154.014L422.841 152.014L375.995 152.14L376.005 154.14ZM426.872 158.003L426.974 178.003L428.974 177.997L428.872 157.997L426.872 158.003ZM422.995 182.013L376.149 182.14L376.159 184.14L423.005 184.013L422.995 182.013ZM372.128 178.15L372.026 158.151L370.026 158.156L370.128 178.156L372.128 178.15ZM376.149 182.14C373.94 182.146 372.14 180.36 372.128 178.15L370.128 178.156C370.146 181.47 372.846 184.149 376.159 184.14L376.149 182.14ZM426.974 178.003C426.986 180.212 425.204 182.007 422.995 182.013L423.005 184.013C426.319 184.004 428.991 181.311 428.974 177.997L426.974 178.003ZM422.851 154.014C425.06 154.008 426.86 155.794 426.872 158.003L428.872 157.997C428.854 154.684 426.154 152.005 422.841 152.014L422.851 154.014ZM375.995 152.14C372.681 152.149 370.009 154.842 370.026 158.156L372.026 158.151C372.014 155.941 373.796 154.146 376.005 154.14L375.995 152.14Z" fill="#2F2F2F"/>
<path d="M117.962 15.4V28H116.18V16.966H113.336V15.4H117.962ZM126.82 12.844H128.386L122.446 29.8H120.88L126.82 12.844ZM135.191 20.35C136.019 20.35 136.757 20.506 137.405 20.818C138.065 21.13 138.581 21.58 138.953 22.168C139.325 22.744 139.511 23.41 139.511 24.166C139.511 24.958 139.313 25.654 138.917 26.254C138.533 26.854 137.999 27.322 137.315 27.658C136.643 27.982 135.887 28.144 135.047 28.144C133.355 28.144 132.047 27.598 131.123 26.506C130.211 25.414 129.755 23.866 129.755 21.862C129.755 20.458 130.001 19.264 130.493 18.28C130.997 17.284 131.693 16.534 132.581 16.03C133.481 15.514 134.525 15.256 135.713 15.256C136.325 15.256 136.901 15.322 137.441 15.454C137.981 15.574 138.449 15.754 138.845 15.994L138.161 17.398C137.561 17.002 136.757 16.804 135.749 16.804C134.441 16.804 133.415 17.212 132.671 18.028C131.927 18.832 131.555 20.008 131.555 21.556C131.555 21.748 131.561 21.898 131.573 22.006C131.933 21.466 132.425 21.058 133.049 20.782C133.685 20.494 134.399 20.35 135.191 20.35ZM134.975 26.686C135.803 26.686 136.475 26.464 136.991 26.02C137.507 25.576 137.765 24.982 137.765 24.238C137.765 23.494 137.501 22.906 136.973 22.474C136.457 22.03 135.761 21.808 134.885 21.808C134.321 21.808 133.817 21.916 133.373 22.132C132.941 22.348 132.599 22.642 132.347 23.014C132.107 23.386 131.987 23.8 131.987 24.256C131.987 24.7 132.101 25.108 132.329 25.48C132.569 25.84 132.911 26.134 133.355 26.362C133.811 26.578 134.351 26.686 134.975 26.686Z" fill="#2F2F2F"/>
<path d="M117.962 88.4V101H116.18V89.966H113.336V88.4H117.962ZM126.82 85.844H128.386L122.446 102.8H120.88L126.82 85.844ZM135.191 93.35C136.019 93.35 136.757 93.506 137.405 93.818C138.065 94.13 138.581 94.58 138.953 95.168C139.325 95.744 139.511 96.41 139.511 97.166C139.511 97.958 139.313 98.654 138.917 99.254C138.533 99.854 137.999 100.322 137.315 100.658C136.643 100.982 135.887 101.144 135.047 101.144C133.355 101.144 132.047 100.598 131.123 99.506C130.211 98.414 129.755 96.866 129.755 94.862C129.755 93.458 130.001 92.264 130.493 91.28C130.997 90.284 131.693 89.534 132.581 89.03C133.481 88.514 134.525 88.256 135.713 88.256C136.325 88.256 136.901 88.322 137.441 88.454C137.981 88.574 138.449 88.754 138.845 88.994L138.161 90.398C137.561 90.002 136.757 89.804 135.749 89.804C134.441 89.804 133.415 90.212 132.671 91.028C131.927 91.832 131.555 93.008 131.555 94.556C131.555 94.748 131.561 94.898 131.573 95.006C131.933 94.466 132.425 94.058 133.049 93.782C133.685 93.494 134.399 93.35 135.191 93.35ZM134.975 99.686C135.803 99.686 136.475 99.464 136.991 99.02C137.507 98.576 137.765 97.982 137.765 97.238C137.765 96.494 137.501 95.906 136.973 95.474C136.457 95.03 135.761 94.808 134.885 94.808C134.321 94.808 133.817 94.916 133.373 95.132C132.941 95.348 132.599 95.642 132.347 96.014C132.107 96.386 131.987 96.8 131.987 97.256C131.987 97.7 132.101 98.108 132.329 98.48C132.569 98.84 132.911 99.134 133.355 99.362C133.811 99.578 134.351 99.686 134.975 99.686Z" fill="#2F2F2F"/>
<path d="M117.747 172.434V174H108.693V172.776L113.823 167.826C114.447 167.226 114.867 166.71 115.083 166.278C115.299 165.834 115.407 165.39 115.407 164.946C115.407 164.286 115.173 163.776 114.705 163.416C114.249 163.044 113.589 162.858 112.725 162.858C111.333 162.858 110.259 163.314 109.503 164.226L108.279 163.164C108.771 162.564 109.413 162.096 110.205 161.76C111.009 161.424 111.903 161.256 112.887 161.256C114.207 161.256 115.257 161.574 116.037 162.21C116.817 162.834 117.207 163.686 117.207 164.766C117.207 165.438 117.063 166.074 116.775 166.674C116.487 167.274 115.941 167.958 115.137 168.726L111.285 172.434H117.747ZM125.505 158.844H127.071L121.131 175.8H119.565L125.505 158.844ZM133.242 161.4V174H131.46V162.966H128.616V161.4H133.242ZM141.128 166.422C142.928 166.422 144.248 166.764 145.088 167.448C145.94 168.12 146.366 169.044 146.366 170.22C146.366 170.964 146.186 171.636 145.826 172.236C145.478 172.824 144.944 173.292 144.224 173.64C143.516 173.976 142.64 174.144 141.596 174.144C140.708 174.144 139.85 174.012 139.022 173.748C138.194 173.472 137.51 173.094 136.97 172.614L137.798 171.192C138.23 171.6 138.782 171.93 139.454 172.182C140.126 172.422 140.834 172.542 141.578 172.542C142.526 172.542 143.258 172.344 143.774 171.948C144.302 171.54 144.566 170.988 144.566 170.292C144.566 169.536 144.278 168.966 143.702 168.582C143.126 168.186 142.142 167.988 140.75 167.988H137.888L138.554 161.4H145.664V162.966H140.066L139.724 166.422H141.128Z" fill="#2F2F2F"/>
<path d="M391.558 15.4V28H389.776V16.966H386.932V15.4H391.558ZM400.416 12.844H401.982L396.042 29.8H394.476L400.416 12.844ZM410.984 21.394C411.704 21.67 412.256 22.066 412.64 22.582C413.024 23.098 413.216 23.716 413.216 24.436C413.216 25.192 413.012 25.852 412.604 26.416C412.196 26.968 411.614 27.394 410.858 27.694C410.102 27.994 409.214 28.144 408.194 28.144C407.186 28.144 406.304 27.994 405.548 27.694C404.804 27.394 404.228 26.968 403.82 26.416C403.412 25.852 403.208 25.192 403.208 24.436C403.208 23.716 403.394 23.098 403.766 22.582C404.15 22.066 404.702 21.67 405.422 21.394C404.846 21.118 404.408 20.752 404.108 20.296C403.808 19.84 403.658 19.3 403.658 18.676C403.658 17.98 403.844 17.374 404.216 16.858C404.6 16.342 405.134 15.946 405.818 15.67C406.502 15.394 407.294 15.256 408.194 15.256C409.106 15.256 409.904 15.394 410.588 15.67C411.284 15.946 411.818 16.342 412.19 16.858C412.574 17.374 412.766 17.98 412.766 18.676C412.766 19.288 412.61 19.828 412.298 20.296C411.998 20.752 411.56 21.118 410.984 21.394ZM408.194 16.714C407.342 16.714 406.67 16.9 406.178 17.272C405.686 17.632 405.44 18.124 405.44 18.748C405.44 19.372 405.68 19.864 406.16 20.224C406.652 20.584 407.33 20.764 408.194 20.764C409.07 20.764 409.754 20.584 410.246 20.224C410.75 19.864 411.002 19.372 411.002 18.748C411.002 18.124 410.744 17.632 410.228 17.272C409.724 16.9 409.046 16.714 408.194 16.714ZM408.194 26.686C409.19 26.686 409.976 26.482 410.552 26.074C411.128 25.654 411.416 25.09 411.416 24.382C411.416 23.686 411.128 23.14 410.552 22.744C409.976 22.336 409.19 22.132 408.194 22.132C407.198 22.132 406.418 22.336 405.854 22.744C405.29 23.14 405.008 23.686 405.008 24.382C405.008 25.09 405.29 25.654 405.854 26.074C406.418 26.482 407.198 26.686 408.194 26.686Z" fill="#2F2F2F"/>
<path d="M391.558 88.4V101H389.776V89.966H386.932V88.4H391.558ZM400.416 85.844H401.982L396.042 102.8H394.476L400.416 85.844ZM410.984 94.394C411.704 94.67 412.256 95.066 412.64 95.582C413.024 96.098 413.216 96.716 413.216 97.436C413.216 98.192 413.012 98.852 412.604 99.416C412.196 99.968 411.614 100.394 410.858 100.694C410.102 100.994 409.214 101.144 408.194 101.144C407.186 101.144 406.304 100.994 405.548 100.694C404.804 100.394 404.228 99.968 403.82 99.416C403.412 98.852 403.208 98.192 403.208 97.436C403.208 96.716 403.394 96.098 403.766 95.582C404.15 95.066 404.702 94.67 405.422 94.394C404.846 94.118 404.408 93.752 404.108 93.296C403.808 92.84 403.658 92.3 403.658 91.676C403.658 90.98 403.844 90.374 404.216 89.858C404.6 89.342 405.134 88.946 405.818 88.67C406.502 88.394 407.294 88.256 408.194 88.256C409.106 88.256 409.904 88.394 410.588 88.67C411.284 88.946 411.818 89.342 412.19 89.858C412.574 90.374 412.766 90.98 412.766 91.676C412.766 92.288 412.61 92.828 412.298 93.296C411.998 93.752 411.56 94.118 410.984 94.394ZM408.194 89.714C407.342 89.714 406.67 89.9 406.178 90.272C405.686 90.632 405.44 91.124 405.44 91.748C405.44 92.372 405.68 92.864 406.16 93.224C406.652 93.584 407.33 93.764 408.194 93.764C409.07 93.764 409.754 93.584 410.246 93.224C410.75 92.864 411.002 92.372 411.002 91.748C411.002 91.124 410.744 90.632 410.228 90.272C409.724 89.9 409.046 89.714 408.194 89.714ZM408.194 99.686C409.19 99.686 409.976 99.482 410.552 99.074C411.128 98.654 411.416 98.09 411.416 97.382C411.416 96.686 411.128 96.14 410.552 95.744C409.976 95.336 409.19 95.132 408.194 95.132C407.198 95.132 406.418 95.336 405.854 95.744C405.29 96.14 405.008 96.686 405.008 97.382C405.008 98.09 405.29 98.654 405.854 99.074C406.418 99.482 407.198 99.686 408.194 99.686Z" fill="#2F2F2F"/>
<path d="M391.61 161.4V174H389.828V162.966H386.984V161.4H391.61ZM400.469 158.844H402.035L396.095 175.8H394.529L400.469 158.844ZM407.841 161.256C409.533 161.256 410.835 161.802 411.747 162.894C412.671 163.986 413.133 165.534 413.133 167.538C413.133 168.942 412.881 170.142 412.377 171.138C411.885 172.122 411.189 172.872 410.289 173.388C409.401 173.892 408.363 174.144 407.175 174.144C406.563 174.144 405.987 174.084 405.447 173.964C404.907 173.832 404.439 173.646 404.043 173.406L404.727 172.002C405.339 172.398 406.149 172.596 407.157 172.596C408.465 172.596 409.485 172.194 410.217 171.39C410.961 170.574 411.333 169.392 411.333 167.844V167.394C410.973 167.934 410.475 168.348 409.839 168.636C409.203 168.912 408.489 169.05 407.697 169.05C406.869 169.05 406.125 168.894 405.465 168.582C404.817 168.27 404.307 167.826 403.935 167.25C403.575 166.662 403.395 165.99 403.395 165.234C403.395 164.442 403.587 163.746 403.971 163.146C404.367 162.546 404.901 162.084 405.573 161.76C406.245 161.424 407.001 161.256 407.841 161.256ZM408.003 167.592C408.567 167.592 409.071 167.484 409.515 167.268C409.959 167.052 410.301 166.758 410.541 166.386C410.793 166.014 410.919 165.6 410.919 165.144C410.919 164.7 410.799 164.298 410.559 163.938C410.331 163.566 409.989 163.272 409.533 163.056C409.089 162.828 408.549 162.714 407.913 162.714C407.085 162.714 406.413 162.936 405.897 163.38C405.393 163.824 405.141 164.418 405.141 165.162C405.141 165.906 405.399 166.5 405.915 166.944C406.431 167.376 407.127 167.592 408.003 167.592Z" fill="#2F2F2F"/>
</svg>
