<svg width="316" height="71" viewBox="0 0 316 71" fill="none" xmlns="http://www.w3.org/2000/svg">
<path d="M5.00369 1.1347L36.1794 1.01865L36.1719 -0.981339L4.99624 -0.865285L5.00369 1.1347ZM40.1942 5.00373L40.2687 25.0036L42.2686 24.9961L42.1942 4.99628L40.1942 5.00373ZM36.2836 29.0185L5.10791 29.1345L5.11536 31.1345L36.291 31.0184L36.2836 29.0185ZM1.09306 25.1494L1.01861 5.14956L-0.98138 5.15701L-0.90693 25.1569L1.09306 25.1494ZM5.10791 29.1345C2.89879 29.1427 1.10128 27.3586 1.09306 25.1494L-0.90693 25.1569C-0.894594 28.4706 1.80167 31.1468 5.11536 31.1345L5.10791 29.1345ZM40.2687 25.0036C40.2769 27.2127 38.4927 29.0102 36.2836 29.0185L36.291 31.0184C39.6047 31.0061 42.281 28.3098 42.2686 24.9961L40.2687 25.0036ZM36.1794 1.01865C38.3885 1.01042 40.186 2.7946 40.1942 5.00373L42.1942 4.99628C42.1819 1.6826 39.4856 -0.993674 36.1719 -0.981339L36.1794 1.01865ZM4.99624 -0.865285C1.68256 -0.85295 -0.993716 1.84332 -0.98138 5.15701L1.01861 5.14956C1.01038 2.94044 2.79456 1.14292 5.00369 1.1347L4.99624 -0.865285Z" fill="#2F2F2F"/>
<line x1="7.64453" y1="34.6533" x2="33.6445" y2="34.6533" stroke="#2F2F2F" stroke-linecap="round"/>
<path d="M5.00369 41.288L36.1794 41.172L36.1719 39.172L4.99624 39.288L5.00369 41.288ZM40.1942 45.157L40.2687 65.1569L42.2686 65.1495L42.1942 45.1496L40.1942 45.157ZM36.2836 69.1718L5.10791 69.2878L5.11536 71.2878L36.291 71.1718L36.2836 69.1718ZM1.09306 65.3027L1.01861 45.3029L-0.98138 45.3103L-0.90693 65.3102L1.09306 65.3027ZM5.10791 69.2878C2.89879 69.2961 1.10128 67.5119 1.09306 65.3027L-0.90693 65.3102C-0.894594 68.6239 1.80167 71.3001 5.11536 71.2878L5.10791 69.2878ZM40.2687 65.1569C40.2769 67.366 38.4927 69.1636 36.2836 69.1718L36.291 71.1718C39.6047 71.1594 42.281 68.4632 42.2686 65.1495L40.2687 65.1569ZM36.1794 41.172C38.3885 41.1637 40.186 42.9479 40.1942 45.157L42.1942 45.1496C42.1819 41.8359 39.4856 39.1596 36.1719 39.172L36.1794 41.172ZM4.99624 39.288C1.68256 39.3004 -0.993716 41.9966 -0.98138 45.3103L1.01861 45.3029C1.01038 43.0938 2.79456 41.2962 5.00369 41.288L4.99624 39.288Z" fill="#2F2F2F"/>
<path d="M25.052 19.434V21H15.998V19.776L21.128 14.826C21.752 14.226 22.172 13.71 22.388 13.278C22.604 12.834 22.712 12.39 22.712 11.946C22.712 11.286 22.478 10.776 22.01 10.416C21.554 10.044 20.894 9.858 20.03 9.858C18.638 9.858 17.564 10.314 16.808 11.226L15.584 10.164C16.076 9.564 16.718 9.096 17.51 8.76C18.314 8.424 19.208 8.256 20.192 8.256C21.512 8.256 22.562 8.574 23.342 9.21C24.122 9.834 24.512 10.686 24.512 11.766C24.512 12.438 24.368 13.074 24.08 13.674C23.792 14.274 23.246 14.958 22.442 15.726L18.59 19.434H25.052Z" fill="#2F2F2F"/>
<path d="M22.776 54.394C23.496 54.67 24.048 55.066 24.432 55.582C24.816 56.098 25.008 56.716 25.008 57.436C25.008 58.192 24.804 58.852 24.396 59.416C23.988 59.968 23.406 60.394 22.65 60.694C21.894 60.994 21.006 61.144 19.986 61.144C18.978 61.144 18.096 60.994 17.34 60.694C16.596 60.394 16.02 59.968 15.612 59.416C15.204 58.852 15 58.192 15 57.436C15 56.716 15.186 56.098 15.558 55.582C15.942 55.066 16.494 54.67 17.214 54.394C16.638 54.118 16.2 53.752 15.9 53.296C15.6 52.84 15.45 52.3 15.45 51.676C15.45 50.98 15.636 50.374 16.008 49.858C16.392 49.342 16.926 48.946 17.61 48.67C18.294 48.394 19.086 48.256 19.986 48.256C20.898 48.256 21.696 48.394 22.38 48.67C23.076 48.946 23.61 49.342 23.982 49.858C24.366 50.374 24.558 50.98 24.558 51.676C24.558 52.288 24.402 52.828 24.09 53.296C23.79 53.752 23.352 54.118 22.776 54.394ZM19.986 49.714C19.134 49.714 18.462 49.9 17.97 50.272C17.478 50.632 17.232 51.124 17.232 51.748C17.232 52.372 17.472 52.864 17.952 53.224C18.444 53.584 19.122 53.764 19.986 53.764C20.862 53.764 21.546 53.584 22.038 53.224C22.542 52.864 22.794 52.372 22.794 51.748C22.794 51.124 22.536 50.632 22.02 50.272C21.516 49.9 20.838 49.714 19.986 49.714ZM19.986 59.686C20.982 59.686 21.768 59.482 22.344 59.074C22.92 58.654 23.208 58.09 23.208 57.382C23.208 56.686 22.92 56.14 22.344 55.744C21.768 55.336 20.982 55.132 19.986 55.132C18.99 55.132 18.21 55.336 17.646 55.744C17.082 56.14 16.8 56.686 16.8 57.382C16.8 58.09 17.082 58.654 17.646 59.074C18.21 59.482 18.99 59.686 19.986 59.686Z" fill="#2F2F2F"/>
<path d="M96.0037 1.1347L127.179 1.01865L127.172 -0.981339L95.9962 -0.865285L96.0037 1.1347ZM131.194 5.00373L131.269 25.0036L133.269 24.9961L133.194 4.99628L131.194 5.00373ZM127.284 29.0185L96.1079 29.1345L96.1154 31.1345L127.291 31.0184L127.284 29.0185ZM92.0931 25.1494L92.0186 5.14956L90.0186 5.15701L90.0931 25.1569L92.0931 25.1494ZM96.1079 29.1345C93.8988 29.1427 92.1013 27.3586 92.0931 25.1494L90.0931 25.1569C90.1054 28.4706 92.8017 31.1468 96.1154 31.1345L96.1079 29.1345ZM131.269 25.0036C131.277 27.2127 129.493 29.0102 127.284 29.0185L127.291 31.0184C130.605 31.0061 133.281 28.3098 133.269 24.9961L131.269 25.0036ZM127.179 1.01865C129.388 1.01042 131.186 2.7946 131.194 5.00373L133.194 4.99628C133.182 1.6826 130.486 -0.993674 127.172 -0.981339L127.179 1.01865ZM95.9962 -0.865285C92.6826 -0.85295 90.0063 1.84332 90.0186 5.15701L92.0186 5.14956C92.0104 2.94044 93.7946 1.14292 96.0037 1.1347L95.9962 -0.865285Z" fill="#2F2F2F"/>
<line x1="98.6445" y1="34.6533" x2="124.645" y2="34.6533" stroke="#2F2F2F" stroke-linecap="round"/>
<path d="M96.0037 41.288L127.179 41.172L127.172 39.172L95.9962 39.288L96.0037 41.288ZM131.194 45.157L131.269 65.1569L133.269 65.1495L133.194 45.1496L131.194 45.157ZM127.284 69.1718L96.1079 69.2878L96.1154 71.2878L127.291 71.1718L127.284 69.1718ZM92.0931 65.3027L92.0186 45.3029L90.0186 45.3103L90.0931 65.3102L92.0931 65.3027ZM96.1079 69.2878C93.8988 69.2961 92.1013 67.5119 92.0931 65.3027L90.0931 65.3102C90.1054 68.6239 92.8017 71.3001 96.1154 71.2878L96.1079 69.2878ZM131.269 65.1569C131.277 67.366 129.493 69.1636 127.284 69.1718L127.291 71.1718C130.605 71.1594 133.281 68.4632 133.269 65.1495L131.269 65.1569ZM127.179 41.172C129.388 41.1637 131.186 42.9479 131.194 45.157L133.194 45.1496C133.182 41.8359 130.486 39.1596 127.172 39.172L127.179 41.172ZM95.9962 39.288C92.6826 39.3004 90.0063 41.9966 90.0186 45.3103L92.0186 45.3029C92.0104 43.0938 93.7946 41.2962 96.0037 41.288L95.9962 39.288Z" fill="#2F2F2F"/>
<path d="M112.939 8.4V21H111.157V9.966H108.313V8.4H112.939Z" fill="#2F2F2F"/>
<path d="M113.776 54.394C114.496 54.67 115.048 55.066 115.432 55.582C115.816 56.098 116.008 56.716 116.008 57.436C116.008 58.192 115.804 58.852 115.396 59.416C114.988 59.968 114.406 60.394 113.65 60.694C112.894 60.994 112.006 61.144 110.986 61.144C109.978 61.144 109.096 60.994 108.34 60.694C107.596 60.394 107.02 59.968 106.612 59.416C106.204 58.852 106 58.192 106 57.436C106 56.716 106.186 56.098 106.558 55.582C106.942 55.066 107.494 54.67 108.214 54.394C107.638 54.118 107.2 53.752 106.9 53.296C106.6 52.84 106.45 52.3 106.45 51.676C106.45 50.98 106.636 50.374 107.008 49.858C107.392 49.342 107.926 48.946 108.61 48.67C109.294 48.394 110.086 48.256 110.986 48.256C111.898 48.256 112.696 48.394 113.38 48.67C114.076 48.946 114.61 49.342 114.982 49.858C115.366 50.374 115.558 50.98 115.558 51.676C115.558 52.288 115.402 52.828 115.09 53.296C114.79 53.752 114.352 54.118 113.776 54.394ZM110.986 49.714C110.134 49.714 109.462 49.9 108.97 50.272C108.478 50.632 108.232 51.124 108.232 51.748C108.232 52.372 108.472 52.864 108.952 53.224C109.444 53.584 110.122 53.764 110.986 53.764C111.862 53.764 112.546 53.584 113.038 53.224C113.542 52.864 113.794 52.372 113.794 51.748C113.794 51.124 113.536 50.632 113.02 50.272C112.516 49.9 111.838 49.714 110.986 49.714ZM110.986 59.686C111.982 59.686 112.768 59.482 113.344 59.074C113.92 58.654 114.208 58.09 114.208 57.382C114.208 56.686 113.92 56.14 113.344 55.744C112.768 55.336 111.982 55.132 110.986 55.132C109.99 55.132 109.21 55.336 108.646 55.744C108.082 56.14 107.8 56.686 107.8 57.382C107.8 58.09 108.082 58.654 108.646 59.074C109.21 59.482 109.99 59.686 110.986 59.686Z" fill="#2F2F2F"/>
<path d="M188.004 1.1347L219.179 1.01865L219.172 -0.981339L187.996 -0.865285L188.004 1.1347ZM223.194 5.00373L223.269 25.0036L225.269 24.9961L225.194 4.99628L223.194 5.00373ZM219.284 29.0185L188.108 29.1345L188.115 31.1345L219.291 31.0184L219.284 29.0185ZM184.093 25.1494L184.019 5.14956L182.019 5.15701L182.093 25.1569L184.093 25.1494ZM188.108 29.1345C185.899 29.1427 184.101 27.3586 184.093 25.1494L182.093 25.1569C182.105 28.4706 184.802 31.1468 188.115 31.1345L188.108 29.1345ZM223.269 25.0036C223.277 27.2127 221.493 29.0102 219.284 29.0185L219.291 31.0184C222.605 31.0061 225.281 28.3098 225.269 24.9961L223.269 25.0036ZM219.179 1.01865C221.388 1.01042 223.186 2.7946 223.194 5.00373L225.194 4.99628C225.182 1.6826 222.486 -0.993674 219.172 -0.981339L219.179 1.01865ZM187.996 -0.865285C184.683 -0.85295 182.006 1.84332 182.019 5.15701L184.019 5.14956C184.01 2.94044 185.795 1.14292 188.004 1.1347L187.996 -0.865285Z" fill="#2F2F2F"/>
<line x1="190.645" y1="34.6533" x2="216.645" y2="34.6533" stroke="#2F2F2F" stroke-linecap="round"/>
<path d="M188.004 41.288L219.179 41.172L219.172 39.172L187.996 39.288L188.004 41.288ZM223.194 45.157L223.269 65.1569L225.269 65.1495L225.194 45.1496L223.194 45.157ZM219.284 69.1718L188.108 69.2878L188.115 71.2878L219.291 71.1718L219.284 69.1718ZM184.093 65.3027L184.019 45.3029L182.019 45.3103L182.093 65.3102L184.093 65.3027ZM188.108 69.2878C185.899 69.2961 184.101 67.5119 184.093 65.3027L182.093 65.3102C182.105 68.6239 184.802 71.3001 188.115 71.2878L188.108 69.2878ZM223.269 65.1569C223.277 67.366 221.493 69.1636 219.284 69.1718L219.291 71.1718C222.605 71.1594 225.281 68.4632 225.269 65.1495L223.269 65.1569ZM219.179 41.172C221.388 41.1637 223.186 42.9479 223.194 45.157L225.194 45.1496C225.182 41.8359 222.486 39.1596 219.172 39.172L219.179 41.172ZM187.996 39.288C184.683 39.3004 182.006 41.9966 182.019 45.3103L184.019 45.3029C184.01 43.0938 185.795 41.2962 188.004 41.288L187.996 39.288Z" fill="#2F2F2F"/>
<path d="M208.052 19.434V21H198.998V19.776L204.128 14.826C204.752 14.226 205.172 13.71 205.388 13.278C205.604 12.834 205.712 12.39 205.712 11.946C205.712 11.286 205.478 10.776 205.01 10.416C204.554 10.044 203.894 9.858 203.03 9.858C201.638 9.858 200.564 10.314 199.808 11.226L198.584 10.164C199.076 9.564 199.718 9.096 200.51 8.76C201.314 8.424 202.208 8.256 203.192 8.256C204.512 8.256 205.562 8.574 206.342 9.21C207.122 9.834 207.512 10.686 207.512 11.766C207.512 12.438 207.368 13.074 207.08 13.674C206.792 14.274 206.246 14.958 205.442 15.726L201.59 19.434H208.052Z" fill="#2F2F2F"/>
<path d="M205.776 54.394C206.496 54.67 207.048 55.066 207.432 55.582C207.816 56.098 208.008 56.716 208.008 57.436C208.008 58.192 207.804 58.852 207.396 59.416C206.988 59.968 206.406 60.394 205.65 60.694C204.894 60.994 204.006 61.144 202.986 61.144C201.978 61.144 201.096 60.994 200.34 60.694C199.596 60.394 199.02 59.968 198.612 59.416C198.204 58.852 198 58.192 198 57.436C198 56.716 198.186 56.098 198.558 55.582C198.942 55.066 199.494 54.67 200.214 54.394C199.638 54.118 199.2 53.752 198.9 53.296C198.6 52.84 198.45 52.3 198.45 51.676C198.45 50.98 198.636 50.374 199.008 49.858C199.392 49.342 199.926 48.946 200.61 48.67C201.294 48.394 202.086 48.256 202.986 48.256C203.898 48.256 204.696 48.394 205.38 48.67C206.076 48.946 206.61 49.342 206.982 49.858C207.366 50.374 207.558 50.98 207.558 51.676C207.558 52.288 207.402 52.828 207.09 53.296C206.79 53.752 206.352 54.118 205.776 54.394ZM202.986 49.714C202.134 49.714 201.462 49.9 200.97 50.272C200.478 50.632 200.232 51.124 200.232 51.748C200.232 52.372 200.472 52.864 200.952 53.224C201.444 53.584 202.122 53.764 202.986 53.764C203.862 53.764 204.546 53.584 205.038 53.224C205.542 52.864 205.794 52.372 205.794 51.748C205.794 51.124 205.536 50.632 205.02 50.272C204.516 49.9 203.838 49.714 202.986 49.714ZM202.986 59.686C203.982 59.686 204.768 59.482 205.344 59.074C205.92 58.654 206.208 58.09 206.208 57.382C206.208 56.686 205.92 56.14 205.344 55.744C204.768 55.336 203.982 55.132 202.986 55.132C201.99 55.132 201.21 55.336 200.646 55.744C200.082 56.14 199.8 56.686 199.8 57.382C199.8 58.09 200.082 58.654 200.646 59.074C201.21 59.482 201.99 59.686 202.986 59.686Z" fill="#2F2F2F"/>
<path d="M279.004 1.1347L310.179 1.01865L310.172 -0.981339L278.996 -0.865285L279.004 1.1347ZM314.194 5.00373L314.269 25.0036L316.269 24.9961L316.194 4.99628L314.194 5.00373ZM310.284 29.0185L279.108 29.1345L279.115 31.1345L310.291 31.0184L310.284 29.0185ZM275.093 25.1494L275.019 5.14956L273.019 5.15701L273.093 25.1569L275.093 25.1494ZM279.108 29.1345C276.899 29.1427 275.101 27.3586 275.093 25.1494L273.093 25.1569C273.105 28.4706 275.802 31.1468 279.115 31.1345L279.108 29.1345ZM314.269 25.0036C314.277 27.2127 312.493 29.0102 310.284 29.0185L310.291 31.0184C313.605 31.0061 316.281 28.3098 316.269 24.9961L314.269 25.0036ZM310.179 1.01865C312.388 1.01042 314.186 2.7946 314.194 5.00373L316.194 4.99628C316.182 1.6826 313.486 -0.993674 310.172 -0.981339L310.179 1.01865ZM278.996 -0.865285C275.683 -0.85295 273.006 1.84332 273.019 5.15701L275.019 5.14956C275.01 2.94044 276.795 1.14292 279.004 1.1347L278.996 -0.865285Z" fill="#2F2F2F"/>
<line x1="281.645" y1="34.6533" x2="307.645" y2="34.6533" stroke="#2F2F2F" stroke-linecap="round"/>
<path d="M279.004 41.288L310.179 41.172L310.172 39.172L278.996 39.288L279.004 41.288ZM314.194 45.157L314.269 65.1569L316.269 65.1495L316.194 45.1496L314.194 45.157ZM310.284 69.1718L279.108 69.2878L279.115 71.2878L310.291 71.1718L310.284 69.1718ZM275.093 65.3027L275.019 45.3029L273.019 45.3103L273.093 65.3102L275.093 65.3027ZM279.108 69.2878C276.899 69.2961 275.101 67.5119 275.093 65.3027L273.093 65.3102C273.105 68.6239 275.802 71.3001 279.115 71.2878L279.108 69.2878ZM314.269 65.1569C314.277 67.366 312.493 69.1636 310.284 69.1718L310.291 71.1718C313.605 71.1594 316.281 68.4632 316.269 65.1495L314.269 65.1569ZM310.179 41.172C312.388 41.1637 314.186 42.9479 314.194 45.157L316.194 45.1496C316.182 41.8359 313.486 39.1596 310.172 39.172L310.179 41.172ZM278.996 39.288C275.683 39.3004 273.006 41.9966 273.019 45.3103L275.019 45.3029C275.01 43.0938 276.795 41.2962 279.004 41.288L278.996 39.288Z" fill="#2F2F2F"/>
<path d="M293.796 13.422C295.596 13.422 296.916 13.764 297.756 14.448C298.608 15.12 299.034 16.044 299.034 17.22C299.034 17.964 298.854 18.636 298.494 19.236C298.146 19.824 297.612 20.292 296.892 20.64C296.184 20.976 295.308 21.144 294.264 21.144C293.376 21.144 292.518 21.012 291.69 20.748C290.862 20.472 290.178 20.094 289.638 19.614L290.466 18.192C290.898 18.6 291.45 18.93 292.122 19.182C292.794 19.422 293.502 19.542 294.246 19.542C295.194 19.542 295.926 19.344 296.442 18.948C296.97 18.54 297.234 17.988 297.234 17.292C297.234 16.536 296.946 15.966 296.37 15.582C295.794 15.186 294.81 14.988 293.418 14.988H290.556L291.222 8.4H298.332V9.966H292.734L292.392 13.422H293.796Z" fill="#2F2F2F"/>
<path d="M296.776 54.394C297.496 54.67 298.048 55.066 298.432 55.582C298.816 56.098 299.008 56.716 299.008 57.436C299.008 58.192 298.804 58.852 298.396 59.416C297.988 59.968 297.406 60.394 296.65 60.694C295.894 60.994 295.006 61.144 293.986 61.144C292.978 61.144 292.096 60.994 291.34 60.694C290.596 60.394 290.02 59.968 289.612 59.416C289.204 58.852 289 58.192 289 57.436C289 56.716 289.186 56.098 289.558 55.582C289.942 55.066 290.494 54.67 291.214 54.394C290.638 54.118 290.2 53.752 289.9 53.296C289.6 52.84 289.45 52.3 289.45 51.676C289.45 50.98 289.636 50.374 290.008 49.858C290.392 49.342 290.926 48.946 291.61 48.67C292.294 48.394 293.086 48.256 293.986 48.256C294.898 48.256 295.696 48.394 296.38 48.67C297.076 48.946 297.61 49.342 297.982 49.858C298.366 50.374 298.558 50.98 298.558 51.676C298.558 52.288 298.402 52.828 298.09 53.296C297.79 53.752 297.352 54.118 296.776 54.394ZM293.986 49.714C293.134 49.714 292.462 49.9 291.97 50.272C291.478 50.632 291.232 51.124 291.232 51.748C291.232 52.372 291.472 52.864 291.952 53.224C292.444 53.584 293.122 53.764 293.986 53.764C294.862 53.764 295.546 53.584 296.038 53.224C296.542 52.864 296.794 52.372 296.794 51.748C296.794 51.124 296.536 50.632 296.02 50.272C295.516 49.9 294.838 49.714 293.986 49.714ZM293.986 59.686C294.982 59.686 295.768 59.482 296.344 59.074C296.92 58.654 297.208 58.09 297.208 57.382C297.208 56.686 296.92 56.14 296.344 55.744C295.768 55.336 294.982 55.132 293.986 55.132C292.99 55.132 292.21 55.336 291.646 55.744C291.082 56.14 290.8 56.686 290.8 57.382C290.8 58.09 291.082 58.654 291.646 59.074C292.21 59.482 292.99 59.686 293.986 59.686Z" fill="#2F2F2F"/>
<path d="M70.8756 36.56H66.5076V40.856H64.4916V36.56H60.1236V34.664H64.4916V30.344H66.5076V34.664H70.8756V36.56Z" fill="black"/>
<path d="M245.124 31.808H255.876V33.704H245.124V31.808ZM245.124 37.496H255.876V39.392H245.124V37.496Z" fill="black"/>
<path d="M159.876 35.56H155.508V39.856H153.492V35.56H149.124V33.664H153.492V29.344H155.508V33.664H159.876V35.56Z" fill="black"/>
</svg>
