<svg width="93" height="48" viewBox="0 0 93 48" fill="none" xmlns="http://www.w3.org/2000/svg">
<path d="M80.6236 18.808H91.3756V20.704H80.6236V18.808ZM80.6236 24.496H91.3756V26.392H80.6236V24.496Z" fill="#2F2F2F"/>
<path d="M36.9996 19.312C36.6156 19.312 36.2876 19.176 36.0156 18.904C35.7596 18.616 35.6316 18.272 35.6316 17.872C35.6316 17.456 35.7596 17.112 36.0156 16.84C36.2876 16.568 36.6156 16.432 36.9996 16.432C37.3996 16.432 37.7276 16.568 37.9836 16.84C38.2556 17.112 38.3916 17.456 38.3916 17.872C38.3916 18.288 38.2556 18.632 37.9836 18.904C37.7276 19.176 37.3996 19.312 36.9996 19.312ZM31.6236 21.664H42.3756V23.56H31.6236V21.664ZM36.9996 28.768C36.6156 28.768 36.2876 28.632 36.0156 28.36C35.7596 28.072 35.6316 27.72 35.6316 27.304C35.6316 26.904 35.7596 26.568 36.0156 26.296C36.2876 26.024 36.6156 25.888 36.9996 25.888C37.3996 25.888 37.7276 26.024 37.9836 26.296C38.2556 26.568 38.3916 26.904 38.3916 27.304C38.3916 27.72 38.2556 28.072 37.9836 28.36C37.7276 28.632 37.3996 28.768 36.9996 28.768Z" fill="#2F2F2F"/>
<path d="M13.148 4.4V17H10.808V6.362H8.144V4.4H13.148Z" fill="#2F2F2F"/>
<line x1="0.5" y1="23.5" x2="26.5" y2="23.5" stroke="#2F2F2F" stroke-linecap="round"/>
<path d="M16.918 41.02V43H7.63V41.434L12.634 36.682C13.198 36.142 13.576 35.674 13.768 35.278C13.972 34.87 14.074 34.468 14.074 34.072C14.074 33.484 13.876 33.034 13.48 32.722C13.084 32.41 12.502 32.254 11.734 32.254C10.45 32.254 9.466 32.692 8.782 33.568L7.144 32.308C7.636 31.648 8.296 31.138 9.124 30.778C9.964 30.406 10.9 30.22 11.932 30.22C13.3 30.22 14.392 30.544 15.208 31.192C16.024 31.84 16.432 32.722 16.432 33.838C16.432 34.522 16.288 35.164 16 35.764C15.712 36.364 15.16 37.048 14.344 37.816L10.978 41.02H16.918Z" fill="#2F2F2F"/>
<path d="M61.156 22.602C62.32 22.746 63.208 23.142 63.82 23.79C64.432 24.438 64.738 25.248 64.738 26.22C64.738 26.952 64.552 27.618 64.18 28.218C63.808 28.818 63.244 29.298 62.488 29.658C61.744 30.006 60.832 30.18 59.752 30.18C58.852 30.18 57.982 30.054 57.142 29.802C56.314 29.538 55.606 29.178 55.018 28.722L56.026 26.904C56.482 27.288 57.034 27.594 57.682 27.822C58.342 28.038 59.02 28.146 59.716 28.146C60.544 28.146 61.192 27.978 61.66 27.642C62.14 27.294 62.38 26.826 62.38 26.238C62.38 25.65 62.152 25.194 61.696 24.87C61.252 24.534 60.568 24.366 59.644 24.366H58.492V22.764L61.354 19.362H55.63V17.4H64.216V18.966L61.156 22.602Z" fill="#2F2F2F"/>
</svg>
