<svg width="93" height="48" viewBox="0 0 93 48" fill="none" xmlns="http://www.w3.org/2000/svg">
<path d="M80.6236 18.808H91.3756V20.704H80.6236V18.808ZM80.6236 24.496H91.3756V26.392H80.6236V24.496Z" fill="#2F2F2F"/>
<path d="M36.9996 19.312C36.6156 19.312 36.2876 19.176 36.0156 18.904C35.7596 18.616 35.6316 18.272 35.6316 17.872C35.6316 17.456 35.7596 17.112 36.0156 16.84C36.2876 16.568 36.6156 16.432 36.9996 16.432C37.3996 16.432 37.7276 16.568 37.9836 16.84C38.2556 17.112 38.3916 17.456 38.3916 17.872C38.3916 18.288 38.2556 18.632 37.9836 18.904C37.7276 19.176 37.3996 19.312 36.9996 19.312ZM31.6236 21.664H42.3756V23.56H31.6236V21.664ZM36.9996 28.768C36.6156 28.768 36.2876 28.632 36.0156 28.36C35.7596 28.072 35.6316 27.72 35.6316 27.304C35.6316 26.904 35.7596 26.568 36.0156 26.296C36.2876 26.024 36.6156 25.888 36.9996 25.888C37.3996 25.888 37.7276 26.024 37.9836 26.296C38.2556 26.568 38.3916 26.904 38.3916 27.304C38.3916 27.72 38.2556 28.072 37.9836 28.36C37.7276 28.632 37.3996 28.768 36.9996 28.768Z" fill="#2F2F2F"/>
<path d="M13.148 4.4V17H10.808V6.362H8.144V4.4H13.148Z" fill="#2F2F2F"/>
<line x1="0.5" y1="23.5" x2="26.5" y2="23.5" stroke="#2F2F2F" stroke-linecap="round"/>
<path d="M13.156 35.602C14.32 35.746 15.208 36.142 15.82 36.79C16.432 37.438 16.738 38.248 16.738 39.22C16.738 39.952 16.552 40.618 16.18 41.218C15.808 41.818 15.244 42.298 14.488 42.658C13.744 43.006 12.832 43.18 11.752 43.18C10.852 43.18 9.982 43.054 9.142 42.802C8.314 42.538 7.606 42.178 7.018 41.722L8.026 39.904C8.482 40.288 9.034 40.594 9.682 40.822C10.342 41.038 11.02 41.146 11.716 41.146C12.544 41.146 13.192 40.978 13.66 40.642C14.14 40.294 14.38 39.826 14.38 39.238C14.38 38.65 14.152 38.194 13.696 37.87C13.252 37.534 12.568 37.366 11.644 37.366H10.492V35.764L13.354 32.362H7.63V30.4H16.216V31.966L13.156 35.602Z" fill="#2F2F2F"/>
<path d="M61.156 22.602C62.32 22.746 63.208 23.142 63.82 23.79C64.432 24.438 64.738 25.248 64.738 26.22C64.738 26.952 64.552 27.618 64.18 28.218C63.808 28.818 63.244 29.298 62.488 29.658C61.744 30.006 60.832 30.18 59.752 30.18C58.852 30.18 57.982 30.054 57.142 29.802C56.314 29.538 55.606 29.178 55.018 28.722L56.026 26.904C56.482 27.288 57.034 27.594 57.682 27.822C58.342 28.038 59.02 28.146 59.716 28.146C60.544 28.146 61.192 27.978 61.66 27.642C62.14 27.294 62.38 26.826 62.38 26.238C62.38 25.65 62.152 25.194 61.696 24.87C61.252 24.534 60.568 24.366 59.644 24.366H58.492V22.764L61.354 19.362H55.63V17.4H64.216V18.966L61.156 22.602Z" fill="#2F2F2F"/>
</svg>
