<svg width="93" height="48" viewBox="0 0 93 48" fill="none" xmlns="http://www.w3.org/2000/svg">
<path d="M80.6236 18.808H91.3756V20.704H80.6236V18.808ZM80.6236 24.496H91.3756V26.392H80.6236V24.496Z" fill="#2F2F2F"/>
<path d="M36.9996 19.312C36.6156 19.312 36.2876 19.176 36.0156 18.904C35.7596 18.616 35.6316 18.272 35.6316 17.872C35.6316 17.456 35.7596 17.112 36.0156 16.84C36.2876 16.568 36.6156 16.432 36.9996 16.432C37.3996 16.432 37.7276 16.568 37.9836 16.84C38.2556 17.112 38.3916 17.456 38.3916 17.872C38.3916 18.288 38.2556 18.632 37.9836 18.904C37.7276 19.176 37.3996 19.312 36.9996 19.312ZM31.6236 21.664H42.3756V23.56H31.6236V21.664ZM36.9996 28.768C36.6156 28.768 36.2876 28.632 36.0156 28.36C35.7596 28.072 35.6316 27.72 35.6316 27.304C35.6316 26.904 35.7596 26.568 36.0156 26.296C36.2876 26.024 36.6156 25.888 36.9996 25.888C37.3996 25.888 37.7276 26.024 37.9836 26.296C38.2556 26.568 38.3916 26.904 38.3916 27.304C38.3916 27.72 38.2556 28.072 37.9836 28.36C37.7276 28.632 37.3996 28.768 36.9996 28.768Z" fill="#2F2F2F"/>
<path d="M13.148 4.4V17H10.808V6.362H8.144V4.4H13.148Z" fill="#2F2F2F"/>
<line x1="0.5" y1="23.5" x2="26.5" y2="23.5" stroke="#2F2F2F" stroke-linecap="round"/>
<path d="M13.156 35.602C14.32 35.746 15.208 36.142 15.82 36.79C16.432 37.438 16.738 38.248 16.738 39.22C16.738 39.952 16.552 40.618 16.18 41.218C15.808 41.818 15.244 42.298 14.488 42.658C13.744 43.006 12.832 43.18 11.752 43.18C10.852 43.18 9.982 43.054 9.142 42.802C8.314 42.538 7.606 42.178 7.018 41.722L8.026 39.904C8.482 40.288 9.034 40.594 9.682 40.822C10.342 41.038 11.02 41.146 11.716 41.146C12.544 41.146 13.192 40.978 13.66 40.642C14.14 40.294 14.38 39.826 14.38 39.238C14.38 38.65 14.152 38.194 13.696 37.87C13.252 37.534 12.568 37.366 11.644 37.366H10.492V35.764L13.354 32.362H7.63V30.4H16.216V31.966L13.156 35.602Z" fill="#2F2F2F"/>
<path d="M64.918 28.02V30H55.63V28.434L60.634 23.682C61.198 23.142 61.576 22.674 61.768 22.278C61.972 21.87 62.074 21.468 62.074 21.072C62.074 20.484 61.876 20.034 61.48 19.722C61.084 19.41 60.502 19.254 59.734 19.254C58.45 19.254 57.466 19.692 56.782 20.568L55.144 19.308C55.636 18.648 56.296 18.138 57.124 17.778C57.964 17.406 58.9 17.22 59.932 17.22C61.3 17.22 62.392 17.544 63.208 18.192C64.024 18.84 64.432 19.722 64.432 20.838C64.432 21.522 64.288 22.164 64 22.764C63.712 23.364 63.16 24.048 62.344 24.816L58.978 28.02H64.918Z" fill="#2F2F2F"/>
</svg>
