<svg width="93" height="48" viewBox="0 0 93 48" fill="none" xmlns="http://www.w3.org/2000/svg">
<path d="M80.6236 18.808H91.3756V20.704H80.6236V18.808ZM80.6236 24.496H91.3756V26.392H80.6236V24.496Z" fill="#2F2F2F"/>
<path d="M36.9996 19.312C36.6156 19.312 36.2876 19.176 36.0156 18.904C35.7596 18.616 35.6316 18.272 35.6316 17.872C35.6316 17.456 35.7596 17.112 36.0156 16.84C36.2876 16.568 36.6156 16.432 36.9996 16.432C37.3996 16.432 37.7276 16.568 37.9836 16.84C38.2556 17.112 38.3916 17.456 38.3916 17.872C38.3916 18.288 38.2556 18.632 37.9836 18.904C37.7276 19.176 37.3996 19.312 36.9996 19.312ZM31.6236 21.664H42.3756V23.56H31.6236V21.664ZM36.9996 28.768C36.6156 28.768 36.2876 28.632 36.0156 28.36C35.7596 28.072 35.6316 27.72 35.6316 27.304C35.6316 26.904 35.7596 26.568 36.0156 26.296C36.2876 26.024 36.6156 25.888 36.9996 25.888C37.3996 25.888 37.7276 26.024 37.9836 26.296C38.2556 26.568 38.3916 26.904 38.3916 27.304C38.3916 27.72 38.2556 28.072 37.9836 28.36C37.7276 28.632 37.3996 28.768 36.9996 28.768Z" fill="#2F2F2F"/>
<path d="M17.918 15.02V17H8.63V15.434L13.634 10.682C14.198 10.142 14.576 9.674 14.768 9.278C14.972 8.87 15.074 8.468 15.074 8.072C15.074 7.484 14.876 7.034 14.48 6.722C14.084 6.41 13.502 6.254 12.734 6.254C11.45 6.254 10.466 6.692 9.782 7.568L8.144 6.308C8.636 5.648 9.296 5.138 10.124 4.778C10.964 4.406 11.9 4.22 12.932 4.22C14.3 4.22 15.392 4.544 16.208 5.192C17.024 5.84 17.432 6.722 17.432 7.838C17.432 8.522 17.288 9.164 17 9.764C16.712 10.364 16.16 11.048 15.344 11.816L11.978 15.02H17.918Z" fill="#2F2F2F"/>
<line x1="0.5" y1="23.5" x2="26.5" y2="23.5" stroke="#2F2F2F" stroke-linecap="round"/>
<path d="M13.156 35.602C14.32 35.746 15.208 36.142 15.82 36.79C16.432 37.438 16.738 38.248 16.738 39.22C16.738 39.952 16.552 40.618 16.18 41.218C15.808 41.818 15.244 42.298 14.488 42.658C13.744 43.006 12.832 43.18 11.752 43.18C10.852 43.18 9.982 43.054 9.142 42.802C8.314 42.538 7.606 42.178 7.018 41.722L8.026 39.904C8.482 40.288 9.034 40.594 9.682 40.822C10.342 41.038 11.02 41.146 11.716 41.146C12.544 41.146 13.192 40.978 13.66 40.642C14.14 40.294 14.38 39.826 14.38 39.238C14.38 38.65 14.152 38.194 13.696 37.87C13.252 37.534 12.568 37.366 11.644 37.366H10.492V35.764L13.354 32.362H7.63V30.4H16.216V31.966L13.156 35.602Z" fill="#2F2F2F"/>
<path d="M59.734 22.278C61.51 22.278 62.824 22.626 63.676 23.322C64.528 24.006 64.954 24.942 64.954 26.13C64.954 26.886 64.768 27.57 64.396 28.182C64.024 28.794 63.466 29.28 62.722 29.64C61.978 30 61.06 30.18 59.968 30.18C59.068 30.18 58.198 30.054 57.358 29.802C56.518 29.538 55.81 29.178 55.234 28.722L56.224 26.904C56.692 27.288 57.25 27.594 57.898 27.822C58.558 28.038 59.236 28.146 59.932 28.146C60.76 28.146 61.408 27.978 61.876 27.642C62.356 27.294 62.596 26.82 62.596 26.22C62.596 25.572 62.338 25.086 61.822 24.762C61.318 24.426 60.448 24.258 59.212 24.258H56.17L56.818 17.4H64.216V19.362H58.798L58.528 22.278H59.734Z" fill="#2F2F2F"/>
</svg>
